<?xml version="1.0" encoding="UTF-8" standalone="no"?>
<!-- Created with Inkscape (http://www.inkscape.org/) -->

<svg
   xmlns:dc="http://purl.org/dc/elements/1.1/"
   xmlns:cc="http://creativecommons.org/ns#"
   xmlns:rdf="http://www.w3.org/1999/02/22-rdf-syntax-ns#"
   xmlns:svg="http://www.w3.org/2000/svg"
   xmlns="http://www.w3.org/2000/svg"
   xmlns:sodipodi="http://sodipodi.sourceforge.net/DTD/sodipodi-0.dtd"
   xmlns:inkscape="http://www.inkscape.org/namespaces/inkscape"
   width="1.0000119in"
   height="0.99999577in"
   viewBox="0 0 25.400302 25.399893"
   version="1.1"
   id="svg8"
   inkscape:version="0.92.3 (2405546, 2018-03-11)"
   sodipodi:docname="Icon_Habitat_Wetlands.svg"
   inkscape:export-filename="C:\Users\Ryan\Icon_Habitat_Wetlands.png"
   inkscape:export-xdpi="300"
   inkscape:export-ydpi="300">
  <defs
     id="defs2" />
  <sodipodi:namedview
     id="base"
     pagecolor="#ffffff"
     bordercolor="#666666"
     borderopacity="1.0"
     inkscape:pageopacity="0.0"
     inkscape:pageshadow="2"
     inkscape:zoom="5.6"
     inkscape:cx="-7.6739215"
     inkscape:cy="61.065254"
     inkscape:document-units="mm"
     inkscape:current-layer="layer1"
     showgrid="false"
     inkscape:snap-global="false"
     fit-margin-top="0"
     fit-margin-left="0"
     fit-margin-right="0"
     fit-margin-bottom="0"
     units="in"
     inkscape:window-width="1920"
     inkscape:window-height="1017"
     inkscape:window-x="-8"
     inkscape:window-y="-8"
     inkscape:window-maximized="1" />
  <metadata
     id="metadata5">
    <rdf:RDF>
      <cc:Work
         rdf:about="">
        <dc:format>image/svg+xml</dc:format>
        <dc:type
           rdf:resource="http://purl.org/dc/dcmitype/StillImage" />
        <dc:title></dc:title>
      </cc:Work>
    </rdf:RDF>
  </metadata>
  <g
     inkscape:label="Layer 1"
     inkscape:groupmode="layer"
     id="layer1"
     transform="translate(-83.995496,-131.09691)">
    <rect
       style="opacity:1;fill:#ffffff;fill-opacity:1;fill-rule:nonzero;stroke:none;stroke-width:0.15700001;stroke-linecap:round;stroke-linejoin:round;stroke-miterlimit:4;stroke-dasharray:none;stroke-opacity:1;paint-order:stroke fill markers"
       id="rect856"
       width="18.112064"
       height="18.112064"
       x="160.99785"
       y="24.249546"
       ry="0.51689619"
       transform="rotate(45)" />
    <path
       style="opacity:1;fill:#1966a3;fill-opacity:1;fill-rule:nonzero;stroke:none;stroke-width:1.10198224;stroke-linecap:round;stroke-linejoin:round;stroke-miterlimit:4;stroke-dasharray:none;stroke-opacity:1;paint-order:stroke fill markers"
       d="m 365.46289,495.48438 c -0.81871,0 -1.63634,0.31407 -2.26367,0.9414 L 318.4043,541.2207 c -1.25467,1.25467 -1.25467,3.27463 0,4.5293 l 44.79492,44.79297 c 1.25467,1.25467 3.27463,1.25467 4.5293,0 L 412.52344,545.75 c 1.25467,-1.25467 1.25467,-3.27463 0,-4.5293 l -44.79492,-44.79492 c -0.62734,-0.62733 -1.44692,-0.94141 -2.26563,-0.9414 z m 13.39258,28.50585 c 1.52579,0.17273 2.23583,4.33388 8.73242,6.41602 5.0324,1.61291 10.12639,-0.6025 11.81641,-0.57813 1.69001,0.0227 -6.26588,4.74597 -10.92188,4.07227 -6.11308,-0.8846 -8.25956,-4.9302 -9.17969,-4.98047 -0.92016,-0.0503 -5.91451,4.7187 -13.36914,5.37305 -7.45467,0.65439 -12.708,-4.97198 -12.86328,-5.11719 -0.15507,-0.14513 -5.07512,5.24196 -10.94336,5.29688 -8.90364,0.0835 -10.22445,-3.87273 -9.91406,-4.04493 0.31038,-0.17196 5.65912,3.15106 10.70899,1.28125 7.05044,-2.61055 8.79191,-7.54634 9.60351,-7.60742 0.8116,-0.0612 5.8798,7.4124 13.14258,7.19727 9.49291,-0.2812 11.66173,-7.48128 13.1875,-7.3086 z m -0.38281,10.10743 c 1.52575,0.17272 1.83938,4.9686 8.33593,7.05078 5.03241,1.61287 10.52284,-1.23532 12.21289,-1.21094 1.69002,0.0227 -6.26591,4.746 -10.92187,4.07227 -6.11312,-0.8846 -8.25949,-4.93021 -9.17969,-4.98047 -0.92016,-0.0503 -5.91446,4.71866 -13.36914,5.37304 -7.45463,0.65435 -12.70604,-4.97194 -12.86133,-5.11718 -0.15507,-0.14514 -4.04717,5.24195 -10.94531,5.29687 -8.90377,0.0707 -10.22445,-3.87276 -9.91406,-4.04492 0.31037,-0.17235 5.65913,3.1511 10.70898,1.28125 7.05044,-2.61056 8.79192,-7.54635 9.60352,-7.60742 0.81159,-0.0612 2.39389,6.38243 13.14258,7.19726 9.46991,0.71785 11.66171,-7.48323 13.1875,-7.31054 z m -0.22461,10.86914 c 1.52579,0.17272 2.23583,4.33383 8.73242,6.41601 5.03244,1.61292 10.12834,-0.6025 11.81836,-0.57812 1.69005,0.0227 -6.26779,4.03506 -10.92383,3.36133 -6.11305,-0.88457 -8.25952,-4.21927 -9.17969,-4.26954 -0.9202,-0.0503 -3.61695,5.03558 -13.36914,5.37305 -6.11344,0.21165 -12.44854,-5.11255 -12.86133,-5.11523 -0.52928,-0.003 -5.07712,5.23996 -10.94531,5.29492 -8.90366,0.0835 -10.22445,-3.87277 -9.91406,-4.04492 0.31037,-0.17235 5.64017,3.09357 10.71094,1.28125 7.5258,-2.68978 8.78996,-7.54635 9.60156,-7.60743 0.8116,-0.0612 6.75134,7.80853 13.14258,7.19727 9.45394,-0.90418 11.6617,-7.48128 13.1875,-7.30859 z"
       transform="scale(0.26458333)"
       id="rect826"
       inkscape:connector-curvature="0" />
  </g>
</svg>
