<?xml version="1.0" encoding="UTF-8" standalone="no"?>
<!-- Created with Inkscape (http://www.inkscape.org/) -->

<svg
   xmlns:dc="http://purl.org/dc/elements/1.1/"
   xmlns:cc="http://creativecommons.org/ns#"
   xmlns:rdf="http://www.w3.org/1999/02/22-rdf-syntax-ns#"
   xmlns:svg="http://www.w3.org/2000/svg"
   xmlns="http://www.w3.org/2000/svg"
   xmlns:sodipodi="http://sodipodi.sourceforge.net/DTD/sodipodi-0.dtd"
   xmlns:inkscape="http://www.inkscape.org/namespaces/inkscape"
   width="25.399998mm"
   height="25.4mm"
   viewBox="0 0 25.399998 25.4"
   version="1.1"
   id="svg8"
   inkscape:version="0.92.3 (2405546, 2018-03-11)"
   sodipodi:docname="Icon_Nest_Bowl.svg"
   inkscape:export-filename="C:\Users\Ryan\Icon_Nest_Bowl.png"
   inkscape:export-xdpi="300"
   inkscape:export-ydpi="300">
  <defs
     id="defs2" />
  <sodipodi:namedview
     id="base"
     pagecolor="#ffffff"
     bordercolor="#666666"
     borderopacity="1.0"
     inkscape:pageopacity="0.0"
     inkscape:pageshadow="2"
     inkscape:zoom="5.6"
     inkscape:cx="46.476498"
     inkscape:cy="34.633156"
     inkscape:document-units="mm"
     inkscape:current-layer="layer1"
     showgrid="false"
     units="in"
     fit-margin-top="0"
     fit-margin-left="0"
     fit-margin-right="0"
     fit-margin-bottom="0"
     inkscape:window-width="1920"
     inkscape:window-height="1017"
     inkscape:window-x="-8"
     inkscape:window-y="-8"
     inkscape:window-maximized="1" />
  <metadata
     id="metadata5">
    <rdf:RDF>
      <cc:Work
         rdf:about="">
        <dc:format>image/svg+xml</dc:format>
        <dc:type
           rdf:resource="http://purl.org/dc/dcmitype/StillImage" />
        <dc:title></dc:title>
      </cc:Work>
    </rdf:RDF>
  </metadata>
  <g
     inkscape:label="Layer 1"
     inkscape:groupmode="layer"
     id="layer1"
     transform="translate(-76.646483,-101.37314)">
    <circle
       style="opacity:1;fill:#ffffff;fill-opacity:1;fill-rule:nonzero;stroke:none;stroke-width:0.15699999;stroke-linecap:round;stroke-linejoin:round;stroke-miterlimit:4;stroke-dasharray:none;stroke-opacity:1;paint-order:stroke fill markers"
       id="path837"
       cx="89.346481"
       cy="114.07314"
       r="11.811756" />
    <path
       style="fill:#71635a;fill-opacity:1;stroke-width:0.31042519"
       d="m 89.346786,101.37314 a 12.700013,12.699707 0 0 0 -12.700303,12.70001 12.700013,12.699707 0 0 0 12.700303,12.69999 12.700013,12.699707 0 0 0 12.699694,-12.69999 12.700013,12.699707 0 0 0 -12.699694,-12.70001 z m 0.257072,5.29535 c 5.910723,0.0367 8.790842,2.38476 8.465255,6.90143 -0.273851,3.79897 -2.852712,7.23868 -6.163713,8.22192 -2.09646,0.62254 -3.151726,0.60134 -5.196655,-0.10489 -1.973179,-0.68145 -3.822593,-2.37065 -4.9608,-4.53082 -0.686678,-1.30323 -0.819374,-1.95852 -0.827001,-4.08883 -0.0075,-2.09678 0.104174,-2.68941 0.640865,-3.41463 1.585457,-2.14237 3.921909,-3.00975 8.042049,-2.98418 z m -0.40501,1.40479 c -1.565639,0.0363 -3.156028,0.32837 -4.470298,0.93004 -3.122443,1.42948 -2.68919,2.93148 1.150161,3.98638 0.512211,0.14071 2.328217,0.22058 4.035576,0.17764 3.809168,-0.0958 6.053365,-0.90401 6.053365,-2.17962 0,-1.83417 -3.324399,-2.99414 -6.768804,-2.91444 z"
       id="path828"
       inkscape:connector-curvature="0" />
  </g>
</svg>
