<?xml version="1.0" encoding="UTF-8" standalone="no"?>
<!-- Created with Inkscape (http://www.inkscape.org/) -->

<svg
   xmlns:dc="http://purl.org/dc/elements/1.1/"
   xmlns:cc="http://creativecommons.org/ns#"
   xmlns:rdf="http://www.w3.org/1999/02/22-rdf-syntax-ns#"
   xmlns:svg="http://www.w3.org/2000/svg"
   xmlns="http://www.w3.org/2000/svg"
   xmlns:sodipodi="http://sodipodi.sourceforge.net/DTD/sodipodi-0.dtd"
   xmlns:inkscape="http://www.inkscape.org/namespaces/inkscape"
   width="12.040602mm"
   height="25.400017mm"
   viewBox="0 0 12.040602 25.400017"
   version="1.1"
   id="svg8"
   inkscape:version="0.92.3 (2405546, 2018-03-11)"
   sodipodi:docname="Icon_Feather.svg"
   inkscape:export-filename="C:\Users\Ryan\Icon_Feather.png"
   inkscape:export-xdpi="300"
   inkscape:export-ydpi="300">
  <defs
     id="defs2" />
  <sodipodi:namedview
     id="base"
     pagecolor="#ffffff"
     bordercolor="#666666"
     borderopacity="1.0"
     inkscape:pageopacity="0.0"
     inkscape:pageshadow="2"
     inkscape:zoom="0.49497475"
     inkscape:cx="-800.32558"
     inkscape:cy="159.38156"
     inkscape:document-units="mm"
     inkscape:current-layer="layer1"
     showgrid="false"
     fit-margin-top="0"
     fit-margin-left="0"
     fit-margin-right="0"
     fit-margin-bottom="0"
     inkscape:window-width="1920"
     inkscape:window-height="1017"
     inkscape:window-x="-8"
     inkscape:window-y="-8"
     inkscape:window-maximized="1" />
  <metadata
     id="metadata5">
    <rdf:RDF>
      <cc:Work
         rdf:about="">
        <dc:format>image/svg+xml</dc:format>
        <dc:type
           rdf:resource="http://purl.org/dc/dcmitype/StillImage" />
        <dc:title></dc:title>
      </cc:Work>
    </rdf:RDF>
  </metadata>
  <g
     inkscape:label="Layer 1"
     inkscape:groupmode="layer"
     id="layer1"
     transform="translate(-58.681257,-115.39653)">
    <path
       sodipodi:nodetypes="sscsscssssscssssccccscsscsscssscscscssssscsscscscccscscccsccccsssccs"
       inkscape:connector-curvature="0"
       id="path830"
       d="m 58.957407,140.75237 c -0.165282,-0.0666 -0.312156,-0.3584 -0.268303,-0.53313 0.04659,-0.18562 0.122636,-0.24743 0.838563,-0.68148 1.865622,-1.13111 3.739884,-2.76867 5.103484,-4.45896 1.071752,-1.32853 1.960467,-2.96339 2.49748,-4.59433 0.177913,-0.54032 0.335186,-0.99421 0.349495,-1.00862 0.04402,-0.0444 -0.03942,0.4546 -0.16079,0.96143 -0.394837,1.6488 -1.23566,3.44782 -2.331218,4.98784 -1.244947,1.75002 -3.153063,3.64471 -4.871583,4.83731 -0.787031,0.54618 -0.899368,0.59375 -1.157128,0.48994 z m 5.480823,-4.12824 c 0,-0.035 0.162652,-0.27444 0.36145,-0.53212 0.630185,-0.81685 1.163499,-1.68448 1.681586,-2.73571 1.002864,-2.03489 1.414444,-3.76152 1.414444,-5.9338 0,-1.08777 -0.08592,-1.87732 -0.319571,-2.93662 -0.158067,-0.71663 -0.539878,-1.9311 -0.677135,-2.15384 l -0.08732,-0.1417 0.03334,0.1417 c 0.01834,0.0779 0.121522,0.49878 0.229304,0.93522 0.107783,0.43643 0.235937,1.04858 0.284787,1.36032 0.126706,0.80857 0.169883,2.41289 0.08666,3.22007 -0.233342,2.26325 -1.068252,4.39966 -2.515263,6.43619 -0.596829,0.83999 -1.462041,1.82144 -1.605706,1.82144 -0.0728,0 -0.26768,-0.47061 -0.359354,-0.86778 -0.082,-0.35525 -0.06863,-1.28355 0.02479,-1.72163 0.113489,-0.53216 0.307832,-1.07781 0.622091,-1.74661 0.521902,-1.1107 0.884563,-2.41002 1.115333,-3.99594 0.06578,-0.45203 0.127886,-0.83079 0.138023,-0.84171 0.11754,-0.12655 0.673457,1.07043 0.792353,1.70608 0.05593,0.29899 0.140691,0.26456 0.139517,-0.0567 -0.0023,-0.6191 -0.277681,-1.46594 -0.676408,-2.07978 l -0.222987,-0.34329 0.03369,-0.86437 c 0.01853,-0.47541 0.04895,-0.86428 0.0676,-0.86416 0.01865,1.1e-4 0.160291,0.15658 0.314762,0.34771 0.154471,0.19112 0.28983,0.32058 0.300798,0.28767 0.03033,-0.091 -0.23361,-0.57948 -0.484868,-0.89735 -0.211382,-0.26742 -0.227853,-0.31674 -0.292309,-0.87519 -0.192496,-1.66782 -0.477296,-2.4817 -1.476447,-4.21932 -0.914679,-1.5907 -1.148545,-2.29244 -0.955824,-2.86805 0.08396,-0.25076 0.286953,-0.52111 0.511156,-0.68076 l 0.179162,-0.12757 0.412886,0.21254 c 0.532563,0.27415 1.772023,1.09162 2.459809,1.62234 0.728354,0.56201 2.104385,1.94685 2.590116,2.60668 0.407918,0.55414 0.924045,1.39492 0.924045,1.50529 0,0.0343 -0.07966,0.18258 -0.177017,0.32957 -0.205123,0.30968 -0.178592,0.39369 0.06699,0.21212 0.09459,-0.0699 0.213425,-0.11913 0.264078,-0.10933 0.164145,0.0317 0.808988,1.9454 0.809365,2.40187 4.28e-4,0.5087 -0.45623,1.69539 -0.905914,2.35417 -0.125149,0.18335 -0.227544,0.3464 -0.227544,0.36234 0,0.19153 0.719875,-0.38226 1.028332,-0.81965 0.132521,-0.18791 0.260273,-0.34165 0.283898,-0.34165 0.146278,0 0.122002,1.75603 -0.03918,2.834 -0.170856,1.14268 -0.290607,1.54237 -0.589715,1.96828 -0.300888,0.42845 -0.997734,1.10755 -1.392259,1.35679 -0.258968,0.16361 -0.317665,0.24577 -0.175588,0.24577 0.147274,0 0.798424,-0.22418 0.985071,-0.33914 0.390853,-0.24074 0.386635,-0.15888 -0.03647,0.70756 -0.367088,0.75173 -0.888129,1.57597 -1.325711,2.09716 -0.475778,0.56669 -0.453771,0.55534 -0.990438,0.51064 -0.275324,-0.0229 -0.46858,-0.0175 -0.46858,0.013 0,0.0286 0.12753,0.11181 0.2834,0.18482 0.15587,0.073 0.2834,0.15401 0.2834,0.18002 0,0.0782 -0.740362,0.59841 -1.115037,0.78351 -0.448434,0.22155 -0.808018,0.32948 -1.251353,0.37559 -0.245982,0.0256 -0.35425,0.0174 -0.35425,-0.0267 z"
       style="fill:#b7b0aa;fill-opacity:1;stroke-width:0.05668002" />
  </g>
</svg>
