<?xml version="1.0" encoding="UTF-8" standalone="no"?>
<!-- Created with Inkscape (http://www.inkscape.org/) -->

<svg
   xmlns:dc="http://purl.org/dc/elements/1.1/"
   xmlns:cc="http://creativecommons.org/ns#"
   xmlns:rdf="http://www.w3.org/1999/02/22-rdf-syntax-ns#"
   xmlns:svg="http://www.w3.org/2000/svg"
   xmlns="http://www.w3.org/2000/svg"
   xmlns:sodipodi="http://sodipodi.sourceforge.net/DTD/sodipodi-0.dtd"
   xmlns:inkscape="http://www.inkscape.org/namespaces/inkscape"
   width="81.176186mm"
   height="54.816055mm"
   viewBox="0 0 81.176185 54.816056"
   version="1.1"
   id="svg8"
   inkscape:version="0.92.3 (2405546, 2018-03-11)"
   sodipodi:docname="Icons_Food_all.svg">
  <defs
     id="defs2" />
  <sodipodi:namedview
     id="base"
     pagecolor="#ffffff"
     bordercolor="#666666"
     borderopacity="1.0"
     inkscape:pageopacity="0.0"
     inkscape:pageshadow="2"
     inkscape:zoom="2.8"
     inkscape:cx="97.96216"
     inkscape:cy="84.956545"
     inkscape:document-units="mm"
     inkscape:current-layer="layer1"
     showgrid="false"
     inkscape:window-width="1920"
     inkscape:window-height="1017"
     inkscape:window-x="-8"
     inkscape:window-y="-8"
     inkscape:window-maximized="1"
     fit-margin-top="0"
     fit-margin-left="0"
     fit-margin-right="0"
     fit-margin-bottom="0" />
  <metadata
     id="metadata5">
    <rdf:RDF>
      <cc:Work
         rdf:about="">
        <dc:format>image/svg+xml</dc:format>
        <dc:type
           rdf:resource="http://purl.org/dc/dcmitype/StillImage" />
        <dc:title></dc:title>
      </cc:Work>
    </rdf:RDF>
  </metadata>
  <g
     inkscape:label="Layer 1"
     inkscape:groupmode="layer"
     id="layer1"
     transform="translate(46.817564,-11.864625)">
    <path
       id="path841"
       style="opacity:1;fill:#19375f;fill-opacity:1;fill-rule:nonzero;stroke:#ff0000;stroke-width:0.00568914;stroke-linecap:butt;stroke-linejoin:round;stroke-miterlimit:4;stroke-dasharray:none;stroke-opacity:1;paint-order:stroke fill markers"
       d="m 31.329308,24.689836 c -1e-6,0.564114 -0.457305,1.021419 -1.021419,1.02142 -0.564115,1e-6 -1.021421,-0.457305 -1.021422,-1.02142 1e-6,-0.564115 0.457307,-1.021421 1.021422,-1.02142 0.564114,1e-6 1.021418,0.457306 1.021419,1.02142 z m 3.026473,0.90214 c -0.08388,0.12582 -3.951359,-13.99649 -18.155179,-3.1323 -1.540808,-0.004 -3.416133,-0.79726 -5.078584,-1.30766 -0.275513,-0.0409 -2.4413974,-0.92401 -0.03041,3.19312 0.06298,0.9246 -2.8161804,1.92971 -1.9766944,3.07148 0.839485,1.14178 6.0247484,-1.26166 6.6295294,-1.45971 0.422608,0.67406 1.715118,2.323487 3.724049,3.41063 2.937176,1.589467 7.323059,2.32313 11.862087,-0.45076 1.51564,-0.926238 2.124678,-1.92152 3.025202,-3.3248 z"
       inkscape:connector-curvature="0"
       inkscape:label="Fish"
       sodipodi:nodetypes="cscscccccccssc"
       inkscape:export-filename="C:\Users\Ryan\Icon_Fish.png"
       inkscape:export-xdpi="300"
       inkscape:export-ydpi="300" />
    <path
       id="path896"
       style="opacity:1;fill:#85171e;fill-opacity:1;fill-rule:nonzero;stroke:#ff0000;stroke-width:0.060632;stroke-linecap:butt;stroke-linejoin:round;stroke-miterlimit:4;stroke-dasharray:none;stroke-opacity:1;paint-order:stroke fill markers"
       d="m -38.109816,59.476616 a 3.9297333,3.3625554 0 0 1 -3.929735,3.362556 3.9297333,3.3625554 0 0 1 -3.929734,-3.362556 3.9297333,3.3625554 0 0 1 3.929734,-3.362556 3.9297333,3.3625554 0 0 1 3.929735,3.362556 z m 10.614317,-2.714358 a 4.6994749,4.0512712 0 0 1 -4.699474,4.05127 4.6994749,4.0512712 0 0 1 -4.699475,-4.05127 4.6994749,4.0512712 0 0 1 4.699475,-4.051273 4.6994749,4.0512712 0 0 1 4.699474,4.051273 z m -5.307136,-7.008688 a 4.2538347,3.6461443 0 0 1 -4.253834,3.646144 4.2538347,3.6461443 0 0 1 -4.253834,-3.646144 4.2538347,3.6461443 0 0 1 4.253834,-3.646144 4.2538347,3.6461443 0 0 1 4.253834,3.646144 z m -9.520509,7.251776 c 0,0 0.910569,-2.293257 0.660072,-2.463903 -1.401125,-0.954476 -4.36952,-4.561726 -5.11647,-8.352991 -0.152745,-1.326573 1.996985,-1.541324 2.147173,0 0.405522,3.474927 1.16045,4.497878 1.498971,4.699477 0.668436,0.398071 4.509963,-0.257485 4.49691,-0.283588 l -0.0405,1.174868 c 0.04945,0.02376 -3.209707,-0.226715 -3.484091,0.445641 -0.225212,0.551879 5.231717,3.909153 5.955365,3.322039 l -0.162058,1.134359 c -1.769072,-0.0438 -4.294349,-1.458461 -4.294349,-1.458461 -0.409445,0.579698 -0.769744,1.985128 -0.769744,1.985128 z"
       inkscape:connector-curvature="0"
       inkscape:label="Berries"
       inkscape:export-filename="C:\Users\Ryan\Icon_Berries.png"
       inkscape:export-xdpi="300"
       inkscape:export-ydpi="300" />
    <path
       id="path910"
       style="opacity:1;fill:#214a2c;fill-opacity:1;fill-rule:nonzero;stroke:#ff0000;stroke-width:0.063916;stroke-linecap:butt;stroke-linejoin:round;stroke-miterlimit:4;stroke-dasharray:none;stroke-opacity:1;paint-order:stroke fill markers"
       d="m -3.7202866,15.57886 c -0.209922,0.152457 -0.548635,0.044 -0.756548,-0.242242 -0.207916,-0.286245 -0.206304,-0.641895 0.0036,-0.794379 0.209916,-0.152482 0.548645,-0.04404 0.756569,0.242216 0.207906,0.286308 0.206205,0.641985 -0.0038,0.794387 z m -8.0158384,-2.614914 c -0.306435,-0.01081 -0.546424,-0.258434 -0.536028,-0.553083 0.0104,-0.294644 0.267244,-0.52473 0.573674,-0.513915 0.306433,0.01081 0.54642,0.258433 0.536026,0.55308 -0.0104,0.294644 -0.267242,0.524732 -0.573672,0.513918 z m 1.182645,1.302368 c 1.3547104,-0.879339 3.4801914,-0.460512 4.2562204,1.09043 0.648446,0.176894 1.167234,-0.20719 1.825111,-0.555208 0.249759,-0.132127 0.425083,0.116787 0.339016,0.385823 -0.187018,0.584049 -1.307767,0.685729 -1.860017,0.938575 0.398565,2.228672 -0.919322,3.314756 -0.666767,4.965611 0.440016,2.876082 3.741475,4.58084 3.69501,7.907979 -0.04647,3.327139 -3.454051,6.958676 -6.782771,8.136284 -1.6027654,0.56702 -4.1167454,-1.478492 -1.8929754,-3.271847 1.106862,-0.89263 4.1910954,-1.486304 4.1275094,-4.341284 -0.06359,-2.85498 -2.7305144,-3.762858 -3.8270614,-6.240611 -1.108828,-2.505503 -1.348762,-5.224099 0.37733,-8.613623 -0.647256,-0.484346 -0.648087,-1.555729 -0.931036,-2.073397 0.06241,-0.187734 0.22092,-0.05607 0.418024,-0.03868 0.511215,0.04543 -0.04032,0.975143 0.922489,1.709863 z"
       inkscape:connector-curvature="0"
       sodipodi:nodetypes="ccccccccccccccccczcczsccccc"
       inkscape:label="Worm"
       inkscape:export-filename="C:\Users\Ryan\Icon_Worm.png"
       inkscape:export-xdpi="300"
       inkscape:export-ydpi="300" />
    <path
       id="path915"
       style="opacity:1;fill:#404040;fill-opacity:1;stroke:#000000;stroke-width:0.06479807;stroke-linecap:butt;stroke-linejoin:miter;stroke-miterlimit:4;stroke-dasharray:none;stroke-opacity:1"
       d="m 13.545256,49.895004 c -1.55692,1.033563 -5.1682705,3.993104 -4.4640905,4.169362 0.25089,0.0628 6.5964105,1.419832 6.9372505,1.792864 0.34084,0.373033 -0.94846,1.025497 -0.69277,1.298893 l 9.01647,0.389665 c 2.76602,-0.895686 3.91145,-2.205009 4.70849,-3.647717 1.14063,-0.379787 1.06108,-0.403023 2.98745,-0.205669 1.92637,0.197349 1.00683,1.432914 0,1.775146 -1.00683,0.342232 -2.17553,0.489715 -3.20393,0.963348 -1.21146,0.557937 -1.34826,0.765628 -1.69937,1.775148 -0.35112,1.00952 0.55167,1.874909 1.22311,2.110701 0.67143,0.235788 1.02171,-0.439598 0.73605,-0.757686 -0.28568,-0.318086 -0.88429,-0.446202 -0.89839,-0.800985 -0.013,-0.354782 0.0259,-0.826058 0.95251,-1.288066 0.92703,-0.462005 3.31173,-0.503302 4.40539,-1.5262 1.09366,-1.022897 0.96513,-2.326854 -3e-5,-2.900851 -0.96515,-0.573997 -2.78541,-0.317508 -4.24305,-0.346374 0.1651,-2.380702 -4.06087,-8.314557 -11.1989,-2.900857 -0.47515,-0.09051 -1.40215,-0.128663 -2.57987,0.244911 0.13815,-0.679546 0.28327,-1.298466 -0.0666,-1.571351 -1.1969,0.397233 -1.5734,0.839143 -1.91981,1.4257 z"
       inkscape:connector-curvature="0"
       sodipodi:nodetypes="cszccczzszzzzzzzcccccc"
       inkscape:label="Mouse"
       inkscape:export-filename="C:\Users\Ryan\Icon_Rodent.png"
       inkscape:export-xdpi="300"
       inkscape:export-ydpi="300" />
    <path
       style="fill:#da852c;fill-opacity:1;stroke:#000000;stroke-width:0.0081146;stroke-linecap:round;stroke-linejoin:miter;stroke-miterlimit:4;stroke-dasharray:none;stroke-opacity:1"
       d="m -8.1768414,41.283499 c 0.841872,0.872137 2.156747,2.364222 2.246941,2.953361 0.387036,-0.128212 0.662661,-0.816082 1.15936,-0.707158 -0.328998,2.346782 0.02844,2.223343 -0.03726,3.327834 0.220285,-0.180745 0.45706,-0.434481 0.785623,-0.231837 -0.766931,2.06621 0.57918,3.001802 0.152008,4.191704 0.196968,-0.04511 0.470812,-0.573712 0.852521,-0.387819 -0.570301,4.037617 0.180507,4.06908 -0.458589,5.214453 0.245439,-0.165539 0.345128,-0.519895 0.617916,-0.587115 0.05827,4.260749 -0.859469,8.668288 -3.454786,9.088037 0.04294,0.383631 -0.221068,0.534293 -0.361236,0.725357 -0.122364,0.538736 0.166572,1.216243 -0.08254,1.647492 -0.428821,0.244105 -0.976566,0.159494 -1.394431,0.05776 -0.230439,-0.504321 0.370781,-0.49651 0.230055,-1.762724 -0.207945,-0.306363 -0.441352,-0.28439 -0.368174,-0.87138 -3.2420296,-1.595475 -2.0653766,-3.202386 -4.3374786,-6.263788 0.02402,-0.291274 1.095412,0.334082 1.443414,0.272859 -1.072516,-1.521454 0.526126,-1.92955 -1.189156,-4.86063 0.686103,-0.302809 1.01755,0.316833 1.596277,0.324412 -0.646676,-1.996787 -0.80759,-3.746984 -0.40197,-5.323059 0.317628,0.03334 0.342215,0.284684 0.577024,0.461154 -0.180018,-0.679086 0.7462576,-2.740041 0.571512,-4.329847 0.3509616,0.108604 0.5661926,0.62399 0.8026716,0.664317 0.161339,-1.305545 0.748914,-1.731347 1.050288,-3.603404 z"
       id="path937"
       inkscape:connector-curvature="0"
       sodipodi:nodetypes="cccccccccccccccccccccccc"
       inkscape:label="Grain1"
       inkscape:export-filename="C:\Users\Ryan\Icon_Grain.png"
       inkscape:export-xdpi="300"
       inkscape:export-ydpi="300" />
    <path
       inkscape:connector-curvature="0"
       id="path829"
       d="m -37.78061,36.002124 c 0.06378,-0.958934 0.02913,-1.024574 -0.90372,-1.711892 -0.723121,-0.532791 -1.129656,-1.02517 -1.596992,-1.934397 -0.770538,-1.49902 -1.235548,-3.528565 -0.813129,-3.54892 0.166025,-0.008 1.043199,0.624038 1.949274,1.40453 1.646654,1.418427 1.647563,1.419735 1.984389,2.866753 0.500674,2.1509 0.58991,3.768269 0.223018,4.042161 -0.546823,0.408216 -0.912131,-0.07646 -0.84284,-1.118235 z m 1.297774,-3.042093 c 0.05612,-0.818667 0.234627,-1.864885 0.39667,-2.324928 0.264223,-0.750136 2.911502,-4.428539 3.20824,-4.457861 0.481457,-0.04758 -0.118311,4.284313 -0.844444,6.099075 -0.553673,1.383748 -1.180105,2.18816 -1.904001,2.444957 -0.753103,0.267159 -0.965571,-0.169763 -0.856465,-1.761243 z m -4.726287,-5.174107 c -0.404627,-0.652773 -0.511017,-3.601403 -0.144448,-4.003382 0.303714,-0.33305 4.517649,3.541109 4.866907,4.474477 0.268136,0.716578 -0.07918,2.586237 -0.526962,2.83672 -0.151394,0.08469 -0.695294,-0.249421 -1.413282,-0.868157 -0.641944,-0.553205 -1.441292,-1.184429 -1.776325,-1.402722 -0.335034,-0.218292 -0.787683,-0.684912 -1.005887,-1.036938 z m 0.783838,-4.766832 c -0.286805,-0.381726 -0.550068,-0.983014 -0.585029,-1.336193 -0.08306,-0.839151 0.344924,-2.852654 0.609065,-2.865382 0.113183,-0.0054 0.967656,0.838122 1.898827,1.874617 1.201147,1.337002 1.764222,2.130727 1.938036,2.731909 0.253222,0.875829 0.201753,2.656312 -0.0859,2.971753 -0.185827,0.203778 -2.9273,-2.248443 -3.775005,-3.376704 z m 4.639799,2.854058 c -0.02071,-1.00509 0.132153,-2.008394 0.380982,-2.50059 0.500643,-0.990287 1.761937,-2.417879 2.083724,-2.358456 0.362056,0.06687 0.565309,2.652279 0.281791,3.584442 -0.295608,0.971912 -2.104083,3.206952 -2.470957,3.053783 -0.132525,-0.05532 -0.256516,-0.855957 -0.275538,-1.779179 z m -0.749144,-4.421106 c -0.481005,-1.48764 0.354412,-2.817343 1.459864,-3.921924 0.426781,-0.426443 0.638265,-0.733964 0.835743,-0.572598 0.222374,0.181711 0.367102,1.07129 0.436733,1.854231 l 0.115081,1.293974 -1.173532,1.286892 c -0.645443,0.70779 -1.231902,1.23416 -1.303249,1.169705 -0.07134,-0.06446 -0.197693,-0.575398 -0.37064,-1.11028 z m -2.399709,-2.518536 c -0.651682,-0.914008 -0.848588,-1.611697 -0.72287,-2.561334 0.100215,-0.756997 0.116309,-1.429854 0.29522,-1.519744 0.179043,-0.08996 0.521009,0.403514 0.932349,0.904732 0.849224,1.034787 1.221359,1.960648 1.320811,3.286143 0.10198,1.359174 -0.165877,1.604741 -0.939417,0.861232 -0.33864,-0.325492 -0.737382,-0.762455 -0.886095,-0.971027 z m 2.121801,-2.246975 c -0.124757,-1.180545 1.484371,-2.856305 1.667706,-2.881154 0.340294,-0.04613 0.661504,1.917261 0.311721,2.334731 -0.368626,0.439962 -1.575606,1.60127 -1.610868,1.646029 0,0 -0.321032,-0.845843 -0.368562,-1.099609 z m -1.352764,-2.124986 c 0.06691,-1.035655 0.507442,-1.929491 0.337459,-2.696416 0.222063,-0.03544 1.505248,1.80165 1.212998,2.345952 -0.198414,0.584486 -0.661647,0.977739 -0.77557,1.308047 -0.325536,-0.348088 -0.807343,-0.455243 -0.774887,-0.957583 z"
       style="fill:#da852c;stroke-width:0.22760673;fill-opacity:1"
       sodipodi:nodetypes="csccssscscsssscscccccccscssscccccscccsssscsssssssscsscsssscscsss"
       inkscape:label="Grain2" />
  </g>
</svg>
