<?xml version="1.0" encoding="UTF-8" standalone="no"?>
<!-- Created with Inkscape (http://www.inkscape.org/) -->

<svg
   xmlns:dc="http://purl.org/dc/elements/1.1/"
   xmlns:cc="http://creativecommons.org/ns#"
   xmlns:rdf="http://www.w3.org/1999/02/22-rdf-syntax-ns#"
   xmlns:svg="http://www.w3.org/2000/svg"
   xmlns="http://www.w3.org/2000/svg"
   xmlns:sodipodi="http://sodipodi.sourceforge.net/DTD/sodipodi-0.dtd"
   xmlns:inkscape="http://www.inkscape.org/namespaces/inkscape"
   width="19.352381mm"
   height="17.788319mm"
   viewBox="0 0 19.352381 17.788319"
   version="1.1"
   id="svg8"
   inkscape:version="0.92.3 (2405546, 2018-03-11)"
   sodipodi:docname="Icon_Berries.svg">
  <defs
     id="defs2" />
  <sodipodi:namedview
     id="base"
     pagecolor="#ffffff"
     bordercolor="#666666"
     borderopacity="1.0"
     inkscape:pageopacity="0.0"
     inkscape:pageshadow="2"
     inkscape:zoom="1.979899"
     inkscape:cx="-132.3561"
     inkscape:cy="-70.0703"
     inkscape:document-units="mm"
     inkscape:current-layer="layer1"
     showgrid="false"
     inkscape:window-width="1920"
     inkscape:window-height="1017"
     inkscape:window-x="-8"
     inkscape:window-y="-8"
     inkscape:window-maximized="1"
     fit-margin-top="0"
     fit-margin-left="0"
     fit-margin-right="0"
     fit-margin-bottom="0" />
  <metadata
     id="metadata5">
    <rdf:RDF>
      <cc:Work
         rdf:about="">
        <dc:format>image/svg+xml</dc:format>
        <dc:type
           rdf:resource="http://purl.org/dc/dcmitype/StillImage" />
        <dc:title></dc:title>
      </cc:Work>
    </rdf:RDF>
  </metadata>
  <g
     inkscape:label="Berries"
     inkscape:groupmode="layer"
     id="layer1"
     transform="translate(-51.066534,-11.864625)">
    <path
       id="path896"
       style="opacity:1;fill:#85171e;fill-opacity:1;fill-rule:nonzero;stroke:#ff0000;stroke-width:0.060632;stroke-linecap:butt;stroke-linejoin:round;stroke-miterlimit:4;stroke-dasharray:none;stroke-opacity:1;paint-order:stroke fill markers"
       d="m 59.774282,26.260071 a 3.9297333,3.3625554 0 0 1 -3.929735,3.362556 3.9297333,3.3625554 0 0 1 -3.929734,-3.362556 3.9297333,3.3625554 0 0 1 3.929734,-3.362556 3.9297333,3.3625554 0 0 1 3.929735,3.362556 z m 10.614317,-2.714358 a 4.6994749,4.0512712 0 0 1 -4.699474,4.05127 4.6994749,4.0512712 0 0 1 -4.699475,-4.05127 4.6994749,4.0512712 0 0 1 4.699475,-4.051273 4.6994749,4.0512712 0 0 1 4.699474,4.051273 z m -5.307136,-7.008688 a 4.2538347,3.6461443 0 0 1 -4.253834,3.646144 4.2538347,3.6461443 0 0 1 -4.253834,-3.646144 4.2538347,3.6461443 0 0 1 4.253834,-3.646144 4.2538347,3.6461443 0 0 1 4.253834,3.646144 z m -9.520509,7.251776 c 0,0 0.910569,-2.293257 0.660072,-2.463903 -1.401125,-0.954476 -4.36952,-4.561726 -5.11647,-8.352991 -0.152745,-1.326573 1.996985,-1.541324 2.147173,0 0.405522,3.474927 1.16045,4.497878 1.498971,4.699477 0.668436,0.398071 4.509963,-0.257485 4.49691,-0.283588 l -0.0405,1.174868 c 0.04945,0.02376 -3.209707,-0.226715 -3.484091,0.445641 -0.225212,0.551879 5.231717,3.909153 5.955365,3.322039 l -0.162058,1.134359 c -1.769072,-0.0438 -4.294349,-1.458461 -4.294349,-1.458461 -0.409445,0.579698 -0.769744,1.985128 -0.769744,1.985128 z"
       inkscape:connector-curvature="0"
       inkscape:label="Berries" />
  </g>
</svg>
