<?xml version="1.0" encoding="UTF-8" standalone="no"?>
<!-- Created with Inkscape (http://www.inkscape.org/) -->

<svg
   xmlns:dc="http://purl.org/dc/elements/1.1/"
   xmlns:cc="http://creativecommons.org/ns#"
   xmlns:rdf="http://www.w3.org/1999/02/22-rdf-syntax-ns#"
   xmlns:svg="http://www.w3.org/2000/svg"
   xmlns="http://www.w3.org/2000/svg"
   xmlns:sodipodi="http://sodipodi.sourceforge.net/DTD/sodipodi-0.dtd"
   xmlns:inkscape="http://www.inkscape.org/namespaces/inkscape"
   width="8.8734598mm"
   height="25.4mm"
   viewBox="0 0 8.8734599 25.4"
   version="1.1"
   id="svg8"
   inkscape:version="0.92.3 (2405546, 2018-03-11)"
   sodipodi:docname="Icon_Food_Grain2.svg"
   inkscape:export-filename="C:\Users\Ryan\Google Drive\Games\Wingspan\Iconography\Icon_Food_Grain2.png"
   inkscape:export-xdpi="300"
   inkscape:export-ydpi="300">
  <defs
     id="defs2" />
  <sodipodi:namedview
     id="base"
     pagecolor="#ffffff"
     bordercolor="#666666"
     borderopacity="1.0"
     inkscape:pageopacity="0.0"
     inkscape:pageshadow="2"
     inkscape:zoom="5.6"
     inkscape:cx="-70.087605"
     inkscape:cy="37.490864"
     inkscape:document-units="mm"
     inkscape:current-layer="layer1"
     showgrid="false"
     inkscape:window-width="1920"
     inkscape:window-height="1017"
     inkscape:window-x="-8"
     inkscape:window-y="-8"
     inkscape:window-maximized="1"
     fit-margin-top="0"
     fit-margin-left="0"
     fit-margin-right="0"
     fit-margin-bottom="0" />
  <metadata
     id="metadata5">
    <rdf:RDF>
      <cc:Work
         rdf:about="">
        <dc:format>image/svg+xml</dc:format>
        <dc:type
           rdf:resource="http://purl.org/dc/dcmitype/StillImage" />
        <dc:title />
      </cc:Work>
    </rdf:RDF>
  </metadata>
  <g
     inkscape:label="Grain"
     inkscape:groupmode="layer"
     id="layer1"
     transform="translate(-85.682977,-20.605385)">
    <path
       inkscape:connector-curvature="0"
       id="path829"
       d="m 89.48047,44.742884 c 0.06378,-0.958934 0.02913,-1.024574 -0.90372,-1.711892 -0.723121,-0.532791 -1.129656,-1.02517 -1.596992,-1.934397 -0.770538,-1.49902 -1.235548,-3.528565 -0.813129,-3.54892 0.166025,-0.008 1.043199,0.624038 1.949274,1.40453 1.646654,1.418427 1.647563,1.419735 1.984389,2.866753 0.500674,2.1509 0.58991,3.768269 0.223018,4.04216 -0.546823,0.408216 -0.912131,-0.07646 -0.84284,-1.118234 z m 1.297774,-3.042093 c 0.05612,-0.818667 0.234627,-1.864885 0.39667,-2.324928 0.264223,-0.750136 2.911502,-4.428539 3.20824,-4.457861 0.481457,-0.04758 -0.118311,4.284313 -0.844444,6.099075 -0.553673,1.383748 -1.180105,2.18816 -1.904001,2.444957 -0.753103,0.267159 -0.965571,-0.169763 -0.856465,-1.761243 z m -4.726287,-5.174107 c -0.404627,-0.652773 -0.511017,-3.601403 -0.144448,-4.003382 0.303714,-0.33305 4.517649,3.541109 4.866907,4.474477 0.268136,0.716578 -0.07918,2.586237 -0.526962,2.83672 C 90.09606,39.919191 89.55216,39.585078 88.834172,38.966342 88.192228,38.413137 87.39288,37.781913 87.057847,37.56362 86.722813,37.345328 86.270164,36.878708 86.05196,36.526682 Z m 0.783838,-4.766832 c -0.286805,-0.381726 -0.550068,-0.983014 -0.585029,-1.336193 -0.08306,-0.839151 0.344924,-2.852654 0.609065,-2.865382 0.113183,-0.0054 0.967656,0.838122 1.898827,1.874617 1.201147,1.337002 1.764222,2.130727 1.938036,2.731909 0.253222,0.875829 0.201753,2.656312 -0.0859,2.971753 -0.185827,0.203778 -2.9273,-2.248443 -3.775005,-3.376704 z m 4.639799,2.854058 c -0.02071,-1.00509 0.132153,-2.008394 0.380982,-2.50059 0.500643,-0.990287 1.761937,-2.417879 2.083724,-2.358456 0.362056,0.06687 0.565309,2.652279 0.281791,3.584442 -0.295608,0.971912 -2.104083,3.206952 -2.470957,3.053783 -0.132525,-0.05532 -0.256516,-0.855957 -0.275538,-1.779179 z M 90.72645,30.192803 c -0.481005,-1.487639 0.354412,-2.817343 1.459864,-3.921924 0.426781,-0.426442 0.638265,-0.733964 0.835743,-0.572597 0.222374,0.181711 0.367102,1.07129 0.436733,1.854231 l 0.115081,1.293974 -1.173532,1.286892 c -0.645443,0.70779 -1.231902,1.23416 -1.303249,1.169705 -0.07134,-0.06446 -0.197693,-0.575398 -0.37064,-1.110281 z m -2.399709,-2.518536 c -0.651682,-0.914007 -0.848588,-1.611697 -0.72287,-2.561334 0.100215,-0.756997 0.116309,-1.429854 0.29522,-1.519744 0.179043,-0.08996 0.521009,0.403514 0.932349,0.904732 0.849224,1.034787 1.221359,1.960648 1.320811,3.286143 0.10198,1.359175 -0.165877,1.604741 -0.939417,0.861232 -0.33864,-0.325492 -0.737382,-0.762455 -0.886095,-0.971027 z m 2.121801,-2.246975 c -0.124757,-1.180544 1.484371,-2.856304 1.667706,-2.881154 0.340294,-0.04613 0.661504,1.917261 0.311721,2.334731 -0.368626,0.439962 -1.575606,1.60127 -1.610868,1.646029 0,0 -0.321032,-0.845843 -0.368562,-1.099609 z m -1.352764,-2.124986 c 0.06691,-1.035655 0.507442,-1.929491 0.337459,-2.696415 0.222063,-0.03544 1.505248,1.80165 1.212998,2.345952 -0.198414,0.584486 -0.661647,0.977739 -0.77557,1.308047 -0.325536,-0.348088 -0.807343,-0.455243 -0.774887,-0.957584 z"
       style="fill:#da852c;fill-opacity:1;stroke-width:0.22760673"
       sodipodi:nodetypes="csccssscscsssscscccccccscssscccccscccsssscsssssssscsscsssscscsss"
       inkscape:label="Grain" />
  </g>
</svg>
