<?xml version="1.0" encoding="UTF-8" standalone="no"?>
<!-- Created with Inkscape (http://www.inkscape.org/) -->

<svg
   xmlns:dc="http://purl.org/dc/elements/1.1/"
   xmlns:cc="http://creativecommons.org/ns#"
   xmlns:rdf="http://www.w3.org/1999/02/22-rdf-syntax-ns#"
   xmlns:svg="http://www.w3.org/2000/svg"
   xmlns="http://www.w3.org/2000/svg"
   xmlns:sodipodi="http://sodipodi.sourceforge.net/DTD/sodipodi-0.dtd"
   xmlns:inkscape="http://www.inkscape.org/namespaces/inkscape"
   width="25.4mm"
   height="12.829914mm"
   viewBox="0 0 25.4 12.829914"
   version="1.1"
   id="svg8"
   inkscape:version="0.92.3 (2405546, 2018-03-11)"
   sodipodi:docname="Icon_Rodent.svg">
  <defs
     id="defs2" />
  <sodipodi:namedview
     id="base"
     pagecolor="#ffffff"
     bordercolor="#666666"
     borderopacity="1.0"
     inkscape:pageopacity="0.0"
     inkscape:pageshadow="2"
     inkscape:zoom="7.919596"
     inkscape:cx="-5.5115874"
     inkscape:cy="20.399505"
     inkscape:document-units="mm"
     inkscape:current-layer="layer1"
     showgrid="false"
     inkscape:window-width="1920"
     inkscape:window-height="1017"
     inkscape:window-x="-8"
     inkscape:window-y="-8"
     inkscape:window-maximized="1"
     fit-margin-top="0"
     fit-margin-left="0"
     fit-margin-right="0"
     fit-margin-bottom="0" />
  <metadata
     id="metadata5">
    <rdf:RDF>
      <cc:Work
         rdf:about="">
        <dc:format>image/svg+xml</dc:format>
        <dc:type
           rdf:resource="http://purl.org/dc/dcmitype/StillImage" />
        <dc:title></dc:title>
      </cc:Work>
    </rdf:RDF>
  </metadata>
  <g
     inkscape:label="Rodent"
     inkscape:groupmode="layer"
     id="layer1"
     transform="translate(-48.64486,-38.636456)">
    <path
       id="path915"
       style="opacity:1;fill:#404040;fill-opacity:1;stroke:#f50000;stroke-width:0.03390805;stroke-linecap:butt;stroke-linejoin:miter;stroke-miterlimit:4;stroke-dasharray:none;stroke-opacity:1"
       d="m 53.221545,40.966184 c -1.558823,1.034827 -5.174587,3.997985 -4.469547,4.174458 0.251198,0.06288 6.604473,1.421567 6.945729,1.795055 0.341257,0.373489 -0.949619,1.02675 -0.693616,1.300481 l 9.02749,0.390141 c 2.769401,-0.896781 3.91623,-2.207704 4.714244,-3.652175 1.387321,-0.179554 1.463771,-0.314317 2.991102,-0.205921 1.527331,0.108399 1.008061,1.434666 0,1.777316 -1.008062,0.34265 -2.17819,0.490313 -3.207847,0.964526 -1.21294,0.558617 -1.349907,0.766563 -1.701446,1.777317 -0.351549,1.010754 0.552344,1.877201 1.224604,2.113281 0.672252,0.236076 1.02296,-0.440136 0.736951,-0.758613 -0.28603,-0.318474 -0.885372,-0.446746 -0.899489,-0.801964 -0.01295,-0.355215 0.02593,-0.827067 0.953675,-1.28964 0.928162,-0.462569 3.315778,-0.503917 4.410774,-1.528065 1.094997,-1.024147 0.966309,-2.329698 -3e-5,-2.904397 -0.966329,-0.574697 -2.788815,-0.317896 -4.248237,-0.346797 0.165302,-2.383612 -4.065832,-8.324718 -11.212586,-2.904402 -0.475731,-0.09062 -1.403864,-0.128824 -2.583024,0.24521 0.13832,-0.680376 0.283617,-1.300052 -0.06668,-1.573271 -1.198363,0.397719 -1.575323,0.840168 -1.922156,1.427442 z"
       inkscape:connector-curvature="0"
       sodipodi:nodetypes="cszccczzszzzzzzzcccccc"
       inkscape:label="Rodent" />
  </g>
</svg>
