<?xml version="1.0" encoding="UTF-8" standalone="no"?>
<!-- Created with Inkscape (http://www.inkscape.org/) -->

<svg
   xmlns:dc="http://purl.org/dc/elements/1.1/"
   xmlns:cc="http://creativecommons.org/ns#"
   xmlns:rdf="http://www.w3.org/1999/02/22-rdf-syntax-ns#"
   xmlns:svg="http://www.w3.org/2000/svg"
   xmlns="http://www.w3.org/2000/svg"
   xmlns:sodipodi="http://sodipodi.sourceforge.net/DTD/sodipodi-0.dtd"
   xmlns:inkscape="http://www.inkscape.org/namespaces/inkscape"
   width="9.6178284mm"
   height="25.4mm"
   viewBox="0 0 9.6178284 25.4"
   version="1.1"
   id="svg8"
   inkscape:version="0.92.3 (2405546, 2018-03-11)"
   sodipodi:docname="Icon_Worm.svg">
  <defs
     id="defs2" />
  <sodipodi:namedview
     id="base"
     pagecolor="#ffffff"
     bordercolor="#666666"
     borderopacity="1.0"
     inkscape:pageopacity="0.0"
     inkscape:pageshadow="2"
     inkscape:zoom="1.979899"
     inkscape:cx="-12.428807"
     inkscape:cy="32.576842"
     inkscape:document-units="mm"
     inkscape:current-layer="layer1"
     showgrid="false"
     inkscape:window-width="1920"
     inkscape:window-height="1017"
     inkscape:window-x="-8"
     inkscape:window-y="-8"
     inkscape:window-maximized="1"
     fit-margin-top="0"
     fit-margin-left="0"
     fit-margin-right="0"
     fit-margin-bottom="0" />
  <metadata
     id="metadata5">
    <rdf:RDF>
      <cc:Work
         rdf:about="">
        <dc:format>image/svg+xml</dc:format>
        <dc:type
           rdf:resource="http://purl.org/dc/dcmitype/StillImage" />
        <dc:title></dc:title>
      </cc:Work>
    </rdf:RDF>
  </metadata>
  <g
     inkscape:label="Worm"
     inkscape:groupmode="layer"
     id="layer1"
     transform="translate(-19.335772,-31.411666)">
    <path
       id="path910"
       style="opacity:1;fill:#214a2c;fill-opacity:1;fill-rule:nonzero;stroke:#ff0000;stroke-width:0.063916;stroke-linecap:butt;stroke-linejoin:round;stroke-miterlimit:4;stroke-dasharray:none;stroke-opacity:1;paint-order:stroke fill markers"
       d="m 28.165777,35.125901 c -0.209922,0.152457 -0.548635,0.044 -0.756548,-0.242242 -0.207916,-0.286245 -0.206304,-0.641895 0.0036,-0.794379 0.209916,-0.152482 0.548645,-0.04404 0.756569,0.242216 0.207906,0.286308 0.206205,0.641985 -0.0038,0.794387 z m -8.015838,-2.614914 c -0.306435,-0.01081 -0.546424,-0.258434 -0.536028,-0.553083 0.0104,-0.294644 0.267244,-0.52473 0.573674,-0.513915 0.306433,0.01081 0.54642,0.258433 0.536026,0.55308 -0.0104,0.294644 -0.267242,0.524732 -0.573672,0.513918 z m 1.182645,1.302368 c 1.35471,-0.879339 3.480191,-0.460512 4.25622,1.09043 0.648446,0.176894 1.167234,-0.20719 1.825111,-0.555208 0.249759,-0.132127 0.425083,0.116787 0.339016,0.385823 -0.187018,0.584049 -1.307767,0.685729 -1.860017,0.938575 0.398565,2.228672 -0.919322,3.314756 -0.666767,4.965611 0.440016,2.876082 3.741475,4.58084 3.69501,7.907979 -0.04647,3.327139 -3.454051,6.958676 -6.782771,8.136284 -1.602765,0.56702 -4.116745,-1.478492 -1.892975,-3.271847 1.106862,-0.89263 4.191095,-1.486304 4.127509,-4.341284 -0.06359,-2.85498 -2.730514,-3.762858 -3.827061,-6.240611 -1.108828,-2.505503 -1.348762,-5.224099 0.37733,-8.613623 -0.647256,-0.484346 -0.648087,-1.555729 -0.931036,-2.073397 0.06241,-0.187734 0.22092,-0.05607 0.418024,-0.03868 0.511215,0.04543 -0.04032,0.975143 0.922489,1.709863 z"
       inkscape:connector-curvature="0"
       sodipodi:nodetypes="ccccccccccccccccczcczsccccc"
       inkscape:label="Worm" />
  </g>
</svg>
