<?xml version="1.0" encoding="UTF-8" standalone="no"?>
<!-- Created with Inkscape (http://www.inkscape.org/) -->

<svg
   xmlns:dc="http://purl.org/dc/elements/1.1/"
   xmlns:cc="http://creativecommons.org/ns#"
   xmlns:rdf="http://www.w3.org/1999/02/22-rdf-syntax-ns#"
   xmlns:svg="http://www.w3.org/2000/svg"
   xmlns="http://www.w3.org/2000/svg"
   xmlns:sodipodi="http://sodipodi.sourceforge.net/DTD/sodipodi-0.dtd"
   xmlns:inkscape="http://www.inkscape.org/namespaces/inkscape"
   width="18in"
   height="12in"
   viewBox="0 0 457.19999 304.8"
   version="1.1"
   id="svg8"
   inkscape:version="0.92.4 (5da689c313, 2019-01-14)"
   sodipodi:docname="Bottom_Tiles.svg">
  <defs
     id="defs2" />
  <sodipodi:namedview
     id="base"
     pagecolor="#ffffff"
     bordercolor="#666666"
     borderopacity="1.0"
     inkscape:pageopacity="0.0"
     inkscape:pageshadow="2"
     inkscape:zoom="0.49497475"
     inkscape:cx="735.02025"
     inkscape:cy="708.71395"
     inkscape:document-units="in"
     inkscape:current-layer="g1279"
     showgrid="false"
     inkscape:snap-object-midpoints="false"
     inkscape:snap-midpoints="true"
     inkscape:measure-start="369.963,1440.32"
     inkscape:measure-end="409.889,1463.44"
     inkscape:window-width="1920"
     inkscape:window-height="1017"
     inkscape:window-x="-8"
     inkscape:window-y="-8"
     inkscape:window-maximized="1"
     inkscape:snap-intersection-paths="true"
     inkscape:snap-global="true"
     units="in" />
  <metadata
     id="metadata5">
    <rdf:RDF>
      <cc:Work
         rdf:about="">
        <dc:format>image/svg+xml</dc:format>
        <dc:type
           rdf:resource="http://purl.org/dc/dcmitype/StillImage" />
        <dc:title></dc:title>
      </cc:Work>
    </rdf:RDF>
  </metadata>
  <g
     inkscape:label="Layer 1"
     inkscape:groupmode="layer"
     id="layer1"
     transform="translate(181.15407,-110.20928)">
    <g
       id="g1279"
       inkscape:label="Hexes"
       transform="translate(5.815863,-11.339714)">
      <path
         inkscape:tile-y0="-6.0590121"
         inkscape:tile-x0="-2.7358529"
         inkscape:label="Base Hex"
         inkscape:connector-curvature="0"
         d="M -109.62418,149.69617 -109.50821,149.89704 C -109.046,150.6976 -110.38097,152.66633 -109.94974,152.78187 -109.51851,152.89742 -103.59715,149.46882 -103.59715,149.46882 M -60.694781,144.34343 -60.810751,144.54431 C -61.272961,145.34487 -63.645401,145.17312 -63.529851,145.60434 -63.414301,146.03557 -57.484381,149.44932 -57.484381,149.44932 L -54.688211,144.69288 M -100.3769,234.38415 -100.26093,234.18328 C -99.798721,233.38272 -97.426281,233.55447 -97.541831,233.12324 -97.657381,232.69201 -103.5873,229.27827 -103.5873,229.27827 L -106.38346,234.0347 M -129.50752,194.73006 H -129.27557 C -128.35116,194.73006 -127.31368,196.87054 -126.998,196.55485 -126.68232,196.23917 -126.69089,189.39683 -126.69089,189.39683 M -126.69089,189.39683 -132.20817,189.3535 C -132.20817,189.3535 -132.21675,182.51115 -131.90107,182.19547 -131.58538,181.87979 -130.5479,184.02026 -129.62349,184.02026 H -129.39155 V 161.17582 L -109.62418,149.69617 M -103.59715,149.46882 -106.31827,144.66906 C -106.31827,144.66906 -100.39691,141.24046 -99.965681,141.35601 -99.534451,141.47155 -100.86942,143.44027 -100.40721,144.24084 L -100.29124,144.44171 -80.523881,132.96206 -60.694781,144.34343 M -54.688211,144.69288 C -54.688211,144.69288 -48.758291,148.10663 -48.642741,148.53786 -48.527191,148.96909 -50.899641,148.79733 -51.361841,149.59789 L -51.477821,149.79877 -31.648721,161.18015 M -80.579211,245.7818 -100.3769,234.38415 M -106.38346,234.0347 C -106.38346,234.0347 -112.31339,230.62096 -112.42894,230.18973 -112.54449,229.7585 -110.17204,229.93025 -109.70984,229.12969 L -109.59386,228.92882 -129.39155,217.53118 -129.50752,194.73006"
         style="fill:none;stroke:#0000ff;stroke-width:0.025;stroke-linecap:butt;stroke-linejoin:round;stroke-miterlimit:4;stroke-dasharray:none;stroke-opacity:1;fill-opacity:1"
         id="use1221"
         sodipodi:nodetypes="cccccccccccscccscccccscccccccccccsccccccscccc" />
      <path
         inkscape:tile-y0="-6.0590121"
         inkscape:tile-x0="-2.7358529"
         inkscape:label="Base Hex"
         inkscape:connector-curvature="0"
         d="M -158.50756,234.27342 -158.39159,234.47429 C -157.92938,235.27485 -159.26435,237.24358 -158.83312,237.35912 -158.40189,237.47467 -152.48053,234.04607 -152.48053,234.04607 M -149.26028,318.9614 -149.14431,318.76053 C -148.6821,317.95997 -146.30966,318.13172 -146.42521,317.70049 -146.54076,317.26926 -152.47068,313.85552 -152.47068,313.85552 L -155.26684,318.61195 M -100.33088,313.6068 -100.44686,313.40592 C -100.90906,312.60536 -99.574086,310.63664 -100.00533,310.5211 -100.43655,310.40555 -106.35791,313.83414 -106.35791,313.83414 L -103.63679,318.63391 M -178.3909,279.30731 H -178.15895 C -177.23454,279.30731 -176.19706,281.44779 -175.88138,281.1321 -175.5657,280.81642 -175.57427,273.97408 -175.57427,273.97408 M -175.57427,273.97408 -181.09155,273.93075 C -181.09155,273.93075 -181.10013,267.0884 -180.78445,266.77272 -180.46876,266.45704 -179.43128,268.59751 -178.50687,268.59751 H -178.27493 V 245.75307 L -158.50756,234.27342 M -152.48053,234.04607 -155.20165,229.2463 C -155.20165,229.2463 -149.28029,225.81771 -148.84906,225.93326 -148.41783,226.0488 -149.7528,228.01752 -149.29059,228.81809 L -149.17462,229.01896 -129.40726,217.53931 M -80.532096,302.109 -100.33088,313.6068 M -103.63679,318.63391 C -103.63679,318.63391 -109.55815,322.0625 -109.98937,321.94695 -110.42061,321.83141 -109.08564,319.86269 -109.54785,319.06213 L -109.66382,318.86125 -129.46259,330.35905 -149.26028,318.9614 M -155.26684,318.61195 C -155.26684,318.61195 -161.19677,315.19821 -161.31232,314.76698 -161.42787,314.33575 -159.05542,314.5075 -158.59322,313.70694 L -158.47724,313.50607 -178.27493,302.10843 -178.3909,279.30731"
         style="fill:none;stroke:#0000ff;stroke-width:0.025;stroke-linecap:butt;stroke-linejoin:round;stroke-miterlimit:4;stroke-dasharray:none;stroke-opacity:1;fill-opacity:1"
         id="use1223"
         sodipodi:nodetypes="ccccccsccccccccscccccsccccccccccccccccccscccc" />
      <path
         inkscape:tile-y0="-6.0590121"
         inkscape:tile-x0="-2.7358529"
         inkscape:label="Base Hex"
         inkscape:connector-curvature="0"
         d="M -100.40083,403.54016 -100.28486,403.33929 C -99.822646,402.53873 -97.450206,402.71048 -97.565756,402.27925 -97.681306,401.84802 -103.61123,398.43428 -103.61123,398.43428 L -106.40739,403.19071 M -51.471426,398.18556 -51.587406,397.98468 C -52.049606,397.18412 -50.714636,395.2154 -51.145876,395.09986 -51.577096,394.98431 -57.498456,398.4129 -57.498456,398.4129 L -54.777336,403.21267 M -31.614656,353.15706 H -31.846606 C -32.771016,353.15706 -33.808496,351.01658 -34.124176,351.33226 -34.439856,351.64795 -34.431286,358.4903 -34.431286,358.4903 L -28.914006,358.53363 M -129.53145,363.88607 H -129.2995 C -128.37509,363.88607 -127.33761,366.02655 -127.02193,365.71086 -126.70625,365.39518 -126.71482,358.55284 -126.71482,358.55284 M -126.71482,358.55284 -132.2321,358.50951 C -132.2321,358.50951 -132.24068,351.66716 -131.925,351.35148 -131.60931,351.0358 -130.57183,353.17627 -129.64742,353.17627 H -129.41548 V 330.33183 M -31.672646,330.33616 -31.614656,353.15706 M -28.914006,358.53363 C -28.914006,358.53363 -28.905436,365.37596 -29.221116,365.69164 -29.536796,366.00733 -30.574276,363.86685 -31.498686,363.86685 H -31.730636 L -31.672646,386.68776 -51.471426,398.18556 M -54.777336,403.21267 C -54.777336,403.21267 -60.698696,406.64126 -61.129916,406.52571 -61.561156,406.41017 -60.226186,404.44145 -60.688396,403.64089 L -60.804366,403.44001 -80.603136,414.93781 -100.40083,403.54016 M -106.40739,403.19071 C -106.40739,403.19071 -112.33732,399.77697 -112.45287,399.34574 -112.56842,398.91451 -110.19597,399.08626 -109.73377,398.2857 L -109.61779,398.08483 -129.41548,386.68719 -129.53145,363.88607"
         style="fill:none;stroke:#0000ff;stroke-width:0.025;stroke-linecap:butt;stroke-linejoin:round;stroke-miterlimit:4;stroke-dasharray:none;stroke-opacity:1;fill-opacity:1"
         id="use1225"
         sodipodi:nodetypes="ccsccccccccsccccscccccsccccccsccccccccccscccc" />
      <path
         inkscape:tile-y0="-6.0590121"
         inkscape:tile-x0="-2.7358529"
         inkscape:label="Base Hex"
         inkscape:connector-curvature="0"
         d="M -11.85236,149.68684 -11.73639,149.88771 C -11.27418,150.68827 -12.60915,152.657 -12.17792,152.77254 -11.74669,152.88809 -5.82533,149.45949 -5.82533,149.45949 M 37.07704,144.3341 36.96107,144.53498 C 36.49886,145.33554 34.12642,145.16379 34.24197,145.59501 34.35752,146.02624 40.28744,149.43999 40.28744,149.43999 L 43.08361,144.68355 M 66.18109,183.99172 H 65.94914 C 65.02473,183.99172 63.98725,181.85124 63.67157,182.16692 63.35589,182.48261 63.36446,189.32496 63.36446,189.32496 L 68.88174,189.36829 M -31.7357,194.72073 H -31.50375 C -30.57934,194.72073 -29.54186,196.86121 -29.22618,196.54552 -28.9105,196.22984 -28.91907,189.3875 -28.91907,189.3875 M -28.91907,189.3875 -34.43635,189.34417 C -34.43635,189.34417 -34.44493,182.50182 -34.12925,182.18614 -33.81356,181.87046 -32.77608,184.01093 -31.85167,184.01093 H -31.61973 V 161.16649 L -11.85236,149.68684 M -5.82533,149.45949 -8.54645,144.65972 C -8.54645,144.65972 -2.62509,141.23113 -2.19386,141.34668 -1.76263,141.46222 -3.0976,143.43094 -2.63539,144.23151 L -2.51942,144.43238 17.24794,132.95273 37.07704,144.3341 M 43.08361,144.68355 C 43.08361,144.68355 49.01353,148.0973 49.12908,148.52853 49.24463,148.95976 46.87218,148.788 46.40998,149.58856 L 46.294,149.78944 66.1231,161.17082 66.18109,183.99172 M 68.88174,189.36829 C 68.88174,189.36829 68.89031,196.21062 68.57463,196.5263 68.25895,196.84199 67.22147,194.70151 66.29706,194.70151 H 66.06511 L 66.1231,217.52242 M -31.61973,217.52185 -31.7357,194.72073"
         style="fill:none;stroke:#0000ff;stroke-width:0.025;stroke-linecap:butt;stroke-linejoin:round;stroke-miterlimit:4;stroke-dasharray:none;stroke-opacity:1;fill-opacity:1"
         id="use1229"
         sodipodi:nodetypes="ccccccccccsccccscccccscccccccccccsccccccscccc" />
      <path
         inkscape:tile-y0="-6.0590121"
         inkscape:tile-x0="-2.7358529"
         inkscape:label="Base Hex"
         inkscape:connector-curvature="0"
         d="M -60.76473,234.27493 -60.64876,234.4758 C -60.18655,235.27636 -61.52152,237.24509 -61.09029,237.36063 -60.65906,237.47618 -54.7377,234.04758 -54.7377,234.04758 M -11.83533,228.92219 -11.9513,229.12307 C -12.41351,229.92363 -14.78595,229.75188 -14.6704,230.1831 -14.55485,230.61433 -8.62493,234.02808 -8.62493,234.02808 L -5.82876,229.27164 M -51.51745,318.96291 -51.40148,318.76204 C -50.93927,317.96148 -48.56683,318.13323 -48.68238,317.702 -48.79793,317.27077 -54.72785,313.85703 -54.72785,313.85703 L -57.52401,318.61346 M -2.58805,313.60831 -2.70403,313.40743 C -3.16623,312.60687 -1.83126,310.63815 -2.2625,310.52261 -2.69372,310.40706 -8.61508,313.83565 -8.61508,313.83565 L -5.89396,318.63542 M -80.64807,279.30882 H -80.41612 C -79.49171,279.30882 -78.45423,281.4493 -78.13855,281.13361 -77.82287,280.81793 -77.83144,273.97559 -77.83144,273.97559 M -77.83144,273.97559 -83.34872,273.93226 C -83.34872,273.93226 -83.3573,267.08991 -83.04162,266.77423 -82.72593,266.45855 -81.68845,268.59902 -80.76404,268.59902 H -80.5321 V 245.75458 L -60.76473,234.27493 M -54.7377,234.04758 -57.45882,229.24781 C -57.45882,229.24781 -51.53746,225.81922 -51.10623,225.93477 -50.675,226.05031 -52.00997,228.01903 -51.54776,228.8196 L -51.43179,229.02047 -31.66443,217.54082 -11.83533,228.92219 M -5.82876,229.27164 C -5.82876,229.27164 0.10116,232.68539 0.21671,233.11662 0.33226,233.54785 -2.04019,233.37609 -2.50239,234.17665 L -2.61837,234.37753 17.21073,245.75891 M 17.21073,302.11051 -2.58805,313.60831 M -5.89396,318.63542 C -5.89396,318.63542 -11.81532,322.06401 -12.24654,321.94846 -12.67778,321.83292 -11.34281,319.8642 -11.80502,319.06364 L -11.92099,318.86276 -31.71976,330.36056 -51.51745,318.96291 M -57.52401,318.61346 C -57.52401,318.61346 -63.45394,315.19972 -63.56949,314.76849 -63.68504,314.33726 -61.31259,314.50901 -60.85039,313.70845 L -60.73441,313.50758 -80.5321,302.10994 -80.64807,279.30882"
         style="fill:none;stroke:#0000ff;stroke-width:0.025;stroke-linecap:butt;stroke-linejoin:round;stroke-miterlimit:4;stroke-dasharray:none;stroke-opacity:1;fill-opacity:1"
         id="use1231"
         sodipodi:nodetypes="cccccccccccsccccccccscccccscccccccccccsccccccccccccscccc" />
      <path
         inkscape:tile-y0="-6.0590121"
         inkscape:tile-x0="-2.7358529"
         inkscape:label="Base Hex"
         inkscape:connector-curvature="0"
         d="M -2.62901,403.53083 -2.51304,403.32996 C -2.05083,402.5294 0.32161,402.70115 0.20606,402.26992 0.09051,401.83869 -5.83941,398.42495 -5.83941,398.42495 L -8.63557,403.18138 M 46.30039,398.17623 46.18441,397.97535 C 45.72221,397.17479 47.05718,395.20607 46.62594,395.09053 46.19472,394.97498 40.27336,398.40357 40.27336,398.40357 L 42.99448,403.20334 M 66.09917,386.67843 46.30039,398.17623 M 42.99448,403.20334 C 42.99448,403.20334 37.07312,406.63193 36.6419,406.51638 36.21066,406.40084 37.54563,404.43212 37.08342,403.63156 L 36.96745,403.43068 17.16868,414.92848 -2.62901,403.53083 M -8.63557,403.18138 C -8.63557,403.18138 -14.5655,399.76764 -14.68105,399.33641 -14.7966,398.90518 -12.42415,399.07693 -11.96195,398.27637 L -11.84597,398.0755 -31.64366,386.67786"
         style="fill:none;stroke:#0000ff;stroke-width:0.025;stroke-linecap:butt;stroke-linejoin:round;stroke-miterlimit:4;stroke-dasharray:none;stroke-opacity:1;fill-opacity:1"
         id="use1233"
         sodipodi:nodetypes="ccsccccccccccccccccsccc" />
      <path
         inkscape:tile-y0="-6.0590121"
         inkscape:tile-x0="-2.7358529"
         inkscape:label="Base Hex"
         inkscape:connector-curvature="0"
         d="M 85.89046,149.69117 86.00643,149.89204 C 86.46864,150.6926 85.13367,152.66133 85.5649,152.77687 85.99613,152.89242 91.91749,149.46382 91.91749,149.46382 M 134.81986,144.33843 134.70389,144.53931 C 134.24168,145.33987 131.86924,145.16812 131.98479,145.59934 132.10034,146.03057 138.03026,149.44432 138.03026,149.44432 L 140.82643,144.68788 M 163.92391,183.99605 H 163.69196 C 162.76755,183.99605 161.73007,181.85557 161.41439,182.17125 161.09871,182.48694 161.10728,189.32929 161.10728,189.32929 L 166.62456,189.37262 M 66.12309,161.17082 85.89046,149.69117 M 91.91749,149.46382 89.19637,144.66406 C 89.19637,144.66406 95.11773,141.23546 95.54896,141.35101 95.98019,141.46655 94.64522,143.43527 95.10743,144.23584 L 95.2234,144.43671 114.99076,132.95706 134.81986,144.33843 M 140.82643,144.68788 C 140.82643,144.68788 146.75635,148.10163 146.8719,148.53286 146.98745,148.96409 144.615,148.79233 144.1528,149.59289 L 144.03682,149.79377 163.86592,161.17515 163.92391,183.99605 M 166.62456,189.37262 C 166.62456,189.37262 166.63313,196.21495 166.31745,196.53063 166.00177,196.84632 164.96429,194.70584 164.03988,194.70584 H 163.80793 L 163.86592,217.52675"
         style="fill:none;stroke:#0000ff;stroke-width:0.025;stroke-linecap:butt;stroke-linejoin:round;stroke-miterlimit:4;stroke-dasharray:none;stroke-opacity:1;fill-opacity:1"
         id="use1237"
         sodipodi:nodetypes="ccccccccccscccccccccccccsccccccscc" />
      <path
         inkscape:tile-y0="-6.0590121"
         inkscape:tile-x0="-2.7358529"
         inkscape:label="Base Hex"
         inkscape:connector-curvature="0"
         d="M 37.00709,234.2656 37.12306,234.46647 C 37.58527,235.26703 36.2503,237.23576 36.68153,237.3513 37.11276,237.46685 43.03412,234.03825 43.03412,234.03825 M 85.93649,228.91286 85.82052,229.11374 C 85.35831,229.9143 82.98587,229.74255 83.10142,230.17377 83.21697,230.605 89.14689,234.01875 89.14689,234.01875 L 91.94306,229.26231 M 46.25437,318.95358 46.37034,318.75271 C 46.83255,317.95215 49.20499,318.1239 49.08944,317.69267 48.97389,317.26144 43.04397,313.8477 43.04397,313.8477 L 40.24781,318.60413 M 95.18377,313.59898 95.06779,313.3981 C 94.60559,312.59754 95.94056,310.62882 95.50932,310.51328 95.0781,310.39773 89.15674,313.82632 89.15674,313.82632 L 91.87786,318.62609 M 115.04054,268.57048 H 114.80859 C 113.88418,268.57048 112.8467,266.43 112.53102,266.74568 112.21534,267.06137 112.22391,273.90372 112.22391,273.90372 L 117.74119,273.94705 M 17.12375,279.29949 H 17.3557 C 18.28011,279.29949 19.31759,281.43997 19.63327,281.12428 19.94895,280.8086 19.94038,273.96626 19.94038,273.96626 M 19.94038,273.96626 14.4231,273.92293 C 14.4231,273.92293 14.41452,267.08058 14.7302,266.7649 15.04589,266.44922 16.08337,268.58969 17.00778,268.58969 H 17.23972 V 245.74525 L 37.00709,234.2656 M 43.03412,234.03825 40.313,229.23848 C 40.313,229.23848 46.23436,225.80989 46.66559,225.92544 47.09682,226.04098 45.76185,228.0097 46.22406,228.81027 L 46.34003,229.01114 66.10739,217.53149 85.93649,228.91286 M 91.94306,229.26231 C 91.94306,229.26231 97.87298,232.67606 97.98853,233.10729 98.10408,233.53852 95.73163,233.36676 95.26943,234.16732 L 95.15345,234.3682 114.98255,245.74958 115.04054,268.57048 M 117.74119,273.94705 C 117.74119,273.94705 117.74976,280.78938 117.43408,281.10506 117.1184,281.42075 116.08092,279.28027 115.15651,279.28027 H 114.92456 L 114.98255,302.10118 95.18377,313.59898 M 91.87786,318.62609 C 91.87786,318.62609 85.9565,322.05468 85.52528,321.93913 85.09404,321.82359 86.42901,319.85487 85.9668,319.05431 L 85.85083,318.85343 66.05206,330.35123 46.25437,318.95358 M 40.24781,318.60413 C 40.24781,318.60413 34.31788,315.19039 34.20233,314.75916 34.08678,314.32793 36.45923,314.49968 36.92143,313.69912 L 37.03741,313.49825 17.23972,302.10061 17.12375,279.29949"
         style="fill:none;stroke:#0000ff;stroke-width:0.025;stroke-linecap:butt;stroke-linejoin:round;stroke-miterlimit:4;stroke-dasharray:none;stroke-opacity:1;fill-opacity:1"
         id="use1239" />
      <path
         inkscape:tile-y0="-6.0590121"
         inkscape:tile-x0="-2.7358529"
         inkscape:label="Base Hex"
         inkscape:connector-curvature="0"
         d="M 95.11381,403.53516 95.22978,403.33429 C 95.69199,402.53373 98.06443,402.70548 97.94888,402.27425 97.83333,401.84302 91.90341,398.42928 91.90341,398.42928 L 89.10725,403.18571 M 144.04321,398.18056 143.92723,397.97968 C 143.46503,397.17912 144.8,395.2104 144.36876,395.09486 143.93754,394.97931 138.01618,398.4079 138.01618,398.4079 L 140.7373,403.20767 M 163.89998,353.15206 H 163.66803 C 162.74362,353.15206 161.70614,351.01158 161.39046,351.32726 161.07478,351.64295 161.08335,358.4853 161.08335,358.4853 L 166.60063,358.52863 M 65.98319,363.88107 H 66.21514 C 67.13955,363.88107 68.17703,366.02155 68.49271,365.70586 68.80839,365.39018 68.79982,358.54784 68.79982,358.54784 M 68.79982,358.54784 63.28254,358.50451 C 63.28254,358.50451 63.27396,351.66216 63.58964,351.34648 63.90533,351.0308 64.94281,353.17127 65.86722,353.17127 H 66.09916 V 330.32683 M 163.84199,330.33116 163.89998,353.15206 M 166.60063,358.52863 C 166.60063,358.52863 166.6092,365.37096 166.29352,365.68664 165.97784,366.00233 164.94036,363.86185 164.01595,363.86185 H 163.784 L 163.84199,386.68276 144.04321,398.18056 M 140.7373,403.20767 C 140.7373,403.20767 134.81594,406.63626 134.38472,406.52071 133.95348,406.40517 135.28845,404.43645 134.82624,403.63589 L 134.71027,403.43501 114.9115,414.93281 95.11381,403.53516 M 89.10725,403.18571 C 89.10725,403.18571 83.17732,399.77197 83.06177,399.34074 82.94622,398.90951 85.31867,399.08126 85.78087,398.2807 L 85.89685,398.07983 66.09916,386.68219 65.98319,363.88107"
         style="fill:none;stroke:#0000ff;stroke-width:0.025;stroke-linecap:butt;stroke-linejoin:round;stroke-miterlimit:4;stroke-dasharray:none;stroke-opacity:1;fill-opacity:1"
         id="use1241"
         sodipodi:nodetypes="ccsccccccccsccccscccccsccccccsccccccccccscccc" />
      <path
         inkscape:tile-y0="-6.0590121"
         inkscape:tile-x0="-2.7358529"
         inkscape:label="Base Hex"
         inkscape:connector-curvature="0"
         d="M 183.61758,149.70362 183.73355,149.90449 C 184.19576,150.70505 182.86079,152.67378 183.29202,152.78932 183.72325,152.90487 189.64461,149.47627 189.64461,149.47627 M 232.54698,144.35088 232.43101,144.55176 C 231.9688,145.35232 229.59636,145.18057 229.71191,145.61179 229.82746,146.04302 235.75738,149.45677 235.75738,149.45677 L 238.55355,144.70033 M 241.79426,229.037 241.67828,228.83612 C 241.21608,228.03556 242.55105,226.06684 242.11981,225.9513 241.68859,225.83575 235.76723,229.26434 235.76723,229.26434 L 238.48835,234.06411 M 261.65103,184.0085 H 261.41908 C 260.49467,184.0085 259.45719,181.86802 259.14151,182.1837 258.82583,182.49939 258.8344,189.34174 258.8344,189.34174 L 264.35168,189.38507 M 163.85021,161.18327 183.61758,149.70362 M 189.64461,149.47627 186.92349,144.67651 C 186.92349,144.67651 192.84485,141.24791 193.27608,141.36346 193.70731,141.479 192.37234,143.44772 192.83455,144.24829 L 192.95052,144.44916 212.71788,132.96951 232.54698,144.35088 M 238.55355,144.70033 C 238.55355,144.70033 244.48347,148.11408 244.59902,148.54531 244.71457,148.97654 242.34212,148.80478 241.87992,149.60534 L 241.76394,149.80622 261.59304,161.1876 261.65103,184.0085 M 264.35168,189.38507 C 264.35168,189.38507 264.36025,196.2274 264.04457,196.54308 263.72889,196.85877 262.69141,194.71829 261.767,194.71829 H 261.53505 L 261.59304,217.5392 241.79426,229.037 M 238.48835,234.06411 C 238.48835,234.06411 232.56699,237.4927 232.13577,237.37715 231.70453,237.26161 233.0395,235.29289 232.57729,234.49233 L 232.46132,234.29145 212.66255,245.78925"
         style="fill:none;stroke:#0000ff;stroke-width:0.025;stroke-linecap:butt;stroke-linejoin:round;stroke-miterlimit:4;stroke-dasharray:none;stroke-opacity:1;fill-opacity:1"
         id="use1245"
         sodipodi:nodetypes="cccccccccccccccscccccccccccccsccccccscccccccc" />
      <path
         inkscape:tile-y0="-6.0590121"
         inkscape:tile-x0="-2.7358529"
         inkscape:label="Base Hex"
         inkscape:connector-curvature="0"
         d="M 134.74991,234.26993 134.86588,234.4708 C 135.32809,235.27136 133.99312,237.24009 134.42435,237.35563 134.85558,237.47118 140.77694,234.04258 140.77694,234.04258 M 183.67931,228.91719 183.56334,229.11807 C 183.10113,229.91863 180.72869,229.74688 180.84424,230.1781 180.95979,230.60933 186.88971,234.02308 186.88971,234.02308 L 189.68588,229.26664 M 143.99719,318.95791 144.11316,318.75704 C 144.57537,317.95648 146.94781,318.12823 146.83226,317.697 146.71671,317.26577 140.78679,313.85203 140.78679,313.85203 L 137.99063,318.60846 M 192.92659,313.60331 192.81061,313.40243 C 192.34841,312.60187 193.68338,310.63315 193.25214,310.51761 192.82092,310.40206 186.89956,313.83065 186.89956,313.83065 L 189.62068,318.63042 M 212.78336,268.57481 H 212.55141 C 211.627,268.57481 210.58952,266.43433 210.27384,266.75002 209.95816,267.0657 209.96673,273.90805 209.96673,273.90805 L 215.48401,273.95138 M 114.98254,245.74958 134.74991,234.26993 M 140.77694,234.04258 138.05582,229.24281 C 138.05582,229.24281 143.97718,225.81422 144.40841,225.92977 144.83964,226.04531 143.50467,228.01403 143.96688,228.8146 L 144.08285,229.01547 163.85021,217.53582 183.67931,228.91719 M 189.68588,229.26664 C 189.68588,229.26664 195.6158,232.68039 195.73135,233.11162 195.8469,233.54285 193.47445,233.37109 193.01225,234.17165 L 192.89627,234.37253 212.72537,245.75391 212.78336,268.57481 M 215.48401,273.95138 C 215.48401,273.95138 215.49258,280.79371 215.1769,281.10939 214.86122,281.42508 213.82374,279.2846 212.89933,279.2846 H 212.66738 L 212.72537,302.10551 192.92659,313.60331 M 189.62068,318.63042 C 189.62068,318.63042 183.69932,322.05901 183.2681,321.94346 182.83686,321.82792 184.17183,319.8592 183.70962,319.05864 L 183.59365,318.85776 163.79488,330.35556 143.99719,318.95791 M 137.99063,318.60846 C 137.99063,318.60846 132.0607,315.19472 131.94515,314.76349 131.8296,314.33226 134.20205,314.50401 134.66425,313.70345 L 134.78023,313.50258 114.98254,302.10494"
         style="fill:none;stroke:#0000ff;stroke-width:0.025;stroke-linecap:butt;stroke-linejoin:round;stroke-miterlimit:4;stroke-dasharray:none;stroke-opacity:1;fill-opacity:1"
         id="use1247"
         sodipodi:nodetypes="cccccccccccsccccccccscccccccccccccsccccccsccccccccccsccc" />
      <path
         inkscape:tile-y0="-6.0590121"
         inkscape:tile-x0="-2.7358529"
         inkscape:label="Base Hex"
         inkscape:connector-curvature="0"
         d="M 232.52305,313.50689 232.40708,313.70777 C 231.94487,314.50833 229.57243,314.33658 229.68798,314.7678 229.80353,315.19903 235.73345,318.61278 235.73345,318.61278 L 238.52962,313.85634 M 192.84093,403.54761 192.9569,403.34674 C 193.41911,402.54618 195.79155,402.71793 195.676,402.2867 195.56045,401.85547 189.63053,398.44173 189.63053,398.44173 L 186.83437,403.19816 M 241.77033,398.19301 241.65435,397.99213 C 241.19215,397.19157 242.52712,395.22285 242.09588,395.10731 241.66466,394.99176 235.7433,398.42035 235.7433,398.42035 L 238.46442,403.22012 M 261.6271,353.16451 H 261.39515 C 260.47074,353.16451 259.43326,351.02403 259.11758,351.33971 258.8019,351.6554 258.81047,358.49775 258.81047,358.49775 L 264.32775,358.54108 M 212.69395,302.12552 232.52305,313.50689 M 238.52962,313.85634 C 238.52962,313.85634 244.45954,317.27009 244.57509,317.70132 244.69064,318.13255 242.31819,317.96079 241.85599,318.76135 L 241.74001,318.96223 261.56911,330.34361 261.6271,353.16451 M 264.32775,358.54108 C 264.32775,358.54108 264.33632,365.38341 264.02064,365.69909 263.70496,366.01478 262.66748,363.8743 261.74307,363.8743 H 261.51112 L 261.56911,386.69521 241.77033,398.19301 M 238.46442,403.22012 C 238.46442,403.22012 232.54306,406.64871 232.11184,406.53316 231.6806,406.41762 233.01557,404.4489 232.55336,403.64834 L 232.43739,403.44746 212.63862,414.94526 192.84093,403.54761 M 186.83437,403.19816 C 186.83437,403.19816 180.90444,399.78442 180.78889,399.35319 180.67334,398.92196 183.04579,399.09371 183.50799,398.29315 L 183.62397,398.09228 163.82628,386.69464"
         style="fill:none;stroke:#0000ff;stroke-width:0.025;stroke-linecap:butt;stroke-linejoin:round;stroke-miterlimit:4;stroke-dasharray:none;stroke-opacity:1;fill-opacity:1"
         id="use1249"
         sodipodi:nodetypes="cccccccsccccccccsccccccsccccccsccccccccccsccc" />
    </g>
  </g>
</svg>
