<?xml version="1.0" encoding="UTF-8" standalone="no"?>
<!-- Created with Inkscape (http://www.inkscape.org/) -->

<svg
   xmlns:dc="http://purl.org/dc/elements/1.1/"
   xmlns:cc="http://creativecommons.org/ns#"
   xmlns:rdf="http://www.w3.org/1999/02/22-rdf-syntax-ns#"
   xmlns:svg="http://www.w3.org/2000/svg"
   xmlns="http://www.w3.org/2000/svg"
   xmlns:sodipodi="http://sodipodi.sourceforge.net/DTD/sodipodi-0.dtd"
   xmlns:inkscape="http://www.inkscape.org/namespaces/inkscape"
   width="293.45108mm"
   height="100.69141mm"
   viewBox="0 0 293.45108 100.69141"
   version="1.1"
   id="svg1734"
   sodipodi:docname="Bricks_4-4-6.svg"
   inkscape:version="0.92.4 (5da689c313, 2019-01-14)">
  <defs
     id="defs1728" />
  <sodipodi:namedview
     id="base"
     pagecolor="#ffffff"
     bordercolor="#666666"
     borderopacity="1.0"
     inkscape:pageopacity="0.0"
     inkscape:pageshadow="2"
     inkscape:zoom="0.98994949"
     inkscape:cx="417.36843"
     inkscape:cy="153.81749"
     inkscape:document-units="mm"
     inkscape:current-layer="g1184"
     showgrid="false"
     fit-margin-top="0"
     fit-margin-left="0"
     fit-margin-right="0"
     fit-margin-bottom="0"
     inkscape:window-width="1920"
     inkscape:window-height="1017"
     inkscape:window-x="-8"
     inkscape:window-y="-8"
     inkscape:window-maximized="1" />
  <metadata
     id="metadata1731">
    <rdf:RDF>
      <cc:Work
         rdf:about="">
        <dc:format>image/svg+xml</dc:format>
        <dc:type
           rdf:resource="http://purl.org/dc/dcmitype/StillImage" />
        <dc:title></dc:title>
      </cc:Work>
    </rdf:RDF>
  </metadata>
  <g
     inkscape:label="Layer 1"
     inkscape:groupmode="layer"
     id="layer1"
     transform="translate(-9.024839,-152.34923)">
    <g
       id="g1671"
       transform="translate(89.565255,137.03751)">
      <g
         id="g1161"
         transform="translate(268.97516,-52.36213)">
        <path
           style="display:inline;fill:#000000;fill-opacity:0.9988964;stroke:none;stroke-width:0.26458332px;stroke-linecap:butt;stroke-linejoin:miter;stroke-opacity:1"
           d="M -115.56615,67.746141 -117.57637,68.906281 -116.07,71.516971 -139.70783,85.164201 -141.21575,82.550411 -143.22648,83.711061 C -141.04553,87.493471 -141.04553,92.154121 -143.22648,95.94081 -145.41664,99.721703 -149.45333,102.05077 -153.81911,102.05206 V 104.37233 H -150.81465 V 131.66627 H -153.81911 V 133.98654 C -151.67084,133.97991 -149.55906,134.53944 -147.69649,135.60867 -141.84765,138.9856 -139.84596,146.46922 -143.22441,152.32548 L -141.21575,153.4882 -139.70576,150.87233 -116.06793,164.51956 -117.57637,167.13232 -115.56667,168.29298 -115.56615,168.29194 C -112.18479,162.4351 -104.70077,160.4249 -98.850385,163.80229 -96.995055,164.87807 -95.455885,166.42358 -94.386575,168.28316 L -92.375845,167.12251 -93.876525,164.52267 -70.238695,150.87492 -68.738005,153.47528 -66.72728,152.31411 C -68.900605,148.53413 -68.898365,143.8801 -66.720044,140.0978 -64.529802,136.31675 -60.492871,133.98765 -56.126891,133.98654 V 131.66627 H -59.131876 V 104.37233 H -56.126891 V 102.05206 C -58.27516,102.05869 -60.386942,101.49916 -62.249517,100.42994 -68.099415,97.052682 -70.101035,89.567331 -66.720559,83.710541 L -68.730775,82.550411 -70.241275,85.166791 -93.878595,71.519561 -92.369645,68.906801 -94.379855,67.746661 -94.380375,67.747181 C -97.761915,73.603841 -105.24536,75.613271 -111.09562,72.235791 -112.95429,71.158281 -114.49646,69.609991 -115.56615,67.746141 Z"
           id="path930"
           inkscape:connector-curvature="0"
           inkscape:label="Black 1" />
        <path
           inkscape:label="brick 1"
           inkscape:connector-curvature="0"
           id="path1115"
           transform="matrix(0.26458333,0,0,0.26458333,-186.99685,36.97221)"
           d="M 269.97656,116.31055 262.37695,120.69531 268.07031,130.5625 248.8125,141.68164 C 248.97342,147.08457 249.43428,148.29433 250.54492,149.69727 251.76284,151.21965 254.50175,152.74261 257.03906,153.35156 259.88081,154.06199 279.87494,154.56849 313.36719,154.77148 371.42043,154.97445 367.97053,155.48283 370.50781,147.66797 370.85958,146.61264 371.05545,144.42644 371.12305,141.64453 L 351.94531,130.57227 357.64648,120.69727 350.04883,116.3125 350.04688,116.31445 C 337.26625,138.44985 308.98231,146.04458 286.87109,133.2793 279.84624,129.20682 274.01949,123.35503 269.97656,116.31055 Z M 373.08984,142.78125 C 373.60912,148.54577 374.85844,150.67449 377.50977,152.84375 380.06343,155.00455 381.74943,155.27481 396.1875,156.11719 Z M 245.81055,143.41406 227.73047,153.85156 C 240.77406,153.68342 243.25576,153.26352 244.35352,152.23438 245.32195,151.19678 245.71657,149.57205 245.81055,143.41406 Z M 285.95117,156.77734 C 279.82361,156.67585 268.60998,157.05523 247.09375,157.81641 233.1894,158.32387 221.51741,158.93382 221.31445,159.23828 220.09654,160.3547 219.08249,192.32484 219.69141,209.98438 L 220.40039,230.38281 241.81641,230.99219 C 253.488,231.39815 270.63923,231.70313 279.875,231.70312 H 296.62109 L 295.91016,218.20508 C 295.60568,210.89768 294.99784,201.05144 294.69336,196.38281 294.18588,190.4963 294.59072,184.60985 295.80859,176.89648 297.73691,165.12343 297.43334,161.77517 294.28711,158.62891 293.11993,157.46176 292.07873,156.87884 285.95117,156.77734 Z M 311.85742,157.08008 C 307.22687,157.05471 303.97995,157.10553 303.21875,157.20703 301.18895,157.613 300.17349,158.52676 299.66602,160.45508 298.4481,164.61624 298.95596,216.17474 300.27539,223.07617 300.88431,226.42538 302.00054,229.67236 302.71094,230.38281 304.23329,231.90517 304.33456,231.90568 324.73438,231.09375 333.05671,230.68779 347.97648,230.99266 359.03906,231.70312 369.79719,232.41355 378.83025,232.71853 379.13477,232.41406 381.16459,230.38424 381.46776,222.56907 380.04688,209.57812 378.82896,199.02299 378.72715,193.74438 379.53906,188.4668 380.95998,178.52062 380.75858,169.28622 379.13477,165.22656 376.69889,159.44154 373.45079,158.12103 361.7793,158.01953 356.19723,158.01953 341.37989,157.71462 328.79492,157.41016 322.50242,157.20717 316.48798,157.10545 311.85742,157.08008 Z M 214.89062,161.26562 178.73047,182.14258 173.03125,172.26367 165.43164,176.65039 C 173.6746,190.94613 173.6746,208.56115 165.43164,222.87305 164.42792,224.60577 163.3198,226.25683 162.12109,227.82227 165.07084,227.90605 168.04936,227.99053 171.17773,228.04883 187.41636,228.35329 204.2648,228.96317 208.62891,229.36914 L 216.44336,229.97656 215.83398,195.06445 C 215.59497,180.00695 215.23251,166.76039 214.89062,161.26562 Z M 395.375,162.07617 C 390.47089,162.05338 387.92603,162.28161 386.84766,162.78906 383.80296,164.41294 383.09289,167.66248 384.61523,173.75195 385.42717,177.40565 385.52877,180.75348 384.81836,185.72656 384.10788,190.90264 383.80326,221.55454 384.51367,226.93359 384.61514,227.33956 386.74606,229.06369 389.48633,230.78906 L 394.25586,233.93555 434.85352,233.32617 C 445.20854,233.18497 454.83732,233.14076 462.5957,233.16406 447.58011,218.77365 443.71558,195.4851 454.58789,176.64844 L 446.99023,172.26367 441.28125,182.15234 407.05078,162.38867 C 407.0135,162.38708 406.9807,162.38636 406.94336,162.38477 402.10981,162.19447 398.31747,162.08985 395.375,162.07617 Z M 159.91797,230.47852 C 151.23539,240.21739 138.72449,245.96673 125.39648,245.9707 V 254.74023 H 136.75391 V 303.69727 C 143.6603,303.90464 152.99768,304.11398 163.16016,304.26953 207.51201,304.87849 223.54793,305.58918 233.39258,307.41602 237.55376,308.22797 243.33794,308.83594 246.17969,308.83594 254.80646,308.83594 254.70508,309.24272 254.70508,279.30273 254.70508,265.0939 254.4001,249.05867 253.99414,243.57812 L 253.38672,233.5293 246.38281,234.24023 C 242.52618,234.6462 232.58027,234.44294 224.46094,233.83398 211.94465,232.87787 185.50553,231.49914 159.91797,230.47852 Z M 328.20117,233.94141 C 311.93773,233.88293 294.35126,234.17716 284.13867,234.74805 277.74469,235.15401 269.11622,235.55866 264.95508,235.66016 L 257.44531,235.76172 258.15625,259.30859 C 259.06969,289.04565 260.38975,305.58918 261.91211,307.41602 262.92703,308.63393 271.3492,308.83594 312.75781,308.83594 344.82917,308.83594 363.09861,308.43126 364.41797,307.82227 368.47766,305.58947 369.69468,301.02072 368.78125,291.58203 367.66482,280.41795 367.66482,260.52719 368.78125,246.31836 L 369.59375,235.05273 354.16797,234.44336 C 347.24116,234.13888 337.95924,233.97649 328.20117,233.94141 Z M 464.59375,234.96094 C 449.88555,235.50403 426.57996,235.7967 404.91211,235.55859 L 374.05859,235.25586 372.74023,237.79297 C 371.7253,239.72133 371.52182,245.30314 372.0293,262.6582 372.43528,274.93872 372.7403,289.65439 372.8418,295.33789 372.94332,301.63039 373.44968,306.1978 374.16016,306.9082 375.07359,307.82164 379.13412,307.82181 389.38477,307.21289 397.09813,306.80689 423.89245,306.40039 448.85938,306.40039 465.49798,306.3684 476.29723,306.51552 483.26953,306.25195 V 254.74023 H 494.62695 V 245.9707 C 486.50751,245.99576 478.52597,243.88103 471.48633,239.83984 468.99807,238.40333 466.70533,236.75983 464.59375,234.96094 Z M 136.75391,305.51172 V 357.89844 H 125.39648 V 366.66992 C 133.51593,366.64486 141.49747,368.75764 148.53711,372.79883 159.36722,379.0518 166.69449,389.03427 169.86328,400.18945 171.33415,400.21615 173.05876,400.25902 174.42578,400.28125 196.34802,400.48421 197.26093,400.38144 198.88477,398.45312 200.30568,396.62625 200.71173,390.74012 201.82812,354.20312 202.53856,330.96152 202.84358,311.57575 202.53906,310.9668 201.01674,308.531 192.79445,307.6186 166.91406,306.80664 153.61129,306.35724 141.2761,305.83835 136.75391,305.51172 Z M 439.1543,307.55664 C 427.32081,307.56437 417.92894,307.74442 414.04688,308.125 409.27674,308.63248 401.66486,309.03914 397.19922,309.14062 L 388.87695,309.34375 388.36914,313.4043 C 388.06465,315.63709 386.94859,321.82789 386.03516,327.10547 383.90383,338.87847 383.49748,379.87976 385.42578,389.52148 386.94819,396.93034 388.67458,398.86021 395.37305,400.07812 397.81194,400.5827 420.62475,401.00614 449.89844,401.25586 450.9283,397.28447 452.4869,393.41703 454.58984,389.76562 462.86793,375.47504 478.12562,366.67412 494.62695,366.66992 V 357.89844 H 483.26953 V 308.14258 C 468.32246,307.76204 452.2766,307.54807 439.1543,307.55664 Z M 206.19141,309.64844 205.48242,329.8457 C 204.97498,340.9083 204.56836,360.59706 204.56836,373.68945 L 204.4668,397.54102 207.71484,399.36719 C 209.44024,400.48358 213.80324,401.7015 217.35547,402.10742 221.82106,402.71638 214.81969,403.02153 194.31836,403.12305 186.30756,403.16791 178.35013,403.27977 170.66406,403.43164 172.8968,414.16972 171.3509,425.7388 165.43359,435.99023 L 173.03125,440.375 178.73828,430.48828 233.49414,462.10156 C 239.12235,462.00247 242.1811,461.83251 242.32422,461.58203 242.73018,460.97307 243.33822,450.31543 243.74414,437.73047 244.1501,425.14555 244.76005,413.47341 245.06445,411.84961 245.57197,409.61674 245.16489,408.09429 243.54102,406.06445 241.61263,403.52718 240.69978,403.32584 233.08789,402.91992 228.52079,402.8184 241.7136,402.51363 262.31641,402.41211 283.02066,402.31059 300.37742,401.80244 301.08789,401.39648 301.89981,400.88905 301.99962,392.77031 301.39062,368.7168 300.88319,351.15874 300.47847,331.16513 300.37695,324.36523 V 312.08398 L 257.03906,311.57617 C 233.08699,311.27169 211.97714,310.66385 209.94727,310.35938 Z M 358.65234,311.01758 C 355.27953,311.02293 351.43933,311.04299 347.0625,311.06836 329.50444,311.16988 312.55455,311.47482 309.50977,311.7793 L 303.92969,312.38867 303.625,338.26953 C 303.42204,364.35284 305.34903,397.43887 307.27734,399.36719 307.78482,399.87466 309.91743,400.88921 311.94727,401.59961 315.29649,402.81752 313.57073,403.02011 294.5918,403.83203 283.02172,404.23799 268.71076,404.54292 262.82422,404.44141 253.48705,404.13693 251.86416,404.34101 250.44336,405.96484 247.39857,409.41559 246.28175,418.95503 246.99219,435.70117 248.21003,461.58156 248.91983,462.69681 265.56445,464.82812 271.65399,465.5386 279.4693,466.25008 283.02148,466.35156 289.41542,466.45304 289.41597,466.45222 286.57422,467.97461 279.36832,471.62832 278.9614,472.5432 279.67188,484.01172 279.68512,484.19502 279.6927,484.34652 279.70508,484.52539 294.19354,471.93069 315.61129,469.2311 333.15234,479.35742 340.17773,483.43096 346.00448,489.28608 350.04688,496.33203 L 357.64648,491.94727 351.95312,482.08008 371.55273,470.76367 C 340.83677,469.90748 309.48868,468.52905 304.94336,467.77148 303.82692,467.56852 313.46802,467.36707 326.35742,467.26562 353.96319,467.16414 351.12305,469.1937 351.12305,450.11328 351.12305,437.12233 352.64552,419.86796 354.06641,415.30078 355.38576,411.44411 353.04999,406.77634 349.0918,405.35547 347.26496,404.74647 341.37908,404.13672 336,404.13672 L 326.25781,403.93359 335.39062,403.12305 C 341.37865,402.51409 347.16363,402.61382 352.13672,403.32422 371.01419,406.06453 377.10444,405.76079 381.26562,401.59961 383.59991,399.26534 383.80237,398.55451 383.19336,392.76953 382.7874,389.31882 382.28109,375.00982 382.07812,361.10547 381.67214,340.90866 381.8739,334.10874 383.0918,327.61328 384.0052,323.14766 384.41184,318.27431 384.00586,316.75195 382.9402,311.69006 382.26204,310.98013 358.65234,311.01758 Z M 393.71875,405.68945 C 381.87337,405.60799 371.76358,405.7728 367.46289,406.26758 359.54653,407.18101 358.93618,407.58803 357.10938,413.37305 355.68843,418.14311 353.96316,445.03763 354.36914,457.01367 354.67363,466.55388 354.67399,466.65538 357.71875,468.17773 359.33198,468.95212 362.94287,469.31535 373.73438,469.50391 L 441.29102,430.49805 446.99219,440.37695 454.5918,435.99023 C 449.5934,427.32285 447.64502,417.43675 448.70703,407.80469 448.65799,407.79977 448.60355,407.79596 448.55469,407.79102 438.02491,406.64922 413.46105,405.82523 393.71875,405.68945 Z M 238.90234,465.22461 268.07812,482.06836 262.37695,491.94531 269.97461,496.33008 269.97656,496.32617 C 271.97584,492.86322 274.35409,489.75635 277.0293,487.02734 277.94347,482.41263 277.89603,479.55797 277.13477,476.70312 275.20641,470.00471 274.19151,469.29376 263.23047,467.66992 255.96678,466.60508 248.38955,465.81201 238.90234,465.22461 Z"
           style="display:inline;fill:#ffffff;fill-opacity:1;stroke:#00ff00;stroke-width:0.096;stroke-miterlimit:4;stroke-dasharray:none;stroke-opacity:1" />
        <path
           inkscape:label="White 1"
           inkscape:connector-curvature="0"
           id="path1269"
           d="M -115.50523,67.673858 -116.31188,68.140658 -117.62243,68.896518 -116.11265,71.505888 -139.69663,85.121118 -141.20445,82.507838 -143.31773,83.726588 -142.91538,84.562528 C -141.17157,88.188728 -141.23573,92.420878 -143.25328,95.923857 L -143.25718,95.931668 C -145.28372,99.425258 -148.91588,101.59258 -152.92515,101.89456 L -153.85093,101.96489 V 104.40434 H -150.84507 V 131.6348 H -153.85093 V 134.0723 L -152.92321,134.14066 C -151.06692,134.27417 -149.28087,134.73627 -147.71226,135.63675 -142.14574,138.85068 -140.13424,145.78429 -142.88804,151.49027 L -143.29234,152.32816 -141.2064,153.53128 -139.69468,150.91605 -116.1107,164.53128 -117.62046,167.14456 -115.53062,168.34573 -115.00913,167.58011 C -111.44475,162.34169 -104.43366,160.61625 -98.86656,163.83011 -97.300467,164.73818 -96.007308,166.05171 -94.962258,167.59378 L -94.438828,168.36527 -92.327498,167.14261 -93.833358,164.53519 -70.249368,150.918 -68.741557,153.53128 -66.628278,152.31253 -67.030618,151.47659 C -68.774678,147.85039 -68.710298,143.61844 -66.692729,140.11527 V 140.11331 L -66.688825,140.10745 C -64.662209,136.61372 -61.030231,134.4464 -57.020855,134.14456 L -56.095075,134.07425 V 131.6348 H -59.100932 V 104.40434 H -56.095075 V 101.96684 L -57.022807,101.89848 C -58.879091,101.76496 -60.66513,101.30286 -62.233747,100.40238 -67.799958,97.188899 -69.810658,90.254748 -67.057968,84.548858 L -66.655622,83.714878 -68.741557,82.505888 -70.253278,85.125028 -93.837258,71.507838 -92.327498,68.896518 -94.413427,67.687528 -94.936868,68.457058 C -98.501128,73.696658 -105.51189,75.423278 -111.07945,72.209018 -112.64545,71.301158 -113.93862,69.987308 -114.98374,68.445338 Z M -95.647807,72.191438 C -95.491858,72.598638 -95.263548,72.990978 -94.862648,73.222688 L -71.227888,86.871118 C -70.825538,87.104228 -70.369128,87.108218 -69.936868,87.039088 -71.104638,92.782798 -68.681747,98.858607 -63.401713,102.01175 L -63.34312,102.07035 -63.229839,102.13676 C -62.398855,102.61378 -61.515506,102.94422 -60.620463,103.22074 -60.877124,103.55344 -61.101002,103.92692 -61.100933,104.37309 V 131.66605 C -61.101002,132.11999 -60.875478,132.50235 -60.6107,132.83792 -63.8472,133.89486 -66.659469,136.06465 -68.423197,139.10941 L -68.427108,139.11527 C -68.427847,139.11655 -68.428318,139.11789 -68.429057,139.11917 L -68.434917,139.13089 C -70.182028,142.17345 -70.655768,145.6849 -69.958358,149.00784 -70.382998,148.94552 -70.829568,148.94341 -71.223978,149.17191 L -94.860697,162.82034 H -94.862648 C -95.249378,163.04433 -95.459428,163.42671 -95.618508,163.81645 -96.305878,163.17966 -97.033147,162.58061 -97.862648,162.09964 L -98.095078,161.96488 H -98.163437 C -103.51723,159.03787 -109.93849,159.98388 -114.30016,163.8477 -114.45589,163.44109 -114.68126,163.04819 -115.0814,162.81644 H -115.08335 L -138.72203,149.16995 C -139.12385,148.93809 -139.57782,148.93485 -140.00913,149.00394 -138.83996,143.25966 -141.26235,137.18151 -146.54234,134.02738 L -146.60093,133.96878 -146.71618,133.90238 C -147.54716,133.42534 -148.4305,133.0949 -149.32555,132.81839 -149.06888,132.48569 -148.845,132.1122 -148.84507,131.66605 V 104.37309 C -148.845,103.91915 -149.07053,103.53679 -149.33532,103.2012 -146.09883,102.14424 -143.28651,99.974419 -141.52281,96.929718 L -141.5189,96.923858 -141.51695,96.919947 C -139.76438,93.874788 -139.2894,90.358428 -139.98765,87.031278 -139.56365,87.093508 -139.11795,87.094898 -138.72398,86.867218 L -115.08531,73.220728 H -115.08335 C -114.69662,72.996748 -114.48658,72.614368 -114.3275,72.224638 -113.64037,72.861138 -112.91261,73.458738 -112.08335,73.939478 L -111.85093,74.074248 H -111.78257 C -106.42919,77.001148 -100.00925,76.054648 -95.647807,72.191438 Z"
           style="color:#000000;font-style:normal;font-variant:normal;font-weight:normal;font-stretch:normal;font-size:medium;line-height:normal;font-family:sans-serif;font-variant-ligatures:normal;font-variant-position:normal;font-variant-caps:normal;font-variant-numeric:normal;font-variant-alternates:normal;font-feature-settings:normal;text-indent:0;text-align:start;text-decoration:none;text-decoration-line:none;text-decoration-style:solid;text-decoration-color:#000000;letter-spacing:normal;word-spacing:normal;text-transform:none;writing-mode:lr-tb;direction:ltr;text-orientation:mixed;dominant-baseline:auto;baseline-shift:baseline;text-anchor:start;white-space:normal;shape-padding:0;clip-rule:nonzero;display:inline;overflow:visible;visibility:visible;opacity:1;isolation:auto;mix-blend-mode:normal;color-interpolation:sRGB;color-interpolation-filters:linearRGB;solid-color:#000000;solid-opacity:1;vector-effect:none;fill:#fffffe;fill-opacity:1;fill-rule:nonzero;stroke:none;stroke-width:2;stroke-linecap:butt;stroke-linejoin:miter;stroke-miterlimit:4;stroke-dasharray:none;stroke-dashoffset:0;stroke-opacity:1;paint-order:stroke fill markers;color-rendering:auto;image-rendering:auto;shape-rendering:auto;text-rendering:auto;enable-background:accumulate" />
        <path
           sodipodi:nodetypes="ccccccccccccccccccccccccccccccccccccccccccccc"
           inkscape:tile-y0="170.46603"
           inkscape:tile-x0="196.88682"
           inkscape:tile-h="101.6"
           inkscape:tile-w="98.722807"
           inkscape:tile-cy="221.26603"
           inkscape:tile-cx="246.24822"
           inkscape:label="Top Hex 1"
           inkscape:connector-curvature="0"
           id="path1925"
           d="M -115.56581,67.745864 -117.57649,68.906102 -116.06984,71.516654 -139.70757,85.164142 -141.21578,82.550448 -143.22647,83.711204 C -141.04552,87.493619 -141.04552,92.154221 -143.22647,95.940911 -145.41663,99.721797 -149.45323,102.05055 -153.81902,102.05185 V 104.37233 L -150.8143,104.37234 V 131.66631 L -153.81902,131.6663 V 133.98675 C -151.67075,133.98012 -149.55915,134.53955 -147.69658,135.60878 -141.84687,138.98622 -139.8454,146.47128 -143.22596,152.32793 L -141.21578,153.48817 -139.70551,150.87239 -116.06778,164.51935 -117.57649,167.13251 -115.56633,168.29274 -115.56581,168.29169 C -112.18445,162.43485 -104.7007,160.42487 -98.850305,163.80226 -96.991505,164.88005 -95.449745,166.42902 -94.380195,168.29326 L -92.369515,167.13303 -93.876145,164.52247 -70.238423,150.87498 -68.730206,153.48868 -66.71953,152.32793 C -68.900837,148.54547 -68.901035,143.88462 -66.720048,140.0977 -64.529805,136.31665 -60.492963,133.98786 -56.126984,133.98675 V 131.6663 L -59.131708,131.66631 V 104.37234 L -56.126984,104.37233 V 102.05185 C -58.275253,102.05848 -60.386844,101.49905 -62.249417,100.42982 -68.099322,97.052561 -70.10104,89.567454 -66.720567,83.710664 L -68.730736,82.550448 -70.241,85.166743 -93.878205,71.519255 -92.369515,68.90662 -94.379665,67.746393 -94.380195,67.746922 C -97.761735,73.603578 -105.24545,75.613309 -111.09571,72.235827 -112.95437,71.158317 -114.49612,69.609718 -115.56581,67.745864 Z"
           style="opacity:1;fill:none;fill-opacity:1;fill-rule:nonzero;stroke:#ff0000;stroke-width:0.025;stroke-linecap:round;stroke-linejoin:round;stroke-miterlimit:4;stroke-dasharray:none;stroke-opacity:1;paint-order:stroke fill markers" />
      </g>
      <path
         inkscape:tile-y0="76.256796"
         inkscape:tile-x0="36.417794"
         inkscape:label="Octogon"
         transform="matrix(1.1802225,0,0,1.1802168,308.82706,-158.88379)"
         d="M -116.68893,221.35497 -122.64281,223.82114 -128.59668,221.35497 -131.06286,215.40109 -128.59668,209.44722 -122.64281,206.98104 -116.68893,209.44722 -114.22276,215.40109 Z"
         inkscape:randomized="0"
         inkscape:rounded="0"
         inkscape:flatsided="true"
         sodipodi:arg2="1.1780972"
         sodipodi:arg1="0.78539816"
         sodipodi:r2="7.7791119"
         sodipodi:r1="8.4200506"
         sodipodi:cy="215.40109"
         sodipodi:cx="-122.64281"
         sodipodi:sides="8"
         id="use1976"
         style="opacity:1;fill:none;fill-opacity:1;fill-rule:nonzero;stroke:#0000ff;stroke-width:0.0211825;stroke-linecap:round;stroke-linejoin:round;stroke-miterlimit:4;stroke-dasharray:none;stroke-opacity:1;paint-order:normal"
         sodipodi:type="star" />
    </g>
    <g
       id="g1681"
       transform="translate(-59.995227,22.111608)">
      <g
         transform="translate(125.18415,62.56377)"
         id="g1190">
        <path
           inkscape:label="Black 2"
           inkscape:connector-curvature="0"
           id="path928"
           d="M -17.848723,67.746141 -19.858935,68.906281 -18.352567,71.516971 -41.990402,85.164201 -43.498318,82.550411 -45.509048,83.711061 C -43.328098,87.493471 -43.328098,92.154121 -45.509048,95.94081 -47.699208,99.721703 -51.735895,102.05077 -56.101684,102.05206 V 104.37233 H -53.097216 V 131.66627 H -56.101684 V 133.98654 C -53.953413,133.97991 -51.841631,134.53944 -49.979062,135.60867 -44.130222,138.9856 -42.128533,146.46922 -45.506982,152.32548 L -43.498318,153.4882 -41.988333,150.87233 -18.3505,164.51956 -19.858935,167.13232 -17.849239,168.29298 -17.848723,168.29194 C -14.467362,162.4351 -6.9833355,160.4249 -1.1329455,163.80229 0.72237847,164.87807 2.2615495,166.42358 3.3308665,168.28316 L 5.3415965,167.12251 3.8409055,164.52267 27.478747,150.87492 28.979426,153.47528 30.990156,152.31411 C 28.816837,148.53413 28.819068,143.8801 30.997395,140.0978 33.187637,136.31675 37.224568,133.98765 41.590547,133.98654 V 131.66627 H 38.585555 V 104.37233 H 41.590547 V 102.05206 C 39.442276,102.05869 37.330496,101.49916 35.467917,100.42994 29.618017,97.052682 27.616396,89.567331 30.996877,83.710541 L 28.986665,82.550411 27.476156,85.166791 3.8388445,71.519561 5.3477955,68.906801 3.3375755,67.746661 3.3370655,67.747181 C -0.04447353,73.603841 -7.5279325,75.613271 -13.378194,72.235791 -15.236855,71.158281 -16.779031,69.609991 -17.848723,67.746141 Z"
           style="display:inline;fill:#000000;fill-opacity:1;stroke:none;stroke-width:0.26458332px;stroke-linecap:butt;stroke-linejoin:miter;stroke-opacity:1" />
        <path
           inkscape:label="brick 2"
           inkscape:connector-curvature="0"
           id="path1024"
           transform="matrix(0.26458333,0,0,0.26458333,-186.99685,36.97221)"
           d="M 639.30078,116.31055 631.70117,120.69531 637.39648,130.5625 590.97461,157.36523 C 590.81073,159.76136 590.65967,161.91558 590.58203,162.66602 L 589.83008,169.05664 600.23047,169.80859 C 605.99537,170.18458 632.31448,170.81155 658.75781,171.1875 703.99964,171.81415 707.00625,171.81444 712.14453,169.55859 L 717.53516,167.17773 718.28711,152.89062 C 718.64293,147.28637 718.92845,132.8542 719.06836,116.81445 706.15076,138.55764 678.13661,145.94648 656.19531,133.2793 649.17046,129.20682 643.3437,123.35503 639.30078,116.31055 Z M 722.92383,118.35938 C 722.93648,121.51325 722.96226,124.53615 722.98633,127.59961 L 726.97266,120.69727 Z M 723.01367,131.58008 C 723.19385,150.24745 723.58263,165.63778 724.17578,166.67578 724.8024,168.05436 726.43264,169.43261 727.56055,169.80859 728.81376,170.18458 751.49776,170.68713 778.06641,170.8125 782.98464,170.8473 787.02662,170.86783 791.09961,170.88867 Z M 585.31445,160.63281 569.07812,170.00586 C 572.436,169.80603 574.81218,169.39502 577.17188,168.68164 580.80628,167.55372 583.93849,166.30011 584.31445,165.79883 584.50592,165.47972 584.86419,163.56686 585.31445,160.63281 Z M 543.32227,173.93555 C 541.88242,173.95705 540.45276,173.97908 539.32227,174.01562 L 534.75781,176.65039 C 543.00077,190.94613 543.00077,208.56115 534.75781,222.87305 531.9006,227.80547 528.19638,232.06609 523.91211,235.55469 523.98781,241.6408 525.07673,246.18209 527.16797,249.13867 L 529.92383,253.02344 545.8418,253.77539 C 581.3084,255.40463 679.68594,256.03089 684.82422,254.65234 694.47414,252.02051 694.85093,251.14369 696.60547,219.6875 697.35738,204.39799 697.73375,189.10867 697.23242,185.59961 696.4805,179.83473 696.10312,179.33368 692.46875,178.70703 680.65043,176.87474 604.5579,174.38316 562.24219,173.95312 L 548.05664,182.14258 Z M 743.22852,178.41211 C 721.07559,178.34749 705.28392,178.58102 705.00195,178.95703 703.99934,180.71149 701.74411,203.77112 700.99219,221.31641 700.61619,230.21443 699.98927,240.74194 699.61328,244.62695 698.86136,251.39446 698.98735,251.89682 702.37109,254.02734 705.37887,256.0325 708.63632,256.4082 725.42969,256.4082 736.08223,256.53349 760.89646,257.03351 780.57227,257.66016 829.93743,259.03133 845.95594,256.64679 854.47852,245.00586 849.69711,244.01968 845.08079,242.2901 840.8125,239.83984 819.66594,227.63154 811.83796,201.22508 822.37305,179.58008 819.58953,179.44931 816.28111,179.33433 812.29297,179.23242 L 810.60742,182.15234 805.28125,179.07812 C 795.83868,178.89619 783.73953,178.74377 767.16211,178.58203 758.70275,178.48803 750.61283,178.43365 743.22852,178.41211 Z M 521.28711,237.54297 C 513.62513,242.92398 504.3943,245.96782 494.72266,245.9707 V 253.56836 C 515.25446,252.93012 515.49772,251.409 518.89648,246.00586 519.86747,244.41696 520.66355,241.55863 521.28711,237.54297 Z M 569.77734,257.61328 C 545.30789,257.6916 520.77698,258.22415 518.64648,259.16406 510.37512,262.54784 507.49222,273.32546 509.74805,291.74805 511.00128,302.02458 510.87529,305.41004 508.49414,320.57422 505.98767,337.11691 505.73799,348.77149 508.11914,351.02734 508.74576,351.65391 520.52558,351.52899 535.56445,350.90234 563.13566,349.52376 592.58577,350.27569 603.23828,352.40625 611.3843,354.16078 615.89651,352.4065 618.15234,347.01758 622.28804,336.86633 626.42313,272.95104 623.66602,263.17578 623.16472,261.29596 621.66112,259.29034 620.5332,258.78906 618.65335,257.9118 594.2468,257.53496 569.77734,257.61328 Z M 633.31641,258.03711 630.68555,260.91992 C 626.92584,265.18092 626.04853,270.31787 627.67773,280.34375 629.6829,291.99887 629.43194,307.66593 627.05078,322.83008 625.92287,329.72288 625.17121,339.37245 625.42188,344.13477 L 625.79688,352.90625 678.55859,353.2832 731.44531,353.5332 732.19727,347.01758 C 734.32779,329.59762 735.58101,263.5514 733.70117,263.30078 729.81614,262.67417 673.04467,259.41538 656.50195,258.91406 Z M 776.01758,260.26562 C 747.58011,260.25193 742.97461,260.62132 742.97461,262.04688 742.97461,263.04947 742.09828,271.82277 741.0957,281.47266 739.96779,291.12262 738.83918,311.17466 738.33789,325.96289 L 737.58594,352.90625 793.23047,352.2793 C 836.34184,351.77802 849.50001,351.27665 851.75586,350.02344 852.05128,349.85209 852.32376,349.67519 852.5957,349.49609 V 267.32812 C 849.41684,264.36506 845.33938,262.02002 841.60547,261.41992 838.72301,260.91868 815.28671,260.4183 789.7207,260.29297 784.62943,260.27731 780.08007,260.26758 776.01758,260.26562 Z M 512.50977,353.94922 C 511.9086,353.91789 511.31396,354.06551 510.75,354.41016 510.37317,354.66139 508.60951,354.84943 506.07812,354.95898 V 357.89844 H 494.72266 V 366.66992 C 502.8421,366.64486 510.82169,368.75764 517.86133,372.79883 517.95241,372.85141 518.03832,372.90978 518.12891,372.96289 518.56942,364.41381 518.34517,360.76758 517.39258,358.67188 516.17068,355.75806 514.31325,354.0432 512.50977,353.94922 Z M 520.90234,354.53516 521.6543,358.04492 C 521.95471,359.64699 522.40872,367.1462 522.77344,376.08203 541.02007,389.96581 546.53645,415.58772 534.75977,435.99023 L 542.35742,440.375 548.06445,430.48828 581.26172,449.6543 C 586.74008,449.77498 592.01837,449.89291 598.60156,450.0332 660.26083,451.41179 668.15757,451.41042 669.91211,449.78125 671.29065,448.40263 672.41734,441.13547 674.17188,424.2168 675.92641,406.92209 678.43359,368.44649 678.43359,359.67383 678.43359,359.67383 667.15477,358.79752 653.36914,357.79492 639.58356,356.7924 604.11543,355.5381 574.53906,355.16211 Z M 836.5918,354.78711 C 825.93927,354.78711 817.04197,355.03811 816.66602,355.41406 816.41536,355.79001 801.75235,356.03906 784.20703,356.03906 766.66171,356.03906 741.09421,356.66603 727.30859,357.41797 710.13927,358.42056 699.73918,358.42027 694.09961,357.54297 689.58796,356.9164 685.70184,356.54028 685.45117,356.79102 684.19793,357.91886 679.68651,430.3567 680.0625,445.01953 680.18783,452.53898 688.33365,454.04385 710.39062,450.66016 719.12463,449.28108 734.13959,448.85495 778.93164,448.79297 L 810.61719,430.49805 816.31836,440.37695 823.91797,435.99023 C 815.67366,421.69432 815.67292,404.07839 823.91602,389.76562 832.1941,375.47504 847.44983,366.67412 863.95117,366.66992 V 363.63477 C 862.9935,362.21417 861.86555,360.88508 860.5293,359.54883 L 858.87891,357.89844 H 852.5957 V 354.78711 Z M 773.15234,452.12891 C 772.58416,452.14049 771.42893,452.15238 771.17188,452.16406 768.41479,452.41472 763.27664,453.16632 759.76758,453.79297 L 753.25195,455.17188 752.5,461.06055 C 752.44222,461.56129 752.385,462.71401 752.32812,464.15234 Z M 586.71289,452.80078 610.3457,466.44531 C 610.20549,458.76169 609.79045,455.56928 609.00391,455.04492 607.53744,454.14876 600.23886,453.41361 586.71289,452.80078 Z M 616.52344,453.54102 615.89648,457.67773 C 615.68901,459.02635 615.32385,463.5172 614.9082,469.08008 L 637.4043,482.06836 631.70117,491.94531 639.29883,496.33008 639.30078,496.32617 C 652.08072,474.19008 680.36681,466.59248 702.47852,479.35742 709.5039,483.43096 715.33065,489.28608 719.37305,496.33203 L 726.97266,491.94727 721.27734,482.08008 747.95312,466.67969 747.98828,455.42188 714.52734,455.54688 C 695.97944,455.67217 666.40308,455.17157 648.73242,454.54492 Z"
           style="fill:#ffffff;fill-opacity:1;stroke:#00ff00;stroke-width:0.096;stroke-miterlimit:4;stroke-dasharray:none;stroke-opacity:1" />
        <path
           style="color:#000000;font-style:normal;font-variant:normal;font-weight:normal;font-stretch:normal;font-size:medium;line-height:normal;font-family:sans-serif;font-variant-ligatures:normal;font-variant-position:normal;font-variant-caps:normal;font-variant-numeric:normal;font-variant-alternates:normal;font-feature-settings:normal;text-indent:0;text-align:start;text-decoration:none;text-decoration-line:none;text-decoration-style:solid;text-decoration-color:#000000;letter-spacing:normal;word-spacing:normal;text-transform:none;writing-mode:lr-tb;direction:ltr;text-orientation:mixed;dominant-baseline:auto;baseline-shift:baseline;text-anchor:start;white-space:normal;shape-padding:0;clip-rule:nonzero;display:inline;overflow:visible;visibility:visible;opacity:1;isolation:auto;mix-blend-mode:normal;color-interpolation:sRGB;color-interpolation-filters:linearRGB;solid-color:#000000;solid-opacity:1;vector-effect:none;fill:#fffffe;fill-opacity:1;fill-rule:nonzero;stroke:none;stroke-width:2;stroke-linecap:butt;stroke-linejoin:miter;stroke-miterlimit:4;stroke-dasharray:none;stroke-dashoffset:0;stroke-opacity:1;paint-order:stroke fill markers;color-rendering:auto;image-rendering:auto;shape-rendering:auto;text-rendering:auto;enable-background:accumulate"
           d="M -17.787798,67.673858 -18.594438,68.140658 -19.904987,68.896518 -18.395217,71.505888 -41.979196,85.121118 -43.487017,82.507838 -45.600298,83.726588 -45.197949,84.562528 C -43.454138,88.188728 -43.518296,92.420878 -45.535837,95.923857 L -45.539748,95.931668 C -47.566287,99.425258 -51.198447,101.59258 -55.207717,101.89456 L -56.133498,101.96489 V 104.40434 H -53.127637 V 131.6348 H -56.133498 V 134.0723 L -55.205767,134.14066 C -53.349477,134.27417 -51.563437,134.73627 -49.994827,135.63675 -44.428307,138.85068 -42.416806,145.78429 -45.170605,151.49027 L -45.574905,152.32816 -43.488967,153.53128 -41.977246,150.91605 -18.393267,164.53128 -19.903027,167.14456 -17.813186,168.34573 -17.291699,167.58011 C -13.727317,162.34169 -6.7162258,160.61625 -1.1491228,163.83011 0.41696717,164.73818 1.7101232,166.05171 2.7551752,167.59378 L 3.2786102,168.36527 5.3899402,167.14261 3.8840802,164.53519 27.468064,150.918 28.975877,153.53128 31.089157,152.31253 30.686813,151.47659 C 28.942757,147.85039 29.007135,143.61844 31.024705,140.11527 V 140.11331 L 31.02861,140.10745 C 33.055227,136.61372 36.687204,134.4464 40.69658,134.14456 L 41.62236,134.07425 V 131.6348 H 38.616503 V 104.40434 H 41.62236 V 101.96684 L 40.694628,101.89848 C 38.838343,101.76496 37.052305,101.30286 35.483688,100.40238 29.917482,97.188899 27.906773,90.254748 30.659471,84.548858 L 31.061813,83.714878 28.975877,82.505888 27.464157,85.125028 3.8801752,71.507838 5.3899402,68.896518 3.3040022,67.687528 2.7805642,68.457058 C -0.7836908,73.696658 -7.7944558,75.423278 -13.362017,72.209018 -14.928017,71.301158 -16.221187,69.987308 -17.266307,68.445338 Z M 2.0696262,72.191438 C 2.2255822,72.598638 2.4538932,72.990978 2.8547822,73.222688 L 26.489548,86.871118 C 26.8919,87.104228 27.348303,87.108218 27.780564,87.039088 26.612794,92.782798 29.035684,98.858607 34.315722,102.01175 L 34.374314,102.07035 34.487595,102.13676 C 35.318577,102.61378 36.201929,102.94422 37.096972,103.22074 36.84031,103.55344 36.616433,103.92692 36.616502,104.37309 V 131.66605 C 36.616433,132.11999 36.841956,132.50235 37.106735,132.83792 33.870235,133.89486 31.057966,136.06465 29.294235,139.10941 L 29.290329,139.11527 C 29.289591,139.11655 29.289115,139.11789 29.288377,139.11917 L 29.282516,139.13089 C 27.535412,142.17345 27.06167,145.6849 27.75908,149.00784 27.334437,148.94552 26.88787,148.94341 26.493456,149.17191 L 2.8567372,162.82034 H 2.8547822 C 2.4680542,163.04433 2.2580042,163.42671 2.0989232,163.81645 1.4115592,163.17966 0.68428617,162.58061 -0.1452168,162.09964 L -0.3776378,161.96488 H -0.4459978 C -5.7997968,159.03787 -12.221057,159.98388 -16.582719,163.8477 -16.738458,163.44109 -16.963827,163.04819 -17.363966,162.81644 H -17.365916 L -41.004595,149.16995 C -41.406418,148.93809 -41.860388,148.93485 -42.291699,149.00394 -41.122526,143.25966 -43.544916,137.18151 -48.824907,134.02738 L -48.883499,133.96878 -48.998738,133.90238 C -49.829717,133.42534 -50.713065,133.0949 -51.608107,132.81839 -51.351447,132.48569 -51.127568,132.1122 -51.127637,131.66605 V 104.37309 C -51.127568,103.91915 -51.353096,103.53679 -51.617877,103.2012 -48.381396,102.14424 -45.569077,99.974419 -43.805377,96.929718 L -43.801467,96.923858 -43.799517,96.919947 C -42.046945,93.874788 -41.571969,90.358428 -42.270217,87.031278 -41.846217,87.093508 -41.400519,87.094898 -41.006548,86.867218 L -17.367878,73.220728 H -17.365916 C -16.979186,72.996748 -16.769147,72.614368 -16.610054,72.224638 -15.922938,72.861138 -15.195177,73.458738 -14.365918,73.939478 L -14.133497,74.074248 H -14.065137 C -8.7117555,77.001148 -2.2918078,76.054648 2.0696262,72.191438 Z"
           id="path1267"
           inkscape:connector-curvature="0"
           inkscape:label="White 2" />
        <path
           sodipodi:nodetypes="ccccccccccccccccccccccccccccccccccccccccccccc"
           inkscape:tile-y0="170.46603"
           inkscape:tile-x0="196.88682"
           inkscape:label="Top Hex 2"
           inkscape:connector-curvature="0"
           id="use4934"
           d="M -17.848374,67.745864 -19.859054,68.906102 -18.352404,71.516654 -41.990134,85.164142 -43.498344,82.550448 -45.509034,83.711204 C -43.328084,87.493619 -43.328084,92.154221 -45.509034,95.940911 -47.699194,99.721797 -51.735794,102.05055 -56.101584,102.05185 V 104.37233 L -53.096864,104.37234 V 131.66631 L -56.101584,131.6663 V 133.98675 C -53.953314,133.98012 -51.841714,134.53955 -49.979144,135.60878 -44.129434,138.98622 -42.127964,146.47128 -45.508524,152.32793 L -43.498344,153.48817 -41.988074,150.87239 -18.350344,164.51935 -19.859054,167.13251 -17.848894,168.29274 -17.848374,168.29169 C -14.467014,162.43485 -6.983264,160.42487 -1.132874,163.80226 0.725926,164.88005 2.267686,166.42902 3.337236,168.29326 L 5.347916,167.13303 3.841286,164.52247 27.479008,150.87498 28.987225,153.48868 30.997901,152.32793 C 28.816594,148.54547 28.816396,143.88462 30.997383,140.0977 33.187626,136.31665 37.224468,133.98786 41.590447,133.98675 V 131.6663 L 38.585723,131.66631 V 104.37234 L 41.590447,104.37233 V 102.05185 C 39.442178,102.05848 37.330587,101.49905 35.468014,100.42982 29.618109,97.052561 27.616391,89.567454 30.996864,83.710664 L 28.986695,82.550448 27.476431,85.166743 3.839226,71.519255 5.347916,68.90662 3.337766,67.746393 3.337236,67.746922 C -0.044304,73.603578 -7.528014,75.613309 -13.378274,72.235827 -15.236934,71.158317 -16.778684,69.609718 -17.848374,67.745864 Z"
           style="opacity:1;fill:none;fill-opacity:1;fill-rule:nonzero;stroke:#ff0000;stroke-width:0.025;stroke-linecap:round;stroke-linejoin:round;stroke-miterlimit:4;stroke-dasharray:none;stroke-opacity:1;paint-order:stroke fill markers" />
      </g>
      <path
         inkscape:tile-y0="76.256796"
         inkscape:tile-x0="36.417794"
         inkscape:label="Octogon"
         transform="matrix(1.1802225,0,0,1.1802168,262.75348,-43.95789)"
         d="M -116.68893,221.35497 -122.64281,223.82114 -128.59668,221.35497 -131.06286,215.40109 -128.59668,209.44722 -122.64281,206.98104 -116.68893,209.44722 -114.22276,215.40109 Z"
         inkscape:randomized="0"
         inkscape:rounded="0"
         inkscape:flatsided="true"
         sodipodi:arg2="1.1780972"
         sodipodi:arg1="0.78539816"
         sodipodi:r2="7.7791119"
         sodipodi:r1="8.4200506"
         sodipodi:cy="215.40109"
         sodipodi:cx="-122.64281"
         sodipodi:sides="8"
         id="use1978"
         style="opacity:1;fill:none;fill-opacity:1;fill-rule:nonzero;stroke:#0000ff;stroke-width:0.0211825;stroke-linecap:round;stroke-linejoin:round;stroke-miterlimit:4;stroke-dasharray:none;stroke-opacity:1;paint-order:normal"
         sodipodi:type="star" />
    </g>
    <g
       id="g1691"
       transform="translate(-59.895625,22.111609)">
      <g
         transform="translate(125.18415,62.56377)"
         id="g1184">
        <path
           style="display:inline;fill:#000000;fill-opacity:1;stroke:none;stroke-width:0.26458332px;stroke-linecap:butt;stroke-linejoin:miter;stroke-opacity:1"
           d="M 79.868706,67.746141 77.858497,68.906281 79.364865,71.516971 55.727024,85.164201 54.219116,82.550411 52.208386,83.711061 C 54.389336,87.493471 54.389336,92.154121 52.208386,95.94081 50.018226,99.721703 45.981534,102.05077 41.615745,102.05206 V 104.37233 H 44.620216 V 131.66627 H 41.615745 V 133.98654 C 43.764016,133.97991 45.875796,134.53944 47.738365,135.60867 53.587204,138.9856 55.588896,146.46922 52.210445,152.32548 L 54.219116,153.4882 55.729096,150.87233 79.366926,164.51956 77.858497,167.13232 79.868195,168.29298 79.868706,168.29194 C 83.250065,162.4351 90.734095,160.4249 96.584485,163.80229 98.439805,164.87807 99.978986,166.42358 101.0483,168.28316 L 103.05903,167.12251 101.55835,164.52267 125.19618,150.87492 126.69687,153.47528 128.7076,152.31411 C 126.53426,148.53413 126.5365,143.8801 128.71482,140.0978 130.90507,136.31675 134.942,133.98765 139.30797,133.98654 V 131.66627 H 136.30299 V 104.37233 H 139.30797 V 102.05206 C 137.15971,102.05869 135.04794,101.49916 133.18535,100.42994 127.33544,97.052682 125.33384,89.567331 128.71432,83.710541 L 126.70409,82.550411 125.19359,85.166791 101.55628,71.519561 103.06523,68.906801 101.05502,67.746661 101.0545,67.747181 C 97.672955,73.603841 90.189496,75.613271 84.339235,72.235791 82.480574,71.158281 80.938395,69.609991 79.868706,67.746141 Z"
           id="path926"
           inkscape:connector-curvature="0"
           inkscape:label="Black 3" />
        <path
           inkscape:label="brick 3"
           inkscape:connector-curvature="0"
           id="path1113"
           transform="matrix(0.26458333,0,0,0.26458333,-186.99685,36.97221)"
           d="M 1008.627,116.31055 1001.0273,120.69531 1006.7227,130.5625 983.08398,144.21094 C 985.21554,144.22652 984.77544,144.56484 982.55078,145.35938 976.1593,147.48986 972.27344,151.87635 972.27344,156.63867 972.27344,162.40355 974.40367,182.7072 976.1582,193.98633 977.1608,200.87913 977.16051,207.52032 976.2832,218.54883 975.53127,226.9455 975.1553,234.8405 975.53125,236.09375 976.1579,238.34956 978.41445,238.47558 1025.9121,238.85156 1064.1359,239.10218 1077.7957,239.60355 1085.0645,241.10742 1090.704,242.23535 1099.2276,242.86199 1106.3711,242.61133 L 1118.2754,242.23633 1119.1523,227.82422 C 1120.6562,201.63156 1122.0352,172.17954 1122.0352,161.65234 1122.0352,149.87193 1120.4069,147.11494 1114.1406,148.74414 1109.0024,149.99739 1037.3164,148.24347 1012.377,146.23828 L 990.44531,144.48242 1007.9902,144.10742 C 1017.6401,143.98209 1041.5784,144.23306 1061.1289,144.73438 1099.0024,145.83746 1099.4892,145.84209 1105.4707,139.16016 L 1090.5957,130.57227 1096.2988,120.69727 1088.7012,116.3125 1088.6992,116.31445 C 1075.9186,138.44985 1047.6327,146.04458 1025.5215,133.2793 1018.4966,129.20682 1012.6699,123.35503 1008.627,116.31055 Z M 1113.0605,143.54297 C 1113.3138,144.54379 1113.6325,145.25216 1114.0156,145.61133 1114.0936,145.68932 1115.2056,145.69024 1116.7227,145.6582 Z M 1125.3418,150.63281 1126.0469,176.69141 C 1126.5482,196.11659 1126.2975,207.26962 1125.2949,213.28516 1122.0365,231.58242 1123.791,241.35811 1130.5586,244.11523 1132.0625,244.74184 1159.007,245.74416 1190.3379,246.49609 1211.326,246.92552 1224.5451,247.13302 1233.2773,247.12891 V 245.9707 C 1225.1579,245.99576 1217.1783,243.88103 1210.1387,239.83984 1188.0288,227.0754 1180.4617,198.78434 1193.2383,176.64844 L 1185.6406,172.26367 1179.9336,182.15234 Z M 968.05859,152.88477 917.38281,182.14258 911.68164,172.26367 904.08203,176.65039 C 912.32499,190.94613 912.32499,208.56115 904.08203,222.87305 900.16529,229.63455 894.67433,235.14805 888.24023,239.10156 H 900.58789 L 969.89258,239.22852 971.64648,234.8418 C 973.27565,230.95678 973.40136,225.81797 972.27344,198.74805 971.64683,181.32802 970.64357,164.15978 970.26758,160.52539 969.82731,156.95929 969.38447,154.55473 968.05859,152.88477 Z M 897.69531,240.53125 C 896.45358,240.4659 894.80721,240.65345 892.31641,240.98242 888.31454,241.47496 886.06388,241.72151 883.41602,241.68555 877.43618,244.44814 870.85424,245.96868 864.04883,245.9707 V 254.74023 H 875.4043 V 357.89844 H 864.04883 V 363.22656 C 874.29847,363.12533 882.51475,363.02312 885.29883,362.92188 905.22529,362.29527 905.85156,361.16675 905.85156,323.06836 905.85156,308.90677 906.47853,289.23099 907.23047,279.20508 908.98504,258.02536 907.73202,249.00254 902.59375,243.48828 900.71391,241.45178 899.76487,240.64017 897.69531,240.53125 Z M 988.28711,241.11133 C 973.86314,241.09175 958.61403,241.16944 943.19922,241.35742 L 913.37109,241.60938 911.74219,245.11719 C 910.36368,247.62366 909.98857,256.14585 909.86328,279.83203 909.73795,297.00137 909.23532,317.93178 908.85938,326.20312 908.3581,335.85305 908.6091,343.12017 909.48633,346.50391 911.11557,352.51944 917.13193,358.40984 924.27539,360.79102 928.91234,362.42022 943.70074,362.92186 959.74219,362.16992 964.25377,361.91926 993.57927,362.29527 1024.9102,362.92188 1056.2411,363.54848 1084.4392,363.80011 1087.5723,363.29883 1098.9768,361.5443 1100.3555,359.16281 1102.6113,339.98828 1104.6165,322.19234 1104.2402,274.69508 1101.9844,260.4082 1100.8565,253.76602 1100.1048,247.49869 1100.3555,246.49609 1100.6061,245.24284 1099.4775,244.86657 1096.0938,245.11719 1093.4619,245.36785 1085.3159,244.74121 1077.9219,243.61328 1067.3947,242.10939 1031.559,241.17007 988.28711,241.11133 Z M 1125.1855,247.28516 C 1116.8025,247.23228 1112.6677,247.65604 1110.5059,248.50195 1105.3676,250.63247 1104.3643,255.7707 1106.2441,268.92969 1107.6228,279.08089 1107.3731,302.89179 1105.1172,338.73438 1104.4905,350.38946 1103.8633,360.6657 1103.8633,361.54297 1103.8633,362.42023 1104.9925,364.04919 1106.3711,365.42773 1108.7522,367.68358 1108.2492,367.68491 1085.9414,367.18359 1073.2837,366.80764 1051.3539,367.30795 1036.8164,368.31055 1022.4041,369.31314 1001.4735,369.94011 990.57031,369.68945 979.5418,369.43883 969.26559,369.56347 967.76172,369.93945 964.62864,370.81672 962.37301,374.07626 960.86914,380.0918 959.99191,383.85152 959.99255,383.85183 959.86719,379.21484 959.7419,372.82336 958.73952,370.81802 954.47852,368.6875 951.72139,367.30896 948.96316,366.93195 944.32617,367.55859 941.03807,368.0283 911.43515,368.48371 877.12695,368.54102 880.62163,369.56081 884.00363,370.97109 887.1875,372.79883 909.29664,385.56396 916.8609,413.85486 904.08398,435.99023 L 911.68164,440.375 917.39062,430.48828 947.11133,447.64648 C 951.12586,447.42036 953.79642,447.16919 954.22656,446.88867 955.10379,446.26206 955.85578,435.98673 956.48242,418.44141 956.85837,403.27726 957.86164,389.49024 958.48828,387.98633 959.36555,385.98118 959.61651,394.00189 959.11523,413.67773 958.61396,433.6042 958.86459,443.0049 959.86719,444.88477 L 961.24609,447.51562 1022.6543,446.51367 C 1069.2747,445.88703 1088.1974,446.01241 1100.9805,447.26562 1114.5155,448.51888 1119.0271,448.51888 1123.6641,447.26562 1126.9225,446.38836 1130.0573,445.25909 1130.5586,444.75781 1131.0599,444.2565 1131.8112,432.60201 1132.3125,418.81641 1133.0645,393.25036 1131.9365,380.21702 1128.5527,373.32422 L 1126.7988,369.81445 1138.2031,368.43555 C 1145.3466,367.55828 1153.8686,367.30894 1160.8867,367.93555 L 1172.166,368.9375 1163.8945,369.93945 C 1159.2575,370.44073 1153.2412,370.56768 1150.6094,370.06641 1143.8419,368.93848 1135.6953,372.19537 1134.1914,376.70703 1133.5648,378.71222 1133.5648,381.97205 1134.1914,384.47852 1134.8181,386.85969 1135.445,401.39607 1135.5703,416.68555 1135.6956,431.97506 1136.0714,444.75911 1136.4473,445.00977 1136.7522,445.31464 1143.8443,445.6956 1153.1562,445.96484 L 1179.9434,430.49805 1185.6426,440.37695 1193.2422,435.99023 C 1184.9979,421.69432 1184.9971,404.07839 1193.2402,389.76562 1197.9945,381.55824 1205.0581,375.1745 1213.3301,371.21484 1212.1316,371.12391 1210.8152,371.03913 1209.7617,370.94336 1201.4904,370.06609 1190.8388,369.43978 1185.9512,369.31445 1177.4292,369.18912 1177.3038,369.06281 1182.9434,368.18555 1194.3479,366.30569 1193.9717,366.80728 1196.6035,343.12109 1200.1126,309.65965 1201.7411,252.63702 1199.1094,251.00781 1197.7308,250.13055 1162.8922,248.12661 1135.0703,247.5 1131.2479,247.37467 1127.9799,247.30278 1125.1855,247.28516 Z M 1216.125,250.58203 C 1207.4588,250.52574 1205.1883,250.89815 1204.875,251.75977 1204.6243,252.76236 1203.3717,274.69501 1202.3691,300.51172 1201.2412,326.32839 1199.9873,351.76765 1199.6113,357.03125 1198.8594,365.55325 1199.11,366.68133 1201.1152,367.55859 1202.1117,367.95718 1209.5602,368.35235 1219.8262,368.69727 1224.1308,367.38584 1228.6507,366.6711 1233.2773,366.66992 V 357.89844 H 1221.9219 V 254.74023 H 1233.2773 V 250.96484 C 1226.2596,250.76732 1220.0715,250.60767 1216.125,250.58203 Z M 1148.3789,448.72266 C 1137.7684,448.86809 1125.3285,448.97562 1111.7598,449.01953 1074.0372,449.27019 1040.7008,449.77212 1037.8184,450.27344 1029.6723,451.65198 1028.1676,454.28371 1027.541,467.69336 1027.4204,470.70946 1027.4766,474.50845 1027.6484,478.25391 1041.139,471.36908 1057.7218,471.22746 1071.8047,479.35742 1078.8301,483.43096 1084.6568,489.28608 1088.6992,496.33203 L 1096.2988,491.94727 1090.6035,482.08008 Z M 1022.0273,454.2832 960.31055,455.26758 1006.7305,482.06836 1001.0273,491.94531 1008.625,496.33008 1008.627,496.32617 C 1012.803,489.09283 1018.6403,483.42332 1025.3711,479.49805 1024.9066,471.8489 1024.0618,464.48156 1022.7793,458.04297 Z"
           style="fill:#ffffff;fill-opacity:1;stroke:#00ff00;stroke-width:0.096;stroke-miterlimit:4;stroke-dasharray:none;stroke-opacity:1" />
        <path
           inkscape:label="White 3"
           inkscape:connector-curvature="0"
           id="path1265"
           d="M 79.929635,67.673856 79.122994,68.140656 77.812443,68.896516 79.322214,71.505886 55.738236,85.121116 54.230415,82.507836 52.117134,83.726586 52.519483,84.562526 C 54.263294,88.188726 54.199136,92.420876 52.181595,95.923855 L 52.177684,95.931666 C 50.151145,99.425256 46.518985,101.59258 42.509714,101.89456 L 41.583934,101.96489 V 104.40434 H 44.589795 V 131.6348 H 41.583934 V 134.0723 L 42.511663,134.14066 C 44.367955,134.27417 46.153995,134.73627 47.722603,135.63675 53.289124,138.85068 55.300624,145.78429 52.546826,151.49027 L 52.142524,152.32816 54.228464,153.53128 55.740186,150.91605 79.324164,164.53128 77.814404,167.14456 79.904246,168.34573 80.425736,167.58011 C 83.990116,162.34169 91.001206,160.61625 96.568309,163.83011 98.134399,164.73818 99.427555,166.05171 100.47261,167.59378 L 100.99604,168.36527 103.10737,167.14261 101.60151,164.53519 125.1855,150.918 126.69331,153.53128 128.80659,152.31253 128.40424,151.47659 C 126.66019,147.85039 126.72456,143.61844 128.74214,140.11527 V 140.11331 L 128.74603,140.10745 C 130.77266,136.61372 134.40462,134.4464 138.41401,134.14456 L 139.33978,134.07425 V 131.6348 H 136.33393 V 104.40434 H 139.33978 V 101.96684 L 138.41205,101.89848 C 136.55576,101.76496 134.76974,101.30286 133.20111,100.40238 127.63491,97.188897 125.62421,90.254746 128.37691,84.548856 L 128.77926,83.714876 126.69331,82.505886 125.18159,85.125026 101.59761,71.507836 103.10737,68.896516 101.02143,67.687526 100.498,68.457056 C 96.933741,73.696656 89.922977,75.423276 84.355416,72.209016 82.789416,71.301156 81.496245,69.987306 80.451126,68.445336 Z M 99.787058,72.191436 C 99.943015,72.598636 100.17132,72.990976 100.57221,73.222686 L 124.20697,86.871116 C 124.60932,87.104226 125.06573,87.108216 125.498,87.039086 124.33024,92.782796 126.75311,98.858605 132.03316,102.01175 L 132.09174,102.07035 132.20503,102.13676 C 133.03601,102.61378 133.91935,102.94422 134.8144,103.22074 134.55773,103.55344 134.33387,103.92692 134.33392,104.37309 V 131.66605 C 134.33387,132.11999 134.5594,132.50235 134.82417,132.83792 131.58768,133.89486 128.7754,136.06465 127.01166,139.10941 L 127.00777,139.11527 C 127.00703,139.11655 127.00655,139.11789 127.00581,139.11917 L 126.99994,139.13089 C 125.25284,142.17345 124.7791,145.6849 125.47652,149.00784 125.05186,148.94552 124.6053,148.94341 124.21088,149.17191 L 100.57417,162.82034 H 100.57221 C 100.18549,163.04433 99.975436,163.42671 99.816355,163.81645 99.128991,163.17966 98.401718,162.58061 97.572215,162.09964 L 97.339792,161.96488 H 97.271434 C 91.917636,159.03787 85.496375,159.98388 81.134716,163.8477 80.978975,163.44109 80.753606,163.04819 80.353465,162.81644 H 80.351516 L 56.712836,149.16995 C 56.311016,148.93809 55.857044,148.93485 55.425736,149.00394 56.594906,143.25966 54.172516,137.18151 48.892525,134.02738 L 48.833936,133.96878 48.718693,133.90238 C 47.887715,133.42534 47.004365,133.0949 46.109326,132.81839 46.365985,132.48569 46.589864,132.1122 46.589795,131.66605 V 104.37309 C 46.589864,103.91915 46.364333,103.53679 46.099555,103.2012 49.336036,102.14424 52.148355,99.974417 53.912055,96.929716 L 53.915965,96.923856 53.917915,96.919945 C 55.670487,93.874786 56.145466,90.358426 55.447214,87.031276 55.871214,87.093506 56.316916,87.094896 56.710886,86.867216 L 80.349554,73.220726 H 80.351516 C 80.738247,72.996746 80.948285,72.614366 81.107375,72.224636 81.794494,72.861136 82.522255,73.458736 83.351515,73.939476 L 83.583935,74.074246 H 83.652295 C 89.005677,77.001146 95.425624,76.054646 99.787058,72.191436 Z"
           style="color:#000000;font-style:normal;font-variant:normal;font-weight:normal;font-stretch:normal;font-size:medium;line-height:normal;font-family:sans-serif;font-variant-ligatures:normal;font-variant-position:normal;font-variant-caps:normal;font-variant-numeric:normal;font-variant-alternates:normal;font-feature-settings:normal;text-indent:0;text-align:start;text-decoration:none;text-decoration-line:none;text-decoration-style:solid;text-decoration-color:#000000;letter-spacing:normal;word-spacing:normal;text-transform:none;writing-mode:lr-tb;direction:ltr;text-orientation:mixed;dominant-baseline:auto;baseline-shift:baseline;text-anchor:start;white-space:normal;shape-padding:0;clip-rule:nonzero;display:inline;overflow:visible;visibility:visible;opacity:1;isolation:auto;mix-blend-mode:normal;color-interpolation:sRGB;color-interpolation-filters:linearRGB;solid-color:#000000;solid-opacity:1;vector-effect:none;fill:#fffffe;fill-opacity:1;fill-rule:nonzero;stroke:none;stroke-width:2;stroke-linecap:butt;stroke-linejoin:miter;stroke-miterlimit:4;stroke-dasharray:none;stroke-dashoffset:0;stroke-opacity:1;paint-order:stroke fill markers;color-rendering:auto;image-rendering:auto;shape-rendering:auto;text-rendering:auto;enable-background:accumulate" />
        <path
           sodipodi:nodetypes="ccccccccccccccccccccccccccccccccccccccccccccc"
           inkscape:tile-y0="170.46603"
           inkscape:tile-x0="196.88682"
           inkscape:label="Top Hex 3"
           inkscape:connector-curvature="0"
           id="use4940"
           d="M 79.869055,67.745864 77.858375,68.906102 79.365025,71.516654 55.727295,85.164142 54.219085,82.550448 52.208395,83.711204 C 54.389345,87.493619 54.389345,92.154221 52.208395,95.940911 50.018235,99.721797 45.981635,102.05055 41.615845,102.05185 V 104.37233 L 44.620565,104.37234 V 131.66631 L 41.615845,131.6663 V 133.98675 C 43.764115,133.98012 45.875715,134.53955 47.738285,135.60878 53.587995,138.98622 55.589465,146.47128 52.208905,152.32793 L 54.219085,153.48817 55.729355,150.87239 79.367085,164.51935 77.858375,167.13251 79.868535,168.29274 79.869055,168.29169 C 83.250415,162.43485 90.734165,160.42487 96.584555,163.80226 98.443355,164.88005 99.985115,166.42902 101.05466,168.29326 L 103.06534,167.13303 101.55871,164.52247 125.19643,150.87498 126.70465,153.48868 128.71532,152.32793 C 126.53402,148.54547 126.53382,143.88462 128.71481,140.0977 130.90505,136.31665 134.94189,133.98786 139.30787,133.98675 V 131.6663 L 136.30315,131.66631 V 104.37234 L 139.30787,104.37233 V 102.05185 C 137.1596,102.05848 135.04801,101.49905 133.18544,100.42982 127.33553,97.052561 125.33381,89.567454 128.71429,83.710664 L 126.70412,82.550448 125.19385,85.166743 101.55665,71.519255 103.06534,68.90662 101.05519,67.746393 101.05466,67.746922 C 97.673125,73.603578 90.189415,75.613309 84.339155,72.235827 82.480495,71.158317 80.938745,69.609718 79.869055,67.745864 Z"
           style="opacity:1;fill:none;fill-opacity:1;fill-rule:nonzero;stroke:#ff0000;stroke-width:0.025;stroke-linecap:round;stroke-linejoin:round;stroke-miterlimit:4;stroke-dasharray:none;stroke-opacity:1;paint-order:stroke fill markers" />
      </g>
      <path
         inkscape:tile-y0="76.256796"
         inkscape:tile-x0="36.417794"
         inkscape:label="Octogon"
         transform="matrix(1.1802225,0,0,1.1802168,360.47091,-43.95789)"
         d="M -116.68893,221.35497 -122.64281,223.82114 -128.59668,221.35497 -131.06286,215.40109 -128.59668,209.44722 -122.64281,206.98104 -116.68893,209.44722 -114.22276,215.40109 Z"
         inkscape:randomized="0"
         inkscape:rounded="0"
         inkscape:flatsided="true"
         sodipodi:arg2="1.1780972"
         sodipodi:arg1="0.78539816"
         sodipodi:r2="7.7791119"
         sodipodi:r1="8.4200506"
         sodipodi:cy="215.40109"
         sodipodi:cx="-122.64281"
         sodipodi:sides="8"
         id="use1982"
         style="opacity:1;fill:none;fill-opacity:1;fill-rule:nonzero;stroke:#0000ff;stroke-width:0.0211825;stroke-linecap:round;stroke-linejoin:round;stroke-miterlimit:4;stroke-dasharray:none;stroke-opacity:1;paint-order:normal"
         sodipodi:type="star" />
    </g>
  </g>
</svg>
