<?xml version="1.0" encoding="UTF-8" standalone="no"?>
<!-- Created with Inkscape (http://www.inkscape.org/) -->

<svg
   xmlns:dc="http://purl.org/dc/elements/1.1/"
   xmlns:cc="http://creativecommons.org/ns#"
   xmlns:rdf="http://www.w3.org/1999/02/22-rdf-syntax-ns#"
   xmlns:svg="http://www.w3.org/2000/svg"
   xmlns="http://www.w3.org/2000/svg"
   xmlns:sodipodi="http://sodipodi.sourceforge.net/DTD/sodipodi-0.dtd"
   xmlns:inkscape="http://www.inkscape.org/namespaces/inkscape"
   width="97.817024mm"
   height="100.69142mm"
   viewBox="0 0 97.817024 100.69142"
   version="1.1"
   id="svg980"
   inkscape:version="0.92.4 (5da689c313, 2019-01-14)"
   sodipodi:docname="Desert.svg">
  <defs
     id="defs974" />
  <sodipodi:namedview
     id="base"
     pagecolor="#ffffff"
     bordercolor="#666666"
     borderopacity="1.0"
     inkscape:pageopacity="0.0"
     inkscape:pageshadow="2"
     inkscape:zoom="1.4"
     inkscape:cx="167.41526"
     inkscape:cy="204.10766"
     inkscape:document-units="mm"
     inkscape:current-layer="layer1"
     showgrid="false"
     inkscape:window-width="1920"
     inkscape:window-height="1017"
     inkscape:window-x="-8"
     inkscape:window-y="-8"
     inkscape:window-maximized="1"
     fit-margin-top="0"
     fit-margin-left="0"
     fit-margin-right="0"
     fit-margin-bottom="0" />
  <metadata
     id="metadata977">
    <rdf:RDF>
      <cc:Work
         rdf:about="">
        <dc:format>image/svg+xml</dc:format>
        <dc:type
           rdf:resource="http://purl.org/dc/dcmitype/StillImage" />
        <dc:title></dc:title>
      </cc:Work>
    </rdf:RDF>
  </metadata>
  <g
     inkscape:label="Layer 1"
     inkscape:groupmode="layer"
     id="layer1"
     transform="translate(-52.91809,-24.02631)">
    <g
       transform="translate(206.81205,-167.91741)"
       id="g2284"
       inkscape:label="Desert">
      <g
         id="g1264"
         transform="matrix(0.1798614,0,0,0.21488232,-149.8084,71.737352)"
         style="stroke-width:1.3458389">
        <path
           id="path1240"
           d="M 226.5,719.36 A 24.5,24.5 0 0 0 203.658,735.075 24.5,24.5 0 0 0 192.5,732.3602 24.5,24.5 0 0 0 174,740.8211 24.5,24.5 0 0 0 161.5,737.3602 24.5,24.5 0 0 0 138.314,754.0142 24.5,24.5 0 0 0 125.5,750.3599 24.5,24.5 0 0 0 109.551,756.3013 24.5,24.5 0 0 0 92.5,749.3599 24.5,24.5 0 0 0 71.723,760.9339 24.5,24.5 0 0 0 57.5,756.3597 24.5,24.5 0 0 0 34.084,773.6547 24.5,24.5 0 0 0 30.5,773.35978 24.5,24.5 0 0 0 6,797.85978 24.5,24.5 0 0 0 30.5,822.35978 24.5,24.5 0 0 0 33,822.20548 V 848.35948 H 458 V 822.41648 A 24.5,24.5 0 0 0 473,799.85948 24.5,24.5 0 0 0 448.5,775.35948 24.5,24.5 0 0 0 435.955,778.84778 24.5,24.5 0 0 0 412.5,761.35978 24.5,24.5 0 0 0 392.512,771.71878 24.5,24.5 0 0 0 388.5003,771.3594 24.5,24.5 0 0 0 374.7033,775.6446 24.5,24.5 0 0 0 353.5003,763.3596 24.5,24.5 0 0 0 339.9863,767.4416 24.5,24.5 0 0 0 319.5003,756.3596 24.5,24.5 0 0 0 306.6763,760.008 24.5,24.5 0 0 0 283.5003,743.36 24.5,24.5 0 0 0 273.6077,745.4791 24.5,24.5 0 0 0 252.5007,733.3601 24.5,24.5 0 0 0 248.7468,733.66674 24.5,24.5 0 0 0 226.5008,719.35974 Z"
           inkscape:connector-curvature="0"
           style="fill:#c8c8c8;fill-opacity:1;stroke:#00ff00;stroke-width:0.12920056;stroke-miterlimit:4;stroke-dasharray:none;stroke-opacity:1" />
        <path
           id="path1248"
           d="M 119,832.36 256,774.36 434,823.36 425,904.36 134,918.36 Z"
           inkscape:connector-curvature="0"
           style="fill:#404040;fill-opacity:1;fill-rule:evenodd;stroke:#00ff00;stroke-width:0.12920056;stroke-miterlimit:4;stroke-dasharray:none;stroke-opacity:1" />
        <path
           style="fill:#404040;fill-opacity:1;fill-rule:evenodd;stroke:#00ff00;stroke-width:0.096;stroke-miterlimit:4;stroke-dasharray:none;stroke-opacity:1"
           d="M 447.82031,770.85352 338.37305,820.39453 337.01367,899.98633 431.89258,905.57812 441.24414,900.17969 444.79883,906.33984 452.5918,906.79883 454.54492,905.67188 C 446.30061,891.37596 446.29987,873.76003 454.54297,859.44727 460.37856,849.3732 469.68812,842.04362 480.45117,838.58398 V 784.33594 Z"
           transform="matrix(1.4710401,0,0,1.2312941,-206.76173,-161.78689)"
           id="path1250"
           inkscape:connector-curvature="0" />
        <path
           id="path1252"
           d="M 256,222 156.236,264.236 154.109,320.121 C 155.9624,313.6362 169.581,297.253 254.999,282 282.999,277 243.999,257 246.999,242 249.999,227 255.999,222 255.999,222 Z M 154.11,320.121 C 153.58563,321.9557 154.00062,322.9999 154.00062,322.9999 Z"
           transform="translate(0,552.36)"
           inkscape:connector-curvature="0"
           style="fill:#000000;fill-opacity:1;fill-rule:evenodd;stroke:#00ff00;stroke-width:0.12920056;stroke-miterlimit:4;stroke-dasharray:none;stroke-opacity:1" />
        <path
           id="path1254"
           d="M 452,235 315.58,286.688 375,368 C 375,368 438,321 436,308 434,295 421,287 427,268 433,249 452,235 452,235 Z"
           transform="translate(0,552.36)"
           inkscape:connector-curvature="0"
           style="fill:#000000;fill-opacity:1;fill-rule:evenodd;stroke:#00ff00;stroke-width:0.12920056;stroke-miterlimit:4;stroke-dasharray:none;stroke-opacity:1" />
        <path
           style="fill:#808080;fill-opacity:1;fill-rule:evenodd;stroke:#00ff00;stroke-width:0.096;stroke-miterlimit:4;stroke-dasharray:none;stroke-opacity:1"
           d="M 207.17383,770.85352 140.55469,800.20117 V 838.88477 C 143.29538,839.83023 145.95605,841.02569 148.49023,842.48047 170.59937,855.2456 178.16364,883.5365 165.38672,905.67188 L 172.98438,910.05664 178.69141,900.16992 268.03125,951.75 262.33008,961.625 269.92578,966.01172 269.92773,966.00781 C 282.70768,943.87172 310.99376,936.27412 333.10547,949.03906 340.13085,953.1126 345.95761,958.96773 350,966.01367 L 357.59961,961.62695 351.9043,951.76172 441.24414,900.17969 446.94531,910.05859 454.54492,905.67188 C 446.30061,891.37596 446.29987,873.76003 454.54297,859.44727 460.37856,849.3732 469.68812,842.04362 480.45117,838.58398 V 834.38477 L 207.17383,770.85938 Z"
           transform="matrix(1.4710401,0,0,1.2312941,-206.76173,-161.78689)"
           id="path1256"
           inkscape:connector-curvature="0" />
        <path
           style="fill:#000000;fill-opacity:1;fill-rule:evenodd;stroke:#00ff00;stroke-width:0.096;stroke-miterlimit:4;stroke-dasharray:none;stroke-opacity:1"
           d="M 207.17383,770.85156 C 207.17383,770.85156 207.16797,770.85546 207.16797,770.85547 L 207.17383,770.85352 Z M 207.16797,770.85547 140.55469,800.20117 V 838.88477 C 143.29538,839.83023 145.95605,841.02569 148.49023,842.48047 153.24983,845.22851 157.32994,848.69919 160.68359,852.66992 163.84867,846.43518 165.94934,841.71211 166.42578,839.93164 170.4063,825.05948 170.466,809.02319 176.58398,799.27734 182.69981,789.53493 207.15073,770.86863 207.16797,770.85547 Z"
           transform="matrix(1.4710401,0,0,1.2312941,-206.76173,-161.78689)"
           id="path1258"
           inkscape:connector-curvature="0" />
      </g>
      <path
         style="color:#000000;font-style:normal;font-variant:normal;font-weight:normal;font-stretch:normal;font-size:medium;line-height:normal;font-family:sans-serif;font-variant-ligatures:normal;font-variant-position:normal;font-variant-caps:normal;font-variant-numeric:normal;font-variant-alternates:normal;font-feature-settings:normal;text-indent:0;text-align:start;text-decoration:none;text-decoration-line:none;text-decoration-style:solid;text-decoration-color:#000000;letter-spacing:normal;word-spacing:normal;text-transform:none;writing-mode:lr-tb;direction:ltr;text-orientation:mixed;dominant-baseline:auto;baseline-shift:baseline;text-anchor:start;white-space:normal;shape-padding:0;clip-rule:nonzero;display:inline;overflow:visible;visibility:visible;opacity:1;isolation:auto;mix-blend-mode:normal;color-interpolation:sRGB;color-interpolation-filters:linearRGB;solid-color:#000000;solid-opacity:1;vector-effect:none;fill:#fcfffe;fill-opacity:1;fill-rule:nonzero;stroke:none;stroke-width:2;stroke-linecap:butt;stroke-linejoin:miter;stroke-miterlimit:4;stroke-dasharray:none;stroke-dashoffset:0;stroke-opacity:1;paint-order:stroke fill markers;color-rendering:auto;image-rendering:auto;shape-rendering:auto;text-rendering:auto;enable-background:accumulate"
         d="M -115.51767,191.94372 -116.32432,192.41052 -117.63487,193.16638 -116.12509,195.77575 -139.70907,209.39098 -141.21689,206.7777 -143.33017,207.99645 -142.92783,208.83239 C -141.18401,212.45859 -141.24817,216.69074 -143.26571,220.19372 L -143.26962,220.20153 C -145.29616,223.69512 -148.92832,225.86244 -152.93759,226.16442 L -153.86337,226.23475 V 228.6742 H -150.85751 V 255.90466 H -153.86337 V 258.34216 L -152.93565,258.41052 C -151.07935,258.54403 -149.29331,259.00613 -147.72471,259.90661 -142.15818,263.12054 -140.14668,270.05415 -142.90048,275.76013 L -143.30478,276.59803 -141.21884,277.80114 -139.70712,275.18591 -116.12314,288.80115 -117.6329,291.41442 -115.54306,292.6156 -115.02157,291.84997 C -111.45719,286.61155 -104.4461,284.88611 -98.879001,288.09998 -97.312907,289.00804 -96.019747,290.32157 -94.974697,291.86364 L -94.451267,292.63514 -92.339937,291.41247 -93.845797,288.80506 -70.261807,275.18786 -68.753997,277.80114 -66.640714,276.58239 -67.043067,275.74646 C -68.787117,272.12025 -68.722747,267.8883 -66.705164,264.38513 V 264.38318 L -66.701274,264.37732 C -64.674645,260.88359 -61.042686,258.71626 -57.033296,258.41442 L -56.107524,258.34411 V 255.90466 H -59.113376 V 228.6742 H -56.107524 V 226.2367 L -57.035254,226.16834 C -58.891544,226.03482 -60.677564,225.57272 -62.246194,224.67224 -67.812397,221.45876 -69.823097,214.52461 -67.070397,208.81872 L -66.668045,207.98474 -68.753997,206.77575 -70.265717,209.39489 -93.849697,195.7777 -92.339937,193.16638 -94.425877,191.95739 -94.949307,192.72692 C -98.513571,197.96652 -105.52433,199.69314 -111.09189,196.47888 -112.65789,195.57102 -113.95106,194.25717 -114.99618,192.7152 Z M -95.660247,196.4613 C -95.504287,196.8685 -95.275987,197.26084 -94.875097,197.49255 L -71.240337,211.14098 C -70.837987,211.37409 -70.381577,211.37808 -69.949307,211.30895 -71.117067,217.05266 -68.694197,223.12847 -63.414144,226.28161 L -63.355565,226.34021 -63.242276,226.40662 C -62.411294,226.88364 -61.527956,227.21408 -60.632905,227.4906 -60.889574,227.8233 -61.113436,228.19678 -61.113386,228.64295 V 255.93591 C -61.113436,256.38985 -60.887905,256.77221 -60.623134,257.10779 -63.859626,258.16472 -66.671906,260.33451 -68.435647,263.37928 L -68.439537,263.38514 C -68.440277,263.38641 -68.440757,263.38776 -68.441497,263.38904 L -68.447367,263.40075 C -70.194467,266.44331 -70.668207,269.95476 -69.970787,273.27771 -70.395447,273.21539 -70.842007,273.21327 -71.236427,273.44177 L -94.873137,287.0902 H -94.875097 C -95.261817,287.3142 -95.471867,287.69657 -95.630947,288.08632 -96.318317,287.44952 -97.045587,286.85048 -97.875087,286.36951 L -98.107521,286.23475 H -98.175881 C -103.52967,283.30773 -109.95093,284.25374 -114.31259,288.11757 -114.46833,287.71095 -114.6937,287.31806 -115.09384,287.0863 H -115.09579 L -138.73447,273.43982 C -139.13629,273.20796 -139.59026,273.20471 -140.02157,273.27381 -138.8524,267.52952 -141.27479,261.45138 -146.55478,258.29725 L -146.61337,258.23864 -146.72862,258.17224 C -147.55959,257.69521 -148.44294,257.36476 -149.33798,257.08825 -149.08132,256.75556 -148.85744,256.38206 -148.85751,255.93591 V 228.64295 C -148.85744,228.18901 -149.08298,227.80665 -149.34775,227.47106 -146.11127,226.4141 -143.29895,224.24428 -141.53525,221.19958 L -141.53134,221.19372 -141.52939,221.18981 C -139.77682,218.14465 -139.30184,214.62829 -140.00009,211.30114 -139.57609,211.36337 -139.13039,211.36476 -138.73642,211.13708 L -115.09775,197.49059 H -115.09579 C -114.70906,197.26661 -114.49902,196.88423 -114.33993,196.4945 -113.65281,197.131 -112.92505,197.7286 -112.09579,198.20934 L -111.86337,198.34411 H -111.79501 C -106.44163,201.27101 -100.02169,200.32451 -95.660247,196.4613 Z"
         id="path1265-1"
         inkscape:connector-curvature="0"
         inkscape:label="White" />
      <path
         style="opacity:1;fill:none;fill-opacity:1;fill-rule:nonzero;stroke:#ff0000;stroke-width:0.025;stroke-linecap:round;stroke-linejoin:round;stroke-miterlimit:4;stroke-dasharray:none;stroke-opacity:1;paint-order:stroke fill markers"
         d="M -115.57826,192.01577 -117.58894,193.176 -116.08229,195.78656 -139.72001,209.43404 -141.22822,206.82035 -143.23891,207.98111 C -141.05796,211.76352 -141.05796,216.42412 -143.23891,220.21081 -145.42907,223.9917 -149.46567,226.32045 -153.83146,226.32174 V 228.64221 L -150.82674,228.64222 V 255.93614 L -153.83146,255.93613 V 258.25658 C -151.68319,258.24995 -149.57159,258.80938 -147.70902,259.87861 -141.85931,263.25605 -139.85784,270.74111 -143.2384,276.59776 L -141.22822,277.758 -139.71795,275.14222 -116.08023,288.78918 -117.58894,291.40234 -115.57878,292.56257 -115.57826,292.56152 C -112.1969,286.70468 -104.71315,284.6947 -98.86276,288.07209 -97.00396,289.14988 -95.4622,290.69885 -94.39265,292.56309 L -92.38197,291.40286 -93.8886,288.7923 -70.250874,275.14481 -68.742657,277.75851 -66.731981,276.59776 C -68.913288,272.8153 -68.913486,268.15445 -66.732499,264.36753 -64.542256,260.58648 -60.505414,258.25769 -56.139435,258.25658 V 255.93613 L -59.144159,255.93614 V 228.64222 L -56.139435,228.64221 V 226.32174 C -58.287704,226.32837 -60.399295,225.76894 -62.261868,224.69972 -68.111773,221.32246 -70.113491,213.83736 -66.733018,207.98057 L -68.743187,206.82035 -70.253451,209.43664 -93.89066,195.78916 -92.38197,193.17652 -94.39212,192.01629 -94.39265,192.01682 C -97.77419,197.87348 -105.2579,199.88321 -111.10816,196.50573 -112.96682,195.42822 -114.50857,193.87962 -115.57826,192.01577 Z"
         id="use4950"
         inkscape:connector-curvature="0"
         inkscape:label="Top Hex"
         inkscape:tile-x0="196.88682"
         inkscape:tile-y0="170.46603"
         sodipodi:nodetypes="ccccccccccccccccccccccccccccccccccccccccccccc" />
    </g>
  </g>
</svg>
