<?xml version="1.0" encoding="UTF-8" standalone="no"?>
<!-- Created with Inkscape (http://www.inkscape.org/) -->

<svg
   xmlns:dc="http://purl.org/dc/elements/1.1/"
   xmlns:cc="http://creativecommons.org/ns#"
   xmlns:rdf="http://www.w3.org/1999/02/22-rdf-syntax-ns#"
   xmlns:svg="http://www.w3.org/2000/svg"
   xmlns="http://www.w3.org/2000/svg"
   xmlns:sodipodi="http://sodipodi.sourceforge.net/DTD/sodipodi-0.dtd"
   xmlns:inkscape="http://www.inkscape.org/namespaces/inkscape"
   width="195.51064mm"
   height="112.84893mm"
   viewBox="0 0 195.51064 112.84894"
   version="1.1"
   id="svg1052"
   inkscape:version="0.92.4 (5da689c313, 2019-01-14)"
   sodipodi:docname="LongestRoad_LargestArmy.svg">
  <defs
     id="defs1046" />
  <sodipodi:namedview
     id="base"
     pagecolor="#ffffff"
     bordercolor="#666666"
     borderopacity="1.0"
     inkscape:pageopacity="0.0"
     inkscape:pageshadow="2"
     inkscape:zoom="1.4"
     inkscape:cx="272.72666"
     inkscape:cy="207.87867"
     inkscape:document-units="in"
     inkscape:current-layer="g973"
     showgrid="false"
     units="mm"
     fit-margin-top="0"
     fit-margin-left="0"
     fit-margin-right="0"
     fit-margin-bottom="0"
     inkscape:window-width="1920"
     inkscape:window-height="1017"
     inkscape:window-x="-8"
     inkscape:window-y="-8"
     inkscape:window-maximized="1" />
  <metadata
     id="metadata1049">
    <rdf:RDF>
      <cc:Work
         rdf:about="">
        <dc:format>image/svg+xml</dc:format>
        <dc:type
           rdf:resource="http://purl.org/dc/dcmitype/StillImage" />
        <dc:title />
      </cc:Work>
    </rdf:RDF>
  </metadata>
  <g
     inkscape:label="Layer 1"
     inkscape:groupmode="layer"
     id="layer1"
     transform="translate(-43.955633,25.34415)">
    <g
       transform="translate(64.139036,-329.58802)"
       id="g966"
       inkscape:label="Longest Road">
      <g
         transform="matrix(0.71058426,0,0,0.71058426,24.372363,98.756058)"
         id="text888"
         style="font-style:normal;font-weight:normal;font-size:10.58333302px;line-height:1.25;font-family:sans-serif;text-align:center;letter-spacing:0px;word-spacing:0px;text-anchor:middle;fill:#000000;fill-opacity:1;stroke:none;stroke-width:0.37234616"
         aria-label="Longest Road"
         inkscape:label="Text">
        <g
           style="stroke-width:0.57558858"
           transform="matrix(0.64689639,0,0,0.64689639,10.143012,101.73267)"
           id="g919"
           inkscape:label="Road">
          <path
             d="M 19.987863,382.49437 Q 18.536789,384.05707 17.395773,384.78881 16.254758,385.52054 15.088938,385.52054 13.873508,385.52054 13.129367,384.72679 12.397629,383.93304 12.397629,382.6432 12.397629,381.87425 12.744895,380.5224 13.104563,379.17054 13.104563,378.45121 13.104563,377.29779 12.34802,377.26058 11.889133,377.22338 11.889133,376.8265 11.889133,376.09476 12.422434,376.09476 L 13.253391,376.14437 Q 14.419211,376.14437 15.10134,375.00336 15.795871,373.86234 15.795871,372.25004 15.795871,368.49213 11.529465,368.49213 8.8133517,368.49213 6.7049533,369.96801 4.5965549,371.43148 4.5965549,373.24222 4.5965549,374.27162 5.6135471,374.79252 6.0972385,375.04056 6.0972385,375.40023 6.0972385,375.72269 5.1546604,376.14437 4.2120823,376.55365 3.8648167,376.55365 3.3191135,376.55365 2.8726292,375.84672 2.4385471,375.12738 2.4385471,374.20961 2.4385471,371.45629 5.2290744,369.49672 8.0196017,367.53715 12.037961,367.53715 15.411399,367.53715 17.284152,368.98822 19.169309,370.43929 19.169309,372.51049 19.169309,373.81273 18.127512,375.04056 17.098117,376.2684 14.071945,376.95052 15.175754,377.58304 15.671848,378.32718 16.180344,379.05892 16.180344,380.17513 16.180344,380.79525 16.043918,381.5642 15.919895,382.33314 15.919895,382.54398 15.919895,383.61058 16.763254,383.61058 17.891867,383.61058 19.987863,381.0681 Z M 13.613059,370.62533 Q 12.596067,371.45629 12.248801,372.39886 11.901535,373.34144 11.55427,375.87152 11.207004,378.3892 10.76052,379.88988 10.326438,381.37816 9.2350314,382.70521 8.1436252,384.03226 6.5933322,384.7764 5.0554416,385.52054 3.4059299,385.52054 1.6199925,385.52054 0.72702373,384.66478 -0.15354266,383.79662 -0.15354266,382.668 -0.15354266,382.30834 0.1193089,382.02308 0.4045628,381.73783 1.2727268,381.24174 2.1408909,380.74564 2.4633518,380.74564 2.8726292,380.74564 2.8726292,381.21693 2.8726292,381.32855 2.7362034,382.06029 2.61218,382.79203 2.61218,382.92845 2.61218,383.62299 3.0090549,384.08187 3.4059299,384.52836 4.0136448,384.52836 5.3034885,384.52836 6.295676,382.89125 7.2878635,381.25414 7.6847385,378.06674 8.0940158,374.86693 8.75134,373.42826 9.4086642,371.97718 10.661301,371.09662 11.92634,370.20365 12.93093,370.20365 13.216184,370.20365 13.613059,370.62533 Z"
             style="font-style:normal;font-variant:normal;font-weight:normal;font-stretch:normal;font-size:25.39999962px;font-family:'Script MT Bold';-inkscape-font-specification:'Script MT Bold, ';text-align:center;text-anchor:middle;stroke:#00ff00;stroke-width:0.05438633;stroke-miterlimit:4;stroke-dasharray:none;stroke-opacity:1"
             id="path906"
             inkscape:connector-curvature="0" />
          <path
             d="M 31.137569,382.49437 Q 30.50505,383.05248 29.909737,383.28812 29.314425,383.51136 28.967159,383.51136 28.07419,383.51136 27.193624,382.81683 25.407687,385.52054 23.100851,385.52054 21.662179,385.52054 20.76921,384.44154 19.876241,383.36254 19.876241,381.5766 19.876241,378.74886 21.885421,376.72728 23.894601,374.6933 26.685128,374.6933 27.739327,374.6933 28.223019,374.92894 28.719112,375.15218 28.830733,375.46224 28.942354,375.7723 28.942354,376.24359 28.942354,378.56283 27.677315,381.93627 28.309835,382.51918 29.004366,382.51918 29.835323,382.51918 31.137569,381.0681 Z M 27.044796,375.56146 Q 26.858761,375.48705 26.511495,375.48705 24.89919,375.48705 23.981417,377.17377 23.076046,378.86049 23.076046,381.11771 23.076046,382.37035 23.472921,383.06488 23.869796,383.75941 24.57673,383.75941 25.457296,383.75941 26.48669,382.1347 25.32087,380.67123 25.32087,378.98451 25.32087,377.00013 27.044796,375.56146 Z"
             style="font-style:normal;font-variant:normal;font-weight:normal;font-stretch:normal;font-size:25.39999962px;font-family:'Script MT Bold';-inkscape-font-specification:'Script MT Bold, ';text-align:center;text-anchor:middle;stroke:#00ff00;stroke-width:0.05438633;stroke-miterlimit:4;stroke-dasharray:none;stroke-opacity:1"
             id="path908"
             inkscape:connector-curvature="0" />
          <path
             d="M 44.358469,382.49437 Q 42.374094,384.37953 41.518332,384.95004 40.66257,385.52054 39.881223,385.52054 37.921653,385.52054 38.033274,382.06029 36.793039,383.83383 35.73884,384.67718 34.697043,385.52054 33.580832,385.52054 32.489426,385.52054 31.720481,384.50355 30.963938,383.47416 30.963938,381.98588 30.963938,380.12552 31.98093,378.43881 33.010324,376.75209 34.610227,375.71029 36.210129,374.66849 37.437961,374.66849 38.988254,374.66849 39.608371,376.09476 L 42.138449,374.6933 H 42.832981 L 41.741574,378.32718 Q 40.898215,381.0681 40.898215,382.08509 40.898215,383.1517 41.654758,383.1517 42.138449,383.1517 42.72136,382.6432 43.30427,382.1223 44.358469,381.0681 Z M 35.279953,383.1765 Q 36.520188,383.1765 37.611594,381.0681 38.715403,378.9473 38.715403,377.16136 38.715403,376.46683 38.405344,376.08236 38.095285,375.68549 37.574387,375.68549 36.334153,375.68549 35.217942,377.79388 34.114133,379.90228 34.114133,381.67582 34.114133,382.34554 34.436594,382.76722 34.771457,383.1765 35.279953,383.1765 Z"
             style="font-style:normal;font-variant:normal;font-weight:normal;font-stretch:normal;font-size:25.39999962px;font-family:'Script MT Bold';-inkscape-font-specification:'Script MT Bold, ';text-align:center;text-anchor:middle;stroke:#00ff00;stroke-width:0.05438633;stroke-miterlimit:4;stroke-dasharray:none;stroke-opacity:1"
             id="path910"
             inkscape:connector-curvature="0" />
          <path
             d="M 57.60417,382.49437 Q 55.818232,384.26791 54.875654,384.90043 53.945478,385.52054 53.226142,385.52054 52.345576,385.52054 51.824678,384.66478 51.316182,383.80902 51.303779,382.15951 50.286787,383.80902 49.08376,384.66478 47.893135,385.52054 46.925752,385.52054 45.871553,385.52054 45.0654,384.52836 44.259248,383.52377 44.259248,382.18431 44.259248,379.41859 46.268428,377.06215 48.29001,374.6933 50.609248,374.6933 51.25417,374.6933 51.613838,374.87933 51.985908,375.06537 52.41999,375.51185 L 54.193525,368.09525 Q 56.363935,367.58676 57.120478,367.58676 57.368525,367.58676 57.368525,367.78519 57.368525,367.92162 56.748408,370.35248 54.267939,380.07592 54.267939,382.08509 54.267939,382.55638 54.466377,382.84164 54.664814,383.12689 54.987275,383.12689 55.781025,383.12689 57.60417,381.0681 Z M 48.637275,383.1517 Q 49.852705,383.1517 50.906904,381.09291 51.961103,379.03412 51.961103,377.23578 51.961103,376.50404 51.62624,376.06996 51.303779,375.63588 50.770478,375.63588 49.61706,375.63588 48.538057,377.79388 47.459053,379.93949 47.459053,381.67582 47.459053,382.35795 47.769111,382.75482 48.091572,383.1517 48.637275,383.1517 Z"
             style="font-style:normal;font-variant:normal;font-weight:normal;font-stretch:normal;font-size:25.39999962px;font-family:'Script MT Bold';-inkscape-font-specification:'Script MT Bold, ';text-align:center;text-anchor:middle;stroke:#00ff00;stroke-width:0.05438633;stroke-miterlimit:4;stroke-dasharray:none;stroke-opacity:1"
             id="path912"
             inkscape:connector-curvature="0" />
        </g>
        <g
           style="stroke-width:0.47739419"
           transform="matrix(0.77995535,0,0,0.77995535,6.3153939,62.251951)"
           id="g928"
           inkscape:label="Longest">
          <path
             d="M 5.6011448,350.74437 Q 2.6617893,353.73334 -0.41399188,353.73334 -1.3069606,353.73334 -2.1379176,353.49769 -2.9564723,353.27445 -4.1470973,352.72875 -5.3253199,352.18304 -6.230691,351.935 -7.9050074,353.77054 -9.2568628,353.77054 -9.7281519,353.77054 -10.03821,353.46049 -10.348269,353.15043 -10.348269,352.70394 -10.348269,351.76136 -9.4304956,351.05443 -8.5003199,350.3351 -6.8136012,350.06224 -6.1066676,349.09486 -5.9082301,348.17709 -5.7097926,347.24691 -5.5981715,345.12611 -5.3873316,340.76049 -3.2665309,338.29242 -1.1333278,335.81195 1.3595433,335.81195 3.0710667,335.81195 4.1624729,336.90336 5.2662815,337.98236 5.2662815,339.66908 5.2662815,341.61625 4.1128635,343.07972 2.9594456,344.5432 1.458762,344.5432 0.67741436,344.5432 0.23092999,344.12152 -0.21555438,343.68744 -0.21555438,342.9433 -0.21555438,342.55883 -0.06672626,342.05033 0.26813702,342.4348 0.7766331,342.4348 1.6199925,342.4348 2.252512,341.43021 2.8850315,340.42562 2.8850315,339.03656 2.8850315,337.96996 2.4013401,337.36224 1.9176487,336.74213 1.0742893,336.74213 0.05729718,336.74213 -0.51321063,337.47386 -1.0713161,338.2056 -1.2945583,339.2226 -1.5178005,340.23959 -1.7782497,342.50922 -2.0262965,344.77885 -2.621609,346.53998 -3.2045192,348.28871 -4.8168238,349.97543 -3.7626246,349.90101 -2.9936793,350.09945 -2.2123317,350.29789 -0.77365984,350.85599 0.67741436,351.4017 1.7192112,351.4017 3.7531956,351.4017 5.6011448,349.3181 Z"
             style="font-style:normal;font-variant:normal;font-weight:normal;font-stretch:normal;font-size:25.39999962px;font-family:'Script MT Bold';-inkscape-font-specification:'Script MT Bold, ';text-align:center;text-anchor:middle;stroke:#00ff00;stroke-width:0.04510812;stroke-miterlimit:4;stroke-dasharray:none;stroke-opacity:1"
             id="path892"
             inkscape:connector-curvature="0" />
          <path
             d="M 16.726047,350.74437 Q 16.093528,351.30248 15.498215,351.53812 14.902903,351.76136 14.555637,351.76136 13.662668,351.76136 12.782102,351.06683 10.996164,353.77054 8.6893285,353.77054 7.2506567,353.77054 6.357688,352.69154 5.4647192,351.61254 5.4647192,349.8266 5.4647192,346.99886 7.4738989,344.97728 9.4830785,342.9433 12.273606,342.9433 13.327805,342.9433 13.811496,343.17894 14.30759,343.40219 14.419211,343.71224 14.530832,344.0223 14.530832,344.49359 14.530832,346.81283 13.265793,350.18627 13.898313,350.76918 14.592844,350.76918 15.423801,350.76918 16.726047,349.3181 Z M 12.633274,343.81146 Q 12.447239,343.73705 12.099973,343.73705 10.487668,343.73705 9.5698949,345.42377 8.6645239,347.11049 8.6645239,349.36771 8.6645239,350.62035 9.0613988,351.31488 9.4582738,352.00941 10.165207,352.00941 11.045774,352.00941 12.075168,350.3847 10.909348,348.92123 10.909348,347.23451 10.909348,345.25013 12.633274,343.81146 Z"
             style="font-style:normal;font-variant:normal;font-weight:normal;font-stretch:normal;font-size:25.39999962px;font-family:'Script MT Bold';-inkscape-font-specification:'Script MT Bold, ';text-align:center;text-anchor:middle;stroke:#00ff00;stroke-width:0.04510812;stroke-miterlimit:4;stroke-dasharray:none;stroke-opacity:1"
             id="path894"
             inkscape:connector-curvature="0" />
          <path
             d="M 28.880343,350.74437 Q 26.015402,353.77054 23.969015,353.77054 23.138058,353.77054 22.629562,353.18763 22.121066,352.60472 22.121066,351.62494 22.121066,350.29789 23.212472,347.56937 23.795382,346.1059 23.795382,345.70902 23.795382,345.31215 23.485324,345.31215 23.311691,345.31215 23.026437,345.48578 22.765988,345.65941 22.418722,345.96947 22.108664,346.25472 21.724191,346.664 21.389328,347.01127 21.004855,347.45775 L 20.310324,348.2639 Q 19.851437,348.82201 19.739816,349.44213 19.553781,350.49633 19.491769,351.37689 19.454562,352.03422 19.454562,353.15043 L 16.713644,353.79535 Q 16.577218,352.12103 16.577218,351.30248 16.577218,349.3057 17.036105,347.51976 17.507394,345.73383 18.536789,343.5014 L 21.562961,342.91849 Q 20.60798,345.48578 20.310324,346.96166 22.344308,344.69203 23.534933,343.82386 24.737961,342.9433 25.668136,342.9433 26.300656,342.9433 26.722335,343.42699 27.144015,343.89828 27.144015,344.61761 27.144015,345.80824 26.077414,348.53676 25.345675,350.40951 25.345675,350.96761 25.345675,351.71176 25.95339,351.71176 26.858761,351.71176 28.880343,349.3181 Z"
             style="font-style:normal;font-variant:normal;font-weight:normal;font-stretch:normal;font-size:25.39999962px;font-family:'Script MT Bold';-inkscape-font-specification:'Script MT Bold, ';text-align:center;text-anchor:middle;stroke:#00ff00;stroke-width:0.04510812;stroke-miterlimit:4;stroke-dasharray:none;stroke-opacity:1"
             id="path896"
             inkscape:connector-curvature="0" />
          <path
             d="M 41.03464,350.74437 Q 39.459543,352.39388 37.264328,353.17523 36.234933,356.38744 34.647433,358.12377 33.072336,359.8601 31.2988,359.8601 30.331418,359.8601 29.736105,359.25238 29.140793,358.64467 29.140793,357.65248 29.140793,356.32543 30.319015,355.27123 31.50964,354.21703 34.349777,353.23724 L 34.883078,350.79398 Q 33.692453,352.13344 32.824289,352.76595 31.956125,353.38607 31.075558,353.38607 30.046164,353.38607 29.38884,352.41869 28.731515,351.45131 28.731515,349.90101 28.731515,347.37094 30.653879,345.16332 32.588644,342.9433 34.759054,342.9433 35.962082,342.9433 36.892257,343.96029 37.450363,343.76185 38.343332,343.36498 L 39.223898,342.9681 H 39.509152 Q 39.02546,344.43158 38.765011,345.82064 L 37.599191,352.03422 Q 39.273507,351.4017 41.03464,349.3181 Z M 33.047531,351.15365 Q 33.928097,351.15365 34.610226,350.11185 35.292355,349.07006 35.664425,347.47015 36.048898,345.87025 36.048898,345.25013 36.048898,344.66722 35.751242,344.29515 35.465988,343.91068 35.031906,343.91068 33.717257,343.91068 32.737472,345.68422 31.757687,347.45775 31.757687,349.2933 31.757687,350.14906 32.104953,350.65756 32.464621,351.15365 33.047531,351.15365 Z M 34.089328,354.32865 Q 30.083371,355.76732 30.083371,357.65248 30.083371,358.21058 30.418234,358.55785 30.753097,358.91752 31.273996,358.91752 32.166964,358.91752 32.824289,357.7889 33.481613,356.66029 34.089328,354.32865 Z"
             style="font-style:normal;font-variant:normal;font-weight:normal;font-stretch:normal;font-size:25.39999962px;font-family:'Script MT Bold';-inkscape-font-specification:'Script MT Bold, ';text-align:center;text-anchor:middle;stroke:#00ff00;stroke-width:0.04510812;stroke-miterlimit:4;stroke-dasharray:none;stroke-opacity:1"
             id="path898"
             inkscape:connector-curvature="0" />
          <path
             d="M 50.286789,350.74437 Q 48.711691,352.29467 47.459054,353.03881 46.206418,353.77054 44.693332,353.77054 43.006613,353.77054 41.964816,352.69154 40.935422,351.61254 40.935422,349.8514 40.935422,347.22211 42.758566,345.10131 44.581711,342.9681 46.80173,342.9681 47.955148,342.9681 48.649679,343.56342 49.344211,344.15873 49.344211,345.12611 49.344211,347.6934 43.887179,349.2933 44.383273,351.71176 46.479269,351.71176 47.297824,351.71176 48.041964,351.27767 48.786105,350.83119 50.286789,349.3181 Z M 43.787961,348.44994 Q 46.962961,347.55697 46.962961,345.15092 46.962961,343.96029 46.094796,343.96029 45.276242,343.96029 44.532101,345.21293 43.787961,346.45316 43.787961,348.44994 Z"
             style="font-style:normal;font-variant:normal;font-weight:normal;font-stretch:normal;font-size:25.39999962px;font-family:'Script MT Bold';-inkscape-font-specification:'Script MT Bold, ';text-align:center;text-anchor:middle;stroke:#00ff00;stroke-width:0.04510812;stroke-miterlimit:4;stroke-dasharray:none;stroke-opacity:1"
             id="path900"
             inkscape:connector-curvature="0" />
          <path
             d="M 54.106712,343.4766 Q 54.962474,343.25336 55.830638,343.11693 56.698802,342.9681 56.872435,342.9681 56.996458,342.9681 56.996458,343.06732 56.996458,343.25336 56.897239,343.45179 56.698802,344.0223 56.698802,344.5432 56.698802,345.18812 57.442943,346.30433 58.187083,347.42054 58.187083,348.37552 58.187083,350.27308 56.363939,352.03422 54.553196,353.79535 52.606029,353.79535 51.762669,353.79535 51.068138,353.34886 50.373607,352.90238 50.373607,352.39388 50.373607,352.09623 51.055736,351.26527 51.750267,350.43431 52.047923,350.43431 52.444798,350.43431 52.754857,351.45131 53.064915,352.4683 53.821458,352.4683 54.578001,352.4683 55.235325,351.77377 55.905052,351.06683 55.905052,350.26068 55.905052,349.47933 55.061693,348.17709 54.218333,346.87484 53.945482,345.99428 52.50681,348.31351 50.299193,350.74437 H 50.013939 V 349.62816 Q 53.052513,346.39115 54.106712,343.4766 Z"
             style="font-style:normal;font-variant:normal;font-weight:normal;font-stretch:normal;font-size:25.39999962px;font-family:'Script MT Bold';-inkscape-font-specification:'Script MT Bold, ';text-align:center;text-anchor:middle;stroke:#00ff00;stroke-width:0.04510812;stroke-miterlimit:4;stroke-dasharray:none;stroke-opacity:1"
             id="path902"
             inkscape:connector-curvature="0" />
          <path
             d="M 67.749292,350.74437 Q 66.186597,352.29467 65.045582,353.03881 63.904566,353.77054 62.875171,353.77054 61.80857,353.77054 61.138843,352.87758 60.481519,351.9722 60.481519,350.50873 60.481519,349.21888 61.101636,347.09808 L 61.647339,345.22533 60.692359,345.27494 61.089234,343.32777 62.267457,343.27816 63.433277,339.40863 66.757105,338.7265 65.492066,343.04252 67.215992,342.9433 66.806714,344.85326 64.884351,345.00209 64.053394,347.78021 Q 63.631714,349.23129 63.631714,350.08705 63.631714,350.66996 63.916968,351.04203 64.214625,351.4017 64.673511,351.4017 65.306031,351.4017 65.926148,351.00482 66.546265,350.59554 67.749292,349.3181 Z"
             style="font-style:normal;font-variant:normal;font-weight:normal;font-stretch:normal;font-size:25.39999962px;font-family:'Script MT Bold';-inkscape-font-specification:'Script MT Bold, ';text-align:center;text-anchor:middle;stroke:#00ff00;stroke-width:0.04510812;stroke-miterlimit:4;stroke-dasharray:none;stroke-opacity:1"
             id="path904"
             inkscape:connector-curvature="0" />
        </g>
      </g>
      <path
         style="fill:#000000;fill-opacity:1;stroke:none;stroke-width:0.24566929;stroke-linecap:butt;stroke-linejoin:miter;stroke-miterlimit:4;stroke-dasharray:none;stroke-opacity:1"
         d="M 764.91016,591.12305 616.01562,677.08203 C 612.59182,687.41925 610.99044,697.99433 611.85938,707.5918 614.05736,729.31172 618.8776,741.1479 632.33203,775.6582 640.10147,795.58667 651.47034,833.52018 650.04688,853.23828 648.1538,879.46115 632.28743,887.97952 627.22461,899.92969 678.98099,929.88266 730.73776,959.83612 782.49414,989.78906 825.58991,964.9098 868.68548,940.03163 911.78125,915.15234 L 911.5,913.5 C 892.62188,772.28961 631.95599,777.927 764.91016,591.12305 Z"
         transform="matrix(0.26458333,0,0,0.26458333,-178.3943,152.88384)"
         id="path1151"
         inkscape:connector-curvature="0"
         inkscape:label="Path" />
      <g
         aria-label="2 VP"
         style="font-style:normal;font-variant:normal;font-weight:normal;font-stretch:normal;font-size:14.19036674px;line-height:1.25;font-family:'Script MT Bold';-inkscape-font-specification:'Script MT Bold, ';text-align:center;letter-spacing:0px;word-spacing:0px;text-anchor:middle;fill:#ffffff;fill-opacity:1;stroke:none;stroke-width:0.47818714"
         id="text941"
         inkscape:label="2 VP"
         transform="matrix(0.55330494,0,0,0.55330494,-0.20880362,195.84199)">
        <circle
           inkscape:label="White"
           r="18.436487"
           cy="364.31091"
           cx="52.248432"
           id="circle1144"
           style="opacity:1;fill:#fffffe;fill-opacity:1;fill-rule:nonzero;stroke:#00ff00;stroke-width:0.04518304;stroke-linecap:round;stroke-linejoin:round;stroke-miterlimit:4;stroke-dasharray:none;stroke-opacity:1;paint-order:normal" />
        <circle
           style="opacity:1;fill:#000000;fill-opacity:1;fill-rule:nonzero;stroke:#00ff00;stroke-width:0.04518304;stroke-linecap:round;stroke-linejoin:round;stroke-miterlimit:4;stroke-dasharray:none;stroke-opacity:1;paint-order:normal"
           id="path1132"
           cx="52.248432"
           cy="364.31091"
           r="16.628716"
           inkscape:label="Black" />
        <g
           id="g1142">
          <path
             inkscape:label="path985"
             inkscape:connector-curvature="0"
             id="path985"
             style="font-style:normal;font-variant:normal;font-weight:normal;font-stretch:normal;font-size:17.02844048px;font-family:'Script MT Bold';-inkscape-font-specification:'Script MT Bold, ';text-align:center;text-anchor:middle;fill:#ffffff;fill-opacity:1;stroke-width:0.04518304;stroke:#00ff00;stroke-opacity:1;stroke-miterlimit:4;stroke-dasharray:none"
             d="M 49.151218,360.99218 Q 50.090776,360.70116 50.97213,360.70116 51.138424,360.70116 52.152813,360.79262 53.175517,360.87577 53.366755,360.87577 53.840691,360.87577 54.140019,360.70948 54.447662,360.53487 54.630584,360.03599 54.688787,359.8697 54.74699,359.8697 54.896654,359.8697 55.071262,359.95284 55.24587,360.02768 55.24587,360.07756 55.24587,360.35195 54.796878,361.2915 54.3562,362.22275 53.890579,362.5387 53.424958,362.85466 52.4854,362.85466 52.277533,362.85466 51.022018,362.74657 49.774818,362.6468 49.542007,362.6468 48.72717,362.6468 48.336381,362.74657 47.945591,362.85466 47.904018,362.85466 47.787612,362.85466 47.787612,362.69668 47.787612,362.1978 47.970535,361.71555 48.161773,361.2333 48.810317,360.44341 49.467175,359.6452 50.747634,358.4562 L 51.687192,357.59148 Q 52.801357,356.54383 53.250349,355.58764 53.707656,354.62314 53.707656,353.62538 53.707656,352.77728 53.266979,352.26178 52.834616,351.74627 52.127869,351.74627 51.454381,351.74627 50.955501,352.23683 50.456621,352.71908 50.456621,353.38426 50.456621,353.94134 51.005389,354.3737 51.296402,354.58988 51.296402,354.76449 51.296402,354.9973 50.664488,355.30494 50.032573,355.61259 49.641783,355.61259 49.325826,355.61259 49.093015,355.31326 48.860205,355.00562 48.860205,354.57325 48.860205,353.1847 50.190552,352.01234 51.529213,350.83165 53.133944,350.83165 54.455976,350.83165 55.304073,351.63817 56.160483,352.43638 56.160483,353.67527 56.160483,354.67303 55.595086,355.52113 55.038003,356.36922 54.256424,357.00945 53.474846,357.64137 52.194387,358.51441 50.913928,359.37913 50.232125,359.91127 49.558637,360.43509 49.151218,360.99218 Z" />
          <path
             inkscape:connector-curvature="0"
             id="path987"
             style="font-style:normal;font-variant:normal;font-weight:normal;font-stretch:normal;font-size:17.02844048px;font-family:'Script MT Bold';-inkscape-font-specification:'Script MT Bold, ';text-align:center;text-anchor:middle;fill:#ffffff;fill-opacity:1;stroke-width:0.04518304;stroke:#00ff00;stroke-opacity:1;stroke-miterlimit:4;stroke-dasharray:none"
             d="M 50.97213,365.75053 Q 51.2382,365.75053 51.512584,366.56537 51.786968,367.38021 51.786968,368.25325 51.786968,370.19057 50.922242,372.55193 50.065832,374.90498 48.718855,376.35174 47.380194,377.79017 45.933441,377.79017 44.761073,377.79017 44.021068,376.95871 43.289377,376.12724 43.289377,374.78858 43.289377,373.53306 44.195676,371.13012 45.027143,368.84359 45.027143,367.86246 45.027143,367.21392 44.777703,366.85638 44.528263,366.49885 44.087585,366.49885 43.405782,366.49885 42.798812,367.2638 42.200155,368.02044 42.200155,368.89348 42.200155,369.60022 42.566001,369.94944 42.931846,370.29034 42.931846,370.46495 42.931846,370.76428 42.566001,371.16338 42.20847,371.55417 41.925771,371.55417 41.576555,371.55417 41.277227,371.08024 40.977899,370.59798 40.977899,370.00764 40.977899,368.49437 42.058806,367.11414 43.148028,365.7339 44.603095,365.7339 45.71726,365.7339 46.382434,366.57369 47.055922,367.40515 47.055922,368.81033 47.055922,369.45888 46.889628,370.27371 46.723335,371.08855 46.074791,372.83463 45.434561,374.5724 45.434561,375.47038 45.434561,376.06072 45.775463,376.45151 46.124679,376.83399 46.648503,376.83399 47.446711,376.83399 48.319751,375.88611 49.192791,374.92993 49.766504,373.41666 50.340216,371.89507 50.340216,370.48158 50.340216,369.14292 49.525378,367.58808 49.267623,367.12245 49.267623,366.93953 49.267623,366.62357 49.991,366.19121 50.72269,365.75053 50.97213,365.75053 Z" />
          <path
             inkscape:connector-curvature="0"
             id="path989"
             style="font-style:normal;font-variant:normal;font-weight:normal;font-stretch:normal;font-size:17.02844048px;font-family:'Script MT Bold';-inkscape-font-specification:'Script MT Bold, ';text-align:center;text-anchor:middle;fill:#ffffff;fill-opacity:1;stroke-width:0.04518304;stroke:#00ff00;stroke-opacity:1;stroke-miterlimit:4;stroke-dasharray:none"
             d="M 59.685902,365.7339 Q 61.440297,365.7339 62.479631,366.59031 63.518964,367.43841 63.518964,368.86022 63.518964,370.17394 62.7457,370.97215 61.980751,371.76204 61.423668,371.76204 61.215801,371.76204 60.949732,371.57912 60.691977,371.39619 60.691977,371.24653 60.691977,371.16338 61.082767,370.64787 61.99738,369.51708 61.99738,368.40291 61.99738,367.46336 61.365465,366.91459 60.733551,366.3575 59.652644,366.3575 58.022969,366.3575 56.700936,367.35526 55.378904,368.34471 55.378904,369.52539 55.378904,370.30697 56.093966,370.59798 56.376664,370.72271 56.376664,370.93889 56.376664,371.16338 55.753064,371.46271 55.129464,371.76204 54.880024,371.76204 54.505864,371.76204 54.173277,371.27147 53.840691,370.77259 53.840691,370.19057 53.840691,368.62741 55.520254,367.18066 57.199817,365.7339 59.685902,365.7339 Z M 61.24906,367.89572 Q 60.700292,368.38628 60.450852,369.04314 60.201412,369.69169 59.943657,371.76204 59.685902,373.82408 59.103876,375.01307 58.530163,376.20207 57.282963,377.00028 56.044078,377.79017 54.555752,377.79017 53.499789,377.79017 52.834616,377.26635 52.177757,376.74252 52.177757,375.92769 52.177757,375.62004 52.368994,375.42881 52.560232,375.22926 53.150573,374.89667 53.740915,374.56408 53.948781,374.56408 54.090131,374.56408 54.189907,374.66386 54.289683,374.75532 54.289683,374.88835 54.289683,374.9715 54.206536,375.50364 54.131704,376.03578 54.131704,376.13555 54.131704,377.125 54.963171,377.125 55.902728,377.125 56.542958,376.02746 57.183187,374.92161 57.465886,372.58519 57.756899,370.24045 58.338926,369.27595 58.920953,368.31145 59.694217,367.91235 60.475796,367.50493 60.775124,367.50493 60.982991,367.50493 61.24906,367.89572 Z" />
        </g>
      </g>
      <path
         style="display:inline;fill:#ffffff;fill-opacity:1;stroke:none;stroke-width:0.47244096;stroke-linecap:butt;stroke-linejoin:round;stroke-miterlimit:4;stroke-dasharray:none;stroke-opacity:1"
         d="M 782.70703,572.11719 598.00977,678.75195 V 891.74805 L 782.49805,998.52148 967.43164,891.75 V 678.76758 Z M 782.70898,580.84766 C 841.7641,614.94213 900.81793,649.03635 959.87305,683.13086 V 887.38867 C 900.74657,921.52249 841.62062,955.65524 782.49414,989.78906 723.51776,955.6577 664.54083,921.52593 605.56445,887.39453 V 683.11523 Z"
         transform="matrix(0.26458333,0,0,0.26458333,-178.3943,152.88384)"
         id="use1239"
         inkscape:connector-curvature="0"
         inkscape:label="White Border" />
      <path
         sodipodi:nodetypes="ccccccc"
         id="path921"
         style="fill:none;stroke:#ff0000;stroke-width:0.025;stroke-linecap:butt;stroke-linejoin:round;stroke-miterlimit:4;stroke-dasharray:none;stroke-opacity:1"
         d="M -20.170903,388.82549 V 332.47013 L 28.696767,304.25637 77.571927,332.47447 V 388.82606 L 28.641437,417.07612 Z"
         inkscape:connector-curvature="0"
         inkscape:label="Base Hex"
         inkscape:tile-x0="-2.7358529"
         inkscape:tile-y0="-6.0590121" />
    </g>
    <g
       inkscape:label="Largest Army"
       id="g979"
       transform="translate(161.88185,-329.58384)">
      <g
         transform="matrix(0.37897695,0,0,-0.37897695,228.76025,418.95293)"
         inkscape:label="Helmets 04"
         id="g1031"
         style="stroke-width:0.93086869">
        <path
           d="M -406.64,143.70539 C -406.30445,144.29838 -404.68954,147.3803 -405.35464,150.62537 -405.57233,152.1178 -409.05081,173.98564 -427.57421,179.47421 -429.99888,180.19246 -432.38427,180.56637 -434.77244,180.59087 -437.1606,180.61583 -439.552,180.29275 -441.98638,179.61656 -460.96827,174.3443 -463.95636,151.85851 -464.11074,150.59995 -464.76151,147.36366 -463.15399,144.29746 -462.8189,143.70539 -462.76898,142.98344 -462.61461,142.43574 -462.29986,142.23699 L -463.15122,121.99747 C -463.17479,121.44699 -463.11471,120.79437 -462.98252,120.05671 -462.07708,115.03635 -457.76988,105.99722 -453.30739,98.199068 -448.82964,90.379648 -444.1758,83.800766 -442.60249,83.733747 V 83.733285 C -442.55765,83.730512 -442.51467,83.733747 -442.47168,83.742067 H -442.46984 C -442.38433,83.757782 -442.30113,83.79106 -442.22025,83.845136 -442.14353,83.89644 -442.0705,83.966232 -442.00071,84.055897 -441.67162,84.483428 -441.41511,85.404588 -441.30557,87.068028 L -441.30372,87.084658 C -441.24502,87.990098 -441.20527,89.340638 -441.18262,91.010088 -441.16044,92.675838 -441.15443,94.659118 -441.16044,96.838368 -441.18909,108.03134 -441.54082,124.37038 -441.64898,129.18969 -441.65406,129.40322 -441.65406,129.61629 -441.65545,129.82798 -441.65868,130.51156 -441.66053,131.18267 -441.79087,131.74979 -441.8223,131.88844 -441.86251,132.02063 -441.91012,132.1445 L -441.91613,132.17408 C -441.93692,132.27345 -441.97205,132.43892 -442.03907,132.63396 -442.30483,133.41739 -443.05544,134.64405 -445.32019,133.87542 H -445.32112 C -445.64281,133.76681 -446.03105,133.70718 -446.46228,133.69239 -446.89951,133.67853 -447.38066,133.70857 -447.88445,133.77697 -450.48106,134.13101 -453.66651,135.50189 -454.51141,137.02621 -454.88394,137.69731 -454.59737,138.48212 -454.10144,139.19806 -453.59025,139.93619 -452.8586,140.60036 -452.37283,141.00802 -451.63193,141.63152 -450.76115,142.14132 -449.70643,142.49628 -448.64846,142.85356 -447.40562,143.05647 -445.92613,143.06432 -444.10601,143.07357 -442.45736,143.06247 -441.06661,142.86465 -439.69805,142.66961 -438.58277,142.29431 -437.80351,141.5779 -437.43098,141.02281 -437.14951,140.39283 -436.98127,139.68383 -436.68639,138.44376 -436.73584,136.9615 -437.2401,135.22041 -438.15524,132.065 -438.56382,129.55852 -438.54303,127.64411 -438.52731,126.25752 -438.28743,125.17737 -437.84927,124.38471 -437.40556,123.57956 -436.76311,123.07022 -435.94965,122.83404 -435.58036,122.72681 -435.17825,122.67736 -434.7424,122.68244 -434.07868,122.68244 -433.48661,122.80908 -432.97912,123.06976 -432.32187,123.40716 -431.80653,123.96642 -431.45618,124.76509 -431.11092,125.55129 -430.92697,126.57181 -430.92697,127.84146 -430.92836,129.72583 -431.33416,132.16761 -432.21881,135.22041 -432.72491,136.9615 -432.7739,138.44376 -432.47948,139.68475 -432.31078,140.39283 -432.02931,141.02281 -431.65724,141.5779 -430.87705,142.29431 -429.76178,142.66961 -428.39368,142.86465 -427.0034,143.06247 -425.35475,143.07357 -423.53462,143.06432 -422.05329,143.05647 -420.81044,142.85356 -419.75386,142.49628 -418.69914,142.14132 -417.82697,141.63152 -417.08607,141.00802 -416.60216,140.60036 -415.8705,139.93619 -415.35746,139.19806 -414.86292,138.48212 -414.57682,137.69731 -414.94935,137.02621 -415.79378,135.50189 -418.97923,134.13101 -421.57445,133.77697 -422.08009,133.70857 -422.56078,133.67853 -422.99847,133.69239 -423.42924,133.70718 -423.8161,133.76681 -424.13871,133.87542 H -424.14056 C -426.40347,134.64405 -427.15592,133.41739 -427.42168,132.63396 -427.48685,132.43892 -427.52336,132.27345 -427.54416,132.17408 L -427.55017,132.1445 C -427.59824,132.02063 -427.6366,131.88844 -427.66803,131.74979 -427.79837,131.1836 -427.80161,130.51156 -427.80484,129.82798 -427.80484,129.61629 -427.80669,129.40322 -427.81131,129.18969 V 129.17259 C -427.83211,128.22971 -427.864,126.85098 -427.89867,125.15888 -427.93379,123.4691 -427.97354,121.46502 -428.01514,119.26867 -428.22636,107.99159 -428.4607,91.700608 -428.15519,87.068028 -428.0706,85.800688 -427.90375,84.966418 -427.68375,84.454772 -427.44572,83.897827 -427.13836,83.700469 -426.80234,83.735596 H -426.80095 -426.7931 C -425.94035,83.829422 -424.91705,84.500991 -423.78929,85.608408 -422.67494,86.704278 -421.45197,88.230448 -420.18694,90.045948 -413.69541,99.367037 -406.07058,116.3781 -406.30768,121.99747 L -407.15905,142.23699 C -406.84383,142.43574 -406.69084,142.98344 -406.64,143.70539"
           style="fill:#000006;fill-opacity:1;fill-rule:nonzero;stroke:none;stroke-width:0.93086869"
           id="path1129"
           inkscape:connector-curvature="0"
           inkscape:label="Right" />
        <path
           d="M -542.16606,128.55648 -549.74734,136.80847 -569.22669,140.89726 V 149.53089 H -540.00765 L -536.02351,135.14171 H -517.87221 L -513.88739,149.53089 H -484.66836 V 140.89726 L -504.14772,136.80847 -511.72965,128.55648 Z M -517.87221,66.976033 -478.24946,86.221978 V 153.95705 H -468.95246 V 161.926 H -478.33667 C -478.95507,171.1633 -483.98623,206.25592 -524.73377,206.64025 H -529.16193 C -569.90882,206.25592 -574.94065,171.1633 -575.55839,161.926 H -584.94324 V 153.95705 H -575.64626 V 86.221978 L -536.02351,66.976033 Z"
           style="fill:#000006;fill-opacity:1;fill-rule:nonzero;stroke:none;stroke-width:0.93086869"
           id="path1137"
           inkscape:connector-curvature="0"
           sodipodi:nodetypes="cccccccccccccccccccccccccccc"
           inkscape:label="Middle" />
        <path
           d="M -593.12748,120.35967 C -593.12748,120.03521 -593.39324,119.76945 -593.71817,119.76945 H -596.1202 C -596.44466,119.76945 -596.71088,120.03521 -596.71088,120.35967 V 122.76124 C -596.71088,123.08616 -596.44466,123.35238 -596.1202,123.35238 H -593.71817 C -593.39324,123.35238 -593.12748,123.08616 -593.12748,122.76124 Z M -596.71088,114.23512 C -596.71088,113.91021 -596.97618,113.64491 -597.30157,113.64491 H -599.70313 C -600.02852,113.64491 -600.29382,113.91021 -600.29382,114.23512 V 116.63715 C -600.29382,116.96208 -600.02852,117.22784 -599.70313,117.22784 H -597.30157 C -596.97618,117.22784 -596.71088,116.96208 -596.71088,116.63715 Z M -600.13112,108.25804 C -600.13112,107.93311 -600.39689,107.66735 -600.72181,107.66735 H -603.12384 C -603.4483,107.66735 -603.7136,107.93311 -603.7136,108.25804 V 110.66052 C -603.7136,110.98498 -603.4483,111.25074 -603.12384,111.25074 H -600.72181 C -600.39689,111.25074 -600.13112,110.98498 -600.13112,110.66052 Z M -604.30475,113.64491 H -606.70678 C -607.03124,113.64491 -607.297,113.91021 -607.297,114.23512 V 116.63715 C -607.297,116.96208 -607.03124,117.22784 -606.70678,117.22784 H -604.30475 C -603.97982,117.22784 -603.7136,116.96208 -603.7136,116.63715 V 114.23512 C -603.7136,113.91021 -603.97982,113.64491 -604.30475,113.64491 M -607.13431,108.25804 C -607.13431,107.93311 -607.40007,107.66735 -607.72499,107.66735 H -610.12656 C -610.45102,107.66735 -610.7177,107.93311 -610.7177,108.25804 V 110.66052 C -610.7177,110.98498 -610.45102,111.25074 -610.12656,111.25074 H -607.72499 C -607.40007,111.25074 -607.13431,110.98498 -607.13431,110.66052 Z M -611.30839,113.64491 H -613.70996 C -614.03488,113.64491 -614.30064,113.91021 -614.30064,114.23512 V 116.63715 C -614.30064,116.96208 -614.03488,117.22784 -613.70996,117.22784 H -611.30839 C -610.983,117.22784 -610.7177,116.96208 -610.7177,116.63715 V 114.23512 C -610.7177,113.91021 -610.983,113.64491 -611.30839,113.64491 M -607.13431,122.76124 V 120.35967 C -607.13431,120.03521 -607.40007,119.76945 -607.72499,119.76945 H -610.12656 C -610.45102,119.76945 -610.7177,120.03521 -610.7177,120.35967 V 122.76124 C -610.7177,123.08616 -610.45102,123.35238 -610.12656,123.35238 H -607.72499 C -607.40007,123.35238 -607.13431,123.08616 -607.13431,122.76124 M -600.13112,122.76124 V 120.35967 C -600.13112,120.03521 -600.39689,119.76945 -600.72181,119.76945 H -603.12384 C -603.4483,119.76945 -603.7136,120.03521 -603.7136,120.35967 V 122.76124 C -603.7136,123.08616 -603.4483,123.35238 -603.12384,123.35238 H -600.72181 C -600.39689,123.35238 -600.13112,123.08616 -600.13112,122.76124 M -619.16571,91.173473 -626.19431,98.408678 -622.67978,103.57601 V 136.512 H -644.59245 V 142.02553 H -622.67978 V 151.53427 L -626.19431,155.462 -619.16571,166.21081 -612.13757,155.462 -615.65118,151.53427 V 142.02553 H -593.73989 V 136.512 H -615.65118 V 103.57601 L -612.13757,98.408678 Z M -627.61463,114.23512 V 116.63715 C -627.61463,116.96208 -627.34841,117.22784 -627.02395,117.22784 H -624.62192 C -624.297,117.22784 -624.03077,116.96208 -624.03077,116.63715 V 114.23512 C -624.03077,113.91021 -624.297,113.64491 -624.62192,113.64491 H -627.02395 C -627.34841,113.64491 -627.61463,113.91021 -627.61463,114.23512 M -627.61463,108.25804 C -627.61463,107.93311 -627.87993,107.66735 -628.20486,107.66735 H -630.60689 C -630.93181,107.66735 -631.19711,107.93311 -631.19711,108.25804 V 110.66052 C -631.19711,110.98498 -630.93181,111.25074 -630.60689,111.25074 H -628.20486 C -627.87993,111.25074 -627.61463,110.98498 -627.61463,110.66052 Z M -631.19711,120.35967 V 122.76124 C -631.19711,123.08616 -630.93181,123.35238 -630.60689,123.35238 H -628.20486 C -627.87993,123.35238 -627.61463,123.08616 -627.61463,122.76124 V 120.35967 C -627.61463,120.03521 -627.87993,119.76945 -628.20486,119.76945 H -630.60689 C -630.93181,119.76945 -631.19711,120.03521 -631.19711,120.35967 M -631.6251,113.64491 H -634.02667 C -634.35205,113.64491 -634.61782,113.91021 -634.61782,114.23512 V 116.63715 C -634.61782,116.96208 -634.35205,117.22784 -634.02667,117.22784 H -631.6251 C -631.30018,117.22784 -631.03488,116.96208 -631.03488,116.63715 V 114.23512 C -631.03488,113.91021 -631.30018,113.64491 -631.6251,113.64491 M -634.61782,108.25804 C -634.61782,107.93311 -634.88358,107.66735 -635.2085,107.66735 H -637.61007 C -637.93499,107.66735 -638.20121,107.93311 -638.20121,108.25804 V 110.66052 C -638.20121,110.98498 -637.93499,111.25074 -637.61007,111.25074 H -635.2085 C -634.88358,111.25074 -634.61782,110.98498 -634.61782,110.66052 Z M -638.20121,120.35967 V 122.76124 C -638.20121,123.08616 -637.93499,123.35238 -637.61007,123.35238 H -635.2085 C -634.88358,123.35238 -634.61782,123.08616 -634.61782,122.76124 V 120.35967 C -634.61782,120.03521 -634.88358,119.76945 -635.2085,119.76945 H -637.61007 C -637.93499,119.76945 -638.20121,120.03521 -638.20121,120.35967 M -638.62828,113.64491 H -641.03077 C -641.35523,113.64491 -641.62146,113.91021 -641.62146,114.23512 V 116.63715 C -641.62146,116.96208 -641.35523,117.22784 -641.03077,117.22784 H -638.62828 C -638.30382,117.22784 -638.0376,116.96208 -638.0376,116.63715 V 114.23512 C -638.0376,113.91021 -638.30382,113.64491 -638.62828,113.64491 M -642.21122,119.76945 H -644.61371 C -644.93863,119.76945 -645.20393,120.03521 -645.20393,120.35967 V 122.76124 C -645.20393,123.08616 -644.93863,123.35238 -644.61371,123.35238 H -642.21122 C -641.88676,123.35238 -641.62146,123.08616 -641.62146,122.76124 V 120.35967 C -641.62146,120.03521 -641.88676,119.76945 -642.21122,119.76945 M -619.16571,183.78209 C -651.82673,181.92129 -650.58666,147.39993 -650.58666,147.39993 V 113.1707 C -650.58666,108.45401 -648.28123,104.03589 -644.41265,101.33807 L -619.16571,83.731669 -593.91922,101.33807 C -590.05065,104.03589 -587.74476,108.45401 -587.74476,113.1707 V 147.39993 C -587.74476,147.39993 -586.50469,181.92129 -619.16571,183.78209"
           style="fill:#000006;fill-opacity:1;fill-rule:nonzero;stroke:none;stroke-width:0.93086869"
           id="path1141"
           inkscape:connector-curvature="0"
           inkscape:label="Left" />
      </g>
      <g
         inkscape:label="Text"
         aria-label="Longest Road"
         style="font-style:normal;font-weight:normal;font-size:10.58333302px;line-height:1.25;font-family:sans-serif;text-align:center;letter-spacing:0px;word-spacing:0px;text-anchor:middle;fill:#000000;fill-opacity:1;stroke:none;stroke-width:0.37234616"
         id="g957"
         transform="matrix(0.71058426,0,0,0.71058426,8.3063813,88.172718)">
        <g
           aria-label="Army"
           style="font-style:normal;font-weight:normal;font-size:16.45494652px;line-height:1.25;font-family:sans-serif;letter-spacing:0px;word-spacing:0px;fill:#000000;fill-opacity:1;stroke:none;stroke-width:0.13864169"
           id="text991"
           inkscape:label="Army">
          <path
             d="M 21.032146,349.42603 Q 19.184178,351.40256 17.641527,351.40256 16.789855,351.40256 16.291707,350.79996 15.79356,350.19736 15.737317,349.08055 14.765125,350.26164 14.009869,350.8321 13.262647,351.40256 12.410975,351.40256 11.318264,351.40256 10.651389,350.4625 9.9925482,349.51442 9.9925482,347.93963 9.9925482,346.05952 10.860289,344.06693 11.728031,342.0663 13.431375,340.90931 15.134719,339.75233 17.561181,339.75233 19.37701,339.75233 20.847349,340.24244 V 340.77273 Q 19.650188,342.17075 18.838689,344.6856 18.035225,347.20044 18.035225,348.51812 18.035225,349.16089 18.292333,349.51442 18.557476,349.86794 19.023486,349.86794 19.859088,349.86794 21.032146,348.50205 Z M 18.694065,340.77273 Q 17.954878,340.37099 17.103206,340.37099 15.761421,340.37099 14.684779,341.49584 13.608137,342.61266 12.981435,344.46063 12.362768,346.30859 12.362768,347.66645 12.362768,348.57436 12.708257,349.14482 13.061781,349.70725 13.608137,349.70725 14.556225,349.70725 15.785525,347.9798 16.291707,343.44826 18.694065,340.77273 Z"
             style="font-style:normal;font-variant:normal;font-weight:normal;font-stretch:normal;font-family:'Script MT Bold';-inkscape-font-specification:'Script MT Bold, ';stroke:#00ff00;stroke-width:0.03518232;stroke-miterlimit:4;stroke-dasharray:none;stroke-opacity:1"
             id="path999"
             inkscape:connector-curvature="0" />
          <path
             d="M 27.050092,349.42603 Q 25.033397,351.40256 23.940686,351.40256 23.450573,351.40256 23.113118,350.99279 22.775663,350.57499 22.775663,349.96436 22.775663,348.83147 23.988894,346.92726 23.39433,347.23258 22.687282,347.3531 22.16503,348.31725 21.048215,349.42603 H 20.863418 V 348.70292 Q 21.49012,348.05211 21.996303,347.30489 21.305323,346.99957 21.305323,346.39697 21.305323,345.77831 21.723125,345.07929 22.148961,344.37225 22.888148,344.37225 23.51485,344.37225 23.51485,345.01502 23.51485,345.5212 23.153291,346.46125 24.487042,346.31663 25.483337,344.42045 L 26.21449,344.38831 25.467268,346.44518 Q 25.001259,347.74679 24.86467,348.22084 24.728081,348.68685 24.728081,349.04841 24.728081,349.38586 24.880739,349.58673 25.041432,349.78759 25.306575,349.78759 25.595822,349.78759 25.860965,349.59476 26.126109,349.3939 27.050092,348.50205 Z"
             style="font-style:normal;font-variant:normal;font-weight:normal;font-stretch:normal;font-family:'Script MT Bold';-inkscape-font-specification:'Script MT Bold, ';stroke:#00ff00;stroke-width:0.03518232;stroke-miterlimit:4;stroke-dasharray:none;stroke-opacity:1"
             id="path1001"
             inkscape:connector-curvature="0" />
          <path
             d="M 38.88512,349.42603 Q 37.88079,350.40626 37.165707,350.89637 36.450624,351.38649 35.775714,351.38649 35.245427,351.38649 34.932076,351.02493 34.62676,350.65534 34.62676,350.03667 34.62676,349.16893 35.060631,347.83518 35.494501,346.50143 35.494501,346.21218 35.494501,345.95507 35.229358,345.95507 35.149012,345.95507 35.036527,346.01131 34.916007,346.06755 34.763349,346.172 34.610691,346.28449 34.433929,346.44518 34.257166,346.60588 34.064335,346.81478 33.855434,347.02368 33.646534,347.27275 33.293009,347.69055 33.228732,347.97176 L 32.963589,349.12072 32.481511,351.01689 30.440712,351.38649 31.220072,348.07621 Q 31.308453,347.71466 31.428973,347.01564 31.549492,346.31663 31.549492,346.18004 31.549492,345.90686 31.364695,345.90686 31.308453,345.90686 31.204003,345.9631 31.083483,346.01935 30.930825,346.13183 30.754063,346.26039 30.553197,346.43715 30.336261,346.62998 30.087187,346.87905 29.822044,347.1442 29.540832,347.46558 29.155169,347.89945 29.058753,348.47795 28.930199,349.16893 28.881991,349.71528 28.825749,350.26164 28.817714,350.93655 L 27.034023,351.36238 Q 26.969746,350.4384 26.969746,349.81973 26.969746,348.34939 27.275063,347.26472 27.580379,346.172 28.271358,344.71773 L 30.215742,344.34011 Q 29.69349,345.64975 29.404243,346.87102 31.565561,344.35618 32.714515,344.35618 33.132317,344.35618 33.389425,344.70167 33.654568,345.03912 33.654568,345.59351 33.654568,345.85062 33.574222,346.5416 34.932076,345.18374 35.518605,344.77398 36.113169,344.35618 36.611317,344.35618 37.053222,344.35618 37.334434,344.7097 37.615647,345.06322 37.615647,345.60958 37.615647,346.46929 37.141603,347.81911 36.667559,349.16893 36.667559,349.6028 36.667559,350.05274 36.996979,350.05274 37.20588,350.05274 37.575474,349.77956 37.953102,349.49835 38.88512,348.50205 Z"
             style="font-style:normal;font-variant:normal;font-weight:normal;font-stretch:normal;font-family:'Script MT Bold';-inkscape-font-specification:'Script MT Bold, ';stroke:#00ff00;stroke-width:0.03518232;stroke-miterlimit:4;stroke-dasharray:none;stroke-opacity:1"
             id="path1003"
             inkscape:connector-curvature="0" />
          <path
             d="M 47.458082,349.42603 Q 46.437683,350.4143 44.196018,351.45076 43.448796,353.57191 42.516778,354.44769 41.584759,355.3315 40.572394,355.3315 40.058177,355.3315 39.744826,355.01815 39.43951,354.70479 39.43951,354.18254 39.43951,352.59972 42.340015,351.31418 L 42.830129,349.58673 Q 41.311581,351.28204 40.162627,351.28204 39.54396,351.28204 39.158297,350.77585 38.780669,350.26967 38.780669,349.42603 38.780669,348.2128 39.310955,346.82281 L 40.082281,344.78201 42.420362,344.37225 41.416032,346.75853 Q 40.725052,348.48598 40.725052,349.36176 40.725052,350.08488 41.215166,350.08488 41.713313,350.08488 42.34805,349.28141 42.990821,348.47795 43.424692,347.30489 L 44.340641,344.78201 46.534098,344.37225 44.445092,350.65534 Q 46.285025,349.8117 47.458082,348.50205 Z M 42.107011,352.10961 Q 41.11875,352.55151 40.580429,353.09787 40.050142,353.65226 40.050142,354.18254 40.050142,354.72086 40.508117,354.72086 41.399962,354.72086 42.107011,352.10961 Z"
             style="font-style:normal;font-variant:normal;font-weight:normal;font-stretch:normal;font-family:'Script MT Bold';-inkscape-font-specification:'Script MT Bold, ';stroke:#00ff00;stroke-width:0.03518232;stroke-miterlimit:4;stroke-dasharray:none;stroke-opacity:1"
             id="path1005"
             inkscape:connector-curvature="0" />
        </g>
        <g
           aria-label="Largest"
           style="font-style:normal;font-weight:normal;font-size:20.08109856px;line-height:1.25;font-family:sans-serif;letter-spacing:0px;word-spacing:0px;fill:#000000;fill-opacity:1;stroke:none;stroke-width:0.13864167"
           id="text983"
           inkscape:label="Largest">
          <path
             d="M 10.732438,335.84782 Q 8.4086,338.21087 5.9769045,338.21087 5.2709284,338.21087 4.6139784,338.02458 3.9668336,337.84808 3.0255321,337.41665 2.0940358,336.98522 1.3782545,336.78912 0.05454926,338.24029 -1.0142201,338.24029 -1.3868187,338.24029 -1.6319493,337.99516 -1.8770799,337.75003 -1.8770799,337.39704 -1.8770799,336.65184 -1.1514933,336.09295 -0.41610149,335.52424 0.91740896,335.30853 1.4763067,334.54372 1.6331903,333.81813 1.7900739,333.08274 1.8783209,331.40605 2.0450097,327.95461 3.721703,326.00337 5.4082015,324.04233 7.3790515,324.04233 8.7321724,324.04233 9.5950321,324.90519 10.467697,325.75824 10.467697,327.09175 10.467697,328.63117 9.5558112,329.78819 8.6439254,330.9452 7.4574933,330.9452 6.8397642,330.9452 6.4867761,330.61183 6.1337881,330.26864 6.1337881,329.68033 6.1337881,329.37637 6.2514508,328.97435 6.5161918,329.27832 6.918206,329.27832 7.5849612,329.27832 8.0850276,328.48409 8.5850941,327.68987 8.5850941,326.59168 8.5850941,325.74844 8.2026903,325.26798 7.8202866,324.77772 7.1535314,324.77772 6.349503,324.77772 5.8984627,325.35623 5.4572276,325.93473 5.2807336,326.73876 5.1042396,327.54279 4.8983299,329.33715 4.7022254,331.1315 4.2315746,332.52385 3.7707291,333.90638 2.49605,335.23989 3.329494,335.18106 3.9374179,335.33794 4.555147,335.49483 5.692553,335.93606 6.8397642,336.36749 7.663403,336.36749 9.2714597,336.36749 10.732438,334.72022 Z"
             style="font-style:normal;font-variant:normal;font-weight:normal;font-stretch:normal;font-family:'Script MT Bold';-inkscape-font-specification:'Script MT Bold, ';stroke:#00ff00;stroke-width:0.03518232;stroke-miterlimit:4;stroke-dasharray:none;stroke-opacity:1"
             id="path1008"
             inkscape:connector-curvature="0" />
          <path
             d="M 21.194612,335.84782 Q 19.625776,337.33821 18.949216,337.78925 18.272655,338.24029 17.654926,338.24029 16.105701,338.24029 16.193948,335.50463 15.213425,336.90678 14.379981,337.57354 13.556342,338.24029 12.673872,338.24029 11.811013,338.24029 11.203089,337.43626 10.60497,336.62243 10.60497,335.4458 10.60497,333.97502 11.408998,332.64151 12.222832,331.308 13.487706,330.48436 14.75258,329.66072 15.723297,329.66072 16.94895,329.66072 17.439211,330.78832 L 19.439477,329.68033 H 19.988569 L 19.12571,332.55326 Q 18.458954,334.72022 18.458954,335.52424 18.458954,336.36749 19.057073,336.36749 19.439477,336.36749 19.900322,335.96548 20.361168,335.55366 21.194612,334.72022 Z M 14.017188,336.3871 Q 14.99771,336.3871 15.86057,334.72022 16.733235,333.04352 16.733235,331.63157 16.733235,331.08248 16.488104,330.77852 16.242974,330.46475 15.831154,330.46475 14.850632,330.46475 13.968162,332.13164 13.095497,333.79852 13.095497,335.20067 13.095497,335.73015 13.350433,336.06353 13.615174,336.3871 14.017188,336.3871 Z"
             style="font-style:normal;font-variant:normal;font-weight:normal;font-stretch:normal;font-family:'Script MT Bold';-inkscape-font-specification:'Script MT Bold, ';stroke:#00ff00;stroke-width:0.03518232;stroke-miterlimit:4;stroke-dasharray:none;stroke-opacity:1"
             id="path1010"
             inkscape:connector-curvature="0" />
          <path
             d="M 28.528918,335.84782 Q 26.067807,338.2599 24.734297,338.2599 24.136178,338.2599 23.724359,337.75983 23.312539,337.24996 23.312539,336.50477 23.312539,335.12223 24.793128,332.79839 24.067541,333.17099 23.204682,333.31807 22.567342,334.4947 21.204416,335.84782 H 20.978896 V 334.96535 Q 21.743703,334.17112 22.361433,333.25924 21.518183,332.88664 21.518183,332.15125 21.518183,331.39624 22.028055,330.54319 22.547732,329.68033 23.449812,329.68033 24.21462,329.68033 24.21462,330.46475 24.21462,331.08248 23.773385,332.22969 25.401052,332.05319 26.6169,329.73916 L 27.509175,329.69994 26.597289,332.21008 Q 26.028586,333.79852 25.861897,334.37703 25.695209,334.94574 25.695209,335.38697 25.695209,335.79879 25.881508,336.04392 26.077612,336.28905 26.401185,336.28905 26.754173,336.28905 27.077745,336.05373 27.401318,335.8086 28.528918,334.72022 Z"
             style="font-style:normal;font-variant:normal;font-weight:normal;font-stretch:normal;font-family:'Script MT Bold';-inkscape-font-specification:'Script MT Bold, ';stroke:#00ff00;stroke-width:0.03518232;stroke-miterlimit:4;stroke-dasharray:none;stroke-opacity:1"
             id="path1012"
             inkscape:connector-curvature="0" />
          <path
             d="M 38.157649,335.84782 Q 36.912386,337.15191 35.176861,337.76964 34.363028,340.30919 33.107959,341.68192 31.862696,343.05466 30.460549,343.05466 29.695741,343.05466 29.22509,342.5742 28.75444,342.09374 28.75444,341.30933 28.75444,340.26017 29.685936,339.42672 30.627237,338.59328 32.872634,337.81867 L 33.294258,335.88704 Q 32.352957,336.946 31.666591,337.44607 30.980225,337.93633 30.284055,337.93633 29.470221,337.93633 28.950544,337.17152 28.430867,336.40671 28.430867,335.18106 28.430867,333.1808 29.950677,331.43547 31.480292,329.68033 33.196206,329.68033 34.147313,329.68033 34.882705,330.48436 35.32394,330.32747 36.029916,330.01371 L 36.726087,329.69994 H 36.951607 Q 36.569203,330.85696 36.363293,331.95514 L 35.441602,336.86756 Q 36.765308,336.36749 38.157649,334.72022 Z M 31.843085,336.17139 Q 32.539256,336.17139 33.078543,335.34775 33.617831,334.52411 33.911987,333.25924 34.215949,331.99436 34.215949,331.5041 34.215949,331.04326 33.980624,330.7491 33.755104,330.44514 33.411921,330.44514 32.372567,330.44514 31.597955,331.84728 30.823342,333.24943 30.823342,334.7006 30.823342,335.37717 31.097888,335.77918 31.38224,336.17139 31.843085,336.17139 Z M 32.666724,338.68153 Q 29.499637,339.81893 29.499637,341.30933 29.499637,341.75056 29.764378,342.02511 30.029119,342.30946 30.440938,342.30946 31.146914,342.30946 31.666591,341.41718 32.186268,340.52491 32.666724,338.68153 Z"
             style="font-style:normal;font-variant:normal;font-weight:normal;font-stretch:normal;font-family:'Script MT Bold';-inkscape-font-specification:'Script MT Bold, ';stroke:#00ff00;stroke-width:0.03518232;stroke-miterlimit:4;stroke-dasharray:none;stroke-opacity:1"
             id="path1014"
             inkscape:connector-curvature="0" />
          <path
             d="M 45.472346,335.84782 Q 44.227083,337.07347 43.236755,337.66178 42.246428,338.24029 41.05019,338.24029 39.71668,338.24029 38.893041,337.38724 38.079208,336.53418 38.079208,335.14184 38.079208,333.06313 39.520575,331.38644 40.961943,329.69994 42.717078,329.69994 43.628964,329.69994 44.178057,330.17059 44.727149,330.64124 44.727149,331.40605 44.727149,333.43573 40.412851,334.7006 40.80506,336.61262 42.462143,336.61262 43.109287,336.61262 43.697601,336.26944 44.285914,335.91645 45.472346,334.72022 Z M 40.334409,334.03385 Q 42.844546,333.32787 42.844546,331.42566 42.844546,330.48436 42.158181,330.48436 41.511036,330.48436 40.922722,331.47469 40.334409,332.45521 40.334409,334.03385 Z"
             style="font-style:normal;font-variant:normal;font-weight:normal;font-stretch:normal;font-family:'Script MT Bold';-inkscape-font-specification:'Script MT Bold, ';stroke:#00ff00;stroke-width:0.03518232;stroke-miterlimit:4;stroke-dasharray:none;stroke-opacity:1"
             id="path1016"
             inkscape:connector-curvature="0" />
          <path
             d="M 48.492356,330.10195 Q 49.168917,329.92546 49.855283,329.8176 50.541648,329.69994 50.678921,329.69994 50.776974,329.69994 50.776974,329.77838 50.776974,329.92546 50.698532,330.08234 50.541648,330.53338 50.541648,330.9452 50.541648,331.45508 51.129962,332.33755 51.718275,333.22002 51.718275,333.97502 51.718275,335.47522 50.276907,336.86756 48.845345,338.2599 47.305924,338.2599 46.639169,338.2599 46.090077,337.90691 45.540984,337.55392 45.540984,337.15191 45.540984,336.91659 46.080271,336.25964 46.629364,335.60269 46.864689,335.60269 47.178456,335.60269 47.423587,336.40671 47.668718,337.21074 48.266836,337.21074 48.864955,337.21074 49.384632,336.66165 49.914114,336.10275 49.914114,335.46541 49.914114,334.84768 49.247359,333.81813 48.580604,332.78859 48.364889,332.09242 47.227483,333.92599 45.482153,335.84782 H 45.256633 V 334.96535 Q 47.658912,332.40618 48.492356,330.10195 Z"
             style="font-style:normal;font-variant:normal;font-weight:normal;font-stretch:normal;font-family:'Script MT Bold';-inkscape-font-specification:'Script MT Bold, ';stroke:#00ff00;stroke-width:0.03518232;stroke-miterlimit:4;stroke-dasharray:none;stroke-opacity:1"
             id="path1018"
             inkscape:connector-curvature="0" />
          <path
             d="M 59.2781,335.84782 Q 58.042642,337.07347 57.140561,337.66178 56.238481,338.24029 55.424647,338.24029 54.581398,338.24029 54.051916,337.53431 53.532239,336.81853 53.532239,335.66152 53.532239,334.64177 54.0225,332.96508 L 54.45393,331.48449 53.698928,331.52371 54.012695,329.98429 54.944191,329.94507 55.865882,326.88584 58.493682,326.34655 57.493549,329.75877 58.856476,329.68033 58.532903,331.19033 57.013094,331.308 56.356143,333.50437 Q 56.022766,334.65158 56.022766,335.32814 56.022766,335.78898 56.248286,336.08314 56.483611,336.36749 56.846405,336.36749 57.346471,336.36749 57.836732,336.05373 58.326994,335.73015 59.2781,334.72022 Z"
             style="font-style:normal;font-variant:normal;font-weight:normal;font-stretch:normal;font-family:'Script MT Bold';-inkscape-font-specification:'Script MT Bold, ';stroke:#00ff00;stroke-width:0.03518232;stroke-miterlimit:4;stroke-dasharray:none;stroke-opacity:1"
             id="path1020"
             inkscape:connector-curvature="0" />
        </g>
      </g>
      <g
         transform="matrix(0.55330494,0,0,0.55330494,-0.20880362,195.7839)"
         inkscape:label="2 VP"
         id="g973"
         style="font-style:normal;font-variant:normal;font-weight:normal;font-stretch:normal;font-size:14.19036674px;line-height:1.25;font-family:'Script MT Bold';-inkscape-font-specification:'Script MT Bold, ';text-align:center;letter-spacing:0px;word-spacing:0px;text-anchor:middle;fill:#ffffff;fill-opacity:1;stroke:none;stroke-width:0.47818714"
         aria-label="2 VP">
        <circle
           style="opacity:1;fill:#fffffe;fill-opacity:1;fill-rule:nonzero;stroke:#00ff00;stroke-width:0.04518304;stroke-linecap:round;stroke-linejoin:round;stroke-miterlimit:4;stroke-dasharray:none;stroke-opacity:1;paint-order:normal"
           id="circle961"
           cx="52.248432"
           cy="364.31091"
           r="18.436487"
           inkscape:label="White" />
        <circle
           inkscape:label="Black"
           r="16.628716"
           cy="364.31091"
           cx="52.248432"
           id="circle963"
           style="opacity:1;fill:#000000;fill-opacity:1;fill-rule:nonzero;stroke:#00ff00;stroke-width:0.04518304;stroke-linecap:round;stroke-linejoin:round;stroke-miterlimit:4;stroke-dasharray:none;stroke-opacity:1;paint-order:normal" />
        <g
           id="g971">
          <path
             d="M 49.151218,360.99218 Q 50.090776,360.70116 50.97213,360.70116 51.138424,360.70116 52.152813,360.79262 53.175517,360.87577 53.366755,360.87577 53.840691,360.87577 54.140019,360.70948 54.447662,360.53487 54.630584,360.03599 54.688787,359.8697 54.74699,359.8697 54.896654,359.8697 55.071262,359.95284 55.24587,360.02768 55.24587,360.07756 55.24587,360.35195 54.796878,361.2915 54.3562,362.22275 53.890579,362.5387 53.424958,362.85466 52.4854,362.85466 52.277533,362.85466 51.022018,362.74657 49.774818,362.6468 49.542007,362.6468 48.72717,362.6468 48.336381,362.74657 47.945591,362.85466 47.904018,362.85466 47.787612,362.85466 47.787612,362.69668 47.787612,362.1978 47.970535,361.71555 48.161773,361.2333 48.810317,360.44341 49.467175,359.6452 50.747634,358.4562 L 51.687192,357.59148 Q 52.801357,356.54383 53.250349,355.58764 53.707656,354.62314 53.707656,353.62538 53.707656,352.77728 53.266979,352.26178 52.834616,351.74627 52.127869,351.74627 51.454381,351.74627 50.955501,352.23683 50.456621,352.71908 50.456621,353.38426 50.456621,353.94134 51.005389,354.3737 51.296402,354.58988 51.296402,354.76449 51.296402,354.9973 50.664488,355.30494 50.032573,355.61259 49.641783,355.61259 49.325826,355.61259 49.093015,355.31326 48.860205,355.00562 48.860205,354.57325 48.860205,353.1847 50.190552,352.01234 51.529213,350.83165 53.133944,350.83165 54.455976,350.83165 55.304073,351.63817 56.160483,352.43638 56.160483,353.67527 56.160483,354.67303 55.595086,355.52113 55.038003,356.36922 54.256424,357.00945 53.474846,357.64137 52.194387,358.51441 50.913928,359.37913 50.232125,359.91127 49.558637,360.43509 49.151218,360.99218 Z"
             style="font-style:normal;font-variant:normal;font-weight:normal;font-stretch:normal;font-size:17.02844048px;font-family:'Script MT Bold';-inkscape-font-specification:'Script MT Bold, ';text-align:center;text-anchor:middle;fill:#ffffff;fill-opacity:1;stroke-width:0.04518304;stroke:#00ff00;stroke-opacity:1;stroke-miterlimit:4;stroke-dasharray:none"
             id="path965"
             inkscape:connector-curvature="0"
             inkscape:label="path985" />
          <path
             d="M 50.97213,365.75053 Q 51.2382,365.75053 51.512584,366.56537 51.786968,367.38021 51.786968,368.25325 51.786968,370.19057 50.922242,372.55193 50.065832,374.90498 48.718855,376.35174 47.380194,377.79017 45.933441,377.79017 44.761073,377.79017 44.021068,376.95871 43.289377,376.12724 43.289377,374.78858 43.289377,373.53306 44.195676,371.13012 45.027143,368.84359 45.027143,367.86246 45.027143,367.21392 44.777703,366.85638 44.528263,366.49885 44.087585,366.49885 43.405782,366.49885 42.798812,367.2638 42.200155,368.02044 42.200155,368.89348 42.200155,369.60022 42.566001,369.94944 42.931846,370.29034 42.931846,370.46495 42.931846,370.76428 42.566001,371.16338 42.20847,371.55417 41.925771,371.55417 41.576555,371.55417 41.277227,371.08024 40.977899,370.59798 40.977899,370.00764 40.977899,368.49437 42.058806,367.11414 43.148028,365.7339 44.603095,365.7339 45.71726,365.7339 46.382434,366.57369 47.055922,367.40515 47.055922,368.81033 47.055922,369.45888 46.889628,370.27371 46.723335,371.08855 46.074791,372.83463 45.434561,374.5724 45.434561,375.47038 45.434561,376.06072 45.775463,376.45151 46.124679,376.83399 46.648503,376.83399 47.446711,376.83399 48.319751,375.88611 49.192791,374.92993 49.766504,373.41666 50.340216,371.89507 50.340216,370.48158 50.340216,369.14292 49.525378,367.58808 49.267623,367.12245 49.267623,366.93953 49.267623,366.62357 49.991,366.19121 50.72269,365.75053 50.97213,365.75053 Z"
             style="font-style:normal;font-variant:normal;font-weight:normal;font-stretch:normal;font-size:17.02844048px;font-family:'Script MT Bold';-inkscape-font-specification:'Script MT Bold, ';text-align:center;text-anchor:middle;fill:#ffffff;fill-opacity:1;stroke-width:0.04518304;stroke:#00ff00;stroke-opacity:1;stroke-miterlimit:4;stroke-dasharray:none"
             id="path967"
             inkscape:connector-curvature="0" />
          <path
             d="M 59.685902,365.7339 Q 61.440297,365.7339 62.479631,366.59031 63.518964,367.43841 63.518964,368.86022 63.518964,370.17394 62.7457,370.97215 61.980751,371.76204 61.423668,371.76204 61.215801,371.76204 60.949732,371.57912 60.691977,371.39619 60.691977,371.24653 60.691977,371.16338 61.082767,370.64787 61.99738,369.51708 61.99738,368.40291 61.99738,367.46336 61.365465,366.91459 60.733551,366.3575 59.652644,366.3575 58.022969,366.3575 56.700936,367.35526 55.378904,368.34471 55.378904,369.52539 55.378904,370.30697 56.093966,370.59798 56.376664,370.72271 56.376664,370.93889 56.376664,371.16338 55.753064,371.46271 55.129464,371.76204 54.880024,371.76204 54.505864,371.76204 54.173277,371.27147 53.840691,370.77259 53.840691,370.19057 53.840691,368.62741 55.520254,367.18066 57.199817,365.7339 59.685902,365.7339 Z M 61.24906,367.89572 Q 60.700292,368.38628 60.450852,369.04314 60.201412,369.69169 59.943657,371.76204 59.685902,373.82408 59.103876,375.01307 58.530163,376.20207 57.282963,377.00028 56.044078,377.79017 54.555752,377.79017 53.499789,377.79017 52.834616,377.26635 52.177757,376.74252 52.177757,375.92769 52.177757,375.62004 52.368994,375.42881 52.560232,375.22926 53.150573,374.89667 53.740915,374.56408 53.948781,374.56408 54.090131,374.56408 54.189907,374.66386 54.289683,374.75532 54.289683,374.88835 54.289683,374.9715 54.206536,375.50364 54.131704,376.03578 54.131704,376.13555 54.131704,377.125 54.963171,377.125 55.902728,377.125 56.542958,376.02746 57.183187,374.92161 57.465886,372.58519 57.756899,370.24045 58.338926,369.27595 58.920953,368.31145 59.694217,367.91235 60.475796,367.50493 60.775124,367.50493 60.982991,367.50493 61.24906,367.89572 Z"
             style="font-style:normal;font-variant:normal;font-weight:normal;font-stretch:normal;font-size:17.02844048px;font-family:'Script MT Bold';-inkscape-font-specification:'Script MT Bold, ';text-align:center;text-anchor:middle;fill:#ffffff;fill-opacity:1;stroke-width:0.04518304;stroke:#00ff00;stroke-opacity:1;stroke-miterlimit:4;stroke-dasharray:none"
             id="path969"
             inkscape:connector-curvature="0" />
        </g>
      </g>
      <path
         inkscape:label="White Border"
         inkscape:connector-curvature="0"
         id="path975"
         transform="matrix(0.26458333,0,0,0.26458333,-178.3943,152.88384)"
         d="M 782.70703,572.11719 598.00977,678.75195 V 891.74805 L 782.49805,998.52148 967.43164,891.75 V 678.76758 Z M 782.70898,580.84766 C 841.7641,614.94213 900.81793,649.03635 959.87305,683.13086 V 887.38867 C 900.74657,921.52249 841.62062,955.65524 782.49414,989.78906 723.51776,955.6577 664.54083,921.52593 605.56445,887.39453 V 683.11523 Z"
         style="display:inline;fill:#ffffff;fill-opacity:1;stroke:none;stroke-width:0.47244096;stroke-linecap:butt;stroke-linejoin:round;stroke-miterlimit:4;stroke-dasharray:none;stroke-opacity:1" />
      <path
         inkscape:tile-y0="-6.0590121"
         inkscape:tile-x0="-2.7358529"
         inkscape:label="Base Hex"
         inkscape:connector-curvature="0"
         d="M -20.170903,332.47013 28.696767,304.25637 77.571927,332.47447 V 388.82606 L 28.641437,417.07612 -20.170903,388.82549"
         style="fill:none;stroke:#ff0000;stroke-width:0.025;stroke-linecap:butt;stroke-linejoin:round;stroke-miterlimit:4;stroke-dasharray:none;stroke-opacity:1"
         id="path977"
         sodipodi:nodetypes="cccccc" />
    </g>
  </g>
</svg>
