<?xml version="1.0" encoding="UTF-8" standalone="no"?>
<!-- Created with Inkscape (http://www.inkscape.org/) -->

<svg
   xmlns:dc="http://purl.org/dc/elements/1.1/"
   xmlns:cc="http://creativecommons.org/ns#"
   xmlns:rdf="http://www.w3.org/1999/02/22-rdf-syntax-ns#"
   xmlns:svg="http://www.w3.org/2000/svg"
   xmlns="http://www.w3.org/2000/svg"
   xmlns:sodipodi="http://sodipodi.sourceforge.net/DTD/sodipodi-0.dtd"
   xmlns:inkscape="http://www.inkscape.org/namespaces/inkscape"
   width="11.543921in"
   height="3.9642599in"
   viewBox="0 0 293.2156 100.6922"
   version="1.1"
   id="svg8"
   inkscape:version="0.92.4 (5da689c313, 2019-01-14)"
   sodipodi:docname="Ore.svg">
  <defs
     id="defs2" />
  <sodipodi:namedview
     id="base"
     pagecolor="#ffffff"
     bordercolor="#666666"
     borderopacity="1.0"
     inkscape:pageopacity="0.0"
     inkscape:pageshadow="2"
     inkscape:zoom="0.70710678"
     inkscape:cx="419.54384"
     inkscape:cy="296.66243"
     inkscape:document-units="mm"
     inkscape:current-layer="layer1"
     showgrid="false"
     inkscape:snap-object-midpoints="false"
     inkscape:snap-midpoints="true"
     inkscape:measure-start="712.663,1316.73"
     inkscape:measure-end="727.727,1282.19"
     inkscape:window-width="1920"
     inkscape:window-height="1017"
     inkscape:window-x="-8"
     inkscape:window-y="-8"
     inkscape:window-maximized="1"
     inkscape:snap-intersection-paths="true"
     inkscape:snap-global="true"
     units="mm"
     fit-margin-top="0"
     fit-margin-left="0"
     fit-margin-right="0"
     fit-margin-bottom="0" />
  <metadata
     id="metadata5">
    <rdf:RDF>
      <cc:Work
         rdf:about="">
        <dc:format>image/svg+xml</dc:format>
        <dc:type
           rdf:resource="http://purl.org/dc/dcmitype/StillImage" />
        <dc:title></dc:title>
      </cc:Work>
    </rdf:RDF>
  </metadata>
  <g
     inkscape:label="Layer 1"
     inkscape:groupmode="layer"
     id="layer1"
     transform="translate(145.26081,-307.85457)">
    <g
       id="g1009"
       inkscape:label="Ore">
      <g
         transform="translate(8.602555,115.91163)"
         id="g2284"
         inkscape:label="Ore">
        <g
           id="g1394"
           inkscape:label="g1394">
          <path
             inkscape:connector-curvature="0"
             id="path1375"
             transform="matrix(0.26458333,0,0,0.26458333,-186.99685,36.97221)"
             d="M 989.93359,633.66602 C 986.00603,633.60467 981.8631,635.48316 979.88867,637.18164 H 979.7207 C 945.92228,676.22352 911.61701,715.97836 877.84766,755.04492 876.96925,755.75203 876.2009,756.60905 875.45117,757.49219 V 827.57812 H 864.0957 V 836.34766 C 872.21515,836.3226 880.19474,838.43733 887.23438,842.47852 887.57181,842.67334 887.89593,842.88201 888.22656,843.08398 887.57465,840.87101 887.20416,838.90631 887.22266,837.33008 887.27784,832.61912 893.68449,819.73708 896.84961,809.70508 897.54963,807.48631 897.9724,805.4123 898.18945,803.5957 899.19618,805.49329 900.07594,807.40404 900.95117,809.37109 896.37173,815.21632 891.28612,828.30855 892.91602,841.26367 893.18015,843.36316 893.665,845.43293 894.29688,847.49805 910.81105,861.70522 915.4317,886.0898 904.13086,905.66797 L 911.72852,910.05273 914.48438,905.28125 C 913.08659,903.15674 911.69597,901.08637 910.32617,899.10742 912.18311,900.34266 914.06083,901.55839 915.92578,902.78711 L 917.4375,900.16797 955.9043,922.37695 C 956.43069,921.6415 956.82587,920.78773 957.03711,919.86719 958.42437,916.26919 961.88917,914.47647 963.98438,911.41211 967.18963,906.91149 968.92819,901.69107 970.51367,896.42773 972.12208,893.41224 973.59069,890.27138 975.70312,887.63867 980.41219,880.00369 985.06672,872.34435 989.76562,864.70312 990.07383,864.60614 990.3757,864.45502 990.6875,864.36719 992.22538,863.65467 993.2863,860.92145 992.86328,859.67969 1018.2051,818.44546 1043.4828,777.18369 1068.7031,735.875 1069.8976,735.05019 1072.3782,732.10813 1072.5547,730.18359 1074.3127,726.68976 1075.6291,722.74622 1077.7441,719.63477 1082.627,711.04817 1088.3161,703.4807 1094.5703,697.0332 1095.1487,696.45021 1095.7398,695.92029 1096.3281,695.35938 1086.3664,713.38579 1078.63,729.81126 1067.9512,748.17969 1065.4693,751.34043 1024.1635,845.56693 1022.5801,849.55078 1021.6098,861.36044 1041.9552,840.90773 1052.7988,821.42578 1044.8347,841.19902 1032.5681,868.06772 1032.207,877.17578 1032.3391,895.02316 1060.8816,876.43749 1059.7461,894.25195 1058.9374,898.3487 1063.0509,895.00922 1063.5137,892.99609 1065.0456,888.88189 1064.4732,884.36655 1065.3555,880.10547 1066.4243,872.41644 1066.7595,864.54759 1068.1172,856.91797 1070.113,850.71603 1074.4341,845.49747 1075.6523,839.00391 1078.4981,828.00079 1081.5323,817.04656 1084.6094,806.10547 1083.3485,820.27053 1083.4054,834.62344 1085.8633,848.63086 1083.6129,854.71541 1081.3166,860.78778 1079.084,866.87891 1075.551,868.80446 1079.5136,874.6779 1082.7676,872.90625 1086.1098,868.97955 1086.8158,863.8143 1088.125,858.92578 1090.927,868.80074 1096.0333,878.26133 1104.3633,884.45703 1107.7315,886.94748 1112.6014,888.94784 1116.5859,886.71875 1120.2438,884.34249 1119.1567,877.96168 1115.0781,876.67188 1111.5652,874.30736 1110.7193,869.55081 1111.8984,865.70703 1113.2212,857.35352 1112.2112,848.69516 1114.6602,840.50977 1116.3663,832.33465 1120.056,824.78983 1123.1152,817.07227 1124.5882,813.44033 1129.1368,811.31488 1132.4062,814.05859 1135.3781,816.3632 1138.1573,820.06531 1142.3672,819.66797 1147.409,819.43466 1150.7441,814.62796 1151.6582,810.04102 1154.8313,797.40046 1150.5777,784.27321 1144.627,773.125 1138.6315,761.81594 1131.7356,751.07813 1125.375,739.97656 1120.1725,722.92201 1117.2562,706.28908 1115.6641,708 1116.5281,706.55142 1117.5506,705.21844 1118.6777,703.98242 1124.889,720.29052 1128.4606,746.75987 1138.1816,750.85938 1143.59,753.05796 1148.8819,755.67824 1154.0039,758.47656 1158.0012,762.72456 1152.6085,767.30659 1149.3984,769.69336 1147.5481,774.80804 1154.3881,777.69407 1157.9375,774.38086 1163.132,771.75722 1166.8325,764.39079 1162.793,759.3125 1156.9361,750.71997 1149.0041,739.47359 1140.1074,734.95312 1134.5245,732.62199 1145.442,691.87104 1139.6895,690.00195 1134.4442,692.43502 1123.4863,668.07341 1126.7148,663.13281 1127.8177,661.10812 1137.0856,665.97292 1148.5625,674.09766 1144.6392,673.11332 1133.2443,666.78424 1134.416,670.41406 1134.8416,674.72348 1141.0465,682.23079 1144.4609,691.17383 1149.0602,703.22009 1145.4193,723.00112 1146.8887,728.5918 1155.0418,752.87791 1178.8999,762.92883 1195.6055,782.33398 1201.328,788.93206 1208.2622,795.73683 1208.832,805.01758 1209.9586,812.20484 1209.6582,819.79035 1212.7656,826.53125 1211.8162,819.10656 1214.2836,811.71674 1213.8555,804.26562 1214.3473,793.61616 1214.943,781.63935 1207.7441,772.875 1197.7258,759.27868 1193.5557,736.5653 1184.0547,722.56445 1178.1444,713.85495 1174.5939,702.35026 1170.6602,691.67578 1173.91,694.55408 1177.0496,697.49133 1180.0371,700.4668 1195.0198,715.3889 1203.9868,740.68009 1205.4844,745.75195 1206.5779,745.74726 1212.8668,750.30181 1221.9688,757.30273 V 729.77344 C 1202.5225,711.07385 1187.597,696.50688 1185.8125,693.9375 1181.7166,690.69739 1174.2135,685.387 1165.8066,679.78906 1165.7742,679.76763 1165.755,679.72846 1165.7227,679.70703 1165.229,678.95506 1164.2511,678.47756 1163.127,678.0332 1146.1066,666.85642 1126.0371,655.10119 1120.0176,655.84961 1118.9289,655.35585 1118.2973,655.08241 1117.8418,655.26367 1116.4751,655.80747 1116.0636,660.32151 1105.2852,674.34961 1102.0313,678.58453 1097.6698,683.88447 1093.3145,689.16602 1091.2574,690.98714 1089.2565,692.87929 1087.2871,694.85742 1084.4522,697.93407 1081.8724,701.54515 1079.418,705.23828 1070.0176,723.37544 1082.4402,696.43927 1067.8672,720.89062 1067.6647,722.34109 1067.2999,723.80516 1067.0293,725.24414 1061.6581,736.40849 1053.1454,755.93379 1049.1152,758.72656 1043.5085,763.49599 1036.86,775.86922 1030.1152,779.23633 1025.0106,778.76925 1030.3298,780.39391 1027.9375,782.91992 1021.5615,799.02041 1016.5644,810.313 1007.9316,825.35938 1000.3128,839.12997 990.65629,852.09366 981.06055,865.03711 974.81242,867.82591 967.98283,869.33178 961.22266,868.21875 954.05661,856.38505 947.3695,844.22098 940.62891,832.14062 931.02909,817.88175 916.95473,807.64913 905.2207,795.30859 896.77561,786.95932 888.39887,778.53594 879.85742,770.2793 882.26786,765.89074 884.63535,760.44643 886.7207,759.3125 896.2865,748.16361 905.72219,736.8829 915.68359,726.08203 915.55636,727.32678 915.41791,728.5614 915.26562,729.76367 916.06314,736.6407 919.27939,739.45875 920.875,738.97266 921.51431,739.07868 922.16503,739.00706 922.7168,738.97266 931.52102,736.62168 933.94028,789.28078 941.21484,781.99805 944.05486,778.92608 951.98085,715.95861 954.44141,712.26953 956.4555,710.27545 959.53416,712.05568 960.2168,715.36719 961.61287,720.04454 963.96046,724.92226 967.58398,726.16406 969.30504,726.47878 970.7313,727.95631 971.68555,730.01562 969.99879,726.63023 970.95571,721.6755 968.83984,718.63086 966.47653,716.51304 964.9479,712.63725 965.07227,708.58594 965.09638,704.57423 965.59764,700.57285 965.99414,696.61523 966.14736,695.53013 966.35868,694.42676 966.58008,693.35156 966.85705,693.17797 967.0347,693.12436 967.33203,692.93164 970.40255,689.23405 973.04177,689.79567 975.36914,692.01172 975.67113,695.16195 975.96417,698.27477 976.12305,701.4707 975.46098,715.20611 974.11911,728.82952 972.94141,742.4043 972.0775,756.23211 968.79522,768.67506 965.07227,780.07227 964.3536,783.41518 962.12589,785.51286 962.39453,789.61523 962.75476,791.00485 963.49509,789.40397 963.73242,788.61133 966.44327,782.22808 968.86672,775.37433 971.18359,768.35352 975.32234,755.18817 981.5796,744.90054 984.41016,730.01562 985.39546,720.98868 987.25902,712.56027 989.18164,704.23242 999.24066,697.69395 1022.5326,673.05804 1025.0078,678.11523 1037.2527,703.13336 1028.7963,689.52016 1051.293,711.93359 1060.6133,727.37863 1053.7352,708.53801 1050.707,701.63867 1035.814,686.04506 1053.2864,704.58277 1038.5684,688.83008 1026.6885,661.56959 1008.6624,642.75331 996.46289,636.00977 996.20574,635.86754 995.79492,635.68999 995.45898,635.67578 993.89887,634.30574 991.96392,633.69773 989.93359,633.66602 Z M 1205.4844,745.75195 C 1205.2044,745.75305 1205.2438,745.98365 1205.6504,746.58984 1205.6169,746.44119 1205.5822,746.08349 1205.4844,745.75195 Z M 996.37891,638.35352 C 996.43436,638.42102 996.48741,638.45077 996.54688,638.52148 1005.0767,648.66986 1027.3551,672.16893 1025.1758,671.58594 1023.067,671.02177 1007.5756,671.43932 1005.5039,667.65234 1003.6012,664.17446 996.74493,663.36724 994.28711,657.69141 992.17173,652.80644 996.16539,643.15692 996.37891,638.35352 Z M 979.21875,639.52539 C 979.32054,639.57573 979.41754,639.65749 979.55469,639.69336 979.41941,639.6773 979.27387,639.67998 979.13477,639.69336 979.16637,639.63927 979.18741,639.57974 979.21875,639.52539 Z M 969.50977,653.58984 C 965.04878,663.25856 960.55168,675.12967 957.20312,680.04102 965.35586,674.60651 986.44935,662.40848 981.3125,665.72656 973.19453,671.73446 955.6068,682.42862 947.41016,688.32812 946.14943,684.11006 950.06553,680.97049 952.09766,677.78125 956.94582,668.94649 963.38144,661.40802 969.50977,653.58984 Z M 1107.8789,691.08984 C 1109.5834,691.17424 1111.0971,691.97759 1112.4844,693.26758 1112.4013,693.45992 1112.3417,693.67357 1112.2324,693.85352 1112.0556,694.34228 1111.9744,694.88308 1111.9824,695.35938 1110.5595,694.05703 1109.1994,692.488 1107.8789,691.08984 Z M 948.83398,694.52344 C 941.6802,699.5459 931.20942,709.57972 922.29688,726.16406 921.79886,727.09076 921.52119,727.81026 921.29297,728.42383 920.82326,726.80971 920.76064,724.99092 921.62695,723.57031 921.74024,722.06366 920.8346,721.09639 921.29297,720.05469 923.97435,717.26993 926.70711,714.53307 929.49609,711.84961 936.94343,707.78888 938.18056,697.76994 945.98633,695.10938 947.05804,694.8699 947.96507,694.64295 948.83398,694.52344 Z M 955.44531,694.94141 C 956.2007,695.19989 956.80788,695.51329 957.37109,695.7793 956.98223,696.50383 956.64964,697.21085 956.19922,697.87109 954.13125,701.49373 951.59753,703.4365 948.91602,704.98633 951.77151,700.89197 954.01755,697.46893 955.44531,694.94141 Z M 1115.4141,708.50195 C 1114.8499,710.04098 1114.5102,714.63324 1114.2422,723.40234 1111.0132,727.2222 1108.0145,731.24649 1105.3691,735.45703 1107.5602,728.62894 1109.8934,721.78232 1112.3164,715.03125 1113.2087,712.8104 1114.2137,710.59706 1115.4141,708.50195 Z M 1117.1719,738.05078 C 1115.5566,743.44931 1108.2061,774.03896 1105.4512,775.7207 1104.7228,780.70148 1105.1326,786.66993 1109.5527,789.86719 1110.6749,791.45173 1123.4683,777.24455 1125.5,774.71484 1118.9965,783.70654 1111.6162,797.23172 1109.2188,801.25195 1109.1708,800.20861 1108.8165,799.43925 1107.5449,799.91211 1101.9569,802.66727 1100.6256,809.33403 1098.5039,814.64453 1098.5561,813.69776 1098.563,812.74639 1098.5879,811.79883 L 1100.6797,786.26758 C 1099.2267,781.25978 1102.8527,776.82498 1104.1133,772.20508 1105.474,769.09642 1113.492,737.88769 1117.1719,738.05078 Z M 1166.3086,772.03711 1169.4062,785.68164 C 1168.8452,783.6125 1165.2036,782.14837 1163.4629,780.91016 1160.9664,779.13412 1161.8907,778.62506 1163.5449,787.94141 1163.569,795.32483 1167.2722,800.48174 1166.5586,807.86523 1164.693,819.98803 1153.036,821.09344 1146.8047,831.97266 1141.6293,838.5739 1150.6862,869.18914 1143.1211,867.54883 1139.2911,866.47869 1124.7333,848.19116 1125.709,853.9043 1126.3289,857.43116 1129.8292,859.10487 1132.9082,859.93164 1146.9754,866.61857 1122.4981,915.16435 1132.3223,927.14844 1132.4256,927.27117 1132.5222,927.40018 1132.625,927.52344 L 1138.9453,923.875 C 1137.8906,922.45089 1136.8403,921.03238 1135.8379,919.61523 1131.9858,914.95001 1164.3309,872.21835 1160.1133,867.88281 1154.3387,867.58971 1151.8559,858.61154 1157.0156,855.74609 1160.0338,853.73842 1177.0051,867.8662 1187.6074,889.24023 1186.9897,885.00203 1186.9493,880.69823 1187.5137,876.45312 1180.9187,865.91645 1174.1062,853.66804 1172.8379,843.52344 1169.8464,819.59665 1191.0646,827.06048 1187.0684,810.29102 1180.6229,783.24385 1174.494,787.69681 1172.502,785.0957 1171.8731,784.34207 1167.3731,772.26282 1166.3086,772.03711 Z M 879.01953,777.05859 C 883.10376,781.61697 887.03708,786.30693 890.57227,791.28906 L 886.4707,788.35938 C 885.12689,787.39805 882.14774,782.3104 879.01953,777.05859 Z M 1191.5879,805.01758 C 1190.7067,804.83677 1190.7147,808.60363 1192.0898,816.40234 1193.2772,823.13621 1193.0229,832.93243 1191.5039,838.16602 1189.5704,844.82787 1191.1559,853.2124 1194.0273,858.21484 1196.9282,853.54557 1200.5976,849.51062 1204.8066,846.21289 1204.926,842.85208 1205.9783,842.39542 1209.3379,843.08789 1215.771,839.1816 1223.1357,836.83429 1230.8516,836.41992 L 1227.3164,827.57812 H 1225.4258 L 1220.6348,831.7207 C 1215.4945,836.22114 1213.2669,836.5467 1207.3262,833.39453 1201.3894,830.24441 1199.5698,827.51813 1196.6113,817.32422 1194.2917,809.3318 1192.469,805.19832 1191.5879,805.01758 Z M 1107.377,807.02734 C 1105.0047,816.92445 1102.7661,826.88108 1099.9277,836.66016 1098.8614,839.90303 1097.6134,847.05271 1096.7461,847.87695 1096.2762,843.07302 1096.4539,838.26366 1096.8301,833.47852 1099.9527,824.51238 1103.3249,815.61292 1107.377,807.02734 Z M 906.97852,825.19141 C 909.68175,832.73153 912.18772,840.34787 914.67969,847.96094 911.60604,843.11332 909.13233,838.40072 908.31836,834.40039 907.71314,831.42609 907.3295,828.27822 906.97852,825.19141 Z M 977.29492,870.22656 C 974.60872,873.87486 971.9245,877.51119 969.3418,881.19336 968.65153,879.59689 967.89742,878.07628 966.58008,876.92383 965.94138,875.92902 965.36699,874.91098 964.73828,873.91016 966.04617,874.01889 967.38839,874.03663 968.67188,873.57617 971.70547,872.85799 974.50305,871.56554 977.29492,870.22656 Z"
             style="fill:#000000;stroke-width:1.00000012"
             sodipodi:nodetypes="ccccccccccccccccccccccccccccccccccccccccccccccccccccccccccccccccccccccccccccccccccccccccccccccccccccccccccccccccccccccccccccccccccscccccccccccccccccccccccccccccccccccccccccccccccccccccccccccccccccccccccccccccccccccccccccccccccccccccccccccccccc" />
          <path
             sodipodi:nodetypes="cccccccccccccccccccccccccccccc"
             style="fill:none;stroke:#00ff00;stroke-width:0.096;stroke-miterlimit:4;stroke-dasharray:none;stroke-opacity:1"
             d="M 1051.293,711.93359 C 1060.6133,727.37863 1053.7352,708.53801 1050.707,701.63867 1035.814,686.04506 1053.2864,704.58277 1038.5684,688.83008 1026.6885,661.56959 1008.6624,642.75331 996.46289,636.00977 996.20574,635.86754 995.79492,635.68999 995.45898,635.67578 993.89887,634.30574 991.96392,633.69773 989.93359,633.66602 986.00603,633.60467 981.8631,635.48316 979.88867,637.18164 H 979.7207 C 945.92228,676.22352 911.61701,715.97836 877.84766,755.04492 876.96925,755.75203 876.2009,756.60905 875.45117,757.49219 M 1185.8125,693.9375 C 1181.7166,690.69739 1174.2135,685.387 1165.8066,679.78906 1165.7742,679.76763 1165.755,679.72846 1165.7227,679.70703 1165.229,678.95506 1164.2511,678.47756 1163.127,678.0332 1146.1066,666.85642 1126.0371,655.10119 1120.0176,655.84961 1118.9289,655.35585 1118.2973,655.08241 1117.8418,655.26367 1116.4751,655.80747 1116.0636,660.32151 1105.2852,674.34961 1102.0313,678.58453 1097.6698,683.88447 1093.3145,689.16602 1091.2574,690.98714 1089.2565,692.87929 1087.2871,694.85742 1084.4522,697.93407 1081.8724,701.54515 1079.418,705.23828 1070.0176,723.37544 1082.4402,696.43927 1067.8672,720.89062 1067.6647,722.34109 1067.2999,723.80516 1067.0293,725.24414 1061.6581,736.40849 1053.1454,755.93379 1049.1152,758.72656 1043.5085,763.49599 1036.86,775.86922 1030.1152,779.23633 1025.0106,778.76925 1030.3298,780.39391 1027.9375,782.91992 1016.3019,814.2227 999.67164,839.92873 981.06055,865.03711 M 979.21875,639.52539 C 979.32054,639.57573 979.41754,639.65749 979.55469,639.69336 979.41941,639.6773 979.27387,639.67998 979.13477,639.69336 979.16637,639.63927 979.18741,639.57974 979.21875,639.52539 Z"
             transform="matrix(0.26458333,0,0,0.26458333,-186.99685,36.97221)"
             id="path1521"
             inkscape:connector-curvature="0" />
          <path
             style="color:#000000;font-style:normal;font-variant:normal;font-weight:normal;font-stretch:normal;font-size:medium;line-height:normal;font-family:sans-serif;font-variant-ligatures:normal;font-variant-position:normal;font-variant-caps:normal;font-variant-numeric:normal;font-variant-alternates:normal;font-feature-settings:normal;text-indent:0;text-align:start;text-decoration:none;text-decoration-line:none;text-decoration-style:solid;text-decoration-color:#000000;letter-spacing:normal;word-spacing:normal;text-transform:none;writing-mode:lr-tb;direction:ltr;text-orientation:mixed;dominant-baseline:auto;baseline-shift:baseline;text-anchor:start;white-space:normal;shape-padding:0;clip-rule:nonzero;display:inline;overflow:visible;visibility:visible;opacity:1;isolation:auto;mix-blend-mode:normal;color-interpolation:sRGB;color-interpolation-filters:linearRGB;solid-color:#000000;solid-opacity:1;vector-effect:none;fill:#ffffff;fill-opacity:1;fill-rule:nonzero;stroke:none;stroke-width:2;stroke-linecap:butt;stroke-linejoin:miter;stroke-miterlimit:4;stroke-dasharray:none;stroke-dashoffset:0;stroke-opacity:1;paint-order:stroke fill markers;color-rendering:auto;image-rendering:auto;shape-rendering:auto;text-rendering:auto;enable-background:accumulate"
             d="M 79.942078,191.94294 79.135438,192.40974 77.824888,193.1656 79.334658,195.77497 55.750678,209.3902 54.242858,206.77692 52.129578,207.99567 52.531928,208.83161 C 54.275738,212.45781 54.211578,216.68996 52.194038,220.19294 L 52.190128,220.20075 C 50.163588,223.69434 46.531428,225.86166 42.522158,226.16364 L 41.596378,226.23396 V 228.67341 H 44.602238 V 255.90389 H 41.596378 V 258.34139 L 42.524108,258.40975 C 44.380398,258.54326 46.166438,259.00536 47.735048,259.90584 53.301568,263.11977 55.313068,270.05338 52.559268,275.75936 L 52.154968,276.59725 54.240908,277.80037 55.752628,275.18514 79.336608,288.80037 77.826848,291.41365 79.916688,292.61482 80.438178,291.8492 C 84.002558,286.61078 91.013648,284.88534 96.580748,288.0992 98.146838,289.00727 99.439998,290.3208 100.48505,291.86287 L 101.00848,292.63436 103.11981,291.4117 101.61395,288.80428 125.19795,275.18709 126.70576,277.80037 128.81904,276.58162 128.41668,275.74568 C 126.67263,272.11948 126.737,267.88753 128.75458,264.38436 V 264.3824 L 128.75847,264.37654 C 130.7851,260.88281 134.41707,258.71549 138.42646,258.41365 L 139.35223,258.34334 V 255.90389 H 136.34638 V 228.67341 H 139.35223 V 226.23591 L 138.4245,226.16756 C 136.56821,226.03404 134.78219,225.57193 133.21356,224.67146 127.64735,221.45798 125.63665,214.52383 128.38935,208.81794 L 128.7917,207.98396 126.70576,206.77497 125.19403,209.39411 101.61005,195.77692 103.11981,193.1656 101.03387,191.95661 100.51044,192.72614 C 96.946178,197.96574 89.935418,199.69236 84.367858,196.4781 82.801858,195.57024 81.508688,194.25639 80.463568,192.71442 Z M 99.799498,196.46052 C 99.955458,196.86772 100.18376,197.26006 100.58465,197.49177 L 124.21941,211.1402 C 124.62176,211.37331 125.07817,211.3773 125.51045,211.30817 124.34268,217.05188 126.76555,223.12769 132.0456,226.28083 L 132.10418,226.33942 132.21748,226.40583 C 133.04845,226.88286 133.9318,227.2133 134.82685,227.48981 134.57018,227.82252 134.34632,228.196 134.34637,228.64216 V 255.93514 C 134.34632,256.38908 134.57185,256.77144 134.83662,257.10701 131.60012,258.16395 128.78784,260.33374 127.0241,263.3785 L 127.02021,263.38436 C 127.01947,263.38564 127.019,263.38698 127.01825,263.38826 L 127.01238,263.39998 C 125.26528,266.44254 124.79155,269.95399 125.48896,273.27693 125.06431,273.21461 124.61774,273.2125 124.22333,273.441 L 100.58661,287.08943 H 100.58465 C 100.19793,287.31342 99.987878,287.6958 99.828798,288.08553 99.141428,287.44875 98.414158,286.8497 97.584658,286.36873 L 97.352228,286.23397 H 97.283878 C 91.930078,283.30696 85.508818,284.25297 81.147158,288.11678 80.991418,287.71018 80.766048,287.31728 80.365908,287.08553 H 80.363958 L 56.725278,273.43904 C 56.323458,273.20718 55.869488,273.20394 55.438178,273.27303 56.607348,267.52875 54.184958,261.45059 48.904968,258.29647 L 48.846378,258.23787 48.731138,258.17147 C 47.900158,257.69443 47.016808,257.36399 46.121768,257.08748 46.378428,256.75478 46.602308,256.38129 46.602238,255.93514 V 228.64216 C 46.602308,228.18822 46.376778,227.80586 46.111998,227.47028 49.348478,226.41331 52.160798,224.24351 53.924498,221.1988 L 53.928408,221.19294 53.930358,221.18903 C 55.682928,218.14387 56.157908,214.62751 55.459658,211.30036 55.883658,211.36259 56.329358,211.36398 56.723328,211.1363 L 80.361998,197.48981 H 80.363958 C 80.750688,197.26583 80.960728,196.88345 81.119818,196.49372 81.806938,197.13022 82.534698,197.72782 83.363958,198.20856 L 83.596378,198.34333 H 83.664738 C 89.018118,201.27023 95.438068,200.32373 99.799498,196.46052 Z"
             id="path1259"
             inkscape:connector-curvature="0"
             inkscape:label="White" />
          <path
             sodipodi:nodetypes="ccccccccccccccccccccccccccccccccccccccccccccc"
             inkscape:tile-y0="170.46603"
             inkscape:tile-x0="196.88682"
             inkscape:label="Top Hex"
             inkscape:connector-curvature="0"
             id="use4958"
             d="M 79.881497,192.01499 77.870817,193.17523 79.377467,195.78578 55.739737,209.43327 54.231527,206.81958 52.220837,207.98033 C 54.401787,211.76275 54.401787,216.42335 52.220837,220.21004 50.030677,223.99093 45.994077,226.31968 41.628287,226.32097 V 228.64143 L 44.633007,228.64145 V 255.93536 L 41.628287,255.93535 V 258.2558 C 43.776557,258.24917 45.888157,258.8086 47.750727,259.87783 53.600437,263.25527 55.601907,270.74033 52.221347,276.59699 L 54.231527,277.75722 55.741797,275.14144 79.379527,288.7884 77.870817,291.40156 79.880977,292.5618 79.881497,292.56074 C 83.262857,286.70391 90.746607,284.69392 96.596997,288.07132 98.455797,289.14911 99.997557,290.69808 101.06711,292.56231 L 103.07779,291.40208 101.57116,288.79152 125.20888,275.14403 126.7171,277.75774 128.72777,276.59699 C 126.54647,272.81452 126.54627,268.15368 128.72726,264.36675 130.9175,260.58571 134.95434,258.25691 139.32032,258.2558 V 255.93535 L 136.3156,255.93536 V 228.64145 L 139.32032,228.64143 V 226.32097 C 137.17205,226.3276 135.06046,225.76817 133.19789,224.69895 127.34798,221.32169 125.34626,213.83658 128.72674,207.97979 L 126.71657,206.81958 125.2063,209.43587 101.5691,195.78838 103.07779,193.17575 101.06764,192.01552 101.06711,192.01605 C 97.685567,197.87271 90.201857,199.88244 84.351597,196.50496 82.492937,195.42745 80.951187,193.87885 79.881497,192.01499 Z"
             style="opacity:1;fill:none;fill-opacity:1;fill-rule:nonzero;stroke:#ff0000;stroke-width:0.025;stroke-linecap:round;stroke-linejoin:round;stroke-miterlimit:4;stroke-dasharray:none;stroke-opacity:1;paint-order:stroke fill markers" />
        </g>
        <g
           id="g1399">
          <path
             sodipodi:nodetypes="ccccccsccccccccccccccccccccccccccccccccccccccccccccccccccscccsccccsccccsccccccccccccccccccccccccccccccccccccccccccccccccccccccccccccscccccccccccccccc"
             inkscape:connector-curvature="0"
             id="path1373"
             transform="matrix(0.26458333,0,0,0.26458333,-186.99685,36.97221)"
             d="M 741.23438,700.07617 C 740.06856,698.98253 738.89287,697.89523 737.71875,696.81055 737.64482,696.77143 737.55205,696.75551 737.46875,696.72656 L 737.2168,696.47656 C 723.44969,682.78628 705.54284,682.37124 695.02734,672.87109 691.04193,669.27053 682.76848,668.77191 678.53711,668.76953 677.12665,668.76878 676.15315,668.85156 675.94336,668.85156 675.58932,668.85156 675.40568,669.06529 675.27344,669.4375 674.68841,669.27196 674.07714,669.31788 673.34766,669.52148 656.65197,686.27745 644.23562,706.71654 629.65234,725.27148 628.40716,724.19243 627.06615,723.15503 625.7168,722.17383 616.08893,714.48018 604.28506,710.28202 594.32617,703.17383 597.16509,697.73947 589.74502,704.90051 589.05273,707.52539 581.70065,714.58816 577.30103,726.40411 571.47461,733.72656 558.52179,759.82121 542.81365,779.95126 526.1875,802.2832 524.63981,799.28906 523.37917,796.57942 522.50391,794.41602 519.82808,787.80223 513.83107,779.77989 506.125,771.29883 V 816.75977 C 515.32392,830.9374 525.90676,848.73455 527.10938,848.24023 528.50163,849.79007 530.3012,852.33389 532.23047,855.40039 534.01088,857.86376 535.53279,860.48221 536.78516,863.2168 538.51014,866.37743 540.1778,869.65802 541.58984,872.76758 545.13115,880.56613 552.25697,893.88989 559.47852,906.73047 L 565.17188,910.01758 C 560.86725,901.61001 556.43043,892.58115 553.47656,886.07617 L 544.93945,867.41016 553.05859,871.5957 C 556.91645,873.58946 592.70228,920.40882 603.07812,931.90234 L 605.97656,933.57422 C 604.11662,923.96933 549.20323,844.32304 528.69922,806.88867 530.99535,804.52307 533.2035,802.04531 535.89844,800.27539 543.73723,793.24037 553.23089,783.71718 561.84766,773.23633 566.05136,776.11561 627.13574,818.07933 638.27344,834.76367 642.7415,841.52385 647.26825,848.7886 652.58789,851.42188 671.40795,859.94981 671.20852,900.496 690.33984,902.40039 692.58152,903.19239 714.26057,864.50864 716.45703,865.90234 717.19795,866.82194 717.86735,867.67128 718.38281,868.49805 717.79623,865.89267 717.10333,862.52129 716.625,857.61523 714.64045,854.65212 689.66918,885.37164 687.24414,884.31836 670.97785,881.80758 676.56445,850.14018 660.45703,844.13867 653.53284,842.69028 647.00461,836.15441 641.20312,827.56445 629.41631,808.52248 617.46128,789.52503 606.88281,766.95898 609.8723,767.16229 613.06044,766.97183 614.16602,766.20508 614.62035,760.69899 607.37538,760.61709 605.71094,756.07617 599.05649,745.33744 600.95076,732.29014 598.51172,720.33398 L 599.34961,720.91992 C 606.312,731.36215 622.34907,746.29464 628.3125,752.31055 641.08973,765.20025 649.71464,767.92465 652.33594,764.86523 657.14604,771.48024 661.69768,778.20103 665.06055,785.70898 668.98508,788.67391 659.24949,796.02952 667.06836,796.08984 670.45667,796.79246 676.63739,798.48617 678.45312,794.58203 673.01062,780.79961 663.79401,768.82989 655.09961,756.91406 649.5367,749.57622 644.49582,741.67174 638.60742,734.56445 635.84209,729.77908 638.04771,724.48801 641.95703,721.16992 650.36706,709.62226 658.81757,698.05113 668.07422,687.18359 671.74776,685.13297 677.76229,684.57066 679.54102,680.4043 680.90872,682.64643 683.21491,688.82468 685.15039,695.72266 689.80727,712.3197 692.93651,715.89882 715.45312,730.37891 721.53624,734.29087 727.1174,738.8608 730.26953,742.18164 730.40722,748.20984 730.73136,754.10791 731.10547,759.42578 730.42069,761.83731 729.61084,764.54412 728.5957,767.37695 716.64578,800.72452 716.47444,801.54761 721.89844,808.8125 729.12305,818.48911 733.98124,819.2658 729.18164,809.98438 724.63994,801.20166 724.19322,798.73668 729.93359,783.86719 731.58913,787.65367 733.65521,791.25557 735.375,795.00195 740.4965,804.64428 747.54067,813.26338 755.96875,820.19727 757.33493,823.79742 759.13459,828.24565 761.32422,832.92188 774.73146,861.55472 793.41242,894.79279 801.80664,905.29102 L 810.66406,900.17773 816.36523,910.05469 818.91016,908.58594 C 818.15122,906.73242 817.28535,904.64973 816.23828,902.14844 806.99588,880.06976 792.89725,855.26892 780.32617,837.10742 789.28372,843.066 798.34065,848.95843 807.44922,854.68555 811.46499,857.03475 814.96356,860.10354 819,862.38672 820.44651,856.17371 838.09414,838.19148 840.95561,835.66517 857.8948,835.20972 851.97588,821.46485 831.22266,806.21875 824.0566,794.38505 817.3695,782.22098 810.62891,770.14062 801.02909,755.88175 786.95473,745.64913 775.2207,733.30859 766.77561,724.95932 758.39887,716.53594 749.85742,708.2793 Z M 718.38281,868.49805 C 720.35464,877.2565 722.10615,874.47015 718.38281,868.49805 Z M 687.24414,682.91602 700.13477,686.59766 C 699.61031,687.37193 699.76036,687.46869 700.30078,686.68164 L 707.41602,688.69141 C 717.58679,691.62198 731.90866,699.3854 728.00977,698.98828 L 736.29688,699.82422 C 736.50581,700.90199 737.01343,701.96233 737.71875,702.92188 736.96738,703.54546 736.3281,704.35722 735.71094,705.26562 735.46906,704.87176 735.07342,704.47733 734.62305,704.00977 731.18472,699.4574 720.12244,698.92224 716.28906,697.22852 707.52057,696.92018 699.07625,694.09792 690.67578,690.7832 690.59381,690.75077 690.50553,690.7333 690.42383,690.70117 Z M 690.67578,690.7832 C 690.63935,690.79927 690.77829,690.83586 691.42773,690.86719 691.80664,690.85112 691.88483,690.79579 692.01367,690.7832 691.60956,690.76979 690.89075,690.76177 690.67578,690.7832 Z M 695.36328,690.03125 C 695.30194,690.03284 695.25665,690.12761 695.19531,690.19727 695.67405,690.30763 695.54731,690.02671 695.36328,690.03125 Z M 694.19141,702.16797 C 696.6009,702.89009 699.11442,702.55882 701.39062,702.50391 705.14798,711.6515 712.04812,721.43569 725.74805,723.51367 726.6529,726.21025 728.55281,731.82583 730.4375,729.20703 730.39893,730.07288 730.37763,730.92117 730.35352,731.80078 726.16072,728.68951 720.47958,724.92211 714.86719,721.58789 700.69358,713.16748 696.67197,709.92477 694.19141,702.16797 Z M 596.66992,712.29688 C 600.5142,713.19561 604.62704,713.87815 605.79492,714.89258 617.06706,721.25711 624.45179,726.93418 631.41016,735.65234 622.98845,729.59304 611.97732,723.32567 597.92578,717.6543 597.90435,717.57016 597.86483,717.48813 597.8418,717.4043 597.40491,715.8282 597.0852,714.03912 596.66992,712.29688 Z M 749.01953,715.05859 C 753.10376,719.61697 757.03708,724.30693 760.57227,729.28906 L 756.4707,726.35938 C 755.12689,725.39805 752.14774,720.3104 749.01953,715.05859 Z M 589.66211,721.21289 C 590.02546,721.09127 594.27757,730.38349 594.07617,735.06641 592.58402,730.98486 590.98789,727.01438 589.30469,723.3457 589.49889,723.01008 589.68755,722.6705 589.89062,722.3418 589.67794,721.70347 589.6226,721.36858 589.63867,721.25391 589.64202,721.22992 589.65039,721.21681 589.66211,721.21289 Z M 588.96875,724.01562 C 590.84133,731.64078 583.06472,744.31984 575.15625,754.82031 581.74569,744.07924 584.01515,732.92718 588.96875,724.01562 Z M 768.18945,741.5957 C 769.19618,743.49329 770.07594,745.40404 770.95117,747.37109 766.37173,753.21632 761.28612,766.30855 762.91602,779.26367 764.44013,791.3783 772.92887,802.53509 778.65234,817.18359 782.0889,825.97901 757.07332,788.05424 757.22266,775.33008 757.27784,770.61912 763.68449,757.73708 766.84961,747.70508 767.54963,745.48631 767.9724,743.4123 768.18945,741.5957 Z M 776.97852,763.19141 C 779.68175,770.73153 782.18771,778.34787 784.67969,785.96094 781.60604,781.11332 779.13233,776.40072 778.31836,772.40039 777.71314,769.42609 777.3295,766.27822 776.97852,763.19141 Z M 732.5293,777.42188 C 732.581,777.92191 732.62601,778.4283 732.69727,778.92969 732.53896,778.67415 732.3394,778.43717 732.19531,778.17578 732.30487,777.90146 732.4168,777.70303 732.5293,777.42188 Z M 494.76953,827.57812 V 836.34766 C 496.47904,836.34238 498.17941,836.45235 499.86914,836.63477 499.04223,833.74697 498.1682,830.68412 497.29688,827.57812 Z"
             style="display:inline;fill:#000000;fill-opacity:1;stroke-width:1.00000012" />
          <path
             style="fill:none;fill-opacity:1;stroke:#00ff00;stroke-width:0.096;stroke-miterlimit:4;stroke-dasharray:none;stroke-opacity:1"
             d="M 831.22266,806.21875 C 824.0566,794.38505 817.3695,782.22098 810.62891,770.14062 801.02909,755.88175 786.95473,745.64913 775.2207,733.30859 766.77561,724.95932 758.39887,716.53594 749.85742,708.2793 L 741.23438,700.07617 C 740.06856,698.98253 738.89287,697.89523 737.71875,696.81055 737.64482,696.77143 737.55205,696.75551 737.46875,696.72656 L 737.2168,696.47656 C 723.44969,682.78628 705.54284,682.37124 695.02734,672.87109 691.04193,669.27053 682.76848,668.77191 678.53711,668.76953 677.12665,668.76878 676.15315,668.85156 675.94336,668.85156 675.58932,668.85156 675.40568,669.06529 675.27344,669.4375 674.68841,669.27196 674.07714,669.31788 673.34766,669.52148 656.65197,686.27745 644.23562,706.71654 629.65234,725.27148 628.40716,724.19243 627.06615,723.15503 625.7168,722.17383 616.08893,714.48018 604.28506,710.28202 594.32617,703.17383 597.16509,697.73947 589.74502,704.90051 589.05273,707.52539 581.70065,714.58816 577.30103,726.40411 571.47461,733.72656 558.52179,759.82121 542.81365,779.95126 526.1875,802.2832"
             transform="matrix(0.26458333,0,0,0.26458333,-186.99685,36.97221)"
             id="path1482"
             inkscape:connector-curvature="0"
             sodipodi:nodetypes="ccccccccccscccccccc"
             inkscape:label="path1482" />
          <path
             inkscape:label="White"
             inkscape:connector-curvature="0"
             id="path1261"
             d="M -17.775358,191.94294 -18.581997,192.40974 -19.892548,193.1656 -18.382778,195.77497 -41.966747,209.3902 -43.474577,206.77692 -45.587858,207.99567 -45.185507,208.83161 C -43.441698,212.45781 -43.505847,216.68996 -45.523387,220.19294 L -45.527307,220.20075 C -47.553847,223.69434 -51.186007,225.86166 -55.195278,226.16364 L -56.121057,226.23396 V 228.67342 H -53.115197 V 255.90389 H -56.121057 V 258.34139 L -55.193327,258.40975 C -53.337037,258.54326 -51.550987,259.00536 -49.982387,259.90584 -44.415857,263.11977 -42.404357,270.05338 -45.158157,275.75936 L -45.562457,276.59725 -43.476528,277.80037 -41.964798,275.18514 -18.380827,288.80037 -19.890588,291.41365 -17.800737,292.61482 -17.279257,291.8492 C -13.714867,286.61078 -6.7037775,284.88534 -1.1366775,288.0992 0.4294125,289.00727 1.7225725,290.3208 2.7676225,291.86287 L 3.2910525,292.63436 5.4023825,291.4117 3.8965225,288.80428 27.480513,275.18709 28.988323,277.80037 31.101603,276.58162 30.699263,275.74568 C 28.955203,272.11948 29.019583,267.88753 31.037153,264.38436 V 264.3824 L 31.041053,264.37654 C 33.067673,260.88281 36.699653,258.71549 40.709023,258.41365 L 41.634803,258.34334 V 255.90389 H 38.628953 V 228.67342 H 41.634803 V 226.23591 L 40.707073,226.16755 C 38.850793,226.03404 37.064753,225.57193 35.496133,224.67146 29.929923,221.45798 27.919223,214.52383 30.671913,208.81794 L 31.074253,207.98396 28.988323,206.77497 27.476603,209.39411 3.8926225,195.77692 5.4023825,193.1656 3.3164425,191.95661 2.7930125,192.72614 C -0.7712475,197.96574 -7.7820075,199.69236 -13.349568,196.4781 -14.915567,195.57024 -16.208747,194.25639 -17.253858,192.71442 Z M 2.0820725,196.46052 C 2.2380225,196.86772 2.4663425,197.26006 2.8672225,197.49177 L 26.501993,211.1402 C 26.904343,211.37331 27.360753,211.3773 27.793013,211.30817 26.625243,217.05188 29.048133,223.12769 34.328163,226.28083 L 34.386763,226.33943 34.500043,226.40583 C 35.331023,226.88286 36.214373,227.2133 37.109413,227.48981 36.852753,227.82252 36.628883,228.196 36.628943,228.64216 V 255.93514 C 36.628883,256.38908 36.854403,256.77144 37.119183,257.10701 33.882683,258.16395 31.070413,260.33374 29.306683,263.3785 L 29.302773,263.38436 C 29.302033,263.38564 29.301563,263.38698 29.300823,263.38826 L 29.294963,263.39998 C 27.547853,266.44254 27.074113,269.95399 27.771523,273.27693 27.346883,273.21461 26.900313,273.2125 26.505903,273.441 L 2.8691825,287.08943 H 2.8672225 C 2.4805025,287.31342 2.2704525,287.6958 2.1113725,288.08553 1.4240025,287.44875 0.6967325,286.8497 -0.1327675,286.36873 L -0.3651975,286.23397 H -0.4335575 C -5.7873475,283.30696 -12.208607,284.25297 -16.570278,288.11678 -16.726017,287.71018 -16.951378,287.31728 -17.351517,287.08553 H -17.353467 L -40.992147,273.43904 C -41.393977,273.20718 -41.847948,273.20394 -42.279257,273.27303 -41.110077,267.52875 -43.532467,261.45059 -48.812457,258.29647 L -48.871057,258.23787 -48.986298,258.17147 C -49.817277,257.69443 -50.700617,257.36399 -51.595657,257.08748 -51.339008,256.75478 -51.115127,256.38129 -51.115187,255.93514 V 228.64216 C -51.115127,228.18822 -51.340647,227.80586 -51.605437,227.47028 -48.368947,226.41331 -45.556627,224.2435 -43.792937,221.1988 L -43.789017,221.19294 -43.787068,221.18903 C -42.034497,218.14387 -41.559527,214.62751 -42.257778,211.30036 -41.833767,211.36259 -41.388077,211.36398 -40.994108,211.1363 L -17.355437,197.48981 H -17.353467 C -16.966737,197.26583 -16.756698,196.88345 -16.597608,196.49372 -15.910497,197.13022 -15.182727,197.72782 -14.353477,198.20856 L -14.121048,198.34333 H -14.052687 C -8.6993075,201.27023 -2.2793675,200.32373 2.0820725,196.46052 Z"
             style="color:#000000;font-style:normal;font-variant:normal;font-weight:normal;font-stretch:normal;font-size:medium;line-height:normal;font-family:sans-serif;font-variant-ligatures:normal;font-variant-position:normal;font-variant-caps:normal;font-variant-numeric:normal;font-variant-alternates:normal;font-feature-settings:normal;text-indent:0;text-align:start;text-decoration:none;text-decoration-line:none;text-decoration-style:solid;text-decoration-color:#000000;letter-spacing:normal;word-spacing:normal;text-transform:none;writing-mode:lr-tb;direction:ltr;text-orientation:mixed;dominant-baseline:auto;baseline-shift:baseline;text-anchor:start;white-space:normal;shape-padding:0;clip-rule:nonzero;display:inline;overflow:visible;visibility:visible;opacity:1;isolation:auto;mix-blend-mode:normal;color-interpolation:sRGB;color-interpolation-filters:linearRGB;solid-color:#000000;solid-opacity:1;vector-effect:none;fill:#ffffff;fill-opacity:1;fill-rule:nonzero;stroke:none;stroke-width:2;stroke-linecap:butt;stroke-linejoin:miter;stroke-miterlimit:4;stroke-dasharray:none;stroke-dashoffset:0;stroke-opacity:1;paint-order:stroke fill markers;color-rendering:auto;image-rendering:auto;shape-rendering:auto;text-rendering:auto;enable-background:accumulate" />
          <path
             sodipodi:nodetypes="ccccccccccccccccccccccccccccccccccccccccccccc"
             inkscape:tile-y0="170.46603"
             inkscape:tile-x0="196.88682"
             inkscape:label="Top Hex"
             inkscape:connector-curvature="0"
             id="use4956"
             d="M -17.835933,192.01499 -19.846613,193.17523 -18.339963,195.78578 -41.977693,209.43327 -43.485903,206.81958 -45.496593,207.98033 C -43.315643,211.76275 -43.315643,216.42335 -45.496593,220.21004 -47.686753,223.99093 -51.723353,226.31968 -56.089143,226.32097 V 228.64143 L -53.084423,228.64145 V 255.93536 L -56.089143,255.93535 V 258.2558 C -53.940873,258.24917 -51.829273,258.8086 -49.966703,259.87783 -44.116993,263.25527 -42.115523,270.74033 -45.496083,276.59699 L -43.485903,277.75722 -41.975633,275.14144 -18.337903,288.7884 -19.846613,291.40156 -17.836453,292.5618 -17.835933,292.56074 C -14.454573,286.70391 -6.970823,284.69392 -1.120433,288.07132 0.738367,289.14911 2.280127,290.69808 3.349677,292.56231 L 5.360357,291.40208 3.853727,288.79152 27.491449,275.14403 28.999666,277.75774 31.010342,276.59699 C 28.829035,272.81452 28.828837,268.15368 31.009824,264.36675 33.200067,260.58571 37.236909,258.25691 41.602888,258.2558 V 255.93535 L 38.598164,255.93536 V 228.64145 L 41.602888,228.64143 V 226.32097 C 39.454619,226.3276 37.343028,225.76817 35.480455,224.69895 29.63055,221.32169 27.628832,213.83658 31.009305,207.97979 L 28.999136,206.81958 27.488872,209.43587 3.851667,195.78838 5.360357,193.17575 3.350207,192.01552 3.349677,192.01605 C -0.031863,197.87271 -7.515573,199.88244 -13.365833,196.50496 -15.224493,195.42745 -16.766243,193.87885 -17.835933,192.01499 Z"
             style="opacity:1;fill:none;fill-opacity:1;fill-rule:nonzero;stroke:#ff0000;stroke-width:0.025;stroke-linecap:round;stroke-linejoin:round;stroke-miterlimit:4;stroke-dasharray:none;stroke-opacity:1;paint-order:stroke fill markers" />
        </g>
        <g
           id="g1404">
          <path
             inkscape:connector-curvature="0"
             id="path1377"
             transform="matrix(0.26458333,0,0,0.26458333,-186.99685,36.97221)"
             d="M 308.8125,651.5957 C 306.69094,651.63698 304.49404,651.94028 302.95312,652.26562 302.76377,652.23698 302.56274,652.18164 302.36719,652.18164 298.3048,652.18164 285.94536,667.25411 266.20508,696.04492 249.66303,720.1712 216.9124,751.35798 172.45117,785.44531 151.60776,801.42546 141.64648,810.76083 141.64648,814.32617 141.64648,815.38615 139.66002,819.30167 136.70508,824.63281 V 827.58008 H 135.03516 C 133.44942,830.39208 131.75434,833.36896 129.89844,836.58594 136.42859,837.2119 142.77197,839.19783 148.49023,842.48047 149.0297,842.79194 149.55216,843.12153 150.07422,843.45117 154.14933,842.338 157.87857,842.07875 163.82812,836.00586 166.64331,833.13236 175.20711,833.00911 177.30664,829.05859 188.34362,808.29126 204.63868,788.46934 221.75586,773.39258 229.0056,767.00707 237.00914,763.59669 244.02148,760.08203 241.63966,767.48242 239.7568,775.99027 238.58008,785.11133 234.38197,817.65098 235.24129,780.59136 230.62891,771.88477 228.52435,767.9121 213.6285,784.3277 193.62891,809.55469 190.02252,814.10369 187.85531,826.70918 183.83594,831.15039 179.98765,835.40258 165.16117,841.40581 154.31445,846.45898 159.95755,850.97807 164.3041,856.65045 167.23242,862.92969 187.52668,851.2935 210.23104,837.77219 216.31445,834.16406 195.70594,846.6729 179.63897,858.00018 168.76172,866.59766 170.34477,870.92486 171.27526,875.47745 171.52148,880.0957 181.92638,878.72151 190.01896,877.92997 195.05273,876.26953 204.7064,873.0852 192.92119,890.94358 214.05469,883.21875 229.4981,877.57376 235.86286,831.10879 239.83594,822.5293 241.14237,819.70814 243.93153,804.12248 246.03125,787.87305 248.95434,765.25212 250.68722,759.36373 253.23047,762.76172 255.38661,765.64247 249.60109,787.12809 245.44531,808.63281 241.89135,827.02346 239.91525,845.45179 240.17188,852.33008 240.33232,856.63137 234.0502,862.89269 231.54883,870.66211 227.95707,881.81852 228.03842,894.33882 230.62891,894.26758 233.64274,894.18454 256.55516,858.31788 254.9043,873.8418 252.6994,894.57576 252.06258,911.95788 253.48047,912.51562 258.37337,914.43993 259.74248,910.74061 261.43359,891.00195 263.78163,863.5946 269.41609,846.81599 283.36523,825.79297 292.47027,812.07071 294.02818,808.14895 290.06055,809.21875 287.10499,810.0157 281.2873,815.67209 276.58398,822.27734 272.02924,828.67397 267.93349,833.81413 267.46094,833.74609 266.98838,833.67806 267.06679,824.2636 267.62695,812.81836 268.93875,786.01754 276.85214,743.71904 268.9668,735.05273 268.75892,734.82422 268.59319,734.58251 268.38086,734.38477 278.36112,716.98322 286.05443,696.22435 284.87109,695.04102 280.37157,690.54153 258.24206,736.76441 227.36328,756.65039 209.90848,767.89131 202.81254,771.57209 209.95312,765.69141 234.32873,745.6169 259.53896,717.02803 278.50977,687.92578 289.21324,671.50612 299.16632,657.31097 300.69336,656.36719 300.96405,656.19975 301.30623,656.21944 301.61328,656.2832 302.39054,657.52943 303.54751,658.9131 304.96094,660.46875 305.35208,661.36805 305.72802,662.37018 306.04883,663.48242 307.88201,669.83842 308.63811,670.69046 308.8125,666.49609 L 310.31836,670.93359 C 311.21743,673.64253 311.93277,675.72277 313.16406,679.38672 316.91883,690.5598 323.28363,715.10379 327.22852,733.88086 331.17334,752.65793 335.84058,768.44291 337.69141,768.95508 339.62145,769.48913 339.0108,757.35405 336.18555,740.49414 L 331.24609,711.11328 337.60742,725.00781 C 343.65014,738.19942 350.40433,755.35784 357.19531,773.97852 358.06939,776.85629 359.03912,779.57902 360.125,782.09766 380.71506,839.84549 400.6016,908.72 400.05469,923.96094 L 407.29688,919.7793 C 406.17349,906.75779 402.07464,887.7611 395.03125,864.38281 388.52311,842.78107 380.92563,820.03261 373.09961,797.75195 377.30588,799.91985 382.37324,800.76425 388.66992,799.84375 390.78193,799.535 372.42244,747.75536 377.78906,746.77344 382.03345,745.99686 410.1065,796.06349 412.10938,795.24023 415.79499,799.34299 422.32871,810.38388 426.58984,819.76758 431.2979,830.13553 442.27204,850.18651 451.45898,865.92383 451.91081,864.75073 452.4101,863.5912 452.96094,862.44922 447.88939,852.76945 442.07595,841.00272 438.47656,833.07617 L 429.93945,814.41016 438.05859,818.5957 C 440.14527,819.6741 451.60969,833.91973 463.31445,848.55664 465.26246,846.76873 467.35099,845.15388 469.5625,843.73047 451.29988,814.96174 426.20338,776.71763 413.69922,753.88867 415.99535,751.52307 418.2035,749.04531 420.89844,747.27539 428.73723,740.24037 438.23089,730.71718 446.84766,720.23633 448.9805,721.6972 465.7574,733.22769 483.22266,746.4043 V 724.42188 H 494.58008 V 719.5625 C 493.93962,718.25818 493.30324,716.94132 492.67188,715.61328 485.21397,715.32825 477.92686,713.24562 471.43945,709.52148 467.36625,707.16995 463.78994,704.28937 460.74023,701.01953 460.54402,701.28304 460.35277,701.55938 460.15625,701.82031 460.33445,701.52985 460.49791,701.23828 460.66992,700.94727 457.22203,697.23421 454.46441,693.01485 452.43164,688.49609 440.30983,710.92328 426.12285,729.2223 411.1875,749.2832 409.63981,746.28906 408.37917,743.57942 407.50391,741.41602 395.87542,712.67411 321.93563,657.45921 314.41992,652.59961 313.0865,651.80141 310.9959,651.55333 308.8125,651.5957 Z M 325.7207,678.80078 C 327.71546,681.53123 329.73425,684.37906 331.83203,687.00391 340.8207,698.35205 345.19522,714.81804 348.49023,731.70508 340.19362,710.88767 332.34128,692.61692 325.7207,678.80078 Z M 190.09961,792.34961 C 190.63649,792.3081 187.66685,794.92784 181.82617,799.92773 170.48052,809.64018 159.66138,819.5699 149.84961,829.05859 160.23409,816.72384 169.732,805.88041 173.78906,803.10938 183.75711,796.30093 188.87079,792.81859 189.94531,792.39453 190.01247,792.36803 190.06382,792.35238 190.09961,792.34961 Z M 313.80469,822.02734 C 312.76129,821.95515 312.41938,822.81267 312.91406,824.70508 310.59302,861.96634 272.45489,896.31277 276.5,902.72266 280.85364,909.62143 323.79907,897.90479 336.18555,918.71094 343.90871,931.68388 364.45936,934.75263 379.58789,935.77734 L 397.18945,925.61523 C 393.09581,921.05458 382.5159,906.20845 370.92383,888.57617 345.53719,849.96153 319.43904,822.41719 313.80469,822.02734 Z"
             style="display:inline;fill:#000000;stroke-width:1.00000012"
             sodipodi:nodetypes="ccssssccccccccccccccccccccccccccccscccccccccssccccccccscccccccccscsccccccccccccccccccccccccccccccccccccccccsccsc" />
          <path
             sodipodi:nodetypes="cccccssc"
             style="fill:none;fill-opacity:1;stroke:#00ff00;stroke-width:0.096;stroke-miterlimit:4;stroke-dasharray:none;stroke-opacity:1"
             d="M 411.1875,749.2832 C 409.63981,746.28906 408.37917,743.57942 407.50391,741.41602 395.87542,712.67411 321.93563,657.45921 314.41992,652.59961 313.0865,651.80141 310.9959,651.55333 308.8125,651.5957 306.69094,651.63698 304.49404,651.94028 302.95312,652.26562 302.76377,652.23698 302.56274,652.18164 302.36719,652.18164 298.3048,652.18164 285.94536,667.25411 266.20508,696.04492 249.66303,720.1712 216.9124,751.35798 172.45117,785.44531"
             transform="matrix(0.26458333,0,0,0.26458333,-186.99685,36.97221)"
             id="path1480"
             inkscape:connector-curvature="0" />
          <path
             style="color:#000000;font-style:normal;font-variant:normal;font-weight:normal;font-stretch:normal;font-size:medium;line-height:normal;font-family:sans-serif;font-variant-ligatures:normal;font-variant-position:normal;font-variant-caps:normal;font-variant-numeric:normal;font-variant-alternates:normal;font-feature-settings:normal;text-indent:0;text-align:start;text-decoration:none;text-decoration-line:none;text-decoration-style:solid;text-decoration-color:#000000;letter-spacing:normal;word-spacing:normal;text-transform:none;writing-mode:lr-tb;direction:ltr;text-orientation:mixed;dominant-baseline:auto;baseline-shift:baseline;text-anchor:start;white-space:normal;shape-padding:0;clip-rule:nonzero;display:inline;overflow:visible;visibility:visible;opacity:1;isolation:auto;mix-blend-mode:normal;color-interpolation:sRGB;color-interpolation-filters:linearRGB;solid-color:#000000;solid-opacity:1;vector-effect:none;fill:#ffffff;fill-opacity:1;fill-rule:nonzero;stroke:none;stroke-width:2;stroke-linecap:butt;stroke-linejoin:miter;stroke-miterlimit:4;stroke-dasharray:none;stroke-dashoffset:0;stroke-opacity:1;paint-order:stroke fill markers;color-rendering:auto;image-rendering:auto;shape-rendering:auto;text-rendering:auto;enable-background:accumulate"
             d="M -115.51767,191.94372 -116.32432,192.41052 -117.63487,193.16638 -116.12509,195.77575 -139.70907,209.39098 -141.21689,206.7777 -143.33017,207.99645 -142.92782,208.83239 C -141.18401,212.45859 -141.24817,216.69074 -143.26572,220.19372 L -143.26962,220.20153 C -145.29616,223.69512 -148.92832,225.86244 -152.93759,226.16442 L -153.86337,226.23474 V 228.67419 H -150.85751 V 255.90467 H -153.86337 V 258.34217 L -152.93566,258.41053 C -151.07936,258.54404 -149.29332,259.00614 -147.7247,259.90662 -142.15819,263.12055 -140.14668,270.05416 -142.90049,275.76014 L -143.30478,276.59803 -141.21884,277.80115 -139.70712,275.18592 -116.12314,288.80115 -117.6329,291.41443 -115.54306,292.6156 -115.02157,291.84998 C -111.45719,286.61156 -104.4461,284.88612 -98.879013,288.09998 -97.312913,289.00805 -96.019753,290.32158 -94.974703,291.86365 L -94.451272,292.63514 -92.339942,291.41248 -93.845803,288.80506 -70.261812,275.18787 -68.754002,277.80115 -66.640723,276.5824 -67.043062,275.74646 C -68.787122,272.12026 -68.722743,267.88831 -66.705183,264.38514 V 264.38318 L -66.701272,264.37732 C -64.674662,260.88359 -61.042682,258.71627 -57.033303,258.41443 L -56.107522,258.34412 V 255.90467 H -59.113383 V 228.67419 H -56.107522 V 226.23669 L -57.035252,226.16834 C -58.891542,226.03482 -60.677582,225.57271 -62.246192,224.67224 -67.812402,221.45876 -69.823102,214.52461 -67.070413,208.81872 L -66.668073,207.98474 -68.754002,206.77575 -70.265723,209.39489 -93.849703,195.7777 -92.339942,193.16638 -94.425872,191.95739 -94.949312,192.72692 C -98.513572,197.96652 -105.52433,199.69314 -111.09189,196.47888 -112.65789,195.57102 -113.95106,194.25717 -114.99618,192.7152 Z M -95.660263,196.4613 C -95.504303,196.8685 -95.275992,197.26084 -94.875093,197.49255 L -71.240332,211.14098 C -70.837982,211.37409 -70.381583,211.37808 -69.949312,211.30895 -71.117083,217.05266 -68.694193,223.12847 -63.414163,226.28161 L -63.355573,226.3402 -63.242292,226.40661 C -62.411303,226.88364 -61.527952,227.21408 -60.632913,227.49059 -60.889573,227.8233 -61.113453,228.19678 -61.113383,228.64294 V 255.93592 C -61.113453,256.38986 -60.887933,256.77222 -60.623153,257.10779 -63.859653,258.16473 -66.671923,260.33452 -68.435642,263.37928 L -68.439553,263.38514 C -68.440293,263.38642 -68.440762,263.38776 -68.441502,263.38904 L -68.447363,263.40076 C -70.194472,266.44332 -70.668213,269.95477 -69.970803,273.27771 -70.395453,273.21539 -70.842012,273.21328 -71.236423,273.44178 L -94.873142,287.09021 H -94.875093 C -95.261823,287.3142 -95.471872,287.69658 -95.630953,288.08631 -96.318322,287.44953 -97.045593,286.85048 -97.875093,286.36951 L -98.107533,286.23475 H -98.175883 C -103.52968,283.30774 -109.95093,284.25375 -114.3126,288.11756 -114.46833,287.71096 -114.6937,287.31806 -115.09384,287.08631 H -115.09579 L -138.73447,273.43982 C -139.13629,273.20796 -139.59026,273.20472 -140.02157,273.27381 -138.8524,267.52953 -141.27479,261.45137 -146.55478,258.29725 L -146.61337,258.23865 -146.72862,258.17225 C -147.5596,257.69521 -148.44295,257.36477 -149.33799,257.08826 -149.08132,256.75556 -148.85744,256.38207 -148.85751,255.93592 V 228.64294 C -148.85744,228.189 -149.08297,227.80664 -149.34776,227.47106 -146.11127,226.41409 -143.29895,224.24429 -141.53526,221.19958 L -141.53134,221.19372 -141.52939,221.18981 C -139.77682,218.14465 -139.30184,214.62829 -140.00009,211.30114 -139.5761,211.36337 -139.13039,211.36476 -138.73642,211.13708 L -115.09776,197.49059 H -115.09579 C -114.70907,197.26661 -114.49902,196.88423 -114.33994,196.4945 -113.65281,197.131 -112.92505,197.7286 -112.09579,198.20934 L -111.86337,198.34411 H -111.79501 C -106.44163,201.27101 -100.02169,200.32451 -95.660263,196.4613 Z"
             id="path1257"
             inkscape:connector-curvature="0"
             inkscape:label="White" />
          <path
             sodipodi:nodetypes="ccccccccccccccccccccccccccccccccccccccccccccc"
             inkscape:tile-y0="170.46603"
             inkscape:tile-x0="196.88682"
             inkscape:label="Top Hex"
             inkscape:connector-curvature="0"
             id="use4950"
             d="M -115.57826,192.01577 -117.58894,193.176 -116.08229,195.78656 -139.72001,209.43404 -141.22822,206.82035 -143.23891,207.98111 C -141.05796,211.76352 -141.05796,216.42412 -143.23891,220.21081 -145.42907,223.9917 -149.46567,226.32045 -153.83146,226.32174 V 228.64221 L -150.82674,228.64222 V 255.93614 L -153.83146,255.93613 V 258.25658 C -151.68319,258.24995 -149.57159,258.80938 -147.70902,259.87861 -141.85931,263.25605 -139.85784,270.74111 -143.2384,276.59776 L -141.22822,277.758 -139.71795,275.14222 -116.08023,288.78918 -117.58894,291.40234 -115.57878,292.56257 -115.57826,292.56152 C -112.1969,286.70468 -104.71315,284.6947 -98.86276,288.07209 -97.00396,289.14988 -95.4622,290.69885 -94.39265,292.56309 L -92.38197,291.40286 -93.8886,288.7923 -70.250874,275.14481 -68.742657,277.75851 -66.731981,276.59776 C -68.913288,272.8153 -68.913486,268.15445 -66.732499,264.36753 -64.542256,260.58648 -60.505414,258.25769 -56.139435,258.25658 V 255.93613 L -59.144159,255.93614 V 228.64222 L -56.139435,228.64221 V 226.32174 C -58.287704,226.32837 -60.399295,225.76894 -62.261868,224.69972 -68.111773,221.32246 -70.113491,213.83736 -66.733018,207.98057 L -68.743187,206.82035 -70.253451,209.43664 -93.89066,195.78916 -92.38197,193.17652 -94.39212,192.01629 -94.39265,192.01682 C -97.77419,197.87348 -105.2579,199.88321 -111.10816,196.50573 -112.96682,195.42822 -114.50857,193.87962 -115.57826,192.01577 Z"
             style="opacity:1;fill:none;fill-opacity:1;fill-rule:nonzero;stroke:#ff0000;stroke-width:0.025;stroke-linecap:round;stroke-linejoin:round;stroke-miterlimit:4;stroke-dasharray:none;stroke-opacity:1;paint-order:stroke fill markers" />
        </g>
      </g>
      <path
         sodipodi:type="star"
         style="opacity:1;fill:none;fill-opacity:1;fill-rule:nonzero;stroke:#0000ff;stroke-width:0.0211825;stroke-linecap:round;stroke-linejoin:round;stroke-miterlimit:4;stroke-dasharray:none;stroke-opacity:1;paint-order:normal"
         id="use1980"
         sodipodi:sides="8"
         sodipodi:cx="-122.64281"
         sodipodi:cy="215.40109"
         sodipodi:r1="8.4200506"
         sodipodi:r2="7.7791119"
         sodipodi:arg1="0.78539816"
         sodipodi:arg2="1.1780972"
         inkscape:flatsided="true"
         inkscape:rounded="0"
         inkscape:randomized="0"
         d="M -116.68893,221.35497 -122.64281,223.82114 -128.59668,221.35497 -131.06286,215.40109 -128.59668,209.44722 -122.64281,206.98104 -116.68893,209.44722 -114.22276,215.40109 Z"
         transform="matrix(1.1802225,0,0,1.1802168,48.442007,133.65972)"
         inkscape:label="Octogon"
         inkscape:tile-x0="36.417794"
         inkscape:tile-y0="76.256796" />
      <path
         sodipodi:type="star"
         style="opacity:1;fill:none;fill-opacity:1;fill-rule:nonzero;stroke:#0000ff;stroke-width:0.0211825;stroke-linecap:round;stroke-linejoin:round;stroke-miterlimit:4;stroke-dasharray:none;stroke-opacity:1;paint-order:normal"
         id="use1986"
         sodipodi:sides="8"
         sodipodi:cx="-122.64281"
         sodipodi:cy="215.40109"
         sodipodi:r1="8.4200506"
         sodipodi:r2="7.7791119"
         sodipodi:arg1="0.78539816"
         sodipodi:arg2="1.1780972"
         inkscape:flatsided="true"
         inkscape:rounded="0"
         inkscape:randomized="0"
         d="M -116.68893,221.35497 -122.64281,223.82114 -128.59668,221.35497 -131.06286,215.40109 -128.59668,209.44722 -122.64281,206.98104 -116.68893,209.44722 -114.22276,215.40109 Z"
         transform="matrix(1.1802225,0,0,1.1802168,146.18433,133.65908)"
         inkscape:label="Octogon"
         inkscape:tile-x0="36.417794"
         inkscape:tile-y0="76.256796" />
      <path
         sodipodi:type="star"
         style="opacity:1;fill:none;fill-opacity:1;fill-rule:nonzero;stroke:#0000ff;stroke-width:0.0211825;stroke-linecap:round;stroke-linejoin:round;stroke-miterlimit:4;stroke-dasharray:none;stroke-opacity:1;paint-order:normal"
         id="use1998"
         sodipodi:sides="8"
         sodipodi:cx="-122.64281"
         sodipodi:cy="215.40109"
         sodipodi:r1="8.4200506"
         sodipodi:r2="7.7791119"
         sodipodi:arg1="0.78539816"
         sodipodi:arg2="1.1780972"
         inkscape:flatsided="true"
         inkscape:rounded="0"
         inkscape:randomized="0"
         d="M -116.68893,221.35497 -122.64281,223.82114 -128.59668,221.35497 -131.06286,215.40109 -128.59668,209.44722 -122.64281,206.98104 -116.68893,209.44722 -114.22276,215.40109 Z"
         transform="matrix(1.1802225,0,0,1.1802168,244.27594,133.65908)"
         inkscape:label="Octogon"
         inkscape:tile-x0="36.417794"
         inkscape:tile-y0="76.256796" />
    </g>
  </g>
</svg>
