<?xml version="1.0" encoding="UTF-8" standalone="no"?>
<!-- Created with Inkscape (http://www.inkscape.org/) -->

<svg
   xmlns:dc="http://purl.org/dc/elements/1.1/"
   xmlns:cc="http://creativecommons.org/ns#"
   xmlns:rdf="http://www.w3.org/1999/02/22-rdf-syntax-ns#"
   xmlns:svg="http://www.w3.org/2000/svg"
   xmlns="http://www.w3.org/2000/svg"
   xmlns:xlink="http://www.w3.org/1999/xlink"
   xmlns:sodipodi="http://sodipodi.sourceforge.net/DTD/sodipodi-0.dtd"
   xmlns:inkscape="http://www.inkscape.org/namespaces/inkscape"
   width="2.3560419in"
   height="2.472441in"
   viewBox="0 0 59.843464 62.799999"
   version="1.1"
   id="svg8"
   inkscape:version="0.92.3 (2405546, 2018-03-11)"
   sodipodi:docname="AlbionFlags.svg">
  <defs
     id="defs2">
    <linearGradient
       inkscape:collect="always"
       id="linearGradient880">
      <stop
         style="stop-color:#000000;stop-opacity:1;"
         offset="0"
         id="stop876" />
      <stop
         style="stop-color:#000000;stop-opacity:0;"
         offset="1"
         id="stop878" />
    </linearGradient>
    <linearGradient
       inkscape:collect="always"
       xlink:href="#linearGradient880"
       id="linearGradient882"
       x1="37.860794"
       y1="115.6132"
       x2="93.630898"
       y2="133.46875"
       gradientUnits="userSpaceOnUse"
       gradientTransform="matrix(0.48937039,0,0,0.48937039,18.510354,76.351996)" />
    <linearGradient
       inkscape:collect="always"
       xlink:href="#linearGradient880"
       id="linearGradient882-2"
       x1="37.860794"
       y1="115.6132"
       x2="93.630898"
       y2="133.46875"
       gradientUnits="userSpaceOnUse"
       gradientTransform="matrix(0.48937039,0,0,0.48937039,62.031369,76.79956)" />
    <linearGradient
       inkscape:collect="always"
       xlink:href="#linearGradient880"
       id="linearGradient882-28"
       x1="37.860794"
       y1="115.6132"
       x2="93.630898"
       y2="133.46875"
       gradientUnits="userSpaceOnUse"
       gradientTransform="matrix(0.48937039,0,0,0.48937039,17.052203,106.4707)" />
    <linearGradient
       inkscape:collect="always"
       xlink:href="#linearGradient880"
       id="linearGradient882-3"
       x1="37.860794"
       y1="115.6132"
       x2="93.630898"
       y2="133.46875"
       gradientUnits="userSpaceOnUse"
       gradientTransform="matrix(0.48937039,0,0,0.48937039,58.818572,104.29734)" />
  </defs>
  <sodipodi:namedview
     id="base"
     pagecolor="#ffffff"
     bordercolor="#666666"
     borderopacity="1.0"
     inkscape:pageopacity="0.0"
     inkscape:pageshadow="2"
     inkscape:zoom="4.1039386"
     inkscape:cx="113.09001"
     inkscape:cy="118.67715"
     inkscape:document-units="mm"
     inkscape:current-layer="layer1"
     showgrid="false"
     inkscape:snap-global="false"
     inkscape:window-width="1920"
     inkscape:window-height="1017"
     inkscape:window-x="-8"
     inkscape:window-y="-8"
     inkscape:window-maximized="1"
     fit-margin-top="4"
     fit-margin-left="4"
     fit-margin-right="4"
     fit-margin-bottom="4"
     units="in" />
  <metadata
     id="metadata5">
    <rdf:RDF>
      <cc:Work
         rdf:about="">
        <dc:format>image/svg+xml</dc:format>
        <dc:type
           rdf:resource="http://purl.org/dc/dcmitype/StillImage" />
        <dc:title></dc:title>
      </cc:Work>
    </rdf:RDF>
  </metadata>
  <g
     inkscape:label="Layer 1"
     inkscape:groupmode="layer"
     id="layer1"
     transform="translate(-30.530205,-120.32157)">
    <g
       id="g1101"
       transform="translate(26.463582,29.84756)">
      <path
         inkscape:label="Cut Border"
         inkscape:connector-curvature="0"
         id="path842"
         d="m 47.476099,124.14858 c -3.817841,1.98968 -7.63653,3.97873 -11.455282,5.96707 0.01963,4.25267 0.03758,8.50536 0.05735,12.75804 3.91025,2.12112 7.820615,4.24202 11.730552,6.36372 4.023092,-2.06652 8.045767,-4.13385 12.068907,-6.20028 -0.01981,-4.27498 -0.03837,-8.54997 -0.0583,-12.82494 -3.962025,-2.10072 -7.923966,-4.20158 -11.886348,-6.30161 l -0.434014,0.22609 z"
         style="fill:none;stroke:#ff0000;stroke-width:0.06473963;stroke-linecap:butt;stroke-linejoin:miter;stroke-miterlimit:4;stroke-dasharray:none;stroke-opacity:1" />
      <path
         inkscape:label="Inner Border"
         inkscape:connector-curvature="0"
         id="path826"
         d="m 47.925735,126.12203 -9.942157,5.17918 0.04624,10.40458 9.80343,5.31789 10.080883,-5.17917 -0.04624,-10.45082 z"
         style="fill:none;fill-opacity:1;stroke:#3c3c3c;stroke-width:0.38843775;stroke-linecap:butt;stroke-linejoin:miter;stroke-miterlimit:4;stroke-dasharray:none;stroke-opacity:1" />
      <path
         inkscape:label="Flag"
         inkscape:connector-curvature="0"
         d="m 51.176104,137.10412 1.226192,-3.18809 c 0,0 -0.86625,0.85489 -1.079049,1.40603 -0.214692,0.55603 -0.147143,1.78206 -0.147143,1.78206 z m -2.725938,6.70667 c 1.567671,-3.69209 0.913964,-2.05428 2.322959,-5.71198 -0.06145,-0.18434 -1.623092,-0.64666 -2.074956,-0.64579 -0.213641,4.1e-4 -0.837655,0.10293 -1.027016,0.22782 -1.106456,0.62283 -0.750188,0.92607 -1.758747,1.72575 -0.232305,0.18197 -0.661455,0.32531 -1.185933,0.29566 -0.660279,-0.0373 -1.124359,-0.11289 -1.509776,-0.24873 -0.312808,-0.11026 -0.573835,-0.2596 -0.846004,-0.45828 -0.109757,-0.0801 -0.227878,-0.16532 -0.306572,-0.16532 -0.09424,0 -0.116461,-0.18784 -0.0651,-0.55029 0.04289,-0.30266 0.157081,-1.03775 0.277337,-1.63451 0.32815,-1.62843 0.774944,-2.99348 1.189975,-2.98957 0.127155,9.8e-4 0.595655,0.25319 1.20097,0.50005 1.687317,0.66874 2.496408,0.52515 3.454791,-0.71767 0.185147,-0.2401 0.392704,-0.57339 1.003793,-0.90302 0.48726,-0.26359 1.614729,-0.25856 2.82028,0.19133 0.419539,0.14678 0.516905,0.24073 0.714833,0.28608 0.251997,0.0577 0.250613,-0.20757 0.378888,-0.15929 0.27264,0.10263 0.563914,0.0865 0.484405,0.39552 -0.0497,0.19314 -0.21547,0.77685 -0.379285,1.13001 -0.114769,0.33681 -0.192463,0.58474 -0.254401,0.72717 -0.06194,0.14243 -0.368952,0.98163 -0.662269,1.76498 -2.177582,5.81557 -2.382651,6.39024 -2.542071,6.74993 -0.05086,0.11476 -0.228232,0.0583 -0.228232,0.12947 -0.264685,0.12977 -0.807693,0.26264 -1.007869,0.0607 z"
         style="fill:url(#linearGradient882);fill-opacity:1;stroke:none;stroke-width:0.06473963;stroke-linecap:butt;stroke-linejoin:miter;stroke-miterlimit:4;stroke-dasharray:none;stroke-opacity:1"
         id="path861"
         sodipodi:nodetypes="ccccccccccccsccccccccccccsccc" />
      <path
         inkscape:label="Circle Border"
         inkscape:connector-curvature="0"
         d="m 47.92176,128.45419 a 8.017575,8.0082383 0 0 0 -8.017597,8.00825 8.017575,8.0082383 0 0 0 8.017597,8.00824 8.017575,8.0082383 0 0 0 8.017599,-8.00824 8.017575,8.0082383 0 0 0 -8.017599,-8.00825 z m 0.04704,0.73313 a 7.288592,7.3097308 0 0 1 7.288517,7.30951 7.288592,7.3097308 0 0 1 -7.288517,7.30976 7.288592,7.3097308 0 0 1 -7.288519,-7.30976 7.288592,7.3097308 0 0 1 7.288519,-7.30951 z"
         style="opacity:1;fill:#3c3c3c;fill-opacity:1;fill-rule:nonzero;stroke:none;stroke-width:0.06473965;stroke-linecap:round;stroke-linejoin:round;stroke-miterlimit:4;stroke-dasharray:none;stroke-opacity:1;paint-order:stroke fill markers"
         id="path832" />
    </g>
    <g
       id="g1095"
       transform="translate(-44.979166,29.4)">
      <path
         inkscape:label="Cut Border"
         inkscape:connector-curvature="0"
         id="path842-1"
         d="m 90.997115,124.59614 c -3.817841,1.98968 -7.63653,3.97873 -11.455282,5.96707 0.01963,4.25267 0.03758,8.50536 0.05735,12.75804 3.91025,2.12112 7.820615,4.24202 11.730552,6.36372 4.023092,-2.06652 8.045767,-4.13385 12.068905,-6.20028 -0.0198,-4.27498 -0.0384,-8.54997 -0.0583,-12.82494 -3.962023,-2.10072 -7.923964,-4.20158 -11.886346,-6.30161 l -0.434014,0.22609 z"
         style="fill:none;stroke:#ff0000;stroke-width:0.06473963;stroke-linecap:butt;stroke-linejoin:miter;stroke-miterlimit:4;stroke-dasharray:none;stroke-opacity:1" />
      <path
         inkscape:label="Inner Border"
         inkscape:connector-curvature="0"
         id="path826-6"
         d="m 91.446751,126.56959 -9.942157,5.17918 0.04624,10.40458 9.80343,5.31789 10.080886,-5.17917 -0.0462,-10.45082 z"
         style="fill:none;fill-opacity:1;stroke:#3c3c3c;stroke-width:0.38843775;stroke-linecap:butt;stroke-linejoin:miter;stroke-miterlimit:4;stroke-dasharray:none;stroke-opacity:1" />
      <path
         inkscape:label="Flag"
         inkscape:connector-curvature="0"
         d="m 94.69712,137.55168 1.226192,-3.18809 c 0,0 -0.86625,0.85489 -1.079049,1.40603 -0.214692,0.55603 -0.147143,1.78206 -0.147143,1.78206 z m -2.766511,6.84055 c 1.567671,-3.69209 0.954537,-2.18816 2.363532,-5.84586 -0.06145,-0.18434 -1.623092,-0.64666 -2.074956,-0.64579 -0.213641,4e-4 -0.837655,0.10293 -1.027016,0.22782 -1.106456,0.62283 -0.750188,0.92607 -1.758747,1.72575 -0.232305,0.18197 -0.661455,0.32531 -1.185933,0.29566 -0.660279,-0.0373 -1.124359,-0.11289 -1.509776,-0.24873 -0.312808,-0.11026 -0.573835,-0.2596 -0.846004,-0.45828 -0.109757,-0.0801 -0.227878,-0.16532 -0.306572,-0.16532 -0.09424,0 -0.116461,-0.18784 -0.0651,-0.55029 0.04289,-0.30266 0.157081,-1.03775 0.277337,-1.63451 0.32815,-1.62843 0.774944,-2.99348 1.189975,-2.98957 0.127155,9.8e-4 0.595655,0.25319 1.20097,0.50005 1.687317,0.66874 2.496408,0.52515 3.454791,-0.71767 0.185147,-0.2401 0.392704,-0.57339 1.003793,-0.90302 0.48726,-0.26359 1.614729,-0.25856 2.82028,0.19133 0.419539,0.14678 0.516905,0.24073 0.714833,0.28608 0.251997,0.0577 0.250613,-0.20757 0.378888,-0.15929 0.27264,0.10263 0.563914,0.0865 0.484405,0.39552 -0.0497,0.19314 -0.21547,0.77685 -0.379285,1.13001 -0.114769,0.33681 -0.192463,0.58474 -0.254401,0.72717 -0.06194,0.14243 -0.368952,0.98163 -0.662269,1.76498 -2.177582,5.81557 -2.382651,6.39024 -2.542071,6.74993 -0.05086,0.11476 -0.228232,0.0583 -0.228232,0.12947 -0.264685,0.12977 -0.848266,0.39652 -1.048442,0.19456 z"
         style="fill:url(#linearGradient882-2);fill-opacity:1;stroke:none;stroke-width:0.06473963;stroke-linecap:butt;stroke-linejoin:miter;stroke-miterlimit:4;stroke-dasharray:none;stroke-opacity:1"
         id="path861-8"
         sodipodi:nodetypes="ccccccccccccsccccccccccccsccc" />
      <path
         inkscape:label="Circle Border"
         inkscape:connector-curvature="0"
         d="m 91.442776,128.90175 a 8.0175751,8.0082385 0 0 0 -8.017597,8.00825 8.0175751,8.0082385 0 0 0 8.017597,8.00824 8.0175751,8.0082385 0 0 0 8.017599,-8.00824 8.0175751,8.0082385 0 0 0 -8.017599,-8.00825 z m 0.04704,0.73313 a 7.2885922,7.3097308 0 0 1 7.288517,7.30951 7.2885922,7.3097308 0 0 1 -7.288517,7.30976 7.2885922,7.3097308 0 0 1 -7.288519,-7.30976 7.2885922,7.3097308 0 0 1 7.288519,-7.30951 z"
         style="opacity:1;fill:#3c3c3c;fill-opacity:1;fill-rule:nonzero;stroke:none;stroke-width:0.06473965;stroke-linecap:round;stroke-linejoin:round;stroke-miterlimit:4;stroke-dasharray:none;stroke-opacity:1;paint-order:stroke fill markers"
         id="path832-5" />
    </g>
    <g
       id="g1089"
       transform="translate(27.921732,-29.67113)">
      <path
         inkscape:label="Cut Border"
         inkscape:connector-curvature="0"
         id="path842-6"
         d="m 46.017949,154.26727 c -3.817842,1.98968 -7.636531,3.97873 -11.455283,5.96707 0.01963,4.25267 0.03758,8.50536 0.05735,12.75805 3.91025,2.12111 7.820615,4.24201 11.730553,6.36371 4.023092,-2.06651 8.045767,-4.13385 12.068907,-6.20027 -0.01981,-4.27499 -0.03837,-8.54998 -0.0583,-12.82495 -3.962025,-2.10072 -7.923966,-4.20158 -11.886348,-6.30161 l -0.434014,0.22609 z"
         style="fill:none;stroke:#ff0000;stroke-width:0.06473963;stroke-linecap:butt;stroke-linejoin:miter;stroke-miterlimit:4;stroke-dasharray:none;stroke-opacity:1" />
      <path
         inkscape:label="Inner Border"
         inkscape:connector-curvature="0"
         id="path826-7"
         d="m 46.467585,156.24072 -9.942158,5.17918 0.04624,10.40458 9.803431,5.31789 10.080883,-5.17917 -0.04624,-10.45082 z"
         style="fill:none;fill-opacity:1;stroke:#3c3c3c;stroke-width:0.38843775;stroke-linecap:butt;stroke-linejoin:miter;stroke-miterlimit:4;stroke-dasharray:none;stroke-opacity:1" />
      <path
         inkscape:label="Flag"
         inkscape:connector-curvature="0"
         d="m 49.717954,167.22281 1.226192,-3.18809 c 0,0 -0.86625,0.85489 -1.079049,1.40603 -0.214692,0.55603 -0.147143,1.78206 -0.147143,1.78206 z m -2.766511,6.7821 c 2.185718,-5.47945 0.812558,-2.11302 2.363532,-5.78741 -0.06145,-0.18434 -1.623092,-0.64666 -2.074956,-0.64579 -0.213641,4e-4 -0.837655,0.10293 -1.027016,0.22782 -1.106456,0.62283 -0.750188,0.92607 -1.758748,1.72575 -0.232304,0.18197 -0.661454,0.32531 -1.185933,0.29566 -0.660279,-0.0373 -1.124358,-0.11289 -1.509776,-0.24873 -0.312808,-0.11026 -0.573835,-0.2596 -0.846004,-0.45828 -0.109757,-0.0801 -0.227878,-0.16532 -0.306571,-0.16532 -0.09424,0 -0.116462,-0.18784 -0.0651,-0.55029 0.04289,-0.30266 0.157081,-1.03775 0.277337,-1.63451 0.32815,-1.62843 0.774944,-2.99348 1.189975,-2.98957 0.127155,9.8e-4 0.595655,0.25319 1.20097,0.50005 1.687317,0.66874 2.496408,0.52515 3.454791,-0.71767 0.185147,-0.2401 0.392704,-0.57339 1.003793,-0.90302 0.48726,-0.26359 1.614729,-0.25856 2.82028,0.19133 0.419539,0.14678 0.516905,0.24073 0.714833,0.28608 0.251997,0.0577 0.250613,-0.20757 0.378888,-0.15929 0.27264,0.10263 0.563914,0.0865 0.484405,0.39552 -0.0497,0.19314 -0.21547,0.77685 -0.379285,1.13001 -0.114769,0.33681 -0.192463,0.58474 -0.254401,0.72717 -0.06194,0.14243 -0.368952,0.98163 -0.662269,1.76498 -2.177582,5.81557 -2.382651,6.39024 -2.542071,6.74993 -0.05086,0.11476 -0.228232,0.0583 -0.228232,0.12947 -0.264689,0.12979 -0.848281,0.33804 -1.048442,0.13611 z"
         style="fill:url(#linearGradient882-28);fill-opacity:1;stroke:none;stroke-width:0.06473963;stroke-linecap:butt;stroke-linejoin:miter;stroke-miterlimit:4;stroke-dasharray:none;stroke-opacity:1"
         id="path861-1"
         sodipodi:nodetypes="ccccccccccccsccccccccccccsccc" />
      <path
         inkscape:label="Circle Border"
         inkscape:connector-curvature="0"
         d="m 46.46361,158.57288 a 8.0175751,8.0082385 0 0 0 -8.017598,8.00825 8.0175751,8.0082385 0 0 0 8.017598,8.00824 8.0175751,8.0082385 0 0 0 8.017599,-8.00824 8.0175751,8.0082385 0 0 0 -8.017599,-8.00825 z m 0.04704,0.73313 a 7.2885922,7.3097308 0 0 1 7.288517,7.30951 7.2885922,7.3097308 0 0 1 -7.288517,7.30976 7.2885922,7.3097308 0 0 1 -7.288519,-7.30976 7.2885922,7.3097308 0 0 1 7.288519,-7.30951 z"
         style="opacity:1;fill:#3c3c3c;fill-opacity:1;fill-rule:nonzero;stroke:none;stroke-width:0.06473965;stroke-linecap:round;stroke-linejoin:round;stroke-miterlimit:4;stroke-dasharray:none;stroke-opacity:1;paint-order:stroke fill markers"
         id="path832-1" />
    </g>
    <g
       id="g1083"
       transform="translate(-41.766367,-27.49777)"
       inkscape:label="g1083">
      <path
         inkscape:label="Cut Border"
         inkscape:connector-curvature="0"
         id="path842-68"
         d="m 87.784318,152.09391 c -3.817841,1.98968 -7.636531,3.97873 -11.455283,5.96707 0.01963,4.25267 0.03758,8.50536 0.05735,12.75804 3.91025,2.12112 7.820616,4.24202 11.730553,6.36372 4.023092,-2.06652 8.045767,-4.13385 12.068902,-6.20028 -0.0198,-4.27498 -0.0384,-8.54997 -0.0583,-12.82494 -3.96202,-2.10072 -7.923961,-4.20158 -11.886343,-6.30161 l -0.434014,0.22609 z"
         style="fill:none;stroke:#ff0000;stroke-width:0.06473963;stroke-linecap:butt;stroke-linejoin:miter;stroke-miterlimit:4;stroke-dasharray:none;stroke-opacity:1" />
      <path
         inkscape:label="Inner Border"
         inkscape:connector-curvature="0"
         id="path826-3"
         d="m 88.233954,154.06736 -9.942158,5.17918 0.04624,10.40458 9.803431,5.31789 10.080883,-5.17917 -0.04624,-10.45082 z"
         style="fill:none;fill-opacity:1;stroke:#3c3c3c;stroke-width:0.38843775;stroke-linecap:butt;stroke-linejoin:miter;stroke-miterlimit:4;stroke-dasharray:none;stroke-opacity:1" />
      <path
         inkscape:label="Flag"
         inkscape:connector-curvature="0"
         d="m 91.484323,165.04945 1.226192,-3.18809 c 0,0 -0.86625,0.85489 -1.079049,1.40603 -0.214692,0.55603 -0.147143,1.78206 -0.147143,1.78206 z m -0.402979,0.99469 c -0.06145,-0.18434 -1.623092,-0.64666 -2.074956,-0.64579 -0.213641,4e-4 -0.837655,0.10293 -1.027016,0.22782 -1.106456,0.62283 -0.750188,0.92607 -1.758747,1.72575 -0.232305,0.18197 -0.661455,0.32531 -1.185934,0.29566 -0.660278,-0.0373 -1.124358,-0.11289 -1.509776,-0.24873 -0.312807,-0.11026 -0.573835,-0.2596 -0.846003,-0.45828 -0.109758,-0.0801 -0.227878,-0.16532 -0.306572,-0.16532 -0.09424,0 -0.116461,-0.18784 -0.0651,-0.55029 0.04289,-0.30266 0.157081,-1.03775 0.277337,-1.63451 0.32815,-1.62843 0.774944,-2.99348 1.189975,-2.98957 0.127155,9.8e-4 0.595655,0.25319 1.20097,0.50005 1.687317,0.66874 2.496408,0.52515 3.454791,-0.71767 0.185147,-0.2401 0.392704,-0.57339 1.003793,-0.90302 0.48726,-0.26359 1.614729,-0.25856 2.82028,0.19133 0.419539,0.14678 0.516905,0.24073 0.714833,0.28608 0.251997,0.0577 0.250613,-0.20757 0.378888,-0.15929 0.27264,0.10263 0.563914,0.0865 0.484405,0.39552 -0.0497,0.19314 -0.21547,0.77685 -0.379285,1.13001 -0.114769,0.33681 -0.192463,0.58474 -0.254401,0.72717 -0.06194,0.14243 -0.368952,0.98163 -0.662269,1.76498 -2.177582,5.81557 -2.382651,6.39024 -2.542071,6.74993 -0.05086,0.11476 -0.228232,0.0583 -0.228232,0.12947 0,0.20435 -0.768227,0.49198 -0.964924,0.26969 1.346031,-3.47003 1.343314,-3.47676 2.280014,-5.92099 z"
         style="fill:url(#linearGradient882-3);fill-opacity:1;stroke:none;stroke-width:0.06473963;stroke-linecap:butt;stroke-linejoin:miter;stroke-miterlimit:4;stroke-dasharray:none;stroke-opacity:1"
         id="path861-9"
         sodipodi:nodetypes="cccccccccccsccccccccccccscscc" />
      <path
         inkscape:label="Circle Border"
         inkscape:connector-curvature="0"
         d="m 88.229979,156.39952 a 8.0175751,8.0082385 0 0 0 -8.017598,8.00825 8.0175751,8.0082385 0 0 0 8.017598,8.00824 8.0175751,8.0082385 0 0 0 8.017599,-8.00824 8.0175751,8.0082385 0 0 0 -8.017599,-8.00825 z m 0.04704,0.73313 a 7.2885922,7.3097308 0 0 1 7.288517,7.30951 7.2885922,7.3097308 0 0 1 -7.288517,7.30976 7.2885922,7.3097308 0 0 1 -7.288519,-7.30976 7.2885922,7.3097308 0 0 1 7.288519,-7.30951 z"
         style="opacity:1;fill:#3c3c3c;fill-opacity:1;fill-rule:nonzero;stroke:none;stroke-width:0.06473965;stroke-linecap:round;stroke-linejoin:round;stroke-miterlimit:4;stroke-dasharray:none;stroke-opacity:1;paint-order:stroke fill markers"
         id="path832-4" />
    </g>
  </g>
</svg>
