<?xml version="1.0" encoding="UTF-8" standalone="no"?>
<!-- Created with Inkscape (http://www.inkscape.org/) -->

<svg
   xmlns:dc="http://purl.org/dc/elements/1.1/"
   xmlns:cc="http://creativecommons.org/ns#"
   xmlns:rdf="http://www.w3.org/1999/02/22-rdf-syntax-ns#"
   xmlns:svg="http://www.w3.org/2000/svg"
   xmlns="http://www.w3.org/2000/svg"
   xmlns:xlink="http://www.w3.org/1999/xlink"
   xmlns:sodipodi="http://sodipodi.sourceforge.net/DTD/sodipodi-0.dtd"
   xmlns:inkscape="http://www.inkscape.org/namespaces/inkscape"
   width="3in"
   height="3in"
   viewBox="0 0 76.200001 76.200002"
   version="1.1"
   id="svg8"
   sodipodi:docname="TogowaTraps_Top.svg"
   inkscape:version="0.92.3 (2405546, 2018-03-11)">
  <defs
     id="defs2">
    <pattern
       inkscape:collect="always"
       xlink:href="#pattern1553"
       id="pattern1608"
       patternTransform="translate(320.1555,-18.581768)" />
    <pattern
       inkscape:collect="always"
       xlink:href="#pattern1548"
       id="pattern1605"
       patternTransform="translate(321.2896,-17.5591)" />
    <pattern
       inkscape:collect="always"
       xlink:href="#pattern1543"
       id="pattern1602"
       patternTransform="translate(321.2896,-17.5591)" />
    <pattern
       patternUnits="userSpaceOnUse"
       width="226.0945"
       height="237.8034"
       patternTransform="matrix(0.26458333,0,0,0.26458333,92.252077,2.5007424)"
       id="pattern822">
      <path
         inkscape:connector-curvature="0"
         id="path843"
         d="M 102.67307,237.27535 C 85.096376,235.41132 64.276735,227.36073 48.673069,216.39449 34.100987,206.15321 22.420376,192.34553 13.308287,174.5896 -4.4275279,140.02936 -4.4364665,99.417772 13.28372,63.573697 24.436524,41.014177 43.114254,22.362013 66.30963,10.620247 72.47094,7.5013563 90.887368,1.8842973 97.968011,0.96440941 135.12976,-3.8635515 170.90934,9.5841549 196.41775,37.966604 c 12.80753,14.250561 21.95811,32.33159 27.32878,54 2.05867,8.305966 2.35378,11.888096 2.34788,28.499996 -0.008,17.98598 -0.1731,19.64806 -3.11992,31.14287 -3.12503,12.189 -4.52062,15.74393 -10.54647,26.86403 -4.06122,7.49457 -8.87615,14.01197 -18.09506,24.4931 -3.68198,4.18615 -13.71534,12.43517 -17.91001,14.72495 -2.61252,1.4261 -4.75003,2.96685 -4.75003,3.42389 0,1.11958 -14.8995,8.00219 -24.63413,11.37936 -12.87114,4.46529 -29.96765,6.30749 -44.36587,4.78055 z m 30,-10.78899 c 10.91709,-2.27421 16.40561,-4.18745 26.50001,-9.23762 19.92449,-9.9681 34.59072,-24.52248 46.02969,-45.67874 10.55819,-19.52724 15.9306,-45.58191 13.54038,-65.66691 C 213.99898,66.038523 190.22099,32.708204 154.79582,16.266254 140.20453,9.493983 131.04016,7.5478521 113.67308,7.5334933 97.337737,7.5200003 91.350323,8.5562451 78.182411,13.675936 65.968074,18.424884 62.5058,20.27124 53.031016,27.088587 26.520483,46.16359 9.810731,77.254555 7.1448299,112.4666 c -1.1309254,14.93763 4.5909471,39.71193 13.0492461,56.5 11.14094,22.11255 25.307856,36.66362 46.478993,47.7393 11.473021,6.00209 17.290696,7.98782 30.457399,10.39595 11.440702,2.09243 23.550162,1.88274 35.542602,-0.61549 z m -21.73625,-19.23734 c 1.52009,-0.22987 3.77008,-0.22371 5.00001,0.0136 1.22993,0.23735 -0.0151,0.42542 -2.76374,0.41791 -2.74999,-0.008 -3.75632,-0.20171 -2.23627,-0.43157 z m -15.706018,-3.8957 c -4.368265,-0.78859 -9.318237,-2.33629 -11.000013,-3.43932 l -3.057713,-2.00552 3,0.60391 c 1.650028,0.33215 5.475023,1.43059 8.500006,2.44099 3.02502,1.0104 7.524998,2.27267 9.999988,2.80506 6.97584,1.50054 1.4465,1.19955 -7.442268,-0.40512 z m 43.164128,-0.50858 c 0.61705,-0.61702 0.88388,-1.74202 0.59301,-2.5 -0.68466,-1.78422 0.44183,-1.76432 2.2458,0.0397 1.22377,1.22375 2.75384,0.72551 11.17859,-3.6402 5.36841,-2.78191 12.04902,-7.01117 14.8458,-9.39836 5.41107,-4.61863 12.8606,-13.42676 15.53329,-18.36617 0.89008,-1.64496 2.14409,-3.62434 2.78668,-4.39861 0.64256,-0.77428 2.47552,-4.04178 4.0732,-7.26112 1.59768,-3.21934 2.93121,-5.27802 2.96334,-4.57483 0.079,1.72525 -5.5002,12.69045 -9.20436,18.09038 -8.4449,12.31104 -26.31235,26.94493 -38.22308,31.30567 -5.82153,2.13138 -8.49721,2.40854 -6.79227,0.70357 z m 10.27816,-7.30777 c 0,-0.275 0.89999,-0.98167 1.99998,-1.57037 1.10003,-0.5887 2.00001,-0.84537 2.00001,-0.57037 0,0.275 -0.89998,0.98167 -2.00001,1.57037 -1.09999,0.5887 -1.99998,0.84537 -1.99998,0.57037 z m -84.127555,-6.23409 c -1.244485,-1.5086 -1.162658,-1.55194 0.877569,-0.46482 2.326942,1.23991 2.899918,2.12854 1.372422,2.12854 -0.482646,0 -1.495143,-0.74867 -2.249991,-1.66372 z m 37.856505,0.57185 c -3.040139,-1.7699 -0.8352,-3.04254 4.10971,-2.37205 7.20589,0.97706 8.68905,1.5157 7.04345,2.55793 -1.88825,1.19592 -8.98273,1.07769 -11.15316,-0.18588 z m 53.77104,0.0919 c 0.33978,-0.55 1.04148,-1 1.55901,-1 0.51757,0 0.94099,0.45 0.94099,1 0,0.55 -0.70155,1.00001 -1.55902,1.00001 -0.85746,0 -1.28088,-0.45001 -0.94098,-1.00001 z m 13.96871,-10.83643 c 3.28279,-3.38995 6.13036,-6.16356 6.32792,-6.16356 0.82824,0 -6.64642,8.08548 -9.35294,10.1173 -1.61903,1.2154 -0.25776,-0.56378 3.02502,-3.95374 z m -116.968702,0.83643 c -0.99549,-1.1 -1.306053,-2 -0.690179,-2 0.615911,0 1.601461,0.9 2.19016,2 0.588699,1.10001 0.899301,2.00001 0.69018,2.00001 -0.209008,0 -1.194671,-0.9 -2.190161,-2.00001 z M 76.0898,179.68118 c -3.718186,-2.16774 -7.736806,-5.72779 -7.139641,-6.32496 0.614513,-0.61451 9.187956,4.93578 10.230917,6.62335 0.816453,1.32101 -0.537827,1.19029 -3.091276,-0.2984 z m -28.607433,-6.46456 c -2.112567,-2.26503 -6.273298,-8.88683 -4.555427,-7.25 1.028485,0.97997 7.72732,10.00001 7.426621,10.00001 -0.168567,0 -1.460485,-1.2375 -2.871194,-2.75001 z m 130.190703,-1.61294 c 0,-0.43307 1.80144,-3.81961 4.00316,-7.52566 7.00691,-11.7944 12.16434,-26.70001 14.39777,-41.61139 0.24718,-1.65 0.22715,0.7125 -0.0446,5.25 -0.32201,5.37917 -0.13077,8.25 0.54989,8.25 1.11881,0 0.43653,5.38613 -1.01341,8 -0.66954,1.20704 -0.84491,1.10938 -0.8979,-0.50001 -0.059,-1.78671 -0.21808,-1.73339 -1.49495,0.50001 -0.78603,1.37499 -1.44511,3.08921 -1.46457,3.80935 -0.10318,3.81789 -14.03547,27.4702 -14.03547,23.8277 z m 17.68312,-32.82455 c -0.31937,-0.79773 -0.55619,-0.56078 -0.60415,0.60416 -0.0435,1.05417 0.19275,1.64479 0.5252,1.31251 0.33222,-0.3323 0.36775,-1.1948 0.079,-1.91667 z m -157.703807,19.4375 c -4.595792,-8.33385 -7.883868,-18.5509 -8.410349,-26.13349 -0.252661,-3.63908 -0.24393,-5.49151 0.01928,-4.11651 1.455148,7.59828 6.08352,22.43436 8.969076,28.75 1.821845,3.9875 3.150538,7.25 2.952642,7.25 -0.198047,0 -1.786734,-2.58751 -3.530759,-5.75 z M 197.75204,126.3833 c 0.048,-1.16495 0.28497,-1.4019 0.60415,-0.60417 0.28876,0.72187 0.25323,1.58437 -0.079,1.91667 -0.33222,0.33229 -0.56867,-0.25833 -0.52524,-1.3125 z M 27.673084,118.31693 c 0,-9.00542 3.265308,-27.418345 4.621781,-26.061895 0.26948,0.269669 -0.240756,3.310937 -1.133897,6.758358 -0.893329,3.447427 -1.733669,10.462317 -1.867388,15.588647 -0.28441,10.90016 -1.620496,13.96308 -1.620496,3.71489 z M 174.72863,79.411043 c -1.75268,-3.105619 -2.98674,-5.846589 -2.74228,-6.09103 0.24454,-0.244459 1.87847,2.096523 3.63119,5.20215 1.75271,3.105622 2.98673,5.846592 2.74227,6.09103 -0.24454,0.244459 -1.87846,-2.096519 -3.63118,-5.20215 z M 153.17308,54.966605 c -0.33978,-0.550001 -0.14136,-0.999999 0.44099,-0.999999 0.58246,0 1.05902,0.449998 1.05902,0.999999 0,0.550001 -0.19842,0.999999 -0.44099,0.999999 -0.24265,0 -0.71909,-0.449998 -1.05902,-0.999999 z M 70.173101,53.966606 c 0.339779,-0.55 1.068019,-1.000002 1.618016,-1.000002 0.549996,0 0.721889,0.450002 0.381959,1.000002 -0.33978,0.550001 -1.068019,0.999999 -1.618016,0.999999 -0.549997,0 -0.72189,-0.449998 -0.381959,-0.999999 z m 8.499968,-4.490045 c 0,-1.226581 13.364145,-6.368054 19.188926,-7.382396 12.559675,-2.187175 35.128325,-0.39312 38.296935,3.044345 0.72654,0.788145 0.30501,0.912522 -1.48585,0.438528 -6.64637,-1.759034 -11.98775,-1.844126 -15.35837,-0.244649 -4.19354,1.989959 -11.00274,2.130247 -12.8679,0.265096 -2.43919,-2.439224 -9.886068,-1.8107 -16.694169,1.409012 -5.541997,2.620951 -11.079572,3.855488 -11.079572,2.470064 z"
         style="fill:#3e3e3e;stroke-width:0.99999994" />
    </pattern>
    <pattern
       patternUnits="userSpaceOnUse"
       width="281.73868"
       height="292.97734"
       patternTransform="matrix(0.26458333,0,0,0.26458333,85.007874,-4.6458453)"
       id="pattern1543">
      <path
         inkscape:connector-curvature="0"
         id="path845"
         d="m 119.55275,287.97732 c -2.79666,-2.83935 -5.82943,-4.99999 -7.01824,-4.99999 -1.1514,0 -4.90367,0.94904 -8.33843,2.10897 -7.276765,2.45739 -7.804802,2.21038 -13.179139,-6.16475 -1.68223,-2.62156 -3.657374,-4.99624 -4.389204,-5.27708 -0.731792,-0.28081 -4.587855,-0.10159 -8.56902,0.39831 -3.981128,0.4999 -7.555124,0.71317 -7.942186,0.47396 -0.387061,-0.2392 -1.999521,-3.6537 -3.583257,-7.58776 -3.209877,-7.9735 -3.872579,-8.44415 -13.409646,-9.52314 -3.363598,-0.38055 -6.443063,-1.19514 -6.843258,-1.81022 -0.400192,-0.61505 -1.402621,-4.25291 -2.227623,-8.08413 -1.642031,-7.62542 -1.426145,-7.41309 -12.249997,-12.04716 l -5.750003,-2.46178 v -8.35762 c 0,-9.45371 -0.04887,-9.53228 -8.855657,-14.23849 l -5.355654,-2.86198 0.607453,-4.53356 c 0.33411,-2.49347 0.886685,-6.81939 1.227972,-9.61317 l 0.620519,-5.0796 -5.6096955,-4.9204 c -3.2967232,-2.89163 -5.610875,-5.74504 -5.6125493,-6.9204 -0.0016,-1.1 1.1177537,-4.40718 2.4873827,-7.3493 1.3696252,-2.94211 2.4902286,-6.21874 2.4902286,-7.2814 0,-1.06265 -2.0017474,-4.916 -4.4483263,-8.56299 -4.968994,-7.40704 -4.984713,-7.1911 1.1065928,-15.20011 4.0031697,-5.26348 4.0727584,-6.42963 0.8417348,-14.1062 -1.3749997,-3.26685 -2.4999988,-6.8185 -2.4999988,-7.89254 0,-1.13576 2.3501632,-3.96062 5.6170432,-6.75161 l 5.6170468,-4.79879 -0.598541,-5.028529 c -0.329197,-2.765692 -0.884421,-6.891092 -1.233831,-9.167562 l -0.635289,-4.139017 7.116786,-4.64572 7.116783,-4.645708 v -8.342816 c 0,-5.473334 0.429936,-8.687358 1.250003,-9.344542 0.6875,-0.550949 3.949999,-1.773585 7.249999,-2.716966 3.3,-0.943382 6.526076,-2.147579 7.169061,-2.675991 0.642981,-0.528412 1.72721,-4.198378 2.409392,-8.155479 0.682186,-3.957101 1.643803,-7.721196 2.13693,-8.364656 0.49313,-0.64346 4.234231,-1.482689 8.313566,-1.864954 4.07935,-0.382264 7.823728,-1.205797 8.320887,-1.830072 0.497159,-0.624276 2.281436,-4.285047 3.965026,-8.135047 l 3.06104,-6.999999 8.881814,0.352739 8.881776,0.352739 4.430249,-6.571067 c 2.436662,-3.6140856 4.967017,-6.5853185 5.62303,-6.6027387 0.65605,-0.017424 4.40062,1.157345 8.32123,2.6105869 l 7.12842,2.6422598 4.67879,-4.4489945 c 8.24292,-7.8380999 7.32386,-7.64831092 15.71176,-3.244422 l 7.44514,3.9088981 6.90376,-3.75 c 3.7971,-2.0624999 7.2895,-3.73976919 7.76096,-3.72726311535 C 156.167,0.01257972 159.22305,2.4875746 162.48679,5.5000694 c 3.26373,3.0124939 6.31479,5.4772626 6.78017,5.4772626 0.46533,0 3.51893,-1.1249995 6.7858,-2.4999995 3.26683,-1.3750001 6.58877,-2.4999999 7.3821,-2.4999999 0.79328,0 3.56757,2.9782428 6.16509,6.6183174 l 4.7227,6.618318 8.39029,-0.440377 c 5.31848,-0.279147 8.67284,-0.04788 9.16214,0.631682 0.42448,0.589633 1.84974,3.547059 3.16721,6.572059 1.31747,3.025 2.99286,6.175 3.7231,7 0.77386,0.87431 4.55199,1.917127 9.05752,2.5 l 7.72985,1 1.26138,5.499999 c 2.77236,12.088332 2.03857,11.101145 10.76005,14.475436 l 7.97855,3.086854 0.28913,8.736948 0.28914,8.736949 6.96079,4.628621 c 3.88853,2.585711 6.9453,5.336262 6.92568,6.231912 -0.0189,0.881798 -0.65866,4.512049 -1.42068,8.06722 -0.8086,3.772241 -1.03348,7.103579 -0.54006,7.999999 0.46503,0.84483 3.12933,3.76914 5.9207,6.49847 2.79134,2.72932 5.07515,5.48369 5.07515,6.12081 0,0.63712 -1.41951,4.37223 -3.15447,8.30024 l -3.15446,7.14184 4.78155,6.93497 c 3.07865,4.46516 4.55543,7.52425 4.14663,8.58959 -0.34922,0.91004 -2.5065,4.32274 -4.79402,7.58378 l -4.15907,5.92916 3.1694,7.2186 c 1.74315,3.97023 3.16826,7.82486 3.1669,8.56584 -9.8e-4,0.74098 -2.26496,3.38142 -5.03025,5.86764 -6.83331,6.14375 -7.12437,6.88382 -5.45559,13.87178 2.3543,9.85866 2.1702,10.53342 -3.76763,13.80826 -8.72534,4.81221 -8.749,4.85079 -8.749,14.27268 v 8.35762 l -5.62443,2.48739 c -3.09343,1.36806 -6.15741,2.48739 -6.80885,2.48739 -2.80453,0 -4.56465,2.90966 -6.00752,9.93107 -0.83993,4.08708 -2.0394,7.74769 -2.66555,8.13468 -0.6262,0.38698 -3.81377,1.0063 -7.08359,1.37623 -3.26979,0.36994 -6.64732,0.94207 -7.50562,1.27144 -0.85825,0.32935 -3.04524,3.85683 -4.85987,7.83882 -1.81466,3.98201 -3.68745,7.47984 -4.16178,7.773 -0.47433,0.29314 -3.94009,0.15133 -7.7017,-0.31518 -3.76161,-0.4665 -7.47776,-0.60319 -8.25808,-0.30376 -0.78028,0.29941 -3.23282,3.21582 -5.45008,6.48085 -2.21726,3.26503 -4.57126,6.1436 -5.23113,6.39682 -0.65986,0.25323 -3.84465,-0.44958 -7.07731,-1.56178 -8.42669,-2.89921 -9.64411,-2.66483 -15.46772,2.97782 -2.8382,2.75 -5.93953,5 -6.89189,5 -0.95237,0 -4.07029,-1.575 -6.92875,-3.5 -2.85849,-1.925 -6.18088,-3.5 -7.38315,-3.5 -1.20227,0 -4.55879,1.575 -7.45894,3.5 -2.9001,1.925 -6.11361,3.5 -7.14107,3.5 -1.02747,0 -4.08431,-2.25 -6.79295,-5 z m 36,-34.43873 c 11.87067,-1.85034 20.76431,-4.72311 30.89923,-9.98085 28.74504,-14.91226 50.48417,-43.76635 56.94334,-75.58041 3.41726,-16.83137 3.9651,-23.70269 2.7504,-34.49767 C 241.6341,93.385131 217.83608,59.828191 182.17548,43.276979 167.5842,36.504708 158.41983,34.558577 141.05275,34.544219 124.7174,34.530726 118.72999,35.56697 105.56207,40.686661 93.347737,45.435609 89.885463,47.281965 80.410679,54.099312 46.32662,78.623661 28.127167,124.60313 36.834522,164.191 c 5.297174,24.08352 14.612923,42.46174 29.371521,57.94444 23.93382,25.10815 56.438437,36.53271 89.346707,31.40315 z m -42,-16.56126 c -1.63041,-0.70061 -1.68752,-0.87242 -0.30916,-0.92971 0.93002,-0.0387 1.96909,0.37971 2.30902,0.92971 0.71063,1.14988 0.6759,1.14988 -2.00001,0 z m 52.49998,-0.38337 c 0,-0.21086 0.90063,-0.61888 2.00141,-0.90674 1.10075,-0.28785 1.74921,-0.11535 1.44099,0.38337 -0.53828,0.87091 -3.4424,1.31244 -3.4424,0.52337 z m -27.73625,-2.33421 c 1.52009,-0.22988 3.77008,-0.22371 5.00001,0.0136 1.22994,0.23736 -0.0151,0.42542 -2.76374,0.41792 -2.74998,-0.008 -3.75632,-0.20171 -2.23627,-0.43157 z m -15.70602,-3.8957 c -4.36826,-0.78859 -9.31823,-2.33629 -11.00001,-3.43932 l -3.05771,-2.00552 3,0.60391 c 1.65003,0.33214 5.47502,1.43059 8.50001,2.44099 3.02502,1.0104 7.525,2.27267 9.99998,2.80506 6.97584,1.50054 1.4465,1.19955 -7.44227,-0.40512 z m 43.16414,-0.50858 c 0.61704,-0.61702 0.88388,-1.74202 0.59301,-2.5 -0.68467,-1.78422 0.44182,-1.76432 2.24579,0.0397 1.22377,1.22376 2.75384,0.72551 11.1786,-3.6402 5.3684,-2.78191 12.04902,-7.01117 14.84579,-9.39836 5.41107,-4.61863 12.8606,-13.42676 15.53329,-18.36617 0.89008,-1.64496 2.14409,-3.62434 2.78669,-4.39861 0.64255,-0.77428 2.47551,-4.04178 4.07319,-7.26112 1.59768,-3.21934 2.93122,-5.27802 2.96334,-4.57483 0.079,1.72525 -5.50019,12.69045 -9.20436,18.09038 -8.4449,12.31104 -26.31235,26.94493 -38.22308,31.30567 -5.82153,2.13138 -8.49721,2.40854 -6.79226,0.70357 z m 10.27816,-7.30777 c 0,-0.275 0.89998,-0.98167 1.99997,-1.57037 1.10003,-0.5887 2.00002,-0.84537 2.00002,-0.57037 0,0.275 -0.89999,0.98167 -2.00002,1.57037 -1.09999,0.5887 -1.99997,0.84537 -1.99997,0.57037 z m -96.694264,-4.9853 c -1.543143,-1.32821 -2.54793,-2.67352 -2.232831,-2.98957 0.315213,-0.31605 1.861757,0.77067 3.437065,2.41493 3.442053,3.5927 2.708787,3.94259 -1.204234,0.57464 z m 12.566703,-1.24879 c -1.244485,-1.5086 -1.162658,-1.55194 0.877568,-0.46482 2.326942,1.23991 2.899918,2.12854 1.372422,2.12854 -0.482645,0 -1.495143,-0.74867 -2.24999,-1.66372 z m 37.856501,0.57185 c -3.04014,-1.7699 -0.8352,-3.04254 4.10971,-2.37205 7.2059,0.97706 8.68906,1.5157 7.04345,2.55793 -1.88825,1.19592 -8.98273,1.07769 -11.15316,-0.18588 z m 53.77104,0.0919 c 0.33978,-0.55 1.04149,-1 1.55902,-1 0.51756,0 0.94099,0.45 0.94099,1 0,0.55 -0.70156,1 -1.55902,1 -0.85746,0 -1.28088,-0.45 -0.94099,-1 z M 72.511618,210.91081 c -1.076259,-1.74144 0.149669,-2.11024 1.521071,-0.45764 0.788749,0.95039 0.864604,1.52417 0.201448,1.52417 -0.584882,0 -1.360063,-0.47994 -1.722595,-1.06653 z M 197.52146,206.1409 c 3.28278,-3.38996 6.13035,-6.16357 6.32791,-6.16357 0.82824,0 -6.64641,8.08549 -9.35293,10.11731 -1.61904,1.2154 -0.25777,-0.56378 3.02502,-3.95374 z m -116.968708,0.83643 c -0.99549,-1.1 -1.306054,-2 -0.69018,-2 0.615912,0 1.601461,0.9 2.190161,2 0.588699,1.1 0.8993,2 0.690179,2 -0.209008,0 -1.194671,-0.9 -2.19016,-2 z m -15.150161,-5.25 c -4.559962,-6.99488 -6.644145,-10.75 -5.966589,-10.75 0.249449,0 1.465663,1.6875 2.702627,3.75 1.236926,2.0625 3.748611,5.62573 5.58153,7.9183 3.417034,4.2739 3.921865,5.3317 2.544681,5.3317 -0.433361,0 -2.621367,-2.8125 -4.862249,-6.25 z m 38.066869,4.96456 c -3.718182,-2.16774 -7.736803,-5.7278 -7.139638,-6.32496 0.614514,-0.61452 9.187958,4.93577 10.230918,6.62334 0.81645,1.32101 -0.53783,1.1903 -3.09128,-0.29839 z m -28.60743,-6.46456 c -2.112567,-2.26504 -6.273297,-8.88683 -4.555426,-7.25 1.028485,0.97997 7.727319,10 7.42662,10 -0.168567,0 -1.460485,-1.2375 -2.871194,-2.75 z m 130.1907,-1.61294 c 0,-0.43307 1.80144,-3.81962 4.00316,-7.52566 7.00691,-11.79441 12.16434,-26.70002 14.39777,-41.6114 0.24719,-1.65 0.22715,0.7125 -0.0446,5.25 -0.32202,5.37918 -0.13078,8.25 0.54988,8.25 1.11882,0 0.43654,5.38613 -1.0134,8 -0.66955,1.20704 -0.84492,1.10938 -0.89791,-0.5 -0.059,-1.78672 -0.21808,-1.7334 -1.49495,0.5 -0.78603,1.375 -1.4451,3.08921 -1.46457,3.80935 -0.10318,3.8179 -14.03546,27.4702 -14.03546,23.82771 z m 17.68313,-32.82456 c -0.31937,-0.79773 -0.5562,-0.56078 -0.60416,0.60417 -0.0435,1.05416 0.19276,1.64479 0.5252,1.3125 0.33222,-0.3323 0.36775,-1.1948 0.079,-1.91667 z m -157.703814,19.4375 c -4.595792,-8.33384 -7.883868,-18.55089 -8.410348,-26.13348 -0.252662,-3.63909 -0.243931,-5.49152 0.01928,-4.11652 1.455149,7.59828 6.08352,22.43437 8.969076,28.75 1.821846,3.9875 3.150539,7.25 2.952643,7.25 -0.198048,0 -1.786734,-2.5875 -3.530759,-5.75 z m -9.479297,-1.25 c -0.37542,-1.1829 -0.457614,-2.37572 -0.182627,-2.65072 0.274999,-0.275 0.807175,0.46782 1.182611,1.65072 0.374551,1.1829 0.457644,2.37572 0.182324,2.65072 -0.274885,0.27499 -0.807647,-0.46782 -1.183083,-1.65072 z m -5.500002,-17.5 c -0.646096,-3.11224 -0.982636,-5.85069 -0.747867,-6.08546 0.234784,-0.23479 0.989167,2.08583 1.67644,5.15689 0.687273,3.07106 1.023813,5.80952 0.74787,6.08546 -0.275943,0.27594 -1.030345,-2.04465 -1.676443,-5.15689 z M 225.1317,153.394 c 0.048,-1.16495 0.28498,-1.4019 0.60416,-0.60417 0.28875,0.72187 0.25323,1.58437 -0.079,1.91667 -0.33222,0.3323 -0.56866,-0.25833 -0.52524,-1.3125 z M 55.052748,145.32766 c 0,-9.00542 3.265307,-27.41835 4.62178,-26.0619 0.26948,0.26967 -0.240756,3.31094 -1.133896,6.75836 -0.893329,3.44743 -1.733669,10.46232 -1.867389,15.58865 -0.28441,10.90016 -1.620495,13.96308 -1.620495,3.71489 z m -6.409633,-14.52674 c 4.661507,-31.612952 23.76003,-58.258848 52.081085,-72.662559 12.74007,-6.479414 34.77128,-10.264441 49.24691,-8.460763 10.38474,1.293946 8.60734,2.996235 -2.15724,2.0661 -28.12589,-2.430268 -58.827065,10.69013 -76.595304,32.733631 -2.659994,3.3 -6.50264,8.736729 -8.539276,12.08163 -5.616113,9.223751 -12.587063,28.349071 -12.614672,34.609351 -0.0064,1.48004 -0.472483,2.97566 -1.035454,3.3236 -0.6731,0.41599 -0.805286,-0.84784 -0.386049,-3.69099 z M 202.10829,106.42177 c -1.75268,-3.10562 -2.98673,-5.84659 -2.74227,-6.09103 0.24453,-0.24446 1.87846,2.09652 3.63118,5.20215 1.75272,3.10562 2.98673,5.84659 2.74227,6.09103 -0.24453,0.24446 -1.87846,-2.09652 -3.63118,-5.20215 z m 15.89862,-11.530089 c -0.61391,-1.147102 -0.92783,-2.274002 -0.69762,-2.50422 0.23017,-0.230211 0.93203,0.708321 1.55958,2.085637 1.37805,3.024541 0.70708,3.350382 -0.86196,0.418583 z M 180.55274,81.97733 c -0.33978,-0.55 -0.14136,-0.999999 0.44099,-0.999999 0.58247,0 1.05903,0.449999 1.05903,0.999999 0,0.550001 -0.19843,0.999999 -0.441,0.999999 -0.24264,0 -0.71909,-0.449998 -1.05902,-0.999999 z M 97.552764,80.977331 c 0.33978,-0.55 1.068019,-1.000002 1.618016,-1.000002 0.549997,0 0.72189,0.450002 0.381959,1.000002 -0.33978,0.550001 -1.068019,0.999999 -1.618016,0.999999 -0.549997,0 -0.72189,-0.449998 -0.381959,-0.999999 z m 8.499966,-4.490044 c 0,-1.226582 13.36415,-6.368054 19.18893,-7.382396 12.55967,-2.187175 35.12833,-0.39312 38.29693,3.044345 0.72654,0.788145 0.30501,0.912521 -1.48584,0.438527 -6.64638,-1.759034 -11.98776,-1.844126 -15.35838,-0.244649 -4.19354,1.989959 -11.00273,2.130248 -12.86789,0.265096 -2.4392,-2.439224 -9.88607,-1.8107 -16.69418,1.409012 -5.54199,2.620951 -11.07957,3.855488 -11.07957,2.470065 z m 66.82073,-19.337462 c -4.93705,-1.764627 -8.13253,-3.979661 -3.82488,-2.651307 3.59799,1.109506 10.68498,4.338779 9.50418,4.330672 -0.54999,-0.0038 -3.10571,-0.759492 -5.6793,-1.679365 z m -10.00819,-3.855608 c 0.72185,-0.288873 1.58434,-0.253345 1.91663,0.07895 0.33222,0.332292 -0.25852,0.568641 -1.31247,0.52522 -1.16497,-0.04798 -1.40191,-0.284943 -0.60416,-0.604167 z"
         style="fill:#5b5b5b;stroke-width:0.99999994" />
    </pattern>
    <pattern
       patternUnits="userSpaceOnUse"
       width="281.73868"
       height="292.97734"
       patternTransform="matrix(0.26458333,0,0,0.26458333,85.007874,-4.6458453)"
       id="pattern1548">
      <path
         inkscape:connector-curvature="0"
         id="path847"
         d="m 119.55275,287.97732 c -2.79666,-2.83935 -5.82943,-4.99999 -7.01824,-4.99999 -1.1514,0 -4.90367,0.94904 -8.33843,2.10897 -7.276765,2.45739 -7.804802,2.21038 -13.179139,-6.16475 -1.68223,-2.62156 -3.657374,-4.99624 -4.389204,-5.27708 -0.731792,-0.28081 -4.587855,-0.10159 -8.56902,0.39831 -3.981128,0.4999 -7.555124,0.71317 -7.942186,0.47396 -0.387061,-0.2392 -1.999521,-3.6537 -3.583257,-7.58776 -3.209877,-7.9735 -3.872579,-8.44415 -13.409646,-9.52314 -3.363598,-0.38055 -6.443063,-1.19514 -6.843258,-1.81022 -0.400192,-0.61505 -1.402621,-4.25291 -2.227623,-8.08413 -1.642031,-7.62542 -1.426145,-7.41309 -12.249997,-12.04716 l -5.750003,-2.46178 v -8.35762 c 0,-9.45371 -0.04887,-9.53228 -8.855657,-14.23849 l -5.355654,-2.86198 0.607453,-4.53356 c 0.33411,-2.49347 0.886685,-6.81939 1.227972,-9.61317 l 0.620519,-5.0796 -5.6096955,-4.9204 c -3.2967232,-2.89163 -5.610875,-5.74504 -5.6125493,-6.9204 -0.0016,-1.1 1.1177537,-4.40718 2.4873827,-7.3493 1.3696252,-2.94211 2.4902286,-6.21874 2.4902286,-7.2814 0,-1.06265 -2.0017474,-4.916 -4.4483263,-8.56299 -4.968994,-7.40704 -4.984713,-7.1911 1.1065928,-15.20011 4.0031697,-5.26348 4.0727584,-6.42963 0.8417348,-14.1062 -1.3749997,-3.26685 -2.4999988,-6.8185 -2.4999988,-7.89254 0,-1.13576 2.3501632,-3.96062 5.6170432,-6.75161 l 5.6170468,-4.79879 -0.598541,-5.028529 c -0.329197,-2.765692 -0.884421,-6.891092 -1.233831,-9.167562 l -0.635289,-4.139017 7.116786,-4.64572 7.116783,-4.645708 v -8.342816 c 0,-5.473334 0.429936,-8.687358 1.250003,-9.344542 0.6875,-0.550949 3.949999,-1.773585 7.249999,-2.716966 3.3,-0.943382 6.526076,-2.147579 7.169061,-2.675991 0.642981,-0.528412 1.72721,-4.198378 2.409392,-8.155479 0.682186,-3.957101 1.643803,-7.721196 2.13693,-8.364656 0.49313,-0.64346 4.234231,-1.482689 8.313566,-1.864954 4.07935,-0.382264 7.823728,-1.205797 8.320887,-1.830072 0.497159,-0.624276 2.281436,-4.285047 3.965026,-8.135047 l 3.06104,-6.999999 8.881814,0.352739 8.881776,0.352739 4.430249,-6.571067 c 2.436662,-3.6140856 4.967017,-6.5853185 5.62303,-6.6027387 0.65605,-0.017424 4.40062,1.157345 8.32123,2.6105869 l 7.12842,2.6422598 4.67879,-4.4489945 c 8.24292,-7.8380999 7.32386,-7.64831092 15.71176,-3.244422 l 7.44514,3.9088981 6.90376,-3.75 c 3.7971,-2.0624999 7.2895,-3.73976919 7.76096,-3.72726311535 C 156.167,0.01257972 159.22305,2.4875746 162.48679,5.5000694 c 3.26373,3.0124939 6.31479,5.4772626 6.78017,5.4772626 0.46533,0 3.51893,-1.1249995 6.7858,-2.4999995 3.26683,-1.3750001 6.58877,-2.4999999 7.3821,-2.4999999 0.79328,0 3.56757,2.9782428 6.16509,6.6183174 l 4.7227,6.618318 8.39029,-0.440377 c 5.31848,-0.279147 8.67284,-0.04788 9.16214,0.631682 0.42448,0.589633 1.84974,3.547059 3.16721,6.572059 1.31747,3.025 2.99286,6.175 3.7231,7 0.77386,0.87431 4.55199,1.917127 9.05752,2.5 l 7.72985,1 1.26138,5.499999 c 2.77236,12.088332 2.03857,11.101145 10.76005,14.475436 l 7.97855,3.086854 0.28913,8.736948 0.28914,8.736949 6.96079,4.628621 c 3.88853,2.585711 6.9453,5.336262 6.92568,6.231912 -0.0189,0.881798 -0.65866,4.512049 -1.42068,8.06722 -0.8086,3.772241 -1.03348,7.103579 -0.54006,7.999999 0.46503,0.84483 3.12933,3.76914 5.9207,6.49847 2.79134,2.72932 5.07515,5.48369 5.07515,6.12081 0,0.63712 -1.41951,4.37223 -3.15447,8.30024 l -3.15446,7.14184 4.78155,6.93497 c 3.07865,4.46516 4.55543,7.52425 4.14663,8.58959 -0.34922,0.91004 -2.5065,4.32274 -4.79402,7.58378 l -4.15907,5.92916 3.1694,7.2186 c 1.74315,3.97023 3.16826,7.82486 3.1669,8.56584 -9.8e-4,0.74098 -2.26496,3.38142 -5.03025,5.86764 -6.83331,6.14375 -7.12437,6.88382 -5.45559,13.87178 2.3543,9.85866 2.1702,10.53342 -3.76763,13.80826 -8.72534,4.81221 -8.749,4.85079 -8.749,14.27268 v 8.35762 l -5.62443,2.48739 c -3.09343,1.36806 -6.15741,2.48739 -6.80885,2.48739 -2.80453,0 -4.56465,2.90966 -6.00752,9.93107 -0.83993,4.08708 -2.0394,7.74769 -2.66555,8.13468 -0.6262,0.38698 -3.81377,1.0063 -7.08359,1.37623 -3.26979,0.36994 -6.64732,0.94207 -7.50562,1.27144 -0.85825,0.32935 -3.04524,3.85683 -4.85987,7.83882 -1.81466,3.98201 -3.68745,7.47984 -4.16178,7.773 -0.47433,0.29314 -3.94009,0.15133 -7.7017,-0.31518 -3.76161,-0.4665 -7.47776,-0.60319 -8.25808,-0.30376 -0.78028,0.29941 -3.23282,3.21582 -5.45008,6.48085 -2.21726,3.26503 -4.57126,6.1436 -5.23113,6.39682 -0.65986,0.25323 -3.84465,-0.44958 -7.07731,-1.56178 -8.42669,-2.89921 -9.64411,-2.66483 -15.46772,2.97782 -2.8382,2.75 -5.93953,5 -6.89189,5 -0.95237,0 -4.07029,-1.575 -6.92875,-3.5 -2.85849,-1.925 -6.18088,-3.5 -7.38315,-3.5 -1.20227,0 -4.55879,1.575 -7.45894,3.5 -2.9001,1.925 -6.11361,3.5 -7.14107,3.5 -1.02747,0 -4.08431,-2.25 -6.79295,-5 z m 36,-34.43873 c 11.87067,-1.85034 20.76431,-4.72311 30.89923,-9.98085 27.18788,-14.10443 48.61379,-41.31129 55.97711,-71.08041 5.94425,-24.03202 5.53458,-40.20783 -1.58295,-62.5 -9.83225,-30.79459 -31.96467,-55.31737 -60.86902,-67.443014 -14.99082,-6.288768 -23.49933,-8.019538 -39.42437,-8.019538 -15.91207,0 -24.68235,1.77753 -39.04849,7.914201 -34.137978,14.58247 -57.707289,44.772002 -65.063376,83.338541 -3.319714,17.40464 -1.575107,36.16593 5.200312,55.92348 12.784532,37.2805 45.160173,65.49099 82.411534,71.80921 10.10952,1.71466 20.6634,1.72753 31.50002,0.0384 z m -42,-16.56126 c -1.63041,-0.70061 -1.68752,-0.87242 -0.30916,-0.92971 0.93002,-0.0387 1.96909,0.37971 2.30902,0.92971 0.71063,1.14988 0.6759,1.14988 -2.00001,0 z m 52.49998,-0.38337 c 0,-0.21086 0.90063,-0.61888 2.00141,-0.90674 1.10075,-0.28785 1.74921,-0.11535 1.44099,0.38337 -0.53828,0.87091 -3.4424,1.31244 -3.4424,0.52337 z m -39.99998,-2.09171 C 94.019473,229.07785 67.961218,205.57228 57.533312,172.69505 47.760478,141.88305 55.74594,107.08078 77.961432,83.665229 106.00961,54.10193 148.9097,48.035428 185.31162,68.484848 c 5.64143,3.16919 21.98479,19.035673 26.42778,25.656722 4.3717,6.51476 11.05387,21.69782 13.05112,29.65449 2.38413,9.49772 2.37759,35.26985 -0.0113,44.01939 -4.83292,17.70212 -12.43574,31.00929 -24.66973,43.17922 -13.38735,13.31725 -27.30096,20.39224 -46.09837,23.44069 -11.07511,1.7961 -17.65398,1.81184 -27.95852,0.0669 z m 30.12196,-6.42823 c 26.77221,-6.84718 47.81446,-24.28807 57.90115,-47.99144 5.98024,-14.05334 7.44231,-21.31863 7.36649,-36.60525 -0.0605,-12.18302 -0.41582,-15.14166 -2.73861,-22.79659 C 213.98621,105.13393 206.37553,92.478131 195.36815,81.876069 183.66095,70.599947 173.13319,65.062856 155.72378,61.025054 143.82665,58.26572 134.42958,58.396748 122.1824,61.492741 109.97384,64.578978 103.25811,67.487812 94.382232,73.534036 85.6917,79.453989 81.254874,83.748481 74.854698,92.435 c -29.443257,39.96158 -19.77035,96.8175 21.087534,123.94935 7.593148,5.04225 22.498508,10.93683 31.610528,12.50092 8.94592,1.53558 20.7546,1.20087 28.62195,-0.81125 z m -21.62196,-7.86425 c -1.09999,-0.20259 -3.41801,-1.01274 -5.15112,-1.80038 -1.73314,-0.78763 -3.66357,-1.43206 -4.28984,-1.43206 -0.6263,0 -2.90286,-0.9 -5.05904,-2 -2.15619,-1.1 -4.78406,-2 -5.83975,-2 -1.0557,0 -4.96793,-1.53429 -8.69382,-3.40953 -3.72594,-1.87524 -7.374617,-3.1792 -8.108224,-2.89769 -0.783571,0.3007 -2.060712,-0.80819 -3.096,-2.68811 -0.969222,-1.75996 -4.255823,-6.4185 -7.303597,-10.3523 -7.319659,-9.44766 -9.591307,-13.28196 -12.027515,-20.30128 -5.160793,-14.86949 -6.763955,-29.64256 -4.433121,-40.85109 4.441285,-21.35722 14.540863,-36.944308 31.749237,-49 3.1403,-2.199999 5.71937,-4.306201 5.7312,-4.68045 0.0113,-0.374248 -0.99091,-0.853935 -2.22841,-1.06597 -1.73669,-0.297562 -0.50316,-1.228373 5.40707,-4.080053 13.12823,-6.334348 30.31956,-7.694732 47.21518,-3.736237 5.2111,1.220912 7.5487,3.59466 2.62776,2.668358 -13.52701,-2.546275 -14.25566,-1.507691 -2.00001,2.850716 29.869,10.622124 45.77688,31.023776 50.44841,64.699316 1.19448,8.61068 -3.5989,29.34445 -9.44715,40.8635 -4.86267,9.57774 -13.36543,19.65288 -20.00126,23.69995 -10.72714,6.54229 -14.85003,8.69076 -18,9.37995 -1.92499,0.42117 -6.875,1.71174 -11.00002,2.86793 -10.61113,2.97419 -14.21189,3.6868 -16.49998,3.26543 z m 15.61349,-15.23692 c 16.9016,-3.15185 32.13109,-14.6461 41.2636,-31.14313 6.54595,-11.82469 8.6826,-30.21212 5.1538,-44.35239 -3.86846,-15.5012 -12.23731,-27.41883 -25.70131,-36.599831 -7.58642,-5.173119 -13.92477,-7.544009 -23.77293,-8.892408 -14.88189,-2.037619 -28.43282,1.26305 -40.77744,9.93233 -17.302219,12.150889 -26.279202,29.792109 -26.279202,51.642909 0,29.0188 21.402592,55.10645 48.999992,59.72615 4.96592,0.83127 15.84022,0.66974 21.11349,-0.31363 z m -24.15254,-6.81819 c -8.72148,-2.27721 -20.82228,-9.91278 -26.216917,-16.54277 -13.06783,-16.06039 -16.950463,-37.22096 -10.146331,-55.29796 3.44829,-9.16119 10.172183,-18.94116 16.485808,-23.97872 5.5056,-4.392849 21.26615,-11.821409 23.36871,-11.014589 0.69452,0.266532 1.51819,3.073319 1.85408,6.31813 0.585,5.651229 0.49353,5.952239 -2.85093,9.380739 -3.68931,3.782 -4.38312,6.943 -1.96445,8.9503 2.21045,1.83452 9.93316,0.36302 13.39869,-2.55302 4.0173,-3.38035 6.31355,-3.06384 10.37333,1.42985 4.38304,4.85149 6.10409,9.95932 5.49422,16.30615 -0.68387,7.11736 -1.90103,7.84731 -6.68043,4.00647 -2.17769,-1.75005 -4.43584,-3.18191 -5.01808,-3.18191 -1.96943,0 -1.07414,5.59045 1.44136,9 3.08599,4.18285 3.08708,4.51357 0.0265,8.15071 -5.34599,6.35339 -5.75996,15.94738 -0.85459,19.80596 3.19272,2.51138 11.60024,2.77228 17.11007,0.53095 2.04484,-0.83182 7.1336,-4.99432 11.30831,-9.25 4.17472,-4.25569 9.57472,-9.10411 12,-10.77426 2.6857,-1.84948 4.54133,-3.95401 4.7466,-5.38321 0.35868,-2.49747 0.68254,-2.47408 -7.08703,-0.51193 -2.18502,0.55183 -2.25237,0.34254 -2.3328,-7.25 -0.10167,-9.61668 -3.02393,-16.61703 -9.76558,-23.39505 -4.42704,-4.4509 -11.50659,-7.74885 -13.71035,-6.38685 -0.55971,0.3459 -3.23505,0.0606 -5.9452,-0.63397 -4.78193,-1.22557 -4.94676,-1.39092 -5.57711,-5.59435 -0.35716,-2.382299 -1.54896,-5.474871 -2.64824,-6.872389 -1.09931,-1.397511 -1.76647,-2.773191 -1.48259,-3.057052 1.2229,-1.2229 12.33823,1.863492 20.16582,5.599449 11.18993,5.340742 18.8098,12.924522 24.4103,24.294692 2.22883,4.52502 4.51019,10.2523 5.06967,12.7273 2.56071,11.32812 0.0843,28.5683 -5.64869,39.32452 -4.17899,7.84066 -14.44883,17.50831 -23.28522,21.91978 -8.91749,4.45197 -14.39425,5.29863 -14.59147,2.2557 -0.0714,-1.1 -0.43857,-3.8037 -0.81611,-6.00823 -0.6308,-3.68295 -0.39866,-4.28722 2.86054,-7.44617 8.47872,-8.21789 0.18897,-13.631 -10.13322,-6.61688 -2.0812,1.4142 -4.69206,2.55631 -5.80188,2.53801 -4.25011,-0.0701 -9.81876,-7.47603 -10.981,-14.60411 -0.70991,-4.35386 0.88819,-12.36262 2.4669,-12.36262 0.50967,0 2.51852,1.39768 4.46415,3.10596 6.38075,5.60237 8.70546,1.68298 3.58224,-6.03952 -1.61772,-2.43845 -2.66015,-4.91345 -2.31659,-5.5 0.34356,-0.58654 1.61344,-2.41644 2.82183,-4.06644 6.85406,-9.35885 4.49484,-19.64393 -4.85401,-21.16104 -6.07838,-0.98638 -12.84276,1.31728 -18.56402,6.32209 -2.85452,2.49707 -5.86352,5.84252 -6.6867,7.43434 -0.87114,1.68466 -3.535443,3.92735 -6.375002,5.36627 -5.019855,2.54375 -9.419717,7.04724 -8.751421,8.95747 0.396813,1.13416 2.338885,1.13958 6.925758,0.0193 l 2.750022,-0.67162 0.01134,7.36656 c 0.01134,8.24845 2.476643,14.9051 8.195713,22.12604 3.70417,4.67687 10.62335,8.14372 14.59385,7.31222 1.48536,-0.31105 4.7215,0.044 7.19139,0.78902 4.19886,1.26655 4.53785,1.63097 5.21684,5.60815 0.39935,2.33947 1.62588,5.77853 2.72557,7.64237 l 1.99944,3.38878 -2.7163,-0.0576 c -1.49394,-0.0317 -5.65883,-0.82595 -9.25531,-1.76502 z m 31.4007,-40.67733 c -0.89753,-2.33883 0.36963,-4.5 2.63833,-4.5 2.54423,0 3.65106,2.51064 1.98943,4.51273 -1.58789,1.91334 -3.8911,1.907 -4.62776,-0.0128 z m -41.00002,-22 c -0.8776,-2.28699 0.35188,-4.5 2.50001,-4.5 2.36523,0 3.57959,2.76343 2.03316,4.62675 -1.50452,1.81283 -3.81366,1.74826 -4.53317,-0.12677 z m 9.13837,-62.5 c 0.33978,-0.55 -0.30841,-0.999999 -1.44098,-0.999999 -1.13246,0 -2.05901,0.449999 -2.05901,0.999999 0,0.550001 0.64841,0.999999 1.44098,0.999999 0.79253,0 1.71908,-0.449998 2.05901,-0.999999 z m 38.50001,143 c 0,-0.55 0.47656,-1 1.05902,-1 0.58246,0 0.78089,0.45 0.44096,1 -0.33978,0.55 -0.81645,1 -1.05902,1 -0.24265,0 -0.44096,-0.45 -0.44096,-1 z M 203.78134,109.8073 c -1.81206,-3.51207 -4.2387,-7.7748 -7.11016,-12.490001 l -1.72948,-2.839968 2.58811,3 c 3.51477,4.074139 8.76476,13.274559 8.32596,14.590949 -0.19616,0.58794 -1.12948,-0.4295 -2.07443,-2.26098 z M 86.552752,90.97733 c 0.995489,-1.100001 2.034973,-2.000001 2.309971,-2.000001 0.27515,0 -0.314456,0.9 -1.309984,2.000001 -0.99549,1.100001 -2.034973,2.000001 -2.309972,2.000001 -0.275149,0 0.314457,-0.9 1.309985,-2.000001 z m 9.996661,-8.994622 c 0.338268,-0.547037 1.602142,-1.512517 2.80902,-2.145509 2.179087,-1.142899 2.181087,-1.13599 0.289134,0.994621 -1.90851,2.149481 -4.253934,3.0207 -3.098343,1.150888 z m 83.375777,-0.669097 c -1.24449,-1.508602 -1.16266,-1.551942 0.87756,-0.464821 2.32695,1.239912 2.89992,2.128539 1.37243,2.128539 -0.48265,0 -1.49515,-0.748668 -2.24999,-1.663718 z m -9.87243,-5.336281 c -0.825,-0.533155 -1.04999,-0.969373 -0.5,-0.969373 0.55,0 1.67498,0.436218 2.49997,0.969373 0.82504,0.533155 1.05003,0.969373 0.50003,0.969373 -0.54999,0 -1.67501,-0.436218 -2.5,-0.969373 z M 79.358496,217.5624 c -1.543143,-1.32821 -2.54793,-2.67352 -2.232831,-2.98957 0.315213,-0.31605 1.861757,0.77067 3.437065,2.41493 3.442053,3.5927 2.708787,3.94259 -1.204234,0.57464 z m -6.846878,-6.6516 c -1.076259,-1.74144 0.149669,-2.11024 1.521071,-0.45764 0.788749,0.95039 0.864604,1.52417 0.201448,1.52417 -0.584882,0 -1.360063,-0.47994 -1.722595,-1.06653 z m -7.109027,-9.18347 c -4.559962,-6.99488 -6.644145,-10.75 -5.966589,-10.75 0.249449,0 1.465663,1.6875 2.702627,3.75 1.236926,2.0625 3.748611,5.62573 5.58153,7.9183 3.417034,4.2739 3.921865,5.3317 2.544681,5.3317 -0.433361,0 -2.621367,-2.8125 -4.862249,-6.25 z m -9.849842,-17.75 c -0.37542,-1.1829 -0.457614,-2.37572 -0.182627,-2.65072 0.274999,-0.275 0.807175,0.46782 1.182611,1.65072 0.374551,1.1829 0.457644,2.37572 0.182324,2.65072 -0.274885,0.27499 -0.807742,-0.46782 -1.183177,-1.65072 z m -5.500002,-17.5 c -0.646096,-3.11224 -0.982636,-5.85069 -0.747867,-6.08546 0.234784,-0.23479 0.989167,2.08583 1.67644,5.15689 0.687273,3.07106 1.023813,5.80952 0.74787,6.08546 -0.275943,0.27594 -1.030345,-2.04465 -1.676443,-5.15689 z m -1.409632,-35.67641 c 4.661507,-31.612952 23.76003,-58.258848 52.081085,-72.662559 12.74007,-6.479414 34.77128,-10.264441 49.24691,-8.460763 10.38474,1.293946 8.60734,2.996235 -2.15724,2.0661 -28.12589,-2.430268 -58.827065,10.69013 -76.595304,32.733631 -2.659994,3.3 -6.50264,8.736729 -8.539276,12.08163 -5.616113,9.223751 -12.587063,28.349071 -12.614672,34.609351 -0.0064,1.48004 -0.472483,2.97566 -1.035454,3.3236 -0.6731,0.41599 -0.805286,-0.84784 -0.386049,-3.69099 z M 218.00691,94.891681 c -0.61391,-1.147102 -0.92783,-2.274002 -0.69762,-2.50422 0.23017,-0.230211 0.93203,0.708321 1.55958,2.085637 1.37805,3.024541 0.70708,3.350382 -0.86196,0.418583 z M 172.87346,57.149825 c -4.93705,-1.764627 -8.13253,-3.979661 -3.82488,-2.651307 3.59799,1.109506 10.68498,4.338779 9.50418,4.330672 -0.54999,-0.0038 -3.10571,-0.759492 -5.6793,-1.679365 z m -10.00819,-3.855608 c 0.72185,-0.288873 1.58434,-0.253345 1.91663,0.07895 0.33222,0.332292 -0.25852,0.568641 -1.31247,0.52522 -1.16497,-0.04798 -1.40191,-0.284943 -0.60416,-0.604167 z"
         style="fill:#636363;stroke-width:0.99999994" />
    </pattern>
    <pattern
       patternUnits="userSpaceOnUse"
       width="284.17617"
       height="295.99999"
       patternTransform="matrix(0.26458333,0,0,0.26458333,84.707809,-4.9164261)"
       id="pattern1553">
      <path
         inkscape:connector-curvature="0"
         id="path849"
         d="m 125.10864,294.17321 c -1.33198,-0.93067 -4.14134,-3.37538 -6.24299,-5.43268 -4.41286,-4.31973 -5.33015,-4.44087 -13.17879,-1.74054 -3.19722,1.1 -6.394926,2 -7.106044,2 -0.71108,0 -3.423647,-2.98598 -6.027931,-6.63551 l -4.734992,-6.63552 -8.21125,0.57948 c -9.381052,0.66203 -9.916498,0.35195 -12.770646,-7.39513 -2.62148,-7.11553 -3.422324,-7.73523 -11.649143,-9.01427 -4.124999,-0.64131 -8.015697,-1.80297 -8.645994,-2.58144 -0.630297,-0.77847 -1.698127,-4.34157 -2.372954,-7.91802 -1.217234,-6.45109 -2.919919,-9.39959 -5.428051,-9.39959 -0.717279,0 -3.835136,-1.11933 -6.92857,-2.48739 l -5.624432,-2.48738 -0.0155,-8.26261 c -0.0083,-4.54444 -0.34594,-8.74232 -0.749998,-9.32865 -0.404077,-0.58631 -3.269458,-2.50168 -6.367514,-4.25634 -3.098052,-1.75468 -6.087931,-3.74996 -6.644171,-4.43398 -0.690459,-0.84904 -0.506861,-3.86939 0.578634,-9.51917 l 1.589983,-8.27553 -6.2887369,-6.34513 -6.2887332,-6.34514 3.0929235,-7.04696 c 1.7011086,-3.87581 3.0929234,-7.76106 3.0929234,-8.63385 0,-0.87281 -2.0393159,-4.50455 -4.5318123,-8.07053 -5.1079294,-7.30787 -5.0696881,-7.73159 1.4344215,-15.89483 3.7430664,-4.69789 3.7824151,-5.58183 0.5973921,-13.42022 -1.3749997,-3.3839 -2.5000025,-6.93593 -2.5000025,-7.89341 0,-0.95748 2.528383,-4.29592 5.618623,-7.41874 l 5.6186234,-5.67787 -1.306451,-8.781363 c -1.216429,-8.176278 -1.182992,-8.85507 0.485288,-9.85113 0.985459,-0.588371 4.107481,-2.65914 6.937829,-4.601707 l 5.146088,-3.531935 0.500001,-8.968063 0.500001,-8.968063 L 33.689982,57 c 3.851823,-1.375002 7.512314,-2.831916 8.134428,-3.237591 0.62211,-0.405673 1.6929,-3.780673 2.37953,-7.499999 1.840785,-9.971131 1.855257,-9.986119 10.418525,-10.788563 8.456304,-0.792422 9.115529,-1.291596 12.511019,-9.473848 3.375269,-8.133605 3.163918,-8.005972 12.115426,-7.315681 9.050079,0.697893 9.21823,0.613239 14.455673,-7.277264 C 97.856999,5.1511729 98.76503,4.9553798 107.18665,8.4999999 110.45352,9.8749996 113.30476,11 113.5228,11 c 0.21808,0 2.81907,-2.2405461 5.78011,-4.9789911 2.96107,-2.738445 6.1618,-5.24076399 7.11273,-5.56070893 1.01061,-0.34002898 4.37431,0.89766693 8.09609,2.97899073 3.50192,1.9583902 6.92318,3.5607092 7.60278,3.5607092 0.6796,0 3.92296,-1.5750002 7.20748,-3.5000002 C 152.60648,1.5749998 155.91905,0 156.68323,0 c 0.76418,0 4.11462,2.5230399 7.4454,5.6067549 l 6.05598,5.6067551 6.51156,-2.6067555 c 3.58133,-1.4337146 7.3322,-2.6067549 8.33525,-2.6067549 1.13496,0 3.49134,2.493656 6.23947,6.6029614 l 4.41578,6.60296 8.83952,-0.543825 8.83952,-0.543825 2.93632,6.690864 c 1.61495,3.679975 3.30999,7.365864 3.76675,8.190864 0.5286,0.954773 3.51794,1.863485 8.22417,2.5 4.06655,0.55 7.91071,1.335923 8.54257,1.746496 0.63186,0.410573 1.89195,4.086739 2.80025,8.169257 0.90826,4.082518 2.19129,7.849196 2.85116,8.370396 0.65983,0.521199 4.19819,1.931225 7.86297,3.133394 3.66474,1.202165 6.92723,2.873869 7.25,3.714894 0.32277,0.841024 0.58677,5.019753 0.58677,9.286057 v 7.756925 l 6.54777,4.203968 c 3.60125,2.312183 6.78875,4.832001 7.08329,5.599593 0.29442,0.7676 -0.13909,4.673919 -0.96336,8.680717 -0.86026,4.181004 -1.14656,7.943574 -0.67189,8.830494 0.4549,0.84997 3.11694,3.47623 5.91564,5.83613 2.7987,2.3599 5.08853,5.122 5.08853,6.13799 0,1.01599 -1.34997,4.85615 -3,8.53369 -1.64999,3.67754 -3,6.99084 -3,7.36289 0,0.37205 2.02027,3.36761 4.48951,6.65678 2.4692,3.28918 4.4942,6.79252 4.49998,7.78519 0.008,0.99269 -1.78949,4.4555 -3.98948,7.69514 -2.19999,3.23964 -3.99999,6.60351 -3.99999,7.47526 0,0.87175 1.12498,4.25788 2.50001,7.52473 1.37499,3.26686 2.49997,6.75617 2.49997,7.75404 0,0.99786 -2.47499,4.25855 -5.49997,7.24596 -6.05824,5.98298 -6.29046,6.89706 -4.08983,16.09844 0.84299,3.52475 1.00298,6.1988 0.43193,7.21922 -0.49886,0.89142 -3.80092,3.23913 -7.33792,5.21712 l -6.43086,3.59636 -0.28687,9.15309 -0.28649,9.15309 -7.98149,3.08819 -7.98149,3.08818 -1.833,8.14624 c -2.02212,8.98664 -1.57538,8.5937 -11.55401,10.1627 -3.49251,0.54914 -6.9213,1.47259 -7.61957,2.05211 -0.69827,0.5795 -2.05754,3.18475 -3.02064,5.78945 -3.42115,9.25271 -3.37009,9.21889 -12.90485,8.54601 l -8.41195,-0.59364 -4.77796,6.64172 c -2.62787,3.65295 -5.52582,6.64172 -6.43994,6.64172 -0.91411,0 -4.27789,-0.9 -7.47511,-2 -3.19722,-1.1 -6.48949,-2 -7.31614,-2 -0.82666,0 -4.09781,2.475 -7.26921,5.5 -3.1714,3.025 -6.14676,5.5 -6.61187,5.5 -0.46514,0 -3.53605,-1.78728 -6.82424,-3.97173 -6.89472,-4.58037 -7.90435,-4.7466 -11.97853,-1.97219 -1.65003,1.1236 -4.61019,2.89035 -6.57823,3.9261 -3.37973,1.77872 -3.71255,1.78932 -6,0.19106 z m 31.22343,-46.20281 c 29.0781,-5.92574 51.39576,-20.64334 66.05552,-43.56096 11.61343,-18.15527 19.24967,-43.31953 19.24199,-63.40944 -0.004,-13.09797 -2.1067,-22.34395 -8.45601,-37.20085 C 223.58563,81.364177 209.9328,65.704256 190.19883,54.506793 176.27887,46.608319 167.16703,43.557325 149.63244,40.923619 131.75207,38.237977 102.67181,46.691581 84.591386,59.831003 62.902378,75.592834 47.397445,101.87107 42.202881,131.67238 c -1.506512,8.64291 -1.595146,17.14849 -0.193285,18.55034 0.647501,0.64751 1.177277,2.44513 1.177277,3.99473 0,4.4537 3.897389,21.27182 6.582815,28.40634 13.180237,35.01674 40.075733,57.70507 77.917152,65.72888 9.76736,2.07106 17.08585,1.97339 28.64523,-0.38227 z m -28.14523,-5.69004 C 115.39442,240.81992 100.32545,234.64571 87.331657,225.54073 60.235506,206.55394 44.52675,171.11198 48.096525,137.01866 51.378716,105.67191 66.066712,81.107108 91.91732,63.730961 c 11.13109,-7.482054 30.27167,-13.818736 43.69126,-14.464424 21.82099,-1.049927 44.17867,5.842879 60.82829,18.753194 3.64902,2.829513 3.54058,4.388383 -0.25248,3.62976 -2.67632,-0.535268 -2.04207,0.359962 5.8382,8.240216 12.09237,12.09238 16.99881,19.847331 23.16269,36.610293 5.92868,16.12332 6.2762,40.59816 0.82885,58.37709 -4.29668,14.02343 -16.05797,32.5561 -25.93561,40.86757 -1.63684,1.3773 -2.73706,2.7432 -2.44494,3.03533 1.11065,1.11066 12.27881,-10.61684 17.40812,-18.27999 13.64274,-20.38209 19.0543,-41.27485 16.70661,-64.5 -0.58375,-5.775 -1.45825,-11.11558 -1.94328,-11.86795 -0.48506,-0.75237 -1.24135,-2.77737 -1.6806,-4.5 -0.4393,-1.72263 -1.47115,-5.52078 -2.29297,-8.44034 -0.8629,-3.06544 -1.07078,-5.16712 -0.49198,-4.97419 1.55085,0.51694 6.6466,12.80674 7.16591,17.28248 0.25512,2.2 1.02274,5.50748 1.70547,7.34995 1.89253,5.10701 0.71127,30.59288 -1.86905,40.32548 -4.53861,17.11897 -12.16868,30.97256 -23.50382,42.67484 -10.99922,11.35548 -18.37036,16.26844 -36.65106,24.42854 -8.3881,3.74425 -29.46414,5.66099 -44.00002,4.00155 z m 10.00002,-3.24838 c -2.47502,-0.38542 -6.75001,-1.05289 -9.49999,-1.48323 -3.39447,-0.53122 -4.6789,-0.45501 -4.00003,0.23731 1.48029,1.50957 4.25742,1.98393 11.50001,1.96431 6.12484,-0.0166 6.2403,-0.0581 2.00001,-0.7184 z m 20.50001,-1.20354 c 2.77561,-1.21763 -8.61842,-0.11736 -11.65697,1.12566 -1.67913,0.68691 -0.64294,0.78752 3.65696,0.35508 3.29998,-0.33184 6.89998,-0.99821 8.00001,-1.48076 z m -58.50002,-9.32845 c -0.684699,-0.82499 -1.752302,-1.48569 -2.372447,-1.46819 -0.620145,0.0174 -0.253984,0.6925 0.813581,1.5 2.493656,1.88612 3.139656,1.87294 1.558866,-0.0318 z m 57.68134,-1.08924 c 21.62252,-5.63195 37.49336,-16.76095 49.31909,-34.58371 9.75126,-14.69627 14.34074,-30.22997 14.27837,-48.32704 -0.096,-27.8926 -13.90885,-53.963152 -36.77881,-69.417436 -8.96345,-6.05704 -17.29587,-9.322269 -30.89786,-12.107985 -12.17295,-2.493055 -16.95122,-2.330653 -30.42569,1.034094 C 111.92871,66.864034 105.88415,69.381918 97.686844,74.70432 88.720633,80.525968 84.247071,84.754458 77.497742,93.787507 66.347228,108.71093 61.337616,123.24604 60.536432,143 c -0.453657,11.18473 -0.235087,13.5513 2.075376,22.49149 7.842444,30.34337 28.091641,52.01156 56.575032,60.53966 13.71957,4.1077 26.46255,4.5622 38.68135,1.3796 z m -28.70846,-4.40159 c -7.58196,-1.2093 -14.04503,-3.49012 -23.47287,-8.28353 -6.32852,-3.21762 -10.027921,-6.11178 -17.706069,-13.85204 -8.266129,-8.333 -10.375144,-11.16344 -14.216315,-19.07909 -6.743811,-13.8972 -8.052813,-19.80943 -8.035994,-36.2945 0.01512,-16.07844 1.343546,-22.32213 7.445443,-35.02828 7.500963,-15.619441 19.464151,-27.915582 34.255895,-35.209277 11.05399,-5.450653 17.34675,-7.170663 28.71825,-7.849617 13.87291,-0.828307 23.73997,1.211467 36.74831,7.596839 8.90744,4.372361 11.72474,6.399564 19.18912,13.807551 9.84068,9.766311 15.54531,18.653744 19.53339,30.431624 10.44903,30.85901 1.66983,64.16633 -22.75469,86.32874 -6.69414,6.07413 -19.86519,13.12165 -29.17734,15.61209 -8.23355,2.20199 -22.71685,3.06522 -30.52713,1.81949 z m 25.50444,-19.54527 c 8.53546,-2.22321 13.40904,-4.60032 20.10134,-9.80453 11.29198,-8.78115 18.90799,-21.27652 21.86124,-35.8672 1.94196,-9.59447 1.95315,-13.56206 0.0658,-23.42581 -2.98919,-15.62321 -12.20745,-29.76208 -24.97489,-38.306342 -8.55791,-5.72716 -12.82102,-7.448591 -22.41861,-9.052539 -26.81718,-4.481692 -53.641621,11.91538 -63.264903,38.672141 -2.965984,8.24662 -3.678727,26.42819 -1.381228,35.23381 5.392592,20.66841 21.330411,37.30546 40.743341,42.53088 7.11013,1.91385 21.95709,1.92378 29.26783,0.0197 z m -20.97733,-1.16145 c -11.41081,-1.51344 -25.1227,-8.75222 -32.84201,-17.33797 -13.8158,-15.3665 -18.737085,-37.60006 -12.400405,-56.02309 5.739062,-16.68556 15.028495,-27.40316 29.603035,-34.154143 4.59829,-2.129968 9.99829,-3.965938 12,-4.079951 3.41488,-0.194494 3.64558,-0.01965 3.73939,2.836373 0.0548,1.674017 0.41839,4.74082 0.80753,6.815121 0.63746,3.39798 0.34923,4.16798 -2.90997,7.77562 -4.64364,5.13992 -4.32261,7.38946 1.04134,7.29717 2.80959,-0.0483 5.26745,-1.00314 8.37252,-3.25245 4.39242,-3.18183 4.39756,-3.18279 7.49201,-1.39275 7.28523,4.21426 12.2112,16.79125 9.63447,24.59881 -1.86237,5.643 -3.45253,6.29869 -7.6012,3.13432 -4.14803,-3.16385 -5.61592,-2.57168 -3.19083,1.2872 4.13582,6.58098 4.16485,6.78725 1.45716,10.35332 -1.39483,1.83698 -3.27651,5.20013 -4.18156,7.47364 -1.4858,3.73239 -1.49858,4.48533 -0.1319,7.75636 1.85484,4.43929 5.42732,6.00803 11.58693,5.08808 6.75772,-1.0093 11.16004,-3.72677 16.45176,-10.15541 2.63614,-3.20248 7.44317,-7.49876 10.68234,-9.54728 3.23913,-2.04852 5.88938,-4.23416 5.88938,-4.85698 0,-0.69693 -0.67299,-0.84459 -1.75,-0.38399 -0.9625,0.41163 -2.98753,0.96085 -4.50002,1.22049 l -2.74998,0.47207 v -7.52452 c 0,-9.0419 -2.61574,-16.72529 -7.7268,-22.6964 -5.5833,-6.52284 -13.57817,-9.59796 -8.42279,-3.23971 3.47717,4.28845 6.89624,12.17085 8.18453,18.86874 1.45202,7.54909 0.12208,14.98153 -3.54017,19.78285 -1.37212,1.79895 -2.49479,3.79085 -2.49479,4.42642 0,1.62679 -3.71565,5.15562 -5.42857,5.15562 -2.1899,0 -4.57141,-2.87175 -4.57141,-5.51241 0,-2.79418 1.1876,-3.67615 5.96602,-4.4307 2.89772,-0.45756 3.88562,-1.2781 5.48712,-4.55746 3.0469,-6.23904 3.2129,-14.0747 0.43566,-20.56557 -3.01693,-7.05114 -7.44208,-13.59504 -10.58657,-15.65538 -1.37473,-0.90076 -4.58846,-2.16815 -7.14168,-2.81644 -4.42409,-1.12332 -4.67645,-1.37939 -5.37139,-5.45012 -0.75783,-4.439191 -3.13119,-8.932471 -5.4466,-10.311613 -2.60576,-1.55209 -1.49363,-3.701001 1.90741,-3.685527 11.82845,0.05378 28.63053,7.895618 37.70718,17.5986 14.51244,15.51384 19.25869,36.41739 12.94632,57.01828 -5.31716,17.35287 -19.67275,31.67938 -36.83498,36.76032 -7.72433,2.28681 -8.06849,2.19115 -8.06849,-2.24276 0,-2.11793 -0.5065,-5.30363 -1.12551,-7.07933 -1.05464,-3.02537 -0.8973,-3.46223 2.50001,-6.94139 4.49045,-4.59865 4.87079,-8.12921 0.87549,-8.12695 -2.56079,0.001 -4.49742,0.83867 -12.00987,5.19201 -2.84406,1.64809 -3.02347,1.62175 -6.68156,-0.98103 -7.07456,-5.03363 -10.53404,-15.56482 -7.96014,-24.23206 1.67883,-5.65317 2.93552,-6.08496 7.2192,-2.48047 2.92241,2.45905 5.18649,3.22423 5.1781,1.74999 -0.002,-0.41249 -1.3282,-2.7456 -2.94633,-5.18469 -1.61813,-2.43908 -2.6287,-4.92261 -2.24572,-5.51897 0.38298,-0.59633 2.04632,-3.06786 3.69631,-5.49226 6.12094,-8.99373 2.88491,-18.07679 -6.42429,-18.03211 -7.62694,0.0367 -14.16537,3.98476 -20.62557,12.45452 -1.47764,1.93731 -5.33344,5.13022 -8.568411,7.09536 -6.300548,3.82738 -8.2416,7.14519 -3.029178,5.17772 5.253129,-1.98284 6.144949,-0.75861 6.169399,8.46905 0.0227,9.22248 1.64666,13.99755 7.03166,20.69848 3.09063,3.84584 8.38299,6.97965 9.64906,5.71357 0.35112,-0.3512 -0.31219,-1.6506 -1.47428,-2.88756 -3.41624,-3.63642 -7.17634,-12.95171 -7.85715,-19.46539 -0.90833,-8.69054 0.22488,-14.49458 3.67888,-18.84076 1.62244,-2.04158 2.94988,-4.55974 2.94988,-5.59589 0,-2.16245 4.1119,-4.39584 6.44489,-3.50058 0.86483,0.33184 2.11484,1.79388 2.7778,3.24893 1.07252,2.35392 0.94076,2.85983 -1.19542,4.58959 -1.4736,1.19324 -3.24,1.73344 -4.57369,1.3987 -2.86337,-0.71865 -5.20425,1.94344 -7.023,7.98667 -2.39078,7.94403 -1.86316,11.4684 3.20001,21.37431 5.02273,9.82685 7.64315,12.214 15.29477,13.93321 4.87196,1.09466 6.03692,2.33044 6.05934,6.42777 0.0189,3.34611 2.03221,7.50068 4.88934,10.08635 3.58632,3.24556 1.45701,4.08771 -7.37404,2.91643 z m 52.05888,25.14239 c 1.83031,-1.46637 1.79841,-1.4872 -0.55888,-0.36454 -3.061,1.45781 -3.62831,1.91971 -2.35778,1.91971 0.53654,0 1.84905,-0.69982 2.91666,-1.55517 z M 61.308929,186.32499 c -0.871559,-1.49876 -1.066696,-1.54196 -1.091678,-0.24166 -0.03402,1.68408 1.019187,3.2004 1.727924,2.49167 0.233575,-0.23376 -0.05254,-1.24625 -0.636246,-2.25 z m -8.122076,-37.88401 c 0,-7.45136 -0.355351,-11.33939 -0.999999,-10.94098 -1.685586,1.04175 -1.097506,22.5 0.61663,22.5 0.21086,0 0.383369,-5.20156 0.383369,-11.55902 z m 0.683116,-19.62848 c -0.319219,-0.79773 -0.556184,-0.56078 -0.604169,0.60417 -0.04343,1.05416 0.192945,1.64479 0.525222,1.3125 0.332296,-0.3323 0.367823,-1.1948 0.07895,-1.91667 z m 0.999998,-5 c -0.319219,-0.79773 -0.556184,-0.56078 -0.604165,0.60417 -0.04343,1.05416 0.192945,1.64479 0.525219,1.3125 0.332296,-0.3323 0.367823,-1.1948 0.07895,-1.91667 z M 80.008558,80.827117 c 1.354015,-1.915676 10.074935,-8.852859 15.332787,-12.196679 1.616844,-1.028262 2.736038,-2.073245 2.48708,-2.322187 C 97.085748,65.56557 89.09458,70.97466 82.895247,76.416276 77.52178,81.132949 68.186838,91.972978 68.186838,93.496128 c 0,0.728859 9.697701,-9.663882 11.82172,-12.669011 z M 188.32608,66.966728 c -2.22297,-1.851908 -4.13923,-2.54572 -4.13923,-1.498666 0,0.48929 5.13078,3.446865 6,3.458631 0.27515,0.0037 -0.56236,-0.87826 -1.86077,-1.959965 z M 107.2365,62.474317 c 1.6227,-0.839123 2.95034,-1.676719 2.95034,-1.861326 0,-0.887324 -5.0801,0.778628 -6.09188,1.997748 -1.49458,1.800824 -0.52309,1.758637 3.14154,-0.136403 z m 71.45034,-0.474319 c -0.33978,-0.550001 -1.06801,-0.999999 -1.61801,-0.999999 -0.55,0 -0.72189,0.449998 -0.38196,0.999999 0.33978,0.55 1.06802,0.999999 1.61802,0.999999 0.54999,0 0.72188,-0.449999 0.38195,-0.999999 z M 122.68687,56.86534 c 1.37295,-0.600815 0.9027,-0.676226 -1.50002,-0.24053 -1.92499,0.349078 -4.40001,1.028501 -5.50001,1.509861 -1.37298,0.600813 -0.9027,0.676222 1.50002,0.240529 1.92499,-0.349077 4.39998,-1.0285 5.50001,-1.50986 z m 16.99997,-1.819335 5.00002,-0.77878 -6,-0.06333 c -3.30002,-0.03485 -6.90002,0.323418 -8.00002,0.796102 -1.70105,0.730974 -1.55157,0.856841 1.00003,0.842109 1.64999,-0.0095 5.24999,-0.367771 7.99997,-0.796101 z m 16.75,0.291712 c -0.6875,-0.277414 -1.81247,-0.277414 -2.49997,0 -0.68753,0.277413 -0.1251,0.504386 1.24997,0.504386 1.37503,0 1.9375,-0.226972 1.25,-0.504386 z m 62.82282,43.93444 c -1.69006,-2.050319 -3.0728,-4.50502 -3.0728,-5.454898 0,-1.58897 -4.61692,-7.163282 -12.75001,-15.393963 -3.72956,-3.774323 -3.94412,-4.423298 -1.46241,-4.423298 3.12442,0 18.76056,17.975278 21.15099,24.315099 2.22985,5.914023 0.56077,6.327243 -3.86577,0.95706 z"
         style="fill:#898989;stroke-width:0.99999994" />
    </pattern>
  </defs>
  <sodipodi:namedview
     id="base"
     pagecolor="#ffffff"
     bordercolor="#666666"
     borderopacity="1.0"
     inkscape:pageopacity="0.0"
     inkscape:pageshadow="2"
     inkscape:zoom="2.675294"
     inkscape:cx="33.922442"
     inkscape:cy="151.85641"
     inkscape:document-units="mm"
     inkscape:current-layer="layer1"
     showgrid="false"
     inkscape:window-width="1920"
     inkscape:window-height="1017"
     inkscape:window-x="-8"
     inkscape:window-y="-8"
     inkscape:window-maximized="1"
     units="in"
     fit-margin-top="0.25"
     fit-margin-left="0.25"
     fit-margin-right="0.25"
     fit-margin-bottom="0.25" />
  <metadata
     id="metadata5">
    <rdf:RDF>
      <cc:Work
         rdf:about="">
        <dc:format>image/svg+xml</dc:format>
        <dc:type
           rdf:resource="http://purl.org/dc/dcmitype/StillImage" />
        <dc:title />
      </cc:Work>
    </rdf:RDF>
  </metadata>
  <g
     inkscape:label="Layer 1"
     inkscape:groupmode="layer"
     id="layer1"
     transform="translate(-1.3013069,2.7627757)">
    <g
       id="g880"
       transform="translate(0.73749275,-1.7539582)">
      <g
         transform="translate(0.01508139,0.21737515)"
         id="g1677">
        <g
           id="g841"
           transform="matrix(0.32392364,0,0,0.32392364,13.012504,39.802788)"
           inkscape:label="Top 4">
          <path
             style="fill:url(#pattern1608);stroke:none;stroke-width:3.77952766"
             d="M 461.57812,12.300781 A 109.34607,114.68854 0 0 0 352.23242,126.98828 109.34607,114.68854 0 0 0 461.57812,241.67773 109.34607,114.68854 0 0 0 570.92383,126.98828 109.34607,114.68854 0 0 0 461.57812,12.300781 Z"
             transform="scale(0.26458333)"
             id="rect1556"
             inkscape:connector-curvature="0" />
          <path
             style="fill:url(#pattern1605);stroke:none;stroke-width:3.77952766"
             d="M 461.57812,12.300781 A 109.34607,114.68854 0 0 0 352.23242,126.98828 109.34607,114.68854 0 0 0 461.57812,241.67773 109.34607,114.68854 0 0 0 570.92383,126.98828 109.34607,114.68854 0 0 0 461.57812,12.300781 Z"
             transform="scale(0.26458333)"
             id="rect1551"
             inkscape:connector-curvature="0" />
          <path
             style="fill:url(#pattern1602);stroke:none;stroke-width:3.77952766"
             d="M 461.57812,12.300781 A 109.34607,114.68854 0 0 0 352.23242,126.98828 109.34607,114.68854 0 0 0 461.57812,241.67773 109.34607,114.68854 0 0 0 570.92383,126.98828 109.34607,114.68854 0 0 0 461.57812,12.300781 Z"
             transform="scale(0.26458333)"
             id="rect1546"
             inkscape:connector-curvature="0" />
          <rect
             style="fill:url(#pattern822);stroke:none"
             width="59.820835"
             height="62.918816"
             x="92.252075"
             y="2.5007424"
             id="rect825" />
        </g>
        <path
           sodipodi:type="star"
           style="opacity:0.86000001;fill:none;fill-opacity:1;stroke:#0000ff;stroke-width:0.242;stroke-linecap:round;stroke-linejoin:round;stroke-miterlimit:4;stroke-dasharray:none;stroke-opacity:1;paint-order:stroke fill markers"
           id="path819"
           sodipodi:sides="17"
           sodipodi:cx="52.63308"
           sodipodi:cy="50.863792"
           sodipodi:r1="11.592049"
           sodipodi:r2="12.880056"
           sodipodi:arg1="0.79013746"
           sodipodi:arg2="0.97493703"
           inkscape:flatsided="false"
           inkscape:rounded="0"
           inkscape:randomized="0"
           d="m 60.790957,59.099364 -0.92933,2.42482 -2.596585,-0.03399 -1.74252,1.925365 -2.408967,-0.969685 -2.320374,1.165879 -1.896004,-1.774423 -2.584848,0.248933 -1.126975,-2.339516 -2.500225,-0.701631 -0.205742,-2.588644 -2.077932,-1.557437 0.743278,-2.488161 -1.375003,-2.202903 1.591913,-2.051638 -0.486372,-2.550854 2.225553,-1.33803 0.467946,-2.554298 2.558618,-0.443714 1.359066,-2.21277 2.546128,0.510528 2.066636,-1.572395 2.18977,1.39582 2.495095,-0.719659 1.537671,2.0926 2.586578,0.230269 0.677901,2.506763 2.328729,1.1491 -0.273423,2.582372 1.756373,1.912738 -1.18782,2.309219 0.946808,2.418049 -1.941795,1.724193 0.0094,2.59679 z"
           inkscape:transform-center-x="-0.049256978"
           inkscape:transform-center-y="0.060510646"
           inkscape:label="Trap Outline 4" />
      </g>
      <g
         transform="translate(2.6458334e-5,0.21737515)"
         id="g1685">
        <g
           inkscape:label="Top 3"
           transform="matrix(0.32392364,0,0,0.32392364,-14.842619,39.802788)"
           id="g1633">
          <path
             inkscape:connector-curvature="0"
             id="path1625"
             transform="scale(0.26458333)"
             d="M 461.57812,12.300781 A 109.34607,114.68854 0 0 0 352.23242,126.98828 109.34607,114.68854 0 0 0 461.57812,241.67773 109.34607,114.68854 0 0 0 570.92383,126.98828 109.34607,114.68854 0 0 0 461.57812,12.300781 Z"
             style="fill:url(#pattern1608);stroke:none;stroke-width:3.77952766" />
          <path
             inkscape:connector-curvature="0"
             id="path1627"
             transform="scale(0.26458333)"
             d="M 461.57812,12.300781 A 109.34607,114.68854 0 0 0 352.23242,126.98828 109.34607,114.68854 0 0 0 461.57812,241.67773 109.34607,114.68854 0 0 0 570.92383,126.98828 109.34607,114.68854 0 0 0 461.57812,12.300781 Z"
             style="fill:url(#pattern1605);stroke:none;stroke-width:3.77952766" />
          <path
             inkscape:connector-curvature="0"
             id="path1629"
             transform="scale(0.26458333)"
             d="M 461.57812,12.300781 A 109.34607,114.68854 0 0 0 352.23242,126.98828 109.34607,114.68854 0 0 0 461.57812,241.67773 109.34607,114.68854 0 0 0 570.92383,126.98828 109.34607,114.68854 0 0 0 461.57812,12.300781 Z"
             style="fill:url(#pattern1602);stroke:none;stroke-width:3.77952766" />
          <rect
             id="rect1631"
             y="2.5007424"
             x="92.252075"
             height="62.918816"
             width="59.820835"
             style="fill:url(#pattern822);stroke:none" />
        </g>
        <path
           inkscape:label="Trap Outline 3"
           inkscape:transform-center-y="0.060510646"
           inkscape:transform-center-x="-0.049256978"
           d="m 32.935835,59.099364 -0.92933,2.42482 -2.596585,-0.03399 -1.74252,1.925365 -2.408967,-0.969685 -2.320374,1.165879 -1.896003,-1.774423 -2.584849,0.248933 -1.126975,-2.339516 -2.500224,-0.701631 -0.205743,-2.588644 -2.077931,-1.557437 0.743277,-2.488161 -1.375002,-2.202903 1.591912,-2.051638 -0.486371,-2.550854 2.225552,-1.33803 0.467946,-2.554298 2.558618,-0.443714 1.359066,-2.21277 2.546129,0.510528 2.066635,-1.572395 2.18977,1.39582 2.495095,-0.719659 1.537671,2.0926 2.586578,0.230269 0.677902,2.506763 2.328729,1.1491 -0.273423,2.582372 1.756372,1.912738 -1.18782,2.309219 0.946808,2.418049 -1.941795,1.724193 0.0094,2.59679 z"
           inkscape:randomized="0"
           inkscape:rounded="0"
           inkscape:flatsided="false"
           sodipodi:arg2="0.97493703"
           sodipodi:arg1="0.79013746"
           sodipodi:r2="12.880056"
           sodipodi:r1="11.592049"
           sodipodi:cy="50.863792"
           sodipodi:cx="24.777958"
           sodipodi:sides="17"
           id="path1635"
           style="opacity:0.86000001;fill:none;fill-opacity:1;stroke:#0000ff;stroke-width:0.242;stroke-linecap:round;stroke-linejoin:round;stroke-miterlimit:4;stroke-dasharray:none;stroke-opacity:1;paint-order:stroke fill markers"
           sodipodi:type="star" />
      </g>
      <g
         transform="translate(0.01508139)"
         id="g1693">
        <g
           id="g1645"
           transform="matrix(0.32392364,0,0,0.32392364,13.012505,12.161212)"
           inkscape:label="Top 2">
          <path
             style="fill:url(#pattern1608);stroke:none;stroke-width:3.77952766"
             d="M 461.57812,12.300781 A 109.34607,114.68854 0 0 0 352.23242,126.98828 109.34607,114.68854 0 0 0 461.57812,241.67773 109.34607,114.68854 0 0 0 570.92383,126.98828 109.34607,114.68854 0 0 0 461.57812,12.300781 Z"
             transform="scale(0.26458333)"
             id="path1637"
             inkscape:connector-curvature="0" />
          <path
             style="fill:url(#pattern1605);stroke:none;stroke-width:3.77952766"
             d="M 461.57812,12.300781 A 109.34607,114.68854 0 0 0 352.23242,126.98828 109.34607,114.68854 0 0 0 461.57812,241.67773 109.34607,114.68854 0 0 0 570.92383,126.98828 109.34607,114.68854 0 0 0 461.57812,12.300781 Z"
             transform="scale(0.26458333)"
             id="path1639"
             inkscape:connector-curvature="0" />
          <path
             style="fill:url(#pattern1602);stroke:none;stroke-width:3.77952766"
             d="M 461.57812,12.300781 A 109.34607,114.68854 0 0 0 352.23242,126.98828 109.34607,114.68854 0 0 0 461.57812,241.67773 109.34607,114.68854 0 0 0 570.92383,126.98828 109.34607,114.68854 0 0 0 461.57812,12.300781 Z"
             transform="scale(0.26458333)"
             id="path1641"
             inkscape:connector-curvature="0" />
          <rect
             style="fill:url(#pattern822);stroke:none"
             width="59.820835"
             height="62.918816"
             x="92.252075"
             y="2.5007424"
             id="rect1643" />
        </g>
        <path
           sodipodi:type="star"
           style="opacity:0.86000001;fill:none;fill-opacity:1;stroke:#0000ff;stroke-width:0.242;stroke-linecap:round;stroke-linejoin:round;stroke-miterlimit:4;stroke-dasharray:none;stroke-opacity:1;paint-order:stroke fill markers"
           id="path1647"
           sodipodi:sides="17"
           sodipodi:cx="52.63308"
           sodipodi:cy="23.222219"
           sodipodi:r1="11.592049"
           sodipodi:r2="12.880056"
           sodipodi:arg1="0.79013746"
           sodipodi:arg2="0.97493703"
           inkscape:flatsided="false"
           inkscape:rounded="0"
           inkscape:randomized="0"
           d="m 60.790957,31.457791 -0.92933,2.42482 -2.596585,-0.03398 -1.74252,1.925365 -2.408967,-0.969685 -2.320374,1.165879 -1.896004,-1.774423 -2.584848,0.248933 -1.126975,-2.339516 -2.500225,-0.701631 -0.205742,-2.588644 -2.077932,-1.557437 0.743278,-2.488161 -1.375003,-2.202902 1.591913,-2.051639 -0.486372,-2.550853 2.225553,-1.338031 0.467946,-2.554298 2.558618,-0.443714 1.359066,-2.21277 2.546128,0.510528 2.066636,-1.572395 2.18977,1.395821 2.495095,-0.71966 1.537671,2.0926 2.586578,0.230269 0.677901,2.506763 2.328729,1.1491 -0.273423,2.582372 1.756373,1.912738 -1.18782,2.309219 0.946808,2.418049 -1.941795,1.724193 0.0094,2.59679 z"
           inkscape:transform-center-x="-0.049256978"
           inkscape:transform-center-y="0.060510646"
           inkscape:label="Trap Outline 2" />
      </g>
      <g
         transform="translate(2.6458334e-5)"
         id="g1701">
        <g
           inkscape:label="Top 1"
           transform="matrix(0.32392364,0,0,0.32392364,-14.842619,12.161212)"
           id="g1657">
          <path
             inkscape:connector-curvature="0"
             id="path1649"
             transform="scale(0.26458333)"
             d="M 461.57812,12.300781 A 109.34607,114.68854 0 0 0 352.23242,126.98828 109.34607,114.68854 0 0 0 461.57812,241.67773 109.34607,114.68854 0 0 0 570.92383,126.98828 109.34607,114.68854 0 0 0 461.57812,12.300781 Z"
             style="fill:url(#pattern1608);stroke:none;stroke-width:3.77952766" />
          <path
             inkscape:connector-curvature="0"
             id="path1651"
             transform="scale(0.26458333)"
             d="M 461.57812,12.300781 A 109.34607,114.68854 0 0 0 352.23242,126.98828 109.34607,114.68854 0 0 0 461.57812,241.67773 109.34607,114.68854 0 0 0 570.92383,126.98828 109.34607,114.68854 0 0 0 461.57812,12.300781 Z"
             style="fill:url(#pattern1605);stroke:none;stroke-width:3.77952766" />
          <path
             inkscape:connector-curvature="0"
             id="path1653"
             transform="scale(0.26458333)"
             d="M 461.57812,12.300781 A 109.34607,114.68854 0 0 0 352.23242,126.98828 109.34607,114.68854 0 0 0 461.57812,241.67773 109.34607,114.68854 0 0 0 570.92383,126.98828 109.34607,114.68854 0 0 0 461.57812,12.300781 Z"
             style="fill:url(#pattern1602);stroke:none;stroke-width:3.77952766" />
          <rect
             id="rect1655"
             y="2.5007424"
             x="92.252075"
             height="62.918816"
             width="59.820835"
             style="fill:url(#pattern822);stroke:none" />
        </g>
        <path
           inkscape:label="Trap Outline 1"
           inkscape:transform-center-y="0.060510646"
           inkscape:transform-center-x="-0.049256978"
           d="m 32.935835,31.457791 -0.92933,2.42482 -2.596585,-0.03398 -1.74252,1.925365 -2.408967,-0.969685 -2.320374,1.165879 -1.896003,-1.774423 -2.584849,0.248933 -1.126975,-2.339516 -2.500224,-0.701631 -0.205743,-2.588644 -2.077931,-1.557437 0.743277,-2.488161 -1.375002,-2.202902 1.591912,-2.051639 -0.486371,-2.550853 2.225552,-1.338031 0.467946,-2.554298 2.558618,-0.443714 1.359066,-2.21277 2.546129,0.510528 2.066635,-1.572395 2.18977,1.395821 2.495095,-0.71966 1.537671,2.0926 2.586578,0.230269 0.677902,2.506763 2.328729,1.1491 -0.273423,2.582372 1.756372,1.912738 -1.18782,2.309219 0.946808,2.418049 -1.941795,1.724193 0.0094,2.59679 z"
           inkscape:randomized="0"
           inkscape:rounded="0"
           inkscape:flatsided="false"
           sodipodi:arg2="0.97493703"
           sodipodi:arg1="0.79013746"
           sodipodi:r2="12.880056"
           sodipodi:r1="11.592049"
           sodipodi:cy="23.222219"
           sodipodi:cx="24.777958"
           sodipodi:sides="17"
           id="path1659"
           style="opacity:0.86000001;fill:none;fill-opacity:1;stroke:#0000ff;stroke-width:0.242;stroke-linecap:round;stroke-linejoin:round;stroke-miterlimit:4;stroke-dasharray:none;stroke-opacity:1;paint-order:stroke fill markers"
           sodipodi:type="star" />
      </g>
    </g>
    <rect
       style="opacity:0.86000001;fill:none;fill-opacity:1;stroke:#ff0000;stroke-width:0.25289729;stroke-linecap:round;stroke-linejoin:round;stroke-miterlimit:4;stroke-dasharray:none;stroke-opacity:1;paint-order:stroke fill markers"
       id="rect1669"
       width="63.247101"
       height="63.247105"
       x="7.7777567"
       y="3.7136719"
       inkscape:label="Outline" />
  </g>
</svg>
