<?xml version="1.0" encoding="UTF-8" standalone="no"?>
<!-- Created with Inkscape (http://www.inkscape.org/) -->

<svg
   xmlns:dc="http://purl.org/dc/elements/1.1/"
   xmlns:cc="http://creativecommons.org/ns#"
   xmlns:rdf="http://www.w3.org/1999/02/22-rdf-syntax-ns#"
   xmlns:svg="http://www.w3.org/2000/svg"
   xmlns="http://www.w3.org/2000/svg"
   xmlns:sodipodi="http://sodipodi.sourceforge.net/DTD/sodipodi-0.dtd"
   xmlns:inkscape="http://www.inkscape.org/namespaces/inkscape"
   width="22.06657mm"
   height="34.331383mm"
   viewBox="0 0 22.06657 34.331383"
   version="1.1"
   id="svg8080"
   inkscape:version="0.92.3 (2405546, 2018-03-11)"
   sodipodi:docname="Card_CombatCardBack.svg">
  <defs
     id="defs8074" />
  <sodipodi:namedview
     id="base"
     pagecolor="#ffffff"
     bordercolor="#666666"
     borderopacity="1.0"
     inkscape:pageopacity="0.0"
     inkscape:pageshadow="2"
     inkscape:zoom="3.959798"
     inkscape:cx="19.705518"
     inkscape:cy="57.51644"
     inkscape:document-units="mm"
     inkscape:current-layer="layer1"
     showgrid="false"
     fit-margin-top="0"
     fit-margin-left="0"
     fit-margin-right="0"
     fit-margin-bottom="0"
     inkscape:window-width="1920"
     inkscape:window-height="1017"
     inkscape:window-x="-8"
     inkscape:window-y="-8"
     inkscape:window-maximized="1" />
  <metadata
     id="metadata8077">
    <rdf:RDF>
      <cc:Work
         rdf:about="">
        <dc:format>image/svg+xml</dc:format>
        <dc:type
           rdf:resource="http://purl.org/dc/dcmitype/StillImage" />
        <dc:title></dc:title>
      </cc:Work>
    </rdf:RDF>
  </metadata>
  <g
     inkscape:label="Layer 1"
     inkscape:groupmode="layer"
     id="layer1"
     transform="translate(-63.05005,-83.28669)">
    <g
       inkscape:transform-center-y="17.717292"
       inkscape:transform-center-x="-11.087395"
       transform="matrix(0.9921916,0,0,0.9921916,-106.83757,-14.603088)"
       id="g7379"
       inkscape:label="Card">
      <path
         inkscape:connector-curvature="0"
         id="path1725"
         d="m 171.68813,99.123007 v 33.675903 h 21.31449 V 99.123007 Z"
         style="fill:#e4eae8;stroke-width:0.11489806" />
      <path
         inkscape:connector-curvature="0"
         id="path1723"
         d="m 171.68813,99.123007 v 33.675903 h 21.31449 V 99.123007 Z"
         style="fill:#fae351;stroke-width:0.11489806" />
      <path
         inkscape:connector-curvature="0"
         id="path1721"
         d="m 171.68813,99.123007 v 33.675903 h 21.31449 V 99.123007 Z m 10.25725,1.789573 0.88437,0.15625 c 0.48642,0.0859 0.93124,0.12857 0.98854,0.0943 l 0.10416,-0.0625 0.18854,0.22656 0.18854,0.22657 -0.11354,-0.002 -0.11406,-0.002 0.0266,0.14427 c 0.0147,0.0792 0.12938,0.20796 0.25469,0.28646 l 0.22812,0.14271 -0.13333,0.002 -0.13281,0.002 0.0568,0.22917 0.0568,0.22916 0.10416,-0.0625 0.10469,-0.0625 -0.0646,-0.10833 -0.0646,-0.10781 0.57447,0.008 0.57448,0.008 0.0875,0.14479 c 0.0482,0.0797 0.10187,0.2458 0.11927,0.36927 l 0.0318,0.22448 -0.28854,0.26042 c -0.15876,0.14317 -0.36864,0.25881 -0.46615,0.25781 l -0.17708,-0.002 -0.002,0.12188 -0.002,0.12187 -0.11406,-0.0729 -0.11355,-0.0724 -0.004,0.15052 -0.004,0.15 -0.10885,-0.17396 -0.10937,-0.17343 0.0104,0.48177 0.0104,0.48228 0.83333,-0.0109 c 0.45851,-0.006 0.86579,0.0221 0.90468,0.062 0.0389,0.0399 0.0867,0.26517 0.10625,0.50104 l 0.0354,0.42916 -0.11979,-0.12343 -0.11979,-0.12292 -0.29115,0.59427 -0.29166,0.59427 -0.049,-0.13802 c -0.027,-0.0759 0.0105,-0.25634 0.0833,-0.40104 l 0.13229,-0.26302 -0.18177,0.22031 -0.18177,0.22083 -0.004,0.31719 -0.004,0.31771 0.42969,0.0776 c 0.23641,0.0427 0.50684,0.11086 0.60103,0.15156 l 0.17136,0.074 -0.37396,0.0365 c -0.20568,0.02 -0.37434,0.0745 -0.375,0.12083 l -10e-4,0.0838 0.6901,-0.0344 0.68958,-0.0344 0.013,0.15365 c 0.007,0.0845 0.0535,-0.0264 0.10313,-0.24688 l 0.0906,-0.40104 0.005,0.70417 0.005,0.70416 0.17031,0.14531 0.17031,0.14532 0.002,-0.13594 0.002,-0.13646 0.3724,0.0412 0.37291,0.0411 0.0323,0.31667 0.0318,0.31666 0.22239,0.003 0.22187,0.003 -0.002,0.1151 -0.002,0.11459 0.84896,0.012 0.84947,0.0115 0.0849,-0.19948 0.0849,-0.2 0.0911,0.23073 c 0.0502,0.12709 0.0917,0.46659 0.0922,0.75416 l 0.001,0.52292 0.10781,0.11093 0.10782,0.11042 -0.0396,2.24009 c -0.0217,1.23202 -0.0446,2.73145 -0.0516,3.33176 l -0.012,1.09114 -0.0812,-0.46041 -0.0813,-0.46094 -0.0234,0.5224 -0.024,0.52239 0.12448,0.12813 0.12396,0.1276 0.001,0.44271 c 8e-4,0.24358 0.0502,0.50821 0.1099,0.58801 l 0.10833,0.14532 -0.12864,-0.002 -0.12917,-0.002 -0.002,0.1724 c -10e-4,0.0947 0.0507,0.17306 0.1151,0.17395 l 0.11667,0.002 -0.0557,0.25781 c -0.0307,0.14177 -0.0894,0.48044 -0.13021,0.75312 l -0.0745,0.49583 0.11875,-0.0708 0.11875,-0.0708 -0.002,0.11459 c -8e-4,0.0632 -0.054,0.14617 -0.11771,0.18437 -0.0637,0.0382 -0.11611,0.15668 -0.11667,0.26354 l -0.001,0.19427 0.125,-0.17031 0.12448,-0.17083 -0.0625,0.28646 c -0.0344,0.15753 -0.093,0.54441 -0.13073,0.85989 l -0.0687,0.57395 0.0885,-0.34374 0.088,-0.34375 0.0875,0.1427 0.087,0.14271 -0.13177,0.67448 -0.13229,0.67447 0.0651,0.17709 0.0651,0.17708 -0.12344,0.074 c -0.0681,0.0408 -0.12382,0.13563 -0.12395,0.21094 l -5.4e-4,0.13697 0.11406,-0.17083 c 0.0626,-0.094 0.11377,-0.13101 0.11407,-0.0828 8e-4,0.14839 -0.28185,0.58437 -0.51511,0.79427 l -0.22135,0.19947 0.10937,0.002 c 0.0602,8e-4 0.17664,-0.0617 0.25834,-0.13958 l 0.14843,-0.14166 -0.14479,0.31041 -0.14479,0.31042 -0.0958,-0.0615 -0.0958,-0.0609 0.0656,0.17813 0.0656,0.17812 -0.1927,0.0713 -0.19271,0.0708 -0.27864,-0.13177 -0.27917,-0.13177 -0.3625,0.21354 -0.36302,0.21406 -0.21198,-0.13698 c -0.1167,-0.0751 -0.21141,-0.19968 -0.21041,-0.27708 0.002,-0.16064 -0.35264,-0.38298 -0.61667,-0.38698 l -0.1776,-0.002 -0.074,0.27812 -0.074,0.2776 -0.16301,0.0599 -0.16251,0.0599 -0.006,0.44427 -0.006,0.44479 -0.67291,-0.0344 -0.67239,-0.0349 0.0328,0.45937 0.0323,0.45938 -0.25521,-0.0719 c -0.14046,-0.0397 -0.3719,-0.0746 -0.51406,-0.0776 l -0.25833,-0.005 0.006,-0.40208 0.006,-0.40208 -0.22968,-0.003 -0.23021,-0.003 -0.006,0.45937 -0.006,0.45938 0.11511,0.002 0.1151,0.002 -0.003,0.22969 -0.003,0.22969 0.1151,0.002 c 0.0632,8e-4 0.11389,0.0535 0.11302,0.11667 l -0.002,0.11458 -0.22969,-0.003 -0.22968,-0.003 -0.002,0.1151 -0.002,0.11458 -0.22969,-0.003 -0.22968,-0.003 -0.002,0.11458 -0.002,0.1151 -0.22969,-0.003 -0.22968,-0.003 -0.0136,0.97656 -0.0135,0.97656 -0.25885,0.0135 c -0.14231,0.007 -0.35091,0.0174 -0.46354,0.0224 -0.11262,0.005 -0.24334,0.0694 -0.29114,0.14375 v -0.002 l -0.087,0.13489 -1.11875,0.049 c -0.61528,0.0265 -1.11861,0.0246 -1.11822,-0.004 2.6e-4,-0.0288 0.119,-0.15984 0.26302,-0.29114 l 0.26145,-0.23855 -0.22031,-0.16718 c -0.1214,-0.092 -0.35343,-0.17044 -0.5151,-0.17344 -0.16168,-0.003 -0.37068,-0.0609 -0.46458,-0.12864 l -0.17031,-0.12344 0.28593,0.0677 0.28646,0.0682 -0.34219,-0.17084 -0.3427,-0.17083 0.34531,-0.0135 0.34479,-0.014 -0.22917,-0.0594 c -0.25201,-0.0657 -0.62543,-0.42701 -0.62343,-0.60209 8e-4,-0.0612 0.2876,-0.24623 0.6375,-0.41145 l 0.63645,-0.30052 -0.007,-0.13021 -0.007,-0.13021 -0.0599,0.14271 c -0.033,0.0786 -0.10608,0.14245 -0.16198,0.14167 l -0.10156,-0.001 0.0635,-0.15886 0.0635,-0.15937 -0.71354,-0.0198 c -0.39242,-0.0109 -0.81657,-0.0544 -0.9427,-0.0964 l -0.22917,-0.076 0.0786,0.2151 0.0786,0.21563 -0.12395,-0.12604 -0.12344,-0.12604 0.076,-0.19063 c 0.0419,-0.1048 0.12225,-0.18984 0.17865,-0.18906 0.0564,8e-4 0.10375,-0.0534 0.10469,-0.12031 l 0.002,-0.12188 -0.11563,0.0698 -0.11562,0.0693 0.004,-0.28958 0.004,-0.28906 0.31979,-0.29271 0.32031,-0.29218 -0.21354,0.076 -0.21354,0.076 0.15833,-0.24792 0.15834,-0.24739 -0.17083,-0.11042 -0.17084,-0.10989 -0.45989,0.0453 -0.46042,0.0458 0.28854,-0.0974 0.28854,-0.0979 -0.17187,-0.0156 -0.17239,-0.0156 0.17395,-0.10885 0.17396,-0.10886 -0.14687,-0.004 -0.14636,-0.004 0.0307,-0.99999 0.0307,-1.00052 -0.12812,-0.0448 c -0.17637,-0.0615 -0.15805,-0.23968 0.0448,-0.43698 l 0.16979,-0.1651 0.29114,0.0771 c 0.16005,0.0425 0.29037,0.12391 0.28959,0.18021 -8e-4,0.0563 0.0791,0.10368 0.1776,0.10468 l 0.17917,0.002 -0.0646,0.10104 -0.0641,0.10052 0.62968,0.0875 c 0.34622,0.0481 0.62877,0.12547 0.62813,0.17187 -5.4e-4,0.0464 0.45845,0.15932 1.0203,0.25052 l 1.02188,0.16563 0.77812,-0.0724 c 0.42804,-0.0399 0.85989,-0.0971 0.95989,-0.12708 l 0.18177,-0.0542 -0.15469,0.10729 -0.15468,0.10781 0.26718,0.0755 c 0.14697,0.0416 0.33722,0.0772 0.42292,0.0792 l 0.15573,0.004 -0.0661,-0.18073 -0.0667,-0.18073 0.2427,0.0807 c 0.1336,0.0444 0.39122,0.0927 0.5724,0.10781 l 0.32968,0.0276 0.001,-0.0927 c 8e-4,-0.051 -0.10609,-0.0938 -0.23698,-0.0958 -0.13089,-0.002 -0.30903,-0.0763 -0.39583,-0.16563 l -0.15781,-0.16249 0.36926,0.0214 0.36875,0.0219 -0.0245,-0.13698 -0.0245,-0.13697 0.22865,-0.0693 c 0.12564,-0.038 0.22934,-0.12065 0.23021,-0.18385 l 0.002,-0.11458 0.25729,0.076 0.25729,0.0766 -0.14427,-0.10416 -0.14427,-0.10365 0.30365,-0.15729 c 0.16712,-0.0865 0.63581,-0.46394 1.04114,-0.83906 l 0.73697,-0.68229 0.0458,-0.22917 0.0458,-0.22916 0.14479,0.0333 0.14479,0.0339 -0.0667,-0.11146 -0.0672,-0.11198 0.20521,-0.11563 c 0.1129,-0.0636 0.15735,-0.11731 0.099,-0.12031 l -0.10624,-0.005 0.23958,-0.2552 0.23958,-0.25521 0.15833,-0.62969 c 0.0872,-0.34639 0.1985,-0.67544 0.2474,-0.73124 l 0.0891,-0.10157 -0.0646,0.27396 -0.0651,0.27448 0.12552,-0.17083 c 0.069,-0.0939 0.12821,-0.26079 0.13021,-0.37136 l 0.005,-0.20104 0.17917,0.002 0.17917,0.002 -0.0594,-0.099 -0.0594,-0.099 0.34635,-0.37708 0.34687,-0.37761 0.003,-0.25208 c 0.002,-0.13869 0.037,-0.40724 0.0776,-0.59687 l 0.074,-0.34479 -0.41666,-0.47448 -0.41719,-0.47447 0.0693,-0.10834 0.0693,-0.10833 -0.12448,-0.0432 -0.12396,-0.0438 0.14688,-0.31042 0.14688,-0.31093 0.15364,0.002 c 0.0847,0.001 0.15485,-0.0498 0.15573,-0.11302 8e-4,-0.0632 -0.076,-0.11619 -0.17083,-0.11719 l -0.1724,-0.002 0.005,-0.34479 0.005,-0.34427 0.22969,0.003 0.23021,0.003 0.002,-0.1151 c 8e-4,-0.0631 -0.0555,-0.11571 -0.12552,-0.11667 l -0.12708,-0.002 0.0687,-0.17135 c 0.0379,-0.0943 0.0398,-0.24949 0.005,-0.34479 l -0.0635,-0.17344 -0.2177,-0.003 -0.21719,-0.003 v -0.14375 l 5.4e-4,-0.14374 -0.10157,0.1552 -0.10156,0.15521 -0.0599,-0.15729 -0.0604,-0.15781 -0.0115,0.20104 -0.012,0.20104 -0.15833,-0.002 c -0.087,-0.001 -0.21893,-0.0772 -0.29323,-0.16928 l -0.1349,-0.1677 -0.16718,0.0615 -0.16667,0.0614 0.12969,-0.3276 c 0.0713,-0.18003 0.12587,-0.33983 0.12187,-0.35573 -0.004,-0.0158 -0.006,-0.10676 -0.005,-0.20156 l 0.002,-0.17187 0.1724,0.002 c 0.0948,10e-4 0.17309,-0.0493 0.17395,-0.1125 l 0.002,-0.11459 -0.22969,-0.003 -0.23021,-0.003 0.002,-0.11458 0.002,-0.1151 -0.22969,-0.003 -0.22968,-0.003 0.002,-0.18073 c 0.004,-0.25342 -0.27733,-0.51266 -0.55937,-0.51666 l -0.23802,-0.003 -0.002,0.1151 -0.002,0.11459 -0.25833,-0.002 -0.25833,-0.002 0.17031,0.11354 0.17083,0.11407 -0.11458,-0.002 c -0.0632,-0.001 -0.23102,-0.12789 -0.37292,-0.28177 l -0.25781,-0.27968 0.20469,-0.0505 0.2052,-0.05 -0.36614,-0.0187 -0.36666,-0.0182 -0.0693,-0.11614 -0.0693,-0.11563 0.18593,0.003 0.18542,0.003 -0.074,-0.12344 c -0.0407,-0.068 -0.10361,-0.0944 -0.1401,-0.0589 -0.0365,0.0356 -0.17289,-0.007 -0.30313,-0.0943 -0.13023,-0.0873 -0.44324,-0.20198 -0.69531,-0.25468 l -0.45833,-0.0958 0.14427,-0.05 0.14427,-0.0505 0.003,-0.22135 0.003,-0.22187 -0.48906,0.0583 c -0.26904,0.0319 -0.66297,0.0821 -0.875,0.11146 l -0.38541,0.0531 0.0703,-0.11041 0.0708,-0.11042 -0.20209,0.0453 c -0.11103,0.0251 -0.61614,0.0839 -1.12239,0.13073 l -0.92031,0.0854 -0.16406,-0.13073 -0.16406,-0.13021 0.0948,0.16146 0.0943,0.16198 -0.31302,-0.0833 -0.31302,-0.0833 0.0724,0.12083 0.0724,0.12031 -0.3302,-0.005 -0.32969,-0.005 -0.47864,0.22291 c -0.26331,0.12274 -0.56197,0.22184 -0.66354,0.22084 l -0.18438,-0.003 0.0797,0.13385 0.0802,0.13386 -0.13854,-0.0885 -0.13855,-0.088 -0.19635,0.15209 c -0.10777,0.0837 -0.29974,0.20762 -0.42708,0.27552 l -0.23177,0.12343 -0.22865,-0.0932 -0.22864,-0.0927 0.14375,-0.006 0.14375,-0.006 0.003,-0.22968 0.003,-0.22969 -0.22969,-0.003 -0.22968,-0.003 0.003,-0.21719 0.003,-0.21666 -0.38542,-0.0781 -0.38594,-0.0776 -0.18854,0.0693 -0.18906,0.0693 -0.003,0.21771 -0.003,0.21718 0.11458,0.002 0.1151,0.002 -0.004,0.32187 -0.004,0.32136 0.13594,0.1401 0.13593,0.13958 -0.25312,-0.004 -0.2526,-0.004 -0.002,0.11458 c -8e-4,0.0632 0.0504,0.11579 0.11355,0.11667 0.0632,8e-4 0.11389,0.0535 0.11302,0.11667 l -0.002,0.11458 -0.22968,-0.003 -0.22969,-0.003 -0.003,0.22969 -0.003,0.22969 -0.34478,-0.005 -0.34479,-0.005 -0.002,0.11458 -0.002,0.11511 -0.29531,-0.004 -0.29531,-0.004 -0.16198,-0.16667 c -0.089,-0.0915 -0.16083,-0.22188 -0.1599,-0.28958 0.001,-0.0677 -0.0503,-0.12361 -0.11354,-0.12448 l -0.11458,-0.002 0.004,-0.27292 0.004,-0.27291 0.34583,-0.0641 0.34531,-0.0641 0.006,-0.4052 0.006,-0.40469 0.1151,0.002 0.11511,0.002 0.003,-0.22968 0.003,-0.22969 0.22969,0.003 0.22969,0.003 0.002,-0.1776 c 0.001,-0.0977 0.13725,-0.30841 0.30156,-0.46823 l 0.29844,-0.29063 0.0599,0.24323 0.0604,0.24323 0.21615,0.003 0.21666,0.003 0.002,-0.18073 c 0.003,-0.20968 0.27683,-0.5056 0.46562,-0.5026 l 0.12969,0.002 -0.0693,-0.11562 -0.0698,-0.11615 0.11406,0.002 c 0.0627,8e-4 0.15073,-0.10915 0.19583,-0.24479 0.0451,-0.13564 0.2147,-0.36609 0.37656,-0.51198 l 0.29428,-0.2651 -0.30417,-0.004 -0.30365,-0.004 -0.002,0.13437 c -0.001,0.0735 -0.0291,0.1062 -0.062,0.0724 -0.0329,-0.0338 -0.005,-0.19833 0.0609,-0.36563 l 0.12031,-0.30416 0.2625,0.0693 0.2625,0.0698 0.26302,-0.2724 0.26302,-0.27187 -0.11511,-0.31614 c -0.0633,-0.17371 -0.085,-0.36291 -0.0484,-0.42032 l 0.0661,-0.10416 -0.12812,-0.002 -0.12865,-0.002 0.0786,-0.12291 0.0786,-0.12344 0.27344,0.0729 c 0.41387,0.10998 0.32983,-0.0237 -0.0964,-0.15313 l -0.37188,-0.1125 0.37917,-0.005 0.37968,-0.005 -0.0172,-0.63176 c -0.009,-0.34746 -0.0416,-0.60699 -0.0724,-0.57709 -0.0308,0.0299 -0.12827,-0.0366 -0.21667,-0.14739 -0.088,-0.1108 -0.129,-0.13627 -0.0901,-0.0568 l 0.0708,0.14479 -0.11511,-0.002 c -0.1951,-0.003 -0.22742,-0.16869 -0.0729,-0.37396 l 0.14791,-0.19583 0.0734,0.0755 0.074,0.076 0.002,-0.13438 c 0.001,-0.0737 -0.0498,-0.13453 -0.11302,-0.13541 -0.0632,-8e-4 -0.11401,-0.0598 -0.11302,-0.13073 l 0.002,-0.12865 0.17448,0.14844 0.17396,0.14896 0.31406,-0.14011 c 0.17271,-0.077 0.47017,-0.2087 0.66093,-0.2927 l 0.34688,-0.15261 0.3125,0.0427 0.31197,0.0432 -0.0615,-0.10312 c -0.0338,-0.0565 -0.12247,-0.0955 -0.19687,-0.0875 -0.0743,0.008 -0.20141,0.008 -0.28281,-0.001 l -0.14792,-0.0156 0.15,-0.15781 0.15052,-0.15729 0.0844,0.13177 0.0844,0.13229 0.088,-0.125 0.088,-0.125 0.36823,0.007 0.36823,0.007 -0.0677,0.10625 -0.0677,0.10625 0.26927,-0.13959 z m -5.58227,1.20989 0.11406,0.0724 c 0.0627,0.0399 0.11329,0.11936 0.1125,0.17656 h -5.3e-4 c -8e-4,0.0572 -0.0947,0.15236 -0.20886,0.21146 l -0.20729,0.10781 -0.014,-0.22396 -0.0136,-0.22396 0.10677,0.0682 0.10729,0.0682 0.002,-0.12864 z m -1.32187,0.0635 0.19635,0.15313 0.19688,0.15312 -0.0266,0.27448 c -0.0147,0.15111 -0.0331,0.27459 -0.0411,0.27448 -0.0419,-5.3e-4 -0.36578,-0.43041 -0.43698,-0.58021 -0.0454,-0.0954 0.0223,-0.0431 0.15053,0.11667 l 0.23333,0.29062 0.005,-0.17812 c 0.003,-0.0979 -0.0587,-0.25145 -0.13646,-0.34115 z m 1.99583,0.53386 -0.0635,0.15989 -0.0641,0.1599 0.12187,0.0776 0.1224,0.0776 -0.12396,0.22344 c -0.0679,0.12293 -0.0969,0.26797 -0.0646,0.32187 l 0.0594,0.0979 -0.21562,0.1901 -0.21562,0.18959 -0.087,-0.20729 c -0.0478,-0.11399 -0.0762,-0.26757 -0.0635,-0.34167 0.0127,-0.0741 -0.0291,-0.16783 -0.0927,-0.20833 l -0.11563,-0.074 0.0661,0.17917 0.0656,0.17916 -0.12708,-0.002 -0.12708,-0.002 0.002,-0.17396 0.002,-0.17396 0.37813,-0.33489 c 0.20794,-0.18397 0.41553,-0.33546 0.46093,-0.33646 z m -2.3375,0.0818 0.35365,0.26823 0.35312,0.26822 -0.12812,0.22344 -0.12761,0.22396 0.22344,-0.16511 0.22396,-0.16458 -0.34271,0.36406 c -0.37706,0.40053 -0.47412,0.45165 -0.37083,0.19323 l 0.0677,-0.17031 -0.13281,0.0255 -0.13229,0.0255 -0.0766,-0.46094 -0.076,-0.46041 0.0828,-0.0854 z m 1.03229,0.89947 0.24167,0.24792 0.24114,0.24791 -0.0698,0.17396 -0.0693,0.17396 -0.21771,-0.003 -0.21718,-0.003 0.001,-0.20104 0.001,-0.20104 -0.11406,0.17084 -0.11354,0.17031 5.3e-4,-0.17865 c 2.7e-4,-0.0985 0.0715,-0.27377 0.15833,-0.38906 z m 13.07963,3.96197 0.12657,0.12968 0.12604,0.12969 -0.0792,0.12344 c -0.0434,0.0681 -0.12451,0.12316 -0.18021,0.12239 -0.0557,-8e-4 -0.13506,-0.0578 -0.17656,-0.12708 l -0.0755,-0.12604 0.12969,-0.12604 z m 1.82239,18.05982 c 0.12936,-0.0206 0.12335,0.0757 0.05,0.38906 -0.0837,0.35755 -0.22159,0.44682 -0.3526,0.22812 l -0.0724,-0.12083 0.14114,-0.16511 0.14115,-0.16562 -0.15782,-0.0104 -0.15729,-0.01 0.23073,-0.0896 c 0.0757,-0.0292 0.13397,-0.0489 0.17708,-0.0557 z m -1.37864,2.02863 c 0.0502,-0.006 0.0826,-1.2e-4 0.0823,0.0219 -2.6e-4,0.0227 -0.0619,0.17184 -0.1375,0.33177 h -5.3e-4 c -0.15413,0.32623 -0.24689,0.35709 -0.42239,0.13958 l -0.12031,-0.14948 0.0812,-0.11979 c 0.0576,-0.0851 0.36674,-0.20606 0.51719,-0.22395 z m 0.66719,0.25417 0.1625,0.22552 0.1625,0.225 -0.006,0.43125 c -0.006,0.45719 -0.10733,0.60111 -0.29322,0.41822 -0.0624,-0.0613 -0.26252,-0.23098 -0.44479,-0.37656 l -0.19011,-0.15156 0.0776,-0.0693 c 0.0574,-0.0511 0.10634,-0.17339 0.10834,-0.27239 l 0.004,-0.18021 0.20937,-0.125 z m -4.56509,0.0365 c 0.0239,-0.0339 0.0436,0.21831 0.0453,0.61927 0.002,0.45823 -0.009,0.83164 -0.0245,0.82864 -0.128,-0.0213 -0.31029,-0.38832 -0.30729,-0.61771 l 0.004,-0.28229 -0.14271,-0.0615 -0.14271,-0.0614 0.25313,-0.0734 0.25312,-0.0734 0.0516,-0.24583 c 0.004,-0.0169 0.007,-0.0275 0.0104,-0.0323 z m 2.86822,0.10364 0.22083,0.22709 0.22084,0.22708 -0.33959,0.35312 -0.33906,0.35313 -0.13854,-0.14271 c -0.18791,-0.19317 -0.17255,-0.32444 0.0687,-0.59271 l 0.20417,-0.22708 -0.1448,0.0818 -0.14479,0.0823 0.002,-0.10989 c 8e-4,-0.0602 0.0889,-0.14143 0.19583,-0.18073 z m 1.2526,0.33542 -0.0958,0.1599 -0.0771,0.12916 -0.13281,-0.10573 0.15313,-0.0917 z m -7.17497,1.20051 -0.002,0.11511 -0.002,0.11458 0.22969,0.003 0.23021,0.003 -0.002,0.11459 v 0.1151 l 0.22969,0.003 0.22968,0.003 0.003,-0.22969 0.003,-0.22969 -0.45973,-0.006 z m 2.70051,0.50573 -0.003,0.20052 5.3e-4,5.4e-4 -0.003,0.20051 -0.18698,-0.003 c -0.10294,-0.001 -0.3367,-0.0686 -0.51926,-0.14948 l -0.33177,-0.1474 0.17239,-10e-4 c 0.0948,-5.3e-4 0.24813,0.0486 0.34062,0.10886 l 0.16823,0.10989 0.18125,-0.15989 z"
         style="fill:#f9d950;stroke-width:0.11489806" />
      <path
         inkscape:connector-curvature="0"
         id="path1719"
         d="m 171.68813,99.123007 v 33.675903 h 21.31449 V 99.123007 Z m 6.27029,1.734363 0.21562,0.0875 0.2151,0.087 -0.38854,0.15886 c -0.21387,0.0871 -0.4131,0.1577 -0.4427,0.15729 -0.111,-0.002 0.047,-0.27424 0.22031,-0.38021 z m 2.04165,0.049 -0.22552,0.17709 -0.22552,0.1776 -0.34583,-0.005 -0.34583,-0.005 0.12083,-0.11718 c 0.0664,-0.0646 0.32359,-0.14262 0.57135,-0.17292 z m 5.91769,0.0167 -0.002,0.15104 -0.002,0.15104 -0.80781,0.22865 c -0.44414,0.12561 -0.8077,0.26543 -0.80833,0.31093 -5.3e-4,0.0455 0.33435,0.1841 0.74479,0.30781 0.82598,0.24898 0.8025,0.22978 0.8901,0.71406 l 0.0625,0.34531 -0.63542,0.49271 c -0.34935,0.27088 -0.63561,0.54178 -0.63645,0.60208 l -0.002,0.1099 0.20156,-0.0531 c 0.111,-0.0292 0.48685,-0.0791 0.83489,-0.11094 l 0.63281,-0.0578 0.21406,0.30573 0.21354,0.30521 -0.3776,0.73958 c -0.20768,0.40686 -0.35171,0.76623 -0.32031,0.79843 0.0314,0.0322 0.35201,-0.10256 0.7125,-0.29948 l 0.6552,-0.35781 0.34479,0.14844 0.34479,0.14844 -0.0813,0.89791 -0.0818,0.89791 0.10625,0.001 c 0.0585,8e-4 0.30662,-0.27849 0.55104,-0.62031 l 0.44427,-0.62135 0.28698,0.001 c 0.43288,0.002 0.5165,0.10437 0.78906,0.96927 l 0.25052,0.79583 0.088,-0.15885 c 0.0482,-0.0875 0.15993,-0.43176 0.24843,-0.7651 0.0885,-0.33334 0.22647,-0.65916 0.30677,-0.72396 l 0.14583,-0.11771 0.10365,0.0656 0.10365,0.0661 0.0297,3.19218 c 0.0164,1.75557 0.021,4.35519 0.012,5.77706 -0.009,1.42187 -9e-5,2.61912 0.0203,2.66092 0.0207,0.0418 0.0264,1.44505 0.0135,3.11822 l -0.0234,3.04218 -0.25312,0.31249 -0.25261,0.31302 -0.0109,0.77917 c -0.006,0.42863 -0.0436,0.86049 -0.0833,0.95989 l -0.0719,0.18073 -0.19479,-0.003 c -0.10697,-0.002 -0.25541,-0.0658 -0.33021,-0.1427 l -0.13593,-0.13959 0.005,-0.37135 0.005,-0.37135 -0.24844,-0.0828 -0.24843,-0.0828 -0.22396,0.29844 -0.22344,0.29792 -0.22604,-0.003 -0.22552,-0.003 -0.24896,-0.28281 -0.24947,-0.28229 -0.2599,0.0995 -0.25989,0.0995 -0.005,0.37812 -0.005,0.37812 -0.20261,0.1224 -0.20312,0.12291 -0.22813,-0.0927 c -0.35933,-0.14612 -0.45022,-0.12872 -0.60989,0.11926 l -0.14896,0.2323 0.1724,0.25364 c 0.0948,0.13948 0.17075,0.37048 0.16875,0.51354 l -0.004,0.2599 -0.40417,0.1625 -0.40468,0.16249 -0.004,0.29583 -0.004,0.29584 0.3474,0.075 0.34791,0.0745 0.10834,0.20885 0.10833,0.20938 -0.25989,0.43437 c -0.3131,0.52325 -0.4053,0.59324 -0.68438,0.51614 -0.1182,-0.0328 -0.39034,-0.0293 -0.60468,0.008 l -0.3901,0.0677 -0.26511,0.22396 -0.2651,0.22344 -2.26614,-0.0312 5.4e-4,0.001 c -1.2462,-0.0173 -2.41475,-0.006 -2.59687,0.025 l -0.33125,0.0557 -0.15781,-0.10782 -0.15781,-0.10781 0.21823,-0.10885 c 0.11995,-0.0599 0.49072,-0.19369 0.82395,-0.2974 0.33324,-0.10369 0.60658,-0.23067 0.60729,-0.28176 8e-4,-0.0511 -0.3326,-0.18814 -0.74062,-0.30469 l -0.74166,-0.21198 -0.0703,-0.40469 -0.0703,-0.4052 0.33541,-0.23542 c 0.18444,-0.12957 0.49235,-0.3739 0.68438,-0.5427 l 0.34895,-0.30677 -0.92812,0.0557 -0.92864,0.0557 -0.14844,-0.37291 -0.14843,-0.37344 0.34062,-0.64479 c 0.18754,-0.35473 0.3633,-0.69229 0.3901,-0.74999 0.0268,-0.0577 -0.30301,0.0824 -0.73281,0.31093 l -0.78176,0.41511 -0.28386,-0.19167 -0.28385,-0.19167 0.0547,-0.85051 0.0547,-0.85052 -0.11667,-5.3e-4 c -0.0644,-5.4e-4 -0.23759,0.17039 -0.38438,0.37968 -0.14677,0.2093 -0.3883,0.49176 -0.53697,0.6276 l -0.27031,0.24688 -0.27656,-0.10938 -0.27605,-0.10937 -0.25781,-0.84115 -0.25833,-0.84062 -0.0896,0.16198 c -0.0493,0.0893 -0.16202,0.43541 -0.25052,0.76875 l -0.16094,0.60573 -0.15573,0.12604 -0.15573,0.12552 -0.11822,-0.12136 -0.11823,-0.12135 -0.0203,-4.92602 c -0.0111,-2.70917 -0.036,-6.69408 -0.0552,-8.85569 l -0.0349,-3.9302 0.3073,-0.3552 0.30728,-0.35521 0.013,-0.91406 0.0125,-0.91406 0.175,-0.0641 0.17448,-0.0646 0.16875,0.14427 0.16927,0.14427 -0.005,0.38385 -0.005,0.38437 0.22084,0.12188 c 0.32304,0.17867 0.40942,0.15542 0.58124,-0.15521 0.0851,-0.15395 0.23833,-0.29877 0.34011,-0.32187 l 0.18489,-0.0417 0.29115,0.34427 0.29114,0.34479 0.25104,-0.0755 0.25104,-0.076 0.005,-0.37656 0.005,-0.37656 0.20365,-0.17344 0.20312,-0.17396 0.22865,0.0964 c 0.36845,0.15524 0.49966,0.13088 0.63802,-0.11928 l 0.1302,-0.23593 -0.18385,-0.28854 -0.18333,-0.28906 0.0391,-0.2474 0.0396,-0.24739 0.37448,-0.10157 0.375,-0.10156 0.004,-0.31875 0.004,-0.31927 -0.39999,-0.13854 -0.40052,-0.13802 0.004,-0.27187 0.004,-0.27187 0.24479,-0.40157 0.24427,-0.40208 0.47812,0.0708 0.47812,0.0714 0.44219,-0.29271 0.44166,-0.29322 2.75103,-0.002 z m -10.56871,0.96823 0.39948,0.006 0.39948,0.006 0.32968,0.17604 c 0.18128,0.097 0.40903,0.29273 0.50573,0.43489 l 0.17552,0.25833 -0.007,0.49584 -0.007,0.49531 -0.19323,0.28645 c -0.10637,0.15754 -0.33939,0.35934 -0.5177,0.44844 l 5.3e-4,-10e-4 c -0.17831,0.0891 -0.46893,0.15977 -0.64583,0.15677 l -0.32188,-0.005 -0.31926,-0.21666 c -0.55299,-0.37567 -0.6887,-0.67999 -0.6474,-1.44791 l 0.0177,-0.33073 0.41562,-0.38125 z m 0.11458,0.17499 -0.0151,0.38906 -0.0146,0.38959 0.19271,0.14479 0.19219,0.14479 0.1526,-0.14792 0.15209,-0.14791 -0.012,-0.38177 -0.012,-0.38177 -0.0589,0.34375 -0.0583,0.34374 -0.0901,-0.23072 -0.0901,-0.23125 -0.0162,0.22968 -0.0167,0.22969 -0.15261,-0.34687 z m 11.326,0.44323 0.12708,0.002 0.1276,0.002 -0.002,0.17343 c -10e-4,0.0955 0.10014,0.39994 0.22552,0.67656 l 0.22761,0.50313 0.52291,0.53749 0.52291,0.5375 0.38229,0.13177 c 0.20973,0.0725 0.38036,0.17965 0.38021,0.23802 -0.001,0.0579 -0.0403,0.098 -0.0875,0.0891 -0.0473,-0.009 -0.19927,-0.0409 -0.33802,-0.0698 l -0.2526,-0.0526 -0.6625,-0.6625 -0.66302,-0.6625 -0.18073,-0.40468 c -0.0995,-0.22258 -0.21482,-0.5475 -0.25572,-0.72187 z m -11.92704,0.15208 -0.002,0.11406 c -8e-4,0.0628 0.17461,0.23854 0.3901,0.39063 l 0.39219,0.27656 -0.29271,0.37239 -0.29219,0.3724 0.0771,0.12864 0.0776,0.12813 0.24323,-0.41198 c 0.13372,-0.22665 0.28692,-0.41168 0.34062,-0.41093 0.0537,8e-4 0.18353,0.15777 0.28854,0.34843 l 0.19115,0.34635 0.14323,0.003 c 0.19622,0.004 0.18626,-0.0269 -0.1375,-0.41406 -0.15535,-0.18578 -0.28229,-0.37282 -0.28177,-0.41562 5.3e-4,-0.0428 0.16936,-0.20611 0.375,-0.3625 0.20564,-0.1564 0.34728,-0.31171 0.31458,-0.34531 -0.0327,-0.0337 -0.25605,0.0959 -0.49583,0.28802 l -0.43594,0.34948 -0.24843,-0.22396 c -0.13687,-0.12309 -0.3385,-0.29335 -0.44792,-0.37864 z m -1.52916,2.52135 0.11355,0.0729 0.11406,0.0724 -0.0115,0.84791 -0.012,0.84844 -0.11563,0.0693 -0.11614,0.0693 0.0135,-0.9901 z m 16.65827,0.24479 0.52396,0.007 0.52343,0.007 -0.0724,0.11406 -0.0734,0.11354 -0.4526,-0.006 -0.45261,-0.006 0.002,-0.11458 z m -7.51768,3.07238 -1.06145,0.12604 c -0.58383,0.0695 -1.11149,0.17475 -1.17239,0.23386 -0.0609,0.0592 -0.18045,0.10672 -0.26615,0.10572 -0.27415,-0.004 -1.53896,0.65486 -2.11822,1.10312 -0.30835,0.23861 -0.80583,0.70965 -1.10572,1.04687 l -0.54531,0.61302 -0.51823,1.01875 -0.51823,1.01874 -0.004,0.27396 c -0.004,0.30635 -0.20095,0.71396 -0.42708,0.88541 -0.0819,0.0621 -0.16534,0.18843 -0.18594,0.28073 -0.0206,0.0923 -0.12376,0.24617 -0.22916,0.34167 l -0.19167,0.17396 -0.0667,0.49687 -0.0661,0.49687 0.21719,0.19115 c 0.11958,0.10532 0.21662,0.26004 0.21562,0.34375 l -0.002,0.15208 0.34531,0.20052 0.34479,0.20052 0.0698,0.28854 c 0.12824,0.5309 0.55775,1.43783 1.02031,2.1552 l 0.45833,0.71093 0.60104,0.54323 c 0.33056,0.29877 0.93415,0.73731 1.34166,0.975 l 0.74114,0.43229 0.85781,0.26927 0.85833,0.26926 1.13229,0.0219 1.13229,0.0214 0.70833,-0.16979 c 0.38962,-0.0936 1.09891,-0.35464 1.57603,-0.57968 l 0.86719,-0.40886 0.88437,-0.85208 0.88385,-0.85156 0.41458,-0.69166 c 0.22778,-0.38045 0.48168,-0.89389 0.56458,-1.14114 0.0829,-0.24724 0.19725,-0.49799 0.25365,-0.55729 0.0564,-0.0593 0.1032,-0.20388 0.1052,-0.32135 l 0.003,-0.21354 0.10104,0.0646 0.10105,0.0646 0.39947,-0.48177 0.39948,-0.48177 0.0307,-0.60312 0.0307,-0.6026 -0.11771,-0.002 c -0.0648,-8e-4 -0.16698,-0.13662 -0.22708,-0.30156 l -0.10938,-0.3 -0.21302,-0.0589 -0.21354,-0.0588 -0.19218,-0.75104 c -0.22651,-0.8852 -0.49258,-1.49202 -1.01094,-2.30676 l -0.37864,-0.59531 -0.78333,-0.74219 c -0.77214,-0.7313 -0.95679,-0.85406 -2.15728,-1.43749 l -0.60573,-0.29479 -1.08593,-0.15729 z m 8.96976,16.36712 0.0885,0.001 0.005,1.03437 h -0.001 c 0.002,0.56883 -0.0129,1.03415 -0.0344,1.03385 -0.0215,-2.7e-4 -0.1002,-0.0637 -0.175,-0.14063 l -0.13594,-0.13958 0.01,-0.71458 c 0.0102,-0.73394 0.0876,-1.07648 0.24271,-1.07448 z m -17.47181,1.59687 0.4526,0.006 0.45313,0.006 -0.002,0.11511 -0.001,0.11458 -0.52396,-0.007 -0.52395,-0.007 0.0729,-0.11406 z m 1.59166,0.22656 0.18073,0.0724 c 0.0994,0.0398 0.22659,0.0732 0.28229,0.0739 0.0558,8e-4 0.40685,0.29421 0.78021,0.65208 l 0.67864,0.65052 0.21823,0.48229 c 0.12004,0.26516 0.25092,0.59892 0.29062,0.74167 l 0.0724,0.25989 -0.12292,-0.002 -0.12239,-0.002 0.002,-0.20103 c 0.001,-0.1106 -0.1454,-0.46566 -0.325,-0.78906 l -0.32656,-0.58802 -0.41927,-0.37865 c -0.23062,-0.2082 -0.59283,-0.46436 -0.80521,-0.56926 -0.21239,-0.10492 -0.3857,-0.23816 -0.38489,-0.29636 z m 13.45047,0.84323 0.57343,0.008 0.3875,0.43437 0.3875,0.4349 -0.006,0.46249 -0.006,0.46302 -0.38333,0.40677 -0.38386,0.40625 -0.51354,0.0463 -0.51406,0.0464 -0.3552,-0.26615 -0.35573,-0.26666 -0.13229,-0.38229 -0.13229,-0.38281 0.0734,-0.31458 c 0.0405,-0.17287 0.17157,-0.45903 0.29115,-0.63594 l 0.21719,-0.32187 0.076,0.12708 0.0761,0.12708 -0.0854,-0.001 c -0.0471,-5.3e-4 0.0635,0.16039 0.24636,0.35834 l 0.3328,0.36041 -0.4552,0.3849 c -0.25047,0.21191 -0.39911,0.38602 -0.33021,0.38697 0.0689,0.001 0.28039,-0.12535 0.47031,-0.28072 0.43162,-0.35307 0.53674,-0.35066 1.04375,0.0229 l 0.40885,0.30156 -0.42448,-0.39947 -0.425,-0.39948 0.29115,-0.32917 c 0.3094,-0.34985 0.36383,-0.4996 0.18177,-0.5026 -0.0616,-8e-4 -0.19413,0.15242 -0.29479,0.34062 -0.10065,0.18821 -0.23066,0.34144 -0.28906,0.34063 -0.0583,-8e-4 -0.24247,-0.18571 -0.40938,-0.41094 l -0.30364,-0.40937 0.0844,-0.0823 c 0.0463,-0.045 0.34229,-0.0774 0.65781,-0.0734 z m -0.0401,1.59686 c -0.0625,-8e-4 -0.12527,0.007 -0.17292,0.0245 l -0.17344,0.0641 0.008,0.41875 0.007,0.41874 0.0557,-0.20052 0.0552,-0.2 0.21302,0.003 0.2125,0.003 0.05,0.20208 0.05,0.20157 0.0188,-0.41823 0.0193,-0.41875 -0.17136,-0.0682 c -0.0471,-0.019 -0.1094,-0.0288 -0.17187,-0.0297 z m -1.61666,1.56823 -0.26042,0.26979 c -0.30688,0.31773 -0.24631,0.30277 -0.4901,0.11927 l -0.19844,-0.14948 0.47448,-0.11979 z m -1.68698,0.11562 c 0.0988,0.004 0.10644,0.0656 -0.0146,0.18334 -0.0653,0.0635 -0.32156,0.13724 -0.56927,0.16354 l -0.45,0.0479 0.50156,-0.23281 c 0.24327,-0.1127 0.43344,-0.16605 0.53229,-0.16198 z"
         style="fill:#dc5946;stroke-width:0.11489806" />
      <path
         inkscape:connector-curvature="0"
         id="path1717"
         d="m 171.68813,99.123007 v 33.675903 h 21.31449 V 99.123007 Z m 8.36976,1.716133 -10e-4,0.0807 c -5.3e-4,0.0446 -0.13336,0.13932 -0.29532,0.21042 -0.16195,0.0711 -0.43184,0.127 -0.59947,0.125 l -0.30469,-0.004 0.13021,-0.12656 c 0.0717,-0.0698 0.34204,-0.16265 0.60052,-0.20625 z m -2.25364,0.0427 0.23541,0.037 c 0.27319,0.0429 0.31422,0.23026 0.0604,0.27656 h -5.3e-4 c -0.095,0.0173 -0.30235,0.0664 -0.46094,0.10886 l -0.28854,0.0771 0.22708,-0.24948 z m 2.65155,0.002 2.78541,0.003 2.7854,0.003 -0.0677,0.16875 -0.0677,0.16927 -0.79062,0.24271 c -0.43483,0.13343 -0.769,0.27839 -0.7427,0.32239 0.0263,0.044 0.37993,0.18024 0.78593,0.30261 l 0.73854,0.22239 0.0661,0.38073 0.0656,0.38073 -0.15104,0.14062 c -0.0832,0.0774 -0.37334,0.30905 -0.64479,0.5151 -0.27145,0.20604 -0.49414,0.41332 -0.49479,0.46042 l -0.001,0.0854 0.76249,-0.0911 c 0.8861,-0.10626 1.03425,-0.0673 1.20416,0.31979 l 0.125,0.28542 -0.3776,0.70207 c -0.20784,0.3862 -0.35145,0.72984 -0.31875,0.76354 0.0327,0.0337 0.35461,-0.0999 0.7151,-0.29687 l 0.65573,-0.35781 0.34271,0.14739 0.34322,0.14792 -0.0646,0.89843 c -0.0359,0.49434 -0.0333,0.89947 0.005,0.9 0.0385,5.3e-4 0.29955,-0.30527 0.58021,-0.67968 l 0.51041,-0.68073 0.29948,0.0755 c 0.44958,0.11378 0.44602,0.1093 0.70052,1.0026 l 0.23697,0.83177 0.0995,-0.22865 c 0.0545,-0.12565 0.1858,-0.52452 0.29219,-0.88645 l 0.19375,-0.65833 0.22135,0.003 0.22187,0.003 0.003,0.14374 c 0.0135,0.57791 0.0524,12.2445 0.0484,14.69786 l -0.004,3.06249 -0.26614,0.32343 -0.26615,0.32344 -0.013,0.89427 -0.013,0.89374 -0.18906,0.0698 -0.18854,0.0693 -0.18385,-0.11875 -0.18386,-0.11875 -0.0302,-0.41927 -0.0297,-0.41979 -0.0984,-0.001 c -0.0542,-8e-4 -0.17493,-0.032 -0.26823,-0.0693 l -0.16979,-0.0677 -0.21302,0.35 -0.21354,0.34948 -0.18489,-0.003 -0.1849,-0.003 -0.27031,-0.29583 -0.27031,-0.29583 -0.23437,0.0302 -0.23438,0.0302 -0.0411,0.42187 -0.0406,0.42135 -0.17135,0.13802 -0.17136,0.13854 -0.29479,-0.13958 -0.29479,-0.13906 -0.16145,0.13021 c -0.20373,0.1644 -0.21023,0.45589 -0.0162,0.72916 l 0.15052,0.21198 -0.051,0.25 -0.0516,0.25 -0.36562,0.10208 -0.36562,0.1026 -0.004,0.28698 -0.004,0.2875 0.36407,0.1125 0.36406,0.11302 0.0573,0.23177 0.0573,0.23177 -0.22865,0.35885 -0.22864,0.35833 0.0745,0.0761 0.074,0.076 -0.16302,0.004 c -0.0896,0.002 -0.40682,0.0125 -0.70521,0.0234 l -0.54271,0.0198 -0.32656,0.23437 -0.32656,0.23698 -2.7328,0.012 -2.73228,0.012 -0.0479,-0.0797 c -0.0753,-0.12572 0.18495,-0.26722 0.90312,-0.4901 0.36498,-0.11327 0.66405,-0.23766 0.66459,-0.27657 5.3e-4,-0.0389 -0.32076,-0.17056 -0.71406,-0.2927 -0.77833,-0.24172 -0.88212,-0.33306 -0.87812,-0.77812 l 0.002,-0.29531 0.42812,-0.33073 c 0.23551,-0.18191 0.53582,-0.41832 0.66771,-0.525 l 0.2401,-0.19375 -0.22969,0.001 c -0.12641,8e-4 -0.5014,0.0361 -0.83281,0.0786 -0.66214,0.085 -0.70644,0.0697 -0.97395,-0.33333 l -0.18385,-0.2776 0.37552,-0.69636 c 0.20665,-0.38321 0.39721,-0.74373 0.42291,-0.80103 0.0258,-0.0573 -0.29581,0.0809 -0.71406,0.30729 l -0.76041,0.41145 -0.29323,-0.13854 -0.29323,-0.13854 0.009,-0.92968 0.009,-0.92917 -0.25885,0.28594 c -0.14238,0.15722 -0.4003,0.46179 -0.57344,0.67708 l -0.31458,0.39167 -0.32135,-0.11823 -0.32083,-0.11771 -0.25365,-0.74323 c -0.35534,-1.04195 -0.30908,-1.0513 -0.65989,0.13281 l -0.19531,0.65782 -0.20886,-0.003 -0.20937,-0.003 -0.0453,-2.09791 c -0.0249,-1.15374 -0.042,-3.41603 -0.038,-5.02758 0.004,-1.61155 -0.01,-4.72472 -0.0302,-6.91768 l -0.0375,-3.98697 0.30781,-0.35572 0.30781,-0.35573 0.012,-0.85625 0.012,-0.85677 0.17447,-0.0641 0.17448,-0.0646 0.16302,0.13906 0.1625,0.13854 0.0292,0.42292 0.0292,0.42239 0.29843,0.0385 0.29844,0.0391 0.19583,-0.29063 0.19635,-0.29062 0.16511,0.002 c 0.0908,10e-4 0.28751,0.13839 0.4375,0.30468 l 0.27291,0.30261 0.21666,-0.038 0.21667,-0.038 0.0412,-0.42083 0.0406,-0.42084 0.15365,-0.12395 0.15416,-0.12396 0.30677,0.12187 c 0.42573,0.16865 0.49585,0.15696 0.64115,-0.10573 l 0.12708,-0.2302 -0.17396,-0.25573 c -0.0956,-0.14068 -0.17231,-0.37256 -0.17031,-0.51563 l 0.004,-0.26041 0.40416,-0.1625 0.40469,-0.16198 0.004,-0.28437 0.004,-0.28438 -0.39999,-0.13802 -0.40052,-0.13854 0.004,-0.27343 c 0.002,-0.15048 0.0968,-0.45113 0.21041,-0.66823 l 0.20625,-0.39479 0.59271,0.0276 0.59323,0.0276 0.38489,-0.27604 z m -4.99946,0.3526 -0.001,0.0854 c -5.3e-4,0.0471 -0.0921,0.11032 -0.20312,0.14063 -0.11102,0.0303 -0.30625,0.0948 -0.43333,0.14374 l -0.23073,0.0891 0.14948,-0.17917 c 0.0823,-0.0985 0.27792,-0.20146 0.43437,-0.22916 z m -0.88229,0.48959 -0.25729,0.40416 c -0.14155,0.22209 -0.25898,0.50089 -0.26198,0.61979 -0.003,0.11891 -0.0569,0.29308 -0.12031,0.38698 l -0.1151,0.17083 0.0792,-0.40104 c 0.0935,-0.4731 0.34179,-0.98047 0.53697,-1.09739 z m 0.99271,0.13958 0.4677,0.0693 0.46823,0.0698 0.2724,0.26302 0.27239,0.26302 0.1,0.38385 0.10052,0.38333 -0.11093,0.38021 -0.11094,0.38073 -0.28698,0.2625 -0.2875,0.2625 -0.55,0.0443 -0.55052,0.0448 -0.32603,-0.2651 -0.32605,-0.26459 -0.15208,-0.37812 -0.15156,-0.3776 0.0797,-0.37969 c 0.11104,-0.52863 0.34677,-0.8453 0.74843,-1.0052 z m -0.10625,0.31562 -0.0125,0.29271 -0.013,0.29323 0.13594,0.13958 v 5.4e-4 c 0.0748,0.0768 0.17752,0.13993 0.22812,0.14062 l 0.0917,0.001 -0.012,-0.37344 -0.012,-0.37344 -0.0594,0.34375 -0.0589,0.34375 -0.14376,-0.40416 z m 11.3286,0.32865 0.1276,0.002 0.12709,0.002 -0.002,0.17605 c -0.001,0.0969 0.1185,0.42386 0.26666,0.72655 l 0.26927,0.55052 0.49219,0.4651 c 0.27071,0.25597 0.65934,0.53698 0.86353,0.62448 0.2038,0.0874 0.36991,0.20479 0.36979,0.26042 -0.002,0.11588 -0.2038,0.11571 -0.48124,-5.4e-4 -0.10607,-0.0444 -0.46418,-0.32218 -0.79584,-0.61718 l -0.60312,-0.53646 -0.24375,-0.50937 c -0.13394,-0.28025 -0.27626,-0.6522 -0.31666,-0.82656 z m -11.93224,0.14791 0.0609,0.16042 c 0.0335,0.0884 0.21567,0.27248 0.40469,0.40885 l 0.34375,0.24792 -0.2974,0.34375 c -0.16364,0.1891 -0.29791,0.37524 -0.29843,0.41354 l -5.4e-4,-5.4e-4 c -0.003,0.19552 0.24561,0.0311 0.40625,-0.26927 0.10065,-0.18821 0.22968,-0.34193 0.28698,-0.34114 0.0573,8e-4 0.21243,0.15804 0.34479,0.34948 0.13236,0.19144 0.29275,0.34911 0.35625,0.34999 l 0.1151,0.002 -0.34322,-0.42917 -0.34375,-0.42864 0.4026,-0.27812 c 0.2214,-0.15297 0.40284,-0.32598 0.40364,-0.38438 8e-4,-0.0584 -0.21042,0.0565 -0.46927,0.25573 l -0.47031,0.3625 -0.24947,-0.22448 c -0.13719,-0.12342 -0.34019,-0.29527 -0.45104,-0.38177 z m -1.50781,2.53541 0.10625,0.0677 0.10573,0.0677 -0.013,0.82603 -0.0135,0.82604 -0.10573,0.1625 -0.10625,0.1625 -0.0276,-0.96874 c -0.0152,-0.53279 -0.009,-1.00815 0.0135,-1.05625 z m 16.64264,0.23489 0.52396,0.007 0.52343,0.007 -0.0724,0.11354 -0.0734,0.11407 -0.4526,-0.006 -0.45261,-0.006 0.002,-0.1151 z m -7.11091,3.14895 -1.11041,0.0698 -1.11041,0.0703 -0.84792,0.30729 c -1.33088,0.48196 -2.20495,1.10078 -3.15467,2.23437 -0.78772,0.94023 -1.32697,2.03915 -1.54374,3.1453 l -0.0766,0.39062 -0.23125,0.15729 c -0.12715,0.0865 -0.23233,0.23027 -0.23333,0.31927 l -0.002,0.16146 -0.23177,0.11979 -0.23125,0.11979 -0.009,0.61459 -0.008,0.61457 0.22968,0.0636 0.22917,0.063 -0.0693,0.17343 -0.0687,0.17292 0.23906,0.13281 c 0.1316,0.0728 0.28502,0.10466 0.34062,0.0714 l 0.10104,-0.0604 0.0698,0.31614 c 0.0385,0.17389 0.20401,0.65412 0.36771,1.06719 0.88828,2.24141 3.10184,4.05056 5.48071,4.47863 l 5.3e-4,-5.4e-4 c 0.15761,0.0283 0.6998,0.0636 1.2052,0.0781 l 0.91875,0.026 0.7901,-0.15573 0.78958,-0.15625 0.87604,-0.45677 c 1.08995,-0.56858 1.85355,-1.18377 2.53072,-2.03905 0.57549,-0.72685 1.18625,-1.88644 1.30676,-2.48176 l 0.0771,-0.38177 0.27448,-0.12031 c 0.15094,-0.0663 0.27491,-0.15672 0.27552,-0.20052 5.4e-4,-0.0438 0.13238,-0.21715 0.29271,-0.38542 0.30502,-0.32011 0.37435,-0.52252 0.17969,-0.52552 -0.0632,-8e-4 -0.1135,-0.0791 -0.1125,-0.17395 0.001,-0.0947 0.054,-0.17172 0.11719,-0.17084 l 0.11458,0.002 0.003,-0.23334 0.003,-0.23333 -0.17136,-0.0682 -0.17135,-0.0687 0.003,-0.21354 0.003,-0.21354 -0.21302,-0.11771 c -0.1172,-0.0648 -0.24286,-0.0889 -0.27916,-0.0536 -0.0363,0.0353 -0.0985,-0.13516 -0.13854,-0.37917 -0.10383,-0.63374 -0.74859,-2.22485 -1.14948,-2.83697 -0.39593,-0.60453 -1.42192,-1.60681 -2.09009,-2.04165 -0.25488,-0.16588 -0.81346,-0.45135 -1.24166,-0.6349 l -0.77864,-0.33385 -0.77188,-0.11614 z m 1.63854,1.50989 0.13281,0.16562 c 0.0733,0.0908 0.16001,0.13857 0.1927,0.10677 0.0578,-0.0562 0.74215,0.33564 1.01354,0.58021 0.0739,0.0666 0.34723,0.2792 0.60729,0.4724 0.57833,0.42965 1.15133,1.21413 1.52031,2.08071 l 0.2776,0.65104 -0.006,0.39896 -0.006,0.39844 -0.1151,-0.002 c -0.0632,-8e-4 -0.11619,0.0676 -0.11719,0.1526 -0.001,0.085 -0.0976,0.2387 -0.21458,0.34167 l -0.2125,0.18854 -0.575,-0.008 c -0.31623,-0.004 -0.61078,-0.0445 -0.65468,-0.0896 -0.0439,-0.0451 -0.21989,-0.0928 -0.39115,-0.10572 -0.17126,-0.0129 -0.39681,-0.0312 -0.50156,-0.0412 l -0.19062,-0.0172 0.16874,-0.60104 c 0.0929,-0.33051 0.17096,-0.7131 0.17396,-0.85 0.003,-0.13689 0.0558,-0.26521 0.11823,-0.28541 0.0624,-0.0202 0.13265,-0.1938 0.15625,-0.38594 0.0236,-0.19213 0.078,-0.40425 0.12083,-0.47135 l 0.0776,-0.1224 -0.21667,-0.20156 -0.21718,-0.20208 -0.12344,0.074 -0.12292,0.0734 0.002,-0.11249 c 8e-4,-0.0621 -0.1374,-0.28295 -0.30729,-0.49063 -0.16989,-0.20767 -0.31163,-0.43336 -0.31563,-0.50156 -0.004,-0.0682 -0.0468,-0.21476 -0.0958,-0.32604 l -0.0891,-0.2026 -0.34479,-0.005 -0.34479,-0.005 0.0724,-0.18072 c 0.0397,-0.0994 0.0727,-0.22232 0.0734,-0.27292 8e-4,-0.0507 0.1031,-0.11722 0.2276,-0.14792 z m -2.17395,0.41146 c 0.0672,0.0102 0.14253,0.074 0.18333,0.18489 l 0.0693,0.18854 -0.13698,0.2125 -0.13698,0.21302 0.10834,5.3e-4 c 0.0595,8e-4 0.14566,-0.11118 0.19166,-0.24947 l 0.0839,-0.25156 0.21094,0.26823 0.21094,0.26822 0.002,-0.1276 0.002,-0.12761 0.31615,0.008 0.31562,0.008 0.20521,0.2901 0.20573,0.29063 -0.10469,0.29947 -0.10469,0.3 -0.47864,0.13386 c -0.26337,0.0735 -0.50705,0.10583 -0.54114,0.0708 -0.0341,-0.035 -0.0626,-0.003 -0.0636,0.0703 l -5.3e-4,5.3e-4 c -0.004,0.25916 -0.19781,0.12709 -0.40885,-0.27812 l -0.21302,-0.40989 0.17344,-0.11875 0.17396,-0.11927 -0.19219,0.0588 -0.19271,0.0583 -0.0453,-0.13698 c -0.0251,-0.0753 -0.0309,-0.2919 -0.0125,-0.48124 0.0183,-0.18935 0.0388,-0.40912 0.0448,-0.48802 0.008,-0.10349 0.0672,-0.14668 0.13438,-0.13646 z m -3.24166,0.29635 c 0.0262,-0.003 0.0438,0.004 0.0516,0.0203 0.01,0.0206 0.0746,0.14138 0.14426,0.26875 l 0.12709,0.23177 0.26354,-0.008 0.26354,-0.008 -0.30469,0.25521 -0.3052,0.25469 0.0359,0.61458 0.0354,0.61406 -0.20833,-0.26094 c -0.11464,-0.14379 -0.26596,-0.26256 -0.33646,-0.26354 l -0.12864,-0.002 0.17552,0.35104 0.17552,0.35104 0.11093,-0.0667 0.11094,-0.0667 -0.002,0.1151 c -8e-4,0.0632 -0.054,0.14617 -0.11771,0.18437 -0.0638,0.0382 -0.11675,0.16955 -0.11875,0.29219 l -0.003,0.22344 0.17239,0.002 c 0.20016,0.003 0.21238,0.10901 0.0573,0.50052 l -0.11197,0.28281 -0.63021,0.17396 -0.62968,0.17499 -0.61407,-0.0172 c -0.33774,-0.01 -0.67878,-0.0446 -0.75728,-0.0776 l -0.14271,-0.0599 0.006,-0.43176 0.006,-0.43177 0.44219,-0.80938 0.4427,-0.80989 0.58177,-0.64218 c 0.42971,-0.47409 1.02488,-0.93515 1.20833,-0.95469 z m -0.73176,0.88958 -0.20938,0.37917 c -0.11493,0.20858 -0.21158,0.41822 -0.21458,0.46562 -0.009,0.1345 0.049,0.107 0.40208,-0.18802 l 0.32969,-0.27552 -0.15417,-0.19063 z m 3.81144,0.73854 -0.0214,0.2401 -0.0214,0.23958 -0.15782,-0.002 -0.15729,-0.002 0.0464,0.14427 0.0464,0.14427 0.29167,-0.0307 0.29218,-0.0312 0.15834,0.16302 c 0.19105,0.19641 0.69571,0.49236 0.79531,0.46666 0.0394,-0.0101 0.21293,-0.0419 0.38593,-0.0708 l 0.31458,-0.0526 -0.0792,0.42448 c -0.0435,0.23323 -0.10639,0.55468 -0.14011,0.71458 l -0.0609,0.28958 -0.22709,-0.003 c -0.12479,-0.002 -0.29755,-0.0444 -0.38385,-0.0943 -0.1289,-0.0745 -0.9139,-0.1891 -1.52291,-0.2224 l -0.13489,-0.007 -0.12917,-0.41042 -0.12865,-0.40989 0.0781,-0.30886 c 0.043,-0.16985 0.10612,-0.41157 0.14062,-0.53749 l 0.0625,-0.22917 -0.11823,0.16719 -0.11875,0.16771 -0.076,-0.0787 -0.0766,-0.0781 0.17917,-0.17448 0.17916,-0.17448 0.0495,0.14323 0.049,0.14375 0.24271,-0.26563 z m 0.55624,0.56927 0.42709,0.0755 c 0.489,0.0863 0.56555,0.13794 0.45729,0.30781 v 5.3e-4 c -0.0426,0.0668 -0.19117,0.11971 -0.33021,0.11771 l -0.25312,-0.004 -0.15052,-0.24896 z m -2.49738,1.4927 0.26354,0.004 c 0.32553,0.004 0.62513,0.11883 0.62396,0.23749 -0.003,0.12356 -0.3342,0.1772 -0.7849,0.12657 l -0.3802,-0.0427 0.13854,-0.16302 z m 7.02497,1.78593 c 0.063,-0.002 0.10682,-2.7e-4 0.12552,0.007 l 0.13594,0.0516 0.0687,0.33594 c 0.0379,0.18485 0.10395,0.33754 0.14635,0.33854 0.0424,0.001 0.17312,0.21038 0.29062,0.46458 l 0.21355,0.46198 -0.1198,0.25625 c -0.0658,0.14079 -0.27426,0.56274 -0.46301,0.93801 l -0.34271,0.6823 -0.69635,0.64999 c -0.38296,0.35733 -0.87973,0.73938 -1.10364,0.84896 -0.22391,0.10959 -0.43311,0.22442 -0.46511,0.25572 -0.032,0.0313 -0.21437,0.13017 -0.4052,0.21927 v -5.3e-4 c -0.19083,0.0891 -0.38274,0.17768 -0.42604,0.19688 -0.12726,0.0565 -0.21288,-0.16491 -0.13698,-0.35469 0.0385,-0.0964 0.1564,-0.19704 0.26198,-0.22344 l 0.19166,-0.0479 -0.25833,-0.0167 c -0.33452,-0.0219 -0.33363,-0.19294 0.001,-0.21354 l 0.25625,-0.0156 0.14895,-0.19792 c 0.0817,-0.10857 0.14952,-0.26435 0.15052,-0.34635 0.003,-0.24106 0.88291,-1.23112 1.09114,-1.22812 l 0.1323,0.002 0.025,-0.39739 0.0255,-0.39739 -0.21875,-0.15781 -0.21875,-0.15729 0.005,-0.48178 0.005,-0.48176 -0.11406,0.17031 -0.11354,0.17083 0.004,-0.43073 c 0.002,-0.23696 -0.008,-0.46958 -0.0229,-0.51718 l -0.0276,-0.087 0.92135,-0.17083 c 0.38018,-0.0706 0.74314,-0.11851 0.93229,-0.12604 z m -3.33072,0.54635 0.012,0.15208 c 0.007,0.0837 0.0584,0.38579 0.11458,0.67083 l 0.1026,0.51823 -0.0911,0.15729 -0.0911,0.15729 -0.0781,-0.13073 -0.0787,-0.13073 -0.4526,-0.006 -0.4526,-0.006 -0.002,0.11146 -0.002,0.11094 0.16354,-0.0599 0.16406,-0.0604 0.32292,0.1875 0.32291,0.1875 -0.67604,-0.0838 -0.67551,-0.0844 0.0698,0.11666 0.0698,0.11667 -0.60208,0.0833 -0.6026,0.0833 0.26458,0.0505 0.26458,0.05 -0.0464,0.13438 10e-4,-5.4e-4 c -0.0535,0.15517 -0.46018,0.23377 -0.57864,0.11198 -0.11796,-0.12132 -0.0908,-0.59437 0.0385,-0.67187 l 0.11146,-0.0667 -0.0995,-0.27291 -0.0995,-0.27292 0.12604,-0.39114 0.12605,-0.39115 0.93645,-0.11458 c 0.51518,-0.0628 1.04487,-0.14579 1.17708,-0.18489 z m -6.66299,0.0599 0.33281,0.0339 c 0.1831,0.0186 0.62527,0.0772 0.98229,0.13021 l 0.64896,0.0964 0.0734,0.24792 c 0.0405,0.13618 0.0824,0.3639 0.0932,0.50625 l 0.0198,0.25885 -0.1474,-0.002 c -0.17853,-0.002 -0.18437,0.0602 -0.0333,0.35208 l 0.11563,0.22395 -0.1724,-0.002 -0.17292,-0.002 0.0635,0.17343 c 0.0351,0.0953 0.13718,0.17452 0.22708,0.17552 l 0.16354,0.002 -0.0401,0.60313 -0.0406,0.6026 0.25781,0.0401 c 0.35559,0.0555 0.32095,0.20011 -0.087,0.3625 l -0.3427,0.13646 0.0229,0.11718 5.4e-4,-5.3e-4 c 0.0406,0.20706 -0.19823,0.18908 -0.54948,-0.0417 -0.18789,-0.12343 -0.44434,-0.28132 -0.56979,-0.35052 l -0.22813,-0.12552 -0.57083,-0.89218 c -0.58273,-0.91 -0.83368,-1.42 -0.82968,-1.68906 0.001,-0.083 0.17748,-0.33221 0.39219,-0.55364 z m 3.20884,0.15677 c 0.10645,0.004 0.22959,0.0176 0.34375,0.0406 l 0.4151,0.0839 -0.11249,0.10937 c -0.0619,0.0602 -0.29506,0.13627 -0.51771,0.16927 l -0.40469,0.0599 -0.0698,-0.18959 -0.0698,-0.1901 0.17187,-0.0635 c 0.0473,-0.0174 0.13731,-0.0235 0.24375,-0.0198 z m -1.51145,1.97395 -0.0536,0.1427 -0.0531,0.14323 -0.32552,-0.005 -0.32552,-0.005 -0.0521,0.14323 c -0.0284,0.0786 -0.029,0.20758 -0.001,0.28698 l 0.0505,0.14479 0.275,0.004 0.275,0.004 0.002,-0.13489 c 10e-4,-0.074 0.0893,-0.22822 0.19583,-0.34271 l 0.19375,-0.20781 -0.0906,-0.087 z m 3.72551,0.31822 c 0.17227,0.003 0.43841,0.0564 0.81562,0.1599 l 0.43437,0.11927 0.10573,0.2901 0.10573,0.29011 -0.17188,0.30625 -0.17187,0.30677 -0.003,-0.14376 -0.003,-0.14374 -0.18281,-0.003 -0.18333,-0.003 -0.063,0.22864 c -0.0574,0.20831 -0.12042,0.24803 -0.33959,0.21563 -0.0402,-0.006 -0.11769,0.0575 -0.17239,0.14114 l -0.0995,0.15208 -0.003,-0.17239 -0.003,-0.1724 -0.11979,0.19948 5.3e-4,5.4e-4 c -0.0659,0.10973 -0.19486,0.19787 -0.28646,0.19687 -0.18167,-0.002 -0.18808,-0.0138 -0.20468,-0.33802 -0.006,-0.12122 -0.0468,-0.25654 -0.0901,-0.30104 l -0.0786,-0.0812 0.34218,-0.27969 0.34219,-0.2802 0.003,-0.2099 0.003,-0.20989 0.14479,-0.0641 c 0.0795,-0.0348 0.0275,-0.0364 -0.11511,-0.003 l -0.25937,0.0609 0.002,-0.12291 c 0.001,-0.0963 0.0798,-0.14286 0.25208,-0.13959 z m 8.76246,5.54217 0.10208,10e-4 -0.014,1.03385 -0.014,1.03386 -0.10261,-0.001 c -0.16695,-0.002 -0.23812,-0.32439 -0.22812,-1.0375 0.01,-0.71311 0.0898,-1.0322 0.25677,-1.0302 z m -17.61503,1.59426 0.51666,0.007 0.51719,0.007 -0.002,0.1151 -0.002,0.11458 -0.51719,-0.007 -0.51666,-0.007 0.002,-0.11458 z m 1.79374,0.29115 c 0.16689,-0.008 0.61828,0.19271 0.81927,0.38021 0.98264,0.91666 1.36704,1.46346 1.52708,2.17238 l 0.0714,0.31667 -0.099,-0.001 c -0.0544,-8e-4 -0.15518,-0.20071 -0.22448,-0.44427 -0.0693,-0.24356 -0.28,-0.66162 -0.46822,-0.92916 l -0.34219,-0.48646 -0.65208,-0.42448 c -0.78239,-0.50971 -0.76107,-0.49258 -0.68437,-0.56718 0.0107,-0.0104 0.0288,-0.0155 0.0526,-0.0167 z m 12.83641,0.71562 0.42656,0.006 c 0.23457,0.003 0.55809,0.058 0.71926,0.12188 l 0.29323,0.11614 0.22448,0.37969 0.22396,0.37916 -0.005,0.38125 c -0.007,0.56427 -0.27454,0.9908 -0.78749,1.25625 -0.13773,0.0713 -0.42177,0.12427 -0.63125,0.11927 l -0.38073,-0.01 -0.3125,-0.175 -0.31198,-0.17499 -0.16926,-0.33854 c -0.093,-0.18616 -0.16659,-0.47536 -0.16459,-0.64271 0.006,-0.4041 0.33046,-1.04788 0.63229,-1.25312 z m -0.17084,0.29375 -0.002,0.17865 c -0.001,0.0984 0.0997,0.27398 0.22448,0.3901 0.2237,0.20818 0.30442,0.51691 0.13646,0.52291 -0.0474,0.002 -0.24318,0.12797 -0.4349,0.28073 l -5.3e-4,-5.3e-4 -0.34844,0.27812 0.14375,0.003 c 0.079,0.001 0.23725,-0.0863 0.35209,-0.19531 0.11484,-0.10901 0.2906,-0.26199 0.3901,-0.33959 l 0.18073,-0.14062 0.50052,0.35729 0.50051,0.35729 -0.43489,-0.39375 -0.43541,-0.39323 0.31614,-0.36562 0.31667,-0.36562 -0.0839,-0.0828 -0.0844,-0.0823 -0.13281,0.20886 c -0.0732,0.11506 -0.19963,0.29442 -0.28073,0.39843 l -0.1474,0.18906 -0.33802,-0.4026 z m 2.60729,0.94635 0.008,0.24479 c 0.005,0.13454 -0.0693,0.42322 -0.16406,0.64166 l -0.1724,0.3974 -0.41666,0.35521 c -0.229,0.19546 -0.4738,0.35514 -0.54427,0.35416 -0.0705,-0.001 0.0906,-0.15574 0.35781,-0.34375 l 0.48594,-0.34166 0.12968,-0.31042 c 0.0712,-0.1707 0.17152,-0.46475 0.22292,-0.65364 z m -3.65416,2.01301 c 0.12258,0.008 0.0733,0.10482 -0.14583,0.28958 -0.31691,0.26723 -0.39354,0.27674 -0.56093,0.0693 l -0.125,-0.15572 0.42499,-0.12396 c 0.1975,-0.0576 0.33323,-0.0842 0.40677,-0.0792 z m -1.40624,0.0141 -0.002,0.11093 c -8e-4,0.0609 -0.13387,0.16901 -0.29583,0.24011 v -5.4e-4 c -0.16196,0.0711 -0.43251,0.127 -0.60156,0.125 l -0.30729,-0.004 0.25052,-0.17031 c 0.13775,-0.0937 0.40903,-0.19994 0.60313,-0.23594 z"
         style="fill:#a25232;stroke-width:0.11489806" />
      <path
         inkscape:connector-curvature="0"
         id="path1715"
         d="m 171.68813,99.123007 v 33.675903 h 21.31449 V 99.123007 Z m 2.97915,1.035933 0.21771,0.003 0.21719,0.003 0.0667,0.18073 0.0667,0.18073 -0.22812,-0.076 -0.22813,-0.076 -0.002,0.11511 c -8e-4,0.0631 0.11446,0.1384 0.25625,0.1677 l 0.25781,0.0537 -0.26563,0.012 -0.2651,0.012 0.0693,0.11562 0.0687,0.11666 -0.12135,-0.002 -0.12188,-0.002 0.006,-0.40209 z m 3.32603,0.59427 0.17812,0.15208 0.17761,0.15156 0.0953,-0.14948 0.0953,-0.15 0.14115,0.0901 0.14062,0.0896 -0.56354,0.26562 -0.56406,0.26563 0.28386,-0.0708 0.28385,-0.0703 -0.18125,0.26511 h -5.3e-4 c -0.2124,0.31045 -0.39949,0.39312 -0.50208,0.22187 l -0.0729,-0.12187 0.0745,-0.11719 0.0745,-0.11667 -0.0953,0.0151 c -0.0522,0.008 -0.16109,0.008 -0.24219,-5.4e-4 l -0.1474,-0.0156 0.4125,-0.35208 z m 1.82239,0.0542 0.24271,0.003 -0.002,0.10886 c -8e-4,0.0601 -0.0927,0.16053 -0.20417,0.22343 -0.1115,0.0628 -0.15122,0.11619 -0.088,0.11719 0.0632,0.001 0.24553,-0.0968 0.40521,-0.21823 l 0.2901,-0.22083 2.78645,0.0359 2.78592,0.0359 -0.001,0.10105 c -0.002,0.17231 -0.26666,0.31587 -0.9526,0.51718 l -0.66094,0.19375 0.0505,0.0849 c 0.0279,0.0465 0.35894,0.17554 0.73594,0.28697 l 0.68593,0.20261 0.0714,0.41354 0.0719,0.41354 -0.62656,0.5375 -0.62604,0.53749 0.77656,-0.0474 0.77604,-0.0474 0.17656,0.15052 c 0.097,0.0828 0.22134,0.23744 0.27604,0.34323 l 0.0995,0.19219 -0.41666,0.77187 -0.41615,0.77187 0.7375,-0.39896 0.73802,-0.39948 0.33697,0.2099 0.33646,0.21042 -0.0401,0.85312 -0.0406,0.8526 0.19896,-0.26771 c 0.10941,-0.14732 0.36437,-0.4487 0.56666,-0.66979 l 0.36771,-0.40208 0.31198,0.0828 0.31146,0.0828 0.16197,0.42916 c 0.0892,0.23598 0.22968,0.58478 0.31198,0.77552 l 0.14948,0.34687 0.24063,-0.74322 0.24062,-0.74375 0.23177,-0.0318 0.23229,-0.0323 0.0427,1.75936 c 0.0235,0.96762 0.0455,3.62108 0.0495,5.89633 0.004,2.27525 0.0164,5.5202 0.0281,7.21091 l 0.0214,3.07395 -0.30208,0.34947 -0.30261,0.34948 -0.0125,0.9026 -0.0125,0.9026 -0.24375,0.0734 -0.24375,0.0734 -0.17396,-0.17917 -0.17447,-0.17916 -0.006,-0.38073 -0.006,-0.38125 -0.25052,-0.0391 -0.25104,-0.0391 -0.19687,0.29166 -0.19688,0.29167 -0.26562,-0.004 -0.26562,-0.004 -0.23698,-0.3099 -0.2375,-0.31041 -0.13177,0.12812 c -0.0725,0.0706 -0.14922,0.27155 -0.17031,0.44635 l -0.038,0.31771 -0.20833,0.14948 -0.20833,0.14896 -0.36615,-0.0729 -0.36614,-0.0729 -0.14375,0.26042 -0.14323,0.26093 0.18281,-0.14687 0.18282,-0.14687 0.0682,0.11354 0.0682,0.11354 -0.11303,0.0677 -0.1125,0.0672 0.0625,0.1698 c 0.034,0.0934 0.0298,0.29235 -0.01,0.44166 l -0.0724,0.27135 -0.34792,0.13854 c -0.19146,0.0762 -0.34906,0.1943 -0.35,0.2625 l -0.002,0.12396 0.1401,-0.13593 c 0.0769,-0.0748 0.18645,-0.13517 0.24375,-0.13438 l 0.10417,0.001 -0.0682,0.17135 -0.0687,0.17135 0.12343,0.002 0.12396,0.002 -0.0687,0.17135 -0.0682,0.17135 0.10313,0.001 c 0.057,8e-4 0.13558,0.10677 0.17448,0.23542 l 0.0708,0.23385 -0.25625,0.51042 c -0.14073,0.28072 -0.30743,0.50972 -0.37083,0.50885 -0.0634,-8e-4 -0.24801,0.0998 -0.41042,0.22395 l -0.29531,0.22552 -0.40104,-0.006 -0.40052,-0.006 0.16042,-0.19688 0.16042,-0.19687 -0.325,0.20156 -0.325,0.20365 -2.75155,0.0203 -2.75207,0.0203 0.003,-0.0937 c 0.008,-0.23354 0.22609,-0.36599 0.89947,-0.54427 0.39818,-0.10542 0.70146,-0.21441 0.67396,-0.24271 -0.0275,-0.0283 -0.37561,-0.16836 -0.77344,-0.31093 l -0.72343,-0.25938 -0.0667,-0.34531 -0.0667,-0.34583 0.65313,-0.5974 0.65312,-0.59687 -0.2875,0.05 c -0.15839,0.0276 -0.52914,0.0781 -0.82343,0.11198 l -0.5349,0.0615 -0.24479,-0.35417 -0.24531,-0.35468 0.36302,-0.70156 c 0.19962,-0.38602 0.36319,-0.72272 0.36354,-0.74792 2.7e-4,-0.0252 -0.30621,0.11246 -0.68125,0.30573 l -0.68177,0.35156 -0.35885,-0.19218 -0.35885,-0.19167 0.0787,-0.88437 0.0792,-0.88437 -0.20989,0.28177 c -0.11538,0.15491 -0.35954,0.44877 -0.54271,0.65312 l -0.33333,0.37135 -0.20833,-0.003 c -0.11466,-0.002 -0.28724,-0.0345 -0.38334,-0.0729 l -0.17499,-0.0698 -0.2349,-0.74115 -0.23541,-0.74114 -0.10625,0.0635 c -0.0584,0.035 -0.10734,0.12532 -0.10834,0.20052 -0.0104,0.55976 -0.48501,1.41757 -0.70625,1.27656 l -0.0953,-0.0604 -0.0526,-0.83333 c -0.029,-0.45818 -0.0548,-2.69453 -0.0578,-4.96977 -0.003,-2.27524 -0.014,-5.01604 -0.025,-6.0906 -0.011,-1.07455 -0.0154,-2.90319 -0.009,-4.06352 l 0.0115,-2.10937 0.24323,-0.27187 0.24323,-0.2724 0.0125,-0.92187 0.013,-0.92187 0.18073,-0.0661 0.18072,-0.0667 0.27084,0.12812 0.27083,0.12813 0.0302,0.42812 0.0297,0.42812 0.17188,0.049 0.17187,0.0484 -0.13177,-0.0969 -0.13229,-0.0974 0.23125,-0.27708 0.23125,-0.27761 -0.075,0.3375 -0.075,0.33698 0.19479,-0.25573 0.19479,-0.25573 0.26667,0.004 0.26666,0.004 0.17552,0.25781 0.17552,0.25781 0.006,-0.28385 0.006,-0.28386 0.099,0.16146 0.0995,0.16198 0.0589,-0.21719 0.0588,-0.21718 0.0104,0.20833 0.0104,0.20781 0.11094,-0.0662 0.11042,-0.0667 -0.0641,-0.175 -0.0646,-0.175 0.21771,-0.16354 0.21771,-0.16302 0.44479,0.0755 0.44426,0.0755 -0.0771,-0.12812 c -0.0423,-0.0707 -0.17431,-0.12977 -0.29323,-0.13177 -0.11892,-0.002 -0.2451,-0.0509 -0.2802,-0.10938 l -0.0635,-0.10677 0.34583,-0.0708 0.34583,-0.0708 -0.10521,-0.20364 -0.1052,-0.20365 0.0682,-0.24791 c 0.0376,-0.13609 0.11203,-0.24657 0.16563,-0.24584 0.0536,8e-4 0.15765,-0.10761 0.23125,-0.24062 l 0.13385,-0.24166 -0.1276,0.076 -0.12709,0.0766 0.003,-0.24427 0.003,-0.24427 0.25781,0.0677 0.25729,0.0672 -0.36198,-0.17291 -0.3625,-0.17292 -0.0672,-0.22239 -0.0672,-0.2224 0.24323,-0.45104 0.24271,-0.45104 0.56249,-0.29635 c 0.30941,-0.16289 0.67211,-0.29471 0.80573,-0.29271 z m -4.74738,0.39063 0.63021,0.009 0.62968,0.009 0.26198,0.20469 c 0.14409,0.11259 0.41948,0.35625 0.61146,0.54166 l 0.34895,0.33698 0.0422,0.61146 c 0.0231,0.33603 0.005,0.79505 -0.0406,1.02031 l -0.0828,0.40937 -0.10781,-0.0688 -0.10833,-0.0687 -0.002,0.16927 -0.002,0.16927 -0.51562,0.27864 v -0.002 l -0.51562,0.27917 -0.57031,-0.003 -0.56979,-0.003 -0.26511,-0.22708 c -0.14592,-0.12495 -0.3836,-0.33127 -0.52812,-0.45833 l -0.26302,-0.23073 -0.10208,-0.37656 c -0.0562,-0.20691 -0.0999,-0.55393 -0.0969,-0.77135 l 0.005,-0.39531 0.23438,-0.46406 0.23437,-0.46354 0.38594,-0.25365 z m 11.74631,1.31197 0.1151,0.002 c 0.0632,8e-4 0.11398,0.0588 0.11302,0.12864 -0.004,0.2546 0.58163,1.32693 0.92292,1.69166 0.19274,0.20599 0.56869,0.48077 0.83593,0.61094 0.26669,0.12989 0.51553,0.28677 0.55312,0.34843 l 0.0662,0.11094 -0.0885,0.0453 c -0.0488,0.0248 -0.24314,-0.0127 -0.43177,-0.0828 l -0.34271,-0.12761 -0.61041,-0.58437 -0.61094,-0.58489 -0.2625,-0.57812 c -0.14454,-0.318 -0.2624,-0.66859 -0.26145,-0.77917 z m -13.13016,0.063 c 0.0448,0.01 -0.0206,0.0814 -0.18697,0.21615 l -0.27448,0.22187 0.19479,0.003 0.19427,0.003 -0.0463,0.13281 c -0.0659,0.18758 -0.35641,0.20402 -0.58386,0.0328 -0.27487,-0.20688 -0.24473,-0.2683 0.22709,-0.45781 0.27553,-0.11068 0.4307,-0.16198 0.47551,-0.15208 z m -0.0182,1.65989 0.18282,0.15625 c 0.1005,0.0858 0.18199,0.1994 0.18125,0.2526 -8e-4,0.0532 -0.11833,0.15133 -0.26146,0.21823 l -0.26042,0.12188 0.20313,-0.1599 c 0.11182,-0.0879 0.20412,-0.19293 0.20468,-0.23333 0.002,-0.1336 -0.20932,-0.0794 -0.39531,0.10156 -0.2265,0.22033 -0.23892,0.0533 -0.0177,-0.24062 z m -0.24947,0.74271 0.14218,0.27551 0.14271,0.275 -0.0589,0.75573 -0.0589,0.75625 -0.12343,0.11979 -0.12344,0.12031 -0.0667,-0.54062 c -0.0365,-0.29729 -0.0628,-0.78879 -0.0589,-1.09219 l 0.008,-0.55156 0.0984,-0.0594 z m 16.57545,0.45208 0.51718,0.007 0.51667,0.007 -0.002,0.11511 -0.002,0.1151 -0.51719,-0.007 -0.51719,-0.007 0.002,-0.1151 z m -8.05622,3.19217 -0.79322,0.12656 -0.79323,0.12657 -0.79114,0.31874 -0.79062,0.31927 -0.71511,0.53073 c -0.89181,0.66185 -1.65038,1.53673 -2.15155,2.48124 l -0.38646,0.7276 -0.22187,0.82656 -0.22239,0.82656 -0.19011,0.10313 -0.19062,0.10312 -0.003,0.21042 -0.003,0.21093 -0.24635,0.0604 -0.24636,0.0609 0.062,0.33542 0.0625,0.33542 -0.12343,0.12031 -0.12292,0.11979 0.0755,0.12604 c 0.0415,0.0692 0.14653,0.12712 0.23333,0.12812 l 0.15781,0.002 0.0318,0.31458 0.0323,0.3151 0.27084,0.005 0.27083,0.005 0.19479,0.6349 c 0.41899,1.36672 0.78418,2.00479 1.71718,2.99946 l 0.58958,0.62865 0.7401,0.4901 c 0.83031,0.55002 1.19444,0.71801 2.07552,0.95625 l 0.60885,0.1651 1.49426,-0.0182 1.49375,-0.0182 0.69374,-0.28125 c 1.09686,-0.4447 1.68284,-0.80653 2.44374,-1.50832 1.20798,-1.11418 1.8318,-2.07948 2.16666,-3.35312 l 0.1401,-0.53385 0.27553,-0.0651 0.27551,-0.0651 -0.0239,-0.25677 -0.0234,-0.25677 0.25937,-0.0333 c 0.3002,-0.0388 0.30651,-0.0589 0.1224,-0.36302 l -0.1375,-0.22708 0.1427,-0.13906 c 0.0785,-0.0763 0.1438,-0.20592 0.1448,-0.28802 l 0.002,-0.14948 -0.17239,-0.002 -0.1724,-0.002 0.004,-0.28489 0.004,-0.2849 -0.28646,-0.076 -0.28646,-0.076 0.004,-0.25469 c 0.004,-0.26961 -0.30138,-1.31226 -0.44114,-1.5078 -0.0456,-0.0638 -0.12014,-0.24554 -0.16614,-0.40417 -0.22522,-0.77621 -1.92454,-2.75996 -2.53958,-2.96457 -0.12733,-0.0424 -0.23138,-0.11592 -0.23073,-0.16302 0.001,-0.0988 -0.76114,-0.42957 -0.82864,-0.35938 -0.0247,0.0257 -0.13418,-0.0452 -0.24323,-0.15729 l -0.19843,-0.20364 -0.25625,-0.004 c -0.14082,-0.002 -0.31434,-0.0638 -0.38594,-0.1375 l -0.13021,-0.13385 -1.13801,-0.0708 z m 0.14584,1.05625 1.20468,0.13073 1.20468,0.13125 0.57864,0.30052 c 1.24167,0.64533 2.02937,1.3963 2.76822,2.63853 l 0.41094,0.69062 0.13125,0.58177 0.13072,0.58177 -0.21302,0.38333 c -0.11725,0.21069 -0.32056,0.43658 -0.45156,0.50208 v -5.3e-4 c -0.131,0.0655 -0.48505,0.13506 -0.78697,0.15416 l -0.54896,0.0349 -0.051,-0.0854 c -0.028,-0.0468 -0.28705,-0.11496 -0.57552,-0.15156 -0.28846,-0.0366 -0.5496,-0.092 -0.5802,-0.12344 -0.0306,-0.0314 0.0296,-0.4373 0.13333,-0.90208 0.21356,-0.95717 0.24366,-1.43422 0.0964,-1.52811 -0.0555,-0.0354 -0.13363,-0.25174 -0.17343,-0.48125 l -0.0724,-0.41771 -0.26094,-0.26823 c -0.14357,-0.14762 -0.29198,-0.39923 -0.32968,-0.55885 l -0.0687,-0.2901 -0.23698,-0.0786 -0.23698,-0.0792 -0.0734,0.0714 -0.0734,0.0714 0.12604,0.3474 0.12552,0.34791 -0.11823,0.32448 -0.11823,0.32448 -0.51354,0.18802 -0.51406,0.18802 0.0635,0.10625 0.0635,0.10573 0.49791,0.007 0.49791,0.007 0.0714,0.30312 0.0719,0.30364 -0.14843,0.84479 -0.14844,0.84479 -0.20625,-0.003 c -0.11359,-0.002 -0.3449,-0.0575 -0.51406,-0.12448 l -0.30781,-0.12187 -2.08176,-0.0469 -2.08229,-0.0469 -0.24114,0.12605 -0.24167,0.12656 -0.9151,0.014 -0.9151,0.0146 -0.15,-0.0953 -0.15,-0.0958 0.0609,-0.48281 0.0615,-0.48229 0.42916,-0.85103 0.42969,-0.85052 0.57864,-0.63177 0.57865,-0.63125 0.78749,-0.44427 c 0.80402,-0.45385 1.21881,-0.59599 2.35312,-0.80468 z m -2.30937,1.9453 -0.16667,0.0609 -0.16666,0.0615 0.0656,0.65989 0.0651,0.65989 -0.14115,0.25521 -0.14114,0.25573 0.23697,0.17083 0.2375,0.17136 -0.004,0.29479 -0.004,0.29479 0.15885,-0.12813 0.15886,-0.12865 0.61614,0.17501 c 0.33879,0.0962 0.65085,0.17833 0.69375,0.18333 0.0429,0.005 0.027,-0.15988 -0.0359,-0.36615 -0.0629,-0.20627 -0.14698,-0.60826 -0.18698,-0.89322 l -0.0729,-0.51823 -0.275,-0.4375 -0.275,-0.4375 -0.19479,0.0448 -0.19531,0.0453 -0.18698,-0.21198 z m 7.58903,4.45623 0.30521,0.004 0.0661,0.35521 0.0661,0.35573 0.15521,0.062 0.1552,0.062 -0.003,0.20937 c -0.002,0.11511 0.0788,0.29275 0.17865,0.39531 l 0.18125,0.18646 -0.0792,0.31198 c -0.13352,0.52539 -0.8846,1.89915 -1.21874,2.22915 -1.04791,1.03492 -2.05575,1.63384 -3.22759,1.91874 l -0.70833,0.1724 -0.84479,-0.0271 c -1.46002,-0.0467 -2.21845,-0.25153 -3.3604,-0.90625 l -0.57031,-0.32656 -0.65156,-0.68958 -0.65156,-0.68958 -0.40573,-0.85052 -0.40573,-0.85 0.0766,-0.43281 0.0766,-0.43281 0.11979,-0.038 c 0.0661,-0.021 0.19911,-0.11473 0.29531,-0.20833 l 0.175,-0.17031 0.59999,0.0589 c 0.33009,0.0323 0.90766,0.12724 1.28333,0.21094 l 0.68333,0.15208 0.43333,-0.13646 0.43281,-0.13645 0.49063,0.11562 0.49062,0.11563 0.57656,-0.12917 c 0.31699,-0.0711 0.86825,-0.15626 1.225,-0.18906 l 0.64843,-0.0599 0.13073,0.74792 0.13021,0.74739 -0.0812,0.40156 -0.0813,0.40156 -0.36771,-0.003 c -0.20251,-0.002 -0.44273,0.0418 -0.53333,0.0974 l -0.16458,0.10156 0.46406,0.13177 0.46406,0.13177 0.15052,0.18594 0.15,0.18646 -0.0323,0.56145 -0.0323,0.56146 0.21771,0.003 0.21719,0.003 0.0724,-0.18073 c 0.0398,-0.0994 0.0735,-0.25995 0.0745,-0.35625 l 0.002,-0.175 0.29062,-0.22187 0.2901,-0.22188 0.004,-0.28437 c 0.002,-0.15652 0.088,-0.44201 0.19062,-0.63385 l 0.18646,-0.34844 -0.18125,-0.82343 c -0.0995,-0.45278 -0.20323,-0.91125 -0.23072,-1.01875 l -0.0495,-0.19531 0.46666,-0.11458 c 0.25683,-0.0631 0.66786,-0.16416 0.91302,-0.22396 0.24516,-0.0598 0.58303,-0.10617 0.75104,-0.10417 z m -6.06508,1.15521 -0.0781,0.12239 -0.0776,0.1224 -0.65729,0.0234 -0.65729,0.0234 -0.0734,0.22864 c -0.0405,0.12583 -0.14563,0.30823 -0.23333,0.40573 l -0.15938,0.1776 0.13229,0.36562 0.13229,0.36615 -0.12343,0.43906 c -0.068,0.2414 -0.10411,0.50032 -0.0802,0.57552 l 0.0438,0.13698 0.20625,0.003 c 0.11338,0.002 0.2706,-0.0731 0.35,-0.16614 l 0.14479,-0.16927 0.10572,0.0677 0.10626,0.0677 0.18489,-0.14948 c 0.1018,-0.0821 0.28577,-0.37557 0.40885,-0.65208 l 0.22396,-0.5026 -0.0552,-0.18646 -0.0552,-0.18594 0.16563,-0.45677 c 0.0909,-0.25138 0.13853,-0.50197 0.10573,-0.55677 z m 10.17236,7.5234 c 0.0136,-2.3e-4 0.0251,0.004 0.0344,0.0135 v 5.3e-4 c 0.0369,0.038 0.0453,0.56913 0.0188,1.18073 l -0.0484,1.11197 -0.14167,-0.14583 -0.14166,-0.14635 0.0135,-0.86719 0.0141,-0.8677 0.10937,-0.16719 c 0.0451,-0.0695 0.10097,-0.1118 0.14167,-0.1125 z m -17.62545,1.70573 0.51666,0.007 0.51719,0.007 -0.002,0.15 -0.002,0.15 -0.46927,-0.013 c -0.48436,-0.013 -0.56397,-0.042 -0.56197,-0.2052 z m 1.57239,0.21979 0.44479,0.0896 0.44479,0.0901 0.69635,0.7375 0.69687,0.73802 0.18906,0.51562 0.18854,0.51562 -0.0516,0.21303 -0.051,0.21249 -0.28802,-0.65625 -0.28802,-0.65624 -0.48594,-0.54219 -0.48541,-0.54166 -0.42552,-0.22448 c -0.23385,-0.12341 -0.46121,-0.28431 -0.50521,-0.35781 z m 13.29942,0.21562 0.4901,0.007 0.48958,0.007 -0.002,0.12813 -0.002,0.12812 0.23073,-0.0568 0.23073,-0.0573 -0.0573,0.0896 -0.0573,0.0901 0.3875,0.27291 0.38698,0.27344 0.0625,0.33541 c 0.0343,0.18452 0.0587,0.57495 0.0547,0.86719 l -0.008,0.53125 -0.22448,0.35676 c -0.12344,0.19629 -0.40345,0.48975 -0.62239,0.65208 l -0.39792,0.29532 -0.56979,-0.008 -0.56979,-0.008 -0.53802,-0.35156 -0.53802,-0.35208 -0.062,-0.20208 c -0.0339,-0.11126 -0.1069,-0.30669 -0.1625,-0.43386 -0.1148,-0.26182 -0.14267,-0.53652 -0.10677,-1.03541 l 0.025,-0.34427 0.32188,-0.35521 c 0.17704,-0.19518 0.52808,-0.46151 0.7802,-0.59218 z m 2.38749,0.14896 0.10833,10e-4 -0.0687,0.17135 -0.0682,0.17135 0.10156,0.001 c 0.0559,8e-4 0.1259,-0.0631 0.15521,-0.14167 l 0.0531,-0.1427 0.0937,0.0901 0.0937,0.0911 -0.17552,0.17083 -0.17552,0.17083 -0.19063,-0.21666 -0.19062,-0.21667 0.0776,-0.0755 c 0.0428,-0.0417 0.12654,-0.0753 0.18594,-0.0745 z m 0.17813,1.4802 0.31562,0.0406 0.3151,0.0406 0.0312,0.3026 0.0307,0.30313 -0.35208,0.0463 -0.35156,0.0469 0.003,-0.21771 0.003,-0.21771 0.2151,0.0719 0.2151,0.0714 0.0698,-0.175 0.0703,-0.17448 -0.11146,-0.002 c -0.0612,-8e-4 -0.11217,0.0487 -0.11302,0.10989 l -0.002,0.11094 -0.17187,-0.0682 c -0.0943,-0.0377 -0.17064,-0.11804 -0.1698,-0.17864 z m -4.2677,1.68906 0.16719,0.0672 0.16719,0.0667 -0.0651,0.10208 -0.0651,0.10209 0.20052,0.003 0.20104,0.003 -0.33542,0.33959 c -0.33086,0.33592 -0.44196,0.37611 -0.72134,0.25885 -0.23121,-0.097 -0.16185,-0.26864 0.15572,-0.38437 l 0.29584,-0.1073 -0.0698,-0.11614 c -0.0382,-0.0638 -0.0382,-0.1651 0,-0.225 z m 2.48229,0.71406 0.11979,0.002 c 0.0658,8e-4 0.20059,0.0343 0.3,0.074 l 0.18072,0.0724 -0.005,0.38958 -0.006,0.39011 -0.19531,-0.003 -0.19531,-0.003 0.1401,-0.13594 c 0.0768,-0.0748 0.14071,-0.23252 0.14271,-0.34999 l 0.003,-0.21354 -0.10312,0.0615 -0.10261,0.062 -0.13958,-0.17343 z"
         style="fill:#66492b;stroke-width:0.11489806" />
      <path
         inkscape:connector-curvature="0"
         id="path1713"
         d="m 171.68813,99.123007 v 33.675903 h 21.31449 V 99.123007 Z m 3.44634,0.719266 0.17291,0.02813 c 0.18331,0.0295 0.19829,0.08374 0.0932,0.346867 l -0.0656,0.16354 0.12968,0.25052 c 0.0713,0.13776 0.15988,0.22132 0.19688,0.18542 0.037,-0.036 0.13547,-0.007 0.21927,0.0646 l 0.1526,0.13021 0.003,-0.2375 c 0.002,-0.13038 0.055,-0.26805 0.11875,-0.30625 0.0637,-0.0382 0.11723,-0.14016 0.11823,-0.22656 l 0.002,-0.15729 -0.20052,-0.0552 -0.2,-0.05521 0.31978,-0.0089 0.3198,-0.0089 0.0635,0.17292 c 0.0351,0.0953 0.13543,0.17452 0.22343,0.17552 l 0.16042,0.002 -0.004,0.29426 -0.004,0.29375 0.11614,-0.0693 0.11563,-0.0693 0.11979,0.076 0.11927,0.076 -0.13698,0.15989 c -0.2027,0.2375 -0.0317,0.19633 0.36354,-0.0875 l 0.34792,-0.24948 0.22344,0.14375 0.22343,0.14375 0.002,-0.11562 0.002,-0.11615 0.22969,0.003 0.22968,0.003 -0.002,0.17865 -0.002,0.17864 0.24896,-0.16927 0.24947,-0.16927 2.99895,0.0281 c 1.64939,0.0158 3.12831,0.0209 3.28644,0.0109 l 0.2875,-0.0177 -0.003,0.21458 -0.003,0.21458 -0.74999,0.21927 -0.75,0.21927 0.51406,0.21719 c 0.28275,0.11942 0.59935,0.22104 0.70312,0.22604 l 0.18854,0.009 0.0672,0.18229 c 0.037,0.10048 0.0655,0.33602 0.0625,0.52343 l -0.005,0.34115 -0.31979,0.29114 c -0.17602,0.16016 -0.3066,0.34054 -0.2901,0.40104 l 0.0302,0.1099 -0.1,-0.0636 -0.1,-0.0635 -0.20886,0.14792 -0.20833,0.14791 0.78698,-0.10208 0.78645,-0.10156 0.2625,0.33489 0.2625,0.33542 -0.075,0.32969 -0.0755,0.32916 0.14583,-0.0875 0.14636,-0.0875 -0.0849,0.13334 -0.0849,0.13333 -0.10052,-0.0641 -0.10051,-0.0641 -0.13751,0.24896 -0.13749,0.24844 0.17968,-0.0661 0.17917,-0.0656 0.0406,0.12812 0.0412,0.12865 0.35,-0.2 0.35,-0.20052 0.3552,0.1901 0.35573,0.1901 -0.0563,0.83281 -0.0563,0.83281 0.3151,-0.39114 c 0.17323,-0.2151 0.42109,-0.50414 0.55104,-0.64219 l 0.23646,-0.25104 0.32448,0.0667 0.32448,0.0667 0.17448,0.4177 c 0.0959,0.22965 0.18987,0.51364 0.20937,0.63125 0.0195,0.11761 0.0772,0.29099 0.12812,0.38489 l 0.0927,0.17084 0.23646,-0.71615 0.23645,-0.71614 0.19063,-0.11667 0.19062,-0.11614 0.0896,0.0922 0.0896,0.0922 0.0115,4.84582 c 0.0143,6.02087 0.0232,13.04439 0.0182,14.76244 l -0.003,1.29739 -0.2073,0.22291 -0.20677,0.2224 0.12657,0.28854 0.12656,0.28854 0.20937,0.003 c 0.26897,0.004 0.48213,0.22393 0.47813,0.49479 l -0.003,0.21302 -0.4,0.16041 -0.40052,0.16094 -0.11511,0.20833 -0.1151,0.20781 0.26979,0.29896 0.26927,0.29896 -0.13906,0.18333 -0.13958,0.18385 -0.35,-0.10625 -0.35,-0.10624 -0.19635,0.13906 -0.19636,0.13958 -0.009,0.38958 -0.009,0.38906 -0.1599,0.20521 -0.15989,0.20469 -0.0583,-0.15052 -0.0583,-0.15052 -0.13593,0.17083 -0.13594,0.17031 0.0583,-0.25052 0.0583,-0.25 -0.15885,-0.0635 -0.15885,-0.0635 0.002,-0.17604 0.002,-0.17604 -0.35104,-0.005 -0.35156,-0.005 0.0677,0.1125 0.0672,0.1125 -0.18802,0.27865 -5.3e-4,-10e-4 c -0.10334,0.15305 -0.25859,0.30424 -0.34479,0.33593 l -0.15677,0.0578 -0.0828,-0.19479 c -0.0454,-0.10723 -0.0806,-0.30272 -0.0776,-0.43438 l 0.005,-0.23958 -0.28385,0.0505 -0.28385,0.05 0.13489,-0.24375 0.1349,-0.24375 -0.10104,-0.001 c -0.0556,-8e-4 -0.19237,0.0966 -0.30365,0.21614 l -0.20208,0.21771 -0.53646,-0.007 -0.53593,-0.007 0.225,-0.1599 c 0.12366,-0.0878 0.25992,-0.15893 0.30312,-0.15833 0.0432,5.3e-4 0.11178,-0.15298 0.15208,-0.34115 l 0.0734,-0.34218 0.23542,-0.19636 c 0.12965,-0.10793 0.23702,-0.26497 0.23802,-0.34947 l 0.002,-0.15365 -0.10625,0.0635 -0.10573,0.0635 -0.0563,-0.14531 -0.0563,-0.14531 -0.0125,0.26302 c -0.007,0.14462 -0.11992,0.46612 -0.25104,0.71458 l -0.23854,0.45208 -0.17032,-0.002 c -0.0935,-0.001 -0.17058,0.0429 -0.17135,0.0984 -0.002,0.16237 -0.61039,0.35925 -1.10208,0.35625 -0.24957,-0.001 -1.712,0.005 -3.24998,0.0135 l -2.79635,0.0167 0.0406,-0.20625 0.0411,-0.20677 0.73333,-0.23385 0.73333,-0.23438 -0.11354,-0.0724 c -0.0624,-0.0398 -0.3893,-0.14724 -0.72656,-0.23854 l -0.61354,-0.16562 -0.0724,-0.44791 -0.0729,-0.4474 0.25677,-0.22656 c 0.14107,-0.12445 0.41214,-0.34372 0.60261,-0.4875 l 0.34635,-0.26146 -0.78333,0.0583 -0.78385,0.0583 -0.21511,-0.26562 c -0.28613,-0.35301 -0.27335,-0.54987 0.075,-1.1401 0.16102,-0.27282 0.29431,-0.53369 0.29531,-0.57969 l 0.003,-0.0838 -0.29218,0.12812 -0.29219,0.12865 0.14531,0.10781 0.14532,0.10781 -0.20157,-0.0682 -0.20156,-0.0677 -0.28229,0.12395 -0.28281,0.12396 -0.35729,-0.15416 -0.35729,-0.15365 0.0474,-0.71979 c 0.0258,-0.396 0.0161,-0.7516 -0.0214,-0.7901 -0.0375,-0.0385 -0.24658,0.15819 -0.46459,0.43698 -0.21801,0.2788 -0.47937,0.52806 -0.58072,0.55416 l -0.18386,0.0474 -0.27031,-0.14896 -0.26979,-0.14948 -0.23646,-0.73281 -0.23593,-0.73281 -0.2625,0.82917 -0.26198,0.82968 -0.2151,-0.003 -0.21459,-0.003 -0.0562,-0.43177 c -0.031,-0.23743 -0.0617,-2.29292 -0.0677,-4.56821 -0.006,-2.27528 -0.0234,-4.78372 -0.0385,-5.57393 -0.0152,-0.79021 -0.0315,-3.47903 -0.0375,-5.9755 l -0.0104,-4.53904 0.26354,-0.27032 0.26302,-0.26979 -0.1125,-0.18385 c -0.0618,-0.10109 -0.26171,-0.26886 -0.44427,-0.37291 l -0.33177,-0.18959 -0.0328,-0.31093 -0.0323,-0.31094 0.35677,-0.11875 0.35677,-0.11927 0.12552,-0.22656 0.12552,-0.22708 -0.24688,-0.26979 -0.24687,-0.27032 0.0797,-0.23854 c 0.0884,-0.26554 0.20598,-0.29168 0.52239,-0.11666 l 0.21406,0.11823 0.27187,-0.11927 0.27136,-0.11927 -0.0391,-0.37813 -0.0385,-0.37864 0.30313,-0.23177 z m -0.54427,0.02969 c 0.19382,-0.0066 0.25991,0.03353 0.17604,0.115104 h -0.001 c -0.0314,0.03051 -0.2216,0.08603 -0.42291,0.123433 l -0.36615,0.0677 0.002,-0.11615 0.002,-0.11614 0.37448,-0.05208 c 0.0921,-0.01272 0.17081,-0.01968 0.23541,-0.02187 z m -1.62864,0.502077 c 0.0402,-5.3e-4 0.089,0.0103 0.14531,0.0328 l 0.17604,0.0703 -0.002,0.17604 -0.003,0.175 -0.17604,-0.002 -0.17552,-0.002 -0.0656,-0.17864 c -0.0628,-0.17082 -0.02,-0.27064 0.10052,-0.27188 z m 13.99734,0.53802 c 0.0876,0.001 0.0944,0.13649 0.0307,0.43333 l -5.4e-4,-5.3e-4 c -0.0427,0.1991 -0.12282,0.3617 -0.17812,0.36093 l -0.10052,-10e-4 0.005,-0.33802 0.005,-0.33802 0.12344,-0.074 c 0.0475,-0.0285 0.0859,-0.0431 0.1151,-0.0427 z m -8.15361,0.10833 -0.15052,0.002 c -0.0827,8e-4 -0.24081,0.0683 -0.35157,0.15 l -0.20156,0.14843 0.0698,0.0719 0.0698,0.0713 0.20989,-0.10885 c 0.11539,-0.0597 0.24207,-0.15958 0.28177,-0.22187 z m 8.24059,1.35937 -0.001,0.15313 c -5.3e-4,0.0843 0.11611,0.41326 0.25938,0.73124 l 0.26093,0.57813 0.4375,0.43541 c 0.24076,0.23956 0.65818,0.54325 0.9276,0.67448 l 0.4901,0.23854 -0.002,0.17187 -0.003,0.17136 -0.14374,-0.0115 c -0.88381,-0.07 -2.36903,-1.69744 -2.47864,-2.71613 l -0.0359,-0.33438 0.14427,-0.0458 z m -13.31193,2.7651 -0.0703,0.99895 -0.0703,0.99948 0.0927,-0.0906 0.0927,-0.0906 -0.0224,-0.90885 z m 17.29368,0.16927 -0.003,0.20729 h -5.3e-4 l -0.003,0.20729 -0.31614,0.005 c -0.17372,0.003 -0.43475,-0.0178 -0.58021,-0.0458 l -0.26458,-0.0505 0.0464,-0.13437 0.0463,-0.13385 0.53698,-0.0276 z m -8.95986,3.30519 -0.95364,0.17917 -0.95416,0.17968 -0.65677,0.28906 c -0.36142,0.15887 -0.97752,0.5102 -1.36874,0.78073 l -0.71094,0.49167 -0.52344,0.59583 c -0.7717,0.87887 -1.4686,2.29087 -1.69113,3.42654 l -0.0844,0.43282 -0.22135,0.11458 -0.22135,0.11458 0.0599,0.1 0.0599,0.1 -0.31511,0.22292 -0.31562,0.22291 0.15104,0.18698 0.15052,0.18698 -0.14114,0.1651 -0.14115,0.16563 0.0693,0.11562 0.0693,0.11615 0.16979,-0.0625 0.16979,-0.0625 0.0109,0.15625 c 0.006,0.0859 -5.4e-4,0.25195 -0.0146,0.36927 l -0.0255,0.21354 0.15208,-0.0912 c 0.0837,-0.0502 0.23508,-0.0966 0.33594,-0.1026 l 0.18333,-0.0109 -0.0516,0.24948 -0.051,0.24948 0.35833,0.91198 0.35885,0.91197 0.60781,0.84323 0.60781,0.8427 0.70729,0.53438 c 0.95544,0.72198 1.65556,1.07876 2.63124,1.34166 l 0.81875,0.22187 0.79999,-0.0281 c 0.43989,-0.0154 1.07934,-0.059 1.42083,-0.0969 l 0.62083,-0.0687 -0.15416,-0.0995 -0.15417,-0.099 0.34479,0.0162 c 0.46529,0.0216 0.72375,-0.0497 1.45572,-0.40053 l 0.6224,-0.29791 0.61145,-0.61875 c 0.33651,-0.34029 0.6127,-0.66834 0.61354,-0.72864 8e-4,-0.0603 0.0402,-0.10279 0.0875,-0.0948 0.20802,0.0358 0.374,-0.0172 0.375,-0.11979 l 0.002,-0.11094 -0.20208,0.062 -0.20156,0.062 0.16823,-0.11615 c 0.0927,-0.064 0.20387,-0.0935 0.24687,-0.0661 0.043,0.0274 0.29513,-0.27311 0.56042,-0.66823 l 0.48228,-0.71875 0.003,-0.25052 0.003,-0.25 0.10313,5.4e-4 0.10364,10e-4 0.14584,-0.57239 0.14583,-0.57239 0.13229,-0.012 c 0.0728,-0.006 0.17729,-0.002 0.23229,0.008 l 0.1,0.0193 -0.0693,-0.18802 -0.0693,-0.18854 0.23125,-0.31562 c 0.12714,-0.17343 0.19966,-0.34716 0.16146,-0.38646 -0.0382,-0.0393 0.002,-0.15481 0.0891,-0.25677 l 0.15781,-0.18542 -0.19427,-0.14687 -0.19479,-0.14635 0.003,-0.19896 0.003,-0.19948 -0.22865,-0.063 -0.22916,-0.0635 0.003,-0.20781 c 0.005,-0.37304 -0.61228,-2.03676 -1.00573,-2.71041 l -0.38385,-0.65781 -0.79791,-0.78124 -0.79792,-0.78125 -0.85156,-0.44948 c -1.1286,-0.59616 -1.69737,-0.77309 -2.80311,-0.87239 z m -1.06249,0.99271 1.38957,0.0302 c 1.70586,0.0373 1.94381,0.0769 2.59062,0.43281 0.28225,0.15532 0.65659,0.34891 0.83229,0.43021 0.1757,0.0813 0.66174,0.50373 1.07968,0.93854 l 0.75989,0.79062 0.40365,0.86614 0.40416,0.86615 0.0693,0.5328 0.0693,0.53229 -0.17812,0.0656 -0.17812,0.0656 -0.002,0.16666 -0.002,0.16614 -0.31927,0.24219 -0.31927,0.24219 0.14271,0.062 0.14271,0.062 -0.003,0.25208 -0.003,0.25208 0.22135,0.16458 0.22135,0.16407 -0.0641,0.10104 -0.0641,0.10052 0.19844,0.14948 0.19895,0.14947 -0.0844,0.33282 c -0.0464,0.18303 -0.11673,0.4618 -0.15573,0.61926 -0.039,0.15746 -0.1468,0.37172 -0.2401,0.47604 l -0.16979,0.18959 0.0214,0.32499 c 0.0246,0.37013 -0.0878,0.69267 -0.34271,0.98125 l -0.17552,0.19844 -0.20729,-0.003 -0.20781,-0.003 -0.6599,0.5224 -0.65989,0.52291 -0.72656,0.31719 c -0.39957,0.17454 -0.93782,0.34781 -1.19583,0.38541 l -0.46875,0.0687 -0.002,0.10886 -5.3e-4,-10e-4 -0.002,0.10937 -0.98541,-0.0516 c -0.54204,-0.0282 -1.00327,-0.0689 -1.02447,-0.0906 -0.0212,-0.0217 -0.25616,-0.0915 -0.5224,-0.15521 -0.26625,-0.0637 -0.8698,-0.30082 -1.34114,-0.52656 l -0.85677,-0.41042 -0.69895,-0.7401 -0.69895,-0.73958 -0.3573,-0.65468 c -0.29959,-0.54846 -0.68364,-1.71526 -0.67864,-2.06249 8e-4,-0.0522 0.22206,-0.18516 0.49219,-0.29584 l 0.49114,-0.20156 0.91771,0.13125 c 1.06248,0.1518 1.52484,0.16322 3.10155,0.0755 1.94196,-0.108 2.18289,-0.12452 2.24269,-0.15312 0.0318,-0.0153 0.19254,-0.0423 0.3573,-0.0599 l 0.29947,-0.0318 -0.003,0.30781 c -0.002,0.16928 0.0534,0.63658 0.12188,1.03854 l 0.12447,0.73073 -0.0708,0.21406 -0.0713,0.21354 -0.32552,-0.0698 -0.32604,-0.0698 -0.20938,0.11301 -0.20885,0.11303 0.48646,0.13854 0.48645,0.13802 0.11042,0.30312 0.11042,0.30313 -0.075,0.32083 -0.0755,0.32083 0.0745,0.12448 0.0745,0.12448 0.16407,-0.13229 c 0.0901,-0.0728 0.16566,-0.21974 0.16666,-0.32657 l 0.003,-0.19427 0.34531,-0.32187 0.34479,-0.32135 -0.063,-0.10521 c -0.0663,-0.11065 0.18404,-0.79342 0.32656,-0.89062 l 0.0833,-0.0568 -0.0927,-0.46042 c -0.051,-0.25326 -0.14289,-0.71442 -0.20469,-1.02447 l -0.1125,-0.56354 0.2026,-0.14948 c 0.11152,-0.0822 0.33863,-0.14925 0.50469,-0.14896 l 0.30208,5.4e-4 0.1474,-0.17292 0.14792,-0.17291 -0.19428,0.0713 -0.19426,0.0714 0.0198,-0.1 c 0.011,-0.055 0.0138,-0.16464 0.008,-0.24375 l -0.0115,-0.14374 -0.32292,-0.004 -0.32291,-0.004 -0.20573,-0.15521 -0.20573,-0.15468 0.12136,-0.21979 c 0.0667,-0.12084 0.18524,-0.57598 0.26354,-1.01146 l 0.14218,-0.79166 -0.0969,-0.0698 c -0.0534,-0.0382 -0.16108,-0.30306 -0.23958,-0.58854 l -0.14271,-0.51875 -0.20886,-0.2026 -0.20937,-0.20313 -0.19062,0.0703 -0.19115,0.0703 0.15781,-0.24479 0.1573,-0.24479 -0.11928,-0.19532 c -0.0658,-0.10753 -0.17633,-0.21538 -0.24583,-0.23958 l -0.12656,-0.0443 0.0109,0.6901 0.0104,0.6901 -0.11875,0.11615 c -0.0654,0.064 -0.22151,0.13499 -0.34687,0.15729 -0.12535,0.0224 -0.35827,0.0946 -0.51719,0.16094 l -0.28854,0.12083 0.22917,0.0276 c 0.12619,0.016 0.3748,0.0184 0.5526,0.007 l 0.32343,-0.0208 0.1474,0.12604 0.14792,0.12604 -0.0385,0.2573 c -0.021,0.1415 -0.10517,0.65339 -0.18697,1.13801 l -0.14896,0.88125 -0.35729,-0.0625 c -0.73497,-0.12885 -1.43074,-0.19089 -2.8828,-0.25729 l -1.49323,-0.0682 -0.52603,0.0979 c -0.28942,0.0541 -1.00862,0.12829 -1.59844,0.16459 l -1.07239,0.0661 0.0625,-0.57083 0.063,-0.57031 0.19635,-0.38072 c 0.10807,-0.20937 0.19724,-0.4205 0.19792,-0.46979 0.003,-0.19412 0.79168,-1.32995 1.27552,-1.83594 l 0.51145,-0.53489 0.76979,-0.45052 0.76979,-0.45052 0.4,-0.0703 c 0.21997,-0.0387 0.47332,-0.12693 0.56302,-0.19583 z m -1.58698,2.10363 0.0875,0.37448 c 0.0481,0.20607 0.0859,0.56548 0.0839,0.79843 l -0.003,0.42344 0.20573,0.0568 0.20572,0.0568 -0.003,0.25156 -0.003,0.25104 0.22917,0.0635 c 0.12592,0.0348 0.2283,0.1046 0.2276,0.1552 -8e-4,0.0505 0.13992,0.14505 0.3125,0.21094 0.17289,0.0658 0.3819,0.12473 0.4651,0.13073 l 0.15156,0.0115 -0.076,-0.25989 c -0.0416,-0.14278 -0.12558,-0.32412 -0.18698,-0.40312 l -0.11197,-0.14375 0.0786,-0.29584 0.0786,-0.29583 -0.24792,-0.42604 c -0.13647,-0.23435 -0.26295,-0.44623 -0.28125,-0.47083 -0.0183,-0.0246 -0.15135,-0.0585 -0.29531,-0.0755 -0.42429,-0.0501 -0.43325,-0.055 -0.43125,-0.2349 l 0.002,-0.17239 -0.24427,-0.003 z m 1.90468,5.67862 -0.43281,0.12344 c -0.23794,0.068 -0.50185,0.18853 -0.58645,0.26823 -0.0846,0.0797 -0.1981,0.1445 -0.25261,0.14375 -0.0545,-8e-4 -0.1177,0.14057 -0.1401,0.31406 l -0.0406,0.3151 -0.11407,-0.0588 c -0.0627,-0.0325 -0.10485,-0.12898 -0.0937,-0.21458 l 0.0198,-0.15573 -0.0995,0.0974 -0.1,0.0969 0.0995,0.46093 0.1,0.46094 -0.13073,0.38542 -0.13021,0.38541 0.15521,0.1026 0.15625,0.10209 0.16042,-0.22709 0.16093,-0.22656 0.27136,0.004 0.27135,0.004 0.2901,-0.55416 0.29063,-0.55364 -0.11667,-0.11979 -0.11667,-0.11979 0.18698,-0.35 c 0.1028,-0.1923 0.18859,-0.42467 0.18959,-0.51667 z m 9.83434,7.60622 -0.0865,0.13125 c -0.108,0.16391 -0.13732,1.61605 -0.0349,1.72135 0.0415,0.0427 0.0799,0.0775 0.0849,0.0776 0.005,9e-5 0.0159,-0.43429 0.0229,-0.9651 z m -16.76243,1.41614 0.5401,0.003 -0.002,0.1724 -0.003,0.17291 -0.53594,0.0271 -0.53593,0.0271 -0.0776,-0.12917 -0.0776,-0.12968 0.0755,-0.0734 c 0.0415,-0.0404 0.31898,-0.0718 0.61614,-0.0698 z m 1.18281,0.19271 c 0.0931,5.3e-4 0.24409,0.0522 0.47708,0.15469 l 0.36718,0.16146 0.58594,0.60572 0.58541,0.60521 0.23229,0.51198 c 0.12753,0.28133 0.22995,0.64165 0.22813,0.80051 -0.006,0.45526 -0.1648,0.33592 -0.40156,-0.30364 l -0.21823,-0.58958 -0.38281,-0.46094 -0.38281,-0.46093 -0.61094,-0.35625 -0.61145,-0.35625 0.002,-0.16146 c 10e-4,-0.10087 0.0366,-0.15112 0.12969,-0.15052 z m 11.36036,1.0677 c -0.0699,-10e-4 -0.12872,0.0632 -0.13072,0.14219 -0.002,0.079 -0.0359,0.25939 -0.0761,0.40104 l -0.0729,0.25833 0.17344,0.002 0.17343,0.002 0.0672,-0.1677 0.0667,-0.16771 -0.10365,-0.0667 -0.10417,-0.0661 0.0672,-0.16771 0.0672,-0.16771 z m -8.78329,2.73228 -0.003,0.22969 c -0.002,0.12647 -0.0353,0.31154 -0.075,0.41094 l -5.4e-4,5.3e-4 c -0.0397,0.0994 -0.12137,0.18001 -0.18177,0.17917 l -0.10989,-0.002 0.0412,-0.36406 0.0406,-0.36407 0.14427,-0.0448 z m 13.62911,0.66927 0.0745,0.0766 c 0.041,0.0422 0.0734,0.146 0.0724,0.2302 l -0.002,0.15261 -0.16563,-0.002 c -0.091,-0.001 -0.19318,-0.0482 -0.22708,-0.10468 l -0.0615,-0.10313 0.15469,-0.12447 z"
         style="fill:#4e3223;stroke-width:0.11489806" />
      <path
         inkscape:connector-curvature="0"
         id="path1711"
         d="m 171.68813,99.123007 v 33.675903 h 21.31449 V 99.123007 Z m 1.33958,0.580726 0.19427,0.112498 0.19479,0.112501 0.88645,-0.0651 c 0.48759,-0.03585 1.81718,-0.05916 2.95468,-0.05156 l 2.06822,0.01405 0.14427,0.09375 0.14427,0.09375 -0.0677,0.10573 -0.0677,0.10625 -0.48125,-0.003 -0.48177,-0.003 -0.2177,0.16042 -0.21771,0.15989 0.062,0.16823 0.062,0.16875 0.41093,-0.087 0.41094,-0.0865 5.3e-4,0.074 c 2.7e-4,0.0407 0.0396,0.0152 0.087,-0.0568 0.0938,-0.14251 0.30324,-0.19036 0.66146,-0.15156 l 0.22916,0.025 -0.23125,0.0912 -0.23073,0.0911 0.63229,-0.0229 c 0.34777,-0.0127 0.63213,-0.0324 0.63229,-0.0438 1.6e-4,-0.0112 1.17673,-0.0236 2.61458,-0.0276 l 2.61457,-0.007 -0.002,0.11458 -0.002,0.11458 0.11354,-0.0682 c 0.0625,-0.0374 0.0238,0.0843 -0.0865,0.27032 l -0.20052,0.33854 -0.0885,-0.0568 c -0.0487,-0.031 -0.0893,-0.007 -0.0901,0.0531 -8e-4,0.0602 0.079,0.14185 0.1776,0.18125 l 0.17969,0.0713 -0.076,0.22865 -0.0766,0.22864 0.17084,-0.0625 0.17031,-0.063 0.0719,0.23854 c 0.04,0.13095 0.0438,0.2828 0.009,0.3375 -0.0349,0.0547 0.0361,0.31185 0.15729,0.57188 0.12122,0.26002 0.22252,0.54029 0.22552,0.62239 l 0.005,0.14896 0.11198,-0.26771 c 0.0613,-0.14719 0.0827,-0.31558 0.0474,-0.37448 l -0.0641,-0.10729 -0.12031,0.0724 -0.12031,0.0719 0.087,-0.38646 c 0.048,-0.21264 0.12945,-0.43109 0.18125,-0.48489 l 0.0943,-0.0979 0.11511,0.0734 c 0.0633,0.0403 0.14846,0.23548 0.18906,0.43333 l 0.0734,0.35938 0.0901,-0.14115 0.0901,-0.14115 0.0703,0.11771 0.0708,0.11771 -0.0802,0.20052 -0.0802,0.20052 0.12709,-0.076 0.12656,-0.0755 0.22135,0.32031 c 0.21912,0.31693 0.24623,0.38384 0.24323,0.60781 l -0.002,0.1151 0.23645,0.003 0.23646,0.003 -0.0651,0.10208 -0.0651,0.10208 0.1875,0.0745 c 0.10291,0.0412 0.21442,0.0482 0.24792,0.0156 0.0335,-0.0326 -0.008,-0.0605 -0.0922,-0.0615 -0.0842,-0.001 -0.12657,-0.028 -0.0943,-0.0594 0.0323,-0.0314 0.22083,0.0267 0.41927,0.12916 l 0.36094,0.18646 -0.002,0.25 -0.002,0.25 0.11406,-0.17031 0.11354,-0.17084 0.008,0.22969 0.008,0.23021 0.0599,-0.14323 0.0599,-0.14271 0.62239,0.009 0.62239,0.009 -0.002,0.16667 c -0.001,0.0916 -0.0877,0.21267 -0.19219,0.26927 l -0.1901,0.10312 0.0828,0.13802 0.0828,0.13802 0.16042,-0.20573 0.16041,-0.20572 0.002,0.22968 0.002,0.22969 0.099,-0.15208 0.0995,-0.15157 0.0797,0.26928 0.0802,0.26926 0.0969,-0.28593 0.0974,-0.28594 0.008,0.27761 0.008,0.27812 0.0766,-0.0745 0.0766,-0.075 0.1526,0.13021 c 0.0839,0.0716 0.151,0.19979 0.15,0.28489 l -0.002,0.15469 -0.15469,-0.062 -0.15521,-0.062 -0.0813,0.53802 c -0.0448,0.29589 -0.0851,0.81189 -0.0901,1.14687 l -0.008,0.60885 -0.11614,0.0698 -0.11563,0.0693 0.007,0.30938 0.007,0.30937 0.0958,-0.28593 0.0958,-0.28594 0.0177,0.2875 c 0.01,0.15813 0.005,0.54567 -0.0104,0.86145 -0.0366,0.7358 -0.0992,6.21024 -0.10416,9.19111 l -0.004,2.29843 0.11875,-0.63021 0.11875,-0.63072 0.076,0.34583 0.076,0.34583 0.0198,-0.43073 0.0198,-0.43072 0.10573,0.001 0.10573,0.001 0.0589,0.71927 c 0.0746,0.90661 -0.0567,5.22828 -0.16197,5.3307 l -0.0787,0.076 0.013,-0.93802 0.013,-0.93854 -0.16146,-0.002 -0.16146,-0.002 0.0542,0.21875 0.0536,0.21874 -0.12239,0.22136 -0.1224,0.22135 0.0615,0.24792 0.0609,0.24791 0.1026,-0.0614 0.10313,-0.0615 -0.001,0.10729 c -8e-4,0.0592 -0.0824,0.1729 -0.18125,0.2526 l -0.17969,0.14479 0.0568,0.15469 0.0573,0.15521 -0.11145,-0.002 c -0.0612,-8e-4 -0.11215,0.0498 -0.11302,0.11302 l -0.002,0.11511 0.20105,0.005 0.20104,0.005 -0.15469,0.0953 c -0.0851,0.0523 -0.15027,0.12869 -0.14427,0.16979 0.006,0.0411 -0.0734,0.1998 -0.17656,0.35261 l -0.1875,0.2776 0.0713,0.23646 0.0714,0.23645 0.2125,0.003 c 0.11694,0.002 0.29382,0.0353 0.39322,0.075 l 0.18125,0.0724 0.007,-0.49114 c 0.004,-0.27006 0.035,-0.46187 0.0693,-0.42656 0.0343,0.0353 0.0627,0.78761 0.063,1.67186 l 5.3e-4,1.60729 -0.25834,-0.004 -0.25885,-0.004 0.002,-0.17031 0.002,-0.17031 0.14271,0.0573 0.14322,0.0573 0.0146,-0.67499 0.0151,-0.67448 -0.0844,-0.001 c -0.0464,-5.3e-4 -0.22366,0.0498 -0.39427,0.11198 l -0.31041,0.11302 0.0641,0.31458 c 0.0353,0.17295 0.0896,0.41796 0.12083,0.54479 l 0.0568,0.23073 -0.15625,0.19635 -0.15677,0.19584 -0.36094,-0.10886 -0.36041,-0.10885 -0.17656,0.24479 c -0.0971,0.13459 -0.17769,0.35435 -0.17969,0.48802 l -0.003,0.24271 0.54531,0.0255 0.54583,0.0255 -0.17083,-0.11459 -0.17083,-0.1151 0.24531,0.002 0.24479,0.002 0.0656,-0.23646 0.0651,-0.23646 0.38177,0.049 0.38125,0.049 0.007,0.31354 0.007,0.31406 -0.22084,0.11406 -0.22031,0.11406 -1.91978,0.0755 c -1.05508,0.0415 -2.1767,0.0873 -2.4927,0.10156 -0.3162,0.0143 -1.0138,-0.0335 -1.54999,-0.10625 l -0.97448,-0.1323 0.28802,-0.0765 c 0.15858,-0.0422 0.45743,-0.0749 0.66406,-0.0729 l 0.37552,0.004 0.46145,-0.28229 0.44063,-0.26979 c -0.19162,-0.008 -0.32924,-0.0169 -0.58489,-0.0229 l -0.77813,-0.0177 0.074,-0.11615 0.0745,-0.11666 -0.24375,0.14791 c -0.13414,0.0812 -0.24487,0.20404 -0.24583,0.27344 -0.001,0.0694 -0.13167,0.18385 -0.29062,0.25365 -0.15897,0.0698 -0.28973,0.17924 -0.29063,0.24374 l -0.002,0.11771 -0.36042,-0.005 -0.36041,-0.005 0.30156,-0.29375 0.30156,-0.29323 0.10729,0.0688 0.10729,0.0682 0.0667,-0.16563 0.0661,-0.16562 -0.2927,0.10677 -0.29323,0.10625 -0.11667,-0.0745 -0.11719,-0.0745 -0.1026,0.15677 -0.1026,0.15729 5.3e-4,-0.14375 v -0.14375 l -2.03957,-0.01 -2.03958,-0.0104 0.57344,0.0875 0.57343,0.0875 -1.00051,-0.0214 -1.00052,-0.0214 0.1401,-0.0865 0.1401,-0.0865 -0.38072,-0.007 -0.38125,-0.007 0.0807,-0.24271 0.0812,-0.24323 -0.15729,0.0781 c -0.0864,0.0431 -0.0392,-0.0223 0.10468,-0.14583 0.30482,-0.26169 0.32205,-0.42449 0.0865,-0.8224 l -0.17187,-0.28958 0.0542,0.28802 0.0537,0.28802 -0.3125,-0.37812 c -0.32782,-0.39661 -0.50144,-0.49111 -0.40104,-0.21823 l 0.0594,0.16198 -0.11042,0.0661 -0.11094,0.0661 -0.11354,-0.14375 c -0.0625,-0.0792 -0.13177,-0.24777 -0.15417,-0.37448 l -0.0406,-0.23021 -0.25625,0.0323 -0.25625,0.0323 0.003,-0.22708 0.003,-0.22761 0.14428,-0.051 0.14426,-0.051 -0.56614,-0.60104 -0.56614,-0.60052 -0.42813,-0.19583 -0.42864,-0.19635 0.004,-0.25521 0.004,-0.25573 0.13594,-0.0432 0.13645,-0.0432 -0.0719,-0.19531 -0.0719,-0.19531 -0.31979,0.009 -0.3198,0.009 0.22917,0.0583 c 0.12595,0.0321 0.2709,0.0996 0.3224,0.14948 l 0.0937,0.0906 -0.29532,-0.0609 -0.29478,-0.0604 -0.004,0.30052 -0.004,0.30052 -0.57032,-0.008 -0.57031,-0.008 -0.11562,-0.22344 c -0.0637,-0.12313 -0.11783,-0.36992 -0.12083,-0.54791 l -0.005,-0.32344 -0.0599,0.14271 c -0.033,0.0786 -0.10608,0.14244 -0.16198,0.14166 l -0.10157,-10e-4 0.0661,-0.16615 c 0.0365,-0.0913 0.035,-0.21873 -0.004,-0.28333 -0.1062,-0.17725 -0.14107,-2.66993 -0.0891,-6.38799 l 0.0469,-3.33176 -0.11302,-0.17396 -0.11354,-0.17396 0.0568,0.40313 0.0563,0.4026 -0.18229,-0.51927 c -0.2407,-0.68568 -0.30634,-0.73723 -0.22344,-0.17552 l 0.0682,0.46041 -0.11823,-0.19062 -0.11771,-0.19062 -0.005,-0.99062 c -0.003,-0.5449 0.0291,-1.02398 0.0708,-1.06458 l 0.076,-0.0734 -0.006,0.42135 -0.006,0.42083 0.12708,0.002 0.1276,0.002 -0.0734,0.27656 -0.074,0.27709 0.0953,0.26718 0.0948,0.26771 0.0844,-0.25469 c 0.0467,-0.14012 0.0731,-0.59135 0.0589,-1.0026 l -0.0255,-0.74791 -0.10208,-0.002 -0.10261,-0.002 0.0766,-0.57708 0.0766,-0.57708 -0.11094,0.0667 -0.11093,0.0661 -0.007,0.49115 -0.007,0.49114 -0.18229,-0.003 -0.18229,-0.003 0.0557,-0.26979 0.0557,-0.27031 -0.099,-0.063 -0.0984,-0.063 0.0521,-2.43384 c 0.0287,-1.33887 0.0706,-2.26612 0.0932,-2.06041 0.0226,0.20572 0.0802,0.37434 0.12761,0.375 l 0.0859,10e-4 -0.0609,0.70468 -0.0604,0.70469 0.13073,-0.0786 0.13125,-0.0781 0.006,-0.45313 0.006,-0.4526 0.11459,0.002 0.1151,0.002 0.002,-0.25886 0.002,-0.25833 -0.11407,0.17083 -0.11354,0.17083 0.006,-0.53906 0.006,-0.53906 -0.11406,-0.0724 -0.11407,-0.0729 -0.002,0.12865 -0.002,0.12864 -0.11406,-0.0729 -0.11407,-0.0724 0.009,-0.68281 0.009,-0.68229 0.12969,0.002 0.12969,0.002 -0.0844,0.57344 -0.0844,0.57343 0.1724,0.002 0.17239,0.002 0.12187,-0.22083 c 0.0671,-0.12132 0.12409,-0.385 0.12709,-0.58646 l 0.005,-0.36666 -0.15052,0.12135 -0.15,0.12136 0.0557,-0.42448 0.0563,-0.42448 0.0948,0.23125 0.0953,0.23125 -0.037,-0.77552 -0.037,-0.77552 0.12761,-0.076 0.1276,-0.0766 -0.22135,-0.0901 -0.22084,-0.0901 0.23959,-0.005 c 0.30102,-0.006 0.39537,-0.0957 0.31926,-0.3026 l -0.0599,-0.16198 -0.21719,-0.003 -0.2177,-0.003 0.002,-0.12187 0.002,-0.12136 -0.10833,0.0646 -0.10781,0.0646 -0.0438,-0.31823 c -0.024,-0.1752 -0.0593,0.26271 -0.0786,0.97344 l -0.0349,1.29218 -0.0885,-0.001 -0.0885,-10e-4 -0.006,-0.48854 c -0.008,-0.6354 0.0171,-2.30785 0.0437,-2.92498 l 0.0208,-0.48438 0.12969,0.14167 c 0.0711,0.0777 0.16419,0.26439 0.20729,0.4151 l 0.0786,0.27396 -0.12604,-0.0802 -0.12604,-0.0807 0.005,0.26563 0.005,0.26562 0.0599,-0.14323 c 0.033,-0.0785 0.12137,-0.14162 0.19687,-0.14062 0.0755,0.001 0.22536,-0.0978 0.33281,-0.21979 l 0.19532,-0.2224 -0.0458,-0.25781 c -0.058,-0.32545 -0.33629,-0.61687 -0.59426,-0.62187 l -0.19844,-0.004 -0.0802,0.17135 -0.0807,0.17136 0.002,-0.72344 0.002,-0.72343 0.27188,-0.26162 z m 14.17442,31.549347 c 0.007,2.7e-4 0.0142,8e-4 0.0208,10e-4 v -0.0136 z m 0.0208,10e-4 -0.001,0.0906 c -8e-4,0.0572 -0.0924,0.14147 -0.20365,0.18697 l -0.2026,0.0828 0.28593,0.0911 c 0.1573,0.0503 0.37649,0.0982 0.48698,0.10625 l 0.20104,0.014 0.004,-0.26822 0.004,-0.26771 -0.20052,-0.0214 c -0.0422,-0.004 -0.25463,-0.009 -0.37396,-0.0146 z m -9.69527,-31.19206 -0.28385,0.0672 -0.28437,0.0672 0.11354,0.21927 0.11354,0.21927 -0.14375,0.0557 -0.14323,0.0552 0.13646,0.0115 c 0.0748,0.006 0.26935,-0.038 0.43229,-0.0974 l 0.29583,-0.10781 0.002,-0.16823 c 0.001,-0.0926 -0.0515,-0.20311 -0.1177,-0.24531 z m -2.87447,0.026 -0.70051,0.0724 c -0.38529,0.04 -0.76957,0.0453 -0.85416,0.0115 l -0.15417,-0.0615 -0.002,0.11927 c -8e-4,0.0657 0.0957,0.15196 0.2151,0.19166 l 0.21719,0.0724 -0.0625,0.225 c -0.0699,0.25305 -0.0647,0.25046 -0.31198,0.15156 l -0.18073,-0.0719 -0.004,-0.24636 -0.004,-0.24635 -0.11093,0.26719 -0.11146,0.26718 0.12083,0.19219 0.12083,0.19271 -0.0604,-0.23073 -0.0604,-0.23021 0.18021,0.26094 h 5.3e-4 c 0.19969,0.28901 0.32763,0.32764 0.44948,0.13646 l 0.0812,-0.12657 0.44531,0.0656 0.44531,0.0661 0.12396,-0.22343 c 0.0683,-0.12307 0.10266,-0.28608 0.0766,-0.36198 -0.0262,-0.0759 -0.005,-0.21783 0.0463,-0.31563 z m 1.15104,0.11094 -0.2276,0.0563 -0.22708,0.0563 0.12916,0.1599 c 0.16645,0.20644 0.41832,0.20771 0.62865,0.003 0.23088,-0.22455 0.21108,-0.3556 -0.025,-0.16615 l -0.19323,0.15469 -0.0422,-0.13177 z m 10.91767,0.70052 0.18593,0.003 0.18594,0.003 -0.0729,0.25729 c -0.0401,0.14164 -0.0746,0.32204 -0.0766,0.40104 l -10e-4,-5.4e-4 c -0.002,0.079 -0.055,0.14306 -0.11822,0.14219 l -0.11511,-0.002 0.006,-0.40208 z m -3.95884,8.29944 c -0.0593,0.002 -0.11249,0.007 -0.15521,0.0156 l -0.31094,0.0594 0.34375,0.0854 c 0.18895,0.0467 0.44724,0.0666 0.57396,0.0438 0.12671,-0.0228 0.3077,-0.0472 0.4026,-0.0542 0.0949,-0.007 -0.0234,-0.0533 -0.26302,-0.10312 -0.17975,-0.0374 -0.41334,-0.0543 -0.59114,-0.0469 z m 9.401,0.39531 0.0854,0.001 0.0854,0.001 -0.0375,3.15936 v 5.3e-4 c -0.0205,1.73771 -0.0585,3.1592 -0.0849,3.15884 -0.10681,-0.002 -0.15239,-1.79753 -0.10208,-3.99477 z m -13.96869,0.78333 -0.16667,0.21355 -0.16614,0.21354 -0.21979,-0.0609 -0.2198,-0.0604 0.0495,0.2 0.0495,0.2 -0.17656,0.0651 -0.17656,0.0646 0.0755,-0.19375 0.076,-0.19427 -0.18906,0.14948 -0.18958,0.14948 0.0625,0.16874 0.062,0.16927 -0.20469,0.2198 -0.20469,0.22031 -0.0927,-0.0594 -0.0932,-0.0594 -0.13594,0.24583 -0.13594,0.24583 0.12969,0.0823 0.12969,0.0828 -0.0839,0.20937 -0.0833,0.20989 0.14218,-0.0849 0.14167,-0.0849 -0.0354,-0.19115 -0.0359,-0.19062 0.19844,-0.21042 0.19843,-0.21094 0.10573,0.0672 0.10521,0.0672 0.12552,-0.25261 c 0.0689,-0.13909 0.15528,-0.34303 0.19219,-0.45312 l 0.0672,-0.2 0.22917,0.003 0.22916,0.003 0.12188,-0.22031 c 0.0671,-0.12132 0.12169,-0.28868 0.12083,-0.37188 z m -5.07967,0.23282 -0.21614,0.0135 -0.21563,0.013 0.002,0.86614 0.003,0.86614 0.0969,-0.45833 c 0.0534,-0.25206 0.14934,-0.64755 0.21354,-0.87916 z m 14.79213,0.93541 -0.0474,0.20729 -0.0469,0.20781 0.17656,0.38594 c 0.0972,0.21245 0.17651,0.41423 0.17604,0.44843 -5.3e-4,0.0342 0.11272,0.26111 0.25156,0.50365 l 0.25208,0.4401 0.0417,-0.3224 0.0417,-0.32239 -0.10677,-0.13802 -0.10677,-0.13854 0.0458,-0.25781 0.0458,-0.25781 -0.16875,-0.002 -0.16875,-0.002 -0.19322,-0.37604 z m -3.17551,0.34219 -0.20573,0.062 -0.20573,0.0625 -0.1375,0.34948 -0.1375,0.34948 0.16407,0.0656 0.16406,0.0656 -0.014,0.47604 c -0.008,0.26173 -0.083,0.86257 -0.16719,1.33541 l -0.15313,0.85989 -0.15937,-0.038 c -0.0878,-0.0209 -0.28184,-0.009 -0.43125,0.026 l -0.27187,0.0641 0.17604,0.18073 0.17552,0.18073 -0.0615,0.0964 -0.0615,0.0964 0.25886,0.0849 c 0.32276,0.10566 0.42539,0.26115 0.42239,0.64062 -10e-4,0.16324 0.0356,0.33585 0.0823,0.38385 0.0468,0.048 0.092,0.19938 0.10104,0.33646 0.009,0.13707 0.0491,0.54696 0.0896,0.91093 l 0.074,0.66198 -0.23907,-0.003 c -0.13149,-0.002 -0.27109,0.0465 -0.30989,0.10729 l -0.0703,0.11042 0.29062,0.0776 0.29114,0.0771 -0.004,0.275 5.4e-4,-5.3e-4 c -0.004,0.32138 0.0807,0.34154 0.43281,0.10208 l 0.25781,-0.17552 0.003,-0.22916 c 0.002,-0.12593 0.0845,-0.38084 0.18385,-0.56667 l 0.18073,-0.33802 -0.1599,-0.99843 -0.15989,-0.99843 0.17083,-0.33125 0.17083,-0.33125 -0.23906,-0.33333 -0.23958,-0.33334 0.1177,-0.14687 c 0.0648,-0.0808 0.17849,-0.43601 0.25209,-0.78958 l 0.13385,-0.64323 -0.21198,-0.71562 c -0.11656,-0.39363 -0.28901,-0.79422 -0.38281,-0.89062 z m -4.17186,0.39999 -0.3026,0.0719 c -0.36604,0.0865 -0.33122,0.0495 -0.37292,0.39635 l -0.0344,0.28698 0.2151,0.37552 v 5.3e-4 l 0.21511,0.37552 0.17239,0.001 c 0.0948,8e-4 0.24076,-0.0405 0.32396,-0.0917 l 0.15104,-0.0932 -0.0437,-0.27708 c -0.0242,-0.15245 -0.10696,-0.45011 -0.18385,-0.66145 z m -4.36352,0.59011 -0.0599,0.1427 c -0.033,0.0785 -0.13177,0.14163 -0.21927,0.14063 l -0.15937,-0.002 0.0708,0.19219 0.0708,0.19219 -0.12499,-0.0797 -0.12501,-0.0797 -0.0713,0.21459 c -0.0396,0.11787 -0.0404,0.29941 -0.002,0.40364 l 0.0698,0.18958 -0.12239,-0.002 -0.12188,-0.002 -0.0833,0.41354 -0.0833,0.41354 0.15729,0.10312 -0.001,5.3e-4 c 0.19302,0.12605 0.2345,0.12718 0.41562,0.0156 l 0.14323,-0.088 -0.005,-0.62135 -0.005,-0.62083 0.13073,-0.0417 0.13125,-0.0417 -0.003,-0.42136 z m 12.87547,0.75208 -0.16979,0.31458 c -0.0933,0.17293 -0.20045,0.58529 -0.23854,0.91614 -0.10686,0.92794 -0.21861,1.45762 -0.3198,1.51822 l -0.0922,0.0552 0.062,0.25104 0.062,0.25156 0.0958,-0.24895 c 0.0528,-0.13681 0.14125,-0.24764 0.19635,-0.24688 0.13033,0.002 0.33906,-0.44647 0.43906,-0.94166 l 0.0792,-0.39219 0.175,0.002 0.17448,0.002 -0.0786,0.4526 -0.0786,0.4526 -0.25834,0.20938 -0.25781,0.20885 0.55208,0.0115 0.55208,0.012 -0.0385,-0.31666 c -0.0211,-0.17409 -0.12483,-0.52383 -0.23073,-0.77708 -0.10589,-0.25326 -0.20643,-0.59603 -0.22343,-0.76198 -0.017,-0.16595 -0.0672,-0.36256 -0.11146,-0.43646 l -0.0802,-0.13437 -0.10781,0.0646 -0.10781,0.0646 0.003,-0.2651 z m -10.10621,1.52395 -0.0693,0.17291 -0.0687,0.1724 -0.86562,-0.012 -0.8651,-0.012 -10e-4,0.20104 -0.001,0.20104 0.11406,-0.17083 0.11354,-0.17083 -0.003,0.35052 -0.003,0.35052 0.13593,0.13958 -0.001,5.3e-4 c 0.15804,0.1625 0.43445,0.19031 0.43645,0.0438 8e-4,-0.0553 0.16953,-0.13552 0.37552,-0.17812 l 0.375,-0.0771 -0.14309,-0.0584 c -0.0786,-0.032 -0.14204,-0.11156 -0.14114,-0.17656 l 0.002,-0.11823 0.38802,0.0786 0.3875,0.0781 0.0698,-0.17396 0.0693,-0.17448 0.37708,0.004 c 0.20735,0.002 0.64743,-0.0243 0.97812,-0.0594 l 0.60156,-0.0641 -0.0661,-0.11042 -0.0662,-0.11042 -0.38125,0.0662 -0.38073,0.0656 -0.0568,-0.0943 -0.0563,-0.0937 -0.6276,-0.0354 z m -3.90103,0.40833 -0.13437,0.28385 c -0.0742,0.15623 -0.10991,0.34949 -0.0802,0.42969 l 0.0542,0.14531 0.80208,0.0198 c 0.44136,0.011 0.80288,0.006 0.80312,-0.012 2.5e-4,-0.0177 -0.0563,-0.16204 -0.12604,-0.32083 l -0.12708,-0.28854 -0.34428,-0.12552 c -0.18935,-0.069 -0.45743,-0.12716 -0.59583,-0.12916 z m 3.91874,0.63229 -0.14896,0.0917 -0.14896,0.0911 0.0714,0.19323 0.0713,0.19271 0.67656,0.009 0.67708,0.009 0.002,-0.11511 c 8e-4,-0.0632 0.0402,-0.108 0.0875,-0.1 0.0473,0.009 0.22821,0.0113 0.40208,0.006 l 0.31615,-0.009 0.002,-0.17188 0.002,-0.17239 -1.00521,-0.0125 z m -3.39739,0.52395 c -0.50861,-0.007 -0.55009,0.0473 -0.27447,0.36042 v 5.3e-4 c 0.22648,0.25708 0.17956,0.25642 0.48177,0.002 0.35135,-0.29634 0.31742,-0.3555 -0.2073,-0.3625 z m 13.86401,0.0271 c -0.0976,-0.002 -0.2182,0.003 -0.33802,0.0167 l -0.43541,0.0484 0.2026,0.15833 c 0.259,0.2022 0.39507,0.20564 0.66041,0.0172 l 0.21354,-0.15156 -0.1026,-0.0604 c -0.0283,-0.0166 -0.10293,-0.0265 -0.20052,-0.0286 z m -16.82754,0.21927 0.10365,0.61926 0.10365,0.61875 -0.12136,0.24271 -0.12135,0.24219 0.0177,-0.86146 z m 19.54524,0.0406 0.0391,0.43125 c 0.0215,0.2373 0.0161,0.62536 -0.012,0.86198 l -0.051,0.4302 0.012,-0.86197 z m -16.01921,0.64271 -0.27916,0.0187 -0.27865,0.0193 -0.0531,0.25886 -0.0531,0.25885 0.0932,-0.0563 0.0937,-0.0557 0.13073,0.45938 0.13073,0.45885 0.12708,-0.0214 0.1276,-0.0214 0.006,0.38385 0.006,0.38385 0.29635,0.26198 c 0.16292,0.14395 0.34701,0.40039 0.40885,0.56979 0.0618,0.16919 0.16547,0.30848 0.23021,0.30937 l 0.11771,0.002 0.004,-0.27343 0.004,-0.27396 -0.24375,-0.0672 -0.24427,-0.0677 0.0641,-0.23177 0.0641,-0.23177 -0.21459,-0.25416 c -0.11795,-0.1399 -0.21345,-0.34737 -0.21145,-0.46094 0.002,-0.11357 -0.0613,-0.24892 -0.13958,-0.30051 l -0.14219,-0.0937 -0.0125,-0.34479 c -0.007,-0.18969 -0.0169,-0.4091 -0.0219,-0.4875 z m 4.78436,0.55833 -0.29948,0.0286 -0.29948,0.0286 -0.26302,0.2974 -0.2625,0.29687 -0.004,0.28437 -0.004,0.28438 0.25677,0.10781 c 0.37157,0.15536 0.38409,0.15213 0.59583,-0.16146 l 0.19271,-0.28594 0.0438,-0.4401 z m 10.93537,1.03645 0.17239,0.002 0.1724,0.002 -0.003,0.21771 -0.003,0.21822 -0.17292,0.0635 -0.17343,0.0641 0.004,-0.28386 z m -13.34734,2.20885 -0.19219,0.10417 -0.19166,0.10364 0.38176,0.24323 h 5.4e-4 c 0.46768,0.29762 0.55325,0.31222 0.55625,0.0948 l 0.002,-0.16979 -0.27864,-0.18802 z m 13.48796,0.49218 -0.0812,0.45677 -0.0818,0.45625 0.0698,0.17552 0.0698,0.17552 0.0687,-0.51614 c 0.0378,-0.28387 0.0434,-0.56817 0.012,-0.63177 z m -12.25255,0.26407 -0.0594,0.0932 -0.0599,0.0937 -0.19271,-0.0771 -0.1927,-0.0771 0.16614,0.19114 0.16614,0.19115 0.23073,-0.0625 c 0.12687,-0.0344 0.30209,-0.0998 0.38958,-0.14531 l 0.15938,-0.0828 -0.30364,-0.0625 z m -5.438,3.23227 c -0.0666,-0.01 -0.11725,0.041 -0.11875,0.1573 -0.001,0.091 -0.0542,0.19667 -0.11719,0.23437 l -0.11458,0.0687 0.0807,-0.20625 0.0802,-0.20573 -0.17031,0.13438 -0.17084,0.13489 -0.0323,0.35625 -0.0323,0.35625 0.24323,-0.12604 c 0.13358,-0.0691 0.34022,-0.20653 0.45937,-0.30573 l 0.21667,-0.18021 -0.10938,-0.21146 c -0.0653,-0.12617 -0.14792,-0.19698 -0.21458,-0.20677 z m 3.92446,4.97707 -0.0812,0.36979 -0.0807,0.36927 -0.14948,0.0479 -0.14948,0.0474 0.0422,-0.38438 0.0422,-0.38385 0.18802,-0.0328 z m 10.58694,0.94791 -0.11667,0.0703 c -0.0643,0.0385 -0.11739,0.11863 -0.11822,0.17812 l -10e-4,0.10782 0.34427,0.005 0.34479,0.005 0.001,-0.10729 c 8e-4,-0.0589 -0.10079,-0.14111 -0.22603,-0.18281 z"
         style="fill:#332f28;stroke-width:0.11489806" />
      <path
         style="color:#000000;font-style:normal;font-variant:normal;font-weight:normal;font-stretch:normal;font-size:medium;line-height:normal;font-family:sans-serif;font-variant-ligatures:normal;font-variant-position:normal;font-variant-caps:normal;font-variant-numeric:normal;font-variant-alternates:normal;font-feature-settings:normal;text-indent:0;text-align:start;text-decoration:none;text-decoration-line:none;text-decoration-style:solid;text-decoration-color:#000000;letter-spacing:normal;word-spacing:normal;text-transform:none;writing-mode:lr-tb;direction:ltr;text-orientation:mixed;dominant-baseline:auto;baseline-shift:baseline;text-anchor:start;white-space:normal;shape-padding:0;clip-rule:nonzero;display:inline;overflow:visible;visibility:visible;opacity:1;isolation:auto;mix-blend-mode:normal;color-interpolation:sRGB;color-interpolation-filters:linearRGB;solid-color:#000000;solid-opacity:1;vector-effect:none;fill:#2f322f;fill-opacity:1;fill-rule:nonzero;stroke:none;stroke-width:0.9260416;stroke-linecap:round;stroke-linejoin:round;stroke-miterlimit:4;stroke-dasharray:none;stroke-dashoffset:0;stroke-opacity:1;paint-order:stroke fill markers;color-rendering:auto;image-rendering:auto;shape-rendering:auto;text-rendering:auto;enable-background:accumulate"
         d="m 171.6875,98.660156 a 0.4630671,0.4630671 0 0 0 -0.46289,0.462891 v 33.675783 a 0.4630671,0.4630671 0 0 0 0.46289,0.46289 h 21.31445 a 0.4630671,0.4630671 0 0 0 0.46289,-0.46289 V 99.123047 a 0.4630671,0.4630671 0 0 0 -0.46289,-0.462891 z m 0.46289,0.925782 h 20.38867 v 32.750002 h -20.38867 z"
         id="path1747"
         inkscape:connector-curvature="0"
         inkscape:label="border" />
    </g>
  </g>
</svg>
