<?xml version="1.0" encoding="UTF-8" standalone="no"?>
<!-- Created with Inkscape (http://www.inkscape.org/) -->

<svg
   xmlns:dc="http://purl.org/dc/elements/1.1/"
   xmlns:cc="http://creativecommons.org/ns#"
   xmlns:rdf="http://www.w3.org/1999/02/22-rdf-syntax-ns#"
   xmlns:svg="http://www.w3.org/2000/svg"
   xmlns="http://www.w3.org/2000/svg"
   xmlns:sodipodi="http://sodipodi.sourceforge.net/DTD/sodipodi-0.dtd"
   xmlns:inkscape="http://www.inkscape.org/namespaces/inkscape"
   width="10.000055mm"
   height="9.999507mm"
   viewBox="0 0 10.000055 9.999507"
   version="1.1"
   id="svg984"
   inkscape:version="0.92.3 (2405546, 2018-03-11)"
   sodipodi:docname="Corners.svg">
  <defs
     id="defs978" />
  <sodipodi:namedview
     id="base"
     pagecolor="#ffffff"
     bordercolor="#666666"
     borderopacity="1.0"
     inkscape:pageopacity="0.0"
     inkscape:pageshadow="2"
     inkscape:zoom="0.35"
     inkscape:cx="-413.95931"
     inkscape:cy="-421.10329"
     inkscape:document-units="mm"
     inkscape:current-layer="layer1"
     showgrid="false"
     fit-margin-top="0"
     fit-margin-left="0"
     fit-margin-right="0"
     fit-margin-bottom="0"
     inkscape:window-width="1920"
     inkscape:window-height="1017"
     inkscape:window-x="-8"
     inkscape:window-y="-8"
     inkscape:window-maximized="1" />
  <metadata
     id="metadata981">
    <rdf:RDF>
      <cc:Work
         rdf:about="">
        <dc:format>image/svg+xml</dc:format>
        <dc:type
           rdf:resource="http://purl.org/dc/dcmitype/StillImage" />
        <dc:title></dc:title>
      </cc:Work>
    </rdf:RDF>
  </metadata>
  <g
     inkscape:label="Layer 1"
     inkscape:groupmode="layer"
     id="layer1"
     transform="translate(-92.517807,-27.416913)">
    <path
       inkscape:label="Corners"
       inkscape:connector-curvature="0"
       d="m 102.50422,32.539177 c 0,-3.51786 -0.009,-4.87934 -0.0325,-4.921 -0.0178,-0.0317 -0.067,-0.0866 -0.10935,-0.12197 l -0.0769,-0.0643 -4.877001,-6.7e-4 -4.87702,-6.8e-4 v 0.20776 0.20776 h 1.94815 c 1.51443,0 1.95844,0.008 1.99436,0.0346 0.0254,0.019 0.10771,0.15529 0.18287,0.30275 0.14166,0.27797 0.27186,0.43236 0.43224,0.51262 0.10813,0.0541 0.4206,0.0571 0.52411,0.005 0.12998,-0.0653 0.2609,-0.1748 0.28695,-0.23988 0.0403,-0.10073 -0.0188,-0.26986 -0.11781,-0.3368 -0.13275,-0.0898 -0.14907,-0.0759 -0.12869,0.1094 0.0166,0.15063 0.0131,0.16626 -0.0369,0.1666 -0.0303,2.1e-4 -0.0815,0.007 -0.11365,0.0153 -0.0828,0.0211 -0.1894,-0.0814 -0.1894,-0.18201 0,-0.0922 0.13625,-0.25645 0.26532,-0.31986 0.0522,-0.0257 0.16894,-0.04 0.32372,-0.0399 0.19779,2.1e-4 0.26867,0.0127 0.38782,0.0684 0.0802,0.0375 0.15954,0.0685 0.17632,0.069 0.0168,6.3e-4 0.0561,0.0193 0.0875,0.0418 0.11723,0.0843 0.45919,0.29147 0.48105,0.29147 0.0457,0 0.16188,0.15906 0.20325,0.27815 0.0234,0.0672 0.0962,0.17554 0.16184,0.24063 0.10717,0.10625 0.13328,0.11834 0.25559,0.11834 0.1521,0 0.17269,-0.0275 0.0625,-0.0835 -0.0878,-0.0446 -0.11365,-0.12541 -0.0937,-0.29323 0.0239,-0.20133 0.17508,-0.30853 0.28622,-0.20294 0.0465,0.0442 0.056,0.0927 0.0555,0.28189 -5.3e-4,0.20774 -0.0147,0.30089 -0.0736,0.48477 -0.0143,0.0446 -0.008,0.0623 0.0221,0.0623 0.117821,0 0.302371,-0.35099 0.333551,-0.63438 0.0204,-0.1854 -0.0347,-0.35971 -0.17071,-0.54015 -0.142721,-0.18933 -0.167021,-0.18284 0.684,-0.18273 0.7146,10e-5 0.77182,0.004 0.86132,0.0556 0.10375,0.0601 0.25272,0.21035 0.33424,0.33715 0.0725,0.11273 0.07,0.48805 -0.005,0.69411 -0.0686,0.18932 -0.3042,0.53464 -0.40742,0.59707 -0.22913,0.13859 -0.54862,0.37809 -0.81769,0.61297 -0.31823,0.27777 -0.48223,0.48636 -0.6614,0.84118 -0.0555,0.10989 -0.113181,0.22084 -0.128221,0.24657 -0.048,0.0821 -0.14572,0.47229 -0.14572,0.58172 0,0.0896 0.01,0.10558 0.0628,0.10558 0.0346,0 0.13624,-0.0339 0.225991,-0.0754 0.13331,-0.0616 0.21301,-0.0773 0.43518,-0.0859 0.2563,-0.01 0.28257,-0.005 0.45542,0.0753 0.19089,0.0893 0.45207,0.31531 0.58336,0.5049 0.0409,0.059 0.10714,0.15475 0.14724,0.21271 0.0401,0.058 0.0729,0.11418 0.0729,0.12496 0,0.0108 0.0246,0.0724 0.0548,0.13702 0.17082,0.366049 0.17555,0.386033 0.18235,0.770563 0.007,0.422615 -0.0211,0.54465 -0.16043,0.68612 -0.0878,0.08914 -0.0979,0.09216 -0.26223,0.07853 -0.13171,-0.0109 -0.19509,-0.03278 -0.27632,-0.09523 -0.12495,-0.09606 -0.14378,-0.149197 -0.14763,-0.41646 -0.003,-0.226266 0.0528,-0.335204 0.2027,-0.394207 0.15629,-0.06149 0.2614,0.05404 0.26051,0.286325 -5.3e-4,0.164346 -0.0296,0.196397 -0.15674,0.173725 -0.11238,-0.02004 -0.12882,6.88e-4 -0.0752,0.09609 0.0853,0.15135 0.33482,0.161175 0.44763,0.01767 0.0918,-0.116854 0.0816,-0.401176 -0.0219,-0.606544 -0.10369,-0.205755 -0.21974,-0.299064 -0.37194,-0.299064 -0.22833,0 -0.37338,0.138863 -0.49565,0.474501 -0.0522,0.143359 -0.0598,0.21021 -0.0457,0.401013 0.0186,0.250963 0.0745,0.384917 0.23149,0.554729 0.19544,0.211464 0.61533,0.305479 0.78802,0.176439 0.0408,-0.03047 0.0819,-0.05541 0.0914,-0.05541 0.01,0 0.0173,0.610815 0.0173,1.357368 v 1.357363 h 0.23328 0.23328 z m -0.61513,-0.58684 c -0.0512,-0.0724 -0.13664,-0.17527 -0.1899,-0.22868 l -0.0968,-0.0971 0.048,-0.13836 c 0.0614,-0.17685 0.25909,-0.55388 0.29045,-0.55388 0.0132,0 0.0326,0.0623 0.0432,0.13851 0.0219,0.15714 0.0314,1.0111 0.0113,1.0111 -0.007,0 -0.0551,-0.0592 -0.10624,-0.13159 z m -1.31754,-0.75291 c -0.0372,-0.033 0.26541,-0.44762 0.44201,-0.60572 0.0901,-0.0807 0.27944,-0.22277 0.42066,-0.31574 0.14124,-0.093 0.32167,-0.22444 0.40096,-0.29216 l 0.14416,-0.12312 v 0.16417 0.16417 l -0.15889,0.10395 c -0.24547,0.16061 -0.50099,0.48324 -0.7157,0.90365 l -0.0643,0.1258 -0.22313,-0.0524 c -0.12272,-0.0289 -0.23334,-0.0615 -0.24582,-0.0726 z m 0.12474,-1.27192 c 0,-0.0129 -0.0255,-0.0453 -0.0566,-0.0721 -0.10708,-0.0921 -0.19419,-0.4556 -0.11964,-0.49937 0.0153,-0.009 0.02,-0.0378 0.0103,-0.0639 -0.0415,-0.11225 0.0452,0.0171 0.0926,0.13803 0.0542,0.13838 0.10907,0.19878 0.206,0.22674 0.0568,0.0164 0.0599,0.006 0.0613,-0.21141 0.002,-0.24831 0.0654,-0.51993 0.15653,-0.66661 0.0746,-0.12006 0.2918,-0.26754 0.42413,-0.28793 0.0788,-0.0121 0.12427,-0.001 0.18831,0.0433 0.16699,0.11728 0.19657,0.0364 0.061,-0.16674 -0.14051,-0.21049 -0.43154,-0.30707 -0.74125,-0.24598 -0.28665,0.0565 -0.5438,0.33811 -0.72353,0.79229 -0.0487,0.12312 -0.0657,0.22724 -0.0673,0.41382 -0.002,0.22289 0.006,0.25981 0.0707,0.34834 0.0911,0.12375 0.29888,0.27494 0.37785,0.27494 0.0327,0 0.0595,-0.0105 0.0595,-0.0234 z"
       style="display:inline;opacity:1;fill:#351313;fill-opacity:0.93969852;stroke:#400000;stroke-width:0.02728447;stroke-miterlimit:4;stroke-dasharray:none;stroke-opacity:1"
       id="path3357-4"
       sodipodi:nodetypes="ccccccccscccccccccscccccsccscccccsccccccccccsscccccsccccccccccccsccccssccccccccscsccccccccccccccccccccccccccsccscc" />
  </g>
</svg>
