<?xml version="1.0" encoding="UTF-8" standalone="no"?>
<!-- Created with Inkscape (http://www.inkscape.org/) -->

<svg
   xmlns:dc="http://purl.org/dc/elements/1.1/"
   xmlns:cc="http://creativecommons.org/ns#"
   xmlns:rdf="http://www.w3.org/1999/02/22-rdf-syntax-ns#"
   xmlns:svg="http://www.w3.org/2000/svg"
   xmlns="http://www.w3.org/2000/svg"
   xmlns:sodipodi="http://sodipodi.sourceforge.net/DTD/sodipodi-0.dtd"
   xmlns:inkscape="http://www.inkscape.org/namespaces/inkscape"
   width="325"
   height="325"
   viewBox="0 0 85.989578 85.989588"
   version="1.1"
   id="svg8"
   inkscape:version="0.92.3 (2405546, 2018-03-11)"
   sodipodi:docname="crimea.svg">
  <defs
     id="defs2" />
  <sodipodi:namedview
     id="base"
     pagecolor="#ffffff"
     bordercolor="#666666"
     borderopacity="1.0"
     inkscape:pageopacity="0.0"
     inkscape:pageshadow="2"
     inkscape:zoom="2.6092308"
     inkscape:cx="162.5"
     inkscape:cy="162.50001"
     inkscape:document-units="mm"
     inkscape:current-layer="layer1"
     showgrid="false"
     inkscape:window-width="1920"
     inkscape:window-height="1017"
     inkscape:window-x="1912"
     inkscape:window-y="-8"
     inkscape:window-maximized="1"
     fit-margin-top="0"
     fit-margin-left="0"
     fit-margin-right="0"
     fit-margin-bottom="0"
     units="px" />
  <metadata
     id="metadata5">
    <rdf:RDF>
      <cc:Work
         rdf:about="">
        <dc:format>image/svg+xml</dc:format>
        <dc:type
           rdf:resource="http://purl.org/dc/dcmitype/StillImage" />
        <dc:title></dc:title>
      </cc:Work>
    </rdf:RDF>
  </metadata>
  <g
     inkscape:label="Layer 1"
     inkscape:groupmode="layer"
     id="layer1"
     transform="translate(9.579144e-8,6.0962704)">
    <g
       id="g1391"
       transform="matrix(1.0763051,0,0,1.0763051,-5.9646466,-12.083165)">
      <path
         inkscape:connector-curvature="0"
         id="path830"
         transform="scale(0.26458333)"
         d="M 171.92383,21.023438 A 150.97963,150.97963 0 0 0 88.488281,46.289062 c 4.236403,-2.65471 8.732379,-4.409679 6.708985,-2.386718 -1.624305,1.623949 -11.305538,7.5 -12.357422,7.5 -0.423043,0 -0.769532,0.360489 -0.769532,0.800781 0,0.440296 -1.924312,2.212021 -4.27539,3.9375 -2.351078,1.725483 -4.79216,3.136719 -5.423828,3.136719 -0.21829,0 -0.291554,-0.111765 -0.263672,-0.298828 A 150.97963,150.97963 0 0 0 20.945312,172.00391 150.97963,150.97963 0 0 0 171.92383,322.98242 150.97963,150.97963 0 0 0 322.9043,172.00391 150.97963,150.97963 0 0 0 171.92383,21.023438 Z m -10.98047,23.466796 c 1.97934,-0.04575 4.1287,0.399357 6.96289,1.326172 3.54946,1.160712 4.79189,1.225079 6.89648,0.353516 2.01417,-0.834119 3.2611,-0.834769 5.79102,0 1.80795,0.596568 4.88977,0.836248 7.01563,0.544922 2.08514,-0.285751 4.00733,-0.169516 4.27148,0.257812 0.26415,0.427329 2.14293,1.057021 4.17578,1.400391 2.03286,0.343378 4.6402,1.243561 5.79492,2 3.16513,2.073445 8.73649,2.109113 10.01367,0.06445 1.40754,-2.253343 3.47656,-2.086827 6.58399,0.527344 1.43024,1.203205 2.97401,2.1875 3.43164,2.1875 0.45763,0 1.54472,0.78743 2.41602,1.75 1.03915,1.148001 2.69709,1.75 4.8164,1.75 1.77698,0 4.55703,0.66236 6.17774,1.470703 3.04238,1.517416 13.38452,11.371959 14.17773,13.509765 0.35278,0.950775 0.70717,0.872349 1.66602,-0.371093 1.41649,-1.836941 3.86165,-1.250749 4.46875,1.070312 0.22396,0.856282 1.54367,1.785814 2.93164,2.066407 1.38796,0.280592 3.32695,1.263893 4.31054,2.185546 0.9836,0.921657 2.95362,2.232048 4.37696,2.91211 1.52686,0.729532 2.70445,2.049651 2.87109,3.21875 0.15533,1.089827 1.44058,2.837473 2.85742,3.884765 3.50082,2.587707 4.95725,5.013408 6.44922,10.740235 0.83825,3.217559 2.09205,5.559509 3.71484,6.937499 1.34719,1.14396 3.21659,3.59462 4.1543,5.44727 0.93771,1.85266 2.38298,4.15657 3.21094,5.11914 2.03215,2.36253 5.15039,11.89913 5.15039,15.75195 0,3.68052 2.00836,8.85587 4.44336,11.44727 4.66202,4.96141 5.78271,45.24923 1.75,62.93164 -2.0842,9.13866 -7.28353,20.26517 -12.3125,26.34961 -1.93427,2.34023 -3.3732,4.655 -3.19727,5.14258 0.52415,1.4523 -2.60499,6.73996 -6.48047,10.94922 -1.99404,2.16577 -4.74673,6.14307 -6.11523,8.83789 -2.94609,5.80137 -12.12888,14.6558 -21.49414,20.72461 -3.50356,2.27034 -7.67575,5.00796 -9.27149,6.08398 -4.55525,3.07164 -11.88308,6.32914 -16.42382,7.30273 -2.28474,0.48989 -6.47715,2.43476 -9.31836,4.32227 -2.84121,1.88751 -6.54562,3.67168 -8.23047,3.96289 -1.68485,0.29122 -4.98625,1.32032 -7.33789,2.28711 -2.69864,1.10942 -5.28126,1.57868 -7.00196,1.27148 -1.49945,-0.26773 -5.72089,-0.19062 -9.3789,0.17188 -4.78195,0.4739 -7.43545,0.33751 -9.44531,-0.48242 -1.53747,-0.62723 -5.04363,-1.26452 -7.79102,-1.41797 -2.74738,-0.15344 -6.10383,-0.73621 -7.45898,-1.29492 -3.42924,-1.41381 -5.33501,-1.27524 -8.73633,0.63476 -2.09501,1.17643 -3.36994,1.40981 -4.4375,0.8125 -0.82376,-0.4609 -5.12563,-1.05093 -9.5586,-1.31054 -7.27455,-0.42607 -8.48789,-0.75664 -12.46289,-3.39454 -2.42229,-1.60747 -5.34721,-3.92748 -6.5,-5.15429 -1.23173,-1.31084 -3.05989,-2.23047 -4.43359,-2.23047 -1.28563,0 -3.05999,-0.79579 -3.94141,-1.76953 -0.88142,-0.97375 -3.60042,-2.35665 -6.04297,-3.07227 -2.82507,-0.82768 -5.553652,-2.44661 -7.499995,-4.44922 -1.682789,-1.73145 -4.833653,-4.07668 -7.001953,-5.21093 -6.059788,-3.16996 -8.045028,-5.07879 -9.570313,-9.20704 -1.130328,-3.05927 -1.970569,-3.95961 -4.318359,-4.63281 -1.8286,-0.52432 -3.684933,-2.00245 -4.982422,-3.96679 -1.137362,-1.72191 -3.655364,-5.4308 -5.597656,-8.24219 -1.942292,-2.81139 -4.335165,-6.74856 -5.316406,-8.75 -3.236981,-6.60247 -4.559746,-8.86742 -6.300782,-10.78516 -1.289076,-1.41992 -1.754215,-3.28768 -1.855468,-7.43945 -0.113617,-4.65864 -0.370826,-5.50281 -1.605469,-5.29883 -4.368174,0.72176 -9.329214,-13.45996 -11.648438,-33.29492 -1.054815,-9.02124 -1.040903,-10.77926 0.111329,-14.16016 0.911331,-2.67403 1.053668,-4.35144 0.46289,-5.45508 -1.344291,-2.5113 1.05256,-15.99396 4.949219,-27.83789 3.951076,-12.00933 11.772532,-28.8288 17.330078,-37.263672 4.007898,-6.082915 11.828869,-13.927734 13.884766,-13.927734 1.528161,0 2.636718,-1.654998 2.636718,-3.9375 0,-1.148716 0.676171,-1.845763 1.96875,-2.029297 1.220002,-0.173231 1.970703,-0.886491 1.970703,-1.875 0,-1.678639 1.638215,-2.658203 4.447266,-2.658203 1.048403,0 1.679688,-0.607057 1.679688,-1.615235 0,-0.887973 0.70316,-2.249819 1.5625,-3.027343 2.089927,-1.890955 14.975794,-8.484375 16.582034,-8.484375 0.7,0 2.23996,-0.762322 3.42382,-1.69336 1.18388,-0.931037 4.35092,-1.967188 7.03711,-2.302734 3.01345,-0.376426 5.53204,-1.256864 6.57618,-2.300781 1.23125,-1.230981 2.3682,-1.543411 4.17578,-1.146485 2.09665,0.460407 3.03364,-0.0084 5.99609,-3 3.80781,-3.845227 2.99017,-3.722774 14.93555,-2.246093 1.8191,0.224878 4.33007,-0.294775 6.50976,-1.347657 2.15755,-1.042185 3.96792,-1.579253 5.94727,-1.625 z m 10.30273,14.91211 c -0.93496,0.0032 -2.20566,0.929101 -3.76757,2.789062 -2.1882,2.605754 -3.29203,3.210972 -5.84766,3.210938 -3.36917,-3.8e-5 -7.1287,2.339432 -13.54688,8.429687 -1.96191,1.861675 -5.75631,5.046822 -8.43359,7.078125 -4.09571,3.10749 -4.93435,4.21735 -5.2832,7 -0.22803,1.818962 -0.0261,3.798788 0.44726,4.400391 1.15384,1.466487 4.86588,1.380088 9.39844,-0.21875 6.68603,-2.358463 14.46415,-0.981028 16.55859,2.931641 2.74658,5.130922 -0.22562,14.250472 -7,21.478512 l -4.88281,5.20899 -6.93359,-2.1211 c -6.29849,-1.92686 -7.46856,-2.66171 -12.77539,-8.02734 l -5.8418,-5.90625 -13.41211,0.0684 c -13.008399,0.0667 -13.533856,0.14081 -17.353514,2.45898 -5.599499,3.39839 -5.629713,5.50038 -0.123047,8.26563 4.556632,2.28818 5.375,2.21974 5.375,-0.45117 0,-3.04827 5.009041,-5.08425 12.515621,-5.08789 7.68586,-0.004 10.54599,1.08232 13.53516,5.14257 2.81915,3.82933 10.7442,9.45554 18.11719,12.86133 8.24755,3.80979 10.49816,6.52877 5.35742,6.47461 -4.33319,-0.0457 -19.21548,-9.03004 -25.09961,-15.15234 -2.82993,-2.94449 -3.55348,-3.3068 -4.69531,-2.35938 -0.74241,0.61602 -1.34961,1.48083 -1.34961,1.92383 0,0.44301 -1.53181,2.85719 -3.4043,5.36328 -1.87249,2.50609 -4.47746,6.69499 -5.78711,9.31055 -1.30965,2.61555 -3.71593,6.69675 -5.34765,9.06836 -1.63172,2.3716 -2.966801,4.82652 -2.966801,5.45508 0,0.62856 -0.232942,1.74859 -0.517578,2.49023 -0.604464,1.57486 4.265629,4.91268 7.175779,4.91797 1.64765,0.003 1.90411,-0.6562 2.41992,-6.20508 0.64777,-6.96815 0.91973,-7.61223 6.50391,-15.37305 4.01594,-5.58127 5.05235,-6.20795 7.84375,-4.7539 0.83589,0.43542 4.61536,2.30558 8.40039,4.15625 4.75858,2.32669 7.85169,4.54024 10.02539,7.17383 1.72898,2.09477 4.04925,4.15221 5.1543,4.57226 1.20275,0.45719 2.00781,1.49133 2.00781,2.57617 0,0.99673 1.34151,4.64819 2.98047,8.11524 3.74439,7.92095 14.35848,18.43592 24.88476,24.65039 l 7.14454,4.2168 v 5.99609 c 0,4.85444 0.60642,7.50768 3.1875,13.95508 3.66781,9.162 5.46863,11.56042 12.88476,17.15429 13.97429,10.54062 14.5625,11.72643 14.5625,29.42188 0,7.65214 0.42177,14.67837 0.97656,16.26953 1.14123,3.27302 0.69014,4.0701 -1.60546,2.8418 -1.91992,-1.0273 -3.08748,-0.45136 -4.49219,2.21679 -1.32229,2.51164 -1.28061,5.27019 0.0879,5.82227 0.60173,0.24274 2.92706,0.47377 5.16797,0.51172 4.04352,0.0686 4.08374,0.0405 5.25195,-3.65039 1.04135,-3.29007 1.44896,-3.68785 3.5293,-3.44531 1.5541,0.18117 3.03691,-0.4122 4.375,-1.75 l 2.02539,-2.02344 -2.39649,-0.27735 c -4.68682,-0.5395 -6.94702,-7.35704 -2.94336,-8.8789 2.0153,-0.76605 4.90235,-4.01505 4.90235,-5.51758 0,-0.39602 -1.34487,-0.46841 -2.98828,-0.16016 -2.48056,0.46526 -3.1568,0.24499 -3.98633,-1.30468 -0.99921,-1.86664 -0.89395,-3.58072 1.01367,-16.41797 l 0.9375,-6.30469 -5.36523,-5.85547 c -5.91315,-6.45178 -6.32735,-8.02841 -4.42969,-16.875 1.18987,-5.54698 2.44037,-6.66817 5.21094,-4.66992 1.14876,0.82854 5.41118,2.69393 9.47265,4.14648 l 7.38477,2.64258 0.31055,8.88477 c 0.43217,12.32964 2.30386,20.47573 6.07421,26.43359 8.20004,12.95754 10.48424,14.96485 17.01368,14.96485 4.62034,0 6.35619,-0.97217 8.63867,-4.83985 3.19659,-5.41665 1.86127,-7.96913 -1.61524,-3.08789 -1.00805,1.41539 -2.63925,2.82979 -3.625,3.14258 -2.58095,0.81899 -6.34373,-1.01406 -8.0664,-3.92969 -1.83202,-3.10064 -2.90125,-10.0925 -1.66016,-10.85937 0.53151,-0.32842 0.71159,-2.59734 0.44336,-5.58399 -0.53528,-5.95917 0.96939,-12.46875 2.88086,-12.46875 2.09858,0 5.61523,-4.08569 5.61523,-6.52344 0,-1.22508 -0.39361,-2.22656 -0.875,-2.22656 -0.48138,0 -0.875,0.56246 -0.875,1.25 0,0.68756 -0.63317,1.88141 -1.40625,2.6543 -1.74811,1.74774 -3.24503,0.70234 -5.59765,-3.9082 -2.23938,-4.3886 -7.70014,-10.79082 -9.92578,-11.63672 -1.19542,-0.45435 -3.00091,-0.17795 -5.13282,0.7832 -3.09879,1.39708 -3.51704,1.39354 -7.27929,-0.043 -2.19549,-0.83828 -4.58782,-2.43319 -5.31641,-3.54492 -0.72858,-1.11173 -2.05244,-6.13227 -2.94141,-11.15625 -1.93739,-10.94918 -4.05277,-15.4338 -8.83984,-18.73828 -1.97266,-1.36172 -5.98701,-4.43772 -8.91992,-6.83399 -5.54884,-4.53353 -5.07213,-3.74069 -14.21289,-23.64453 -5.28391,-11.50562 -5.70023,-13.63528 -5.70703,-29.23242 -0.01,-21.471861 -1.48447,-27.827801 -8.80664,-37.933592 -1.90636,-2.631081 -2.56446,-4.522361 -2.56446,-7.373047 0,-3.013898 -0.64751,-4.533392 -1.84961,-4.529297 z m 7.86719,12.36914 c -0.25905,-0.01515 -0.43417,0.0084 -0.5039,0.07813 -0.27896,0.278899 0.878,2.041072 2.57226,3.916016 1.69427,1.874944 3.50397,4.740105 4.02148,6.367187 1.41401,4.445685 2.77042,18.758233 2.78516,29.394523 0.007,5.2178 0.59073,11.89244 1.30469,14.91993 2.43447,10.32325 13.15475,28.92271 19.53515,33.89257 5.08476,3.96065 9.17851,4.06112 9.61915,0.23438 0.28713,-2.49368 -0.96467,-3.44116 -5.96485,-4.51172 -3.43253,-0.73491 -8.32245,-5.31295 -11.28906,-10.56836 -1.4931,-2.64506 -2.71484,-4.94563 -2.71484,-5.11133 0,-0.16569 2.22683,0.77629 4.94921,2.0918 6.0116,2.90488 13.43543,4.00641 17.01172,2.52539 2.56539,-1.06239 3.32142,-2.88314 1.63086,-3.92773 -0.50291,-0.31076 -4.34259,-0.55261 -8.5332,-0.53711 -10.02393,0.0373 -12.03381,-1.26707 -16.92969,-10.97852 -4.17096,-8.27357 -4.10176,-10.3442 0.29883,-8.87305 1.58631,0.53031 4.10438,1.86918 5.5957,2.97461 5.19857,3.85338 10.7742,6.5 13.69727,6.5 4.68798,0 11.71363,-5.9255 9.56836,-8.07031 -1.1783,-1.17805 -6.67115,-0.13505 -8.05274,1.5293 -1.36478,1.64407 -6.7549,1.66244 -10.65039,0.0352 -3.81247,-1.59261 -14.48975,-14.19412 -13.15625,-15.52734 0.62578,-0.62565 2.49335,-0.0757 6.02149,1.77539 8.90791,4.67357 12.80044,4.69701 16.07617,0.0977 2.58333,-3.62717 1.82114,-5.46408 -1.75195,-4.21875 -1.47613,0.51446 -3.08411,1.6818 -3.57227,2.59375 -1.62358,3.03303 -4.57607,1.89782 -11.80664,-4.54297 -6.65664,-5.929546 -9.02633,-9.550778 -6.25391,-9.550778 0.69662,0 1.77869,0.617437 2.4043,1.371094 3.20963,3.866536 12.75696,5.453364 15.61523,2.595703 1.20535,-1.205091 0.83927,-1.341797 -3.59374,-1.341797 -4.04638,0 -5.42362,-0.411135 -7.65821,-2.291016 -2.73585,-2.301577 -5.28711,-7.100941 -5.28711,-9.947265 0,-2.856477 -6.91466,-10.240375 -11.07812,-11.830078 -1.61189,-0.61547 -3.13299,-1.018998 -3.91016,-1.064454 z m 32.87891,19.007813 c -1.30218,0 -1.74792,2.723023 -0.62891,3.841797 0.79397,0.793799 2.97831,-2.081819 2.35156,-3.095703 -0.25368,-0.410374 -1.02898,-0.746094 -1.72265,-0.746094 z M 192.65625,224.98438 c -0.0893,0.008 -0.16689,0.033 -0.23047,0.0723 -0.45194,0.27925 -1.22144,1.78042 -1.70898,3.33789 -0.48755,1.55747 -2.72118,8.70108 -4.96485,15.87305 -4.39691,14.05483 -4.98202,14.95642 -17.68945,27.30859 -3.51962,3.42122 -4.45653,5.43829 -3.13672,6.75781 0.32092,0.32089 2.49732,0.58399 4.83594,0.58399 3.84775,0 4.33351,-0.22864 5.10742,-2.40625 1.61743,-4.55108 3.35411,-6.75206 5.83398,-7.39453 3.04523,-0.78893 4.90226,-3.82326 6.72071,-10.98047 1.69585,-6.67466 4.09408,-11.51091 7.83398,-15.79297 3.77979,-4.32775 5.52203,-9.35789 4.11133,-11.875 -1.32659,-2.36703 -5.37388,-5.60668 -6.71289,-5.48437 z m 66.54687,8.74804 c -0.43874,0.0428 -1.0931,0.90012 -1.4707,2.34375 -0.30234,1.15592 -0.10259,1.69151 0.55078,1.47656 0.56386,-0.1855 1.15555,-1.23537 1.31641,-2.33398 0.15505,-1.05914 -0.0552,-1.5196 -0.39649,-1.48633 z m 41.2129,0.8125 c 0.0597,-0.0302 0.10564,-0.0311 0.13671,0 0.18339,0.18334 -0.84268,2.46454 -2.27929,5.07031 -1.43661,2.60578 -2.61826,4.21631 -2.62696,3.58008 -0.0172,-1.25751 3.87351,-8.19725 4.76954,-8.65039 z m -5.89063,11.90625 c 0.035,-8e-4 0.0595,0.0144 0.0703,0.0469 0.82551,2.476 -12.57779,20.35609 -22.76953,30.375 -18.26196,17.95226 -42.94675,30.68409 -71.09375,36.66797 -7.69666,1.63626 -14.01745,2.34021 -23.25976,2.58789 -6.98011,0.18712 -13.28183,0.16465 -14.00391,-0.0508 -0.72208,-0.21542 -4.66212,-0.74419 -8.75391,-1.17382 -11.41613,-1.1987 -26.84953,-5.59387 -36.10546,-10.28321 -2.45759,-1.24508 -6.06323,-2.82761 -8.01368,-3.51562 -2.98215,-1.05195 -12.771481,-7.06697 -12.771481,-7.84766 0,-0.13493 2.205831,0.91389 4.902341,2.33203 2.69651,1.41815 5.44209,2.58008 6.10156,2.58008 0.65948,0 3.47611,1.02859 6.25782,2.28711 15.16203,6.85981 31.82246,11.71289 40.21094,11.71289 2.62388,0 7.5735,0.46355 11,1.0293 17.31793,2.85938 54.65287,-6.10864 75.99218,-18.25391 15.93957,-9.07201 33.25541,-24.47733 44.86524,-39.91601 3.67449,-4.88632 6.84586,-8.56608 7.37109,-8.57813 z"
         style="display:inline;fill:#404040;fill-opacity:1;stroke-width:0.87515426" />
      <path
         inkscape:connector-curvature="0"
         id="path828"
         transform="scale(0.26458333)"
         d="m 131.93164,26.4375 a 150.97963,150.97963 0 0 0 -14.68945,4.837891 c 2.00062,-0.57577 5.20433,-1.608923 8.15234,-2.642579 1.98819,-0.697113 4.33649,-1.481219 6.53711,-2.195312 z m 39.42578,4.246094 c -9.6767,0.03653 -19.05767,0.836728 -26.70703,2.470703 -7.4173,1.584404 -19.91717,5.22916 -24.31445,7.089844 -4.31136,1.824317 -6.01791,1.616868 -4.2461,-0.517579 0.77944,-0.938955 0.69889,-1.478326 -0.35351,-2.351562 -1.14062,-0.946419 -2.228,-0.719419 -6.61914,1.378906 -6.34147,3.030289 -7.42949,4.131434 -5.5918,5.65625 1.20677,1.00131 1.19342,1.284519 -0.11719,2.732422 -0.80385,0.888061 -3.472031,2.867154 -5.929684,4.398438 -5.545478,3.455217 -13.94905,9.097078 -21.953125,14.740234 -4.374297,3.084026 -6.650316,4.169252 -8.025391,3.824219 -1.507174,-0.378195 -3.070575,0.687313 -7.277344,4.958984 -2.946712,2.992177 -5.988065,6.669713 -6.759765,8.171875 -0.771701,1.502166 -3.196818,5.020526 -5.388672,7.81836 -3.096911,3.953106 -4.003642,5.847887 -4.070313,8.505859 -0.05464,2.177163 -0.787324,4.228253 -2.015625,5.640623 -2.059287,2.36788 -2.482789,3.95508 -1.054687,3.95508 2.157653,0 0.649925,2.71387 -1.777344,3.19922 -2.865252,0.57293 -6.099609,3.98149 -6.099609,6.42773 0,1.29727 -1.47555,5.54247 -4.408203,12.6875 -0.395082,0.96257 -0.960761,3.12801 -1.257813,4.8125 -0.29705,1.68449 -1.080918,4.24366 -1.742187,5.6875 l -1.203126,2.625 -0.07031,-2.87109 c -0.01406,-0.56822 0.0586,-1.27474 0.164062,-2.00391 a 150.97963,150.97963 0 0 0 -2.035156,11.88672 c 0.0952,-0.46864 0.209344,-0.94092 0.347656,-1.4082 l 1.140626,-3.85352 0.123046,5.90625 c 0.0679,3.24867 -0.2135,5.90821 -0.625,5.90821 -1.056146,0 -1.509098,-2.23928 -1.230468,-4.93946 a 150.97963,150.97963 0 0 0 -1.314454,18.78321 150.97963,150.97963 0 0 0 0.496094,11.6582 c -0.112983,-2.64288 -0.155202,-5.32284 -0.08594,-8.00195 0.167979,-6.49733 0.528442,-12.76278 0.802734,-13.92383 0.492247,-2.08363 0.520503,-2.08852 2.183594,-0.42578 1.448824,1.44851 1.557193,2.14644 0.773437,4.98437 -0.501317,1.81523 -0.659219,4.09337 -0.351562,5.0625 0.307656,0.96914 0.06556,2.35757 -0.539063,3.08594 -1.376823,1.65861 0.396768,25.27191 2.40625,32.03711 1.588176,5.34682 1.024821,6.39944 -0.878906,1.64258 -0.238266,-0.59536 -0.46601,-1.23342 -0.6875,-1.88867 A 150.97963,150.97963 0 0 0 49.470703,260 c -0.878011,-1.48001 -1.60114,-3.18409 -1.261719,-3.52344 0.483266,-0.48316 4.101563,3.97965 4.101563,5.0586 0,0.41636 -0.382538,0.75586 -0.851563,0.75586 -0.180712,0 -0.439958,-0.22146 -0.720703,-0.52149 a 150.97963,150.97963 0 0 0 13.914063,16.38477 c -0.05693,-0.12903 -0.08789,-0.23637 -0.08789,-0.32032 0,-0.42357 0.492015,-0.48407 1.09375,-0.13476 2.609352,1.51464 15.325303,11.76934 17.669922,14.25 2.240319,2.37031 2.174526,3.15269 0.521484,2.51562 a 150.97963,150.97963 0 0 0 7.359375,4.92578 c 0.115034,-0.23311 0.554924,-0.3457 1.31836,-0.3457 1.056098,0 2.522312,-0.60255 3.257812,-1.33789 1.617404,-1.61705 0.537152,-3.28734 -3.466797,-5.35742 -3.04266,-1.57308 -16.269039,-12.96611 -21.039063,-18.12305 -5.349774,-5.78371 -12.516711,-14.80787 -13.648438,-17.18554 -0.572704,-1.20321 1.420093,0.56852 4.427735,3.9375 7.757053,8.689 14.93885,15.4547 22.583984,21.27343 8.081137,6.15059 20.790572,13.85519 24.220702,14.6836 1.39009,0.33571 4.69417,1.68879 7.3418,3.00781 12.5429,6.24874 26.81448,10.39237 39.38476,11.43359 4.57318,0.37881 10.98347,0.96475 14.24414,1.30078 6.49162,0.66902 17.21093,-0.47173 30.39454,-3.23242 14.80866,-3.10096 18.13018,-4.25128 36.49023,-12.64062 10.63217,-4.85822 26.95827,-16.76266 36.74219,-26.79102 6.01748,-6.16782 20.41186,-25.04227 20.41601,-26.77148 0.002,-0.61117 1.05574,-2.77661 2.3418,-4.8125 3.17046,-5.01902 9.43951,-19.50468 12.13672,-28.04102 1.21473,-3.84448 3.11452,-12.34546 4.2207,-18.89062 1.78119,-10.53907 1.94785,-13.65101 1.45899,-27.21289 -0.82032,-22.75707 -0.75885,-24.11369 1.07031,-23.80664 0.84243,0.14141 1.53125,-0.15387 1.53125,-0.65625 0,-0.50239 -0.40202,-0.91407 -0.89258,-0.91407 -0.52902,0 -0.65379,-0.94917 -0.30664,-2.33203 0.50643,-2.01729 0.36048,-2.25487 -1.07812,-1.76758 -1.30718,0.44278 -1.2416,0.26365 0.30664,-0.83789 1.29766,-0.92325 1.98696,-2.33498 2.01757,-4.13867 0.002,-0.13193 0.0184,-0.19326 0.0254,-0.30078 a 150.97963,150.97963 0 0 0 -5.01757,-14.36133 c -0.0748,-0.12697 -0.13566,-0.26598 -0.18555,-0.41406 A 150.97963,150.97963 0 0 0 298.9375,90.384766 c -0.79086,0.653791 -7.68359,-6.315827 -7.68359,-7.783204 0,-1.891375 0.42703,-1.710513 3.37695,1.759766 a 150.97963,150.97963 0 0 0 -4.25195,-5.945312 c 0,1.697816 -3.81513,-1.836183 -6.26953,-5.806641 -0.98124,-1.587341 -3.32024,-3.669565 -5.19727,-4.626953 C 277.03507,67.025034 275.5,65.8629 275.5,65.398438 c 0,-1.564045 -10.03434,-8.766841 -13.54492,-9.722657 -3.06929,-0.835665 -3.3022,-1.075125 -1.98633,-2.037109 1.38103,-1.00961 1.34134,-1.230576 -0.51758,-2.976563 -2.25221,-2.115394 -5.01426,-2.410877 -7.57422,-0.8125 -1.36601,0.852934 -1.94412,0.839231 -2.83203,-0.06055 -0.90593,-0.918043 -0.79504,-1.366272 0.58789,-2.386718 2.57098,-1.897096 0.39662,-3.47005 -4.5332,-3.279297 -2.2312,0.08633 -5.21104,-0.439899 -6.62305,-1.169922 -1.41201,-0.730042 -3.37306,-1.116761 -4.35742,-0.859375 -0.98438,0.257359 -2.59308,0.03774 -3.57617,-0.488281 -0.98309,-0.52602 -3.57913,-1.469303 -5.76758,-2.095703 -2.18844,-0.626404 -6.33537,-1.958212 -9.21484,-2.958985 -11.12658,-3.867089 -28.07529,-5.928068 -44.20313,-5.867187 z M 158.25,39.570312 c 0.6354,0.02247 1.10915,0.343708 1.80859,0.976563 1.64319,1.486749 1.89245,1.486393 30.80469,-0.189453 11.23777,-0.651375 16.14709,0.469083 34.74805,7.933594 20.46677,8.213253 37.69488,20.377986 49.63867,35.050781 11.76848,14.457426 20.79749,30.843213 24.73633,44.890623 1.52508,5.43904 3.32464,11.2121 4,12.82813 7.09555,16.97841 4.68086,59.02053 -4.5586,79.34961 -9.33929,20.5487 -19.80352,36.87937 -30.05468,46.90625 -16.65606,16.29162 -36.68776,27.54432 -63.89258,35.88867 -9.86208,3.02493 -10.41017,3.09202 -27.13281,3.32812 -17.4523,0.24641 -30.01231,-0.50813 -35.17383,-2.11132 -1.59537,-0.49553 -5.26403,-1.36218 -8.15235,-1.92579 -2.88831,-0.5636 -8.11462,-2.35805 -11.61523,-3.98828 -3.50062,-1.63024 -6.60499,-2.96484 -6.89844,-2.96484 -2.07396,0 -17.290963,-8.9092 -25.248044,-14.7832 C 79.502479,272.08042 69.209653,261.00111 60.507812,247.6582 52.823572,235.87564 50.712521,231.85903 43.128906,214.60156 35.45541,197.13954 33.502825,164.43013 38.845703,142.8457 43.888065,122.47532 55.037883,99.809965 67.353516,84.892578 78.944658,70.852726 105.75803,51.954161 116.47656,50.269531 c 1.83425,-0.288287 6.82952,-2.316186 11.10156,-4.505859 9.50796,-4.873383 15.06868,-6.212699 20.75586,-5 3.19787,0.681895 4.80921,0.595834 7.14258,-0.378906 1.34211,-0.560646 2.13804,-0.836927 2.77344,-0.814454 z m -47.2168,2.228516 c 0.4691,0.04621 0.79492,0.290249 0.79492,0.759766 0,0.429793 -0.6233,1.02038 -1.38476,1.3125 -2.41478,0.926445 -3.27035,0.610277 -2.11524,-0.78125 0.74318,-0.895281 1.92326,-1.368033 2.70508,-1.291016 z m 59.65039,19.390625 c -0.50964,0.0033 -1.37641,0.85945 -2.80664,2.572266 -1.62039,1.940549 -3.03796,2.732609 -4.8789,2.726562 -3.72579,-0.01186 -6.88803,1.867319 -13.44532,7.986328 -3.17766,2.965278 -6.81215,6.191792 -8.07617,7.169922 -2.43186,1.881823 -3.86811,6.20234 -2.67578,8.048828 0.54608,0.845673 1.79445,0.896537 5.36914,0.21875 2.56183,-0.485729 6.53286,-0.882812 8.82422,-0.882812 3.63802,0 4.49536,0.375767 6.76563,2.960937 3.60311,4.102848 4.10976,7.806752 2.00195,14.623046 -1.42756,4.61649 -2.65127,6.51181 -6.92969,10.74219 -4.72984,4.67659 -5.45878,5.09455 -8.12695,4.64648 -7.76295,-1.30362 -14.2563,-3.25146 -14.94531,-4.48242 -1.02099,-1.82401 -3.50864,-1.76543 -3.14649,0.0742 0.15564,0.79066 1.07043,1.87338 2.0332,2.40625 0.96278,0.53287 3.16703,2.19319 4.89844,3.68945 1.73142,1.49628 5.61849,3.66172 8.63867,4.8125 6.13093,2.33607 8.83289,5.17369 7.01368,7.36524 -1.05795,1.27446 -3.69413,1.2196 -9.17383,-0.1875 -1.31636,-0.33802 -1.02403,0.23029 1.17773,2.29101 1.86818,1.7485 2.73681,3.23875 2.40039,4.11524 -0.32935,0.85809 0.29723,2.02162 1.66797,3.09961 1.32967,1.04569 2.19531,2.61587 2.19531,3.98437 0,7.88829 13.53214,23.45693 26.82813,30.86524 l 7.06836,3.93945 0.52734,7.4375 c 0.42497,5.99226 1.10481,8.6277 3.49805,13.5625 1.63385,3.36898 3.23611,6.97205 3.56055,8.00586 0.32444,1.03381 3.17911,3.98669 6.34375,6.5625 17.62585,14.34632 16.9414,13.09602 16.9414,30.95703 0,9.94355 0.3669,15.23975 1.22656,17.67578 1.48759,4.21538 0.70548,6.11912 -1.93359,4.70703 -2.64745,-1.41657 -3.27232,-1.21908 -4.46875,1.40625 -0.92546,2.03074 -0.86221,2.52978 0.43555,3.47852 0.8333,0.60917 2.73182,1.01042 4.2207,0.89258 2.35921,-0.18676 2.86241,-0.70174 3.91211,-4.00391 1.09394,-3.44139 1.41968,-3.74488 3.54297,-3.32031 3.39987,0.67983 5.24109,-0.67932 2.73633,-2.01953 -3.6502,-1.95311 -5.94406,-10.52539 -2.81641,-10.52539 2.6712,0 2.85865,-1.03205 0.57031,-3.15235 -1.91731,-1.77654 -2.16908,-2.71648 -2.12304,-7.96289 0.0528,-6.02385 0.95257,-12.62316 2.08203,-15.27539 0.43687,-1.0259 -0.66938,-2.87431 -3.76953,-6.29687 -7.12694,-7.86813 -7.13657,-7.89259 -6.14844,-15.79297 0.47577,-3.80395 1.25483,-7.64464 1.73047,-8.53321 1.17645,-2.19773 3.61691,-2.02807 7.35742,0.50977 1.72222,1.16848 4.38278,2.39856 5.91211,2.73437 1.52932,0.33583 4.4076,1.30781 6.39648,2.16016 l 3.61524,1.55078 0.58008,10.15625 c 0.66927,11.71574 1.67956,16.72211 4.60351,22.83985 2.36131,4.94055 7.59761,12.56821 9.76563,14.22656 2.32672,1.77974 7.15512,2.80665 9.24414,1.96484 1.79067,-0.72157 1.80081,-0.77099 0.15429,-0.82617 -3.06847,-0.10297 -7.34604,-3.39065 -8.85547,-6.80664 -1.78015,-4.02866 -1.91373,-16.91125 -0.26171,-25.2207 1.4169,-7.12693 0.34068,-11.01277 -4.77735,-17.26368 -3.96539,-4.84314 -4.77947,-5.09885 -11.65625,-3.66406 -1.81394,0.37847 -4.19723,0.0473 -6.79687,-0.94531 -4.62992,-1.76781 -6.15487,-4.44265 -8.71485,-15.28125 -3.44882,-14.60183 -3.11506,-14.08422 -15.81445,-24.50195 -5.52695,-4.53395 -6.19591,-5.4982 -11.54102,-16.62696 -10.50401,-21.86987 -10.22457,-20.75835 -9.9707,-39.51953 0.25043,-18.505865 -0.54999,-22.938245 -5.45508,-30.158201 -3.98307,-5.862837 -5.86914,-10.156737 -5.86914,-13.365235 0,-1.703482 -0.15246,-2.554117 -0.66211,-2.550781 z m 14.50391,14.742188 c -0.0936,-0.0099 -0.16885,0.01066 -0.2207,0.0625 -0.28425,0.284182 0.0734,1.924739 0.79297,3.646484 1.56805,3.752062 2.76873,14.212827 3.54101,30.828125 0.62269,13.39693 1.27911,17.14421 4.10156,23.4082 1.983,4.40096 2.19093,4.56987 4.09961,3.36133 0.98471,-0.6235 0.7167,-1.64661 -1.42773,-5.45508 -4.00569,-7.11402 -5.10145,-11.1235 -3.48438,-12.74023 1.04465,-1.04439 1.69104,-1.10127 3.20899,-0.28906 3.72854,1.99502 3.83174,0.28971 0.2207,-3.62696 -5.69841,-6.18073 -4.68348,-11.39955 1.58594,-8.1582 4.61259,2.38476 3.91215,0.91724 -2.14258,-4.49609 -4.37273,-3.909524 -5.73596,-5.689538 -5.73633,-7.484379 -6.4e-4,-3.105154 1.33827,-3.804478 3.97656,-2.076172 2.6023,1.704726 2.63715,1.417758 0.39844,-3.214843 -0.96277,-1.99228 -1.75,-4.349434 -1.75,-5.240235 0,-1.669135 -5.76043,-8.377067 -7.16406,-8.52539 z M 44.0625,92.060547 a 150.97963,150.97963 0 0 0 -3.787109,6.175781 c 0.412005,-0.566205 0.793276,-1.045905 1.09375,-1.328125 1.204909,-1.131711 2.189453,-2.614773 2.189453,-3.294922 0,-0.267609 0.214507,-0.856352 0.503906,-1.552734 z m 76.70312,14.904293 c -0.11175,-0.003 -0.20705,0.0174 -0.2832,0.0645 -0.58143,0.35929 -2.59117,0.59304 -4.4668,0.51953 -2.06867,-0.081 -3.1976,0.20816 -2.87109,0.73633 0.29603,0.47887 1.59718,0.87796 2.89258,0.88476 1.40997,0.008 3.76157,1.22266 5.85742,3.02735 3.47617,2.99325 4.8542,3.39796 5.45313,1.60156 0.45974,-1.37894 -4.90569,-6.78406 -6.58204,-6.83399 z m -14.66015,0.46875 c -2.61173,8.7e-4 -5.48414,0.33068 -6.927736,0.98829 -1.226116,0.55853 -2.228515,1.50584 -2.228515,2.10546 0,1.35902 3.056861,0.65663 4.451171,-1.02343 0.75155,-0.90539 2.23774,-1.06941 5.85352,-0.64453 3.56182,0.41853 4.68025,0.30199 4.2207,-0.44141 -0.40614,-0.65693 -2.75741,-0.98525 -5.36914,-0.98438 z m -65.541017,6.53125 c 0.542197,-0.075 0.326284,0.63708 -0.537109,2.25 -0.498323,0.93093 -1.482358,1.69141 -2.1875,1.69141 -1.953601,0 -1.534726,-1.38466 0.904297,-2.98242 0.896361,-0.5872 1.494994,-0.91401 1.820312,-0.95899 z m 78.146487,5.69141 c -0.41551,0 -0.75586,0.51311 -0.75586,1.14063 0,0.62751 -1.35556,2.45568 -3.01172,4.06054 -1.65615,1.60487 -4.4547,5.87725 -6.21875,9.49414 -1.76405,3.61689 -4.34658,8.1488 -5.74023,10.07227 -3.101081,4.28 -3.320093,7.83926 -0.56446,9.16797 3.04561,1.46851 3.12205,1.38578 3.70117,-3.96485 0.70289,-6.49409 2.2445,-9.85452 7.61133,-16.59765 4.5054,-5.66081 6.15787,-6.42858 9.08789,-4.21289 1.98044,1.4976 4.76172,1.74741 4.76172,0.42773 0,-1.12674 -7.82848,-9.58789 -8.87109,-9.58789 z m 105.08008,3.125 c -1.39184,-0.14802 -5.03441,1.33117 -6.11329,2.63086 -0.56828,0.68458 -2.46273,1.25101 -4.20898,1.25781 -2.37215,0.01 -2.84221,0.22952 -1.86133,0.86328 0.72208,0.46655 2.91136,0.85415 4.86719,0.86133 2.7683,0.0104 4.08147,-0.53451 5.92187,-2.45508 1.30028,-1.3569 2.12823,-2.70193 1.83985,-2.99023 -0.0929,-0.0929 -0.24648,-0.14682 -0.44531,-0.16797 z m -49.68164,4.79687 c 0.40137,-0.1015 0.55761,0.27564 0.20312,1.19922 -0.26281,0.68472 -1.03117,1.45673 -1.70898,1.7168 -1.01582,0.38972 -1.04457,0.17172 -0.16016,-1.24414 0.61864,-0.99039 1.26464,-1.57037 1.66602,-1.67188 z m -146.861333,1.53321 a 150.97963,150.97963 0 0 0 -1.724609,6.75 c 0.480583,-1.23556 1.155546,-3.89607 1.724609,-6.75 z m 103.988283,1.24023 c -0.38201,-0.0207 -0.67679,0.0426 -0.83789,0.20508 -0.34562,0.34857 0.55388,1.5806 1.99804,2.73828 1.44416,1.15768 3.57274,2.10675 4.73047,2.10938 2.01597,0.004 2.04164,-0.0665 0.59375,-1.66602 -1.50348,-1.66097 -4.82902,-3.29695 -6.48437,-3.38672 z m 83.48242,11.72266 c -1.26911,-0.0283 -2.54319,0.018 -3.51563,0.14844 l -3.53515,0.47461 3.93945,1.05468 c 2.16624,0.5795 4.20742,1.10512 4.53711,1.16797 0.32971,0.0629 1.70736,-0.34202 3.0625,-0.89844 l 2.46485,-1.01171 -3.4668,-0.63086 c -0.95311,-0.17343 -2.21722,-0.27637 -3.48633,-0.30469 z m 103.66797,2.95898 c -0.48139,0 -0.875,0.39372 -0.875,0.875 0,0.48129 0.39361,0.875 0.875,0.875 0.48139,0 0.875,-0.39371 0.875,-0.875 0,-0.48128 -0.39361,-0.875 -0.875,-0.875 z m -113.56641,8.38086 c -0.13934,-0.007 -0.21484,0.0371 -0.21484,0.14258 0,1.30335 2.03237,3.56198 5.6875,6.31641 3.81851,2.87755 6.12695,3.10359 6.12695,0.59961 0,-1.05517 -1.07844,-1.97065 -3.16406,-2.6875 -1.74018,-0.59811 -4.39902,-1.96662 -5.9082,-3.04102 -1.13189,-0.80581 -2.10932,-1.30767 -2.52735,-1.33008 z m 112.89844,12.0918 c -0.0544,0.009 -0.11238,0.0328 -0.16992,0.0684 -0.46035,0.28445 -0.61493,1.09427 -0.34375,1.80078 0.69426,1.80885 1.18164,1.59727 1.18164,-0.51562 0,-0.8671 -0.28747,-1.41989 -0.66797,-1.35352 z m 1.26367,4.64258 c -0.84031,0.004 -1.4707,0.22125 -1.4707,0.71289 0,1.49939 2.12493,3.12086 4.30664,3.28515 0.37719,0.0284 0.69662,0.15972 0.96094,0.37305 a 150.97963,150.97963 0 0 0 0.125,-2.51562 150.97963,150.97963 0 0 0 -0.0156,-0.46485 c -0.67614,-0.84927 -2.55677,-1.39696 -3.90625,-1.39062 z m 3.42969,11.69336 c -0.43844,1.09643 -0.49746,1.7911 -0.11914,2.37304 a 150.97963,150.97963 0 0 0 0.11914,-2.37304 z m -111.68164,1.69531 c 0.48139,0 0.87695,0.39371 0.87695,0.875 0,0.48128 -0.39556,0.875 -0.87695,0.875 -0.48139,0 -0.875,-0.39372 -0.875,-0.875 0,-0.48129 0.39361,-0.875 0.875,-0.875 z m 107.99414,1.3125 -1.0332,2.43359 c -0.91841,2.16426 -3.30513,13.13418 -4.99024,22.9375 l -0.60156,3.4961 2.27148,-2.44922 c 1.2484,-1.34675 2.95234,-3.70785 3.78711,-5.2461 l 1.33985,-2.46875 a 150.97963,150.97963 0 0 0 1.56836,-9.30078 c -0.0625,-1.41461 -0.43506,-2.88365 -0.86133,-3.32226 -0.44435,-0.45722 -0.95968,-2.01123 -1.14453,-3.45508 z m -6.12891,29.61133 c -0.30391,-0.0131 -0.61661,0.29922 -1.13672,0.92578 -0.62991,0.75925 -0.91613,1.97507 -0.63671,2.70312 0.63894,1.66476 2.84714,1.7254 3.47265,0.0957 0.25914,-0.67515 -0.0154,-1.89097 -0.60937,-2.70313 -0.49018,-0.67023 -0.78594,-1.00834 -1.08985,-1.02148 z m -1.00781,9.32812 c -1.31644,0 -1.74723,0.3964 -1.40234,1.29492 0.27848,0.72558 -0.72852,2.84257 -2.28907,4.8125 -2.53346,3.19808 -2.62517,3.51758 -1.01367,3.51758 0.97482,0 2.01693,-0.39371 2.31446,-0.875 0.37406,-0.60512 0.90709,-0.87494 1.35351,-0.84179 a 150.97963,150.97963 0 0 0 0.92774,-2.25196 c -0.0705,-0.25148 -0.0937,-0.68845 -0.0937,-1.35547 0,-1.21008 0.47311,-2.67246 1.05078,-3.25 0.8169,-0.81672 0.62863,-1.05078 -0.84766,-1.05078 z m -279.787109,1.29883 c 0.297488,-0.0242 0.852194,0.58993 1.605469,2.04102 0.828755,1.59648 1.343779,3.56507 1.146484,4.375 -0.248181,1.01885 -0.816485,0.43605 -1.847656,-1.89063 -1.184044,-2.67162 -1.40011,-4.48505 -0.904297,-4.52539 z m 161.167969,1.40234 c -0.0662,-0.006 -0.1148,0.005 -0.14648,0.0371 -0.25351,0.25345 -2.43659,6.86014 -4.84961,14.68164 -2.41304,7.82151 -4.84078,15.07634 -5.39649,16.1211 -0.94496,1.77657 -5.50397,6.84441 -13.20117,14.67773 -1.8052,1.83712 -3.28125,3.9463 -3.28125,4.6875 0,0.98327 0.92415,1.34766 3.41602,1.34766 3.01897,0 3.52272,-0.30936 4.34375,-2.66406 1.51468,-4.34411 4.43502,-7.83594 6.55273,-7.83594 2.42252,0 4.35478,-3.20694 5.80078,-9.62695 1.20972,-5.37096 5.10715,-12.97737 8.8457,-17.26368 1.35532,-1.55387 2.73152,-4.25094 3.0586,-5.99414 0.52107,-2.77696 0.25862,-3.50556 -2.11719,-5.88086 -1.30497,-1.30468 -2.56192,-2.2427 -3.02539,-2.28711 z m 109.56641,12.17383 c -0.47755,0 -1.44698,1.28154 -2.1543,2.84571 -5.164,11.4199 -9.27151,17.18222 -21.59961,30.30078 -8.30612,8.83868 -10.57084,12.12668 -6.56445,9.5332 1.08312,-0.70114 3.15154,-1.55906 4.5957,-1.90625 0.61564,-0.14802 1.06988,-0.2471 1.35156,-0.25781 a 150.97963,150.97963 0 0 0 13.28321,-15.23633 c -0.12214,-0.0882 -0.19144,-0.2686 -0.18946,-0.55859 0.008,-1.19887 3.71037,-5.3284 4.67774,-5.34766 5.2e-4,-10e-6 0.001,1e-5 0.002,0 a 150.97963,150.97963 0 0 0 4.71875,-7.50977 c -1.03333,0.002 -0.74733,-1.94022 0.66406,-3.11132 0.72208,-0.59915 1.3125,-1.94808 1.3125,-2.9961 0,-1.04802 0.43693,-2.3433 0.97266,-2.8789 1.04366,-1.04345 0.36162,-2.87696 -1.07031,-2.87696 z m -34.70118,45.66797 c -0.39198,-0.0217 -1.13267,0.28982 -2.1582,1.0293 -8.48465,6.11802 -19.7607,13.07434 -25.62305,15.80664 -11.50005,5.3599 -12.6914,5.99345 -12.6914,6.76367 0,1.5179 5.29973,0.69012 7.09961,-1.10937 1.23278,-1.23253 3.1929,-1.93397 5.88672,-2.10352 2.03614,-0.12813 3.00712,-0.15888 3.21484,0.0293 a 150.97963,150.97963 0 0 0 4.66992,-2.67969 c -1.09591,0.0718 0.79578,-1.564 5.61133,-4.79297 3.00473,-2.01476 6.64568,-4.78128 8.08984,-6.14844 1.44416,-1.36714 3.54474,-3.32808 4.66797,-4.35742 1.57236,-1.44092 1.88572,-2.40138 1.23242,-2.4375 z m -136.3125,27.7168 2.11329,1.84765 c 1.16245,1.01725 2.6714,1.6367 3.35351,1.375 0.68211,-0.2617 1.87726,-0.47656 2.65625,-0.47656 2.86565,0 -0.30058,-1.66738 -4.18359,-2.20312 z"
         style="display:inline;fill:#000000;fill-opacity:1;stroke-width:0.87515426" />
    </g>
  </g>
</svg>
