<?xml version="1.0" encoding="UTF-8" standalone="no"?>
<!-- Created with Inkscape (http://www.inkscape.org/) -->

<svg
   xmlns:dc="http://purl.org/dc/elements/1.1/"
   xmlns:cc="http://creativecommons.org/ns#"
   xmlns:rdf="http://www.w3.org/1999/02/22-rdf-syntax-ns#"
   xmlns:svg="http://www.w3.org/2000/svg"
   xmlns="http://www.w3.org/2000/svg"
   xmlns:sodipodi="http://sodipodi.sourceforge.net/DTD/sodipodi-0.dtd"
   xmlns:inkscape="http://www.inkscape.org/namespaces/inkscape"
   width="325"
   height="325"
   viewBox="0 0 85.989586 85.989586"
   version="1.1"
   id="svg1409"
   inkscape:version="0.92.3 (2405546, 2018-03-11)"
   sodipodi:docname="saxony.svg">
  <defs
     id="defs1403" />
  <sodipodi:namedview
     id="base"
     pagecolor="#ffffff"
     bordercolor="#666666"
     borderopacity="1.0"
     inkscape:pageopacity="0.0"
     inkscape:pageshadow="2"
     inkscape:zoom="2.4169236"
     inkscape:cx="162.7742"
     inkscape:cy="162.60341"
     inkscape:document-units="mm"
     inkscape:current-layer="layer1"
     showgrid="false"
     fit-margin-top="0"
     fit-margin-left="0"
     fit-margin-right="0"
     fit-margin-bottom="0"
     units="px"
     inkscape:window-width="1920"
     inkscape:window-height="1017"
     inkscape:window-x="1912"
     inkscape:window-y="-8"
     inkscape:window-maximized="1" />
  <metadata
     id="metadata1406">
    <rdf:RDF>
      <cc:Work
         rdf:about="">
        <dc:format>image/svg+xml</dc:format>
        <dc:type
           rdf:resource="http://purl.org/dc/dcmitype/StillImage" />
        <dc:title></dc:title>
      </cc:Work>
    </rdf:RDF>
  </metadata>
  <g
     inkscape:label="Layer 1"
     inkscape:groupmode="layer"
     id="layer1"
     transform="translate(-5.8310505,-3.1120615)">
    <g
       id="g2273"
       inkscape:label="g2273"
       transform="matrix(0.92539641,0,0,0.92629735,3.5754469,3.42354)"
       style="stroke-width:1.08009219">
      <path
         inkscape:connector-curvature="0"
         d="M 159.82227,11.556641 C 172.6071,11.493913 187.30076,12.709446 196.5,14.863281 258.0503,29.274165 303.987,78.421373 312.52539,139 c 2.14064,15.18753 2.34649,36.34217 0.46484,47.66211 -2.66096,16.00825 -10.59912,38.56427 -16.47656,46.81836 -1.1859,1.66546 -2.51687,4.26316 -2.95898,5.77344 -1.11019,3.79253 -13.20125,20.21951 -21.05469,28.60547 -6.53426,6.97734 -22.21834,19.33099 -32.25195,25.40429 -4.94136,2.99099 -14.43219,7.32513 -27.24805,12.44141 -2.75,1.09784 -10.85,3.32627 -18,4.95312 -15.54842,3.53775 -34.90208,4.43909 -51.5,2.39649 -9.95841,-1.22552 -22.12841,-3.78164 -26.5,-5.56446 C 81.669706,293.08198 63.586685,281.14076 46.789062,261.12109 22.402058,232.05628 10.316583,198.46289 10.371094,159.89453 10.41394,129.58049 20.993579,98.64701 40.259766,72.5 48.044999,61.934308 64.4085,46.097902 75.027344,38.853516 95.413084,24.945954 119.22127,15.871952 144.26758,12.464844 c 4.32684,-0.588592 9.7434,-0.879691 15.55469,-0.908203 z m -1.36524,-24.314453 c -18.1832,0.143837 -33.11086,2.691225 -50.44141,8.3613276 C 62.88655,10.368569 26.615013,41.644959 5.4980469,84 c -7.9633898,15.97245 -11.9371118,27.48775 -15.6835939,45.44141 -2.3019,11.031 -2.628843,14.99254 -2.683594,32.55859 -0.04757,15.26309 0.370337,22.36846 1.763672,30 C 0.81009623,257.26363 45.255805,308.97348 107,329.4082 c 12.57547,4.16195 22.94024,6.51378 35.5,8.05274 10.74333,1.31639 38.81356,0.47111 50,-1.50586 44.26562,-7.82305 84.53382,-32.60343 111.04883,-68.33594 C 325.33465,238.25986 336.51037,206.57587 338.1582,169.5 339.45246,140.37949 333.3334,111.1188 320.48633,85 298.97412,41.264475 258.87017,7.6774862 212,-5.8574219 c -16.51249,-4.7683851 -22.87886,-5.8138941 -40.36523,-6.6250001 -4.61253,-0.213952 -8.98162,-0.308584 -13.17774,-0.27539 z"
         style="display:inline;fill:#000000;fill-opacity:1;stroke-width:4.08223915"
         transform="matrix(0.26458333,0,0,0.26458333,5.8433534,3.0409579)"
         id="path2250" />
      <path
         id="path2137"
         style="display:inline;fill:#404040;fill-opacity:1;stroke-width:1.08009219"
         d="m 72.355054,85.398203 c -0.143666,0.02024 -0.475546,0.133448 -1.02681,0.343648 -0.800003,0.305046 -1.613874,0.686856 -1.808674,0.848527 -0.194799,0.161668 -1.206984,0.695949 -2.249476,1.187524 -1.042488,0.491577 -1.538304,0.817616 -1.101741,0.724506 0.942977,-0.201115 5.329782,-2.285423 6.085416,-2.891298 0.200552,-0.160803 0.244951,-0.23314 0.101285,-0.212907 z m 3.631822,-6.177399 c 0.02455,-0.0013 0.04318,0.0039 0.05478,0.0155 0.21082,0.210818 -1.570154,1.760538 -3.041158,2.646352 -0.607999,0.366125 -1.173541,0.665591 -1.256771,0.665591 -0.380317,0 -0.06346,-0.312793 0.973066,-0.960665 0.618464,-0.386567 1.581793,-1.111573 2.140437,-1.61127 0.488815,-0.437235 0.957831,-0.747117 1.129649,-0.75551 z m 1.089856,-1.170472 c 0.326414,0 0.339966,0.07379 0.07183,0.396875 -0.181158,0.218281 -0.430318,0.396875 -0.553456,0.396875 -0.123139,0 -0.155072,-0.178594 -0.07131,-0.396875 0.08376,-0.218281 0.332407,-0.396875 0.55294,-0.396875 z m 1.604036,-1.172538 c 0.428146,-0.0344 0.432864,0.278675 -0.0987,0.482658 -0.555418,0.21313 -0.639754,0.20375 -0.639754,-0.07286 0,-0.128547 0.238125,-0.29596 0.529166,-0.37207 0.07811,-0.02043 0.148127,-0.03281 0.209291,-0.03772 z m -60.666581,-0.804603 0.79375,0.497128 c 1.325637,0.830503 4.307281,3.326844 4.46536,3.73879 0.08165,0.212783 0.06272,0.387088 -0.04186,0.387056 -0.418426,-1.32e-4 -3.893495,-2.836672 -4.533573,-3.70055 z m -4.49895,-5.849771 c 0.09363,0.0048 0.26934,0.13041 0.514697,0.401526 0.256577,0.283512 0.4154,0.66893 0.35295,0.856279 -0.07144,0.21431 -0.291095,0.06992 -0.592212,-0.389641 -0.35937,-0.548468 -0.431485,-0.876221 -0.275435,-0.868164 z M 8.9434226,61.406903 c 0.038129,-0.01053 0.1070155,0.09686 0.234094,0.315227 0.1513949,0.260144 0.2347127,0.595006 0.1850017,0.744141 -0.1413708,0.424111 -0.4771284,-0.05312 -0.4681884,-0.665594 0.00371,-0.254471 0.010964,-0.383246 0.049093,-0.393774 z M 6.4376324,43.633311 c 0.1970943,0.02825 0.3317627,0.486389 0.3317627,1.25729 0,0.778753 0.1617923,1.414917 0.4376993,1.719791 0.2619896,0.289494 0.3151299,0.48369 0.1322917,0.48369 -0.1680749,0 -0.3054077,0.231209 -0.3054077,0.513665 0,0.282453 -0.1190625,0.587021 -0.2645833,0.67696 -0.380798,0.235347 -0.3271458,0.561174 0.1751831,1.063501 0.3403404,0.340341 0.3643933,0.48654 0.1064534,0.645956 -0.3777091,0.233437 -0.203224,3.555437 0.2878377,5.480286 0.1549604,0.607401 0.223045,1.262245 0.151412,1.455208 -0.17492,0.471202 -0.2866032,0.163804 -1.109493,-3.04736 C 5.7760157,51.522292 5.7268046,50.940447 5.8578228,47.683712 5.9373465,45.70698 6.0628915,43.991766 6.1368755,43.872058 6.2454256,43.69642 6.348044,43.620474 6.4376324,43.633311 Z M 89.716785,39.685749 c 0.232675,0 0.345527,0.262387 0.313677,0.727604 -0.04466,0.652299 0.03943,0.729218 0.812353,0.743106 1.230309,0.02209 1.424286,0.350716 1.334285,2.260328 -0.07084,1.502976 -0.143713,1.701824 -0.650605,1.774052 -0.44876,0.06395 -0.608629,-0.09105 -0.74776,-0.724503 -0.09735,-0.443259 -0.286835,-0.873511 -0.421161,-0.956532 -0.343255,-0.212143 -0.306234,2.269397 0.04909,3.288688 0.240372,0.689526 0.361622,0.78495 0.672309,0.527101 0.29363,-0.2437 0.451805,-0.242142 0.699183,0.0078 0.249986,0.252526 0.218601,0.379542 -0.143661,0.583943 -0.254661,0.14369 -0.463021,0.420355 -0.463021,0.614432 0,0.194077 -0.238125,0.414816 -0.529166,0.490926 -0.340762,0.08911 -0.527651,0.359302 -0.52555,0.758611 0.0039,0.723336 -0.607063,3.69276 -1.37976,6.705534 -0.29858,1.164166 -0.579985,2.473854 -0.625284,2.910416 -0.1748,1.684544 -3.501684,8.544637 -5.468919,11.277349 -1.987357,2.760665 -7.21409,7.878318 -9.72757,9.524481 -2.447669,1.60306 -3.47975,2.202127 -4.497917,2.61121 -0.363802,0.146174 -0.840052,0.37706 -1.058333,0.51263 -0.218282,0.135575 -0.962422,0.503203 -1.653646,0.817523 -0.691224,0.31432 -1.256771,0.680331 -1.256771,0.812869 0,0.387781 1.703464,0.276526 2.26446,-0.147794 0.611873,-0.462796 1.284137,-0.531617 1.020093,-0.104386 -0.316362,0.511892 -5.488445,2.824139 -7.548374,3.374469 -1.07455,0.287079 -3.297637,0.7087 -4.939752,0.936895 -4.396465,0.610955 -11.034483,0.422701 -14.145906,-0.401526 -0.890495,-0.235895 -1.395412,-0.771012 -0.727604,-0.771012 0.145521,0 0.264583,-0.219109 0.264583,-0.486791 0,-0.596524 -0.841237,-1.003067 -2.545064,-1.2299 L 36.7996,85.95119 l 0.661458,0.541568 c 0.363802,0.297833 0.916498,0.54457 1.22835,0.547772 0.548518,0.0057 1.061595,0.71452 0.745691,1.030428 -0.318146,0.318143 -5.740419,-1.293913 -7.983493,-2.373501 -3.952011,-1.902087 -6.25417,-3.400422 -4.53254,-2.950207 0.401467,0.104987 0.512366,0.05468 0.374138,-0.168981 -0.108043,-0.174819 -0.06073,-0.48142 0.10542,-0.681612 0.242054,-0.291658 -0.08206,-0.648867 -1.630908,-1.797307 -1.063122,-0.788281 -2.825668,-2.294144 -3.917074,-3.346566 l -1.984375,-1.913578 2.023132,1.671733 c 2.322877,1.91961 7.017251,4.912524 8.529712,5.437912 0.565389,0.196398 1.875076,0.748951 2.910418,1.228347 2.794801,1.294077 4.514159,1.900036 7.288958,2.568837 2.165586,0.521962 3.216818,0.603922 7.9375,0.615982 4.751792,0.01214 5.776815,-0.0631 8.087363,-0.591177 3.503742,-0.800788 6.140137,-1.600275 7.276041,-2.207102 0.509323,-0.272092 1.602719,-0.73647 2.429825,-1.031978 3.913489,-1.398198 11.567784,-7.556854 14.437363,-11.615827 0.672401,-0.951101 1.61731,-2.196928 2.099614,-2.768825 0.482298,-0.571897 0.876948,-1.213895 0.876948,-1.426268 0,-0.212373 0.374256,-0.99377 0.831474,-1.736847 1.074524,-1.746324 2.974272,-6.28831 3.645255,-8.714195 0.828651,-2.995906 1.410277,-6.750743 1.380278,-8.911084 -0.01516,-1.091407 0.07572,-2.69875 0.202055,-3.571875 0.12633,-0.873125 0.141115,-1.706563 0.03256,-1.852084 -0.108559,-0.14552 -0.26605,-0.711067 -0.349851,-1.25677 -0.113559,-0.739461 -0.05934,-0.992188 0.211873,-0.992188 z m 0.460438,-5.509741 c 0.152482,-0.01387 0.391737,0.617677 0.813904,2.105297 0.390202,1.374981 0.709517,2.696067 0.709517,2.936256 0,0.240189 -0.119063,0.51054 -0.264583,0.60048 -0.145521,0.08994 -0.264584,-0.07483 -0.264584,-0.365869 0,-0.291041 -0.119062,-0.602525 -0.264583,-0.692465 -0.145521,-0.08994 -0.264583,-0.394507 -0.264583,-0.67696 0,-0.282453 -0.171681,-0.513665 -0.381373,-0.513665 -0.531802,0 -0.814179,-0.5453 -0.411343,-0.794265 0.214133,-0.132342 0.280599,-0.524058 0.185518,-1.095024 -0.08141,-0.488878 -0.0595,-1.116025 0.04909,-1.393713 0.02711,-0.06933 0.05783,-0.106874 0.09302,-0.110072 z M 11.800096,24.48616 c 0.171199,0.03021 0.260966,0.345969 0.260966,0.953947 0,0.884256 -0.2402,1.408163 -1.30483,2.844271 -0.717692,0.968113 -1.5514932,2.411621 -1.8531171,3.207556 -0.8246411,2.176095 -1.0664424,2.440231 -1.0712524,1.172022 -0.00362,-0.95455 0.2551147,-1.666896 1.2448852,-3.429248 0.1634545,-0.291041 0.7162771,-1.436491 1.2288653,-2.545582 0.697693,-1.509602 1.20915,-2.253318 1.494483,-2.202966 z m 71.254565,-4.073136 c 0.158848,0.02416 0.503079,0.368593 0.716235,0.766878 0.179721,0.3358 0.18356,0.514181 0.01085,0.514181 -0.248391,0 -0.812353,-0.825573 -0.812353,-1.189075 0,-0.07299 0.03232,-0.100037 0.08527,-0.09198 z M 48.129662,6.0986525 c 3.382653,-0.016597 7.27035,0.3050129 9.704316,0.8748818 16.285183,3.8128797 28.439268,16.8164117 30.698384,32.8445067 0.566377,4.018367 0.620842,9.615532 0.122989,12.6106 -0.704046,4.235516 -2.804351,10.203463 -4.359423,12.387357 -0.31377,0.440653 -0.665922,1.127961 -0.782897,1.527556 -0.293738,1.00344 -3.492831,5.349745 -5.57072,7.568531 -1.728856,1.846087 -5.878603,5.114657 -8.533329,6.721551 -1.307401,0.791366 -3.818516,1.938108 -7.209379,3.29179 -0.727604,0.29047 -2.870729,0.880076 -4.7625,1.310513 -4.113853,0.93603 -9.234509,1.174509 -13.626042,0.634071 C 41.176232,85.545758 37.956253,84.869451 36.799603,84.397747 27.451796,80.585564 22.66733,77.426116 18.222959,72.129245 11.770565,64.439181 8.5729493,55.55093 8.587372,45.346385 8.598708,37.325795 11.397904,29.141312 16.495416,22.223249 18.555259,19.427743 22.884769,15.237694 25.694338,13.320951 31.088065,9.6412415 37.387314,7.2404118 44.01415,6.3389478 45.15896,6.1832162 46.592091,6.1061963 48.129662,6.0986525 Z m 0.03462,-3.5393189 c 1.637919,-0.00722 3.304267,0.1058059 4.907195,0.344165 1.81901,0.2704912 4.20026,0.7494192 5.291666,1.0645345 1.091407,0.315115 2.440263,0.6846042 2.997751,0.8211385 0.55749,0.1365342 2.072984,0.6624626 3.367751,1.1684042 1.294771,0.5059416 2.448849,0.9198404 2.564186,0.9198404 0.115337,0 1.159684,0.6542815 2.320787,1.4536581 1.161106,0.7993774 2.243646,1.4542294 2.405539,1.4552083 0.161891,9.79e-4 0.735592,0.3522754 1.274858,0.7808304 0.539268,0.428556 1.359566,0.904306 1.823145,1.0573 0.498994,0.164683 1.382139,0.918175 2.164726,1.846916 0.727035,0.862818 1.633784,1.704582 2.014863,1.870687 1.149405,0.500998 3.149383,2.858809 3.137794,3.698999 -0.0033,0.240556 -0.565594,-0.1572 -1.389062,-0.982886 -1.835664,-1.840594 -4.177813,-3.865362 -5.432745,-4.695837 -0.55924,-0.370087 -1.271493,-1.017539 -1.582849,-1.438672 -0.311356,-0.421134 -0.987118,-0.904521 -1.501717,-1.074353 -0.514596,-0.169832 -0.93586,-0.424507 -0.93586,-0.565857 0,-0.3698985 -2.115407,-1.2767928 -2.994134,-1.2836429 -0.409749,-0.0032 -0.98253,-0.1332521 -1.273307,-0.288871 -0.372033,-0.1991077 -0.628729,-0.19958 -0.866095,-0.00259 -0.24294,0.201622 -0.848778,0.1067168 -2.16576,-0.3384807 -1.470681,-0.4971457 -1.828829,-0.7249506 -1.828829,-1.1637441 0,-0.7586924 -0.260604,-0.9439291 -0.656291,-0.4671552 C 61.46248,7.155122 60.70224,7.2765819 60.390926,6.965269 60.293596,6.867937 60.411246,6.5702812 60.652408,6.3038106 61.004487,5.9147633 61.017573,5.8131046 60.719078,5.7885968 59.976682,5.7276434 59.808791,5.6790402 59.260765,5.3658806 58.61271,4.9955598 56.650078,5.402249 56.926539,5.8495719 57.034285,6.0239079 56.556866,6.0556442 55.544194,5.9420728 54.693413,5.846658 51.735332,5.7501555 48.970436,5.7276156 43.164703,5.6802867 40.839955,6.019705 35.879245,7.6375765 c -2.525131,0.8235379 -3.092001,0.9345367 -3.010152,0.5901449 0.05545,-0.2333453 -0.0054,-0.5867378 -0.135392,-0.7854817 -0.189429,-0.2895336 -0.589284,-0.164011 -2.011763,0.6314858 -1.556631,0.870518 -1.760058,1.0722284 -1.651579,1.6396933 0.134263,0.7023592 0.0055,0.8140362 -3.828707,3.3279622 -1.064788,0.698136 -2.518741,1.683319 -3.231327,2.189013 -0.712587,0.505696 -1.818802,1.051315 -2.458248,1.21233 -1.400386,0.352621 -2.942757,1.77052 -4.569747,4.20181 -0.629686,0.94097 -1.386472,1.978898 -1.682067,2.306319 -1.225976,1.357975 -1.311295,0.399449 -0.114722,-1.289843 3.217262,-4.542055 7.148676,-8.801828 9.760644,-10.575582 2.201956,-1.4953186 7.980185,-4.4285785 9.581329,-4.8637858 0.748786,-0.2035284 2.016516,-0.6307094 2.816881,-0.949296 0.800364,-0.3185866 1.812396,-0.6756469 2.248958,-0.79375 0.436562,-0.1181031 1.805781,-0.5245675 3.042708,-0.903304 2.147382,-0.6575106 4.798359,-1.0039181 7.528221,-1.0159586 z M 49.02108,1.2529534 c -1.579758,0.00911 -3.367855,0.058335 -5.222938,0.1493448 -2.519061,0.1235846 -5.273538,0.5741353 -6.056477,0.9906372 -0.226957,0.1207349 -2.136013,0.7740471 -4.24212,1.451591 -4.062268,1.3068522 -4.993109,1.7191114 -8.317837,3.6871133 -4.523756,2.6777423 -5.868316,3.7659403 -9.320362,7.5442423 -1.871907,2.048822 -3.450582,3.870217 -3.508312,4.047298 -0.05773,0.177081 -0.539255,0.857725 -1.070219,1.512569 -1.3928786,1.717853 -1.7860923,2.375173 -3.7966678,6.35 -0.9937131,1.964531 -2.0493359,4.405313 -2.34611,5.423959 -1.134106,3.8927 -2.065768,8.261421 -2.0701579,9.707935 -0.00251,0.828154 -0.1237134,1.579208 -0.2692342,1.669148 -0.1455208,0.08994 -0.2626791,0.30521 -0.2604492,0.478522 0.00243,0.189342 0.10634,0.156819 0.2604492,-0.08165 0.2073997,-0.320929 0.2571692,-0.282956 0.2604492,0.198437 0.00222,0.327422 -0.089569,0.595313 -0.2041218,0.595313 -0.1145535,0 -0.226123,0.238125 -0.2480469,0.529166 -0.021923,0.291042 0.071779,0.529167 0.208256,0.529167 0.1364768,0 0.2480468,0.416719 0.2480468,0.926042 0,0.509323 -0.1319154,0.926041 -0.2930054,0.926041 -0.174349,0 -0.2165709,0.187399 -0.1043863,0.463021 0.1036532,0.254662 0.3454199,1.773071 0.5369181,3.374472 0.6540693,5.469652 1.8916404,9.552678 4.3986979,14.512293 2.1114422,4.176985 4.6598413,7.82352 6.3195103,9.041823 0.925149,0.679122 1.313099,1.146474 1.313099,1.582332 0,0.844119 1.025397,1.995221 3.750158,4.210598 3.822435,3.107843 4.779961,3.768204 7.652246,5.274612 5.566153,2.919245 10.278525,4.410844 12.663825,4.00854 0.977996,-0.164949 4.397434,0.502285 4.95784,0.967383 0.176794,0.14673 0.45026,0.187227 0.607713,0.08992 0.270804,-0.167368 2.424901,0.226351 3.573426,0.65319 0.291041,0.108159 0.819877,0.06475 1.175123,-0.09612 0.50873,-0.230389 0.55087,-0.310404 0.198437,-0.378272 -0.246105,-0.0474 -0.447519,-0.180367 -0.447519,-0.29559 0,-0.211659 4.349964,-0.932855 7.276042,-1.206127 0.873125,-0.08154 2.480468,-0.386993 3.571875,-0.678513 1.091406,-0.291524 2.415164,-0.641972 2.941423,-0.77928 1.418426,-0.370086 7.162869,-2.902471 7.774202,-3.42718 0.291041,-0.249801 1.005416,-0.736748 1.5875,-1.08159 3.230374,-1.913758 7.089174,-5.089147 10.523389,-8.659934 0.975021,-1.013794 1.403157,-1.303679 1.563211,-1.058334 0.165208,0.253252 0.348088,0.173427 0.729671,-0.319362 0.570502,-0.736772 0.506335,-1.050039 -0.11007,-0.538467 -0.622154,0.516342 -0.480401,0.107468 0.36897,-1.065051 0.456734,-0.630505 0.844804,-0.948674 0.949811,-0.778764 0.318199,0.514855 0.843952,-0.204647 2.871661,-3.929994 2.491938,-4.578228 4.54977,-10.662335 5.070491,-14.990815 0.105039,-0.873125 0.282472,-1.706563 0.39429,-1.852083 0.227139,-0.295601 0.36934,-4.111406 0.28112,-7.540625 -0.03535,-1.373995 -0.136536,-2.047002 -0.260448,-1.730127 -0.137626,0.351944 -0.261869,-0.111461 -0.385506,-1.441772 -0.138174,-1.486673 -0.314727,-2.084142 -0.730705,-2.471685 -0.385755,-0.359386 -0.507019,-0.717418 -0.409279,-1.206127 0.0871,-0.435477 -0.09996,-1.188191 -0.500742,-2.015897 -0.354426,-0.731962 -0.640522,-1.803826 -0.641821,-2.403988 -0.0024,-1.089658 -0.827514,-3.872967 -1.326018,-4.473629 C 90.759029,27.46915 90.1611,26.346991 89.577776,25.153303 88.994451,23.959616 88.01934,22.30933 87.410984,21.485827 86.802624,20.662324 85.747127,19.152009 85.064873,18.129442 83.70152,16.086042 81.567833,13.777741 79.926686,12.570609 79.344602,12.142463 78.332571,11.305444 77.677727,10.710257 77.022884,10.11507 75.102218,8.8898052 73.409771,7.9874258 71.717324,7.0850466 70.185058,6.1681461 70.004295,5.9503411 69.823534,5.7325358 69.526164,5.5544995 69.343869,5.5544995 c -0.182296,0 -1.268884,-0.4296087 -2.414839,-0.9544637 C 63.713281,3.1271995 61.204394,2.3950454 58.408621,2.1133659 57.001247,1.9715707 55.25429,1.7108074 54.526686,1.5335564 53.707843,1.3340785 51.654007,1.2377643 49.02108,1.2529534 Z"
         inkscape:connector-curvature="0" />
    </g>
    <g
       id="g2269"
       transform="matrix(0.9267073,0,0,0.9267073,3.5722517,3.3856219)"
       style="stroke-width:1.0790894">
      <path
         inkscape:connector-curvature="0"
         d="m 229.27539,194.04492 -2.30859,2.89258 c -5.01078,6.28412 -5.13209,7.12486 -1.90821,13.10156 1.61801,2.99959 3.27891,5.45511 3.69141,5.45703 2.04215,0.01 4.75,4.28748 4.75,7.50391 0,4.42098 0.71324,4.42908 2.55078,0.0312 0.79693,-1.90734 1.44922,-4.60734 1.44922,-6 0,-1.82619 0.53185,-2.53125 1.91016,-2.53125 2.10646,0 7.08984,5.32474 7.08984,7.57617 0,2.03957 1.75196,1.7569 2.94727,-0.47656 0.69903,-1.30616 0.67417,-2.88897 -0.0801,-5.05273 -1.34745,-3.86529 -0.64421,-4.70545 2.89453,-3.46094 1.64054,0.57694 3.66733,2.66919 5.09961,5.26562 2.92213,5.29727 4.80614,4.33875 3.19922,-1.6289 C 258.53232,209.19047 254.0218,206.5 243.42188,206.5 c -6.44686,0 -7.0222,-0.38823 -11.28516,-7.60742 z m -110.5332,-13.43359 c -1.54191,-0.0632 -2.28576,0.48801 -2.62891,1.63867 -1.18387,3.9699 -0.77951,15.14126 0.75,20.71094 2.02044,7.35736 2.0412,8.95848 0.13672,10.53906 -2.99914,2.48907 -1.28877,3 10.04688,3 11.03308,0 11.65157,0.11142 13.86523,2.5 1.86944,2.01716 3.27242,2.5 7.26172,2.5 2.79917,0 5.78579,0.63752 6.88476,1.46875 2.11228,1.59765 4.44141,1.99279 4.44141,0.75391 0,-0.42763 -0.70046,-1.77763 -1.55664,-3 -1.47674,-2.10835 -1.43486,-2.22266 0.80078,-2.22266 1.29618,0 2.88823,0.53276 3.53906,1.18359 2.16364,2.16364 2.59413,-0.15228 0.45313,-2.4375 -1.58723,-1.69415 -1.86284,-2.6761 -1.1211,-3.99609 0.83269,-1.48185 0.5543,-1.75468 -1.8164,-1.7832 -8.9795,-0.10802 -23.83946,-2.0907 -25.92774,-3.45899 -2.06001,-1.34977 -2.37109,-2.34303 -2.37109,-7.5625 0,-3.30499 0.6874,-7.65381 1.52734,-9.66406 1.86536,-4.46445 1.3457,-5.0781 -6.86718,-8.11914 -3.53734,-1.30979 -5.87606,-1.98755 -7.41797,-2.05078 z m 23.85156,-88.595705 c 1.5441,0.08962 1.75176,1.259584 0.33984,3.275391 -1.49635,2.136328 -4.39784,2.912711 -5.76757,1.542968 -1.49666,-1.496647 -0.48456,-3.202092 2.52148,-4.25 1.22771,-0.427982 2.20439,-0.609095 2.90625,-0.568359 z M 154.01953,68.15625 c -0.65827,-0.102531 -1.63177,0.895081 -3.41406,3.355469 -1.70827,2.358198 -3.10547,4.671193 -3.10547,5.138672 0,1.293705 5.43687,1.014289 6.80078,-0.34961 1.3976,-1.397605 1.55806,-5.683647 0.28906,-7.6875 -0.16808,-0.265415 -0.35089,-0.422854 -0.57031,-0.457031 z M 170.25,59.515625 c -0.6875,0.0079 -4.175,4.343596 -7.75,9.636719 C 155.61784,79.342026 152.76311,81.5 146.1582,81.5 c -6.42932,0 -18.6582,5.290586 -18.6582,8.072266 0,2.329508 -2.53487,4.200528 -10.75,7.93164 -8.67214,3.938664 -10.61868,5.773634 -7.83398,7.390624 1.04627,0.60755 4.78033,3.24297 8.29687,5.85547 3.51655,2.6125 6.754,4.75 7.19531,4.75 0.44131,0 1.20888,-1.4163 1.70508,-3.14648 1.00995,-3.52147 1.97628,-4.17806 8.30274,-5.64258 5.78747,-1.33974 6.84746,-0.80578 8.16992,4.10547 1.10254,4.09452 1.08901,4.12524 -3.43164,8.39648 -2.49568,2.35801 -5.47767,4.28711 -6.62696,4.28711 -3.48463,0 -3.72345,3.03127 -0.44531,5.6543 1.60509,1.28433 3.25146,2.33711 3.6582,2.33984 0.40674,0.003 4.12586,-3.54 8.26563,-7.87305 8.23159,-8.61591 11.34528,-10.04562 16.85352,-7.74414 4.73513,1.97848 8.33528,6.83272 9.60546,12.95117 1.24677,6.00567 0.50607,9.05303 -2.95507,12.17188 -3.58641,3.23173 -22.38563,2.82208 -40.54493,-0.88281 l -14.0332,-2.86328 -8.4668,2.1582 c -10.183446,2.59542 -28.95368,11.85307 -34.333981,16.93359 -5.374684,5.07524 -8.614011,12.29459 -8.595703,19.1543 0.02041,7.61209 1.299359,12.46384 5.845703,22.1582 2.15184,4.58846 4.405994,10.1418 5.009766,12.3418 2.293935,8.35855 0.924588,16.91825 -3.261719,20.39258 -2.121195,1.76043 -5.443134,-0.20704 -6.201172,-3.67188 -1.227851,-5.61227 -1.447816,-5.88838 -3,-3.77929 -2.25973,3.07047 -1.84601,11.14031 0.701172,13.6875 1.866777,1.86677 2.863779,2.05189 8.087891,1.50586 7.347806,-0.768 10.871296,-3.14261 13.941406,-9.39258 1.922676,-3.91408 2.312267,-6.22773 2.226563,-13.24219 -0.0864,-7.07187 -0.724686,-10.26417 -3.798828,-19 -5.934581,-16.86439 -6.850123,-20.77409 -6.056641,-25.89453 0.826424,-5.33301 1.254778,-4.66097 4.048828,6.37109 1.374149,5.4257 2.686539,7.98312 5.904297,11.5 9.630822,10.52611 10.684328,14.3697 5.875,21.44727 -2.323219,3.41892 -2.482298,4.14223 -1.3125,5.98242 4.628149,7.28043 6.197733,11.17291 6.689453,16.5957 0.359169,3.96098 0.129145,6.45627 -0.683594,7.43555 -1.795699,2.16369 -0.405185,3.5625 3.541016,3.5625 4.718293,0 9.310503,2.1163 12.908203,5.94922 l 3,3.19726 0.52539,-2.82421 c 0.46858,-2.51585 0.88826,-2.78677 3.85742,-2.49415 3.79542,0.37406 3.50637,-1.34944 -0.48047,-2.86523 -3.98568,-1.51536 -2.9274,-3.29638 1.59766,-2.68945 2.2,0.2951 4,0.18424 4,-0.2461 0,-1.6669 -2.91954,-3.08534 -5.18164,-2.51757 -5.05651,1.26909 -15.17232,-9.28533 -18.02539,-18.80665 -1.08734,-3.6287 -0.99442,-3.92497 2.08789,-6.74023 4.65833,-4.25473 7.02644,-10.50885 8.64453,-22.82422 1.57436,-11.98254 2.05033,-13.76178 3.86719,-14.45898 0.6808,-0.26124 6.38269,1.54797 12.67187,4.02148 6.28918,2.47351 15.40812,6.05008 20.26367,7.94727 11.96495,4.67498 33.73613,10.14257 43.68946,10.97265 4.65948,0.38858 8.35226,1.17804 8.60547,1.83789 0.24389,0.63564 -0.74419,4.50398 -2.19532,8.59766 -4.51833,12.74631 -7.42718,23.04053 -7.43359,26.30664 -0.003,1.72518 -0.63548,4.34278 -1.4043,5.81641 -0.76882,1.47362 -1.142,2.93612 -0.82812,3.25 0.31389,0.31389 4.88346,0.57752 10.1543,0.58593 10.38044,0.0166 10.77608,0.14108 13.38086,4.23438 2.12349,3.33702 3.45551,3.50867 3.88281,0.5 0.46136,-3.24858 3.95855,-3.34565 7.68164,-0.21289 3.56084,2.99625 4.32533,1.3553 1.01172,-2.17188 -2.93263,-3.12162 -1.87271,-5.51516 2.08984,-4.72265 1.89732,0.37946 3.03711,0.19817 3.03711,-0.48242 0,-2.25936 -4.77311,-3.47793 -14.83594,-3.78711 -6.34111,-0.19484 -10.9766,-0.80132 -11.88672,-1.55664 -3.98808,-3.30982 2.03446,-19.27355 12.47852,-33.07422 13.00499,-17.18466 18.56523,-29.25747 19.96484,-43.35352 l 0.7793,-7.84765 2.71484,2.93164 c 1.49315,1.61201 2.96137,2.68316 3.26368,2.38086 1.00696,-1.00698 -3.63734,-14.24291 -8.01954,-22.85352 -4.94329,-9.7131 -6.65759,-17 -3.99804,-17 0.90066,0 2.9652,0.68627 4.58789,1.52539 1.62269,0.83912 2.95117,1.12957 2.95117,0.64453 0,-2.01432 -7.2831,-10.19882 -12.20703,-13.71875 -6.78706,-4.85182 -16.99504,-15.31391 -16.19922,-16.601561 0.35252,-0.570387 2.2646,-0.711367 4.50977,-0.332031 2.14355,0.362154 3.89559,0.28115 3.89453,-0.179687 -0.001,-0.46085 -2.13857,-2.269044 -4.75,-4.017579 C 208.80418,82.510055 200.08524,79.5 195.44141,79.5 c -1.483,0 -4.3126,-0.674997 -6.28711,-1.5 -2.03621,-0.850783 -6.6345,-1.5 -10.62305,-1.5 H 171.5 V 68 c 0,-6.141173 -0.34689,-8.494992 -1.25,-8.484375 z"
         style="display:inline;fill:#404040;fill-opacity:1;stroke-width:4.0784483"
         transform="matrix(0.26458333,0,0,0.26458333,5.8433534,3.0409579)"
         id="path2139" />
      <path
         id="path2196"
         style="display:inline;fill:#000000;fill-opacity:1;stroke-width:1.0790894"
         d="m 39.650084,56.567922 c 0.04418,-0.01225 0.118091,0.178917 0.227375,0.580327 0.13866,0.509323 0.325363,1.104635 0.414961,1.322917 0.0896,0.218281 0.149093,0.470945 0.132292,0.561205 -0.02921,0.156845 2.449169,0.330197 3.98167,0.278537 0.85498,-0.02882 0.870238,0.02812 0.273886,1.037661 -0.532789,0.901939 -0.752049,0.952283 -1.123963,0.25735 -0.397074,-0.741934 -1.19194,-0.925629 -3.64784,-0.843359 -2.168485,0.07264 -2.580053,-0.103172 -1.785937,-0.762228 0.218281,-0.181157 0.396875,-0.48937 0.396875,-0.684712 0,-0.195345 0.238125,-0.482444 0.529166,-0.638204 0.291042,-0.155761 0.539808,-0.546897 0.552937,-0.869199 0.0062,-0.152408 0.02207,-0.232947 0.04858,-0.240295 z m -6.009971,-0.438216 c 0.259096,-0.01696 0.497689,0.254678 0.439251,0.763778 -0.04101,0.35727 -0.233096,0.808255 -0.426847,1.002006 -0.293315,0.293312 -0.380307,0.278736 -0.520383,-0.0863 -0.09255,-0.241128 -0.09488,-0.732403 -0.0047,-1.091925 0.09698,-0.386413 0.311113,-0.574362 0.512631,-0.58756 z m 32.885848,-0.925525 0.723987,1.476914 c 0.756648,1.542775 1.178766,1.790071 3.054594,1.790071 0.666324,0 0.725513,0.05997 0.467672,0.472839 -0.216247,0.34626 -0.538411,0.444156 -1.204577,0.366387 -0.546875,-0.06385 -1.089313,0.04558 -1.360641,0.274399 -0.682746,0.575792 -1.281178,0.295548 -2.164209,-1.012856 -0.955816,-1.416251 -0.966499,-1.594578 -0.149344,-2.594158 z m -0.02016,-0.822172 -0.610815,0.765328 c -1.325769,1.662674 -1.357865,1.88512 -0.50488,3.466455 0.428098,0.793641 0.867545,1.443331 0.976685,1.443839 0.540319,0.0026 1.256771,1.134396 1.256771,1.985409 0,1.169718 0.188711,1.171861 0.674894,0.0083 0.210854,-0.50465 0.383439,-1.219025 0.383439,-1.587499 0,-0.48318 0.140719,-0.669727 0.505397,-0.669727 0.557334,0 1.875853,1.408837 1.875853,2.004528 0,0.539636 0.46354,0.464847 0.779799,-0.12609 0.184951,-0.345588 0.178374,-0.764373 -0.02119,-1.336868 -0.356513,-1.022691 -0.170448,-1.244983 0.765844,-0.915707 0.43406,0.152649 0.970314,0.706223 1.349272,1.393196 0.773147,1.401569 1.271624,1.14796 0.84646,-0.43098 -0.53663,-1.992879 -1.730039,-2.704732 -4.534601,-2.704732 -1.705732,0 -1.857957,-0.10272 -2.985865,-2.012797 z M 25.976491,53.64252 c 0.08629,-0.03638 0.313921,0.390832 0.505912,0.949296 0.315754,0.918464 0.300571,1.063685 -0.157096,1.521354 -0.278281,0.278281 -0.505912,0.744037 -0.505912,1.035079 0,0.909561 -0.480921,0.58126 -1.066085,-0.727604 -0.622863,-1.393188 -0.79485,-2.441943 -0.389123,-2.374532 0.145517,0.02418 0.234187,0.176575 0.196887,0.338997 -0.08646,0.376483 1.203276,0.976238 1.588017,0.738457 0.1765,-0.109085 0.06538,-0.262379 -0.284221,-0.391707 -0.570455,-0.211024 -0.816622,-1.023194 -0.310059,-1.023194 0.145522,0 0.33539,-0.02977 0.42168,-0.06615 z m 11.294412,-2.20245 c 0.23383,-0.02265 0.820642,0.141293 1.411282,0.402561 0.675021,0.298593 1.404853,0.543118 1.621607,0.543118 0.286475,0 0.344231,0.162584 0.211357,0.595312 -0.100536,0.327422 -0.30126,1.09423 -0.445968,1.70429 -0.290354,1.224074 -0.899184,1.31943 -1.183907,0.184999 -0.18152,-0.723243 -0.210447,-0.734255 -0.937411,-0.345196 -0.449183,0.240395 -0.507585,0.445807 -0.35605,1.256771 0.09963,0.533175 0.308621,1.123479 0.464055,1.311547 0.17085,0.206714 0.186616,0.437634 0.04031,0.583944 -0.373171,0.373171 -1.16427,-2.664955 -1.16427,-4.471046 0,-0.870839 0.117639,-1.655696 0.261483,-1.744596 0.01799,-0.01111 0.04411,-0.01847 0.07751,-0.0217 z m -0.01035,-0.612365 c -0.407963,-0.01672 -0.604774,0.129119 -0.695565,0.433565 -0.313233,1.050369 -0.206246,4.006125 0.198437,5.479769 0.534575,1.946635 0.540068,2.370265 0.03617,2.78846 -0.793522,0.658566 -0.340987,0.79375 2.658237,0.79375 2.919169,0 3.082811,0.02948 3.668509,0.661458 0.494622,0.533707 0.865827,0.661458 1.92133,0.661458 0.740613,0 1.530823,0.168678 1.821592,0.388607 0.558875,0.422712 1.175124,0.527259 1.175124,0.199472 0,-0.113143 -0.185331,-0.470331 -0.411861,-0.79375 -0.390721,-0.557834 -0.37964,-0.588078 0.211873,-0.588078 0.342947,0 0.764177,0.140959 0.936376,0.313158 0.572463,0.572463 0.686363,-0.04029 0.119891,-0.644922 C 48.480711,60.072408 48.407789,59.8126 48.604041,59.463353 48.824357,59.07128 48.7507,58.999094 48.123452,58.991548 45.747626,58.962968 41.815928,58.438384 41.263404,58.076357 40.71836,57.71923 40.636053,57.45643 40.636053,56.075446 c 0,-0.874446 0.181875,-2.025071 0.404109,-2.55695 0.493543,-1.181219 0.35605,-1.34358 -1.816941,-2.148189 -0.935922,-0.346548 -1.554708,-0.525872 -1.962672,-0.542602 z m -5.410006,-1.60042 c -0.252776,-0.02868 -0.581575,0.240308 -0.826823,0.825273 -0.202396,0.482761 -0.322547,0.959903 -0.267167,1.059884 0.05538,0.09998 0.604026,0.168132 1.219564,0.151413 0.615539,-0.01672 0.904679,-0.07894 0.642339,-0.137978 -0.358466,-0.08067 -0.457086,-0.313695 -0.396876,-0.937411 0.05851,-0.606152 -0.118261,-0.9325 -0.371037,-0.961181 z M 43.571283,27.386758 c 0.408543,0.02371 0.463486,0.333265 0.08992,0.866614 -0.39591,0.565237 -1.163596,0.770655 -1.526003,0.408244 -0.395992,-0.395988 -0.128207,-0.84722 0.667141,-1.124479 0.324832,-0.113237 0.583245,-0.161157 0.768946,-0.150379 z m 6.052343,-5.820833 c 0.01074,4.23e-4 0.02024,0.0032 0.02842,0.0083 0.130738,0.0808 0.426289,0.795576 0.656807,1.588534 0.43879,1.509373 0.687366,1.702669 1.345139,1.044897 0.414224,-0.414225 2.635557,-0.550944 3.156397,-0.194303 0.156136,0.106912 0.364942,0.413541 0.464053,0.681612 0.152228,0.411765 0.416284,0.473355 1.700672,0.396875 l 1.52032,-0.09043 0.08113,0.974618 c 0.08039,0.966433 0.530164,1.4264 4.221964,4.317049 0.185851,0.145521 0.890326,0.770599 1.56528,1.389062 0.674955,0.618464 1.431994,1.12448 1.682068,1.12448 0.250073,0 0.585925,0.157755 0.746207,0.350882 0.227795,0.274479 0.162306,0.346689 -0.298688,0.330729 -0.507858,-0.01757 -0.58488,0.108442 -0.55449,0.905889 0.05258,1.379693 0.557403,3.07405 1.244369,4.178556 0.695907,1.118889 1.630937,3.078324 1.888773,3.957381 0.148485,0.506227 0.08273,0.585446 -0.438216,0.529167 -0.588795,-0.06361 -0.619656,0.02796 -0.798401,2.34456 -0.102293,1.325771 -0.41637,3.01685 -0.698148,3.758427 -0.643652,1.693955 -2.681343,5.24274 -3.962548,6.901386 -0.536422,0.694452 -1.32588,1.728507 -1.754415,2.298052 -1.115648,1.482754 -1.090695,1.458503 -1.288812,1.260388 -0.279165,-0.279165 -0.213918,-1.628373 0.08785,-1.814878 0.147891,-0.0914 0.196072,-0.284223 0.106971,-0.428397 -0.09326,-0.150892 -0.315228,-0.05912 -0.522965,0.216524 -0.313008,0.415338 -0.325247,0.346014 -0.09199,-0.522449 0.490712,-1.826966 0.333221,-1.941912 -3.142443,-2.294432 -1.705428,-0.172971 -3.627702,-0.484224 -4.27209,-0.691949 -0.64439,-0.207722 -1.457864,-0.377753 -1.807644,-0.377753 -0.779848,0 -5.703432,-1.651003 -7.868769,-2.6386 -0.873122,-0.398227 -2.628471,-1.114031 -3.900537,-1.590601 -1.855275,-0.695066 -2.389296,-0.80269 -2.699576,-0.545184 -0.503174,0.417599 -1.196737,2.821257 -1.236617,4.286043 -0.01723,0.632447 -0.117285,1.506987 -0.222727,1.94355 -0.183732,0.760693 -0.314864,0.68313 -0.590661,-0.349332 -0.117681,-0.440542 -2.142584,1.11144 -2.230354,1.709454 -0.09441,0.643284 -0.364319,0.770358 -0.364319,0.171567 0,-0.297522 -0.174197,-0.957646 -0.387057,-1.467094 -0.358616,-0.858295 -0.348908,-0.960816 0.132292,-1.396296 0.655225,-0.592981 0.655662,-0.976468 10e-4,-1.568897 -0.340941,-0.308496 -0.737291,-0.414375 -1.157036,-0.309025 -0.355857,0.08931 -0.987405,-0.01387 -1.426786,-0.233061 -0.650018,-0.324274 -0.863619,-0.683445 -1.220597,-2.04742 -0.238071,-0.90964 -0.464065,-2.248958 -0.502295,-2.976563 -0.0596,-1.134409 -0.15253,-1.334788 -0.65009,-1.405599 -0.482169,-0.06861 -0.615779,0.08791 -0.790132,0.926042 -0.279089,1.341612 -0.273061,4.46894 0.01085,5.705078 0.187531,0.816496 0.155289,0.992188 -0.180868,0.992188 -0.22467,0 -0.485843,-0.244835 -0.580843,-0.544153 -0.206999,-0.652195 -1.071032,-0.574466 -1.016992,0.09147 0.02021,0.249087 -0.05623,0.452687 -0.170015,0.452687 -0.348679,0 -0.546302,-0.812964 -0.708484,-2.9161 -0.183845,-2.38405 0.175356,-3.366895 1.837614,-5.029153 1.092141,-1.092139 5.238438,-3.275562 8.070307,-4.249869 1.583537,-0.544817 3.237013,-0.667533 3.237013,-0.240295 0,0.360752 0.725382,0.336897 0.846977,-0.02791 0.07121,-0.213595 0.381095,-0.213291 1.146701,0.0021 0.576929,0.162285 2.596843,0.539417 4.488614,0.837676 2.998459,0.472739 3.718793,0.502621 5.618263,0.235128 1.997419,-0.281287 2.247987,-0.385382 3.008085,-1.251085 0.754554,-0.859393 0.8158,-1.06013 0.67696,-2.232422 -0.180419,-1.523368 -1.349573,-3.798245 -2.318205,-4.510321 -1.187704,-0.873124 -3.915981,-0.571238 -4.550627,0.503328 -0.392208,0.66408 -0.586819,0.3649 -0.49816,-0.76636 0.108924,-1.389759 -0.32253,-2.587726 -0.995288,-2.763655 -0.770636,-0.201525 -0.843214,-0.77365 -0.13901,-1.094508 1.153734,-0.525727 1.800646,-2.690325 0.804085,-2.690325 -0.17679,0 -0.878308,0.18972 -1.559079,0.42168 -1.00303,0.341768 -1.237649,0.539638 -1.237649,1.043347 0,0.341871 0.248311,0.795556 0.551905,1.008207 0.754422,0.528419 0.287324,1.391148 -0.880568,1.626257 -1.586574,0.319397 -1.817203,0.44041 -2.061371,1.082622 -0.303263,0.797626 -0.551331,0.799939 -1.492417,0.01447 -0.411348,-0.343326 -1.156097,-0.833837 -1.655196,-1.089856 l -0.907439,-0.465087 0.642856,-0.356566 c 0.353578,-0.196088 1.458756,-0.673671 2.456182,-1.060918 1.501844,-0.583089 1.875523,-0.851469 2.172475,-1.562179 0.468641,-1.121617 2.312509,-2.008423 4.634344,-2.228804 2.107234,-0.200011 2.921979,-0.694501 3.981151,-2.415873 0.415989,-0.676069 0.855491,-1.178916 1.016476,-1.172539 z m -3.029272,-0.49196 c -0.174168,-0.02713 -0.43174,0.236824 -0.903304,0.887802 -0.45198,0.62394 -0.821655,1.235919 -0.821655,1.359607 0,0.342292 1.438505,0.268364 1.799373,-0.0925 0.369781,-0.369783 0.412236,-1.503799 0.07648,-2.033985 -0.04447,-0.07022 -0.09284,-0.11188 -0.150894,-0.120924 z M 50.888665,18.7878 c -0.181901,0.0021 -1.104635,1.149243 -2.05052,2.549715 -1.820905,2.69602 -2.576219,3.266984 -4.323768,3.266984 -1.701091,0 -4.936649,1.399801 -4.936649,2.135787 0,0.616349 -0.670684,1.11139 -2.844271,2.09858 -2.294504,1.042105 -2.809526,1.527607 -2.07274,1.955436 0.276825,0.160748 1.264795,0.858036 2.195213,1.54926 0.930421,0.691224 1.786996,1.256771 1.903759,1.256771 0.116764,0 0.31985,-0.37473 0.451136,-0.832507 0.267216,-0.931722 0.522891,-1.105445 2.196767,-1.492932 1.531268,-0.354473 1.811723,-0.213196 2.161624,1.086239 0.291714,1.083341 0.288134,1.091469 -0.907955,2.221568 -0.660315,0.62389 -1.4493,1.134298 -1.753383,1.134298 -0.921975,0 -0.985162,0.802024 -0.117821,1.496034 0.42468,0.339812 0.860282,0.61836 0.967898,0.619082 0.107617,7.94e-4 1.091634,-0.936625 2.186948,-2.083077 2.177942,-2.279627 3.001772,-2.657904 4.459161,-2.048971 1.252836,0.523473 2.205376,1.807824 2.541444,3.426664 0.329875,1.589 0.133898,2.395281 -0.781862,3.220476 -0.948904,0.855062 -5.922864,0.746676 -10.727512,-0.233576 l -3.712951,-0.757577 -2.240174,0.571024 c -2.69437,0.686705 -7.660661,3.136125 -9.084199,4.480346 -1.422052,1.342824 -2.279124,3.252943 -2.27428,5.067908 0.0054,2.014032 0.343789,3.297725 1.546675,5.862691 0.569341,1.21403 1.165753,2.683351 1.325501,3.265434 0.606937,2.211533 0.244631,4.476287 -0.862996,5.395537 -0.561233,0.46578 -1.440163,-0.05478 -1.640727,-0.971518 -0.324869,-1.484913 -0.383068,-1.557968 -0.79375,-0.999937 -0.597887,0.812395 -0.488424,2.94754 0.185518,3.621484 0.493918,0.493916 0.757708,0.542896 2.139921,0.398425 1.944107,-0.2032 2.876364,-0.831482 3.688664,-2.48512 0.508708,-1.0356 0.611787,-1.647753 0.589111,-3.503662 -0.02286,-1.871099 -0.191739,-2.715729 -1.005106,-5.027084 -1.570191,-4.462036 -1.812428,-5.496478 -1.602486,-6.851261 0.218658,-1.411025 0.331993,-1.233215 1.071252,1.685684 0.363577,1.43555 0.710813,2.112201 1.562179,3.042709 2.548155,2.785033 2.826895,3.801983 1.554427,5.67459 -0.614685,0.904589 -0.656775,1.095965 -0.347266,1.582848 1.224531,1.926281 1.639817,2.956166 1.769918,4.390946 0.09503,1.048009 0.03417,1.708221 -0.180868,1.967323 -0.475112,0.572476 -0.107205,0.942578 0.936894,0.942578 1.248382,0 2.463404,0.559937 3.415295,1.574064 l 0.79375,0.845942 0.13901,-0.747239 c 0.123978,-0.665652 0.235019,-0.737333 1.020609,-0.659911 1.004205,0.09897 0.927727,-0.357039 -0.127125,-0.758092 -1.054544,-0.400939 -0.774541,-0.872167 0.422715,-0.711583 0.582083,0.07808 1.058333,0.04875 1.058333,-0.06511 0,-0.441034 -0.772462,-0.81633 -1.370976,-0.666107 -1.337868,0.33578 -4.014343,-2.456744 -4.769217,-4.975926 -0.287692,-0.960094 -0.263107,-1.038482 0.552421,-1.783353 1.232516,-1.12573 1.859078,-2.780466 2.287198,-6.038908 0.41655,-3.17038 0.542483,-3.641138 1.023194,-3.825605 0.180128,-0.06912 1.688754,0.409567 3.352766,1.064017 1.664012,0.654449 4.076731,1.60075 5.361429,2.102715 3.165726,1.236921 8.926018,2.683555 11.559503,2.90318 1.232821,0.102812 2.209869,0.31169 2.276864,0.486275 0.06453,0.16818 -0.196901,1.191678 -0.580845,2.274798 -1.195475,3.372461 -1.965108,6.09614 -1.966804,6.960298 -7.94e-4,0.456454 -0.168138,1.149027 -0.371555,1.538925 -0.203417,0.389895 -0.302154,0.776848 -0.219106,0.859896 0.08305,0.08305 1.292082,0.152802 2.686658,0.155027 2.746491,0.0044 2.851171,0.03733 3.540353,1.120347 0.56184,0.882919 0.91427,0.928335 1.027326,0.132291 0.122068,-0.85952 1.047367,-0.885203 2.032434,-0.05633 0.942139,0.792758 1.14441,0.35859 0.267684,-0.574643 -0.775925,-0.825929 -0.495487,-1.45922 0.552937,-1.249535 0.502,0.100399 0.803569,0.05243 0.803569,-0.12764 0,-0.597789 -1.262885,-0.920202 -3.925342,-1.002006 -1.677752,-0.05155 -2.904226,-0.212016 -3.145028,-0.411861 -1.05518,-0.875723 0.538284,-5.09946 3.301608,-8.750887 3.440904,-4.546775 4.91205,-7.741039 5.282364,-11.470619 l 0.20619,-2.076357 0.718301,0.775663 c 0.395063,0.426511 0.783529,0.709919 0.863515,0.629936 0.266425,-0.266431 -0.962379,-3.768437 -2.121836,-6.046661 -1.307912,-2.569924 -1.761488,-4.497916 -1.057815,-4.497916 0.2383,0 0.784542,0.181575 1.213879,0.403592 0.429337,0.222017 0.780831,0.298866 0.780831,0.170532 0,-0.532955 -1.926987,-2.698438 -3.229777,-3.629752 -1.795743,-1.283711 -4.496604,-4.051806 -4.286044,-4.392497 0.09327,-0.150915 0.599176,-0.188216 1.19321,-0.08785 0.567148,0.09582 1.030709,0.07439 1.030428,-0.04754 -2.65e-4,-0.121933 -0.56583,-0.600351 -1.256771,-1.062984 -1.308065,-0.875839 -3.614952,-1.672249 -4.843632,-1.672249 -0.392377,0 -1.141042,-0.178593 -1.663464,-0.396875 -0.538747,-0.225103 -1.755378,-0.396875 -2.810682,-0.396875 h -1.860352 v -2.248959 c 0,-1.624852 -0.09178,-2.247633 -0.330729,-2.244824 z"
         inkscape:connector-curvature="0" />
    </g>
  </g>
</svg>
