<?xml version="1.0" encoding="UTF-8" standalone="no"?>
<!-- Created with Inkscape (http://www.inkscape.org/) -->

<svg
   xmlns:dc="http://purl.org/dc/elements/1.1/"
   xmlns:cc="http://creativecommons.org/ns#"
   xmlns:rdf="http://www.w3.org/1999/02/22-rdf-syntax-ns#"
   xmlns:svg="http://www.w3.org/2000/svg"
   xmlns="http://www.w3.org/2000/svg"
   xmlns:sodipodi="http://sodipodi.sourceforge.net/DTD/sodipodi-0.dtd"
   xmlns:inkscape="http://www.inkscape.org/namespaces/inkscape"
   width="25.4mm"
   height="25.411009mm"
   viewBox="0 0 25.4 25.411009"
   version="1.1"
   id="svg6284"
   inkscape:version="0.92.3 (2405546, 2018-03-11)"
   sodipodi:docname="Rusviet.svg">
  <defs
     id="defs6278" />
  <sodipodi:namedview
     id="base"
     pagecolor="#ffffff"
     bordercolor="#666666"
     borderopacity="1.0"
     inkscape:pageopacity="0.0"
     inkscape:pageshadow="2"
     inkscape:zoom="1.4"
     inkscape:cx="-42.972653"
     inkscape:cy="113.91816"
     inkscape:document-units="mm"
     inkscape:current-layer="layer1"
     showgrid="false"
     fit-margin-top="0"
     fit-margin-left="0"
     fit-margin-right="0"
     fit-margin-bottom="0"
     inkscape:window-width="1920"
     inkscape:window-height="1017"
     inkscape:window-x="-8"
     inkscape:window-y="-8"
     inkscape:window-maximized="1" />
  <metadata
     id="metadata6281">
    <rdf:RDF>
      <cc:Work
         rdf:about="">
        <dc:format>image/svg+xml</dc:format>
        <dc:type
           rdf:resource="http://purl.org/dc/dcmitype/StillImage" />
        <dc:title></dc:title>
      </cc:Work>
    </rdf:RDF>
  </metadata>
  <g
     inkscape:label="Layer 1"
     inkscape:groupmode="layer"
     id="layer1"
     transform="translate(-75.01632,-65.795107)">
    <g
       transform="matrix(2.5047436,0,0,2.5047436,917.58386,-1375.7516)"
       style="opacity:0.9"
       id="g3097"
       inkscape:label="Rusviet">
      <path
         style="fill:#e3926b;stroke-width:0.02980169"
         d="m -331.86925,585.65466 c -1.9261,-0.24148 -3.48491,-1.44478 -4.18984,-3.23429 -0.10409,-0.26424 -0.18959,-0.56961 -0.26324,-0.94014 -0.0835,-0.42024 -0.0754,-1.41511 0.015,-1.83425 0.21582,-1.00076 0.6608,-1.86057 1.3197,-2.54996 0.18682,-0.19547 0.26681,-0.26102 0.28515,-0.23367 0.0195,0.0291 0.0389,0.0232 0.0827,-0.0254 0.0315,-0.0349 0.16855,-0.1385 0.30456,-0.23021 0.13602,-0.0917 0.25524,-0.17964 0.26495,-0.19538 0.0347,-0.0563 -0.21817,0.10541 -0.41816,0.26741 -0.23511,0.19045 -0.2993,0.19901 -0.0878,0.0117 0.22811,-0.20201 0.65,-0.46949 1.03538,-0.65643 0.71117,-0.34498 1.40576,-0.50605 2.18799,-0.50738 0.82201,-10e-4 1.52356,0.1647 2.27571,0.53879 1.04054,0.51753 1.80652,1.29243 2.30722,2.33412 0.32775,0.68186 0.47125,1.2637 0.49722,2.01604 0.0187,0.54147 -0.0228,0.95601 -0.14291,1.42704 -0.18485,0.72506 -0.49283,1.34665 -0.95169,1.92078 -0.48629,0.60845 -1.05671,1.06236 -1.76601,1.4053 -0.72517,0.35061 -1.26751,0.47716 -2.10128,0.49032 -0.30279,0.005 -0.5974,0.003 -0.65468,-0.004 z m 1.35399,-0.72644 c 0.40939,-0.0852 0.73246,-0.17846 0.80346,-0.23195 0.0327,-0.0247 0.0394,-0.0381 0.0147,-0.03 -0.7166,0.23763 -1.05932,0.30287 -1.59192,0.30304 -0.22482,6e-5 -0.35569,0.01 -0.31246,0.023 0.1269,0.0391 0.77369,9e-4 1.08617,-0.0641 z m -1.42838,-5.7e-4 c -0.19788,-0.0294 -0.64925,-0.14403 -0.77519,-0.1968 -0.16827,-0.0705 -0.15829,-0.0438 0.0127,0.0341 0.088,0.0401 0.18846,0.0737 0.22319,0.0747 0.0347,10e-4 0.13679,0.0265 0.22681,0.0566 0.09,0.0302 0.23062,0.0545 0.31246,0.0542 l 0.14879,-6.6e-4 -0.14879,-0.0221 z m 2.49966,-0.33693 c 0.30929,-0.11125 0.93628,-0.5609 1.26472,-0.907 l 0.19342,-0.20382 -0.17854,0.16727 c -0.42101,0.39443 -0.74837,0.63102 -1.19296,0.86219 -0.2818,0.14653 -0.29048,0.15468 -0.0866,0.0814 z m -5.43082,-7.49777 c 0.0889,-0.0903 0.15494,-0.16415 0.14675,-0.16415 -0.008,0 -0.0876,0.0739 -0.17651,0.16415 -0.0889,0.0903 -0.15494,0.16415 -0.14676,0.16415 0.008,0 0.0876,-0.0739 0.17652,-0.16415 z m 2.33111,-1.34345 c 0.10089,-0.0248 0.36421,-0.0706 0.58517,-0.10172 0.22095,-0.0311 0.35486,-0.0577 0.29758,-0.0591 -0.1473,-0.004 -0.82203,0.10373 -0.98202,0.15617 -0.17803,0.0584 -0.12834,0.0607 0.0993,0.005 z"
         id="path3111"
         inkscape:connector-curvature="0" />
      <path
         style="fill:#f42714;stroke-width:0.02980169"
         d="m -331.75022,585.6536 c -0.74809,-0.0745 -1.51684,-0.32012 -2.1245,-0.6788 -1.25382,-0.74008 -2.16936,-2.0497 -2.41171,-3.4498 -0.072,-0.41603 -0.10048,-0.86915 -0.0607,-0.96553 0.0138,-0.0335 0.009,-0.0638 -0.0124,-0.0771 -0.0428,-0.0265 0.0181,-0.52514 0.11507,-0.94211 0.0716,-0.30781 0.26616,-0.94014 0.28929,-0.94014 0.009,0 0.007,0.0369 -0.003,0.0821 -0.0138,0.0598 0.005,0.0416 0.0707,-0.0672 0.0493,-0.0821 0.0901,-0.16938 0.0908,-0.194 0.004,-0.13773 0.45305,-0.77069 0.86977,-1.22517 0.3095,-0.33754 0.40904,-0.42378 0.75965,-0.65814 0.58417,-0.3905 0.8204,-0.50399 1.4801,-0.71109 0.53204,-0.16703 1.52545,-0.23558 2.15046,-0.14839 0.55,0.0767 1.45726,0.41913 1.9193,0.72437 0.32406,0.21407 0.79557,0.59205 0.97812,0.78408 0.23877,0.25117 0.71698,0.9108 0.84899,1.17106 0.81399,1.60486 0.69401,3.5436 -0.31256,5.05068 -0.83899,1.25617 -2.18054,2.06568 -3.70095,2.23321 -0.2711,0.0299 -0.71013,0.0354 -0.94599,0.0119 z m 1.50278,-0.26416 0.14879,-0.0451 -0.16367,0.0202 c -0.09,0.0111 -0.24402,0.0241 -0.34222,0.029 -0.0982,0.005 -0.2522,0.0221 -0.34221,0.0385 -0.13695,0.0249 -0.10536,0.0275 0.19342,0.0161 0.19641,-0.007 0.42405,-0.0339 0.50589,-0.0587 z m -0.4989,-0.38916 c 1.02813,-0.15312 1.91732,-0.58174 2.54305,-1.22586 0.22422,-0.23081 0.59346,-0.71834 0.66385,-0.87653 0.0256,-0.0575 0.0784,-0.16489 0.11738,-0.23876 0.14682,-0.27815 0.37477,-0.91102 0.37087,-1.02967 -10e-4,-0.0328 -0.006,-0.0463 -0.0109,-0.0298 -0.005,0.0164 -0.0262,0.0903 -0.0472,0.16415 -0.0955,0.33474 -0.42396,1.02942 -0.60434,1.27816 -0.32475,0.44779 -0.60032,0.73677 -0.96446,1.01139 -0.30497,0.23 -0.59936,0.40392 -0.82856,0.48951 -0.0965,0.036 -0.20215,0.0821 -0.23489,0.1025 -0.0327,0.0204 -0.18003,0.0715 -0.32733,0.11357 -1.02813,0.29384 -2.1042,0.22897 -2.93116,-0.1767 -0.09,-0.0442 -0.21536,-0.0986 -0.27854,-0.12107 -0.28904,-0.10262 -0.78918,-0.46112 -1.16421,-0.8345 -0.26975,-0.26855 -0.22991,-0.20484 0.0733,0.11725 0.26791,0.28459 0.86894,0.71758 1.11877,0.80598 0.0666,0.0236 0.19274,0.0793 0.28043,0.12384 0.59629,0.30305 1.49536,0.43508 2.22395,0.32658 z m 2.04706,-0.27012 c 0.0415,-0.0273 0.0704,-0.0547 0.0642,-0.0609 -0.0123,-0.0123 -0.28815,0.13655 -0.28815,0.15552 0,0.0191 0.14272,-0.0412 0.22393,-0.0946 z m 0.34098,-0.23517 c 0.21771,-0.16028 0.2479,-0.22363 0.0361,-0.0757 -0.10317,0.0721 -0.19435,0.14199 -0.20262,0.1554 -0.0309,0.0501 0.0294,0.0213 0.16654,-0.0797 z m -6.74364,-6.58065 c 0.0879,-0.13322 0.0998,-0.17504 0.0343,-0.12054 -0.0373,0.031 -0.13453,0.19652 -0.13453,0.22894 0,0.0305 0.0299,-0.002 0.1002,-0.1084 z m 0.95254,-1.02285 c 0.0181,-0.0287 0.0418,-0.0522 0.0527,-0.0522 0.0337,0 0.52801,-0.29883 0.54802,-0.33131 0.0283,-0.0459 -0.33408,0.14349 -0.53106,0.2775 -0.20931,0.1424 -0.37841,0.28869 -0.37841,0.32737 0,0.0373 0.26604,-0.15339 0.30879,-0.22133 z"
         id="path3109"
         inkscape:connector-curvature="0" />
      <path
         style="fill:#ea1212;stroke-width:0.02980169"
         d="m -331.75022,585.6536 c -1.48161,-0.13209 -2.88415,-0.93172 -3.71739,-2.16961 -0.19616,-0.30096 -0.56797,-0.89056 -0.5477,-1.11452 0.25794,0.62398 0.61175,1.23889 1.11847,1.69243 0.0786,-0.20756 -0.4072,-0.40511 -0.55732,-0.74986 -0.38548,-0.55741 -0.67486,-1.19218 -0.78266,-1.8665 -0.006,-0.26392 -0.0974,-0.59577 -0.0962,-0.62204 0.18043,-0.18175 0.0176,-0.60316 0.005,-0.71083 0.0358,0.26133 -0.0939,0.52584 -0.0368,0.11123 0.007,-0.19178 0.0257,-0.46094 0.14384,-0.28646 0.11174,-0.5001 0.17534,-0.71307 0.30266,-1.19852 0.25343,-0.35079 0.33253,-0.73994 0.65804,-1.12351 0.49725,-0.64678 1.13937,-1.19651 1.89524,-1.51173 -0.18883,0.18314 -0.3229,0.25955 0.0186,0.0877 0.15786,-0.13986 0.91518,-0.23664 0.74814,-0.34633 0.0194,-0.0426 0.65198,-0.2241 0.88583,-0.0768 0.41035,-0.30208 0.77566,0.049 1.2176,0.009 0.18618,0.1159 0.40463,0.0599 0.20313,-0.0297 0.45361,0.0955 0.89612,0.26276 1.30601,0.47798 -0.12562,0.14332 0.65591,0.27828 0.8129,0.51499 0.40529,0.31961 0.76049,0.69986 0.99473,1.16255 0.17989,0.17854 0.34776,0.80915 0.45987,0.68297 0.10324,0.22532 0.17769,0.89373 0.0283,0.30556 -0.13594,-0.21141 0.10612,0.47794 0.18137,0.6057 0.12092,0.626 -0.017,-0.40869 -0.001,-0.48262 0.62435,1.82912 0.0813,3.98606 -1.35228,5.28717 -1.0331,0.96872 -2.47748,1.46694 -3.88774,1.35143 z m 1.11681,-0.0842 c 1.05726,-0.14246 2.07569,-0.6323 2.83881,-1.37917 0.10494,-0.18793 -0.36383,0.33121 -0.50369,0.34064 -0.3904,0.30462 -0.83395,0.62643 -1.3366,0.69052 0.24294,-0.0793 0.62058,-0.28794 0.90383,-0.44593 0.3901,-0.20279 0.75122,-0.54199 1.05049,-0.83683 0.10666,-0.10793 0.60988,-0.66597 0.36774,-0.59388 -0.64479,0.87611 -1.55544,1.57666 -2.60874,1.8772 -0.37087,0.19863 -1.14685,0.12376 -1.3196,0.26446 0.24416,-0.008 0.46875,0.0385 0.093,0.0621 -0.4538,0.068 -0.77117,-0.0802 -1.07339,-0.20422 -0.46697,-0.055 0.24996,0.34092 0.47502,0.24781 0.37053,0.0289 0.74446,0.0209 1.11318,-0.0227 z m -1.76548,-0.14312 c -0.19029,-0.22211 -0.33509,0.0772 -0.0672,-0.008 -0.0418,0.10014 0.24737,0.1198 0.0672,0.008 z m -0.27382,-0.0544 c -0.14265,-0.1072 -0.33635,0.0814 0,0 z m -0.28271,-0.0714 c -0.19267,-0.19483 -0.57285,-0.15601 -0.12514,-0.0158 0.02,0.008 0.26458,0.10543 0.12514,0.0158 z m 2.19192,-0.032 c 0.63956,-0.0806 1.27544,-0.28429 1.81328,-0.64181 -0.30586,-0.0265 -0.45229,0.21583 -0.64662,0.18302 -0.25298,-0.0133 0.44252,-0.27305 0.5486,-0.36187 0.39805,-0.21998 0.75685,-0.44363 1.02017,-0.80784 0.24716,-0.22503 0.45965,-0.56891 0.61187,-0.80907 0.0323,-0.24102 0.16108,-0.22403 0.18929,-0.21749 0.18942,-0.14436 -0.18875,-0.14668 0.14004,-0.2955 -0.17543,-0.14786 0.21522,-0.15596 0.0353,-0.40946 0.11432,-0.23629 0.0995,-0.98032 0.26664,-0.94648 -0.0173,0.45072 0.13836,-0.19837 0.17688,-0.32573 -0.0233,-0.44254 -0.0595,-0.80796 -0.15909,-1.23266 -0.024,-0.18621 -0.3337,-1.00682 -0.24072,-0.52002 0.18073,0.17916 0.1126,0.64497 9.7e-4,0.62969 -0.0409,-0.28445 -0.13549,-0.39916 -0.32905,-0.78376 0.18483,0.49239 0.38104,0.99147 0.37668,1.52849 0.13447,1.74561 -0.88093,3.52606 -2.4797,4.25784 -1.18473,0.57421 -2.63825,0.57212 -3.80797,-0.0424 -0.89699,-0.40172 -1.58398,-1.16933 -2.02755,-2.03382 -0.048,0.003 0.29724,0.57837 0.43483,0.77656 0.26026,0.38829 0.62951,0.68732 0.94273,1.02238 0.0586,-0.1383 0.45875,0.31829 0.15037,0.30023 -0.35152,-0.22272 -0.6071,-0.58069 -0.97366,-0.7698 -0.13531,-0.0857 -0.42975,-0.7318 -0.43873,-0.52507 0.88636,1.37144 2.56448,2.15083 4.18081,2.04896 0.0717,-0.007 0.1446,-0.0159 0.21458,-0.0244 z m -1.73067,-0.29909 c -0.30116,-0.2196 0.62502,0.0575 0.16094,0.0286 -0.0445,0.002 -0.14915,0.0498 -0.16094,-0.0286 z m 5.64326,-4.36278 c -0.0498,-0.21619 0.0176,-0.48599 0.0429,-0.10807 0.22376,-0.11392 0.1781,0.38374 0.0279,0.13677 0.01,0.12249 -0.0844,0.0324 -0.0708,-0.0287 z m -1.7896,3.84901 c 0.26667,-0.19413 0.8782,-0.70145 0.86383,-0.83079 -0.14113,0.13666 -0.39558,0.35468 -0.59752,0.45443 -0.11049,0.18441 -0.55334,0.38475 -0.53202,0.53367 0.0986,-0.0325 0.1796,-0.1023 0.26571,-0.15731 z m 1.07416,-1.06858 c 0.35511,-0.45916 -0.33424,0.26317 0,0 z m 0.70252,-0.48288 c 0.14743,-0.24819 0.14763,-0.36664 -0.0173,-0.048 -0.2036,0.11664 0.29913,-0.55922 0.21968,-0.69934 -0.18346,0.31964 -0.33021,0.68525 -0.53184,1.006 0.1924,0.0863 0.25452,-0.12584 0.32944,-0.25871 z m -0.30051,-0.13352 c 0.13747,-0.15238 0.23058,-0.57372 0.0155,-0.18583 -0.15521,0.25269 -0.14483,0.26171 -0.25863,0.43121 0.12986,0.0657 0.17947,-0.17924 0.24311,-0.24538 z m 0.63899,-0.64865 c 0.13356,-0.62212 -0.39921,0.92854 -0.085,0.2472 0.0325,-0.0809 0.0614,-0.16328 0.085,-0.2472 z m -9.01287,0.30579 c -0.0432,-0.22171 -0.27707,-0.69184 -0.14861,-0.21306 -0.01,0.0446 0.16261,0.4614 0.14861,0.21306 z m 8.63307,-0.22384 c 0.14434,-0.22042 0.24553,-1.02111 0.0189,-0.39815 0.0517,0.11747 -0.31449,0.86314 -0.0189,0.39815 z m -8.87961,-0.5364 c -0.0989,-0.32827 -0.17138,-0.84893 -0.0671,-1.08897 -0.0125,-0.35554 -0.0685,-0.71938 0.075,-1.12519 0.0899,-0.32635 0.22753,-0.8518 0.41914,-0.75083 -0.0138,0.0653 -0.30757,0.2836 -0.0108,0.1762 0.074,-0.16217 0.38524,-0.51712 0.11392,-0.47358 -0.033,-0.0216 0.0594,-0.32976 0.12703,-0.3743 0.048,-0.046 0.32345,-0.37323 0.17853,-0.30732 0.24308,-0.29067 0.58021,-0.29916 0.90776,-0.5839 0.38739,-0.21531 0.54378,-0.43332 0.87874,-0.51645 1.04065,-0.48226 2.26409,-0.53422 3.34568,-0.15839 0.18064,0.008 0.87808,0.41035 0.47985,0.17064 -0.32609,-0.28674 0.56915,0.25225 0.59278,0.26447 0.0212,-0.0722 -0.17773,-0.31137 0.11377,-0.0795 0.33357,0.37583 0.8108,0.61226 1.02364,1.08716 0.1977,0.0573 0.37059,0.51767 0.42229,0.48345 -0.15122,-0.34952 -0.26997,-0.43239 -0.49058,-0.70194 -0.0795,-0.10832 0.21946,0.15354 -0.036,-0.1367 -0.35428,-0.4176 -0.77825,-0.77504 -1.26438,-1.03297 -1.08645,-0.59753 -2.43402,-0.89779 -3.62644,-0.44396 -0.80726,0.25453 -1.59783,0.64475 -2.15067,1.30436 -0.68064,0.77325 -1.15709,1.75991 -1.20165,2.79891 0.0314,0.27441 -0.045,0.48549 -0.0244,0.83463 0.009,0.26156 0.0677,0.71606 0.21389,0.84777 0.0538,-0.0631 -0.0506,-0.13516 -0.02,-0.19363 z m 0.44587,-3.01237 c 0.0771,-0.06 -0.27649,0.0287 -0.0475,-0.1395 0.0626,0.0577 0.31187,-0.16474 0.10945,0.13163 0.003,0.0402 -0.0605,0.0488 -0.062,0.008 z m 6.46032,-1.87565 c -0.22978,-0.13411 -0.40444,-0.34766 -0.0505,-0.12455 0.0642,0.0114 0.21921,0.29345 0.0505,0.12455 z m -4.56307,-0.17011 c 0.0759,-0.28649 0.58914,-0.32138 0.28568,-0.0579 -0.19676,-0.04 -0.12507,0.17664 -0.28568,0.0579 z m 7.01601,5.14508 c -0.16469,-0.13521 -0.0565,0.28681 0,-3e-4 z m -0.21957,-0.64737 c -0.004,-0.50528 -0.12044,0.7604 -0.009,0.0824 z m -1.17133,-0.54883 c 0.14453,-0.20586 -0.0391,-0.40609 -0.006,-0.12264 0.0955,0.002 -0.22135,0.30505 0.006,0.12264 z m 0.14976,-0.36649 c -0.0866,-0.38613 0.0143,0.47813 0,0 z m -0.30882,-0.86175 c -0.0623,-0.43255 -0.0414,0.42487 0,0 z m -4.93519,-1.34208 c -0.16044,-0.26425 -0.15302,0.23129 0,0 z m -2.24684,-0.36773 c -0.20875,0.0445 -0.13502,0.30318 0,0 z m 2.20964,0.10687 c 0.22429,-0.15546 -0.43512,0.0248 10e-5,0.0325 v -0.0328 z m -0.0223,-0.16164 c 0.0579,0.14106 0.26086,-0.3486 0.0992,-0.26901 -0.0168,0.008 -0.20824,0.41282 -0.14475,0.0995 -0.26563,0.18363 -0.24087,0.20618 -0.009,0.18994 -0.10891,0.0573 0.0707,0.0602 0.0549,-0.0204 z m 0.35782,-0.175 c 0.11138,-0.27942 -0.13417,-0.26332 -0.0707,-0.10642 0.0596,0.0803 -0.0764,0.21919 0.0707,0.10644 z m -1.02723,-1.05887 c -0.34278,0.0723 -0.28141,0.24192 0,0 z m 4.49912,-0.1127 c -0.19334,-0.12382 -0.50754,-0.19829 -0.10364,-0.0118 0.0155,-0.004 0.22442,0.12988 0.10364,0.0118 z m -2.20791,-0.51382 c -0.18514,-0.11185 -0.36236,0.15029 0,0 z m 2.61977,0.68299 c -0.38507,-0.30511 0.44028,0.26627 0,0 z"
         id="path3107"
         inkscape:connector-curvature="0" />
      <path
         style="fill:#d31214;stroke-width:0.02980169"
         d="m -331.75022,585.6536 c -1.48161,-0.13209 -2.88415,-0.93172 -3.71739,-2.16961 -0.1962,-0.3016 -0.56768,-0.88908 -0.5477,-1.11498 0.59101,1.54854 1.97699,2.76918 3.60431,3.11607 1.82288,0.43386 3.85794,-0.25959 5.01271,-1.74046 0.92229,-1.16879 1.33319,-2.74323 0.99453,-4.20439 -0.0469,-0.18243 -0.20092,-0.8318 -0.0513,-0.34295 0.56218,1.86035 -0.0802,4.00332 -1.56895,5.25099 -1.01752,0.87629 -2.38943,1.3137 -3.72625,1.20533 z m -0.22318,-0.26411 c -1.9251,-0.25435 -3.5982,-1.76855 -4.04328,-3.6587 -0.25197,-1.09943 -0.14543,-2.29478 0.38441,-3.3002 0.59084,-1.19719 1.69163,-2.12144 2.98116,-2.47757 1.16975,-0.36106 2.47568,-0.23027 3.55999,0.33714 0.43225,0.13133 0.76034,0.52873 1.14065,0.81472 0.27189,0.26772 0.52538,0.55877 0.73225,0.8271 0.0978,0.0888 0.15033,0.32256 0.26378,0.41745 0.0587,0.20277 0.23027,0.55185 0.28578,0.87654 0.23865,0.8354 0.3117,1.73874 0.0479,2.57547 -0.348,1.36521 -1.3223,2.54658 -2.59657,3.14857 -0.84888,0.42671 -1.81851,0.54096 -2.75605,0.43948 z m 1.34163,-0.13286 c 0.38235,-0.0726 0.61709,-0.0742 0.82014,-0.1628 0.23682,-0.1514 0.70782,-0.31656 0.99855,-0.53075 1.29379,-0.79331 2.13537,-2.25967 2.19916,-3.77294 0.0768,-0.55304 -0.0873,-1.08977 -0.1937,-1.62645 -0.32679,-0.87612 -0.85606,-1.6988 -1.58973,-2.29152 -0.36316,-0.18632 -0.67349,-0.50784 -1.03463,-0.61271 -0.69476,-0.24574 -1.45318,-0.45532 -2.20712,-0.40097 -0.44227,-0.0139 -0.87142,0.18651 -1.28971,0.321 -0.41285,0.16609 -0.82446,0.35112 -1.19153,0.5933 -0.77371,0.60817 -1.35976,1.46401 -1.66289,2.40092 -0.23387,0.73371 -0.25391,1.51737 -0.15087,2.27561 0.25725,1.20386 0.94008,2.32772 1.97032,3.02094 0.60839,0.42735 1.33834,0.68185 2.07161,0.79378 0.4173,0.0575 0.84655,0.0527 1.2604,-0.007 z m -0.98454,-0.32719 c -0.71213,-0.0319 -1.39162,-0.30238 -2.00387,-0.653 -1.7667,-1.05745 -2.58621,-3.46741 -1.73059,-5.35997 0.17675,-0.5033 0.56002,-0.90733 0.80828,-1.35574 0.30717,-0.25332 0.67519,-0.54808 1.0789,-0.77254 1.66068,-0.98856 3.96172,-0.66211 5.27899,0.75239 0.17649,0.13042 0.49662,0.63544 0.5409,0.59732 -0.11743,-0.21876 -0.14548,-0.55456 0.0201,-0.14193 0.15325,0.0679 0.56384,0.66757 0.36967,0.54482 -0.12932,-0.0344 -0.24382,-0.0876 -0.10004,-0.19709 -0.17137,0.11723 -0.25202,-0.16886 -0.12216,0.15061 0.61208,1.12409 0.70932,2.51185 0.20802,3.69605 -0.42683,1.07494 -1.29014,1.99278 -2.38018,2.41012 -0.61016,0.26983 -1.30479,0.38548 -1.96803,0.32896 z m 0.13116,-0.60352 c 0.18676,-0.19462 0.16217,-0.0151 0.1915,0.009 0.23883,-0.14315 0.041,0.10482 0.28444,0.0432 0.004,-0.32581 0.26231,0.22334 0.28776,-0.0764 0.14138,0.20947 0.11684,-0.29011 0.25559,0.0608 0.11443,-0.11041 0.28865,-0.17161 0.36843,-0.0225 0.12456,-0.1523 0.41826,-0.21643 0.38279,-0.2756 0.21976,0.0359 0.26775,-0.25327 0.36451,-0.3045 -0.12804,-0.30891 0.26479,0.28508 0.1143,-0.11089 0.20537,0.0336 0.19822,-0.52229 0.0413,-0.17807 -0.0166,-0.0849 -0.16539,-0.29772 0.10204,-0.17579 0.18169,-0.0141 2.6e-4,-0.38852 0.18119,-0.56542 -0.23637,0.002 0.0315,-0.2925 -0.24927,-0.25113 0.16372,-0.18437 -0.0482,-0.35984 0.18935,-0.24725 0.0874,-0.0685 0.28805,-0.35035 0.39394,-0.6019 0.17005,-0.12104 0.1675,-0.33972 0.34019,-0.1363 0.22776,0.0273 -0.003,-0.24042 0.19884,-0.34516 0.004,0.16152 0.0556,0.37085 0.0742,0.0826 0.047,0.196 0.11438,-0.24819 0.11563,0.0948 -0.007,0.19074 -0.0245,0.87688 0.0936,0.42299 0.0926,-0.20099 -0.13909,0.0529 -0.0518,-0.28752 0.23786,0.17091 -0.0298,-0.17641 0.1123,-0.33364 0.009,-0.13248 0.20574,0.0699 0.0414,-0.16288 -0.11296,-0.0909 0.0554,-0.61888 0.003,-0.88378 -0.0259,-0.23741 -0.11519,0.0679 -0.11516,-0.28095 0.14726,-0.19187 -0.0167,-0.33875 0.0308,-0.63059 -0.14411,-0.25893 -0.21891,0.35439 -0.18805,-0.14659 -0.0268,-0.30337 -0.11225,-0.30681 -0.1059,0.0187 -0.0537,0.35835 -0.28672,-0.0951 -0.37339,-0.0393 0.0859,-0.30257 -0.17823,-0.29554 -0.18807,-0.0297 -0.1525,-0.14079 -0.094,-0.55604 -0.3212,-0.41114 -0.12162,-0.18293 -0.16775,0.24993 -0.20382,-0.0913 0.16282,-0.15411 -0.0647,-0.18859 0.0661,-0.41368 -0.0868,-0.15391 -0.48464,-0.30494 -0.18636,-0.41346 0.003,-0.27979 -0.3009,-0.11116 -0.24899,-0.31624 -0.0271,0.29589 0.27643,0.597 -0.0857,0.80562 -0.15445,-0.10207 0.12201,0.38549 -0.15656,0.0757 -0.1576,-0.17542 -0.42687,-0.0198 -0.41774,-0.13955 -0.14395,0.24676 -0.3089,-0.29214 -0.24414,0.0638 -0.27806,0.18198 -0.26451,-0.12129 -0.30511,-0.2816 -0.0483,-0.0456 0.0231,0.16463 -0.1349,0.0468 0.2938,0.25899 -0.1258,0.35291 -0.0512,0.50404 0.10299,0.34073 0.21254,0.70894 0.34261,1.10052 0.34731,0.23483 0.91819,0.0947 1.35439,0.12671 0.25081,-0.0532 0.30469,0.0838 0.18314,-0.20411 0.0663,-0.24996 0.16598,0.38509 0.1543,-0.0268 0.14489,-0.10436 -0.0187,0.10242 0.14653,0.11323 0.0257,0.26074 0.47328,0.0915 0.6872,0.14615 -0.0427,0.075 -0.27005,0.20945 -0.38395,0.30737 -0.26655,0.13461 -0.49641,0.50257 -0.59357,0.4826 -0.26575,0.26286 -0.94934,0.45384 -0.93409,0.85882 0.18643,0.62744 0.36056,1.26852 0.5774,1.88058 0.0937,0.2855 0.10858,0.4603 -0.18887,0.18624 -0.3546,-0.22911 -0.68532,-0.51234 -1.02991,-0.74107 -0.32212,-0.19836 -0.74241,-0.59231 -1.02797,-0.43488 -0.13308,-0.17279 -0.0316,0.21401 -0.15064,-0.0316 0.0183,-0.16935 -0.20142,0.36444 -0.0771,0.35456 -0.0261,0.0458 -0.56433,0.19524 -0.1527,0.19784 0.10067,0.12655 0.20416,-0.0648 0.23359,0.13009 -0.26575,-0.0369 0.0494,0.2866 0.11734,0.20038 -0.14345,0.10424 -0.12995,0.17895 -0.20985,0.095 0.10439,0.28643 -0.13555,0.28107 -0.17012,0.28124 -0.13502,-0.13277 -0.0288,-0.91775 -0.17538,-0.51188 0.12995,0.0892 -0.0524,0.38378 -0.0236,0.39169 0.0564,0.0182 -0.007,0.33157 -0.11252,0.41614 -0.005,-0.32453 -0.0888,0.15199 -0.1448,-0.0273 -0.01,0.26257 0.23122,0.14347 0.15327,0.27942 0.22707,-0.0373 -0.23927,0.23804 0.0161,0.086 0.0757,0.2488 0.32314,0.26375 0.44034,0.009 -0.12265,0.12187 0.26485,0.4878 0.36338,0.25881 z m -0.58084,-0.53414 c -0.0444,-0.27076 -0.0128,-0.42926 0.0944,-0.0978 0.15592,0.2462 -0.0926,-0.34246 0.11338,0.0783 -0.0379,0.17481 -0.2327,-0.23524 -0.15093,0.0977 -0.0444,0.11793 -0.0903,-0.0404 -0.0568,-0.0782 z m 0.25136,-0.38284 c 0.0925,-0.29268 0.11389,0.11512 0,10e-5 z m 2.7081,-1.43626 c -0.19663,-0.19728 -0.0347,-0.42879 0.0221,-0.19188 -0.0936,0.0716 0.19572,0.42405 -0.0221,0.19188 z m 1.2918,-0.73121 c 0.0997,-0.24974 0.0542,0.23765 0,0 z m -0.0944,-0.27513 c -0.19684,-0.0846 0.22979,-0.2462 0.0365,-0.0227 -0.0175,-0.003 -0.0335,0.0802 -0.0365,0.0227 z m -1.64648,-1.40187 c -0.25658,-0.46693 0.26043,0.079 0,0 z m 0.57973,-0.66535 c -0.48965,-0.19323 0.33672,-0.0107 0,0 z m -0.94108,-0.5551 c -0.10415,-0.30466 0.29924,0.16742 3e-5,-7e-5 z m -0.13474,-0.008 c -0.17833,-0.11579 0.24488,-0.063 0.005,0.0256 l -0.005,-0.0254 z m 0.82419,-0.11045 c 0.14983,-0.20054 -0.0415,-0.067 -0.0738,-0.28168 0.10335,-0.0655 0.34357,0.30904 0.0737,0.28156 z m -3.40266,5.89287 c 0.0314,-0.14768 -0.051,-0.33793 -0.062,-0.36971 -0.0793,-0.047 0.20113,-0.21024 0.134,-0.3611 -0.0195,0.22191 0.1144,0.38649 0.1832,0.0934 0.016,-0.22801 -0.19889,0.17081 -0.0568,-0.18248 0.15499,0.0105 -0.18055,-0.20161 -0.0961,0.005 -0.14023,-0.11856 0.0474,-0.46034 -0.23413,-0.19117 -0.23476,0.13445 -0.78035,0.67533 -0.52013,0.0921 0.20093,-0.68933 0.42709,-1.37191 0.60401,-2.06785 -0.62229,-0.52569 -1.30927,-0.97267 -1.92728,-1.50296 0.8129,-0.0331 1.62748,0.007 2.44106,0.013 0.18885,-0.59236 0.43524,-1.18398 0.59376,-1.79242 0.0773,-0.21034 0.41375,-0.93676 -0.10462,-0.59885 -0.31437,0.10574 -0.24159,0.008 0.0146,-0.0585 -0.16796,-0.10289 -0.28264,-0.16982 -0.4137,-0.15025 0.004,-0.0997 -0.37064,0.0164 -0.31338,0.0308 -0.18149,0.34148 -0.10314,-0.17884 -0.34498,0.009 -0.32583,-0.2101 -0.17877,0.48076 -0.55671,0.30408 0.003,0.26573 -0.18756,0.0162 -0.1706,0.277 -0.13736,-0.1378 -0.48864,-0.1716 -0.32476,-0.012 -0.002,0.26 -0.19971,-0.22503 -0.33686,0.10716 -0.25746,0.27979 -0.20241,0.33345 -0.38398,0.70897 -0.14944,-0.0115 -0.0692,-0.32281 -0.21772,0.0132 -0.044,0.28069 0.11815,-0.2516 0.12458,0.0537 -0.0944,0.1063 0.20337,0.0105 0.0521,0.1795 -0.22641,-0.10829 -0.38535,0.29577 -0.27983,0.46356 -0.16266,0.27782 0.006,-0.31867 -0.19381,-0.12935 -0.0467,0.14428 -0.16208,0.58256 -0.0481,0.23922 -0.002,0.24736 0.0172,0.52503 0.002,0.7522 0.0778,0.1229 -0.009,0.19338 -0.0932,0.33662 0.14733,0.0392 -0.18196,0.17257 0.13929,0.10858 -0.2233,0.15306 -0.24513,0.3483 -0.008,0.43476 -0.061,-0.12572 -0.0172,0.2634 0.0268,0.25898 0.26385,0.10484 -0.24437,0.25145 -0.0594,0.10076 -0.19691,-0.28185 -0.24561,0.0864 -0.12904,0.16024 -0.0774,-0.39374 0.13475,-0.02 0.14409,0.004 -0.26877,0.0219 -0.0528,0.39338 -0.007,0.37213 0.12119,-0.1658 0.27438,0.4025 0.33927,0.0662 -0.0499,0.20932 -0.0241,0.28847 0.048,0.15203 0.0292,0.2585 0.0815,0.36255 0.0756,0.51003 -0.0299,0.19257 0.11605,0.34681 0.11879,0.20828 0.0764,0.26944 0.27775,0.4476 0.42829,0.54412 0.0876,-0.0954 0.0749,0.0613 0.23988,0.0136 -0.2696,0.18576 0.38005,0.0717 0.0958,0.2581 0.19502,0.0889 0.25998,-0.16109 0.28363,0.13629 0.17719,-0.0514 0.15513,0.0553 0.34625,0.006 0.0962,0.35799 0.3561,-0.383 0.39315,-0.20684 0.01,0.11699 -0.38387,0.37296 -0.0604,0.37204 0.0326,0.0329 0.0658,0.39188 0.11377,0.23948 z m -0.28514,-0.76156 c 0.2504,-0.61787 -0.0181,0.36207 0,0 z m -0.43196,-1.51828 c 0.24528,-0.1454 0.13626,0.14243 0,0 z m -1.79044,-1.07698 c -0.0584,-0.29625 0.2045,0.14046 0,0 z m 0.60745,-1.60694 c -0.12731,-0.41261 0.16232,0.26217 0,-10e-6 z m 1.9781,-0.069 c 0.0715,-0.24846 0.59585,-0.58942 0.17664,-0.19012 -0.0582,0.0213 -0.12102,0.20343 -0.17664,0.19012 z m 0.0496,-1.76759 c 0.0419,-0.35226 0.13716,0.20982 0,0 z m 0.96642,-0.0151 c -0.0647,-0.0412 0.14926,-0.0694 0.12655,-0.0539 0.0224,0.0739 -0.0621,0.15387 -0.12655,0.0539 z m -1.35344,-0.13574 c 0.13253,-0.25688 0.0571,0.21226 -10e-5,-4e-5 z m -0.0432,6.83094 c -0.12225,-0.40439 -0.0421,0.22991 0,0 z m 0.70641,-0.548 c -0.1179,-0.11007 -0.0769,-0.30897 -0.10794,-0.006 0.0607,0.0442 0.0989,0.003 0.10794,0.006 z m -0.0847,-0.29846 c 0.0657,-0.07 0.11432,-0.42239 -0.0902,-0.12578 -0.0328,0.25727 0.0521,0.062 0.0902,0.12578 z m -2.01244,-0.0162 c -0.0571,-0.35251 -0.14835,0.13668 0,0 z m 5.48573,-0.15529 c 0.0513,-0.0588 -0.0625,-0.167 -0.0623,0.0406 0.0389,0.008 0.18636,0.0934 0.0623,-0.0406 z m 0.12671,-0.25598 c 0.1304,-0.16443 -0.2932,-0.31669 -0.075,-0.0977 0.0878,0.007 -0.15067,0.19837 0.075,0.0977 z m -0.14874,-0.35744 c -0.025,-0.0413 -0.0728,0.0696 -0.12218,0.002 10e-6,0.10897 0.16061,0.14227 0.12218,-0.002 z m 1.04649,-0.0845 c -0.11871,-0.13836 0.1967,-0.13332 -0.023,-0.1878 -0.0317,0.0257 -0.0713,0.27186 0.023,0.1878 z m -0.38959,-3.39882 c -0.0674,-0.11235 0.16146,-0.15731 -0.0196,-0.21328 -0.14432,-0.15215 -0.40051,0.0194 -0.19874,0.0333 0.18535,10e-4 -0.0402,0.30027 0.2183,0.18 z m -0.0657,-0.41484 c -0.22908,-0.1348 -0.32113,0.13554 0,0 z m -2.62079,-0.32524 c -0.0945,-0.0955 -0.12522,-0.20281 0.0156,-0.2236 -0.28308,-0.044 0.004,-0.39943 -0.27931,-0.39756 -0.12557,-0.58964 0.0253,0.41707 0.1632,0.57451 0.024,0.0585 0.0824,0.23209 0.10054,0.0466 z m 0.4544,-0.0435 c -0.24157,-0.46576 -0.15927,0.004 0,0 z m -0.22755,-0.30286 c 0.082,-0.30645 -0.23826,-0.31402 0,0 z m -2.96267,-0.30112 c -0.11753,-0.38078 0.0154,0.31151 0,0 z m 0.5222,-0.15115 c 0.22957,-0.0826 -0.026,-0.0886 -0.0643,-0.0507 -0.0931,-0.12246 -0.0127,0.19206 0.0643,0.0507 z m 1.62937,-0.23193 c 0.11809,-0.11276 -0.0826,-0.0577 -0.15779,-0.0944 -0.20274,0.0548 0.307,-0.41401 0.0158,-0.22312 -0.11517,-0.128 -0.076,0.32026 -0.25356,0.25722 0.38205,-0.01 0.17305,0.0841 0.31989,0.0891 l 0.0758,-0.0289 z m -0.33615,-0.18387 c -0.14647,-0.19573 -0.35575,-0.19542 -0.0511,0.0153 0.0127,0.022 0.0584,0.0165 0.0511,-0.0153 z m -2.38808,7.14441 c -0.34665,-0.27237 0.36729,0.14086 0,0 z m -0.74531,-0.81537 c -0.094,-0.13985 -0.3842,-0.58244 -0.0789,-0.29087 -0.006,0.0415 0.32701,0.52153 0.0789,0.29087 z m -0.85418,-3.6246 c 0.0582,-0.3455 0.1454,-0.17222 0.0397,0.0413 -0.004,0.0138 -0.0591,-0.0337 -0.0397,-0.0413 z m 0.2083,-0.36157 c -0.24812,-0.291 0.20848,0.13214 10e-5,-2.9e-4 z m 0.55257,-1.13955 c 1.1e-4,-0.37756 0.25585,-0.10359 0,0 z m 6.76478,-0.86428 c -0.41041,-0.26302 0.20082,-0.021 0.0584,0.0493 l -0.0584,-0.0492 z m -5.56013,7.56388 c -0.33459,-0.16399 0.43648,0.099 4e-4,0 z m -1.69426,-1.66529 c -0.20921,-0.38293 0.35622,0.35789 0,0 z m -0.8483,-2.88748 c 0.0762,-0.58443 0.0131,0.57845 0,3e-5 z"
         id="path3105"
         inkscape:connector-curvature="0" />
      <path
         style="fill:#912422;stroke-width:0.02980169"
         d="m -331.75022,585.6536 c -1.65954,-0.13748 -3.25795,-1.17786 -4.00264,-2.63986 0.61852,0.95528 1.45423,1.81256 2.53414,2.23039 1.54053,0.63599 3.39089,0.45274 4.76025,-0.50591 1.06262,-0.72264 1.78648,-1.87539 2.08648,-3.11175 -0.36366,2.06287 -2.20181,3.74127 -4.27339,3.99311 -0.36545,0.0505 -0.7371,0.0696 -1.10484,0.034 z m -0.38685,-0.30762 c -0.55682,-0.10769 -1.14491,-0.26794 -1.5727,-0.65156 0.49176,0.19418 0.9705,0.44793 1.50307,0.52737 0.31364,0.079 0.68706,0.10385 0.97252,0.17161 -0.30072,0.0235 -0.60569,10e-4 -0.90289,-0.0474 z m 1.65919,-0.0206 c 0.0704,-0.15097 0.40669,-0.04 0.55198,-0.1263 -0.14726,0.0623 -0.46107,0.15897 -0.55198,0.1263 z m 0.66193,-0.20208 c 0.4276,-0.2433 0.52346,-0.16307 0.8825,-0.4719 1.33681,-0.74098 2.18731,-2.20071 2.33715,-3.7016 0.1124,-0.29443 -0.10193,-0.96576 0.0673,-1.02795 0.22453,1.56038 -0.36279,3.21692 -1.55836,4.25411 -0.43003,0.38128 -0.92531,0.73011 -1.4784,0.88858 -0.0194,0.0153 -0.39225,0.18136 -0.25021,0.0588 z m -1.80036,-0.19388 c -0.71213,-0.0319 -1.39162,-0.30238 -2.00387,-0.653 -1.77525,-1.05458 -2.56295,-3.47675 -1.71584,-5.366 0.5171,-1.28249 1.68066,-2.24758 3.0186,-2.56971 1.50675,-0.36656 3.19202,0.14195 4.22456,1.30546 0.87199,0.9202 1.25438,2.24588 1.1128,3.49333 -0.19332,1.18467 -0.81506,2.31422 -1.81645,3.001 -0.81058,0.56845 -1.82981,0.87298 -2.8198,0.78892 z m 1.00931,-0.37634 c 0.38883,-0.0793 0.95906,-0.28883 1.16063,-0.41914 0.27587,-0.0917 0.1987,-0.28136 0.42315,-0.24771 0.30044,-0.26111 0.62607,-0.43223 0.76879,-0.81041 0.25295,-0.0725 -0.014,-0.21018 0.23424,-0.20725 0.2718,-0.35657 0.32218,-0.66029 0.48273,-1.00383 0.0951,-0.23108 0.12438,-0.78623 0.24546,-0.51882 -0.0996,-0.30921 0.0809,-0.15118 0.0141,-0.50597 -0.0159,-0.52269 -0.0505,-1.06146 -0.25266,-1.54935 -0.14139,-0.0279 -0.15071,-0.0998 -0.0348,-0.13628 -0.16498,-0.30144 -0.21094,-0.4618 -0.40439,-0.78566 -0.3045,-0.36131 -0.40124,-0.60549 -0.79106,-0.82091 0.0606,-0.12206 -0.25533,-0.24474 -0.0917,-0.008 -0.24417,0.34932 0.0684,-0.32036 -0.2167,-0.23861 -0.20331,-0.12334 0.11882,-0.0341 -0.10988,-0.13525 -0.0937,-0.0313 -0.521,-0.33367 -0.49295,-0.15213 0.0113,-0.2589 -0.4341,-0.10399 -0.49908,-0.32501 0.026,0.31158 -0.68343,-0.0373 -0.46913,0.12849 0.0444,-0.0258 0.28099,0.25845 -0.0408,0.0916 -0.25144,-0.0401 -0.38777,-0.39356 -0.61097,-0.20717 -0.25013,-0.11502 -0.15444,-0.0998 -0.48962,-0.0959 -0.14963,0.18404 -0.49415,0.059 -0.5931,0.0948 -0.26255,0.0633 -0.15363,0.20167 -0.40637,0.13514 -0.35426,0.15704 -0.73557,0.34436 -1.04791,0.60005 -1.33572,1.06164 -1.90205,3.0305 -1.21338,4.61405 0.42535,1.15214 1.42853,2.04249 2.59608,2.39297 0.0371,-0.10634 0.4095,-0.19044 0.14465,-0.0353 0.19636,0.1222 0.23444,0.11425 0.41481,0.11835 0.13427,-0.0989 0.29666,0.22033 0.61215,0.0867 0.22303,-0.007 0.44961,-0.0256 0.66771,-0.0597 z m 0.74641,-1.41817 c -0.3724,-0.28739 -0.70583,-0.55104 -1.10918,-0.78456 -0.22932,-0.34695 -0.59019,-0.0481 -0.77398,-0.34263 -0.0802,0.52667 -0.5589,0.76184 -0.95075,1.04429 -0.24628,0.15185 -0.84807,0.7163 -0.557,0.0902 0.20894,-0.6705 0.41881,-1.33998 0.60222,-2.01812 -0.64954,-0.50018 -1.30875,-0.98771 -1.95774,-1.48857 0.82052,-0.004 1.64104,0.008 2.46155,0.012 0.14453,-0.37871 0.2558,-0.77668 0.40845,-1.14799 0.0253,-0.23887 0.29979,-0.15716 0.11016,-0.40463 0.10076,-0.26732 0.17053,-0.56625 0.29859,-0.80864 0.30463,0.66926 0.48865,1.39265 0.73331,2.08806 0.0232,0.20788 0.12645,0.3094 0.33926,0.26547 0.74037,0.0385 1.48242,0.007 2.22273,0.0347 -0.64232,0.50794 -1.30988,0.98331 -1.95444,1.48854 0.22728,0.77204 0.452,1.54212 0.69567,2.30926 -0.0745,0.0999 -0.43057,-0.27974 -0.56885,-0.33737 z m 1.78805,-0.91932 c -0.14774,-0.44987 0.0784,-0.0668 0,0 z m -0.29519,-0.4419 c -0.0847,-0.3236 0.1897,-0.0681 0,0 z m -2.31442,-4.65717 c -0.17457,-0.12 -0.13666,-0.31912 0.0212,-0.0783 0.0224,-0.14398 0.0416,0.19252 -0.0218,0.0784 z m -3.1062,7.57162 c -0.10148,0.0325 -0.72474,-0.58515 -0.45066,-0.29168 -0.25289,-0.16153 -0.55124,-0.51442 -0.81339,-0.78957 -0.29394,-0.32674 -0.46117,-0.73929 -0.66771,-1.08179 -0.35278,-0.79396 -0.49671,-1.70009 -0.35002,-2.5524 0.0272,-0.48636 0.19369,-0.96939 0.39934,-1.41619 0.13846,-0.16263 0.3592,-0.75065 0.63236,-1.00152 0.43892,-0.56411 1.02719,-1.03981 1.68141,-1.31114 0.21078,-0.16258 0.76404,-0.21978 0.24902,-0.015 -0.54424,0.22125 -1.08746,0.46259 -1.47677,0.9252 -0.89071,0.93437 -1.48252,2.19921 -1.42971,3.50805 -0.0255,0.95016 0.35151,1.86668 0.84042,2.66377 0.36954,0.5155 0.86293,0.91483 1.36594,1.29155 0.13773,-0.0232 -0.021,0.16598 0.0198,0.0707 z m -2.12392,-1.97539 c -0.1195,-0.23379 -0.15898,-0.42361 -0.005,-0.0862 0.12442,0.22634 0.16352,0.44431 0.005,0.0862 z m 9.55348,-1.17284 c 0.0186,-0.39696 0.10553,-0.2217 0,0 z m 0.0949,-0.92521 c 0.0155,-0.54392 0.0147,0.56745 5e-5,0 z m -10.11046,-0.33577 c 0.0762,-0.58443 0.0131,0.57845 0,3e-5 z m 9.73478,-0.4352 c -0.0836,-0.48792 -0.21383,-0.97201 -0.47009,-1.40408 -0.26715,-0.48294 -0.57333,-0.96703 -1.00228,-1.32097 0.0854,-0.093 -0.20134,-0.16758 0.0684,-0.0584 0.31135,0.33857 0.7632,0.71373 0.96541,1.18503 0.21929,0.45403 0.3992,0.93707 0.48484,1.43119 0.11602,0.12841 -0.0264,0.1451 -0.0463,0.16726 z m -1.70696,-2.99149 c -0.19835,-0.11994 -0.4469,-0.25485 -0.62356,-0.45234 0.20042,0.13646 0.82371,0.47739 0.69432,0.52211 l -0.0712,-0.0703 z m -1.01562,-0.61345 c -0.34834,-0.22114 0.38401,0.11407 0,0 z m -0.29014,-0.0791 c -0.17486,-0.12712 0.42711,0.0498 0,0 z m -0.2657,-0.11351 c -0.37504,-0.0606 -0.77989,-0.17555 -1.13152,-0.22782 -0.21637,0.0187 -0.4887,-0.0584 -0.11656,-0.0505 0.43916,0.0147 0.9482,0.0753 1.31187,0.26824 0.0589,0.14039 -0.0926,-0.0187 -0.0638,0.0101 z m -2.61084,-0.039 c 0.12441,-0.25694 1.14643,-0.2147 0.44514,-0.11003 -0.1164,-0.0213 -0.42702,0.17854 -0.44514,0.11003 z"
         id="path3103"
         inkscape:connector-curvature="0" />
      <path
         style="fill:#602521;stroke-width:0.02980169"
         d="m -331.86925,585.64006 c -1.20092,-0.14102 -2.3466,-0.70619 -3.16168,-1.60383 -0.13495,-0.11127 -0.5244,-0.64617 -0.17013,-0.24121 1.32073,1.634 3.72103,2.28956 5.67736,1.50476 0.48912,-0.17447 0.92615,-0.45777 1.36125,-0.73358 -1.03596,0.81671 -2.39228,1.22125 -3.7068,1.07386 z m 0.17111,-0.25652 c -0.25113,-0.14531 0.473,0.0736 4e-5,10e-5 z m -0.42405,-0.0528 c -0.19831,-0.014 -0.91186,-0.24108 -0.34222,-0.13631 0.22326,0.0319 0.99486,0.23284 0.34222,0.13638 z m 0.63172,-0.39158 c -0.51009,-0.0524 -1.02973,-0.11303 -1.48858,-0.36335 -1.77618,-0.64467 -2.87243,-2.61246 -2.66772,-4.46417 0.18274,-1.65095 1.37377,-3.17581 2.97941,-3.65949 1.5774,-0.54264 3.4394,-0.0539 4.5583,1.18203 1.24225,1.32258 1.52932,3.46924 0.58743,5.03755 -0.36182,0.73408 -0.9925,1.32649 -1.70285,1.72689 -0.68016,0.36568 -1.45248,0.55478 -2.22377,0.55354 l -0.0419,-0.0131 z m 1.01984,-0.39498 c 0.27154,-0.0352 0.88081,-0.37102 0.90579,-0.21211 0.19547,-0.31682 0.68298,-0.46119 0.95497,-0.68643 0.28606,-0.3882 0.65458,-0.72647 0.8606,-1.17477 0.19515,-0.27918 0.23838,-0.86314 0.41814,-1.0542 0.0881,0.25753 0.2147,-0.6562 0.0965,-0.62145 -0.058,-0.23347 -0.0146,-0.63966 0.0322,-0.13911 0.0879,-0.13847 -0.1789,-0.83495 -0.23902,-1.17362 -0.24376,-0.77811 -0.67696,-1.52421 -1.32671,-2.02928 -0.19784,-0.24399 -0.57036,-0.4125 -0.86944,-0.56909 -0.11708,-0.0622 -0.50724,-0.11298 -0.18856,-0.15695 -0.45527,-0.0985 -0.84244,-0.0433 -1.21034,-0.16794 -0.37762,0.0326 -0.80848,-0.0521 -1.19374,0.0781 -0.4122,0.0633 -0.70988,0.23719 -1.09268,0.4475 -0.41966,0.19837 -0.72943,0.56213 -1.08396,0.83906 -0.21709,0.37753 -0.52365,0.80585 -0.67884,1.25456 -0.0777,0.31675 -0.20942,0.50382 -0.22958,0.50395 0.0792,0.42785 -0.16443,0.75019 -0.0349,1.0783 -0.0441,0.43173 0.11906,0.76135 0.25708,1.20061 0.45908,1.29877 1.6166,2.29886 2.96322,2.58136 0.53967,0.12352 1.11781,0.0867 1.65916,0.002 z m 0.97292,-1.17233 c -0.22651,-0.13195 -0.19684,-0.20417 -0.12214,-0.30415 -0.0955,-0.39888 0.30496,-0.009 0.25923,0.22079 0.10346,0.29292 0.0255,0.18306 -0.13709,0.0834 z m -3.8191,0.0446 c 0.0307,-0.25314 0.23633,-0.73226 0.42327,-0.50181 0.14254,-0.0575 -0.0162,0.17738 0.23624,0.0437 0.45804,-0.26978 -0.38651,0.31442 -0.52497,0.41547 -0.0274,0.006 -0.16823,0.14951 -0.13454,0.0426 z m 4.18529,1.38195 c 0.17367,-0.13461 0.74385,-0.44951 0.28023,-0.12453 -0.0851,0.0343 -0.19994,0.12364 -0.28023,0.12453 z m 0.53565,-0.29978 c 0.4029,-0.32885 0.75763,-0.713 1.13802,-1.06353 -0.20785,0.35326 -0.55336,0.65142 -0.88664,0.9062 -0.0201,0.0788 -0.19541,0.14697 -0.25138,0.15733 z m 0.86298,-0.34079 c 0.46904,-0.49411 0.82889,-1.08504 1.12265,-1.69586 -0.23864,0.63133 -0.6318,1.20882 -1.10342,1.69201 l -0.0193,0.004 z m -7.79548,-0.75094 c -0.35676,-0.57554 0.31235,0.37438 0.0478,0.0689 z m 8.10113,-0.0265 c 0.12461,-0.38051 0.44335,-0.70169 0.53533,-1.13217 0.17438,-0.2376 0.18469,-0.83423 0.32767,-0.90572 -0.0833,0.59976 -0.30532,1.18464 -0.60418,1.71576 -0.0738,0.1173 -0.17115,0.26625 -0.25882,0.32213 z m -8.38195,-1.21375 c -0.11576,-0.15056 -0.1517,-0.74881 -0.0461,-0.28065 0.0114,0.0476 0.2008,0.60203 0.0461,0.28065 z m 9.54396,-1.56689 c 0.0161,-0.39493 0.0161,0.39566 0,0 z m -8.92454,-2.79801 c 0.14336,-0.27301 0.29,-0.25602 0.0436,0.003 -0.0118,0.073 -0.10908,0.13222 -0.0436,-0.003 z m 2.79101,-1.87398 c 0.14398,-0.0903 0.7053,-0.13001 0.24023,-0.0384 -0.0734,0.003 -0.17369,0.0599 -0.24023,0.0384 z"
         id="path3101"
         inkscape:connector-curvature="0" />
      <path
         style="fill:#221a17;stroke-width:0.02980169"
         d="m -331.40003,585.6519 c 0.36687,-0.007 0.12545,0.0219 0,0 z m -0.0972,-0.72664 c -0.5718,5.4e-4 -1.12075,-0.17498 -1.63123,-0.42328 -0.87253,-0.34421 -1.58766,-1.05398 -2.01823,-1.88289 -0.63001,-1.19024 -0.69592,-2.67394 -0.0956,-3.8891 0.62195,-1.365 2.01138,-2.33934 3.50438,-2.46069 0.74571,-0.0544 1.51058,0.0174 2.19257,0.34304 1.01006,0.45253 1.86167,1.29878 2.25095,2.34098 0.1145,0.31474 0.27878,0.72316 0.2251,1.05245 0.0879,0.33418 0.11389,0.65017 0.0698,1.06979 -0.10045,0.86778 -0.48475,1.68535 -1.03107,2.35805 -0.76553,0.8786 -1.88588,1.42234 -3.0484,1.48795 -0.13943,0.0109 -0.27923,0.0317 -0.4183,0.004 z m 0.81835,-0.24488 c 0.26871,0.008 0.51966,-0.16115 0.7972,-0.22467 0.30855,-0.10197 0.66754,-0.22688 0.87172,-0.45633 0.19896,-0.0834 0.36958,-0.21485 0.56642,-0.41497 0.29371,-0.26712 0.54472,-0.58439 0.73796,-0.94652 0.32476,-0.57399 0.54501,-1.21003 0.54624,-1.87511 0.0232,-0.49354 -0.0281,-1.01164 -0.22539,-1.45771 -0.0856,-0.338 -0.22975,-0.61176 -0.4541,-0.88418 0.0628,0.25196 -0.0757,-0.2008 -0.11592,-0.10949 -0.0267,-0.36598 -0.47023,-0.67381 -0.65658,-0.89559 -0.21219,-0.22155 -0.56161,-0.35042 -0.79108,-0.56107 -0.23165,-0.0374 -0.61958,-0.30223 -0.94546,-0.32714 -0.27972,-0.0428 -0.50087,-0.007 -0.6149,-0.0444 -0.30377,0.10497 -0.71035,-0.0409 -1.03054,0.0481 -0.043,-0.0839 -0.41421,0.014 -0.61495,0.11715 -0.22308,0.23774 -0.007,-0.12036 -0.1964,0.10535 -0.18647,0.008 -0.0788,0.16343 -0.2784,0.0718 -0.24426,0.0878 -0.38367,0.22766 -0.61583,0.33867 -0.21461,0.087 -0.29162,0.32171 -0.45296,0.3529 -0.27304,0.2658 -0.5706,0.56677 -0.74499,0.93483 -0.37444,0.64807 -0.62661,1.38311 -0.58656,2.13987 -0.0136,0.65896 0.14351,1.32415 0.50581,1.87919 0.18451,0.29735 0.40531,0.71788 0.69194,0.99005 0.16078,0.12179 0.50946,0.47514 0.59376,0.44042 -0.0799,-0.13236 0.2704,0.32561 0.44737,0.32505 0.25876,0.10508 0.1447,-0.006 0.38007,0.1605 0.27354,0.21533 0.5807,0.18806 0.90334,0.2891 0.26023,-0.1006 0.68708,0.023 1.02378,0.0235 0.078,-0.007 0.19525,0.0334 0.25845,-0.0193 z"
         id="path3099"
         inkscape:connector-curvature="0" />
    </g>
  </g>
</svg>
