<?xml version="1.0" encoding="UTF-8" standalone="no"?>
<!-- Created with Inkscape (http://www.inkscape.org/) -->

<svg
   xmlns:dc="http://purl.org/dc/elements/1.1/"
   xmlns:cc="http://creativecommons.org/ns#"
   xmlns:rdf="http://www.w3.org/1999/02/22-rdf-syntax-ns#"
   xmlns:svg="http://www.w3.org/2000/svg"
   xmlns="http://www.w3.org/2000/svg"
   xmlns:sodipodi="http://sodipodi.sourceforge.net/DTD/sodipodi-0.dtd"
   xmlns:inkscape="http://www.inkscape.org/namespaces/inkscape"
   width="324.99997"
   height="325.00003"
   viewBox="0 0 85.989578 85.989594"
   version="1.1"
   id="svg1409"
   inkscape:version="0.92.3 (2405546, 2018-03-11)"
   sodipodi:docname="togowa.svg">
  <defs
     id="defs1403" />
  <sodipodi:namedview
     id="base"
     pagecolor="#ffffff"
     bordercolor="#666666"
     borderopacity="1.0"
     inkscape:pageopacity="0.0"
     inkscape:pageshadow="2"
     inkscape:zoom="2.1149357"
     inkscape:cx="107.40054"
     inkscape:cy="154.09564"
     inkscape:document-units="mm"
     inkscape:current-layer="g2286"
     showgrid="false"
     fit-margin-top="0"
     fit-margin-left="0"
     fit-margin-right="0"
     fit-margin-bottom="0"
     units="px"
     inkscape:window-width="1920"
     inkscape:window-height="1017"
     inkscape:window-x="1912"
     inkscape:window-y="-8"
     inkscape:window-maximized="1" />
  <metadata
     id="metadata1406">
    <rdf:RDF>
      <cc:Work
         rdf:about="">
        <dc:format>image/svg+xml</dc:format>
        <dc:type
           rdf:resource="http://purl.org/dc/dcmitype/StillImage" />
        <dc:title></dc:title>
      </cc:Work>
    </rdf:RDF>
  </metadata>
  <g
     inkscape:label="Layer 1"
     inkscape:groupmode="layer"
     id="layer1"
     transform="translate(-6.719889,-2.145143)">
    <g
       id="g2286">
      <path
         style="fill:#000000;fill-opacity:1;stroke:none;stroke-width:0.02645833;stroke-miterlimit:4;stroke-dasharray:none;stroke-opacity:1"
         d="m 49.764481,2.1451758 c -1.487206,-0.00105 -2.980151,0.023114 -3.521122,0.072422 -1.890782,0.1722894 -4.336516,0.5262119 -4.951325,0.7168135 -0.111471,0.034557 -0.258619,0.1138314 -0.326921,0.1760316 -0.08089,0.073654 -0.137603,0.091314 -0.162667,0.050747 -0.0537,-0.086924 -0.436472,-0.078602 -0.460011,0.010045 -0.08764,0.329946 -0.137076,0.4213312 -0.238719,0.4392861 -0.160312,0.028329 -0.314299,0.2401437 -0.315829,0.4340001 -8.12e-4,0.113771 -0.07934,0.2434825 -0.258262,0.4276564 -0.233209,0.2400464 -0.260341,0.2979868 -0.296287,0.6338196 -0.04181,0.3905878 -0.09953,0.4915408 -0.189075,0.331447 -0.06927,-0.1238538 -0.242418,-0.063378 -0.242418,0.084579 0,0.096498 0.03553,0.106118 0.304209,0.082465 0.167215,-0.014718 0.361477,-0.062987 0.432021,-0.1073108 0.07054,-0.044326 0.198164,-0.080879 0.283613,-0.080879 0.08544,0 0.588225,-0.1027286 1.117019,-0.2283654 2.447286,-0.5814192 5.783751,-1.0267844 8.142357,-1.08685 2.482953,-0.06323 5.683594,0.2784092 8.744442,0.9330207 4.940994,1.0567101 10.424751,3.3603122 14.506464,6.0939724 1.05207,0.704608 1.949578,1.332084 2.197069,1.53618 0.111938,0.09231 0.227143,0.168102 0.25615,0.168102 0.08689,0 1.886902,1.512618 3.102302,2.607171 1.022398,0.920744 2.437878,2.472344 3.434504,3.765386 0.208766,0.27085 0.449603,0.557857 0.535536,0.63752 0.08592,0.07967 0.197093,0.223165 0.246642,0.318759 0.04956,0.09559 0.235486,0.369461 0.413536,0.608446 0.178045,0.238987 0.389066,0.530118 0.468988,0.647036 0.415991,0.608581 0.588377,0.868465 0.838161,1.264467 0.150739,0.238989 0.323471,0.499712 0.383961,0.579372 0.0605,0.07967 0.188821,0.288346 0.284668,0.463602 0.09585,0.175258 0.198582,0.357657 0.228684,0.405455 0.1749,0.27763 0.80599,1.42723 1.208388,2.201716 1.574981,3.031316 2.719579,6.077294 3.571293,9.501481 0.455476,1.831161 0.707883,3.17647 0.945375,5.040424 0.09946,0.780618 0.115727,0.839456 0.225515,0.827826 0.09453,-0.01002 0.124561,0.02949 0.152105,0.199289 0.0189,0.116736 0.02439,0.222938 0.01163,0.235767 -0.05008,0.05012 -0.146824,-0.05888 -0.146824,-0.165459 0,-0.06185 -0.02984,-0.112598 -0.06602,-0.112598 -0.04542,0 -0.05465,0.09488 -0.0301,0.304487 0.180752,1.541027 0.185308,3.961411 0.01109,5.749841 -0.457575,4.696034 -1.42293,8.573806 -3.238037,13.006782 -0.625298,1.527162 -2.400794,4.948089 -3.266028,6.293262 -0.814349,1.266072 -3.205636,4.486028 -3.740299,5.036196 -0.385867,0.397057 -0.663504,0.759681 -0.682357,0.890732 -0.01374,0.0954 -0.06037,0.142955 -0.145769,0.149072 -0.06909,0.0049 -0.197501,0.09815 -0.285194,0.207219 -0.180941,0.225066 -0.986421,1.028974 -1.319299,1.316802 -0.17977,0.155441 -0.214526,0.218422 -0.185378,0.33462 0.02666,0.106316 0.0098,0.151267 -0.06655,0.1755 -0.472688,0.149984 -0.988051,0.51332 -1.550625,1.093196 -0.127406,0.131328 -0.348903,0.315065 -0.492228,0.408625 -0.14333,0.09356 -0.317784,0.222798 -0.387655,0.287043 -0.270511,0.248691 -0.339881,0.301916 -0.437829,0.337261 -0.110237,0.03978 -0.136177,0.185748 -0.04331,0.243168 0.03186,0.01968 0.05809,0.06514 0.05809,0.101497 0,0.04762 -0.01966,0.04695 -0.06971,-0.0032 -0.1056,-0.10565 -0.32432,-0.08316 -0.390297,0.04018 -0.03229,0.06037 -0.135415,0.136443 -0.229211,0.169159 -0.09379,0.03272 -0.700423,0.409704 -1.347819,0.837868 -2.791719,1.846332 -5.241833,3.150226 -7.996063,4.254362 -0.376062,0.15076 -0.506489,0.230219 -0.506489,0.308187 0,0.05776 -0.01644,0.147678 -0.03644,0.199819 -0.03215,0.08385 -0.05152,0.08035 -0.168478,-0.0296 l -0.132562,-0.124228 -0.51177,0.179734 c -5.404049,1.897799 -11.279555,2.81957 -15.771894,2.474484 -5.742538,-0.441105 -11.231511,-1.948907 -16.278379,-4.471097 -1.422325,-0.710811 -2.817675,-1.511861 -4.829326,-2.773158 -0.159254,-0.09985 -0.33086,-0.207146 -0.381847,-0.23841 -0.13422,-0.08232 -0.529189,-0.373499 -1.114906,-0.822538 -0.281862,-0.216085 -0.607811,-0.420484 -0.724082,-0.454089 -0.142173,-0.04109 -0.205884,-0.09094 -0.195413,-0.152771 0.0096,-0.05639 -0.142062,-0.208932 -0.391353,-0.393825 -0.223555,-0.165801 -0.406141,-0.321406 -0.406141,-0.345718 0,-0.02431 -0.280286,-0.275284 -0.622679,-0.5577 -0.769241,-0.63444 -2.688625,-2.547393 -3.454046,-3.442396 -3.823192,-4.470418 -6.602968,-9.366288 -8.403788,-14.802515 -0.200558,-0.605433 -0.44848,-1.407989 -0.55138,-1.783577 -0.125445,-0.457903 -0.221056,-0.70107 -0.28995,-0.737957 C 9.9372394,55.081048 9.9064502,54.961129 9.8744776,54.561376 9.8521364,54.282131 9.7710326,53.783186 9.6938531,53.452324 9.5061691,52.647747 9.152865,50.765022 9.1218759,50.403752 9.1081608,50.244428 9.0849881,50.062028 9.0701178,49.9983 c -0.014881,-0.06372 -0.04369,-0.298698 -0.063905,-0.521753 -0.020216,-0.223052 -0.060241,-0.56157 -0.089256,-0.75276 -0.0548,-0.361044 -0.2186358,-2.392076 -0.2556207,-3.168041 -0.027328,-0.573427 0.1476642,-3.286862 0.2888937,-4.479556 0.107192,-0.905223 0.4118124,-2.730414 0.6094753,-3.650146 0.034237,-0.159325 0.083946,-0.406904 0.1103815,-0.550297 0.085104,-0.461524 0.5787824,-2.318863 0.8698494,-3.273236 0.155491,-0.509834 0.308139,-1.018668 0.339595,-1.130197 0.03146,-0.111521 0.152714,-0.463186 0.269352,-0.781834 0.116641,-0.318647 0.236197,-0.657113 0.265655,-0.752233 0.02946,-0.09511 0.09067,-0.251703 0.136261,-0.347832 0.04559,-0.09613 0.213135,-0.500414 0.371811,-0.898662 0.459138,-1.152355 0.651785,-1.572903 1.329861,-2.896856 1.962386,-3.831595 3.938101,-6.697971 6.716377,-9.745175 2.601412,-2.853221 6.882041,-6.061842 10.783594,-8.0831824 0.398131,-0.2062654 0.990032,-0.5170731 1.315601,-0.6903831 0.325569,-0.1733062 0.821055,-0.4067948 1.100647,-0.5191078 0.279591,-0.112316 0.638239,-0.2643433 0.797494,-0.3372619 0.159251,-0.072916 0.43324,-0.192261 0.608419,-0.2653691 0.175179,-0.073108 0.397371,-0.1664878 0.493812,-0.207749 0.116105,-0.049677 0.200502,-0.144797 0.249811,-0.2812276 0.04096,-0.1133195 0.162491,-0.2727577 0.269881,-0.3547064 0.164,-0.1251415 0.214789,-0.1387907 0.318999,-0.082994 0.181836,0.097363 0.310748,0.033241 0.231323,-0.1152398 -0.05309,-0.099244 -0.04474,-0.1168259 0.05546,-0.1168259 0.124677,0 0.169365,0.1931171 0.06021,0.2606115 -0.087,0.053792 -0.06988,0.26114 0.02166,0.26114 0.04388,0 0.11245,-0.039425 0.152105,-0.087223 0.03964,-0.047797 0.145667,-0.086694 0.236078,-0.086694 0.09276,0 0.21399,-0.053554 0.278331,-0.122641 0.07493,-0.080448 0.200056,-0.1281038 0.364419,-0.1390277 0.268602,-0.017855 0.625979,-0.1011042 0.742039,-0.17286 0.04656,-0.028795 0.06175,-0.1313828 0.04331,-0.294972 -0.03507,-0.3113983 -0.0047,-0.3446513 0.164254,-0.1818464 0.122806,0.1182566 0.126013,0.1361219 0.04067,0.2304797 -0.12181,0.1346507 -0.05356,0.1950247 0.127282,0.1125969 0.155468,-0.070871 0.158575,-0.1860986 0.0185,-0.661308 -0.07134,-0.2419238 -0.0098,-0.3652533 0.226572,-0.455145 0.09053,-0.034432 0.132563,-0.097704 0.132563,-0.1987623 0,-0.082341 0.0414,-0.1636431 0.09295,-0.1834324 0.110689,-0.042503 0.210426,0.090694 0.1595,0.2130353 -0.07128,0.1712208 -0.04914,0.3146954 0.05176,0.3351472 0.07611,0.015419 0.101403,-0.017325 0.101403,-0.1321558 0,-0.084097 0.02453,-0.1995766 0.05493,-0.2563825 0.03069,-0.057384 0.03514,-0.1777834 0.01003,-0.2711839 -0.04222,-0.1566988 -0.06364,-0.1674471 -0.315829,-0.1601729 -0.296322,0.00849 -0.368624,-0.09619 -0.148409,-0.2140925 0.120097,-0.064303 0.119391,-0.066388 -0.0338,-0.1459002 -0.134631,-0.069883 -0.203152,-0.067592 -0.512824,0.01533 -0.445828,0.1193712 -0.484797,0.1522206 -0.38977,0.3298611 0.07673,0.1434403 0.03922,0.2964661 -0.05809,0.2362948 -0.02965,-0.018315 -0.05387,-0.07992 -0.05387,-0.1363848 0,-0.1348727 -0.268142,-0.2829269 -0.354911,-0.1961196 -0.04483,0.044832 -0.02708,0.073806 0.06179,0.1020238 0.155982,0.049526 0.119153,0.1909717 -0.116719,0.4493303 L 37.18049,4.6312974 V 4.4769395 c 0,-0.084878 0.02626,-0.1706126 0.0581,-0.1903044 0.07794,-0.048195 0.07381,-0.3187599 -0.0048,-0.3187599 -0.06679,0 -0.310218,0.2448883 -0.467931,0.4704749 -0.07748,0.1108224 -0.111195,0.1238001 -0.17112,0.06555 -0.04097,-0.039837 -0.107934,-0.072422 -0.148936,-0.072422 -0.08531,0 -0.365473,0.4181717 -0.365473,0.5455396 0,0.1345695 -0.126776,0.17655 -0.205976,0.068193 -0.06646,-0.090941 -0.08844,-0.084387 -0.273577,0.078236 -0.110868,0.097391 -0.238111,0.1770889 -0.282556,0.1770889 -0.04445,0 -0.140052,0.041342 -0.212314,0.091981 -0.133792,0.093754 -0.299455,0.075942 -0.299455,-0.032246 0,-0.032869 0.06084,-0.059734 0.135204,-0.059734 0.104697,0 0.166323,-0.064991 0.274635,-0.2875712 0.07693,-0.1580838 0.173121,-0.2884495 0.213368,-0.2896859 0.04025,-0.00135 0.118453,-0.026506 0.173759,-0.056034 0.0553,-0.029539 0.146013,-0.067849 0.201749,-0.085108 0.127655,-0.039522 0.133152,-0.1506578 0.0074,-0.1506578 -0.05176,0 -0.253833,0.067649 -0.448922,0.1506578 -0.195083,0.082999 -0.458837,0.1902106 -0.586237,0.2378806 -0.485375,0.1816121 -0.599509,0.2454927 -0.634827,0.3568211 -0.02988,0.09418 -0.106076,0.1214376 -0.424626,0.1506575 -0.213603,0.019588 -0.607094,0.1153064 -0.874073,0.2130355 -0.59885,0.2192234 -3.492369,1.6329313 -3.594532,1.7560872 -0.04089,0.049291 -0.117174,0.090783 -0.169005,0.092509 -0.05184,0.00189 -0.263545,0.1050197 -0.470574,0.2294226 -0.207027,0.1244032 -0.498699,0.2924118 -0.648558,0.3732081 -1.680706,0.90615 -4.440572,2.8763829 -6.41639,4.5810459 -1.136205,0.980273 -3.385651,3.184037 -3.75403,3.677634 -0.08323,0.111521 -0.321489,0.385393 -0.529726,0.608446 -0.415616,0.445191 -1.743677,2.086711 -2.061337,2.547965 -0.110195,0.160003 -0.406437,0.577752 -0.658064,0.928263 -0.742413,1.034168 -1.714595,2.576826 -2.263615,3.591996 -0.08616,0.159326 -0.293272,0.537262 -0.460539,0.839984 -0.396728,0.717984 -0.960203,1.842619 -1.161384,2.317486 -0.08775,0.207122 -0.342114,0.793747 -0.565111,1.303585 C 9.8680194,28.898 9.6528572,29.432062 9.6130488,29.575452 9.5732408,29.71884 9.480047,29.969914 9.4060173,30.133149 9.2214216,30.540187 8.6636267,32.178128 8.4220894,33.022605 8.3127163,33.404985 8.1876429,33.835494 8.144287,33.978888 8.100923,34.122276 7.9820113,34.617442 7.879688,35.079479 7.7773638,35.541521 7.6576361,36.062965 7.6140328,36.238223 7.2909561,37.53677 6.9065038,40.352101 6.779041,42.34964 c -0.0325,0.509295 -0.059152,1.49681 -0.059152,2.194316 0,1.120713 0.00986,1.259483 0.086615,1.195747 0.072798,-0.06045 0.087143,-0.05115 0.087143,0.05709 0,0.08534 -0.026996,0.118897 -0.079221,0.09885 -0.062517,-0.02398 -0.078833,0.06257 -0.079221,0.413912 -9.464e-4,0.843032 0.1050017,2.590929 0.2202351,3.630587 0.1414848,1.276535 0.491156,3.450098 0.6063065,3.768029 0.046553,0.128532 0.08545,0.310927 0.086615,0.405453 0.00347,0.277446 0.5222042,2.384819 0.8408014,3.415967 l 0.1610832,0.521751 0.062849,-0.288099 c 0.034483,-0.158266 0.088561,-0.282183 0.1204162,-0.275942 0.099861,0.01957 0.098252,0.407206 -0.00265,0.620074 -0.095303,0.200935 -0.093273,0.213499 0.1489358,0.942538 0.2693934,0.810856 0.8169546,2.244574 0.9797027,2.564353 0.056753,0.111518 0.1359041,0.304487 0.1758711,0.428713 0.195021,0.606113 1.556966,3.34882 2.232455,4.495944 0.215782,0.366444 0.470271,0.806465 0.565639,0.977952 0.250527,0.450479 1.58661,2.443715 2.018029,3.010512 0.202344,0.265832 0.462651,0.61802 0.578315,0.782362 0.349469,0.49653 1.797386,2.20683 2.652856,3.134209 0.968321,1.049715 1.602512,1.666447 2.754258,2.677479 0.477717,0.419348 1.035502,0.908934 1.239548,1.087907 0.204047,0.178976 0.869226,0.696009 1.478268,1.149227 0.609044,0.453212 1.185036,0.883196 1.279688,0.955223 0.673657,0.512646 2.940527,1.929826 4.167565,2.605057 3.948033,2.172563 8.731892,3.8571 13.054601,4.597439 0.907007,0.15534 3.113746,0.458845 3.335743,0.458845 0.06046,0 0.08556,-0.06589 0.08556,-0.227837 0,-0.125376 0.02757,-0.301478 0.06179,-0.391181 0.06092,-0.159657 0.06418,-0.160477 0.149466,-0.04705 0.05962,0.0793 0.07904,0.203254 0.06179,0.392768 -0.01387,0.152316 -0.0094,0.285657 0.01003,0.296559 0.01931,0.01082 0.341391,0.03842 0.715633,0.06079 0.649859,0.03873 0.680245,0.0355 0.680245,-0.07242 0,-0.06213 0.04225,-0.147769 0.09348,-0.190305 0.07913,-0.06568 0.105273,-0.0609 0.17376,0.03278 0.04434,0.06062 0.08028,0.143028 0.08028,0.182903 0,0.04311 0.09988,0.08155 0.246113,0.09516 0.493863,0.04597 3.914379,0.03083 4.647118,-0.02062 1.687449,-0.118566 2.475028,-0.205065 3.962647,-0.435588 2.361572,-0.365938 4.81351,-0.966076 6.83732,-1.67362 2.020262,-0.706291 2.647604,-0.943451 3.532741,-1.335833 0.334433,-0.148256 0.712631,-0.315456 0.840272,-0.37162 0.127639,-0.05618 0.315664,-0.173163 0.418287,-0.259556 0.102626,-0.08639 0.21246,-0.141285 0.243473,-0.122112 0.09844,0.0609 2.563862,-1.234099 3.788361,-1.989738 1.417287,-0.874609 3.188048,-2.110361 3.42183,-2.388322 0.07744,-0.09206 0.174671,-0.167901 0.216538,-0.168101 0.09028,-5.41e-4 0.576841,-0.373585 1.027763,-0.788708 0.177407,-0.163316 0.374656,-0.3136 0.438357,-0.333561 0.153153,-0.04798 0.550324,-0.427906 0.550324,-0.526509 0,-0.04267 0.07138,-0.10306 0.158971,-0.134271 0.08759,-0.03121 0.723042,-0.588987 1.412251,-1.23962 1.311092,-1.237702 2.017429,-1.967702 2.021198,-2.089652 0.0014,-0.0397 0.08492,-0.124455 0.185906,-0.188189 0.201562,-0.127186 0.950359,-0.9656 1.19043,-1.33266 0.08337,-0.127462 0.253083,-0.344769 0.377093,-0.48316 0.185938,-0.207506 0.220007,-0.281368 0.192244,-0.420257 -0.03028,-0.151473 -0.01855,-0.168102 0.117246,-0.168102 0.09674,0 0.217682,-0.07117 0.336956,-0.197706 0.263822,-0.279852 0.725139,-0.902672 0.725139,-0.979011 0,-0.03532 0.08828,-0.156725 0.19594,-0.269597 0.38709,-0.405837 1.433923,-2.031522 2.613244,-4.057715 0.519001,-0.89169 1.685673,-3.284726 1.889163,-3.87534 0.05916,-0.171786 0.130459,-0.341571 0.158441,-0.376908 0.06012,-0.0759 0.410753,-0.950282 0.676021,-1.68631 0.103353,-0.286783 0.283534,-0.781944 0.400862,-1.100592 0.117338,-0.318648 0.236077,-0.683978 0.26354,-0.811438 0.02749,-0.127462 0.125991,-0.453364 0.219179,-0.724214 0.09321,-0.270853 0.211314,-0.661936 0.262488,-0.869058 0.0512,-0.207121 0.186858,-0.728563 0.301568,-1.158743 0.568886,-2.133361 1.020168,-5.036839 1.189903,-7.657641 0.09157,-1.413126 0.03904,-5.386335 -0.0882,-6.68127 -0.400673,-4.076101 -1.282342,-7.886613 -2.641237,-11.413511 -0.597481,-1.550727 -1.05094,-2.600315 -1.149236,-2.661092 -0.03543,-0.02189 -0.06443,-0.08157 -0.06443,-0.132685 0,-0.114635 -0.856546,-1.856574 -1.204691,-2.449642 -0.140285,-0.238985 -0.359587,-0.630071 -0.487474,-0.869056 -0.596932,-1.115426 -2.089443,-3.370698 -3.023083,-4.568366 -0.257145,-0.329864 -0.532488,-0.685385 -0.612115,-0.790291 -0.683101,-0.899973 -2.354501,-2.752014 -2.483324,-2.752014 -0.03063,0 -0.110702,-0.08932 -0.177983,-0.198234 -0.281906,-0.45634 -2.660676,-2.713624 -3.334685,-3.164341 -0.07318,-0.04894 -0.180836,-0.145882 -0.23925,-0.215678 -0.0584,-0.06981 -0.215239,-0.199177 -0.348572,-0.287571 -0.133331,-0.08839 -0.35483,-0.259355 -0.492228,-0.379552 C 75.122602,10.265264 72.196309,8.3176258 70.47872,7.4240104 67.36008,5.8014633 65.786641,5.1108282 63.326629,4.2855725 60.220198,3.2434601 57.008127,2.5858788 53.250214,2.2223547 52.732879,2.172308 51.251684,2.1462284 49.764481,2.1451758 Z M 39.552334,3.4032997 c -0.0196,-2.977e-4 -0.03923,0.00412 -0.05651,0.014802 -0.03238,0.020019 -0.0437,0.060735 -0.02534,0.090395 0.04348,0.070365 0.200165,0.069922 0.200165,-5.277e-4 0,-0.05868 -0.05946,-0.1037771 -0.118304,-0.1046675 z m -3.59189,1.328431 c -0.04181,0.013934 -0.08746,0.059683 -0.101404,0.1014959 -0.01449,0.04345 0.0073,0.065234 0.0507,0.050747 0.04181,-0.013934 0.08746,-0.059683 0.101403,-0.101496 0.01449,-0.04345 -0.0073,-0.065233 -0.0507,-0.050747 z m 2.029648,0.018502 c 0.19795,0 0.213095,0.152446 0.03486,0.355235 l -0.145769,0.1659877 -0.01057,-0.1881898 c -0.0057,-0.1035643 -0.01322,-0.2207816 -0.01639,-0.2606114 -0.0032,-0.040074 0.05818,-0.072422 0.137847,-0.072422 z m -0.657009,0.2109209 c 0.04421,0.00247 0.0766,0.062435 0.09454,0.1797318 0.04222,0.2760375 -0.01125,0.340664 -0.200695,0.2410523 -0.154709,-0.081364 -0.155509,-0.084053 -0.05809,-0.255325 0.06411,-0.1127204 0.120045,-0.1679265 0.164251,-0.1654591 z M 34.18853,5.4162982 c 0.02377,-0.00265 0.03855,0.034854 0.03855,0.1178831 0,0.1398529 0.215959,0.2393805 0.35808,0.1649304 0.05999,-0.03143 0.111976,-0.02849 0.13415,0.0074 0.01987,0.032172 -0.0109,0.075397 -0.06866,0.096209 -0.05775,0.020803 -0.151635,0.085683 -0.208615,0.1443142 -0.05698,0.058634 -0.15919,0.106782 -0.227103,0.106782 -0.06792,0 -0.168846,0.040515 -0.22393,0.090395 -0.06111,0.055315 -0.113986,0.068507 -0.135735,0.033303 -0.0196,-0.031733 -0.01295,-0.071687 0.01479,-0.088808 0.0277,-0.017124 0.09563,-0.1757913 0.15105,-0.3520632 0.06302,-0.2004743 0.127806,-0.3159164 0.167421,-0.3203459 z m 0.826541,0.7532884 c 0.04437,0 0.08028,0.052043 0.08028,0.1157687 0,0.1090641 -0.112292,0.1577001 -0.188545,0.081408 -0.05636,-0.056371 0.0209,-0.1971766 0.108269,-0.1971766 z M 31.456453,6.575041 c 0.07522,0 0.396105,0.243751 0.396105,0.3007867 0,0.052515 -0.276453,0.050305 -0.566695,-0.00424 -0.104765,-0.019696 -0.196098,-0.055472 -0.202807,-0.079822 -0.01277,-0.046355 0.280695,-0.2167359 0.373397,-0.2167359 z m 2.582611,0.1844896 c 0.176182,-0.02516 0.16453,0.070689 -0.01901,0.154358 -0.131051,0.05973 -0.147019,0.055916 -0.129924,-0.033832 0.01071,-0.056181 0.0776,-0.1103461 0.148936,-0.120526 z m -2.014859,0.2209646 c 0.03073,0 0.08368,0.052045 0.117775,0.1157688 0.06826,0.1276137 0.0053,0.1558857 -0.104044,0.046519 -0.08373,-0.083766 -0.09048,-0.1622874 -0.01373,-0.1622874 z m 0.712991,0.5999878 c 0.01236,-0.00268 0.0221,-0.00168 0.02799,0.00423 0.02358,0.023672 -0.01882,0.092838 -0.09401,0.1538294 -0.199896,0.1621284 -0.256636,0.1355791 -0.09137,-0.042819 0.05881,-0.063495 0.120295,-0.1072217 0.157386,-0.1152398 z m 16.535057,4.085203 c -0.45043,2.15e-4 -0.858333,0.0074 -1.175644,0.0222 -1.299269,0.06096 -3.523079,0.303082 -4.362979,0.474703 -1.412389,0.288601 -2.201766,0.468644 -2.840343,0.648622 -0.401749,0.113235 -0.899958,0.252406 -1.106985,0.309244 -0.622061,0.170786 -1.595005,0.51047 -2.592647,0.905532 -1.067556,0.42275 -3.448011,1.570142 -3.702801,1.784634 -0.0927,0.07804 -0.316786,0.207375 -0.498038,0.28757 -0.181249,0.08019 -0.557344,0.300352 -0.836048,0.489506 -0.278705,0.189154 -0.572099,0.377058 -0.651727,0.417613 -0.378066,0.192549 -2.593671,1.812955 -3.242789,2.371405 -0.20703,0.178114 -0.506365,0.427322 -0.66493,0.553998 -0.341967,0.273193 -1.374161,1.257231 -1.790928,1.707454 -0.16223,0.175255 -0.395359,0.41022 -0.518107,0.521751 -0.323985,0.294377 -2.063787,2.362714 -2.536664,3.015797 -1.81092,2.501021 -3.557901,5.651468 -4.238865,7.644426 -0.08166,0.238987 -0.227431,0.625923 -0.324279,0.86007 -0.185947,0.449569 -0.749097,2.212339 -0.863511,2.702852 -0.03716,0.159325 -0.158778,0.670186 -0.26988,1.134955 -0.60408,2.526987 -0.844252,4.691698 -0.843971,7.597377 2.98e-4,3.081061 0.272353,5.382511 0.968612,8.185208 1.045723,4.209415 3.048136,8.431387 5.63263,11.876585 2.328651,3.10415 5.183169,5.793668 8.412239,7.925652 4.570896,3.01792 9.931439,4.900771 15.279138,5.367115 0.398127,0.03472 0.815408,0.07301 0.926887,0.08511 0.11147,0.01207 1.257808,0.01518 2.547753,0.0063 1.712497,-0.01166 2.57211,-0.04216 3.185223,-0.112068 3.893096,-0.443943 7.180568,-1.355726 10.651031,-2.953951 2.332116,-1.07399 5.069905,-2.785591 6.946648,-4.343169 0.857549,-0.71171 0.975504,-0.815753 1.715404,-1.514506 2.770403,-2.616353 4.432206,-4.72666 6.408998,-8.139217 1.44811,-2.499886 2.798754,-6.046195 3.48679,-9.154173 0.566227,-2.557776 0.759491,-4.66755 0.714576,-7.805657 C 83.049666,41.92729 82.932499,40.748173 82.487604,38.498083 81.936636,35.711481 81.039537,33.063959 79.749191,30.415957 78.554216,27.963693 77.208149,25.86101 75.561556,23.875309 72.420534,20.0874 68.830353,17.240316 64.484843,15.091173 60.859433,13.29817 57.287975,12.264438 53.163599,11.813706 c -0.807464,-0.08824 -2.54006,-0.148658 -3.891346,-0.148014 z m 0.301041,2.010355 c 0.780336,-8.12e-4 1.718292,0.03219 2.084573,0.07295 0.99416,0.110616 1.880291,0.232553 2.432092,0.334619 0.27073,0.05007 0.700607,0.129773 0.95541,0.177089 2.103738,0.390677 4.783153,1.208953 6.729051,2.055288 0.356522,0.155063 0.662554,0.281756 0.680247,0.281756 0.07563,0 1.580419,0.755067 2.406211,1.207377 2.521808,1.381267 5.143443,3.335568 7.036432,5.245002 1.554673,1.568173 3.191507,3.705546 4.442198,5.801114 0.459556,0.770006 1.262259,2.218215 1.262259,2.277313 0,0.02341 0.06114,0.133269 0.136261,0.244223 0.07514,0.110957 0.156545,0.266586 0.180625,0.346248 0.02407,0.07967 0.09136,0.197411 0.149463,0.26114 0.0581,0.06372 0.129382,0.219845 0.158443,0.347304 0.02908,0.127463 0.151353,0.447058 0.271993,0.709942 0.160063,0.348821 0.248803,0.477878 0.327446,0.477878 0.07303,0 0.107495,0.04222 0.107741,0.130569 0,0.0717 0.03864,0.202826 0.08503,0.291799 0.04639,0.08898 0.100557,0.25876 0.120943,0.376909 0.06397,0.370638 0.20736,0.830414 0.317413,1.018657 0.05823,0.09959 0.136308,0.303692 0.173759,0.454089 0.03745,0.150393 0.1047,0.303705 0.148936,0.340433 0.04423,0.03674 0.08028,0.110076 0.08028,0.162816 0,0.05273 0.03504,0.147011 0.07817,0.209863 0.04856,0.07076 0.07918,0.28199 0.08028,0.554526 0.0011,0.242067 0.04227,0.581113 0.0919,0.753289 0.369132,1.280536 0.823818,4.099192 0.970726,6.019437 0.136126,1.779317 -0.06714,4.231763 -0.559829,6.749993 -0.316787,1.619136 -1.097291,4.357016 -1.635128,5.735567 -0.06216,0.159323 -0.179059,0.458944 -0.259316,0.666066 -0.08026,0.207119 -0.213139,0.510575 -0.29576,0.674522 -0.08262,0.163954 -0.15052,0.389112 -0.15052,0.500079 0,0.111973 -0.04023,0.234901 -0.09031,0.276468 -0.120824,0.100331 -0.257204,0.437496 -0.257204,0.635407 0,0.08807 -0.03783,0.232948 -0.08398,0.321931 -0.04614,0.08898 -0.06918,0.185561 -0.05123,0.214621 0.01796,0.02905 -0.06011,0.148222 -0.173759,0.264841 -0.195222,0.200307 -0.207696,0.236675 -0.228158,0.662365 -0.0209,0.43477 -0.09774,0.649096 -0.183264,0.51065 -0.07538,-0.122013 -0.209147,-0.06098 -0.304739,0.139558 -0.05317,0.111521 -0.118282,0.202992 -0.144709,0.202992 -0.02642,0 -0.161823,0.110386 -0.301041,0.245809 -0.169913,0.165286 -0.276533,0.331937 -0.324279,0.50695 -0.03912,0.143394 -0.08009,0.293729 -0.09137,0.333561 -0.01125,0.03984 -0.0706,0.07243 -0.131508,0.07243 -0.117506,0 -0.328617,0.244099 -0.501208,0.579371 -0.05742,0.111534 -0.179199,0.293929 -0.270408,0.405455 -0.0912,0.111534 -0.373315,0.474001 -0.626904,0.805621 -0.365071,0.477412 -0.4537,0.631005 -0.426737,0.738489 0.02722,0.1085 0.01084,0.135855 -0.08186,0.135855 -0.125137,0 -0.216345,0.14853 -0.125696,0.204577 0.08498,0.05255 0.06549,0.143258 -0.03063,0.143258 -0.04718,0 -0.101244,0.06048 -0.119889,0.134797 -0.02182,0.08696 -0.128549,0.181518 -0.299983,0.264841 -0.171025,0.08312 -0.475559,0.351328 -0.85031,0.74853 -0.321126,0.340366 -0.668626,0.701563 -0.772141,0.80298 -0.10352,0.101426 -0.18802,0.210806 -0.18802,0.242638 0,0.03182 -0.08503,0.117377 -0.188545,0.190305 -0.197966,0.139439 -0.566149,0.429002 -1.215254,0.955224 -0.21458,0.17395 -0.507289,0.405257 -0.650143,0.514351 -0.142851,0.109092 -0.305675,0.240085 -0.362304,0.291271 -0.166047,0.150089 -1.028772,0.761207 -1.842688,1.304642 -1.215929,0.811857 -2.714022,1.68367 -3.617241,2.106036 -0.461833,0.215964 -0.892277,0.425762 -0.956464,0.466247 -0.176655,0.11144 -2.056181,0.88108 -2.778553,1.137597 -0.564305,0.20039 -1.693344,0.539004 -3.055299,0.916106 -0.9779,0.270763 -3.574847,0.743484 -3.690654,0.671879 -0.11845,-0.07324 -0.06359,-0.319919 0.08345,-0.37585 0.104326,-0.03969 0.166125,-0.134805 0.234495,-0.360521 0.233895,-0.77222 0.325469,-2.393267 0.201749,-3.568211 -0.09319,-0.885075 -0.411075,-1.860438 -1.019313,-3.128393 -0.141975,-0.295973 -0.242105,-0.563575 -0.222876,-0.594702 0.01923,-0.03113 0.121949,-0.09336 0.228685,-0.13797 0.106741,-0.04461 0.224052,-0.136681 0.260373,-0.204577 0.03632,-0.06789 0.194924,-0.202346 0.352272,-0.299201 0.267304,-0.164551 0.362339,-0.282286 0.228157,-0.282286 -0.174524,0 0.0097,-0.204029 0.564584,-0.625891 0.745919,-0.567116 0.906958,-0.709011 0.956991,-0.839453 0.02088,-0.05446 0.08072,-0.09886 0.132563,-0.09886 0.106249,0 1.078776,-0.976646 1.413309,-1.419354 0.286276,-0.378837 0.696618,-1.170084 0.696618,-1.343232 0,-0.116431 -0.02104,-0.130987 -0.144712,-0.09991 -0.1279,0.03212 -0.144709,0.01789 -0.144709,-0.121584 0,-0.128407 -0.02152,-0.152143 -0.11408,-0.127925 -0.07053,0.01846 -0.169392,-0.02243 -0.260374,-0.106782 -0.17662,-0.163763 -0.188079,-0.257441 -0.03116,-0.257441 0.145783,0 0.150247,-0.09348 0.0079,-0.169688 -0.0595,-0.03186 -0.123347,-0.132069 -0.14154,-0.22308 -0.0245,-0.122481 -0.09294,-0.19263 -0.263542,-0.269597 -0.220124,-0.0993 -0.271623,-0.09992 -1.147125,-0.0069 -0.504214,0.0536 -1.026708,0.104749 -1.160855,0.113654 -0.134153,0.0089 -0.282031,0.04819 -0.329033,0.08723 -0.05653,0.04693 -0.173097,0.05778 -0.343292,0.03224 -0.164178,-0.02463 -0.271268,-0.01513 -0.296287,0.02536 -0.02277,0.03684 0.0032,0.06343 0.06232,0.06343 0.07295,0 0.0844,0.01756 0.03961,0.06238 -0.04366,0.04367 -0.126597,0.04512 -0.274632,0.0042 -0.158963,-0.04392 -0.259509,-0.03891 -0.401917,0.02062 -0.104504,0.04368 -0.300634,0.07799 -0.435717,0.07612 -0.316343,-0.0043 -0.868858,0.277356 -1.226346,0.62536 -0.145201,0.14136 -0.280697,0.239733 -0.301567,0.218851 -0.106109,-0.106156 -0.884028,0.518243 -0.981816,0.788178 -0.01731,0.04779 -0.158148,0.13155 -0.313187,0.186076 -0.155041,0.05452 -0.372831,0.184398 -0.484307,0.288627 -0.11147,0.104237 -0.30306,0.274669 -0.425152,0.378495 -0.1221,0.10384 -0.342575,0.332452 -0.490116,0.508006 -0.286535,0.34095 -0.409385,0.383327 -0.695036,0.241054 -0.08601,-0.04283 -0.286498,-0.110349 -0.445749,-0.15013 -0.159255,-0.03978 -0.345001,-0.09853 -0.412479,-0.130569 -0.06749,-0.03205 -0.171401,-0.04693 -0.231326,-0.03331 -0.05992,0.01358 -0.187007,-0.03212 -0.282555,-0.101497 -0.09555,-0.06938 -0.270363,-0.158007 -0.388185,-0.196646 -0.119302,-0.03913 -0.375652,-0.226257 -0.578845,-0.422372 -0.200681,-0.193691 -0.460495,-0.4124 -0.577257,-0.486332 -0.116765,-0.07393 -0.229331,-0.161909 -0.249812,-0.195061 -0.0205,-0.03316 -0.07732,-0.06026 -0.126754,-0.06026 -0.04944,0 -0.21489,-0.104083 -0.367057,-0.231538 -0.15217,-0.127462 -0.329404,-0.231537 -0.393994,-0.231537 -0.06459,0 -0.126159,-0.02598 -0.136789,-0.05762 -0.01877,-0.05596 -0.201416,-0.272953 -0.748904,-0.888615 -0.14657,-0.164819 -0.339641,-0.430093 -0.429379,-0.589417 -0.08974,-0.159324 -0.232259,-0.355297 -0.316359,-0.435584 -0.0841,-0.08028 -0.198323,-0.285263 -0.254035,-0.455676 -0.05571,-0.170407 -0.204215,-0.472264 -0.329561,-0.670821 -0.125347,-0.198559 -0.304282,-0.529735 -0.397689,-0.735844 -0.09341,-0.206102 -0.2108,-0.408785 -0.260904,-0.450387 -0.05011,-0.04159 -0.09084,-0.112192 -0.09084,-0.157001 0,-0.04479 -0.08055,-0.241452 -0.17904,-0.436643 -0.113407,-0.224742 -0.186025,-0.463771 -0.197526,-0.652323 -0.01,-0.163762 -0.05203,-0.414105 -0.09348,-0.556112 -0.04145,-0.142005 -0.08046,-0.33629 -0.08714,-0.431885 -0.0068,-0.09559 -0.02547,-0.277996 -0.04172,-0.405455 -0.01622,-0.127463 -0.05504,-0.440218 -0.08609,-0.69514 -0.06293,-0.516963 -0.11822,-0.82623 -0.171117,-0.95628 -0.05381,-0.132264 -0.07062,-0.320975 -0.08662,-0.984824 -0.0081,-0.334582 -0.03769,-0.644664 -0.06602,-0.689327 -0.0345,-0.05442 -0.01979,-0.104795 0.04436,-0.151713 0.05264,-0.03851 0.09559,-0.09412 0.09559,-0.123697 0,-0.02957 0.05197,-0.1557 0.115662,-0.2807 0.06369,-0.125008 0.116192,-0.270376 0.116192,-0.32299 0,-0.05261 0.07492,-0.278528 0.166893,-0.501664 0.09197,-0.223131 0.186433,-0.545746 0.209672,-0.717342 0.02326,-0.171596 0.128217,-0.475314 0.233438,-0.674524 0.105219,-0.199208 0.209202,-0.446788 0.230797,-0.550297 0.130656,-0.626242 0.369186,-1.242624 0.518635,-1.340591 0.07097,-0.04652 0.17307,-0.177884 0.227103,-0.291798 0.05402,-0.113908 0.129677,-0.206691 0.168475,-0.206691 0.12004,0 0.521369,0.236203 0.749434,0.4414 0.119534,0.107542 0.246067,0.195589 0.280971,0.195589 0.0349,0 0.133676,0.07203 0.21918,0.159647 0.14993,0.153672 0.3329,0.274766 0.745735,0.494262 0.107179,0.05699 0.311037,0.219934 0.453145,0.362107 0.142108,0.142172 0.299669,0.258497 0.350157,0.258497 0.129134,0 0.731355,0.534455 1.447638,1.284555 0.159835,0.167384 0.351368,0.300191 0.501734,0.347835 0.1848,0.05855 0.27095,0.12917 0.359135,0.294971 0.155342,0.292074 0.281801,0.366326 0.70243,0.412855 l 0.355438,0.03965 0.02957,-0.190306 c 0.01842,-0.116622 -0.0031,-0.243322 -0.05598,-0.326689 -0.169746,-0.268089 -0.307354,-0.770447 -0.271993,-0.991697 0.02436,-0.152352 -0.0014,-0.291799 -0.08767,-0.481577 -0.06692,-0.146979 -0.121473,-0.305984 -0.121473,-0.353649 0,-0.04767 -0.02566,-0.102484 -0.05651,-0.121584 -0.03088,-0.01911 -0.174616,-0.252091 -0.319525,-0.51805 -0.144909,-0.26596 -0.342838,-0.583996 -0.439941,-0.706242 -0.0971,-0.122248 -0.293015,-0.409515 -0.435718,-0.638576 -0.142702,-0.229064 -0.297587,-0.431054 -0.343819,-0.448801 -0.04624,-0.01776 -0.08398,-0.08136 -0.08398,-0.141144 0,-0.112259 -0.168413,-0.300257 -0.268824,-0.300257 -0.07712,0 -0.336172,-0.35527 -0.33801,-0.463603 -8.12e-4,-0.04835 -0.06574,-0.09545 -0.146297,-0.106253 -0.194886,-0.0261 -0.282696,-0.115724 -0.177455,-0.18079 0.06915,-0.04276 0.06592,-0.07464 -0.01955,-0.205106 -0.06489,-0.09909 -0.132938,-0.141623 -0.19066,-0.119469 -0.123044,0.04723 -0.249284,-0.06967 -0.249284,-0.231007 0,-0.07331 -0.06509,-0.210873 -0.144709,-0.305546 -0.167742,-0.19944 -0.177031,-0.258691 -0.05757,-0.357879 0.04778,-0.03966 0.08661,-0.136413 0.08661,-0.214621 0,-0.166702 0.290135,-0.481044 0.444168,-0.481046 0.11686,-3e-6 0.39296,-0.315163 0.48272,-0.551355 0.08259,-0.217336 0.340003,-0.539008 0.462125,-0.577785 0.05744,-0.01824 0.13873,-0.116882 0.181152,-0.219379 0.04241,-0.102495 0.211898,-0.345499 0.376566,-0.539724 0.748642,-0.883032 1.471417,-2.179138 1.724908,-3.094033 0.05739,-0.20712 0.153925,-0.483843 0.214426,-0.614792 0.0605,-0.130945 0.109854,-0.26375 0.109854,-0.29497 0,-0.03122 0.08847,-0.137496 0.196998,-0.236296 0.108961,-0.09921 0.216105,-0.265141 0.239246,-0.370565 0.02307,-0.105006 0.07512,-0.243466 0.115137,-0.307659 0.12749,-0.204485 0.155726,-0.535844 0.06338,-0.739544 -0.100197,-0.221022 -0.160682,-0.574028 -0.181679,-1.057247 -0.02107,-0.485114 -0.572547,-1.773547 -0.927418,-2.167356 -0.24963,-0.277021 -0.561257,-0.813692 -0.526028,-0.905531 0.03591,-0.09365 -0.09199,-0.205222 -0.456314,-0.398584 -0.159252,-0.08452 -0.375243,-0.216177 -0.480081,-0.292329 -0.104834,-0.07615 -0.404542,-0.220703 -0.665989,-0.321402 -0.611558,-0.23555 -1.287404,-0.299867 -2.705139,-0.256912 -2.011174,0.06094 -2.461989,0.107071 -3.069031,0.313476 -0.305473,0.103864 -0.704798,0.195278 -0.89784,0.205633 -0.545671,0.02926 -1.919376,0.571693 -2.365547,0.934077 -0.446769,0.362875 -0.666711,0.496639 -0.741512,0.450389 -0.03298,-0.02041 -0.116227,-0.01164 -0.184848,0.01957 -0.06863,0.03121 -0.221186,0.09812 -0.339068,0.149072 -0.117874,0.05096 -0.259636,0.165381 -0.314772,0.25427 -0.169424,0.273134 -0.383915,0.483788 -0.703484,0.689851 -0.633126,0.408254 -1.314259,1.038897 -1.504676,1.393453 -0.119986,0.223417 -0.409548,0.563658 -0.855589,1.004385 -0.370862,0.366449 -0.74812,0.770672 -0.838161,0.898131 -0.09004,0.127463 -0.284803,0.347709 -0.433076,0.489505 -0.14827,0.141801 -0.340519,0.400754 -0.426738,0.57567 -0.104562,0.212129 -0.240659,0.377572 -0.40931,0.49638 -0.193697,0.136448 -0.285868,0.259235 -0.393994,0.524922 -0.07763,0.190747 -0.161051,0.385678 -0.185377,0.43347 -0.02433,0.04779 -0.240126,0.191302 -0.479553,0.318761 -0.479448,0.25524 -0.791888,0.431953 -1.542702,0.873817 -0.275366,0.162054 -0.813505,0.43513 -1.195712,0.606857 -0.382208,0.171729 -0.85092,0.422531 -1.042023,0.557171 -0.191103,0.134637 -0.595262,0.413689 -0.897841,0.620075 -0.30258,0.206385 -0.628003,0.456952 -0.723554,0.55717 -0.09555,0.100219 -0.271203,0.237389 -0.390297,0.304487 -0.119095,0.0671 -0.231069,0.167335 -0.248754,0.223077 -0.01769,0.05574 -0.12232,0.15494 -0.232383,0.219907 -0.110059,0.06498 -0.200165,0.148682 -0.200165,0.186076 0,0.0374 -0.04504,0.100678 -0.100347,0.141144 -0.09548,0.06986 -0.09559,0.07934 0,0.185017 0.110442,0.122085 0.08115,0.18872 -0.08292,0.18872 -0.128654,0 -0.137335,0.07612 -0.01954,0.173917 0.04778,0.03968 0.08714,0.1136 0.08714,0.163875 0,0.07109 -0.01566,0.07573 -0.06971,0.02168 -0.125896,-0.125953 -0.23582,-0.0839 -0.195941,0.07506 0.03943,0.157121 -0.01564,0.187271 -0.132035,0.07243 -0.05882,-0.05804 -0.08971,-0.05008 -0.154746,0.03806 -0.06682,0.09056 -0.09656,0.09664 -0.169005,0.03648 -0.07214,-0.05989 -0.09449,-0.05608 -0.124113,0.02113 -0.01987,0.05179 -0.0023,0.135195 0.03908,0.185017 0.06192,0.07464 0.0608,0.09911 -0.0063,0.140616 -0.04482,0.02771 -0.05901,0.07163 -0.03169,0.09726 0.02733,0.02564 0.06132,0.01394 0.07552,-0.0259 0.02995,-0.0839 0.189602,-0.09905 0.189602,-0.01797 0,0.02999 -0.02571,0.0707 -0.05757,0.0904 -0.03186,0.0197 -0.0581,0.07618 -0.0581,0.125812 0,0.06341 0.03631,0.08069 0.122528,0.05814 0.07611,-0.0199 0.210501,0.02366 0.353855,0.114185 l 0.231326,0.145899 0.181681,-0.163874 c 0.09991,-0.09024 0.228113,-0.210134 0.285196,-0.265897 0.05709,-0.05577 0.130965,-0.100965 0.163724,-0.100965 0.03415,0 0.04272,-0.05188 0.0206,-0.121583 -0.03202,-0.100945 -0.01942,-0.115638 0.07341,-0.08616 0.07364,0.02338 0.149738,-0.007 0.222876,-0.08881 0.170519,-0.190706 0.546493,-0.410732 0.640107,-0.374795 0.08329,0.03198 0.3056,-0.06418 0.377093,-0.162816 0.02058,-0.0284 0.173501,-0.06227 0.339595,-0.0756 0.192125,-0.01541 0.380128,-0.07657 0.517579,-0.167573 0.219477,-0.145307 0.559455,-0.198393 1.880184,-0.295498 0.392729,-0.02888 0.468339,-0.01957 0.531311,0.0666 0.04041,0.05529 0.06371,0.130837 0.05176,0.167573 -0.05346,0.164199 -0.148772,2.478553 -0.166364,4.035514 -0.02762,2.443838 0.0442,3.92302 0.226044,4.659817 0.07918,0.3208 0.14362,0.63936 0.143655,0.707825 3.4e-5,0.06846 0.07821,0.272888 0.173758,0.454617 0.09555,0.181729 0.173759,0.420028 0.173759,0.529681 0,0.117694 0.08315,0.353438 0.202806,0.575142 0.111485,0.206559 0.202807,0.440589 0.202807,0.520164 0,0.08812 0.09009,0.242202 0.23027,0.394353 0.233715,0.253669 0.460868,0.678008 0.46318,0.8643 0.0032,0.256392 1.204629,2.409411 1.524744,2.732457 0.0927,0.09354 0.236307,0.275938 0.318998,0.405453 0.246598,0.386249 0.655838,0.850236 0.813338,0.921919 0.223325,0.10164 0.876715,0.774185 0.876715,0.902362 0,0.06201 0.0525,0.129378 0.116191,0.149599 0.0637,0.02021 0.115663,0.07115 0.115663,0.113126 0,0.08965 0.184827,0.226094 0.631657,0.466247 0.177867,0.09559 0.353208,0.234763 0.389768,0.309773 0.03656,0.07501 0.205978,0.215522 0.376565,0.311887 0.170587,0.09636 0.418619,0.263128 0.551382,0.370564 0.132765,0.107448 0.274099,0.195064 0.313714,0.195064 0.169944,0 0.743332,0.217131 1.034102,0.391181 0.173305,0.103729 0.389561,0.188189 0.480608,0.188189 0.17954,0 0.436379,0.116334 0.710352,0.321404 0.09555,0.07151 0.290805,0.148605 0.434133,0.171273 0.143327,0.02268 0.386381,0.103404 0.540287,0.179734 0.153908,0.07634 0.313541,0.139028 0.354383,0.139028 0.04084,0 0.162051,0.0771 0.269882,0.1718 0.107836,0.09468 0.271036,0.203428 0.362304,0.241582 0.141194,0.05903 0.174208,0.05532 0.220234,-0.02696 0.03107,-0.05555 0.125137,-0.09674 0.221291,-0.09674 0.229093,0 0.245837,-0.05498 0.09665,-0.321402 -0.138928,-0.248105 -0.639108,-0.615685 -0.769502,-0.565627 -0.196351,0.07538 -0.919859,-0.613375 -0.979703,-0.932493 -0.03905,-0.208262 -0.304737,-0.556111 -0.424625,-0.556111 -0.03418,0 -0.101209,-0.07635 -0.149463,-0.16969 -0.07888,-0.152589 -0.179773,-0.221728 -0.34963,-0.240523 -0.13226,-0.01464 -0.260901,-0.121622 -0.260904,-0.217263 0,-0.05629 -0.215421,-0.335994 -0.479023,-0.621132 -0.617586,-0.668061 -1.006528,-1.17381 -1.279687,-1.665166 -0.120369,-0.216532 -0.328857,-0.555577 -0.463707,-0.753288 -0.299337,-0.438873 -0.480397,-0.775016 -0.521804,-0.969495 -0.01714,-0.08052 -0.122663,-0.253076 -0.234496,-0.383781 -0.150085,-0.17542 -0.201871,-0.288768 -0.198053,-0.432943 0.0029,-0.10742 -0.06278,-0.338566 -0.145766,-0.513822 -0.08299,-0.175255 -0.15127,-0.35329 -0.151577,-0.395412 -2.71e-4,-0.04212 -0.07191,-0.198016 -0.159499,-0.346247 -0.238985,-0.404434 -0.427821,-0.925832 -0.476384,-1.315217 -0.04162,-0.333714 -0.223128,-0.920857 -0.356495,-1.153984 -0.03499,-0.06116 -0.07315,-0.292762 -0.0845,-0.51435 -0.01193,-0.23353 -0.0669,-0.503167 -0.130979,-0.641748 -0.175436,-0.379408 -0.192822,-0.448784 -0.215482,-0.847384 -0.01179,-0.207124 -0.06012,-0.480987 -0.107213,-0.608447 -0.05354,-0.144919 -0.08305,-0.416256 -0.07869,-0.724214 0.0092,-0.652782 -0.04489,-1.32313 -0.123057,-1.524549 -0.03478,-0.0896 -0.07942,-0.337948 -0.09929,-0.551885 -0.02958,-0.318442 -0.01883,-0.402894 0.0581,-0.466775 0.06649,-0.05521 0.09348,-0.174394 0.09348,-0.407038 0,-0.327284 0.134092,-1.028972 0.472159,-2.475015 0.06107,-0.261245 0.0576,-0.310315 -0.02746,-0.395412 -0.119795,-0.119848 -0.124761,-0.283026 -0.01162,-0.376908 0.09274,-0.07701 0.435339,-0.733896 0.436245,-0.836282 0.0016,-0.16888 0.486189,-1.241628 0.719857,-1.593271 0.145312,-0.218682 0.26407,-0.447648 0.26407,-0.509066 0,-0.06142 0.07323,-0.165908 0.162669,-0.232065 0.09324,-0.06897 0.193226,-0.221312 0.233966,-0.357349 0.03908,-0.13051 0.122273,-0.264638 0.184848,-0.298145 0.0626,-0.0335 0.113553,-0.11236 0.113553,-0.174973 0,-0.07159 0.03914,-0.113653 0.105627,-0.113653 0.109699,0 0.357553,-0.225364 0.357553,-0.325106 0,-0.103523 0.447732,-0.500366 0.489058,-0.433472 0.07776,0.125888 0.144328,0.0593 0.110381,-0.11048 -0.03767,-0.188428 -0.0139,-0.205891 0.157386,-0.114185 0.08737,0.04678 0.111968,0.04126 0.111968,-0.0259 0,-0.04733 -0.04332,-0.11076 -0.09665,-0.140612 -0.08607,-0.04818 -0.07801,-0.07308 0.07183,-0.225194 0.159782,-0.162198 0.167678,-0.193914 0.149463,-0.588359 -0.01057,-0.22919 0.0056,-0.448221 0.03592,-0.486862 0.08914,-0.113402 0.134374,-0.378609 0.0713,-0.417614 -0.09469,-0.05854 -0.06619,-0.293561 0.04806,-0.396994 0.05833,-0.0528 0.123193,-0.07861 0.144185,-0.05762 0.04225,0.04227 0.243719,-0.15927 0.402443,-0.402283 0.05647,-0.08646 0.144974,-0.157001 0.196468,-0.157001 0.05149,0 0.126657,-0.04573 0.167421,-0.101497 0.04076,-0.05577 0.102368,-0.104917 0.136789,-0.108896 0.03442,-0.004 0.08227,-0.01026 0.106157,-0.01426 0.02388,-0.004 0.120142,-0.07369 0.213895,-0.154358 0.09376,-0.08067 0.206187,-0.132521 0.249812,-0.11577 0.04362,0.01676 0.149449,-0.0053 0.235023,-0.04863 0.130475,-0.06612 1.282764,-0.209863 1.682133,-0.209863 0.06536,0 0.215377,0.10408 0.333256,0.231537 0.168432,0.182121 0.256429,0.232066 0.409837,0.232066 0.120096,0 0.207649,0.03323 0.228157,0.08669 0.01833,0.04779 0.07879,0.08669 0.13415,0.08669 0.148395,0 0.293004,0.186837 0.25562,0.329862 -0.0235,0.08988 5.4e-4,0.133045 0.08926,0.161232 0.06661,0.02117 0.120943,0.08676 0.120943,0.145899 0,0.05913 0.06375,0.182917 0.141543,0.275414 0.0926,0.110094 0.155106,0.276899 0.181152,0.482632 0.02188,0.172835 0.07723,0.357498 0.123057,0.410211 0.06983,0.0803 0.0713,0.116584 0.0074,0.224665 -0.06042,0.10208 -0.06148,0.134657 -0.0042,0.155415 0.100689,0.03648 0.09093,0.228902 -0.01374,0.26907 -0.06317,0.02427 -0.07335,0.06842 -0.0375,0.16546 0.0559,0.151266 0.02998,0.262968 -0.09401,0.405455 -0.04761,0.05471 -0.07262,0.151475 -0.05598,0.21515 0.03119,0.119312 -0.124867,0.351534 -0.23608,0.351534 -0.110157,0 -0.302874,0.322773 -0.233966,0.391709 0.09349,0.09354 0.0041,0.187662 -0.177986,0.187662 -0.08903,0 -0.225085,0.0592 -0.302624,0.1311 -0.07754,0.0719 -0.185795,0.122046 -0.240304,0.111539 -0.06656,-0.01275 -0.09876,0.01822 -0.09876,0.09515 0,0.102589 -0.0333,0.112895 -0.318471,0.09568 -0.23244,-0.01404 -0.318468,0.0011 -0.318468,0.05604 0,0.04633 -0.109088,0.08943 -0.283612,0.112598 -0.155894,0.02068 -0.313247,0.07349 -0.34963,0.117354 -0.08912,0.107434 -0.280822,0.04955 -0.390824,-0.118411 -0.05769,-0.08809 -0.145761,-0.137442 -0.246115,-0.137442 -0.138036,0 -0.474324,-0.12739 -0.770559,-0.291799 -0.143576,-0.07969 -0.218123,-0.06898 -0.218123,0.03119 0,0.14161 -0.136431,0.10029 -0.367585,-0.11154 -0.212695,-0.194907 -0.220572,-0.19705 -0.418816,-0.114181 -0.111128,0.04645 -0.195806,0.115976 -0.188018,0.154885 0.0346,0.172881 -0.07606,0.367756 -0.26777,0.471005 -0.116994,0.06301 -0.205445,0.155174 -0.205445,0.214091 0,0.05682 -0.02342,0.117494 -0.05229,0.135328 -0.02885,0.01784 -0.151434,0.202063 -0.272521,0.409155 -0.121097,0.207094 -0.240953,0.376381 -0.266184,0.376381 -0.02523,0 -0.04595,0.03331 -0.04595,0.074 0,0.04069 -0.0833,0.164753 -0.185379,0.275414 -0.116475,0.126272 -0.180113,0.249644 -0.17006,0.331446 0.01206,0.09873 -0.01282,0.13057 -0.104572,0.13057 -0.10023,0 -0.115121,0.02496 -0.08503,0.144844 0.02239,0.08924 0.01152,0.144844 -0.02799,0.144844 -0.0353,0 -0.0639,0.05263 -0.0639,0.117353 0,0.06472 -0.04037,0.133268 -0.08978,0.152244 -0.06674,0.02564 -0.08031,0.07977 -0.05176,0.209863 0.03272,0.149028 0.02409,0.169604 -0.05968,0.137441 -0.135921,-0.05217 -0.328276,0.1824 -0.289421,0.353122 0.01631,0.0717 0.0028,0.130569 -0.02958,0.130569 -0.03246,0 -0.05915,0.116071 -0.05915,0.25797 0,0.260652 -0.07782,0.509092 -0.210199,0.669766 -0.03972,0.04821 -0.104017,0.217466 -0.1426,0.376379 -0.03859,0.158912 -0.118062,0.427273 -0.176927,0.595758 -0.05887,0.168485 -0.107213,0.406251 -0.107213,0.528625 0,0.122371 -0.04003,0.31878 -0.08926,0.436642 -0.117083,0.280323 -0.220618,2.012422 -0.180097,3.015268 0.03558,0.880147 0.160869,1.797681 0.25879,1.895645 0.03775,0.03777 0.06964,0.161238 0.07077,0.274356 0.0011,0.113124 0.03707,0.269247 0.08028,0.347307 0.04321,0.07806 0.06575,0.175051 0.05017,0.215677 -0.01558,0.04062 0.05277,0.286144 0.151577,0.54501 0.115803,0.303377 0.201928,0.669317 0.241889,1.029759 0.09363,0.84458 0.08548,0.821902 0.277802,0.783421 0.113869,-0.02279 0.190508,-0.0032 0.245588,0.06238 0.04401,0.05248 0.12521,0.141409 0.180624,0.197705 0.08615,0.08754 0.680773,1.386882 0.680773,1.487546 0,0.01932 0.143265,0.329899 0.318471,0.690382 0.193793,0.398741 0.375662,0.692932 0.463707,0.750647 0.0909,0.0596 0.144712,0.148933 0.144712,0.240522 0,0.237078 0.197022,0.553012 0.576202,0.923507 0.195671,0.19119 0.453105,0.490808 0.572504,0.666065 0.119401,0.175255 0.340509,0.49743 0.491172,0.715757 0.231978,0.336156 0.268505,0.425818 0.23872,0.584658 -0.03239,0.17274 -0.0036,0.218386 0.360722,0.578843 0.217576,0.215254 0.517543,0.453395 0.667041,0.52968 0.149501,0.07629 0.292793,0.172429 0.318471,0.213563 0.04809,0.07705 0.715409,0.582028 1.176171,0.890204 0.143328,0.09587 0.377948,0.254188 0.521275,0.351532 0.611631,0.415402 0.840127,0.539197 0.996604,0.539197 0.09136,0 0.268072,0.05204 0.392936,0.115771 0.124872,0.06372 0.305948,0.115767 0.401916,0.115767 0.180192,0 0.271022,0.03556 1.248527,0.486332 0.626296,0.288817 0.724081,0.312843 0.724081,0.179733 0,-0.142064 0.353846,-0.105275 1.065264,0.110482 0.357696,0.10849 0.804827,0.215207 0.993962,0.236824 0.467512,0.05342 1.000506,0.210754 1.037271,0.3066 0.04141,0.107944 -0.07065,0.302374 -0.174287,0.302374 -0.101519,0 -0.109261,0.325 -0.02799,1.160329 0.02956,0.30371 0.05796,0.90306 0.06285,1.332133 0.0088,0.766343 0.03457,0.908838 0.263015,1.426753 0.04429,0.100413 0.08081,0.218217 0.08081,0.261669 0,0.04347 0.05196,0.176065 0.115661,0.294972 0.06369,0.118901 0.116192,0.281801 0.116192,0.361579 0,0.07978 0.05595,0.201392 0.12464,0.270125 0.0687,0.06873 0.291265,0.460366 0.494869,0.870644 0.203604,0.41028 0.456098,0.829975 0.560887,0.93249 0.354584,0.346913 0.947652,0.736903 1.120716,0.736903 0.116846,0 0.232129,0.06879 0.393993,0.23471 0.15118,0.154966 0.265127,0.224895 0.334844,0.206691 0.179116,-0.04675 0.803646,0.274897 1.037798,0.534438 0.229977,0.254914 0.282691,0.493037 0.122528,0.554527 -0.340958,0.130892 -2.556091,0.181513 -3.698047,0.08458 -0.958236,-0.08134 -2.093303,-0.222806 -2.990337,-0.372682 -0.466168,-0.07788 -0.938729,-0.141669 -1.049948,-0.141669 -0.111221,0 -0.300477,-0.0411 -0.420928,-0.09145 -0.120451,-0.05035 -0.534406,-0.164658 -0.919495,-0.254269 -0.385086,-0.08961 -1.180387,-0.310407 -1.76769,-0.490032 -0.671459,-0.205369 -1.151756,-0.321341 -1.293945,-0.312946 -0.171617,0.01013 -0.249384,-0.0164 -0.322167,-0.109426 -0.08652,-0.110587 -0.710955,-0.388048 -1.659421,-0.737957 -0.191103,-0.0705 -0.483456,-0.197898 -0.649613,-0.282816 -0.166156,-0.08492 -0.361902,-0.154357 -0.43519,-0.154357 -0.07329,0 -0.224461,-0.06034 -0.335369,-0.13427 -0.110908,-0.07392 -0.462088,-0.273362 -0.780594,-0.442986 -0.884868,-0.471252 -1.969739,-1.086868 -2.547756,-1.445787 -0.792981,-0.492414 -2.693688,-1.847967 -3.351057,-2.389908 -1.499728,-1.236431 -2.095103,-1.81235 -3.2565,-3.147964 -2.266616,-2.606675 -4.305318,-5.927959 -5.653755,-9.211795 -1.769701,-4.309733 -2.723594,-9.633971 -2.398291,-13.38369 0.111897,-1.289892 0.342602,-3.013985 0.495925,-3.707238 0.468076,-2.116406 0.616838,-2.637769 1.655724,-5.793714 0.04196,-0.127463 0.140982,-0.348756 0.220235,-0.492149 0.07926,-0.143388 0.227244,-0.469294 0.328504,-0.724214 0.298445,-0.751329 1.234738,-2.671961 1.475099,-3.02584 0.0809,-0.119123 0.146824,-0.242298 0.146824,-0.273299 0,-0.03101 0.166094,-0.304823 0.369171,-0.608975 0.203076,-0.304148 0.491249,-0.754301 0.640107,-1.000155 0.148859,-0.245861 0.366974,-0.576889 0.484834,-0.735844 0.117861,-0.158961 0.318877,-0.437313 0.44628,-0.61849 0.350388,-0.498283 0.744798,-1.034236 0.785347,-1.066762 0.01986,-0.01594 0.12941,-0.152649 0.244001,-0.303959 0.264136,-0.348793 1.221083,-1.444568 1.750261,-2.00454 0.577105,-0.610685 1.571732,-1.482423 2.886294,-2.529992 0.935857,-0.745779 2.763332,-1.956306 3.686428,-2.441712 0.302582,-0.159109 0.654246,-0.353845 0.781649,-0.432942 0.374659,-0.232607 2.214102,-1.131357 2.77961,-1.358035 1.948479,-0.781016 3.910826,-1.445589 4.893761,-1.657763 0.14333,-0.03093 0.455627,-0.105853 0.694506,-0.166517 0.949766,-0.241183 3.024922,-0.605198 3.158285,-0.553997 0.138603,0.05321 0.104929,0.321036 -0.04753,0.379024 -0.147916,0.05626 -0.341726,0.559103 -0.370754,0.961037 -0.0092,0.127462 -0.03398,0.335612 -0.05493,0.463074 -0.02096,0.127463 -0.04553,0.596869 -0.0544,1.042974 -0.02496,1.256063 0.291873,3.131704 0.573033,3.393764 0.0648,0.06039 0.13322,0.230312 0.158971,0.393295 0.02493,0.157732 0.160852,0.522397 0.30157,0.81038 0.140715,0.287987 0.240179,0.547386 0.221291,0.576729 -0.0189,0.02935 -0.138781,0.108741 -0.266184,0.176031 -0.414661,0.21902 -0.465335,0.277147 -0.379735,0.437171 0.08623,0.161187 0.02226,0.344512 -0.06549,0.187662 -0.06665,-0.119163 -0.241682,-0.122117 -0.33854,-0.0053 -0.05616,0.06768 -0.05757,0.105668 -0.0069,0.156473 0.03688,0.03689 0.06707,0.08896 0.06707,0.11524 0,0.06133 -0.286784,0.177702 -0.42304,0.171803 -0.05744,-0.0025 -0.119167,0.03335 -0.136789,0.07929 -0.01763,0.04594 -0.08421,0.08352 -0.148408,0.08352 -0.09562,0 -0.104335,0.01491 -0.047,0.08404 0.09852,0.118776 0.01522,0.221551 -0.15369,0.189248 -0.101609,-0.01943 -0.124753,-0.0095 -0.08028,0.03489 0.09748,0.09753 0.07421,0.188358 -0.0676,0.261141 -0.389999,0.200154 -0.538905,0.313043 -0.567225,0.429771 -0.01731,0.07139 -0.0824,0.139461 -0.144712,0.151186 -0.138298,0.02602 -0.649467,0.486841 -0.809111,0.729501 -0.06401,0.09729 -0.220426,0.281227 -0.347518,0.409154 -0.127092,0.12793 -0.282758,0.321333 -0.346461,0.429772 -0.06369,0.108433 -0.174486,0.29078 -0.246115,0.404925 -0.07162,0.114141 -0.158059,0.306698 -0.191714,0.428185 -0.03365,0.121481 -0.07538,0.258681 -0.09295,0.304488 -0.02155,0.05618 0.0075,0.08299 0.08978,0.08299 0.09154,0 0.122,0.03617 0.122,0.144843 0,0.116858 0.02905,0.144842 0.148935,0.144842 0.08171,0 0.198772,0.02728 0.260374,0.06026 0.132354,0.07086 0.149928,0.229422 0.02536,0.229422 -0.04778,0 -0.08714,0.03594 -0.08714,0.07982 0,0.04391 0.03936,0.11257 0.08714,0.152243 0.09812,0.08148 0.117003,0.231536 0.02905,0.231536 -0.03186,0 -0.0581,0.03888 -0.0581,0.08669 0,0.05092 0.05411,0.08818 0.130454,0.08933 0.07166,0.0011 0.227045,0.04754 0.345403,0.103611 0.205778,0.09749 0.255098,0.09732 1.129167,-0.0048 0.502729,-0.05875 1.041188,-0.115957 1.196768,-0.127398 0.15558,-0.0114 0.302284,-0.05221 0.325864,-0.0904 0.02925,-0.04734 0.104886,-0.05505 0.238192,-0.02379 0.249763,0.0586 0.414882,0.03503 0.473742,-0.06819 0.03025,-0.05305 0.09638,-0.06926 0.189075,-0.04599 0.0813,0.02044 0.180025,0.0047 0.230269,-0.037 0.04843,-0.04021 0.254695,-0.08108 0.457899,-0.0904 0.434033,-0.01989 0.850427,-0.225652 1.216311,-0.600516 0.125732,-0.128807 0.274876,-0.23418 0.331145,-0.23418 0.05626,0 0.187577,-0.04801 0.292063,-0.106783 0.196205,-0.110354 0.740454,-0.631724 0.740454,-0.709412 0,-0.02413 0.0936,-0.07479 0.208087,-0.112597 0.326227,-0.107722 1.64516,-1.249385 1.64516,-1.424111 0,-0.123579 0.218666,-0.149524 0.42674,-0.05075 0.10918,0.05183 0.338259,0.128886 0.5086,0.171274 0.32992,0.08211 0.479543,0.13155 1.120189,0.371095 0.313231,0.117118 0.501573,0.240508 0.828654,0.542895 0.232808,0.215234 0.443981,0.391711 0.468988,0.391711 0.02499,0 0.120827,0.06522 0.213371,0.144842 0.09254,0.07963 0.198147,0.144803 0.234493,0.144844 0.03635,3.7e-5 0.192287,0.104083 0.346461,0.231536 0.154176,0.127462 0.310048,0.232066 0.346461,0.232066 0.155428,0 1.082675,1.04258 1.382677,1.55468 0.113596,0.193895 0.256415,0.387558 0.317411,0.430302 0.061,0.04275 0.168418,0.232844 0.238722,0.422368 0.0703,0.189529 0.198101,0.448741 0.283609,0.576201 0.160215,0.238829 0.522332,0.958891 0.522335,1.038745 0,0.02477 0.06509,0.122593 0.144709,0.217266 0.07964,0.09467 0.144712,0.213793 0.144712,0.264311 0,0.05052 0.07011,0.211157 0.155801,0.357349 0.105957,0.180765 0.180598,0.43251 0.233966,0.787119 0.04317,0.286784 0.117262,0.769329 0.164254,1.072049 0.04699,0.302715 0.109578,0.75898 0.139428,1.013903 0.05394,0.4607 0.0953,0.673736 0.162667,0.839981 0.05033,0.124184 0.06504,0.297165 0.08397,0.984824 0.0092,0.334585 0.0398,0.645191 0.06813,0.689855 0.03351,0.05285 0.02328,0.10343 -0.02958,0.144843 -0.07559,0.0592 -0.145396,0.210281 -0.297871,0.642807 -0.0337,0.0956 -0.134688,0.369461 -0.223933,0.608444 -0.08924,0.238985 -0.187269,0.578033 -0.218123,0.75329 -0.03086,0.175257 -0.133011,0.474878 -0.2271,0.666064 -0.09409,0.191188 -0.185416,0.399877 -0.202806,0.463605 -0.227013,0.831751 -0.406181,1.302198 -0.526031,1.380764 -0.07376,0.04834 -0.178353,0.181058 -0.232381,0.294971 -0.05403,0.113908 -0.130218,0.207222 -0.169005,0.207222 -0.106027,0 -0.512278,-0.225748 -0.676549,-0.375851 -0.07963,-0.07276 -0.236042,-0.17853 -0.347518,-0.234709 -0.11147,-0.05618 -0.234506,-0.146812 -0.27305,-0.201406 -0.03855,-0.05458 -0.149293,-0.132207 -0.246113,-0.172332 -0.09683,-0.04012 -0.175871,-0.0956 -0.175871,-0.123169 0,-0.02758 -0.08451,-0.08539 -0.18802,-0.128984 -0.103515,-0.04361 -0.330937,-0.213495 -0.504901,-0.377437 -0.173973,-0.163941 -0.357794,-0.298146 -0.408782,-0.298146 -0.051,0 -0.169468,-0.08081 -0.263016,-0.179731 -0.09354,-0.09893 -0.321924,-0.298213 -0.50807,-0.442456 C 54.52123,39.875095 54.322847,39.682115 54.266911,39.590095 54.14901,39.396122 53.64353,39.01918 53.501106,39.01918 c -0.08907,0 -0.15999,-0.07259 -0.441526,-0.451972 -0.101814,-0.137196 -0.419347,-0.239148 -0.750492,-0.241582 -0.174592,-0.0013 -0.188017,0.01245 -0.188017,0.189775 0,0.105161 0.02539,0.216259 0.05651,0.247399 0.121468,0.121521 0.290827,0.753336 0.29259,1.091078 0.0011,0.218132 0.03459,0.396226 0.08714,0.465717 0.04676,0.06186 0.08503,0.145498 0.08503,0.186075 0,0.04058 0.117049,0.267064 0.260373,0.503252 0.143325,0.236184 0.260901,0.455146 0.260901,0.486859 0,0.0317 0.171045,0.287517 0.380262,0.56827 0.209218,0.280752 0.415348,0.577385 0.457899,0.659195 0.04255,0.0818 0.144969,0.207097 0.22763,0.278586 0.08266,0.07148 0.149993,0.177141 0.149993,0.234706 0,0.133829 0.109924,0.243695 0.243473,0.243698 0.05734,0 0.104042,0.03844 0.104042,0.08511 0,0.04668 0.0525,0.112847 0.116192,0.146958 0.06508,0.03484 0.115662,0.121113 0.115662,0.197175 0,0.138334 0.423787,0.669909 0.485892,0.609505 0.01874,-0.01822 -0.04733,-0.115998 -0.146297,-0.217266 -0.190689,-0.195129 -0.162069,-0.250051 0.04225,-0.08141 0.19925,0.164445 0.428851,0.508158 0.428851,0.641748 0,0.08376 0.03606,0.124756 0.109326,0.124756 0.159109,0 0.199954,0.33182 0.05598,0.455145 -0.05871,0.0503 -0.122892,0.17769 -0.1426,0.282813 -0.03739,0.199459 -0.283604,0.443799 -0.401386,0.398583 -0.08425,-0.03235 -0.490115,0.443041 -0.490115,0.574084 0,0.05246 -0.141243,0.233288 -0.313718,0.401756 -0.172474,0.168463 -0.365927,0.407211 -0.429906,0.530738 -0.06398,0.123525 -0.215615,0.326032 -0.337483,0.449859 -0.121862,0.123824 -0.273783,0.31216 -0.337481,0.418668 -0.06369,0.106514 -0.302957,0.500301 -0.531312,0.875402 -0.413352,0.678979 -0.65272,1.206947 -0.876186,1.932118 -0.173248,0.562203 -0.29014,0.817826 -0.451033,0.985884 -0.07914,0.08265 -0.160206,0.252437 -0.180097,0.376906 -0.01987,0.124472 -0.08174,0.258744 -0.137844,0.298674 -0.22601,0.160859 -0.260398,0.668405 -0.05387,0.796108 0.04654,0.02876 0.04533,0.06275 -0.0048,0.123167 -0.0533,0.06426 -0.05399,0.117954 -0.0016,0.233124 0.04344,0.09539 0.04869,0.173522 0.01374,0.21568 -0.03534,0.04259 -0.02677,0.117691 0.02482,0.210918 0.04402,0.07957 0.08127,0.217177 0.08239,0.306074 0.0011,0.08889 0.05407,0.264146 0.117774,0.389066 0.0637,0.124924 0.115664,0.256473 0.115664,0.292329 0,0.0606 0.246169,0.610201 0.452618,1.011258 0.0492,0.09559 0.195603,0.296484 0.325334,0.446687 0.307273,0.355762 0.549897,0.810009 0.450506,0.843154 -0.07719,0.02574 0.304899,0.361051 0.411421,0.361051 0.03322,0 0.224274,0.106768 0.424625,0.23735 0.200354,0.130592 0.60455,0.327804 0.897843,0.43823 l 0.532894,0.200877 1.189903,0.01321 c 0.654364,0.0072 1.477241,-0.0078 1.828426,-0.03331 0.351185,-0.02549 0.772154,-0.04515 0.935338,-0.04334 0.343846,0.0039 0.657728,-0.06484 1.381092,-0.301846 0.285933,-0.09368 0.571425,-0.156534 0.634297,-0.140086 0.199635,0.05223 0.9362,-0.168171 1.75026,-0.523336 0.100362,-0.04379 0.202641,-0.07929 0.22763,-0.07929 0.02499,0 0.169494,-0.104611 0.320582,-0.232065 0.15747,-0.13284 0.335188,-0.231537 0.416703,-0.231537 0.08777,0 0.178585,-0.05543 0.237137,-0.144845 0.05673,-0.08661 0.149787,-0.14484 0.231326,-0.14484 0.075,0 0.168438,-0.03943 0.208088,-0.08723 0.03964,-0.0478 0.129466,-0.08669 0.19911,-0.08669 0.155947,0 0.247597,-0.07352 0.496451,-0.398053 0.106852,-0.139336 0.368767,-0.365441 0.582013,-0.502192 0.213247,-0.136752 0.490613,-0.348778 0.61634,-0.471006 0.125734,-0.122222 0.360876,-0.331983 0.522332,-0.466244 0.175089,-0.145602 0.345722,-0.355812 0.42357,-0.521223 0.0814,-0.172956 0.40567,-0.563336 0.86087,-1.037162 1.187223,-1.235782 1.532232,-1.635071 1.679491,-1.942689 0.09097,-0.190041 0.216321,-0.339633 0.360722,-0.43083 0.261656,-0.165248 0.348157,-0.287941 0.518633,-0.734785 0.120645,-0.316212 0.149722,-0.345687 0.539232,-0.555055 0.551652,-0.296524 1.213218,-0.679212 1.581257,-0.91452 0.165758,-0.105977 0.696964,-0.374838 1.180398,-0.597344 0.513514,-0.236355 1.050488,-0.532585 1.291306,-0.712056 0.226708,-0.168956 0.490156,-0.365027 0.585708,-0.436115 0.09555,-0.07107 0.265086,-0.179447 0.376565,-0.240523 0.111471,-0.06108 0.29361,-0.206491 0.405085,-0.322989 0.111474,-0.116501 0.300432,-0.266668 0.419872,-0.334089 0.119437,-0.06741 0.217068,-0.156755 0.217068,-0.198236 0,-0.04147 0.104458,-0.144016 0.231853,-0.228365 0.127406,-0.08434 0.231854,-0.179891 0.231854,-0.211978 0,-0.03209 0.04504,-0.09117 0.100346,-0.131628 0.09515,-0.06961 0.09489,-0.08043 -0.0063,-0.192416 -0.105024,-0.116119 -0.104564,-0.118685 0.04383,-0.155946 0.08319,-0.0209 0.151578,-0.05127 0.151578,-0.06714 0,-0.01586 -0.08123,-0.131357 -0.180625,-0.256911 -0.205554,-0.259651 -0.171574,-0.394293 0.03803,-0.150658 0.188174,0.218722 0.277747,0.207135 0.226572,-0.02907 l -0.04067,-0.188192 0.123058,0.110485 c 0.114418,0.102616 0.130494,0.103756 0.228157,0.01531 0.0748,-0.06773 0.123136,-0.07708 0.167421,-0.03278 0.04428,0.04429 0.07498,0.04112 0.107211,-0.0111 0.02906,-0.04702 -0.02025,-0.127968 -0.137316,-0.225724 -0.173502,-0.144914 -0.177488,-0.158828 -0.09031,-0.28334 0.107057,-0.152907 0.0647,-0.231181 -0.06602,-0.122643 -0.07388,0.06136 -0.116078,0.06104 -0.233966,-0.0021 -0.110607,-0.05923 -0.159824,-0.06143 -0.212313,-0.009 -0.03757,0.03759 -0.155323,0.06819 -0.261429,0.06819 -0.118068,0 -0.205645,0.03403 -0.226045,0.08723 -0.01833,0.0478 -0.08283,0.08669 -0.143127,0.08669 -0.07303,0 -0.109324,0.04095 -0.109326,0.122639 0,0.09427 -0.02683,0.115887 -0.116189,0.09252 -0.07159,-0.01873 -0.144236,0.0081 -0.188548,0.07031 -0.118628,0.166518 -0.553945,0.426076 -0.651725,0.388536 -0.08889,-0.03411 -0.310145,0.05834 -0.383961,0.160174 -0.02058,0.0284 -0.173497,0.06227 -0.339596,0.0756 -0.192122,0.01539 -0.380656,0.07605 -0.518105,0.167043 -0.219039,0.14502 -0.555711,0.198444 -1.86962,0.295502 -0.495291,0.03659 -0.652723,-0.02544 -0.601554,-0.237879 0.0589,-0.244538 0.152462,-2.429875 0.172702,-4.031286 0.03008,-2.378787 -0.0483,-3.9957 -0.2271,-4.684133 -0.07751,-0.298447 -0.141015,-0.629685 -0.141015,-0.735844 0,-0.106154 -0.02504,-0.208174 -0.05598,-0.227307 -0.09684,-0.05987 -0.29484,-0.565591 -0.261958,-0.669238 0.03495,-0.110176 -0.0098,-0.229143 -0.261958,-0.692496 -0.09502,-0.174625 -0.172702,-0.365466 -0.172702,-0.423957 0,-0.153237 -0.105654,-0.328218 -0.319526,-0.530209 -0.122359,-0.115553 -0.223271,-0.296884 -0.292062,-0.524394 -0.129448,-0.428144 -0.556885,-1.3486 -0.807002,-1.738115 -0.102296,-0.159322 -0.279662,-0.447554 -0.394521,-0.640691 -0.114858,-0.193137 -0.310315,-0.467002 -0.434132,-0.608446 -0.123826,-0.141447 -0.295503,-0.369861 -0.381847,-0.507479 -0.178902,-0.285157 -0.69906,-0.821482 -0.796437,-0.821482 -0.09427,0 -0.802248,-0.740796 -0.802248,-0.839452 0,-0.04589 -0.0499,-0.110311 -0.111438,-0.143258 -0.06154,-0.03295 -0.128703,-0.112268 -0.148935,-0.176031 -0.02023,-0.06377 -0.07328,-0.115768 -0.117777,-0.115768 -0.04451,0 -0.108509,-0.05205 -0.142597,-0.11577 -0.03409,-0.06373 -0.101119,-0.115768 -0.148408,-0.115768 -0.131832,0 -0.556779,-0.287833 -0.585708,-0.396468 -0.01411,-0.05304 -0.156223,-0.174533 -0.315829,-0.270126 -0.159606,-0.09559 -0.413341,-0.269127 -0.563528,-0.385895 -0.150182,-0.116775 -0.369879,-0.230413 -0.488531,-0.252682 -0.118655,-0.02227 -0.230242,-0.06372 -0.247697,-0.09198 -0.01744,-0.02825 -0.09772,-0.05128 -0.178513,-0.05128 -0.08079,0 -0.219582,-0.05196 -0.308433,-0.11524 -0.235199,-0.167547 -0.681835,-0.348364 -0.860343,-0.348364 -0.08505,0 -0.278588,-0.08865 -0.430436,-0.196647 -0.167667,-0.119258 -0.381773,-0.211878 -0.544513,-0.236295 -0.357794,-0.05369 -0.856444,-0.276309 -1.281272,-0.571971 l -0.237137,-0.16493 -0.234493,0.10361 c -0.249895,0.1103 -0.283639,0.201118 -0.16795,0.455145 0.0791,0.173704 0.501534,0.437172 0.700844,0.437172 0.139501,0 0.679718,0.375609 0.679718,0.472589 0,0.02828 0.06509,0.08106 0.144712,0.117354 0.120094,0.05474 0.145239,0.106195 0.145239,0.302902 0,0.186758 0.03574,0.271128 0.168475,0.396467 0.09269,0.08752 0.193953,0.159116 0.225518,0.159116 0.03157,0 0.111157,0.09146 0.176926,0.202991 0.06669,0.113075 0.165971,0.202463 0.22446,0.202463 0.149723,0 0.36251,0.163077 0.363362,0.278585 5.41e-4,0.05396 0.228544,0.345904 0.507016,0.648621 0.278483,0.302717 0.56878,0.641761 0.645389,0.753287 0.07662,0.111538 0.198748,0.267644 0.271466,0.347308 0.07272,0.07967 0.215386,0.301485 0.316883,0.492677 0.101506,0.191188 0.30633,0.530235 0.45526,0.753287 0.332202,0.497543 0.505964,0.820621 0.549267,1.02236 0.01809,0.08435 0.126016,0.264468 0.239774,0.400694 0.156543,0.187459 0.198061,0.281655 0.171648,0.386953 -0.02234,0.08904 0.01847,0.25097 0.112495,0.449859 0.08082,0.17093 0.146821,0.340477 0.146821,0.376381 0,0.03591 0.117052,0.287442 0.260376,0.559282 0.143325,0.271847 0.260901,0.538821 0.260901,0.593117 0,0.0543 0.02474,0.123657 0.05546,0.154357 0.03069,0.0307 0.07236,0.212053 0.09242,0.402811 0.03428,0.32605 0.153695,0.719426 0.360193,1.186761 0.04927,0.111521 0.09786,0.383107 0.108271,0.603689 0.01166,0.2475 0.06096,0.481755 0.128336,0.611087 0.121235,0.232683 0.163181,0.403266 0.211787,0.8643 0.01809,0.171604 0.07217,0.40657 0.120415,0.52175 0.05557,0.132689 0.08701,0.389441 0.08609,0.701485 -8.12e-4,0.270853 0.01228,0.609897 0.02905,0.753288 0.01674,0.143396 0.03174,0.338933 0.03327,0.434528 0.0016,0.0956 0.03901,0.31605 0.08344,0.490035 0.104188,0.408059 0.104453,0.837783 5.41e-4,0.924033 -0.04816,0.03998 -0.08028,0.178906 -0.08028,0.347836 0,0.282677 -0.126754,1.064311 -0.278859,1.718024 -0.04497,0.193227 -0.08186,0.406928 -0.08186,0.474706 0,0.06779 -0.02371,0.137964 -0.05282,0.155943 -0.02907,0.018 -0.07119,0.140259 -0.09348,0.272242 -0.03202,0.189601 -0.02098,0.251013 0.05281,0.292329 0.114064,0.06386 0.122761,0.297937 0.01425,0.388009 -0.09731,0.08079 -0.442056,0.771281 -0.442056,0.885445 0,0.04548 -0.02279,0.107172 -0.0507,0.137442 -0.02792,0.03028 -0.109805,0.237905 -0.18221,0.460958 -0.135591,0.417707 -0.263721,0.69308 -0.390824,0.84157 -0.166623,0.194658 -0.360719,0.5318 -0.360719,0.626419 0,0.05585 -0.07691,0.165527 -0.17112,0.243695 -0.106987,0.08879 -0.172226,0.198412 -0.173757,0.292329 -0.0028,0.166948 -0.162015,0.342019 -0.311075,0.342019 -0.05982,0 -0.09665,0.04667 -0.09665,0.122114 0,0.08384 -0.02682,0.111889 -0.08556,0.08933 -0.05852,-0.02246 -0.188369,0.11037 -0.410894,0.421313 -0.264754,0.369956 -0.347237,0.448925 -0.444697,0.423429 -0.100501,-0.02628 -0.114332,-0.01074 -0.08609,0.09726 0.03046,0.116558 0.0176,0.125146 -0.135734,0.09145 -0.167586,-0.03684 -0.169006,-0.03466 -0.169006,0.224666 0,0.144043 -0.02842,0.279498 -0.06285,0.300787 -0.03591,0.02222 -0.04646,0.102481 -0.02482,0.188717 0.02074,0.08268 0.0464,0.278456 0.05704,0.435059 0.01601,0.235436 0.0014,0.28981 -0.08503,0.312415 -0.123155,0.03221 -0.187339,0.340991 -0.104045,0.500079 0.08886,0.169742 0.0075,0.385367 -0.14524,0.385367 -0.09015,0 -0.19912,0.09083 -0.347515,0.289685 -0.132314,0.17732 -0.260936,0.289685 -0.331145,0.289685 -0.06336,0 -0.114607,0.03922 -0.114607,0.08723 0,0.04779 -0.04339,0.08669 -0.09612,0.08669 -0.05275,0 -0.180804,0.06518 -0.285197,0.144845 -0.104394,0.07967 -0.244653,0.144841 -0.311603,0.144841 -0.06694,0 -0.180457,0.03826 -0.251923,0.08511 -0.07147,0.04685 -0.311397,0.0972 -0.533424,0.11154 -0.222022,0.01434 -0.56291,0.04401 -0.757355,0.06608 -0.375849,0.04264 -0.602081,-0.02398 -0.602081,-0.177618 0,-0.04667 -0.02593,-0.08511 -0.05757,-0.08511 -0.03161,0 -0.124748,-0.05848 -0.207033,-0.130042 -0.08467,-0.07367 -0.206841,-0.12246 -0.282028,-0.112595 -0.0953,0.0125 -0.142005,-0.01765 -0.165306,-0.106781 -0.02385,-0.09127 -0.0621,-0.114873 -0.144184,-0.08881 -0.06889,0.02187 -0.142838,-0.0016 -0.192242,-0.06132 -0.07192,-0.08668 -0.06567,-0.09199 0.05757,-0.05287 l 0.137316,0.04387 -0.108796,-0.15013 c -0.05982,-0.0823 -0.154538,-0.165102 -0.210202,-0.183961 -0.05566,-0.01886 -0.116335,-0.09555 -0.135204,-0.170746 -0.01888,-0.0752 -0.0844,-0.181742 -0.145239,-0.236824 -0.06084,-0.05509 -0.110381,-0.165911 -0.110381,-0.246336 0,-0.195373 -0.12657,-0.548667 -0.217068,-0.606334 -0.09851,-0.06278 -0.09134,-0.184832 0.01585,-0.273827 0.07917,-0.06572 0.07917,-0.08323 0,-0.170745 -0.116243,-0.128504 -0.111359,-0.175501 0.01796,-0.175501 0.152335,0 0.183283,-0.05176 0.117777,-0.195591 -0.0738,-0.162045 0.02623,-0.441402 0.157916,-0.441402 0.07736,0 0.08207,-0.01659 0.02482,-0.08564 -0.05578,-0.06724 -0.05448,-0.121967 0.0069,-0.260611 0.04272,-0.09657 0.108469,-0.175501 0.146296,-0.175501 0.117173,0 0.319791,-0.336254 0.279386,-0.463602 -0.04457,-0.140468 0.09391,-0.159815 0.202806,-0.02855 0.03965,0.04779 0.09808,0.08669 0.129924,0.08669 0.03532,0 0.03297,-0.03028 -0.0063,-0.07771 -0.08109,-0.09774 -0.02746,-0.15383 0.146824,-0.15383 0.08151,0 0.135204,-0.03481 0.135204,-0.08723 0,-0.04778 0.04199,-0.0867 0.09348,-0.0867 0.06509,0 0.08442,-0.03523 0.06338,-0.115767 -0.05093,-0.194846 0.04928,-0.181461 0.273577,0.03647 0.203318,0.197551 0.217747,0.202244 0.295232,0.09991 0.04481,-0.0592 0.0819,-0.179322 0.08292,-0.266953 0.0016,-0.145366 0.02117,-0.159114 0.220762,-0.159114 0.120315,0 0.270433,-0.0361 0.333257,-0.07982 0.07597,-0.05286 0.157878,-0.063 0.24453,-0.03066 0.151104,0.05643 0.154695,0.07211 0.05757,0.228896 -0.05967,0.09632 -0.05684,0.126236 0.01479,0.171801 0.129063,0.08213 0.174459,0.06873 0.133092,-0.03912 -0.03197,-0.08334 -0.01057,-0.08918 0.161082,-0.04599 0.108853,0.02738 0.408853,0.05077 0.666514,0.05233 0.451982,0.0028 0.477417,0.01051 0.72778,0.215678 0.165993,0.136009 0.28652,0.196067 0.334314,0.166517 0.04109,-0.02541 0.122958,-0.03386 0.18168,-0.01852 0.108439,0.02837 0.143884,-0.04806 0.182209,-0.389067 0.0096,-0.08595 0.05955,-0.152285 0.123057,-0.164402 0.139634,-0.02664 0.327449,-0.217577 0.327449,-0.332505 0,-0.119711 0.06711,-0.241744 0.480608,-0.87963 0.191068,-0.294749 0.369405,-0.536024 0.396635,-0.536024 0.02723,0 0.04964,-0.06518 0.04964,-0.144845 0,-0.09171 0.03234,-0.14484 0.08873,-0.14484 0.05734,0 0.0849,-0.04612 0.07711,-0.130042 -0.01952,-0.21034 0.07347,-0.506951 0.158971,-0.506951 0.04735,0 0.07376,-0.05239 0.06549,-0.13057 -0.01068,-0.100545 0.01352,-0.127562 0.10563,-0.118411 0.158443,0.01575 0.32926,-0.261416 0.249281,-0.404397 -0.03973,-0.07102 -0.03105,-0.136486 0.02958,-0.22308 0.0653,-0.09326 0.07019,-0.147417 0.02166,-0.225193 -0.05195,-0.08322 -0.02512,-0.156379 0.143127,-0.390653 0.134975,-0.187959 0.230305,-0.406643 0.274105,-0.629062 0.03693,-0.18754 0.10467,-0.439146 0.15052,-0.559282 0.04584,-0.120139 0.08345,-0.323305 0.08345,-0.450917 0,-0.127614 0.05198,-0.380135 0.115661,-0.561399 0.148076,-0.421477 0.257589,-1.949507 0.212314,-2.963464 -0.03576,-0.801033 -0.213601,-1.99874 -0.371284,-2.497744 -0.03524,-0.111523 -0.142311,-0.450574 -0.237665,-0.753291 -0.09536,-0.302717 -0.191495,-0.693803 -0.213368,-0.869054 -0.02188,-0.175258 -0.05728,-0.467038 -0.07869,-0.648624 -0.04422,-0.3753 -0.08326,-0.440474 -0.204391,-0.339904 -0.05062,0.04202 -0.118966,0.05126 -0.168478,0.02273 -0.181774,-0.104731 -0.497573,-0.556159 -0.590461,-0.844212 -0.05397,-0.167378 -0.129334,-0.356529 -0.167421,-0.420258 -0.03808,-0.06372 -0.117276,-0.246128 -0.175874,-0.405452 -0.186365,-0.506748 -0.66518,-1.416499 -0.784817,-1.491248 -0.06348,-0.03966 -0.115491,-0.124691 -0.116192,-0.18872 -0.0028,-0.247769 -0.242745,-0.626805 -0.651197,-1.029229 -0.234604,-0.231142 -0.628476,-0.721751 -0.877243,-1.092665 -0.397885,-0.593238 -0.443673,-0.688038 -0.385016,-0.797692 0.05813,-0.108653 0.0355,-0.160812 -0.176928,-0.412856 -0.133804,-0.158761 -0.25837,-0.289128 -0.277275,-0.289156 -0.0189,-2.4e-5 -0.137256,-0.09096 -0.262485,-0.202463 -0.125226,-0.111506 -0.272364,-0.202992 -0.327449,-0.202992 -0.05508,0 -0.1691,-0.0816 -0.252978,-0.181317 -0.177174,-0.210659 -0.260411,-0.272423 -1.305567,-0.972667 -0.429982,-0.288084 -0.889955,-0.603762 -1.022482,-0.701485 -0.132533,-0.09772 -0.340904,-0.193043 -0.46318,-0.211977 -0.122279,-0.01893 -0.323395,-0.0851 -0.446807,-0.146957 -0.123414,-0.06186 -0.277544,-0.09885 -0.342237,-0.08194 -0.125496,0.03283 -0.529316,-0.118806 -1.299756,-0.487919 -0.535074,-0.256353 -0.568602,-0.262874 -0.69028,-0.141144 -0.12462,0.124676 -0.247916,0.110816 -1.001885,-0.112596 -0.370352,-0.109737 -0.829822,-0.225067 -1.020898,-0.255854 -0.441412,-0.07111 -0.996836,-0.231915 -1.039382,-0.300786 -0.05094,-0.08248 0.08194,-0.287043 0.186433,-0.287043 0.08407,0 0.08893,-0.08268 0.04912,-0.796636 -0.02442,-0.438144 -0.05335,-1.183541 -0.06443,-1.656706 -0.01179,-0.501737 -0.04633,-0.892088 -0.08292,-0.936192 -0.0345,-0.04159 -0.04603,-0.142781 -0.02534,-0.225194 0.02725,-0.108639 0.01209,-0.159603 -0.05546,-0.185547 -0.05148,-0.01985 -0.135026,-0.18212 -0.186433,-0.362635 -0.05119,-0.179774 -0.116386,-0.351924 -0.144712,-0.382196 -0.02832,-0.03028 -0.05123,-0.129231 -0.05123,-0.219907 0,-0.101037 -0.0592,-0.224222 -0.153162,-0.318231 -0.08432,-0.08436 -0.318549,-0.480554 -0.520217,-0.880687 -0.394493,-0.782699 -0.47829,-0.888645 -1.083218,-1.369135 -0.293518,-0.233137 -0.443935,-0.31453 -0.582014,-0.31453 -0.140426,0 -0.241007,-0.05593 -0.409309,-0.228367 -0.175953,-0.180272 -0.254614,-0.222568 -0.373397,-0.200347 -0.239949,0.04489 -0.900479,-0.349418 -1.122828,-0.670295 -0.318879,-0.46018 -0.0082,-0.546138 1.985813,-0.548183 z m 27.538884,0.296558 c 0.09815,0.0071 0.207934,0.08182 0.184324,0.152772 -0.03567,0.1072 -0.189921,0.111779 -0.275692,0.0085 -0.06527,-0.07867 -0.065,-0.101753 0.0022,-0.143257 0.02477,-0.01532 0.05654,-0.02034 0.08925,-0.01797 z m 1.760297,1.177245 c 0.125527,0 0.242857,0.02365 0.260901,0.05287 0.01804,0.02921 -0.0846,0.05287 -0.228157,0.05287 -0.143562,0 -0.261428,-0.02365 -0.261428,-0.05287 0,-0.0292 0.103153,-0.05287 0.228684,-0.05287 z m 0.18221,0.69514 c 0.02751,0 0.09243,0.06503 0.144709,0.144842 0.0766,0.116953 0.08116,0.162266 0.02323,0.232066 -0.07657,0.0923 -0.207703,0.114637 -0.249811,0.04282 -0.04106,-0.07005 0.02717,-0.419727 0.08186,-0.419727 z m -43.987858,0.115768 c 0.04778,0 0.08662,0.02448 0.08662,0.05445 0,0.07305 -0.09052,0.125587 -0.136789,0.07929 -0.06522,-0.06524 -0.03938,-0.133741 0.05017,-0.133741 z M 9.763565,31.140175 c 0.090407,0 0.1155972,0.204497 0.031689,0.256384 -0.028249,0.01746 -0.082217,-0.0057 -0.1204164,-0.0518 -0.080055,-0.09651 -0.033158,-0.204577 0.088728,-0.204577 z M 7.1360607,41.467367 c 0.01462,-0.0035 0.03233,0.0054 0.053342,0.02644 0.042015,0.04205 0.038661,0.133208 -0.011091,0.299201 -0.070212,0.234428 -0.129743,0.291528 -0.1948842,0.186075 -0.018028,-0.0292 -0.00605,-0.126959 0.026935,-0.217263 0.033021,-0.09029 0.073241,-0.20118 0.089256,-0.246339 0.010118,-0.02853 0.021822,-0.04458 0.036442,-0.0481 z m 1.2522237,0.22255 c 0.027088,0.0021 0.054146,0.01456 0.078165,0.03859 0.040574,0.04058 0.038283,0.09791 -0.00634,0.181317 -0.091655,0.171346 -0.235023,0.156607 -0.235023,-0.02431 0,-0.119031 0.081933,-0.202168 0.1631957,-0.195592 z M 7.995347,43.569174 c 0.068035,-0.0073 0.2297416,0.14843 0.2297416,0.238937 0,0.117337 -0.098206,0.09352 -0.1969968,-0.04758 -0.04826,-0.06893 -0.073207,-0.148868 -0.055455,-0.177617 0.00515,-0.0084 0.012991,-0.01273 0.02271,-0.01375 z m 69.89901,0.266428 c -0.01641,-0.0021 -0.03135,0.0013 -0.04172,0.01164 -0.04149,0.0415 0.03149,0.15436 0.09982,0.15436 0.02997,0 0.0544,-0.02447 0.0544,-0.05445 0,-0.05127 -0.06323,-0.10528 -0.112495,-0.111537 z M 7.3742525,44.377439 c 0.020683,-0.0027 0.041117,0.0075 0.063905,0.03014 0.083213,0.08285 0.2071508,0.873411 0.2455858,1.567368 0.025397,0.458388 0.014597,0.566511 -0.060736,0.629063 -0.077837,0.06463 -0.099216,0.05311 -0.1489359,-0.0777 -0.033236,-0.08747 -0.043328,-0.369192 -0.023767,-0.658135 0.027778,-0.410438 0.011539,-0.585417 -0.086615,-0.934605 -0.091849,-0.326722 -0.1051415,-0.449069 -0.054927,-0.509596 0.023792,-0.02868 0.044807,-0.04386 0.06549,-0.04651 z m 1.1508205,2.893684 c 0.015713,-0.006 0.033502,-0.0049 0.051758,0.0063 0.073381,0.04537 0.06849,0.258497 -0.00581,0.258497 -0.032858,0 -0.074144,-0.03779 -0.091897,-0.08406 -0.029948,-0.07806 -0.00119,-0.162567 0.045948,-0.180789 z m -0.5128254,3.118879 c 0.099115,0.03263 0.1211984,0.281612 0.030104,0.339378 C 7.9311,50.79992 7.878684,50.79144 7.8427141,50.69766 7.8006991,50.588115 7.9256121,50.361476 8.0122476,50.39 Z M 7.820004,51.764953 c 0.031856,0 0.057568,0.06518 0.057568,0.144843 0,0.151681 -0.013335,0.170124 -0.077109,0.106252 -0.060074,-0.0601 -0.045152,-0.251095 0.019541,-0.251095 z m 0.013204,0.593644 c 0.083662,0.02791 0.1495957,0.262858 0.1140786,0.405983 -0.028892,0.11639 -0.1239658,0.137152 -0.1336198,0.02907 -0.00358,-0.03984 -0.016865,-0.159213 -0.029048,-0.265369 -0.015299,-0.133252 -7.32e-5,-0.185908 0.048589,-0.169688 z m 1.7275511,3.056502 c 0.029976,0 0.054399,0.03944 0.054399,0.08723 0,0.0896 -0.068403,0.114936 -0.1336196,0.0497 -0.046267,-0.04629 0.0062,-0.136914 0.079221,-0.136914 z m 0.5107139,0.876458 c 0.01027,0.0045 0.0081,0.02941 -0.0011,0.07665 -0.02182,0.112606 -0.1658369,0.200723 -0.1658369,0.101497 0,-0.03062 0.042033,-0.0905 0.093481,-0.133211 0.040466,-0.0336 0.063142,-0.04941 0.073411,-0.04494 z m 29.197251,0.57197 c 0.02998,0 0.0544,0.0389 0.0544,0.08669 0,0.0896 -0.0684,0.115462 -0.13362,0.05022 -0.04627,-0.04629 0.0062,-0.136914 0.07922,-0.136914 z m 50.591738,2.367175 c 0.08761,0.01638 0.08116,0.191821 -0.02693,0.362637 l -0.111969,0.17709 -0.124112,-0.157532 c -0.174675,-0.222154 -0.168249,-0.331496 0.02061,-0.346247 0.06368,-0.0049 0.153229,-0.01973 0.199109,-0.03278 0.01633,-0.0047 0.03079,-0.0055 0.04331,-0.0032 z m -7.04224,11.653508 c 0.163243,0 0.229247,0.02243 0.212841,0.07243 -0.02628,0.08011 -0.342369,0.130932 -0.407727,0.06555 -0.09271,-0.09275 -0.02903,-0.137972 0.194886,-0.137969 z m 0.722496,0.290741 c 0.04434,5.41e-4 0.08345,0.01763 0.08345,0.05075 0,0.06394 -0.150225,0.126093 -0.195413,0.08087 -0.01817,-0.01819 -0.01909,-0.05557 -0.0022,-0.08299 0.02033,-0.03291 0.06973,-0.04906 0.114077,-0.04863 z m -1.004524,0.008 c 0.0767,-0.0013 0.106793,0.107783 0.03644,0.24211 l -0.07764,0.148543 -0.06602,-0.140086 c -0.05244,-0.111149 -0.04898,-0.154092 0.0169,-0.208804 0.03393,-0.02817 0.06475,-0.0413 0.09031,-0.04177 z m -0.927417,0.229424 c 0.03945,0.0056 0.0481,0.03958 0.03697,0.117882 -0.01071,0.07494 -0.06626,0.143655 -0.125169,0.154887 -0.0821,0.01567 -0.101974,-0.01031 -0.08715,-0.114711 0.01071,-0.07495 0.06627,-0.143651 0.12517,-0.154886 0.02052,-0.0039 0.03702,-0.005 0.05017,-0.0032 z m -0.964388,0.78342 c 0.02585,0.0036 0.06437,0.02971 0.129396,0.08088 0.101906,0.08019 0.167267,0.09846 0.208088,0.05762 0.0879,-0.08794 0.135093,-0.07336 0.16795,0.05233 0.01612,0.06166 -0.0096,0.167463 -0.05704,0.235238 -0.04745,0.06777 -0.07359,0.17173 -0.0581,0.231006 0.03542,0.135501 -0.159435,0.464662 -0.275159,0.464662 -0.04764,0 -0.103223,-0.06632 -0.123588,-0.147486 -0.02036,-0.08116 -0.02052,-0.250957 -5.4e-4,-0.376909 0.02236,-0.139964 0.01414,-0.228893 -0.02166,-0.228893 -0.0649,0 -0.078,-0.17208 -0.02377,-0.313475 0.01528,-0.03986 0.02856,-0.05862 0.0544,-0.05497 z m -63.218018,0.02854 c 0.01027,0.0045 0.0081,0.02888 -0.0011,0.07612 -0.02182,0.112603 -0.165837,0.201249 -0.165837,0.102019 0,-0.03062 0.04203,-0.0905 0.09348,-0.133214 0.04047,-0.0336 0.06314,-0.04941 0.07341,-0.04493 z m 63.267138,1.175659 c 0.02077,0.0053 0.03538,0.03854 0.03538,0.08775 0,0.0656 -0.02626,0.119467 -0.0581,0.119467 -0.03186,0 -0.05809,-0.03759 -0.05809,-0.08352 0,-0.04592 0.02626,-0.09979 0.05809,-0.11947 0.008,-0.0049 0.01579,-0.006 0.02272,-0.0042 z m -0.775312,1.724368 c 0.02996,-2e-6 0.05991,0.02555 0.115661,0.07612 0.08821,0.07987 0.100127,0.12331 0.0507,0.182903 -0.08531,0.102838 -0.398213,0.102974 -0.398217,0 0,-0.04286 0.05196,-0.125229 0.115662,-0.182903 0.05585,-0.05055 0.08623,-0.07612 0.116192,-0.07612 z m -3.255467,1.964895 c 0.02293,-3.2e-5 0.04327,0.0057 0.05651,0.01903 0.02158,0.02159 0.0011,0.06339 -0.04595,0.09304 -0.112101,0.07093 -0.172175,0.0699 -0.172175,-0.0037 0,-0.05601 0.09285,-0.108269 0.16161,-0.108367 z m -30.876212,0.134269 c 0.0069,-0.0019 0.01476,-1.73e-4 0.02271,0.0048 0.03185,0.01967 0.05757,0.07302 0.05757,0.118939 0,0.04592 -0.02574,0.08352 -0.05757,0.08352 -0.03186,0 -0.0581,-0.05334 -0.0581,-0.118942 0,-0.0492 0.01463,-0.08294 0.03539,-0.08828 z m 29.657792,0.09145 c 0.01466,-5.42e-4 0.03723,0.0074 0.06813,0.02644 0.06135,0.03793 0.200165,0.263253 0.16214,0.263253 -0.01098,0 -0.0787,-0.05465 -0.15052,-0.121584 -0.09518,-0.08871 -0.12371,-0.166748 -0.07975,-0.168101 z m 0.547682,0.326161 c 0.05128,0.0086 0.06427,0.08423 0.0011,0.147485 -0.03857,0.0386 -0.07227,0.03465 -0.100873,-0.01164 -0.02361,-0.03821 -0.007,-0.09166 0.03697,-0.11894 0.02407,-0.01497 0.04576,-0.01975 0.06285,-0.01692 z M 54.24576,86.363363 c 0.01425,5.41e-4 0.02954,0.004 0.04542,0.01002 0.05902,0.02266 0.08948,0.08643 0.07817,0.163347 -0.02431,0.165218 -0.140388,0.199296 -0.213371,0.0629 -0.06463,-0.120796 -0.01,-0.240857 0.08978,-0.236295 z m -6.74595,0.464662 c 0.111143,-0.02144 0.244508,0.189393 0.197525,0.311886 -0.04084,0.10646 -0.175582,0.10555 -0.2646,-0.0021 -0.09232,-0.111274 -0.05429,-0.286391 0.06707,-0.309772 z m 5.994407,0.299729 c 0.01666,0.0016 0.03194,0.01383 0.04595,0.03648 0.02312,0.03743 0.01601,0.09396 -0.01585,0.125812 -0.0386,0.0386 -0.07232,0.03522 -0.100349,-0.01002 -0.02312,-0.03743 -0.01601,-0.09396 0.01585,-0.125811 0.01931,-0.0193 0.03774,-0.02809 0.0544,-0.02644 z m -4.315974,0.165459 c 0.03753,0.01248 0.09546,0.06594 0.128866,0.11894 0.06911,0.109602 -0.0078,0.217316 -0.124642,0.174444 -0.09292,-0.03407 -0.09716,-0.324355 -0.0042,-0.293384 z m -1.873317,0.04758 c 0.01969,-2.71e-4 0.04655,0.0025 0.08186,0.0074 0.07166,0.01013 0.13045,0.05733 0.13045,0.104668 0,0.120341 -0.180403,0.1429 -0.22446,0.02802 -0.04091,-0.106662 -0.04695,-0.138973 0.01214,-0.140086 z"
         id="path2294"
         inkscape:connector-curvature="0" />
    </g>
  </g>
</svg>
