<?xml version="1.0" encoding="UTF-8" standalone="no"?>
<!-- Created with Inkscape (http://www.inkscape.org/) -->

<svg
   xmlns:dc="http://purl.org/dc/elements/1.1/"
   xmlns:cc="http://creativecommons.org/ns#"
   xmlns:rdf="http://www.w3.org/1999/02/22-rdf-syntax-ns#"
   xmlns:svg="http://www.w3.org/2000/svg"
   xmlns="http://www.w3.org/2000/svg"
   xmlns:sodipodi="http://sodipodi.sourceforge.net/DTD/sodipodi-0.dtd"
   xmlns:inkscape="http://www.inkscape.org/namespaces/inkscape"
   width="25.4mm"
   height="25.4mm"
   viewBox="0 0 25.4 25.4"
   version="1.1"
   id="svg5097"
   inkscape:version="0.92.3 (2405546, 2018-03-11)"
   sodipodi:docname="Togowa.svg">
  <defs
     id="defs5091" />
  <sodipodi:namedview
     id="base"
     pagecolor="#ffffff"
     bordercolor="#666666"
     borderopacity="1.0"
     inkscape:pageopacity="0.0"
     inkscape:pageshadow="2"
     inkscape:zoom="8.8541666"
     inkscape:cx="48.000018"
     inkscape:cy="48"
     inkscape:document-units="mm"
     inkscape:current-layer="g3115"
     showgrid="false"
     fit-margin-top="0"
     fit-margin-left="0"
     fit-margin-right="0"
     fit-margin-bottom="0"
     inkscape:window-width="1920"
     inkscape:window-height="1017"
     inkscape:window-x="-8"
     inkscape:window-y="-8"
     inkscape:window-maximized="1" />
  <metadata
     id="metadata5094">
    <rdf:RDF>
      <cc:Work
         rdf:about="">
        <dc:format>image/svg+xml</dc:format>
        <dc:type
           rdf:resource="http://purl.org/dc/dcmitype/StillImage" />
        <dc:title></dc:title>
      </cc:Work>
    </rdf:RDF>
  </metadata>
  <g
     inkscape:label="Layer 1"
     inkscape:groupmode="layer"
     id="layer1"
     transform="translate(-124.71321,-71.294597)">
    <g
       transform="matrix(2.4123164,0,0,2.4109514,936.65468,-1342.0795)"
       style="opacity:0.9"
       id="g3115"
       inkscape:label="Togowa">
      <path
         style="fill:#cab1db;stroke-width:0.04085804"
         d="m -332.15633,596.70837 c -1.88412,-0.29529 -3.53616,-1.68184 -4.14028,-3.47491 -0.49313,-1.46366 -0.34009,-3.09624 0.40982,-4.37181 1.29197,-2.19761 3.88022,-3.1593 6.30451,-2.34252 1.2593,0.42428 2.39013,1.42053 3.00235,2.64503 0.58243,1.16493 0.69103,2.6765 0.28379,3.95015 -0.26521,0.82946 -0.63886,1.43678 -1.28264,2.08471 -0.65508,0.65932 -1.23121,1.02014 -2.08516,1.30589 -0.74363,0.24883 -1.70313,0.32716 -2.49239,0.20346 z m 1.96118,-0.20687 c 0.64995,-0.16235 1.20897,-0.40341 1.72625,-0.74439 0.23332,-0.1538 0.26938,-0.23601 0.11636,-0.26526 -0.0655,-0.0125 -0.17088,0.0282 -0.31665,0.12234 -0.12018,0.0776 -0.37019,0.21349 -0.55558,0.30197 -0.18539,0.0885 -0.33708,0.17665 -0.33708,0.19593 0,0.0193 -0.0368,0.0255 -0.0817,0.0137 -0.0475,-0.0124 -0.0817,-0.001 -0.0817,0.0267 0,0.0264 -0.0161,0.0381 -0.0358,0.0259 -0.0197,-0.0122 -0.12542,0.004 -0.23493,0.0367 -0.65706,0.19421 -1.5062,0.2361 -2.16907,0.10702 -0.52888,-0.10299 -0.83517,-0.20925 -1.40084,-0.48602 -0.29307,-0.1434 -0.52663,-0.2314 -0.62074,-0.2339 -0.083,-0.002 -0.14152,0.0111 -0.13008,0.0296 0.0408,0.066 0.47387,0.32248 0.84418,0.49991 0.62833,0.30104 1.59211,0.5454 1.66957,0.4233 0.0259,-0.0408 0.0337,-0.0413 0.0342,-0.002 3.3e-4,0.0281 0.0374,0.0511 0.0823,0.0511 0.0449,0 0.0795,-0.0138 0.0769,-0.0306 -0.0132,-0.0833 0.009,-0.1348 0.0485,-0.11064 0.024,0.0148 0.0338,0.0527 0.0217,0.0841 -0.0142,0.037 0.006,0.0571 0.0585,0.0571 0.0442,0 0.081,-0.023 0.0817,-0.0511 8.1e-4,-0.0333 0.0139,-0.0295 0.0375,0.0108 0.0303,0.0518 0.10529,0.0575 0.45841,0.0354 0.23219,-0.0145 0.55087,-0.0586 0.70817,-0.0979 z m -4.23011,-1.02427 c -0.0221,-0.0581 -0.0297,-0.12242 -0.017,-0.14301 0.0127,-0.0206 -0.005,-0.0374 -0.0393,-0.0374 -0.0424,0 -0.0538,0.0229 -0.0356,0.0715 0.0241,0.0643 0.0194,0.0655 -0.0471,0.0113 -0.0658,-0.0536 -0.0669,-0.0646 -0.0102,-0.10031 0.0529,-0.0334 0.0132,-0.0929 -0.23495,-0.35266 -0.47844,-0.50078 -0.84626,-1.09668 -1.12964,-1.83011 -0.12025,-0.31123 -0.30066,-1.19162 -0.288,-1.40548 0.008,-0.12961 -0.0241,-0.14243 -0.1012,-0.0409 -0.0473,0.0623 -0.0537,0.0452 -0.0495,-0.13279 0.003,-0.11486 0.0123,-0.1551 0.0218,-0.0919 0.01,0.0645 0.0429,0.11236 0.0777,0.11236 0.0471,0 0.06,-0.0528 0.0574,-0.23493 -0.004,-0.24785 0.0778,-0.73744 0.18198,-1.09581 0.0753,-0.25911 0.076,-0.27454 0.0111,-0.24167 -0.0281,0.0142 -0.0217,0.002 0.0143,-0.0282 0.0359,-0.0298 0.0677,-0.0681 0.0707,-0.0852 0.003,-0.0171 0.0349,-0.0882 0.071,-0.15799 0.0361,-0.0698 0.0566,-0.16154 0.0455,-0.20386 -0.0111,-0.0425 0.001,-0.0771 0.0271,-0.0773 0.0831,-5.9e-4 0.23436,-0.32583 0.19005,-0.40862 -0.0289,-0.054 -0.0228,-0.0795 0.0235,-0.0972 0.0358,-0.0137 0.0519,-0.007 0.0377,0.0163 -0.0137,0.0222 -0.009,0.0404 0.01,0.0404 0.019,0 0.11503,-0.12232 0.21332,-0.27183 0.34003,-0.51719 0.90703,-1.04055 1.52146,-1.40437 0.12782,-0.0757 0.22133,-0.1555 0.20781,-0.17738 -0.0139,-0.0226 0.003,-0.0292 0.0394,-0.0152 0.0961,0.0369 0.12159,-0.015 0.0476,-0.0967 -0.0771,-0.0852 -0.14324,-0.0668 -0.47023,0.13145 -0.53262,0.32289 -1.04526,0.79372 -1.43264,1.31579 -0.22616,0.3048 -0.3428,0.50729 -0.36915,0.64087 -0.007,0.0337 -0.0421,0.0838 -0.0787,0.11125 -0.0511,0.0384 -0.0618,0.0953 -0.0461,0.24515 0.0169,0.16079 0.011,0.18618 -0.0335,0.14411 -0.0719,-0.068 -0.10553,-0.0644 -0.1359,0.0148 -0.0181,0.0471 -0.008,0.0591 0.0365,0.0421 0.0936,-0.0359 0.0739,0.0368 -0.0302,0.1114 -0.0506,0.0362 -0.0736,0.0615 -0.0511,0.0561 0.0225,-0.005 0.0454,0.009 0.0511,0.031 0.006,0.0225 -0.0128,0.0408 -0.0409,0.0408 -0.0721,0 -0.19759,0.38419 -0.17346,0.53116 0.0125,0.0764 0.007,0.10216 -0.0148,0.0684 -0.051,-0.0792 -0.0874,0.16762 -0.11477,0.77894 -0.0265,0.59079 0.0118,1.14871 0.076,1.10902 0.0261,-0.0162 0.0317,0.006 0.0148,0.059 -0.0257,0.0811 0.0237,0.34472 0.0971,0.51786 0.0191,0.0449 0.0567,0.16273 0.0836,0.26175 0.0912,0.33568 0.40484,0.92986 0.709,1.34319 0.13942,0.18945 0.16614,0.20796 0.24515,0.16982 0.0816,-0.0394 0.0828,-0.0381 0.0158,0.016 -0.069,0.0557 -0.0668,0.066 0.0399,0.19282 0.10012,0.11898 0.69909,0.65175 0.73274,0.65175 0.007,0 -0.005,-0.0475 -0.027,-0.10557 z m 3.92368,-0.0796 c 1.54411,-0.32531 2.77136,-1.56546 3.08604,-3.11849 0.0937,-0.46249 0.0665,-1.36347 -0.0548,-1.81174 -0.37151,-1.37356 -1.47043,-2.45255 -2.88827,-2.83591 -0.22775,-0.0616 -0.42513,-0.0772 -0.96909,-0.0766 -0.46055,5.1e-4 -0.69844,0.0161 -0.73021,0.0479 -0.0259,0.0259 -0.0703,0.0382 -0.0986,0.0273 -0.0737,-0.0283 -0.48488,0.0963 -0.80355,0.24342 -0.21341,0.0985 -0.2769,0.14842 -0.29246,0.22985 -0.0246,0.12877 -0.002,0.16917 0.0773,0.13871 0.0362,-0.0139 0.0519,-0.0526 0.0385,-0.0949 -0.018,-0.0567 -0.003,-0.0677 0.0715,-0.0534 0.0518,0.01 0.22177,-0.03 0.37775,-0.0888 0.22734,-0.0856 0.67805,-0.20701 0.89422,-0.24094 0.0199,-0.003 0.0349,0.14704 0.0333,0.3337 -0.002,0.23032 0.013,0.34549 0.0466,0.35837 0.0275,0.0105 0.0485,0.0891 0.0474,0.17646 -0.002,0.12859 -0.0281,0.17901 -0.14385,0.27493 -0.28056,0.23246 -0.37181,0.35533 -0.34517,0.46475 0.039,0.16023 0.0713,0.17096 0.36202,0.12033 0.21621,-0.0376 0.32386,-0.0849 0.51678,-0.22695 0.13403,-0.0987 0.27726,-0.17939 0.31829,-0.17939 0.041,0 0.16009,0.0566 0.26457,0.12584 0.35681,0.23634 0.54261,0.53782 0.62751,1.01819 0.0521,0.29464 0.0501,0.3186 -0.051,0.62266 -0.0578,0.17392 -0.12195,0.32659 -0.14247,0.33927 -0.0417,0.0258 -0.33223,-0.16399 -0.53588,-0.34999 -0.0733,-0.0669 -0.14747,-0.12165 -0.16494,-0.12165 -0.10046,0 0.071,0.38204 0.27062,0.60299 0.0809,0.0895 0.14707,0.17235 0.14707,0.18403 0,0.0117 -0.0741,0.11058 -0.16478,0.21977 -0.19348,0.23311 -0.40723,0.66301 -0.40723,0.81903 0,0.14881 0.14717,0.4424 0.25736,0.51342 0.14938,0.0963 0.26848,0.10918 0.62926,0.0682 0.2219,-0.0252 0.41592,-0.0752 0.54418,-0.14019 0.2086,-0.1057 0.57422,-0.4517 0.78411,-0.74202 0.0784,-0.10842 0.21441,-0.21851 0.37395,-0.30266 0.3399,-0.17926 0.5572,-0.35504 0.5572,-0.45073 0,-0.0749 -0.007,-0.0758 -0.12187,-0.0163 -0.067,0.0347 -0.20315,0.0742 -0.30249,0.0878 l -0.18063,0.0248 -0.0142,-0.58724 -0.0142,-0.58724 -0.16946,-0.35114 c -0.17124,-0.35478 -0.47742,-0.714 -0.71199,-0.8353 -0.14558,-0.0753 -0.52815,-0.21922 -0.52815,-0.1987 0,0.009 0.0736,0.0831 0.16349,0.16431 0.46207,0.41745 0.80471,1.26266 0.75993,1.87456 -0.0115,0.1573 -0.0306,0.331 -0.0424,0.38599 -0.0341,0.15894 -0.2301,0.52168 -0.33533,0.62054 -0.056,0.0526 -0.0963,0.1376 -0.0963,0.20312 0,0.20639 -0.32374,0.35181 -0.53342,0.2396 -0.0999,-0.0535 -0.19013,-0.23841 -0.17131,-0.35122 0.0356,-0.21344 0.39746,-0.35592 0.56042,-0.22067 0.0468,0.0388 0.0762,0.0182 0.15449,-0.10827 0.28452,-0.45956 0.36269,-0.83273 0.26393,-1.25987 -0.0649,-0.2806 -0.29453,-0.75191 -0.51134,-1.04944 -0.19844,-0.27232 -0.52647,-0.47761 -0.87017,-0.54458 -0.0539,-0.0105 -0.15307,-0.0296 -0.22049,-0.0424 -0.11988,-0.0228 -0.12266,-0.0288 -0.12687,-0.27621 -0.003,-0.16818 -0.0327,-0.30851 -0.089,-0.41883 -0.0939,-0.18403 -0.1528,-0.24217 -0.34403,-0.33949 -0.23745,-0.12085 -0.1926,-0.16833 0.15808,-0.16736 0.57759,0.002 1.37308,0.23245 1.93017,0.56014 0.57188,0.33638 1.14971,1.00637 1.49497,1.73338 0.30414,0.64044 0.38178,1.60335 0.18892,2.34298 -0.0916,0.3514 -0.26581,0.86694 -0.30672,0.90786 -0.0138,0.0138 -0.0251,0.0588 -0.0251,0.1 0,0.0412 -0.023,0.0756 -0.0511,0.0766 -0.0281,9.1e-4 -0.11542,0.1032 -0.19407,0.22732 -0.35752,0.56419 -1.2911,1.219 -2.01226,1.41139 -0.10674,0.0285 -0.19414,0.0618 -0.19422,0.0739 -8e-5,0.0122 -0.0972,0.0274 -0.21592,0.0337 l -0.21577,0.0116 0.0164,-0.2895 c 0.0119,-0.21066 -0.003,-0.34115 -0.0561,-0.47915 l -0.0724,-0.18965 0.20049,-0.18785 c 0.31727,-0.29729 0.35069,-0.34581 0.32061,-0.46564 -0.0236,-0.0941 -0.0472,-0.10683 -0.19606,-0.10598 -0.27188,0.002 -0.45525,0.0608 -0.64478,0.2083 -0.0975,0.0759 -0.19592,0.16112 -0.21861,0.18936 -0.0822,0.1022 -0.37582,-0.0417 -0.66272,-0.32477 -0.16693,-0.1647 -0.34429,-0.55609 -0.38495,-0.84949 -0.0366,-0.26396 -0.0314,-0.29998 0.0884,-0.61046 0.07,-0.18147 0.13686,-0.32995 0.14861,-0.32995 0.034,0 0.24004,0.1532 0.4703,0.34975 0.11689,0.0998 0.22613,0.18141 0.24276,0.18141 0.0884,0 -0.10427,-0.40587 -0.30886,-0.65075 -0.16685,-0.1997 -0.16139,-0.18483 -0.0938,-0.25543 0.25266,-0.26405 0.52036,-0.75928 0.52036,-0.96263 0,-0.16262 -0.19908,-0.48888 -0.33186,-0.54388 -0.19615,-0.0813 -0.79553,-0.033 -1.03747,0.0836 -0.23233,0.11191 -0.53939,0.38763 -0.80076,0.71904 -0.11297,0.14324 -0.25479,0.26591 -0.38354,0.33174 -0.32773,0.16755 -0.55335,0.33792 -0.59597,0.45001 -0.0498,0.13103 -0.0184,0.16591 0.0748,0.0831 0.0395,-0.0351 0.14529,-0.0839 0.23518,-0.10847 0.31231,-0.0854 0.29718,-0.11138 0.31282,0.53708 l 0.014,0.58222 0.16757,0.34877 c 0.22494,0.46819 0.47855,0.72947 0.8901,0.91701 0.17358,0.0791 0.33033,0.14383 0.34834,0.14383 0.018,0 -0.0896,-0.12632 -0.23919,-0.2807 -0.29875,-0.30839 -0.48688,-0.64507 -0.59443,-1.06385 -0.0725,-0.28237 -0.0985,-0.78552 -0.0536,-1.04012 0.0354,-0.20105 0.22012,-0.56777 0.34511,-0.6852 0.0573,-0.0538 0.0963,-0.13742 0.0963,-0.2065 0,-0.13487 0.19316,-0.27788 0.37566,-0.27813 0.14628,-2e-4 0.31299,0.15231 0.34418,0.31486 0.021,0.10966 0.005,0.1515 -0.0991,0.25536 -0.1307,0.1307 -0.27642,0.15832 -0.42258,0.0801 -0.10431,-0.0558 -0.19301,0.0178 -0.3127,0.25959 -0.3462,0.6993 -0.26967,1.16049 0.35292,2.12691 0.14975,0.23244 0.58234,0.51011 0.84431,0.54193 0.0225,0.003 0.1144,0.0185 0.20429,0.0349 l 0.16343,0.03 0.006,0.25551 c 0.009,0.38317 0.14795,0.62028 0.4535,0.77505 0.25042,0.12685 0.16544,0.15972 -0.34729,0.13434 -0.78805,-0.039 -1.42935,-0.27342 -2.09179,-0.76459 -0.79751,-0.59132 -1.34771,-1.59704 -1.46699,-2.68153 -0.0482,-0.43801 0.0197,-0.97046 0.18665,-1.46473 0.0607,-0.17977 0.11181,-0.33606 0.11351,-0.34729 0.002,-0.0112 0.0284,-0.0664 0.0594,-0.12258 0.0517,-0.0938 0.0507,-0.0975 -0.0117,-0.0461 -0.13134,0.10835 -0.0662,-0.006 0.0955,-0.16783 0.0899,-0.0899 0.16344,-0.1828 0.16344,-0.20648 0,-0.0237 0.0304,-0.0767 0.0676,-0.11777 0.0539,-0.0595 0.0559,-0.075 0.0102,-0.076 -0.0422,-9.5e-4 -0.0382,-0.0159 0.0151,-0.0563 0.0674,-0.0511 0.0651,-0.0565 -0.032,-0.075 -0.0911,-0.0174 -0.12257,0.01 -0.24484,0.20954 -0.2981,0.48757 -0.36009,0.62866 -0.31087,0.70748 0.0365,0.0584 0.0336,0.0736 -0.0142,0.0736 -0.0848,0 -0.13258,0.10663 -0.23235,0.51869 -0.10163,0.41976 -0.12075,1.19003 -0.0394,1.5855 0.37343,1.81444 1.74025,3.05382 3.59986,3.26424 0.22666,0.0256 0.85376,-0.0174 1.14403,-0.0786 z m 2.52713,-0.0655 c 0.0454,-0.0727 0.0453,-0.093 -3.7e-4,-0.12195 -0.0708,-0.0449 -0.10591,-0.0447 -0.1339,5.6e-4 -0.0124,0.0201 0.009,0.049 0.0487,0.0642 0.0663,0.0257 0.0657,0.0317 -0.008,0.086 -0.0568,0.0418 -0.0625,0.0584 -0.02,0.0584 0.0326,0 0.0838,-0.0392 0.11372,-0.0872 z m 0.56544,-0.55507 c 0.0426,-0.0816 0.0389,-0.0932 -0.0299,-0.0932 -0.0493,0 -0.0879,0.0374 -0.10373,0.10047 -0.0139,0.0553 -0.0536,0.12406 -0.0884,0.1529 -0.0546,0.0453 -0.0593,0.0401 -0.0341,-0.0392 0.0163,-0.0512 0.0119,-0.0916 -0.01,-0.0916 -0.0553,0 -0.0838,0.23972 -0.0308,0.25966 0.0502,0.0189 0.22473,-0.15103 0.29679,-0.28905 z m 0.0593,-0.26683 0.0802,-0.0919 -0.0253,0.0919 c -0.0485,0.17608 0.0555,0.10374 0.25437,-0.17691 0.12114,-0.17094 0.5021,-0.91661 0.5021,-0.9828 0,-0.0325 -0.026,-0.0433 -0.0669,-0.0276 -0.0981,0.0376 -0.05,-0.0804 0.0515,-0.12648 0.0887,-0.0402 0.21808,-0.41507 0.30464,-0.88233 0.0728,-0.39297 0.0613,-1.26068 -0.0225,-1.69561 -0.1304,-0.67717 -0.47021,-1.57345 -0.61805,-1.63019 -0.0344,-0.0132 -0.0514,-0.042 -0.0378,-0.064 0.0309,-0.05 -0.0546,-0.18801 -0.34233,-0.55302 -0.48916,-0.62046 -1.28301,-1.28591 -1.4552,-1.21983 -0.0585,0.0225 -0.0691,0.0138 -0.0486,-0.0397 0.0239,-0.0624 -0.0131,-0.088 -0.10525,-0.0728 -0.0175,0.003 -0.071,-0.0312 -0.11888,-0.0758 -0.12931,-0.12047 -0.62447,-0.31432 -1.12378,-0.43996 -0.40259,-0.1013 -0.51019,-0.11117 -1.22171,-0.11211 -0.56253,-7.4e-4 -0.79729,0.0131 -0.84135,0.0497 -0.0336,0.0279 -0.0732,0.0386 -0.088,0.0238 -0.0148,-0.0148 -0.0269,0.0222 -0.0269,0.0821 0,0.0599 -0.0138,0.10678 -0.0306,0.10412 -0.0667,-0.0105 -0.14521,0.006 -0.12488,0.0264 0.0118,0.0118 0.19416,-0.006 0.40517,-0.0407 0.57658,-0.0935 1.55471,-0.0621 1.85454,0.0596 0.045,0.0182 0.22881,0.083 0.40858,0.14404 0.43809,0.14861 0.85851,0.35111 1.18885,0.57263 0.14984,0.10047 0.28553,0.18268 0.30155,0.18268 0.016,0 0.0617,0.036 0.1016,0.0801 0.0399,0.0441 0.0841,0.0786 0.0983,0.0769 0.0728,-0.009 0.13054,0.01 0.11353,0.0376 -0.0106,0.0171 0.007,0.0666 0.0385,0.10995 0.0317,0.0434 0.0577,0.057 0.0577,0.0302 0,-0.0268 0.0195,-0.0487 0.0433,-0.0487 0.0238,0 0.03,0.0215 0.0137,0.0478 -0.0199,0.0322 -0.007,0.0392 0.0391,0.0215 0.0548,-0.0211 0.065,-0.007 0.0509,0.0714 -0.0116,0.0642 0.0116,0.12343 0.0677,0.1726 0.0577,0.0506 0.0744,0.055 0.0514,0.0136 -0.0188,-0.0338 -0.0183,-0.047 9.7e-4,-0.0295 0.0192,0.0175 0.0385,0.056 0.0429,0.0856 0.004,0.0296 0.0743,0.14085 0.15555,0.24724 0.61936,0.81141 1.01217,1.96195 1.00539,2.94481 -0.006,0.80072 -0.16658,1.46357 -0.54105,2.22676 -0.11578,0.23595 -0.20687,0.4428 -0.20242,0.45965 0.004,0.0169 -0.009,0.0307 -0.0289,0.0307 -0.0204,0 -0.10307,0.0919 -0.18379,0.20429 -0.14638,0.20374 -0.12986,0.2868 0.0224,0.11236 z m -6.34672,-6.00614 c 0.0294,-0.0393 0.0891,-0.0715 0.13279,-0.0715 0.0437,0 0.0794,-0.0173 0.0794,-0.0384 0,-0.0695 -0.073,-0.0854 -0.18926,-0.0412 -0.0847,0.0322 -0.10012,0.0523 -0.0593,0.0775 0.0422,0.0261 0.03,0.0505 -0.0525,0.10449 -0.0591,0.0388 -0.10753,0.089 -0.10753,0.11162 0,0.0478 0.11857,-0.0383 0.19639,-0.14249 z m 0.45734,-1.64694 c 0,-0.0701 -0.14606,-0.0792 -0.18777,-0.0117 -0.017,0.0275 -0.0113,0.0361 0.0137,0.0207 0.0236,-0.0146 0.0539,0.002 0.0673,0.0371 0.0284,0.0741 0.10672,0.0403 0.10672,-0.0461 z"
         id="path3125"
         inkscape:connector-curvature="0" />
      <path
         style="fill:#925cb7;stroke-width:0.04085804"
         d="m -332.3158,596.66118 c -1.59509,-0.28805 -3.0176,-1.38512 -3.74705,-2.88978 -0.33163,-0.68407 -0.48572,-1.40502 -0.48572,-2.27256 0,-1.52422 0.48085,-2.67049 1.56904,-3.74035 0.73028,-0.71798 1.42868,-1.11728 2.36838,-1.3541 0.5716,-0.14406 1.58319,-0.1796 2.19584,-0.0772 1.8856,0.31529 3.47144,1.66792 4.07795,3.47824 0.18002,0.53733 0.24844,1.00317 0.24844,1.69153 0,0.94263 -0.15029,1.61183 -0.53223,2.36976 -0.74392,1.47626 -2.13933,2.51895 -3.74601,2.79913 -0.44319,0.0773 -1.50885,0.0747 -1.94864,-0.005 z m 2.08553,-0.13495 c 2.98432,-0.64677 4.75497,-3.76166 3.78786,-6.66356 -0.7494,-2.2486 -3.05379,-3.73579 -5.38706,-3.47664 -0.40567,0.045 -0.55675,0.0807 -1.18488,0.2795 -0.70947,0.22454 -1.32142,0.60964 -1.92551,1.21173 -1.31993,1.31553 -1.80666,3.11888 -1.3401,4.96512 0.12036,0.47624 0.53512,1.33385 0.83744,1.73154 0.83952,1.10438 2.10937,1.84886 3.45512,2.02566 0.43316,0.0569 1.32855,0.0195 1.75713,-0.0733 z m -1.6661,-0.16728 c -2.21611,-0.35229 -3.75913,-1.81685 -4.22839,-4.01341 -0.094,-0.4401 -0.0937,-1.27964 6.3e-4,-1.70656 0.29793,-1.34816 1.03332,-2.47893 2.05285,-3.15654 1.34253,-0.8923 2.81306,-1.09985 4.27982,-0.60405 1.67186,0.56512 2.79522,1.80866 3.24337,3.59033 0.0947,0.37642 0.10933,0.51659 0.1075,1.02828 -0.004,1.02641 -0.26709,1.87025 -0.86703,2.77762 -0.66633,1.00778 -1.79491,1.7414 -3.11572,2.02532 -0.36357,0.0782 -1.15352,0.1098 -1.47303,0.059 z m 1.61951,-0.99862 c 1.44325,-0.42248 2.45025,-1.45364 2.84811,-2.91643 0.1167,-0.42908 0.12717,-1.36044 0.0202,-1.80101 -0.37767,-1.55609 -1.50018,-2.67859 -3.05613,-3.05611 -0.21961,-0.0533 -0.45928,-0.073 -0.87453,-0.0719 -0.49442,0.001 -0.62744,0.0167 -0.9806,0.1137 -0.73654,0.20224 -1.28912,0.51895 -1.81288,1.03904 -0.52181,0.51815 -0.86931,1.11764 -1.07169,1.84876 -0.082,0.29646 -0.096,0.44001 -0.0955,0.9806 7.7e-4,0.75994 0.0766,1.10331 0.38409,1.73787 0.23845,0.49218 0.47292,0.81312 0.86267,1.18079 0.48185,0.45455 1.10651,0.79942 1.7333,0.95693 0.47235,0.11871 0.51618,0.12294 1.1236,0.1085 0.44899,-0.0107 0.61998,-0.0331 0.91931,-0.12076 z m -1.6408,-0.16484 c -1.19843,-0.21747 -2.18783,-0.94275 -2.71419,-1.98963 -0.5511,-1.09607 -0.57804,-2.20853 -0.0788,-3.25289 0.49575,-1.03705 1.18933,-1.648 2.27964,-2.00805 0.19601,-0.0647 0.43618,-0.13045 0.53372,-0.14606 0.17492,-0.028 0.17666,-0.0271 0.12755,0.0647 -0.0631,0.1178 -0.026,0.56067 0.0609,0.72879 l 0.0626,0.12111 -0.24871,0.23723 c -0.31293,0.29849 -0.34755,0.36024 -0.27643,0.49312 0.0517,0.0967 0.0681,0.10079 0.31038,0.0782 0.29623,-0.0277 0.36965,-0.0601 0.63547,-0.28058 0.22362,-0.1855 0.29022,-0.18078 0.59832,0.0424 0.30638,0.22194 0.46641,0.50237 0.53961,0.94561 0.0445,0.2697 0.0408,0.31566 -0.0485,0.60056 -0.0532,0.16968 -0.11955,0.31726 -0.14741,0.32795 -0.0505,0.0194 -0.21682,-0.0904 -0.52166,-0.34432 -0.20084,-0.16728 -0.23209,-0.16743 -0.1997,-9.6e-4 0.0213,0.10951 0.15822,0.33814 0.39767,0.66403 0.0256,0.0349 -0.0217,0.1266 -0.15006,0.29099 -0.24714,0.31649 -0.40958,0.68552 -0.37461,0.85104 0.0443,0.20961 0.18739,0.42472 0.32649,0.49073 0.25232,0.11973 0.81478,0.0565 1.18682,-0.13351 0.15563,-0.0795 0.47774,-0.39528 0.74054,-0.72606 0.0765,-0.0963 0.25147,-0.23182 0.41488,-0.3214 0.26048,-0.14278 0.42731,-0.27469 0.57189,-0.45217 0.0803,-0.0986 -0.0259,-0.16479 -0.12318,-0.0767 -0.0547,0.0495 -0.43031,0.1766 -0.52821,0.1787 -0.0125,2.8e-4 -0.0217,-0.25306 -0.0204,-0.56294 l 0.002,-0.56343 -0.19568,-0.3943 c -0.2343,-0.47214 -0.55281,-0.79341 -0.94834,-0.9566 -0.13483,-0.0556 -0.26813,-0.11121 -0.29622,-0.12352 -0.0835,-0.0366 -0.0579,0.0932 0.0263,0.13333 0.14195,0.0677 0.46261,0.48293 0.5964,0.77233 0.23544,0.50926 0.32334,1.01106 0.24694,1.4098 -0.066,0.34446 -0.13977,0.51129 -0.32234,0.7289 -0.0819,0.0976 -0.14893,0.21949 -0.14893,0.27079 0,0.18064 -0.31211,0.31255 -0.4797,0.20274 -0.31484,-0.20629 -0.0819,-0.65137 0.28571,-0.54594 0.0727,0.0208 0.14219,0.0379 0.15445,0.0379 0.0492,0 0.2825,-0.44285 0.34287,-0.65093 0.10306,-0.35517 0.0595,-0.97314 -0.0808,-1.14682 -0.0272,-0.0337 -0.0911,-0.14403 -0.1419,-0.24515 -0.0508,-0.10112 -0.13568,-0.24076 -0.18862,-0.31029 -0.0529,-0.0695 -0.0962,-0.14611 -0.0962,-0.17017 0,-0.0675 -0.38855,-0.33694 -0.60397,-0.41879 -0.10608,-0.0403 -0.28018,-0.0864 -0.38689,-0.10238 l -0.19402,-0.0291 -9.6e-4,-0.25072 c -0.001,-0.31949 -0.15088,-0.61309 -0.37627,-0.73813 -0.0839,-0.0465 -0.14823,-0.10299 -0.143,-0.12547 0.0136,-0.0585 0.54983,-0.0372 0.90317,0.0359 1.14142,0.23605 2.0744,0.94592 2.61318,1.98829 0.22479,0.43489 0.29484,0.65077 0.3773,1.16275 0.17302,1.07431 -0.23948,2.34462 -1.01219,3.11704 -0.45486,0.4547 -1.17028,0.86139 -1.80713,1.02728 -0.4196,0.1093 -0.48901,0.11018 -0.43297,0.005 0.0642,-0.11989 0.0466,-0.45035 -0.0348,-0.65642 l -0.0727,-0.18386 0.27919,-0.29187 c 0.25525,-0.26683 0.34329,-0.42314 0.23833,-0.42314 -0.0225,0 -0.0408,-0.0276 -0.0408,-0.0613 0,-0.0738 -0.11723,-0.0785 -0.41679,-0.0165 -0.14946,0.0309 -0.29062,0.10153 -0.4558,0.22805 -0.28118,0.21537 -0.33362,0.21313 -0.66037,-0.0282 -0.16675,-0.12319 -0.24971,-0.22568 -0.35817,-0.44248 -0.19743,-0.39464 -0.23052,-0.72798 -0.10913,-1.09952 0.0495,-0.15159 0.1053,-0.29223 0.12395,-0.31254 0.0367,-0.04 0.42286,0.20839 0.57387,0.36913 0.05,0.0532 0.11485,0.0968 0.14408,0.0968 0.10158,0 0.008,-0.25966 -0.1952,-0.54224 -0.10948,-0.15216 -0.1987,-0.29006 -0.19827,-0.30644 4.4e-4,-0.0164 0.0657,-0.10332 0.14492,-0.1932 0.20712,-0.23486 0.43462,-0.72666 0.40178,-0.86855 -0.0555,-0.2397 -0.18866,-0.44845 -0.32869,-0.51523 -0.24334,-0.11604 -0.74568,-0.0663 -1.11767,0.11059 -0.19077,0.0907 -0.64209,0.517 -0.81331,0.76817 -0.0541,0.0793 -0.18277,0.18711 -0.28601,0.23957 -0.24619,0.12509 -0.61671,0.37282 -0.61671,0.41232 0,0.0171 -0.0301,0.0612 -0.0668,0.098 -0.12824,0.12824 2e-4,0.15471 0.20984,0.0432 0.10782,-0.0573 0.25775,-0.10423 0.33319,-0.10423 h 0.13715 l -0.0261,0.33999 c -0.0544,0.70776 0.17406,1.32495 0.65806,1.7777 0.1482,0.13864 0.28835,0.25207 0.31144,0.25207 0.0231,0 0.14248,0.046 0.2653,0.10215 0.26001,0.11893 0.26175,0.11924 0.26175,0.0471 0,-0.0303 -0.0345,-0.0716 -0.0766,-0.0919 -0.11218,-0.054 -0.47704,-0.48707 -0.55794,-0.66224 -0.20072,-0.43462 -0.2389,-0.56068 -0.29943,-0.98867 -0.0658,-0.46512 0.0761,-0.96748 0.36655,-1.29834 0.0649,-0.0739 0.11801,-0.17931 0.11801,-0.23419 0,-0.11113 0.12437,-0.21034 0.28889,-0.23042 0.23365,-0.0285 0.43737,0.25888 0.31846,0.44928 -0.0842,0.13483 -0.22303,0.1774 -0.4123,0.12643 -0.13107,-0.0353 -0.17355,-0.0333 -0.20233,0.01 -0.25046,0.37278 -0.35915,0.68739 -0.35996,1.04191 -5.8e-4,0.25104 0.0753,0.62191 0.14476,0.70792 0.0272,0.0337 0.0911,0.14403 0.1419,0.24515 0.0508,0.10112 0.13568,0.24076 0.18862,0.31029 0.0529,0.0695 0.0962,0.14709 0.0962,0.17233 0,0.0704 0.40648,0.35408 0.61287,0.42766 0.10112,0.0361 0.27119,0.0779 0.37794,0.093 l 0.19407,0.0275 v 0.24187 c 0,0.37881 0.20568,0.7173 0.50051,0.82366 0.0393,0.0142 0.0715,0.0448 0.0715,0.0679 0,0.0579 -0.48202,0.0474 -0.84406,-0.0183 z"
         id="path3123"
         inkscape:connector-curvature="0"
         inkscape:label="path3123" />
      <path
         style="fill:#6e1ca1;stroke-width:0.04085804"
         d="m -332.25294,596.66122 c -0.65211,-0.10932 -1.40879,-0.41693 -2.01983,-0.82112 -0.38292,-0.2533 -1.10301,-0.97148 -1.3644,-1.36079 -0.39951,-0.59503 -0.66858,-1.22779 -0.81644,-1.92001 -0.1044,-0.48871 -0.10423,-1.63726 3.1e-4,-2.12461 0.22139,-1.03217 0.68811,-1.8895 1.43543,-2.63682 0.74732,-0.74732 1.60465,-1.21404 2.63682,-1.43543 0.48735,-0.10454 1.6359,-0.10471 2.12461,-3.1e-4 1.05499,0.22536 1.8947,0.68483 2.65606,1.45333 1.0194,1.02897 1.51114,2.22697 1.51114,3.68154 0,1.46725 -0.51449,2.71056 -1.54145,3.72504 -0.79324,0.78359 -1.73604,1.27072 -2.7903,1.44169 -0.47503,0.077 -1.36469,0.0758 -1.83195,-0.003 z m 1.88576,-0.098 c 0.55059,-0.10626 0.90767,-0.22984 1.41073,-0.48824 0.96745,-0.49695 1.74421,-1.27402 2.21991,-2.22083 0.39474,-0.78566 0.56555,-1.49204 0.56578,-2.3397 6.5e-4,-2.48384 -1.68003,-4.54354 -4.13913,-5.07258 -0.50727,-0.10913 -1.59819,-0.0987 -2.09543,0.02 -1.05356,0.25153 -1.84304,0.68713 -2.57022,1.41814 -1.20634,1.2127 -1.72799,2.94862 -1.38907,4.62248 0.11698,0.57775 0.22625,0.89025 0.48798,1.39563 0.70928,1.36953 2.03651,2.35319 3.59772,2.66638 0.52547,0.10542 1.36178,0.10486 1.91173,-10e-4 z m -1.34931,-0.20502 c -0.84128,-0.0895 -1.63373,-0.37435 -2.34523,-0.84309 -1.2633,-0.83226 -2.11913,-2.455 -2.11913,-4.01807 0,-1.52473 0.82168,-3.10668 2.05442,-3.95532 1.73967,-1.19762 3.84189,-1.20437 5.5898,-0.018 0.84897,0.57624 1.50379,1.46228 1.85134,2.50503 0.74058,2.22193 -0.32291,4.74612 -2.44755,5.80924 -0.7985,0.39956 -1.80754,0.6027 -2.58365,0.52016 z m 1.16816,-0.91968 c 1.50927,-0.2863 2.70586,-1.42783 3.13591,-2.99162 0.0895,-0.32539 0.12126,-1.20058 0.0579,-1.59359 -0.26763,-1.65901 -1.56572,-2.99148 -3.21693,-3.30211 -0.48805,-0.0918 -1.32986,-0.0622 -1.78791,0.0629 -1.1189,0.30562 -2.05223,1.07443 -2.55617,2.10558 -0.32955,0.67434 -0.38683,0.93751 -0.38683,1.77733 0,0.83999 0.0573,1.10334 0.387,1.77732 0.53798,1.09986 1.56892,1.90216 2.77949,2.16303 0.36153,0.0779 1.17976,0.0785 1.58758,10e-4 z m -1.19348,-0.22745 c -0.8856,-0.12936 -1.86563,-0.63553 -2.34657,-1.21197 -0.69901,-0.8378 -1.06271,-1.93352 -0.94581,-2.84936 0.16816,-1.31726 0.92306,-2.4062 2.0607,-2.97252 0.27055,-0.13468 0.77206,-0.30348 1.00102,-0.33693 l 0.18386,-0.0269 -0.0139,0.27362 c -0.009,0.18441 0.008,0.33064 0.0529,0.44858 l 0.0668,0.17496 -0.2305,0.218 c -0.25361,0.23985 -0.35786,0.40411 -0.31965,0.50366 0.0429,0.11187 0.14841,0.13629 0.42359,0.098 0.24875,-0.0346 0.39639,-0.10847 0.75599,-0.37839 0.0757,-0.0568 0.22657,1.4e-4 0.44642,0.16859 0.2596,0.19892 0.45339,0.54823 0.51335,0.92533 0.04,0.25151 0.0354,0.30934 -0.0441,0.55159 -0.12259,0.37374 -0.14092,0.39118 -0.29699,0.28258 -0.0705,-0.0491 -0.20892,-0.15915 -0.30759,-0.24466 -0.0987,-0.0855 -0.20522,-0.15546 -0.23678,-0.15546 -0.10936,0 -0.0103,0.29649 0.19348,0.57923 l 0.19663,0.2728 -0.0832,0.0949 c -0.24685,0.28159 -0.48315,0.7338 -0.48315,0.92459 0,0.13128 0.0866,0.37565 0.13319,0.37565 0.0193,0 0.0241,0.0177 0.0108,0.0393 -0.0134,0.0216 0.0532,0.0788 0.14789,0.12713 0.2478,0.12642 0.81286,0.10073 1.14467,-0.0521 0.23167,-0.10666 0.66557,-0.5076 0.86204,-0.79655 0.0543,-0.0799 0.20353,-0.19373 0.36642,-0.27958 0.32055,-0.16893 0.71386,-0.51169 0.66951,-0.58345 -0.0444,-0.0718 -0.13674,-0.0587 -0.26755,0.038 -0.0642,0.0474 -0.19672,0.0952 -0.29457,0.10623 l -0.1779,0.02 v -0.56589 -0.56588 l -0.18133,-0.36772 c -0.2357,-0.47796 -0.50229,-0.74984 -0.92347,-0.94178 -0.51436,-0.2344 -0.56471,-0.17426 -0.16261,0.19419 0.3038,0.27838 0.50639,0.64101 0.63517,1.13692 0.0965,0.37174 0.10057,0.61015 0.0166,0.97921 -0.0682,0.29986 -0.25438,0.60782 -0.38868,0.64295 -0.0426,0.0111 -0.0672,0.037 -0.0545,0.0575 0.0126,0.0205 0.0109,0.0922 -0.004,0.1595 -0.0309,0.14088 -0.22416,0.2626 -0.36195,0.22801 -0.10568,-0.0265 -0.26896,-0.27806 -0.19623,-0.3023 0.0263,-0.009 0.0478,-0.0512 0.0478,-0.0943 0,-0.0568 0.0288,-0.0783 0.10456,-0.0783 0.0575,0 0.0947,-0.0159 0.0827,-0.0354 -0.0123,-0.0199 0.06,-0.0201 0.16555,-3.7e-4 0.19645,0.0367 0.25974,0.0225 0.26061,-0.0586 2.8e-4,-0.0268 0.0536,-0.15333 0.11848,-0.28125 0.0649,-0.12793 0.14006,-0.36355 0.16706,-0.52362 0.0423,-0.25068 0.0392,-0.33456 -0.0224,-0.605 -0.0393,-0.17269 -0.0917,-0.33236 -0.1165,-0.35483 -0.0248,-0.0225 -0.0961,-0.14198 -0.15846,-0.26558 -0.29605,-0.58661 -0.62772,-0.86449 -1.14958,-0.96309 -0.30413,-0.0575 -0.28871,-0.0414 -0.30152,-0.31498 -0.0169,-0.3609 -0.14508,-0.59211 -0.40136,-0.72399 l -0.1985,-0.10215 0.31536,-0.0119 c 0.21134,-0.008 0.42959,0.0152 0.66165,0.0703 1.03234,0.24518 1.81996,0.76363 2.33202,1.53506 0.4757,0.71665 0.67352,1.3464 0.67352,2.14417 0,0.71762 -0.26467,1.52204 -0.709,2.15489 -0.52613,0.74935 -1.35396,1.25774 -2.43832,1.49741 l -0.1034,0.0229 0.0162,-0.28668 c 0.0114,-0.2018 -0.004,-0.33929 -0.0517,-0.46435 l -0.0679,-0.17767 0.2305,-0.218 c 0.12677,-0.1199 0.25764,-0.27048 0.29081,-0.33463 0.0544,-0.10519 0.0534,-0.12428 -0.0103,-0.19463 -0.0454,-0.0501 -0.12308,-0.0774 -0.21747,-0.0762 -0.31081,0.004 -0.49509,0.0686 -0.73843,0.25978 -0.23838,0.18728 -0.24472,0.18951 -0.37704,0.13267 -0.37886,-0.16274 -0.6881,-0.60982 -0.76808,-1.11044 -0.0391,-0.2445 -0.0341,-0.3045 0.0449,-0.54534 0.0488,-0.14885 0.10684,-0.29347 0.12893,-0.32139 0.0302,-0.0382 0.12407,0.0148 0.37987,0.21451 0.18684,0.1459 0.35223,0.26526 0.36753,0.26526 0.0153,0 0.0152,-0.0689 -2.1e-4,-0.15321 -0.0297,-0.16245 -0.15715,-0.40089 -0.32158,-0.60164 l -0.0996,-0.12155 0.17716,-0.23023 c 0.20619,-0.26796 0.38548,-0.64973 0.38548,-0.82081 0,-0.0657 -0.0279,-0.17357 -0.0621,-0.23963 -0.0342,-0.0661 -0.0572,-0.13352 -0.0511,-0.14989 0.006,-0.0164 -0.0625,-0.0725 -0.15239,-0.12479 -0.14591,-0.0848 -0.20507,-0.0936 -0.55159,-0.0813 -0.31265,0.0111 -0.43299,0.0344 -0.6187,0.12009 -0.23515,0.1085 -0.62359,0.46658 -0.85636,0.78942 -0.0771,0.10696 -0.21297,0.21327 -0.3916,0.30643 -0.31878,0.16627 -0.69502,0.49253 -0.65068,0.56427 0.0399,0.0645 0.14665,0.0611 0.22608,-0.007 0.0748,-0.0644 0.30971,-0.14879 0.41397,-0.14879 0.0642,0 0.0732,0.0589 0.0858,0.56503 l 0.0141,0.56503 0.18018,0.36348 c 0.23487,0.47378 0.50509,0.74836 0.92462,0.93955 0.17013,0.0775 0.33589,0.14096 0.36835,0.14096 0.0774,0 0.0753,-0.065 -0.004,-0.13117 -0.25843,-0.21519 -0.51972,-0.5268 -0.63064,-0.75209 -0.14767,-0.29997 -0.28668,-0.83257 -0.28668,-1.0984 0,-0.44591 0.212,-0.99125 0.42266,-1.08723 0.0698,-0.0318 0.0935,-0.0784 0.0967,-0.1902 0.005,-0.17955 0.0938,-0.2547 0.30055,-0.2547 0.12851,0 0.15966,0.0189 0.21305,0.12912 0.11523,0.23792 -0.0738,0.42545 -0.36306,0.36021 -0.0817,-0.0184 -0.1729,-0.0242 -0.20258,-0.0128 -0.0797,0.0306 -0.30547,0.60156 -0.35424,0.89589 -0.0347,0.20964 -0.0293,0.31312 0.0305,0.57541 0.0401,0.17589 0.0931,0.33819 0.11787,0.36066 0.0248,0.0225 0.0961,0.14198 0.15846,0.26558 0.29605,0.58662 0.62772,0.86449 1.14958,0.96309 0.30402,0.0574 0.28864,0.0416 0.30259,0.31141 0.019,0.36822 0.1618,0.62833 0.40356,0.73527 0.31564,0.13962 0.0753,0.19371 -0.4923,0.1108 z"
         id="path3121"
         inkscape:connector-curvature="0" />
      <path
         style="fill:#671198;stroke-width:0.04085804"
         d="m -332.17676,596.66446 c -1.99941,-0.31349 -3.70082,-1.86863 -4.20369,-3.8423 -0.46267,-1.81591 0.0517,-3.70518 1.36667,-5.0202 0.94241,-0.94241 2.10747,-1.45635 3.44989,-1.52186 2.99809,-0.14629 5.47449,2.21358 5.47449,5.2169 0,1.42298 -0.52626,2.69517 -1.53022,3.69912 -1.0175,1.0175 -2.29262,1.53795 -3.73998,1.52651 -0.25843,-0.002 -0.62615,-0.0282 -0.81716,-0.0582 z m 1.79118,-0.085 c 0.65319,-0.1168 1.28463,-0.36784 1.86561,-0.74172 0.89415,-0.5754 1.63425,-1.47513 2.02067,-2.45649 0.72616,-1.84412 0.30345,-3.98762 -1.06981,-5.42496 -0.78604,-0.82272 -1.74281,-1.33879 -2.86927,-1.54764 -0.52195,-0.0968 -1.53598,-0.067 -2.04482,0.0601 -1.01146,0.25259 -1.75637,0.67129 -2.47262,1.38981 -1.01625,1.01948 -1.51113,2.21625 -1.51098,3.654 1.1e-4,1.04947 0.26774,1.95529 0.83469,2.82507 0.24463,0.37529 0.79675,0.97506 1.14475,1.24354 1.15833,0.89364 2.65283,1.25737 4.10178,0.99829 z m -1.72593,-0.28355 c -0.66443,-0.12503 -1.40817,-0.43245 -2.00216,-0.82757 -0.56464,-0.3756 -1.17607,-1.09147 -1.52725,-1.78813 -0.2821,-0.55962 -0.5603,-1.56632 -0.46045,-1.66617 0.0302,-0.0302 0.0431,-0.0171 0.0431,0.044 0,0.0515 0.0337,0.0978 0.0823,0.11326 0.0453,0.0144 0.0718,0.0432 0.0589,0.064 -0.0406,0.0657 0.0913,0.0411 0.14835,-0.0276 0.0299,-0.036 0.10112,-0.0842 0.15822,-0.10701 0.0601,-0.024 0.0823,-0.0495 0.0528,-0.0604 -0.0281,-0.0104 -0.0511,-0.0445 -0.0511,-0.0758 0,-0.0313 -0.0558,-0.0857 -0.12391,-0.12091 -0.12217,-0.0632 -0.13145,-0.14231 -0.0167,-0.14231 0.0324,0 0.0589,-0.0368 0.0589,-0.0817 0,-0.09 0.0649,-0.11159 0.092,-0.0306 0.009,0.0281 0.0262,0.003 0.0374,-0.0551 0.0178,-0.0928 0.007,-0.10566 -0.0852,-0.10214 -0.058,0.002 -0.13423,-0.027 -0.16932,-0.0649 -0.0531,-0.0573 -0.0803,-0.0607 -0.16185,-0.02 -0.10493,0.0523 -0.18682,0.2987 -0.108,0.32497 0.0239,0.008 0.009,0.0276 -0.0322,0.0436 -0.0718,0.0276 -0.0744,0.006 -0.0488,-0.41129 0.0279,-0.4553 0.0593,-0.64192 0.17562,-1.04302 l 0.0681,-0.23493 0.1876,-0.003 c 0.10319,-0.002 0.28414,-0.008 0.40211,-0.0141 0.23648,-0.0119 0.25823,0.0197 0.17114,0.24872 -0.0576,0.15153 -0.15518,0.62033 -0.16765,0.80554 -0.005,0.0814 -0.0206,0.14802 -0.0336,0.14802 -0.0317,0 0.0495,1.01509 0.0916,1.14402 0.011,0.0337 0.0519,0.17161 0.0908,0.30644 0.18414,0.63744 0.62568,1.33805 1.13722,1.80449 1.20307,1.09698 2.93268,1.36865 4.38457,0.68867 0.87635,-0.41044 1.5088,-1.01104 1.91546,-1.819 0.31788,-0.63158 0.42886,-1.10084 0.42886,-1.81335 0,-0.64428 -0.088,-1.1227 -0.29977,-1.62951 -0.046,-0.11021 -0.0486,-0.14266 -0.0101,-0.12788 0.0284,0.0109 0.0752,-0.009 0.10403,-0.0433 0.0288,-0.0347 0.0786,-0.0632 0.1106,-0.0632 0.0461,0 0.043,-0.0203 -0.0152,-0.0979 -0.0538,-0.0717 -0.0914,-0.0883 -0.14062,-0.0621 -0.0452,0.024 -0.0837,0.0159 -0.11736,-0.0247 -0.0276,-0.0332 -0.0831,-0.0604 -0.12346,-0.0604 -0.15696,0 -0.10442,-0.17219 0.0658,-0.21558 0.0712,-0.0181 0.0716,-0.0206 0.005,-0.0248 -0.0408,-0.003 -0.11435,0.0159 -0.16343,0.0411 -0.0736,0.0378 -0.0803,0.0364 -0.0382,-0.008 0.079,-0.0836 0.0605,-0.12775 -0.0409,-0.0974 -0.0843,0.0253 -0.0866,0.022 -0.0278,-0.0395 0.0578,-0.0604 0.0759,-0.061 0.182,-0.006 0.14194,0.0736 0.17997,0.0513 0.0872,-0.0512 -0.0865,-0.0956 -0.047,-0.13712 0.0767,-0.0808 0.10069,0.0459 0.22325,0.0213 0.22325,-0.0447 0,-0.0215 -0.0322,-0.0485 -0.0715,-0.0598 -0.0393,-0.0114 -0.0121,-0.0144 0.0605,-0.007 0.114,0.0121 0.3206,0.14284 0.2284,0.14456 -0.0185,3.5e-4 -0.007,0.0173 0.0249,0.0376 0.0434,0.0275 0.0209,0.0441 -0.0874,0.0644 -0.13443,0.0252 -0.14352,0.0359 -0.11594,0.13603 0.0275,0.0998 0.045,0.1077 0.21572,0.0969 l 0.18581,-0.0118 0.12332,0.2978 c 0.29062,0.70176 0.41642,1.28536 0.41648,1.93211 8e-5,0.91311 -0.32349,1.91898 -0.89335,2.7771 -0.59648,0.89823 -1.73791,1.66094 -2.90654,1.94219 -0.50021,0.12038 -1.38028,0.14847 -1.85469,0.0592 z m -3.4639,-3.83875 c 0.0256,-0.0562 0.0307,-0.10215 0.0112,-0.10215 -0.0194,0 -0.0654,0.046 -0.10221,0.10215 -0.0529,0.0807 -0.0552,0.10214 -0.0113,0.10214 0.0306,0 0.0766,-0.046 0.10222,-0.10214 z m 8.12725,-3.23191 c -0.0131,-0.0131 -0.0633,-0.0112 -0.11155,0.004 -0.0849,0.027 -0.0854,0.0305 -0.0143,0.10907 0.0733,0.0809 0.0736,0.0809 0.11155,-0.004 0.0209,-0.0469 0.0274,-0.096 0.0143,-0.10907 z m -4.56055,5.92672 c -1.23061,-0.26698 -2.17952,-1.01704 -2.68104,-2.11923 -0.15689,-0.34479 -0.28616,-0.80975 -0.25076,-0.90198 0.0139,-0.0363 0.01,-0.0563 -0.01,-0.0445 -0.0666,0.0412 -0.12526,-0.90494 -0.0601,-0.97008 0.0147,-0.0147 0.0328,-0.10732 0.0402,-0.20587 0.02,-0.2658 0.10531,-0.49271 0.19137,-0.50928 0.0466,-0.009 0.0821,0.015 0.0949,0.0642 0.015,0.0573 0.0529,0.0766 0.14011,0.0714 0.13233,-0.008 0.15119,0.0252 0.0583,0.10233 -0.0337,0.028 -0.0613,0.0766 -0.0613,0.10816 0,0.0315 -0.046,0.0748 -0.10214,0.0961 -0.0562,0.0214 -0.10215,0.0669 -0.10215,0.10113 0,0.085 0.0492,0.0782 0.15632,-0.0216 l 0.09,-0.0839 0.0249,0.12472 c 0.0137,0.0686 0.0456,0.12472 0.0707,0.12472 0.0252,0 -0.0598,0.10071 -0.18897,0.2238 -0.12912,0.12309 -0.23478,0.25237 -0.23478,0.28729 0,0.0963 0.11114,0.11867 0.2236,0.045 0.12771,-0.0837 0.14759,-0.0827 0.1161,0.006 -0.0165,0.0462 0.009,0.0337 0.0728,-0.0356 0.054,-0.0589 0.14852,-0.11892 0.20997,-0.1334 l 0.11173,-0.0263 -0.002,0.49365 c -0.002,0.70194 0.16263,1.14586 0.58878,1.58306 0.21546,0.22106 0.84069,0.57172 0.9257,0.51919 0.0547,-0.0338 0.0529,-0.18404 -0.002,-0.18404 -0.0238,0 -0.14216,-0.0935 -0.26299,-0.20777 -0.51119,-0.48347 -0.77647,-1.45969 -0.5786,-2.12927 0.0378,-0.12807 0.0898,-0.24586 0.11557,-0.26175 0.0328,-0.0203 0.038,3.6e-4 0.0174,0.0694 -0.0972,0.32556 -0.14423,0.57456 -0.14551,0.7698 -0.002,0.27036 0.10921,0.68535 0.21032,0.78646 0.0408,0.0408 0.0742,0.0988 0.0742,0.12887 0,0.03 0.0735,0.15734 0.16343,0.28287 0.0899,0.12552 0.16343,0.24646 0.16343,0.26875 0,0.0223 0.0925,0.10839 0.20549,0.19135 0.20909,0.1535 0.50917,0.27735 0.78532,0.32416 0.14945,0.0253 0.15321,0.0303 0.15321,0.20284 0,0.35161 0.18577,0.70415 0.44252,0.83978 l 0.14993,0.0792 -0.32687,-10e-4 c -0.17977,-7.9e-4 -0.4443,-0.0269 -0.58782,-0.058 z m 1.1895,-0.27397 c -8e-5,-0.18079 -0.0255,-0.35475 -0.0652,-0.44641 l -0.0651,-0.15019 0.13207,-0.10988 c 0.18018,-0.14989 0.43851,-0.46444 0.43851,-0.53393 0,-0.0313 -0.0365,-0.0933 -0.081,-0.13786 -0.0664,-0.0664 -0.11612,-0.0768 -0.27579,-0.0576 -0.31318,0.0377 -0.44741,0.0933 -0.67696,0.2803 l -0.21613,0.17606 -0.15606,-0.0759 c -0.27241,-0.1325 -0.42032,-0.27325 -0.5718,-0.54412 -0.20549,-0.36745 -0.24095,-0.75722 -0.10414,-1.14474 0.0522,-0.14797 0.10721,-0.26903 0.12215,-0.26903 0.0404,0 0.3262,0.21383 0.48298,0.36131 0.0754,0.0709 0.1734,0.12898 0.21775,0.12898 0.0694,0 0.0768,-0.0185 0.053,-0.13278 -0.0301,-0.14432 -0.17838,-0.42212 -0.33881,-0.63469 -0.0871,-0.11537 -0.0929,-0.14115 -0.042,-0.18386 0.16735,-0.14018 0.52452,-0.78365 0.52452,-0.94496 0,-0.0385 0.0346,-0.0649 0.0849,-0.0649 0.0754,0 0.0708,-0.0118 -0.0409,-0.10578 -0.19402,-0.16326 -0.14266,-0.33274 0.10087,-0.33282 0.0664,-2e-5 0.16668,-0.0144 0.22286,-0.0319 0.0562,-0.0175 0.0877,-0.0162 0.07,0.003 -0.0177,0.0191 0.0467,0.0583 0.143,0.0871 0.20938,0.0626 0.23862,0.0639 0.31793,0.0138 0.0524,-0.0331 0.0496,-0.047 -0.0199,-0.0978 -0.0792,-0.0579 -0.0793,-0.0611 -0.005,-0.14365 0.042,-0.0464 0.0911,-0.0754 0.10899,-0.0643 0.0179,0.0111 0.0441,10e-4 0.0582,-0.0214 0.0493,-0.0798 0.0931,-0.04 0.18089,0.16396 0.1385,0.32194 0.15461,0.66816 0.0462,0.99378 -0.0497,0.14939 -0.1085,0.27162 -0.13064,0.27162 -0.0525,0 -0.30164,-0.18269 -0.49157,-0.36051 -0.17889,-0.16747 -0.29658,-0.15701 -0.25352,0.0225 0.0386,0.16084 0.11334,0.29905 0.27951,0.51675 0.0796,0.10431 0.14477,0.20019 0.14477,0.21307 0,0.0129 -0.0616,0.10005 -0.13684,0.19372 -0.13584,0.16905 -0.18495,0.25193 -0.35112,0.59264 -0.0861,0.1764 -0.0849,0.42554 0.002,0.4794 0.0199,0.0123 0.0362,0.0683 0.0362,0.12439 0,0.0844 0.0403,0.12045 0.23372,0.209 0.22595,0.10344 0.2455,0.10551 0.58735,0.0624 0.51201,-0.0646 0.69093,-0.16029 1.10947,-0.59318 0.19663,-0.20337 0.35751,-0.39064 0.35751,-0.41615 0,-0.0255 0.10572,-0.0995 0.23493,-0.16449 0.2779,-0.13972 0.62302,-0.39241 0.69392,-0.50808 0.0941,-0.15354 -0.0191,-0.25278 -0.15864,-0.13901 -0.0818,0.0667 -0.3603,0.17612 -0.44834,0.17612 -0.0709,0 -0.0768,-0.0382 -0.0772,-0.50051 -4.4e-4,-0.50312 -0.0408,-0.72316 -0.18408,-1.00357 -0.038,-0.0744 -0.058,-0.14644 -0.0445,-0.16002 0.0136,-0.0136 0.0247,-0.003 0.0247,0.0244 0,0.0359 0.0213,0.0377 0.079,0.007 0.0997,-0.0534 0.13725,-0.0539 0.10484,-10e-4 -0.0146,0.0236 0.0241,0.0409 0.0916,0.0409 0.0642,0 0.13996,0.023 0.16826,0.0511 0.0412,0.041 0.0461,0.0369 0.0242,-0.0204 -0.0158,-0.0414 -0.008,-0.0715 0.018,-0.0715 0.0249,0 0.0452,0.0221 0.0452,0.049 0,0.0381 0.0109,0.0381 0.049,0 0.10017,-0.10017 0.18506,-0.0513 0.27526,0.15833 0.25114,0.5838 0.33977,1.33094 0.23145,1.95119 -0.22262,1.27479 -0.98383,2.2806 -2.12502,2.80786 -0.2602,0.12022 -0.85746,0.30428 -0.98737,0.30428 -0.0335,0 -0.0489,-0.0935 -0.049,-0.29622 z m 0.79045,-2.45449 c -0.0491,-0.0359 -0.0666,-0.0947 -0.0572,-0.19287 0.0131,-0.13732 0.0178,-0.14082 0.17209,-0.12717 0.098,0.009 0.17096,-0.006 0.19084,-0.038 0.0207,-0.0335 0.0428,0.004 0.0619,0.10632 0.0258,0.1374 0.0174,0.16658 -0.0634,0.22019 -0.12598,0.0837 -0.21968,0.0934 -0.30421,0.0316 z m 0.52906,-0.48217 c 0.0165,-0.0534 0.0631,-0.16251 0.1034,-0.2425 0.10261,-0.20352 0.20229,-0.60929 0.20157,-0.82061 -7.6e-4,-0.22495 -0.10808,-0.68628 -0.17887,-0.76891 -0.0296,-0.0345 -0.10535,-0.15931 -0.16837,-0.27729 -0.063,-0.11798 -0.12825,-0.2145 -0.14495,-0.2145 -0.0167,0 -0.0496,-0.0552 -0.0731,-0.12258 -0.0614,-0.17605 0.0112,-0.15129 0.1496,0.0511 0.14029,0.20507 0.26426,0.43923 0.23254,0.43923 -0.0123,0 0.004,0.0414 0.0366,0.0919 0.0775,0.12069 0.17527,0.48371 0.20753,0.77056 0.0316,0.28077 -0.0616,0.71741 -0.20544,0.96288 -0.12043,0.20549 -0.20499,0.27435 -0.16052,0.13072 z m -4.8586,-0.95841 c -0.0428,-0.11149 -0.0274,-0.14988 0.0517,-0.1292 0.059,0.0154 0.0864,-0.0125 0.12001,-0.1219 0.0517,-0.16862 0.002,-0.338 -0.10012,-0.338 -0.038,0 -0.0587,-0.0104 -0.046,-0.0231 0.0127,-0.0127 0.0907,-0.0104 0.17338,0.005 0.13267,0.0249 0.14748,0.0395 0.12617,0.12442 -0.0223,0.0888 -0.0162,0.0932 0.0803,0.0565 0.0886,-0.0337 0.10262,-0.0289 0.0925,0.0314 -0.007,0.0396 0.0107,0.0666 0.0392,0.0609 0.0281,-0.006 0.0511,-7.7e-4 0.0511,0.0108 0,0.0376 -0.10108,0.20295 -0.143,0.23395 -0.0225,0.0166 -0.0679,0.0202 -0.1009,0.008 -0.033,-0.0122 -0.0469,-0.009 -0.0309,0.007 0.016,0.016 -0.011,0.0572 -0.06,0.0916 -0.0646,0.0452 -0.0936,0.0491 -0.10529,0.0139 -0.009,-0.0267 -0.0341,-0.0485 -0.056,-0.0485 -0.0219,0 -0.0285,0.0184 -0.0146,0.0409 0.0139,0.0225 0.008,0.0409 -0.0136,0.0409 -0.0214,0 -0.0501,-0.0291 -0.0637,-0.0646 z m -0.1911,-0.90575 c -0.003,-0.0996 -0.007,-0.10306 -0.038,-0.0306 -0.0244,0.0569 -0.0369,0.0631 -0.0409,0.0204 -0.004,-0.0427 -0.0164,-0.0365 -0.0409,0.0204 -0.0308,0.0717 -0.0355,0.0728 -0.038,0.009 -0.004,-0.0949 0.11801,-0.28022 0.16503,-0.25116 0.02,0.0124 0.0364,0.0663 0.0364,0.11981 0,0.0535 0.0184,0.10868 0.0409,0.12257 0.0618,0.0382 0.0489,0.10215 -0.0204,0.10215 -0.0389,0 -0.0623,-0.041 -0.0642,-0.11236 z m 0.37553,0.0284 c 0.007,-0.0325 -0.009,-0.0976 -0.0353,-0.14469 -0.0804,-0.14504 -0.0919,-0.29391 -0.0247,-0.31971 0.0876,-0.0336 0.23865,0.0542 0.18521,0.10764 -0.0577,0.0577 -0.0142,0.15466 0.0571,0.12729 0.11635,-0.0447 0.0382,0.10552 -0.11938,0.22947 -0.0655,0.0515 -0.0736,0.0515 -0.0629,0 z m -1.72097,-0.13965 c 0,-0.0133 0.027,-0.0889 0.0601,-0.16797 0.0415,-0.0992 0.0826,-0.13995 0.13279,-0.13147 0.0469,0.008 0.0681,-0.009 0.0596,-0.049 -0.009,-0.0442 -5.8e-4,-0.049 0.032,-0.0171 0.0607,0.0595 0.0169,0.16042 -0.0927,0.21339 -0.0859,0.0415 -0.0848,0.0434 0.0262,0.046 0.17027,0.004 0.11362,0.10226 -0.0679,0.11759 -0.0825,0.007 -0.15005,0.002 -0.15005,-0.0115 z m 6.91287,-0.34798 c -0.0968,-0.11272 -0.16466,-0.22329 -0.15081,-0.24571 0.0381,-0.0617 0.10209,-0.0488 0.10209,0.0205 0,0.0337 0.0184,0.0613 0.0408,0.0613 0.0225,0 0.0409,0.0261 0.0409,0.058 0,0.0687 0.24367,0.22805 0.34871,0.22805 0.10673,0 0.0464,0.0437 -0.0895,0.0648 -0.0988,0.0153 -0.14264,-0.0127 -0.29221,-0.18692 z m -5.32802,-0.21542 c -0.0374,-0.0269 -0.0312,-0.0309 0.0215,-0.0139 0.061,0.0197 0.0696,0.008 0.0484,-0.0676 -0.0188,-0.0667 -0.0149,-0.076 0.014,-0.0341 0.0331,0.048 0.0607,0.0489 0.16559,0.005 0.0752,-0.0312 0.11467,-0.0708 0.0981,-0.0985 -0.0153,-0.0255 0.004,-0.0208 0.0423,0.0105 0.0656,0.0532 0.0648,0.0605 -0.0127,0.11473 -0.0455,0.0318 -0.10116,0.0465 -0.12375,0.0325 -0.0226,-0.014 -0.0509,2.9e-4 -0.063,0.0317 -0.0251,0.0655 -0.1136,0.0744 -0.19042,0.0192 z m 5.0157,-0.1087 c -0.0128,-0.0207 0.0321,-0.0653 0.0997,-0.099 0.1345,-0.0671 0.14388,-0.0604 0.0807,0.0576 -0.0445,0.0831 -0.14098,0.10522 -0.18044,0.0414 z m -6.02854,-0.28453 c 0,-0.0236 -0.0322,-0.0329 -0.0715,-0.0205 -0.0611,0.0192 -0.0599,0.013 0.008,-0.0421 0.10355,-0.0844 0.19574,-0.0826 0.17904,0.004 -0.0147,0.0756 -0.11535,0.12718 -0.11535,0.0591 z m 5.41369,-0.12726 c 0.0139,-0.0225 0.0701,-0.0409 0.12498,-0.0409 0.0549,0 0.0997,0.0184 0.0997,0.0409 0,0.0225 -0.0563,0.0409 -0.12499,0.0409 -0.0729,0 -0.11446,-0.017 -0.0997,-0.0409 z m 2.2465,-0.2145 c 0.008,-0.0979 0.0321,-0.13608 0.0932,-0.1453 0.10333,-0.0156 0.10299,0.0983 -6.1e-4,0.20466 -0.0967,0.0993 -0.10446,0.0943 -0.0926,-0.0594 z m -0.40108,-0.0579 c -0.0409,-0.0409 -0.0328,-0.14443 0.009,-0.11841 0.0201,0.0124 0.0467,-0.004 0.059,-0.0358 0.0123,-0.0321 4.6e-4,-0.0658 -0.0264,-0.0749 -0.031,-0.0105 -0.0116,-0.0557 0.0534,-0.12451 0.10009,-0.10584 0.16821,-0.13969 0.1586,-0.0788 -0.0149,0.0943 0.0112,0.13909 0.0683,0.1172 0.0364,-0.014 0.0528,-0.007 0.0384,0.0161 -0.0137,0.0222 -0.004,0.0404 0.0207,0.0404 0.0251,0 0.0343,0.0184 0.0204,0.041 -0.0168,0.0272 -0.0519,0.0268 -0.10455,-10e-4 -0.0811,-0.0434 -0.0999,-0.0157 -0.081,0.11923 0.005,0.036 -0.0156,0.0476 -0.0564,0.0319 -0.0406,-0.0156 -0.0644,-0.003 -0.0644,0.0353 0,0.0627 -0.0487,0.0794 -0.0953,0.0328 z m -6.07423,-0.19231 c 0,-0.0339 0.0184,-0.073 0.0409,-0.0869 0.0225,-0.0139 0.0409,-0.005 0.0409,0.0204 0,0.0251 0.019,0.034 0.0421,0.0197 0.024,-0.0148 0.0312,-0.0841 0.0168,-0.16116 -0.0171,-0.0911 -0.008,-0.14603 0.0287,-0.16853 0.0873,-0.0539 0.21306,-0.0506 0.29782,0.008 0.0578,0.04 0.0933,0.0426 0.13279,0.01 0.0391,-0.0325 0.0539,-0.0322 0.0539,10e-4 0,0.0415 -0.0555,0.0615 -0.0989,0.0356 -0.009,-0.006 -0.0614,0.0313 -0.11539,0.0821 -0.054,0.0508 -0.11363,0.0784 -0.13242,0.0613 -0.0188,-0.0171 -0.0225,-0.0105 -0.008,0.0146 0.0309,0.0542 -0.0781,0.15816 -0.20699,0.19745 -0.0671,0.0204 -0.0919,0.0114 -0.0919,-0.0336 z m 4.37181,-0.12533 c 0,-0.035 -0.0221,-0.0637 -0.049,-0.0637 -0.036,0 -0.0369,-0.0121 -0.004,-0.0455 0.025,-0.025 0.0655,-0.0331 0.0899,-0.018 0.0557,0.0344 0.0578,0.13212 0.004,0.16563 -0.0225,0.0139 -0.0409,-0.003 -0.0409,-0.0385 z m 1.652,-0.14987 c -0.0297,-0.048 0.0492,-0.11643 0.13554,-0.11749 0.0781,-9.6e-4 0.0608,0.073 -0.0282,0.12062 -0.056,0.03 -0.0875,0.029 -0.10738,-0.003 z m -5.06983,-0.33036 c -0.11857,-0.18471 -0.13899,-0.25147 -0.087,-0.28447 0.0288,-0.0183 0.0655,-0.0335 0.0817,-0.0338 0.0161,-3.4e-4 0.0188,-0.0281 0.006,-0.0617 -0.0129,-0.0336 -0.0399,-0.0509 -0.06,-0.0385 -0.0201,0.0124 -0.0366,0.003 -0.0366,-0.0207 0,-0.0614 -0.0533,-0.0536 -0.14541,0.021 -0.0436,0.0354 -0.0535,0.0509 -0.0219,0.0346 0.0377,-0.0196 0.0474,-0.0136 0.0282,0.0174 -0.0441,0.0713 -0.094,0.0567 -0.11789,-0.0345 -0.0147,-0.0561 -10e-4,-0.0817 0.0429,-0.0817 0.0353,0 0.0523,-0.012 0.0377,-0.0266 -0.0146,-0.0146 0.005,-0.0529 0.0443,-0.0851 0.0661,-0.0545 0.0653,-0.0568 -0.0109,-0.0346 -0.0805,0.0235 -0.0805,0.023 -0.002,-0.0375 0.0921,-0.0713 0.13119,-0.0766 0.16474,-0.0223 0.0359,0.0582 0.14235,0.004 0.1178,-0.0601 -0.015,-0.039 0.0759,-0.0857 0.31113,-0.16005 0.40698,-0.12856 0.51876,-0.13602 0.34847,-0.0232 l -0.12257,0.0812 0.11869,2.6e-4 c 0.1161,2.7e-4 0.11708,0.002 0.0447,0.082 -0.0459,0.0507 -0.0551,0.0817 -0.0244,0.0817 0.0273,0 0.0384,0.0182 0.0246,0.0404 -0.0289,0.0467 0.0379,0.0243 0.25064,-0.0842 0.0821,-0.0419 0.16939,-0.0637 0.19392,-0.0485 0.027,0.0167 0.0125,0.0363 -0.0367,0.0498 -0.0447,0.0122 -0.13411,0.0579 -0.19864,0.10164 -0.0674,0.0456 -0.18007,0.0777 -0.2647,0.0753 -0.20495,-0.006 -0.3726,0.0863 -0.34552,0.18988 0.0161,0.0616 -0.005,0.0871 -0.0879,0.10803 -0.0929,0.0233 -0.10709,0.0461 -0.0962,0.15445 0.009,0.0924 -0.006,0.13067 -0.0549,0.1402 -0.0372,0.007 -0.0831,-0.0109 -0.10193,-0.0402 z m 0.74004,-0.23976 c -0.0149,-0.024 -0.016,-0.0548 -0.002,-0.0682 0.0135,-0.0135 0.0245,-0.003 0.0245,0.0231 0,0.0262 0.0195,0.0477 0.0433,0.0477 0.0238,0 0.0318,-0.0185 0.0178,-0.0412 -0.014,-0.0226 0.002,-0.0686 0.0355,-0.10214 0.0537,-0.0537 0.0682,-0.0538 0.12117,-7.8e-4 0.053,0.053 0.0733,0.043 0.17047,-0.0844 0.0607,-0.0795 0.12004,-0.13484 0.13196,-0.12292 0.0119,0.0119 0.0536,0.005 0.0926,-0.0163 0.039,-0.0209 0.0817,-0.0272 0.0948,-0.0141 0.0416,0.0416 -0.0853,0.13683 -0.19429,0.14585 -0.0577,0.005 -0.10483,0.0322 -0.10483,0.0611 0,0.0288 -0.0195,0.0524 -0.0433,0.0524 -0.0238,0 -0.03,0.023 -0.0139,0.0511 0.0162,0.0281 0.0143,0.0374 -0.004,0.0208 -0.0184,-0.0167 -0.0535,-0.0146 -0.0781,0.005 -0.0788,0.0616 -0.26317,0.0892 -0.29135,0.0436 z m 1.25063,-0.23994 c -0.065,-0.0411 -0.097,-0.16608 -0.0425,-0.16608 0.0191,0 0.0462,0.0184 0.0601,0.0409 0.0139,0.0225 0.001,0.0411 -0.0282,0.0415 -0.0411,4.8e-4 -0.0402,0.009 0.004,0.0371 0.0317,0.0201 0.0853,0.0258 0.11907,0.0129 0.04,-0.0154 0.0512,-0.007 0.0319,0.0242 -0.0352,0.057 -0.0663,0.059 -0.14442,0.01 z m 0.39892,-0.0748 c 0.0442,-0.0316 0.0419,-0.0439 -0.012,-0.0645 -0.0486,-0.0186 -0.0565,-0.0449 -0.0294,-0.0976 0.0204,-0.0397 0.0293,-0.0938 0.0197,-0.12041 -0.01,-0.0266 0.01,-0.10118 0.0434,-0.1658 0.0531,-0.10268 0.0792,-0.11533 0.20715,-0.1004 0.19228,0.0225 0.2137,0.0685 0.0866,0.18622 -0.12352,0.11447 -0.12803,0.13656 -0.0329,0.1614 0.0642,0.0168 0.0637,0.0192 -0.005,0.0234 -0.0521,0.003 -0.0702,0.0278 -0.0572,0.0777 0.0123,0.047 -0.004,0.074 -0.0463,0.0758 -0.036,0.002 -0.10216,0.0164 -0.1471,0.033 -0.057,0.021 -0.0652,0.0184 -0.0272,-0.009 z"
         id="path3119"
         inkscape:connector-curvature="0" />
      <path
         style="fill:#580c92;stroke-width:0.04085804"
         d="m -332.0329,596.68418 c -1.1493,-0.18098 -2.14313,-0.66423 -2.90227,-1.41125 -0.83004,-0.81678 -1.32045,-1.73491 -1.53674,-2.87706 -0.0656,-0.34625 -0.0664,-1.45843 -0.001,-1.79775 0.42251,-2.20265 2.05463,-3.8347 4.25556,-4.25538 0.34275,-0.0655 1.455,-0.0655 1.79775,0 1.09391,0.20908 2.03688,0.69909 2.79469,1.45222 0.74287,0.7383 1.22302,1.63951 1.46081,2.74187 0.0702,0.32542 0.0702,1.59491 0,1.92033 -0.27718,1.28498 -0.89927,2.32966 -1.84075,3.09119 -0.64749,0.52374 -1.22573,0.81352 -2.03677,1.02072 -0.4072,0.10403 -0.57631,0.125 -1.11342,0.13811 -0.34832,0.009 -0.74323,-0.002 -0.87759,-0.023 z m 1.58881,-0.085 c 0.95024,-0.14646 2.03657,-0.70793 2.77343,-1.43343 0.72172,-0.71061 1.28505,-1.79359 1.46206,-2.81075 0.0763,-0.43864 0.0674,-1.33222 -0.0176,-1.76792 -0.22041,-1.12925 -0.66238,-1.94754 -1.49465,-2.76732 -0.67195,-0.66186 -1.30048,-1.03354 -2.1755,-1.28647 -0.49828,-0.14403 -0.80606,-0.1838 -1.42238,-0.1838 -0.62198,0 -0.89692,0.0361 -1.41646,0.18581 -1.34587,0.38792 -2.46252,1.28708 -3.13853,2.52724 -0.21625,0.39671 -0.48293,1.18091 -0.54998,1.61728 -0.0678,0.44119 -0.0585,1.34554 0.018,1.74575 0.38702,2.02571 1.85336,3.5843 3.85233,4.09468 0.63538,0.16223 1.38649,0.19033 2.10929,0.0789 z m -1.64754,-0.30603 c -0.64764,-0.10852 -1.33982,-0.39093 -1.98527,-0.81001 -0.37412,-0.2429 -1.01599,-0.86411 -0.98264,-0.95101 0.012,-0.0312 0.005,-0.0461 -0.0164,-0.0331 -0.0442,0.0273 -0.46005,-0.58511 -0.43939,-0.64709 0.027,-0.0811 0.11081,-0.0725 0.11081,0.0114 0,0.10852 0.0654,0.1109 0.0936,0.003 0.0139,-0.0531 0.001,-0.0817 -0.0361,-0.0817 -0.0316,1e-5 -0.0575,-0.0184 -0.0575,-0.0408 0,-0.0225 0.014,-0.0409 0.031,-0.0409 0.0171,0 0.0536,-0.0361 0.0811,-0.0802 0.0435,-0.0696 0.0407,-0.0767 -0.0208,-0.0536 -0.039,0.0146 -0.0924,0.0553 -0.11863,0.0904 -0.0263,0.0351 -0.0582,0.0532 -0.0711,0.0404 -0.0128,-0.0128 0.0125,-0.0618 0.0562,-0.10873 0.0689,-0.0739 0.0716,-0.092 0.02,-0.13482 -0.0327,-0.0272 -0.0596,-0.077 -0.0596,-0.11071 0,-0.0496 -0.0116,-0.0517 -0.0608,-0.0108 -0.0335,0.0278 -0.049,0.0696 -0.0346,0.093 0.0161,0.026 0.006,0.0302 -0.0252,0.0107 -0.0379,-0.0234 -0.0443,-0.009 -0.024,0.055 0.0152,0.0478 0.01,0.0868 -0.0117,0.0868 -0.056,0 -0.0909,-0.11053 -0.0602,-0.19057 0.0164,-0.0426 0.01,-0.058 -0.0174,-0.0411 -0.0447,0.0276 -0.11193,-0.0898 -0.0735,-0.1283 0.0118,-0.0118 0.0214,10e-4 0.0214,0.0287 0,0.0276 0.0168,0.0397 0.0374,0.027 0.0205,-0.0127 0.0446,-10e-4 0.0535,0.0253 0.01,0.029 0.0378,0.0349 0.0703,0.0149 0.0411,-0.0254 0.0306,-0.0466 -0.0433,-0.0875 -0.0536,-0.0297 -0.0722,-0.0547 -0.0414,-0.0555 0.0448,-10e-4 0.046,-0.0136 0.006,-0.0617 -0.0412,-0.0497 -0.0315,-0.0687 0.055,-0.10812 0.0578,-0.0263 0.0961,-0.0623 0.0852,-0.0799 -0.0109,-0.0176 -0.001,-0.0436 0.0217,-0.0577 0.0518,-0.032 0.0533,0.0608 0.002,0.14151 -0.0251,0.0397 -0.0214,0.0708 0.0108,0.0913 0.0326,0.0208 0.024,0.0313 -0.026,0.0317 -0.0425,3.7e-4 -0.0668,0.0227 -0.0562,0.0517 0.0103,0.0281 0.0394,0.0465 0.0647,0.0409 0.0253,-0.006 0.046,0.008 0.046,0.0306 0,0.0587 0.11136,0.0505 0.13911,-0.0102 0.0129,-0.0281 0.012,0.0129 -0.002,0.0911 -0.0227,0.12773 -0.0185,0.13661 0.041,0.0873 0.0424,-0.0352 0.0577,-0.0888 0.0426,-0.1491 -0.0191,-0.0761 -0.005,-0.0968 0.0719,-0.10771 0.0615,-0.009 0.0935,-0.039 0.0899,-0.085 -0.009,-0.1131 0.0174,-0.0859 0.12756,0.13145 0.12199,0.24074 0.12555,0.28106 0.0313,0.3546 -0.0626,0.0489 -0.0562,0.0508 0.0511,0.0154 0.12032,-0.0396 0.12088,-0.0392 0.0306,0.0252 -0.0506,0.0361 -0.0919,0.0888 -0.0919,0.1171 0,0.0283 -0.0406,0.0621 -0.0901,0.0751 -0.0496,0.013 -0.0808,0.0329 -0.0694,0.0443 0.0325,0.0325 0.31755,-0.0658 0.33579,-0.11573 0.009,-0.0246 0.011,-0.0108 0.005,0.0308 -0.009,0.0568 0.008,0.0704 0.0671,0.0549 0.11212,-0.0293 0.098,0.0199 -0.045,0.15689 -0.10199,0.0977 -0.13698,0.11062 -0.19748,0.0728 -0.0577,-0.036 -0.0735,-0.0336 -0.0735,0.0115 0,0.0316 0.0127,0.0574 0.0283,0.0574 0.0156,0 0.0248,0.0835 0.0206,0.18552 -0.006,0.1392 0.006,0.18256 0.0488,0.17365 0.0311,-0.007 0.0566,-0.0303 0.0568,-0.0527 1.7e-4,-0.0225 0.0392,-0.0822 0.0867,-0.13279 0.0475,-0.0506 0.0648,-0.0919 0.0384,-0.0919 -0.0845,0 -0.0514,-0.11394 0.058,-0.2 l 0.10597,-0.0834 0.32844,0.34697 c 0.55588,0.58725 1.22444,0.97391 2.02114,1.16891 0.53155,0.13011 1.35741,0.12231 1.89248,-0.0179 1.1098,-0.29077 2.04468,-1.01883 2.58272,-2.01137 0.10738,-0.19807 0.1355,-0.22749 0.14644,-0.15321 0.01,0.0664 0.0411,0.0919 0.11284,0.0919 0.0546,0 0.0993,-0.019 0.0993,-0.0421 0,-0.0764 0.11923,-0.0896 0.18808,-0.0208 0.0372,0.0372 0.0954,0.0569 0.12949,0.0439 0.034,-0.0131 0.0935,0.009 0.13218,0.0487 0.0666,0.0687 0.0639,0.0853 -0.0519,0.31762 -0.48456,0.97176 -1.1687,1.64651 -2.17513,2.14526 -0.97061,0.48099 -1.91978,0.63226 -2.91793,0.465 z m 0.11608,-1.13932 c -0.82541,-0.16453 -1.60897,-0.61076 -2.13446,-1.21554 -0.19252,-0.22156 -0.20026,-0.23914 -0.13645,-0.30965 0.0965,-0.1066 0.0839,-0.15694 -0.0166,-0.0661 -0.0721,0.0652 -0.0897,0.0676 -0.12214,0.0165 -0.0209,-0.0328 -0.0295,-0.0826 -0.0192,-0.11073 0.0103,-0.0281 -10e-4,-0.0511 -0.0259,-0.0511 -0.0277,0 -0.0234,-0.0255 0.0112,-0.0672 0.0493,-0.0594 0.0458,-0.064 -0.0297,-0.04 -0.0883,0.028 -0.13713,-0.0439 -0.31989,-0.47096 -0.0779,-0.18197 -0.0789,-0.20133 -0.009,-0.17455 0.0301,0.0116 0.0783,-0.007 0.10714,-0.0421 0.044,-0.053 0.0402,-0.0639 -0.0241,-0.068 -0.0421,-0.003 -0.0995,-0.002 -0.12758,0.002 -0.0281,0.004 -0.0511,-0.0197 -0.0511,-0.0519 0,-0.0458 0.0496,-0.055 0.22728,-0.0424 0.14586,0.0104 0.21819,0.001 0.20188,-0.0249 -0.014,-0.0226 -0.006,-0.0411 0.0179,-0.0411 0.0238,0 0.0433,-0.0184 0.0433,-0.0409 0,-0.0225 -0.0276,-0.0408 -0.0613,-0.0408 -0.0337,0 -0.0613,-0.0322 -0.0613,-0.0715 0,-0.048 0.0319,-0.0715 0.0969,-0.0715 0.0671,0 0.0901,0.0179 0.0746,0.0582 -0.0158,0.0411 -0.002,0.0505 0.0461,0.0319 0.0489,-0.0187 0.0684,-0.005 0.0684,0.0498 0,0.0418 0.0295,0.0874 0.0655,0.1012 0.0374,0.0144 0.0555,0.0513 0.0421,0.0861 -0.0129,0.0335 -0.006,0.0609 0.0162,0.0609 0.0218,0 0.0396,0.0238 0.0396,0.0529 0,0.0291 0.0731,0.19915 0.16241,0.37793 0.22288,0.44608 0.50046,0.72164 0.93168,0.92492 0.18601,0.0877 0.35609,0.14838 0.37793,0.13488 0.0805,-0.0497 0.0377,-0.18209 -0.0782,-0.24203 -0.26059,-0.13475 -0.64349,-0.70657 -0.71296,-1.06472 l -0.0238,-0.12258 0.0597,0.13279 c 0.0328,0.073 0.0743,0.13279 0.0922,0.13279 0.0179,0 0.0559,0.0646 0.0845,0.14364 0.0286,0.079 0.11488,0.22609 0.1918,0.32686 0.0769,0.10078 0.12794,0.18323 0.11337,0.18323 -0.0551,0 0.12803,0.16728 0.31303,0.286 0.20175,0.12946 0.44699,0.22141 0.70481,0.26425 l 0.15321,0.0255 4.1e-4,0.21266 c 2.5e-4,0.13724 0.0344,0.28509 0.0964,0.41694 0.10355,0.22046 0.18218,0.3059 0.3732,0.4055 0.12072,0.0629 0.11807,0.0638 -0.18395,0.0603 -0.16854,-0.002 -0.42733,-0.0277 -0.57509,-0.0572 z m -2.32583,-2.47437 c 0,-0.0238 -0.023,-0.0295 -0.0511,-0.0126 -0.0338,0.0203 -0.0318,0.007 0.006,-0.0394 0.0817,-0.10073 0.0333,-0.12327 -0.0708,-0.033 -0.1145,0.0993 -0.11136,0.12826 0.0139,0.12826 0.0562,0 0.10215,-0.0195 0.10215,-0.0433 z m 3.4972,2.28024 c 0.0184,-0.15786 0.004,-0.27687 -0.055,-0.45069 l -0.08,-0.23619 0.16275,-0.12889 c 0.19423,-0.15384 0.39743,-0.42354 0.39743,-0.52752 0,-0.041 -0.0454,-0.1044 -0.10092,-0.14077 -0.0879,-0.0576 -0.13807,-0.0599 -0.38914,-0.0175 -0.24486,0.0413 -0.32219,0.0763 -0.514,0.23253 -0.1795,0.14622 -0.24675,0.17866 -0.32806,0.15825 -0.1279,-0.0321 -0.40247,-0.22878 -0.50973,-0.36514 -0.2445,-0.31083 -0.37643,-0.86503 -0.28574,-1.20027 0.0516,-0.19092 0.0723,-0.20616 0.14496,-0.10684 0.0443,0.0606 0.057,0.058 0.13633,-0.0271 0.0734,-0.0788 0.10247,-0.0867 0.18037,-0.0491 0.0908,0.0438 0.0902,0.0448 -0.0245,0.0475 -0.10036,0.002 -0.10988,0.0118 -0.0657,0.065 0.0433,0.0522 0.0405,0.058 -0.0175,0.0357 -0.0586,-0.0225 -0.0648,-0.009 -0.0403,0.091 0.0158,0.0646 0.048,0.13006 0.0714,0.14537 0.0244,0.0159 -0.005,0.0493 -0.0676,0.0781 -0.10576,0.0482 -0.1542,0.15968 -0.0694,0.15968 0.0225,0 0.0363,-0.0138 0.0306,-0.0307 -0.006,-0.0168 0.008,-0.0306 0.0307,-0.0306 0.0225,0 0.0358,0.0184 0.0296,0.0409 -0.006,0.0225 0.0214,-2.1e-4 0.0613,-0.0504 0.053,-0.0667 0.10201,-0.0859 0.18228,-0.0712 0.0604,0.011 0.12114,0.002 0.13506,-0.0209 0.0139,-0.0225 0.0657,-0.0621 0.11497,-0.088 0.0869,-0.0456 0.0874,-0.0445 0.0182,0.0336 -0.0994,0.11208 -0.0895,0.14159 0.0367,0.10991 0.0742,-0.0186 0.0995,-0.0129 0.0803,0.018 -0.0204,0.033 0.007,0.033 0.10141,9e-5 0.0711,-0.0248 0.13793,-0.0779 0.14843,-0.11811 0.0105,-0.0402 0.0451,-0.083 0.0768,-0.0952 0.0482,-0.0185 0.0475,-0.002 -0.004,0.0973 -0.0698,0.13499 -0.0778,0.17912 -0.0269,0.14763 0.037,-0.0229 0.12855,0.14685 0.12855,0.23838 0,0.0299 0.0274,0.0771 0.0608,0.10485 0.0335,0.0278 0.049,0.0696 0.0346,0.093 -0.0157,0.0253 -0.006,0.0302 0.0229,0.0121 0.0271,-0.0167 0.11565,10e-4 0.19684,0.0396 0.1207,0.0573 0.21021,0.065 0.49105,0.0422 0.18889,-0.0153 0.37277,-0.0391 0.40862,-0.0529 0.0433,-0.0166 0.0553,-0.009 0.0356,0.0228 -0.0178,0.0288 -0.004,0.0478 0.0354,0.0478 0.0357,0 0.0755,-0.0275 0.0884,-0.0611 0.0129,-0.0336 0.039,-0.0515 0.058,-0.0397 0.019,0.0117 0.0553,-0.0175 0.0807,-0.065 0.0254,-0.0475 0.0559,-0.0767 0.0677,-0.0649 0.0118,0.0118 0.0609,-0.0162 0.10905,-0.0622 0.0482,-0.046 0.13814,-0.10187 0.19994,-0.12411 0.0619,-0.0223 0.11236,-0.0712 0.11236,-0.10905 0,-0.0875 0.11792,-0.25794 0.16035,-0.23172 0.0177,0.0109 0.0229,0.11693 0.0115,0.23553 -0.019,0.19819 -0.0152,0.21104 0.0477,0.15883 0.0942,-0.0782 0.13616,-0.0222 0.0526,0.0702 -0.10212,0.11283 -0.0817,0.14264 0.046,0.0672 0.0626,-0.037 0.11382,-0.10102 0.11382,-0.14231 0,-0.0413 -0.0145,-0.0661 -0.0321,-0.0552 -0.0177,0.0109 -0.0324,-0.0134 -0.0327,-0.0541 -5.3e-4,-0.0627 -0.007,-0.0646 -0.0402,-0.0126 -0.0335,0.0519 -0.0397,0.0499 -0.0402,-0.0131 -3.3e-4,-0.0409 0.0269,-0.102 0.0607,-0.1357 0.0337,-0.0337 0.0613,-0.0967 0.0613,-0.14009 0,-0.0981 0.0645,-0.10233 0.11748,-0.008 0.0219,0.0391 0.053,0.058 0.0691,0.0418 0.0161,-0.0161 0.008,-0.0549 -0.0179,-0.0862 -0.0396,-0.0477 -0.0206,-0.052 0.11838,-0.0266 0.18731,0.0343 0.2617,0.0815 0.12829,0.0815 -0.13758,0 -0.10418,0.0751 0.0459,0.10324 0.12687,0.0238 0.13348,0.0335 0.11724,0.1727 -0.0152,0.12971 -0.0234,0.13905 -0.0684,0.0775 -0.0463,-0.0633 -0.0539,-0.0592 -0.0795,0.0426 -0.0172,0.0684 -0.011,0.11839 0.0157,0.12729 0.0242,0.008 0.0442,0.0545 0.0446,0.10317 6.1e-4,0.0863 0.0742,0.24143 0.0856,0.18046 0.003,-0.0169 0.009,-0.0444 0.014,-0.0613 0.005,-0.0169 0.0227,-0.0996 0.0403,-0.18386 0.0342,-0.16351 0.0871,-0.20697 0.0871,-0.0715 0,0.0449 -0.0114,0.0817 -0.0253,0.0817 -0.0139,0 -0.0254,0.0506 -0.0256,0.11236 -3.7e-4,0.15598 -0.45185,0.81255 -0.7409,1.0775 -0.46102,0.42259 -1.04657,0.73634 -1.6734,0.89666 -0.16981,0.0434 -0.32435,0.079 -0.34342,0.079 -0.0191,0 -0.0234,-0.0965 -0.01,-0.21451 z m -0.73462,-1.6956 c -0.003,-0.0843 -0.0322,-0.17746 -0.066,-0.20708 -0.0516,-0.0454 -0.0338,-0.0501 0.11236,-0.0302 0.0955,0.013 0.17365,0.009 0.17365,-0.009 0,-0.0395 -0.24076,-0.13126 -0.34436,-0.13126 -0.0506,0 -0.0652,-0.0204 -0.0475,-0.0665 0.0336,-0.0876 -0.0826,-0.17037 -0.20615,-0.14676 -0.0531,0.0102 -0.0966,0.0322 -0.0966,0.049 0,0.0168 -0.0459,0.0254 -0.10202,0.0193 -0.0698,-0.008 -0.1284,0.0223 -0.18543,0.0948 l -0.0834,0.10604 0.0822,0.0822 c 0.0893,0.0893 0.16688,0.0635 0.0895,-0.0298 -0.0387,-0.0467 -0.0267,-0.057 0.0657,-0.0564 0.0622,4.4e-4 0.0901,0.009 0.062,0.0187 -0.0281,0.01 -0.0511,0.0359 -0.0511,0.0578 0,0.0219 0.023,0.0282 0.0511,0.014 0.0281,-0.0142 0.0189,5.1e-4 -0.0204,0.0327 -0.0957,0.0784 -0.0905,0.12538 0.0109,0.0989 0.0473,-0.0124 0.11136,0.007 0.15039,0.0463 0.0634,0.0633 0.0663,0.0616 0.044,-0.0241 -0.0238,-0.0913 0.004,-0.11105 0.13179,-0.0929 0.0908,0.0129 0.099,0.0331 0.0417,0.10212 -0.0353,0.0426 -0.0372,0.0623 -0.006,0.0623 0.0252,0 0.0459,-0.0184 0.0459,-0.0409 0,-0.0225 0.0197,-0.0408 0.0439,-0.0408 0.0241,0 0.0374,0.0322 0.0295,0.0715 -0.011,0.0548 0.0338,0.15858 0.0743,0.17209 0.003,8.5e-4 0.003,-0.0674 0,-0.15166 z m -0.33397,-0.32903 c -0.0453,-0.0313 -0.0525,-0.10979 -0.0136,-0.14864 0.0137,-0.0136 0.0448,-7.8e-4 0.0692,0.0286 0.0516,0.0621 0.005,0.16216 -0.0556,0.12003 z m -3.42951,-0.0487 c -0.0293,-0.0474 0.0467,-0.16362 0.10702,-0.16362 0.0565,0 0.0419,0.1076 -0.0218,0.16041 -0.0412,0.0342 -0.0655,0.0351 -0.0852,0.003 z m -0.59256,-0.0573 c 0,-0.0139 0.0919,-0.0819 0.20429,-0.15105 0.11236,-0.0691 0.20429,-0.14728 0.20429,-0.17366 0,-0.0587 0.16148,-0.1649 0.19687,-0.12951 0.014,0.014 -0.002,0.0429 -0.0346,0.0641 -0.0528,0.0339 -0.0526,0.044 10e-4,0.0822 0.0487,0.0346 0.0429,0.0384 -0.0282,0.0185 -0.0649,-0.0182 -0.10189,-0.002 -0.13493,0.0599 -0.042,0.0785 -0.037,0.0829 0.0649,0.0573 0.0779,-0.0196 0.10187,-0.0139 0.0814,0.0191 -0.0159,0.0258 -0.0609,0.0468 -0.10007,0.0468 -0.0391,0 -0.0886,0.0169 -0.10994,0.0377 -0.0467,0.0453 -0.34525,0.10467 -0.34525,0.0686 z m 9.23793,-0.85772 c -0.11227,-0.11609 -0.1535,-0.13594 -0.2145,-0.1033 -0.0508,0.0272 -0.0755,0.0266 -0.0755,-0.002 0,-0.0233 0.0184,-0.0423 0.0409,-0.0423 0.0828,0 0.0376,-0.12579 -0.0613,-0.17087 -0.062,-0.0282 -0.1019,-0.0801 -0.10152,-0.13191 5.2e-4,-0.0716 0.008,-0.0755 0.0442,-0.0241 0.0442,0.0621 0.0336,-0.0612 -0.0289,-0.33708 -0.0199,-0.088 -0.0106,-0.11236 0.043,-0.11236 0.0376,0 0.0571,0.0184 0.0432,0.0409 -0.0139,0.0225 -0.009,0.0408 0.0116,0.0408 0.0203,0 0.0715,0.0643 0.11385,0.14301 0.0747,0.13869 0.14014,0.18614 0.14014,0.10159 0,-0.0412 -0.0233,-0.0959 -0.11902,-0.27922 -0.0583,-0.11171 -0.0412,-0.13829 0.0985,-0.1532 0.0775,-0.008 0.10221,0.008 0.10221,0.068 0,0.0517 0.0282,0.0789 0.0817,0.0789 0.0765,0 0.0814,0.0256 0.0769,0.39836 -0.003,0.2191 -0.0164,0.45009 -0.0306,0.51332 l -0.0258,0.11494 z m -8.2982,-0.47433 c 0,-0.06 0.0272,-0.0817 0.10249,-0.0817 0.0923,0 0.0974,0.008 0.0515,0.0817 -0.0281,0.0449 -0.0742,0.0817 -0.10249,0.0817 -0.0283,0 -0.0515,-0.0368 -0.0515,-0.0817 z m 6.62896,-0.068 c -0.0282,-0.0114 -0.0413,-0.037 -0.029,-0.0569 0.0123,-0.0199 -0.0244,-0.0479 -0.0815,-0.0622 -0.082,-0.0206 -0.10382,-0.0515 -0.10382,-0.14704 0,-0.10238 0.0141,-0.11883 0.0919,-0.10696 0.0506,0.008 0.0876,0.0358 0.0823,0.0624 -0.005,0.0266 0.0528,0.0601 0.12903,0.0744 0.16282,0.0305 0.22313,0.15957 0.10432,0.22315 -0.0809,0.0433 -0.11314,0.0455 -0.19333,0.0132 z m -7.71389,-0.17315 c 0.074,-0.029 0.0727,-0.0329 -0.0186,-0.0568 -0.054,-0.0141 -0.086,-0.0378 -0.0712,-0.0526 0.0148,-0.0148 0.0731,-0.0154 0.12957,-10e-4 0.12538,0.0315 0.0997,0.14893 -0.0317,0.14462 -0.0828,-0.003 -0.0833,-0.005 -0.008,-0.034 z m 1.94357,-0.40236 c -3.4e-4,-0.0281 -0.0319,-0.0511 -0.0701,-0.0511 -0.054,0 -0.0586,-0.0109 -0.0204,-0.049 0.0594,-0.0594 0.065,-0.26316 0.008,-0.29826 -0.0225,-0.0139 -0.0409,-0.0427 -0.0409,-0.064 0,-0.0218 0.0324,-0.0185 0.0739,0.007 0.0519,0.0324 0.0688,0.0813 0.0566,0.16415 -0.01,0.0649 0.002,0.14142 0.0259,0.17006 0.0274,0.033 0.0293,0.0741 0.005,0.11199 -0.0258,0.0407 -0.0381,0.0435 -0.0385,0.009 z m -0.85577,-0.10214 c 0.006,-0.11394 0.0643,-0.17447 0.17078,-0.17856 0.0618,-0.002 0.11236,0.0116 0.11236,0.0309 0,0.0632 -0.0198,0.0968 -0.0511,0.0863 -0.0168,-0.006 -0.0306,0.007 -0.0306,0.0276 0,0.0208 0.0322,0.0463 0.0715,0.0565 0.0393,0.0103 -0.007,0.0208 -0.10214,0.0234 -0.11556,0.003 -0.17269,-0.0124 -0.17078,-0.0463 z m 0.99486,-0.008 c -0.10263,-0.0751 -0.0628,-0.10995 0.0814,-0.0714 0.0961,0.0257 0.10523,0.0387 0.0559,0.0797 -0.0462,0.0384 -0.076,0.0366 -0.13729,-0.008 z m -1.38824,-0.0509 c 0.0133,-0.0265 0.005,-0.0598 -0.0174,-0.0739 -0.0228,-0.0141 -0.0418,-0.002 -0.0421,0.0278 -3.9e-4,0.0327 -0.0123,0.0376 -0.0306,0.0126 -0.0804,-0.10947 -0.35809,-0.20717 -0.39929,-0.1405 -0.0308,0.0498 -0.22317,0.05 -0.22317,2.1e-4 0,-0.021 0.0506,-0.044 0.11236,-0.0511 0.0658,-0.008 0.11313,-0.0383 0.11422,-0.0742 0.002,-0.0733 0.0933,-0.0591 0.19222,0.03 0.0512,0.0461 0.0715,0.0497 0.0715,0.0125 0,-0.0381 0.0267,-0.0344 0.10071,0.0141 0.0554,0.0363 0.12893,0.066 0.16343,0.066 0.08,0 0.0795,0.0454 -0.002,0.14541 -0.0354,0.0436 -0.0535,0.0576 -0.0402,0.0311 z m 1.35178,-2.49681 c -0.0326,-0.0849 0.009,-0.12617 0.1027,-0.10169 0.0458,0.012 0.0735,0.0315 0.0616,0.0435 -0.0119,0.0119 -0.004,0.0427 0.017,0.0684 0.0272,0.0328 0.009,0.0467 -0.0604,0.0467 -0.0545,0 -0.10893,-0.0256 -0.12092,-0.0568 z m 1.01013,-1.07415 c 0.0393,-0.0229 0.0715,-0.0786 0.0715,-0.12374 0,-0.0451 0.0159,-0.0723 0.0354,-0.0602 0.0195,0.012 0.0265,0.0683 0.0157,0.12498 -0.0138,0.0724 -0.0457,0.10275 -0.10688,0.10188 -0.0788,-0.001 -0.0803,-0.005 -0.0157,-0.0429 z"
         id="path3117"
         inkscape:connector-curvature="0" />
    </g>
  </g>
</svg>
