<?xml version="1.0" encoding="UTF-8" standalone="no"?>
<!-- Created with Inkscape (http://www.inkscape.org/) -->

<svg
   xmlns:dc="http://purl.org/dc/elements/1.1/"
   xmlns:cc="http://creativecommons.org/ns#"
   xmlns:rdf="http://www.w3.org/1999/02/22-rdf-syntax-ns#"
   xmlns:svg="http://www.w3.org/2000/svg"
   xmlns="http://www.w3.org/2000/svg"
   xmlns:sodipodi="http://sodipodi.sourceforge.net/DTD/sodipodi-0.dtd"
   xmlns:inkscape="http://www.inkscape.org/namespaces/inkscape"
   width="325"
   height="325"
   viewBox="0 0 85.989581 85.989586"
   version="1.1"
   id="svg8"
   inkscape:version="0.92.3 (2405546, 2018-03-11)"
   sodipodi:docname="Rusviet.svg">
  <defs
     id="defs2" />
  <sodipodi:namedview
     id="base"
     pagecolor="#ffffff"
     bordercolor="#666666"
     borderopacity="1.0"
     inkscape:pageopacity="0.0"
     inkscape:pageshadow="2"
     inkscape:zoom="1.4"
     inkscape:cx="308.89378"
     inkscape:cy="93.1459"
     inkscape:document-units="mm"
     inkscape:current-layer="layer1"
     showgrid="false"
     units="px"
     fit-margin-top="0"
     fit-margin-left="0"
     fit-margin-right="0"
     fit-margin-bottom="0"
     inkscape:window-width="1920"
     inkscape:window-height="1017"
     inkscape:window-x="1912"
     inkscape:window-y="-8"
     inkscape:window-maximized="1" />
  <metadata
     id="metadata5">
    <rdf:RDF>
      <cc:Work
         rdf:about="">
        <dc:format>image/svg+xml</dc:format>
        <dc:type
           rdf:resource="http://purl.org/dc/dcmitype/StillImage" />
        <dc:title></dc:title>
      </cc:Work>
    </rdf:RDF>
  </metadata>
  <g
     inkscape:label="Layer 1"
     inkscape:groupmode="layer"
     id="layer1">
    <path
       style="fill:#000000;fill-opacity:1;stroke:none;stroke-width:0.26580641"
       d="m 45.794216,0.00143917 c -0.135686,0.003582 -0.248345,0.0140714 -0.335046,0.0313657 l -1.020601,0.20310333 1.593272,0.34090515 c 0.876354,0.1873972 3.505709,0.72549845 5.842684,1.19599585 3.9083,0.7868509 5.86929,1.348247 7.966873,2.2809274 1.100023,0.4891219 1.759534,0.475647 1.103071,-0.022625 C 60.674766,3.8264009 59.48512,3.3462233 58.301217,2.9636618 57.117303,2.5810996 56.023392,2.1705266 55.870331,2.0514964 54.994019,1.3700229 47.829428,-0.05151028 45.794216,0.00143917 Z m -8.083881,0.16351109 c -1.432111,-0.0406561 -5.886494,1.10581194 -5.886494,1.62379804 0,0.3668831 0.773112,0.2808677 2.656139,-0.2951424 0.949397,-0.2904175 2.024497,-0.53036655 2.38965,-0.53372465 0.790092,-0.00726 1.526282,-0.42042078 1.2474,-0.69980665 C 38.05758,0.2005133 37.914926,0.1707615 37.710335,0.16495026 Z M 28.9342,2.6243002 c -1.252489,-0.040377 -7.971702,3.0723509 -10.321987,4.8456855 -0.912881,0.6887856 -1.659765,1.285709 -1.659765,1.3265989 0,0.040885 1.762543,-0.8195792 3.916942,-1.9122565 2.154401,-1.092678 4.813719,-2.3459025 5.909176,-2.7848295 2.061295,-0.8259149 2.599039,-1.1546248 2.330373,-1.4237799 -0.03202,-0.032049 -0.09126,-0.048722 -0.174739,-0.051419 z M 42.9721,3.9874063 C 39.932321,3.9881434 36.891249,4.1653279 35.283574,4.5180459 27.775197,6.1653962 21.129853,9.66424 15.830302,14.76011 c -3.334534,3.206374 -5.594135,6.215973 -7.6055383,10.131 -3.6449554,7.094615 -5.0236115,13.846441 -4.312812,21.119146 0.9453805,9.672895 4.9187809,18.137489 11.6389743,24.794546 2.098386,2.078669 5.943015,4.905477 8.439029,6.204678 2.696081,1.403332 7.745795,3.548412 8.859125,3.763324 0.677879,0.13086 1.713697,0.409922 2.302022,0.620109 0.588326,0.210196 1.931487,0.390102 2.985001,0.400035 1.053522,0.01006 2.126001,0.150253 2.382947,0.312112 0.872494,0.549617 7.230489,0.09789 11.018366,-0.783105 5.878997,-1.367415 11.229497,-3.834982 15.513134,-7.154379 2.675207,-2.073028 3.560397,-3.004313 5.803509,-6.105441 0.876362,-1.211587 2.041401,-2.809667 2.589129,-3.550965 0.54774,-0.7413 0.995997,-1.485404 0.996374,-1.653621 2.61e-4,-0.168215 0.393727,-0.964522 0.873697,-1.769312 1.005437,-1.685869 2.90229,-6.36131 3.475713,-8.566849 C 82.873997,44.501903 82.153277,35.357972 78.819935,27.544822 76.623543,22.396648 74.377673,19.079944 70.457194,15.195111 65.031544,9.81879 58.314062,6.1961685 50.65341,4.5144465 49.050274,4.1625125 46.011891,3.986657 42.9721,3.9874063 Z m 21.219736,1.7631426 c -0.521325,0 -0.184369,0.5444538 0.582981,0.9419882 0.449508,0.2328661 1.350738,0.8312506 2.002543,1.3296839 0.651804,0.4984335 1.602139,1.1046244 2.112333,1.347166 0.85492,0.406417 2.769025,2.33677 2.769025,2.792542 0,0.108053 0.408553,0.449366 0.907716,0.758425 0.845252,0.523344 1.599645,1.439103 5.161767,6.265866 1.337323,1.812101 4.053756,7.031351 4.91538,9.444563 0.674785,1.88991 2.020944,7.495683 2.024705,8.431101 0.0021,0.466921 0.139544,0.93342 0.306181,1.036599 0.457707,0.283389 0.04568,8.57152 -0.591228,11.892083 -0.983091,5.125269 -3.699117,12.151681 -5.637014,14.582821 -0.319438,0.400744 -0.999072,1.476668 -1.510284,2.390449 -1.055937,1.887446 -5.276914,6.446441 -8.132848,8.784348 -1.054802,0.863461 -3.092374,2.243817 -4.527757,3.067631 -1.435375,0.823812 -2.788585,1.644167 -3.007681,1.823302 -0.219082,0.179127 -1.294707,0.723762 -2.390165,1.209877 -1.095458,0.486121 -2.16701,1.042056 -2.380885,1.235589 -0.712262,0.644517 0.355387,0.411967 2.699953,-0.588227 6.152102,-2.624514 9.251288,-4.666508 13.514199,-8.903638 3.581272,-3.559624 5.713199,-6.301649 7.768938,-9.992171 2.523161,-4.529658 3.983426,-8.865775 4.832388,-14.349892 C 86.853082,41.234025 84.953291,30.080417 81.1034,22.777806 80.756262,22.119333 80.17478,21.017352 79.811155,20.329255 78.695487,18.218017 74.056295,13.146454 70.376782,10.015204 68.820165,8.6905415 64.556551,5.7505489 64.191836,5.7505489 Z M 39.374739,7.4545601 c 0.290315,-3.39e-5 0.720701,0.1048379 1.513377,0.3146814 0.930238,0.246261 2.260129,0.432562 2.955105,0.4139195 1.139904,-0.030577 1.36732,0.070287 2.323669,1.0283717 0.583061,0.5841193 1.059777,1.2924043 1.059777,1.5744363 0,0.604366 1.186011,1.61557 1.894813,1.61557 0.564605,0 0.67269,-0.779924 0.176801,-1.276722 -0.247862,-0.248312 -0.205836,-0.319308 0.18917,-0.319309 0.279342,0 0.75791,-0.313961 1.063384,-0.69775 0.536089,-0.6735461 0.601141,-0.6869111 1.869039,-0.389239 0.722436,0.169614 1.854845,0.349131 2.516453,0.399522 0.661609,0.0504 1.617298,0.344998 2.124191,0.654559 0.506871,0.309561 1.280349,0.563994 1.718527,0.56509 0.941348,0.0023 1.971135,0.603257 3.518495,2.053143 0.957397,0.897087 1.128846,1.216365 1.128846,2.103534 0,1.095403 0.652913,2.348651 1.084519,2.081423 0.138446,-0.08572 0.191122,-0.254898 0.116491,-0.37587 -0.07471,-0.120974 0.102478,-0.501874 0.393808,-0.846349 l 0.529887,-0.626278 0.479374,0.564575 c 0.26376,0.310355 0.731214,0.644223 1.038641,0.74197 0.307421,0.09774 0.750808,0.470973 0.98555,0.829896 0.234754,0.358924 0.842896,1.032092 1.351522,1.495766 0.508629,0.463682 0.924727,1.064732 0.924727,1.335854 0,0.489686 0.385203,1.318035 0.96854,2.082452 0.167506,0.219488 0.347637,0.63313 0.399995,0.919364 0.05356,0.293185 0.384487,0.588501 0.757717,0.676154 0.418099,0.09824 0.693857,0.372106 0.74741,0.742999 0.04668,0.323237 0.192387,0.587714 0.324222,0.587714 0.131836,0 0.612902,0.748344 1.069054,1.662877 0.656761,1.316756 0.848818,2.077951 0.923181,3.657917 0.0804,1.708572 0.181801,2.062116 0.705141,2.460891 0.336116,0.256121 0.748726,0.579007 0.91648,0.717289 0.167764,0.13827 0.385392,0.886565 0.48401,1.662877 0.09865,0.776302 0.351144,2.615774 0.56133,4.087775 0.210189,1.472004 0.391127,3.686762 0.401542,4.921784 0.01605,1.900996 -0.08648,2.459599 -0.667516,3.640949 -0.37744,0.767496 -0.68607,1.666914 -0.68607,1.998641 0,0.814752 -1.184236,4.525826 -1.996872,6.257639 -0.36236,0.772208 -0.658753,1.616556 -0.658753,1.876778 0,0.260222 -0.298763,0.879094 -0.663904,1.374931 -0.461309,0.62639 -0.663908,0.760312 -0.663908,0.439631 0,-0.694019 -1.07232,-2.015556 -1.50152,-1.850555 -0.292687,0.112519 -0.303962,0.224015 -0.05206,0.528069 0.2527,0.305038 0.221753,0.551334 -0.148965,1.180056 -0.257646,0.436953 -0.40665,0.956136 -0.330924,1.153831 0.353325,0.922427 -0.855062,3.400619 -2.665932,5.466307 -0.320686,0.365815 -0.858754,1.074075 -1.195338,1.574437 -0.336587,0.500366 -1.36542,1.488232 -2.28656,2.195059 -1.274143,0.977693 -1.899773,1.285465 -2.614389,1.285465 -0.715063,0 -0.972392,0.126262 -1.077815,0.530126 -0.127977,0.490266 -3.029567,2.661939 -3.556638,2.661939 -0.127708,0 -1.279495,0.436872 -2.559236,0.970267 -2.667983,1.112009 -3.380084,1.318384 -6.310201,1.831529 -1.894087,0.331708 -5.492232,0.415028 -8.099859,0.187164 -0.511212,-0.04465 -1.315508,-0.2825 -1.787598,-0.528582 -0.674585,-0.351625 -0.927772,-0.378035 -1.18194,-0.123405 -0.544835,0.545823 -1.481926,0.362832 -2.433976,-0.474592 -0.920861,-0.81 -1.856981,-1.030688 -2.176253,-0.513158 -0.248806,0.403309 -2.029773,0.05546 -3.6721,-0.717289 -1.514742,-0.712735 -5.630494,-3.118451 -6.265356,-3.662031 -0.22443,-0.192166 -0.916327,-0.628417 -1.537086,-0.969754 -0.620761,-0.34133 -1.128331,-0.705715 -1.128331,-0.809843 0,-0.104132 -0.583329,-0.564321 -1.296369,-1.022714 C 14.998136,66.543231 9.5256379,57.320136 7.9175524,50.047642 6.8290146,45.124778 7.178652,37.816783 8.7536205,32.574586 10.225993,27.673874 13.796857,21.561657 17.274608,17.988682 c 1.51601,-1.55752 4.688693,-4.256429 5.003521,-4.256429 0.135059,0 1.113238,-0.557742 2.173674,-1.239188 2.180817,-1.401412 5.243836,-2.747508 6.280304,-2.760148 0.381581,-0.0047 0.922294,-0.181668 1.201524,-0.3933524 0.292986,-0.2221231 0.769961,-0.3189216 1.128331,-0.2288125 0.341532,0.085869 0.621124,0.036895 0.621124,-0.1090073 0,-0.3031258 1.405625,-0.6109382 3.258708,-0.7136898 0.728407,-0.040387 1.476686,-0.260712 1.760793,-0.5182992 0.231592,-0.209965 0.381861,-0.315161 0.672152,-0.3151957 z m -23.076404,1.864951 c -0.512619,0.041681 -2.919866,2.2054859 -4.939604,4.4677589 -3.8335483,4.293892 -6.7337871,9.113759 -9.0941734,15.11346 -2.60433175,6.619763 -3.01395122,17.287091 -0.9602927,25.004332 1.6269363,6.11371 5.3262019,12.793318 9.9833321,18.025292 4.77171,5.360694 13.825072,10.850105 20.934689,12.693701 4.339986,1.125405 8.861427,1.643326 10.623014,1.217078 1.114259,-0.269614 0.5784,-0.419603 -3.320046,-0.929646 -5.12187,-0.670121 -10.353292,-2.065431 -14.052336,-3.7479 -1.755685,-0.798546 -3.329928,-1.451546 -3.497876,-1.451546 -0.167949,0 -0.690271,-0.329292 -1.161321,-0.731687 C 20.342668,78.577959 18.958179,77.531155 17.737486,76.654178 15.164361,74.805583 11.972504,71.68683 9.4000011,68.507935 6.2656737,64.634801 2.6514202,56.206969 1.3125122,49.648633 0.99001635,48.068949 0.86357723,41.979972 1.085712,38.727331 1.2960079,35.648064 2.9807778,28.926363 4.0939072,26.725724 c 0.3532589,-0.698384 0.642257,-1.402231 0.642257,-1.563637 0,-0.161413 0.3370902,-0.793604 0.7489563,-1.405271 0.4118657,-0.611667 0.9089478,-1.531226 1.1046198,-2.043374 0.1956722,-0.512139 0.6186909,-1.230722 0.9396745,-1.596546 0.3209847,-0.365814 1.3858718,-1.801967 2.366454,-3.192065 0.9805812,-1.390099 2.8601562,-3.644684 4.1772472,-5.009711 1.317091,-1.365029 2.35314,-2.5238288 2.302022,-2.575041 -0.01666,-0.016686 -0.04263,-0.023343 -0.07681,-0.020567 z m 26.403668,4.1463939 c -0.116066,0 -0.775415,1.69582 -1.464923,3.768466 -1.009826,3.035475 -1.194913,3.862926 -0.95153,4.253344 0.404431,0.64878 0.381378,1.023743 -0.0634,1.023743 -0.504557,0 -0.971408,0.619725 -1.246369,1.655164 -0.127388,0.479708 -0.781108,2.428745 -1.452553,4.330986 -0.671445,1.902239 -1.344555,3.877451 -1.495851,4.389604 -0.510133,1.726752 0.15436,1.636814 -11.419904,1.546154 -11.072546,-0.08678 -11.455726,-0.04689 -9.826635,1.021687 2.52903,1.65892 15.981167,12.20661 15.981167,12.530705 0,0.604126 -2.777375,9.916659 -5.609182,18.807367 -0.276909,0.869387 -0.404859,1.679095 -0.28453,1.799651 0.211571,0.211945 4.203801,-2.428593 9.792614,-6.476682 2.257446,-1.635119 2.795284,-2.164833 3.253551,-3.205436 0.301932,-0.685589 0.548959,-1.410994 0.548959,-1.611969 0,-0.200979 0.16913,-0.597502 0.376283,-0.881316 0.369721,-0.506536 0.392744,-0.504356 1.227813,0.114151 0.776648,0.575243 0.93675,0.601546 1.843268,0.301826 l 0.993281,-0.328566 3.263347,2.291727 c 1.79497,1.260466 3.470725,2.291726 3.724161,2.291726 0.253438,0 0.638952,0.269792 0.856688,0.599026 0.217725,0.32923 1.490066,1.376594 2.82727,2.327719 1.337202,0.951114 3.46239,2.482315 4.722598,3.40288 1.540268,1.125152 2.379213,1.586136 2.559235,1.405782 0.180021,-0.18035 -0.308316,-2.037298 -1.489667,-5.664784 C 57.535619,57.533295 55.20647,49.748033 55.000246,48.560617 54.890155,47.92679 55.560148,47.363128 63.383605,41.510103 68.060245,38.011351 71.89516,35.01604 71.905623,34.853971 71.919193,34.643332 68.883741,34.553282 61.261992,34.53826 52.817134,34.52156 50.532688,34.44478 50.280738,34.168047 49.959033,33.814692 48.854194,30.623923 45.368967,19.984236 43.52368,14.350959 43.161852,13.465905 42.702003,13.465905 Z m 23.030529,3.513944 c -0.122021,-0.0029 -0.25488,0.01795 -0.386077,0.06839 -0.382618,0.147094 -0.390052,0.205398 -0.0536,0.418547 0.498254,0.315676 0.719872,0.317694 0.910808,0.0083 0.163893,-0.265674 -0.105077,-0.48654 -0.471126,-0.495161 z m 3.487052,35.12248 c -0.122086,0.01519 -0.21649,0.142069 -0.21649,0.406206 0,0.552168 0.214558,0.864346 0.593804,0.864346 0.131875,0 0.201822,-0.259651 0.155152,-0.57743 -0.06045,-0.411257 -0.289729,-0.669173 -0.478857,-0.693122 -0.01839,-0.0024 -0.03617,-0.0021 -0.05361,0 z m 0.580403,3.132933 c -0.264908,0 -0.548105,1.087415 -0.361849,1.389328 0.25162,0.407877 0.843395,-0.323445 0.701534,-0.866917 -0.07501,-0.28727 -0.227709,-0.522411 -0.339685,-0.522411 z m 1.830382,0.532181 c -0.130439,0 -0.23711,0.35904 -0.23711,0.798016 0,0.532099 0.13289,0.798534 0.398448,0.798529 0.219092,0 0.398445,-0.169889 0.398445,-0.377411 0,-0.576915 -0.294968,-1.219134 -0.559783,-1.219134 z m 0.446382,4.636412 c 0.03481,-0.0103 0.0759,0.0087 0.12371,0.05656 0.403287,0.404038 0.443492,1.747651 0.05619,1.885006 -0.23219,0.08235 -0.331955,-0.2246 -0.331955,-1.021687 0,-0.591591 0.04749,-0.888979 0.152059,-0.919878 z m -20.518715,24.10091 c -0.612146,-0.0021 -1.187018,0.115395 -1.2773,0.261721 -0.212619,0.344656 1.459362,0.344656 1.99172,0 0.292218,-0.189191 0.102005,-0.258727 -0.71442,-0.261721 z m -6.174637,0.793902 c -0.446818,0 -0.812357,0.120024 -0.812357,0.266348 0,0.146325 0.291904,0.265833 0.648442,0.265833 0.356534,0 0.722077,-0.119508 0.812357,-0.265833 0.09576,-0.155224 -0.174495,-0.266348 -0.648442,-0.266348 z"
       id="path3724"
       inkscape:connector-curvature="0" />
  </g>
</svg>
