<?xml version="1.0" encoding="UTF-8" standalone="no"?>
<!-- Created with Inkscape (http://www.inkscape.org/) -->

<svg
   xmlns:dc="http://purl.org/dc/elements/1.1/"
   xmlns:cc="http://creativecommons.org/ns#"
   xmlns:rdf="http://www.w3.org/1999/02/22-rdf-syntax-ns#"
   xmlns:svg="http://www.w3.org/2000/svg"
   xmlns="http://www.w3.org/2000/svg"
   xmlns:sodipodi="http://sodipodi.sourceforge.net/DTD/sodipodi-0.dtd"
   xmlns:inkscape="http://www.inkscape.org/namespaces/inkscape"
   width="325"
   height="325"
   viewBox="0 0 85.989586 85.989586"
   version="1.1"
   id="svg1409"
   inkscape:version="0.92.3 (2405546, 2018-03-11)"
   sodipodi:docname="nordic.svg">
  <defs
     id="defs1403" />
  <sodipodi:namedview
     id="base"
     pagecolor="#ffffff"
     bordercolor="#666666"
     borderopacity="1.0"
     inkscape:pageopacity="0.0"
     inkscape:pageshadow="2"
     inkscape:zoom="2.6146306"
     inkscape:cx="162.33692"
     inkscape:cy="162.56493"
     inkscape:document-units="mm"
     inkscape:current-layer="layer1"
     showgrid="false"
     fit-margin-top="0"
     fit-margin-left="0"
     fit-margin-right="0"
     fit-margin-bottom="0"
     units="px"
     inkscape:window-width="1920"
     inkscape:window-height="1017"
     inkscape:window-x="1912"
     inkscape:window-y="-8"
     inkscape:window-maximized="1" />
  <metadata
     id="metadata1406">
    <rdf:RDF>
      <cc:Work
         rdf:about="">
        <dc:format>image/svg+xml</dc:format>
        <dc:type
           rdf:resource="http://purl.org/dc/dcmitype/StillImage" />
        <dc:title></dc:title>
      </cc:Work>
    </rdf:RDF>
  </metadata>
  <g
     inkscape:label="Layer 1"
     inkscape:groupmode="layer"
     id="layer1"
     transform="translate(0,-5.5562437)">
    <path
       style="fill:#000000;fill-opacity:1;stroke-width:0.24852481"
       d="m 41.835689,5.6280739 c -0.01286,0.0028 -0.0064,0.03297 0.02326,0.092501 0.15438,0.3099814 0.157695,0.3095903 -4.704625,0.9477457 -3.698385,0.4853946 -4.819261,0.7332822 -7.952485,1.7606161 -4.101895,1.3449448 -6.816488,2.7573473 -11.193632,5.8244503 -3.800031,2.662715 -8.6574114,7.739407 -11.1750284,11.678874 -1.4808721,2.31721 -3.9005729,7.380108 -4.5981689,9.622152 -0.8423317,2.707214 -1.7810368,7.214076 -2.03450115,9.765811 -0.26836108,2.701705 -0.1300308,6.864291 0.30644124,9.20874 1.84722961,9.922148 5.27403461,16.904097 11.55019921,23.533447 7.109565,7.509653 15.554128,11.676557 26.83712,13.242602 0.820132,0.113831 3.112797,0.165875 5.09478,0.115755 4.17843,-0.105677 8.068037,-0.829392 12.720672,-2.36678 13.186619,-4.357304 23.796799,-15.474963 27.507363,-28.82253 1.326158,-4.77043 1.61974,-6.8828 1.62264,-11.680423 0.0024,-4.090133 -0.07314,-4.952175 -0.685229,-7.810376 C 83.400227,32.548903 80.094766,25.941862 74.688464,19.822039 72.931784,17.833515 67.526913,13.482728 65.068896,12.078326 62.715213,10.733536 58.213759,8.7560166 55.922169,8.0599668 51.487363,6.7129365 50.357452,6.5136289 46.352208,6.3727313 43.11837,6.2589703 42.316077,6.158019 42.04653,5.8321959 41.932648,5.6945514 41.857117,5.6234109 41.835689,5.6280739 Z m -0.53485,10.2433021 c 0.109442,-0.0085 0.253134,0.06736 0.429948,0.227376 0.319701,0.289322 0.763452,0.353159 1.77715,0.254249 2.096035,-0.204521 2.762761,-0.13289 3.657142,0.394807 1.018607,0.600989 1.492237,0.614808 2.104782,0.06046 0.449871,-0.407128 0.550725,-0.399376 2.007629,0.152962 2.006119,0.76056 2.471291,0.775557 2.772958,0.0894 0.250547,-0.569881 0.624766,-0.757777 0.624766,-0.313676 0,0.4488 1.985161,1.506422 3.292824,1.754415 1.225103,0.232336 3.169314,1.309171 3.169314,1.755449 0,0.114588 0.323056,0.375419 0.718304,0.579809 0.395245,0.20439 0.831199,0.694752 0.968933,1.089856 0.307674,0.882592 1.600732,1.873989 1.966804,1.507918 0.317365,-0.317368 2.355742,1.013857 3.105754,2.0283 0.288567,0.390307 0.855837,0.825143 1.260906,0.96635 0.597627,0.208323 0.709237,0.36133 0.591693,0.810803 -0.07967,0.304667 0.01728,1.060597 0.214974,1.680001 0.197699,0.619405 0.418774,1.43167 0.491445,1.805058 0.07267,0.373385 0.452821,1.044118 0.84491,1.490865 0.392083,0.446744 0.89898,1.258102 1.126545,1.80299 0.22756,0.544891 0.653926,1.246355 0.94723,1.55856 0.474093,0.504653 0.500374,0.658789 0.236677,1.388031 -0.446153,1.23381 -0.38753,1.632045 0.217557,1.473811 0.500171,-0.130797 0.50374,-0.109514 0.13281,0.778248 l -0.381373,0.913122 0.861446,-0.161748 c 0.807773,-0.151537 0.860931,-0.120271 0.860931,0.50178 -3e-6,0.82206 0.450558,2.847536 0.762224,3.42718 0.127625,0.237349 0.232029,0.690419 0.232029,1.006657 0,0.316238 0.139714,0.714907 0.310576,0.885733 0.350496,0.35043 0.396238,2.582415 0.156578,7.617108 -0.15448,3.24532 -0.518171,5.131048 -1.131197,5.860105 -0.181451,0.215797 -0.33021,0.523065 -0.33021,0.683165 -3e-6,0.160096 -0.223751,0.290936 -0.497129,0.290936 -0.504407,0 -0.509164,0.01688 -0.590145,2.006081 -0.01805,0.443402 -0.213394,0.864706 -0.466122,1.006139 -0.239204,0.133866 -0.434599,0.406582 -0.434599,0.606166 0,0.199577 -0.22375,0.554508 -0.497126,0.78858 -0.273378,0.234074 -0.497128,0.711647 -0.497128,1.060918 0,0.837374 -0.651888,1.739429 -1.256771,1.739429 -0.265628,0 -0.482658,0.149471 -0.482658,0.331761 0,0.182293 -0.4475,0.815943 -0.994254,1.408184 -0.546753,0.592243 -0.994254,1.28157 -0.994254,1.532207 0,0.250635 -0.114112,0.455785 -0.253732,0.455785 -0.139618,0 -0.3897,0.307787 -0.556038,0.68368 -0.166336,0.375891 -0.451684,0.838838 -0.633553,1.028878 -0.181872,0.190039 -0.507738,0.616402 -0.724503,0.947229 -0.497131,0.758711 -2.922252,2.613565 -3.965133,3.03289 -0.434356,0.174646 -0.982409,0.530309 -1.218015,0.790649 -0.532207,0.588084 -2.676575,1.585806 -3.90312,1.815909 -0.50555,0.09484 -1.78303,0.622099 -2.838585,1.171504 -1.568003,0.816128 -2.01976,0.952963 -2.470134,0.74776 -0.435099,-0.198244 -0.688202,-0.143404 -1.20096,0.259932 -0.588068,0.462566 -0.967401,0.542163 -2.118217,0.444934 -0.205033,-0.01733 -0.736311,0.08199 -1.180809,0.221176 -0.702317,0.219919 -0.843147,0.187888 -1.075901,-0.247015 -0.245965,-0.459587 -0.303707,-0.468609 -0.703316,-0.106969 -0.349787,0.316558 -0.82083,0.367588 -2.402956,0.259932 -1.082508,-0.07366 -2.559492,-0.260376 -3.281968,-0.414962 -1.124577,-0.240617 -1.444112,-0.218815 -2.221572,0.151929 -0.896686,0.427601 -0.914106,0.425665 -1.352888,-0.144695 -0.244412,-0.317701 -0.446585,-0.730459 -0.449586,-0.917255 -0.0061,-0.375555 -0.5887,-0.300728 -1.944584,0.249595 -0.718386,0.291576 -0.914358,0.279622 -1.573546,-0.0987 -0.414099,-0.23766 -0.99477,-0.432533 -1.290878,-0.432533 -0.314597,0 -1.018471,-0.490474 -1.692921,-1.180291 -1.908913,-1.952402 -2.325031,-2.299083 -2.760554,-2.299083 -0.229076,0 -0.6164,-0.199517 -0.860929,-0.4439 -0.244531,-0.244382 -0.891917,-0.769712 -1.438672,-1.16737 -0.546753,-0.397664 -1.074051,-0.841037 -1.172021,-0.984954 -0.09797,-0.143912 -0.321717,-0.267719 -0.497127,-0.274918 -0.514348,-0.02111 -1.770946,-0.760749 -2.30787,-1.358575 -0.273054,-0.304024 -1.130005,-1.04122 -1.904276,-1.638659 -1.034818,-0.798481 -1.521921,-1.386422 -1.839681,-2.218468 -0.237755,-0.622552 -0.64864,-1.247275 -0.912606,-1.388547 -0.700393,-0.374838 -1.41997,-2.149694 -1.42627,-3.517614 -0.0038,-0.82323 -0.12001,-1.232085 -0.378271,-1.331185 -0.240534,-0.0923 -0.372587,-0.477059 -0.372587,-1.084172 0,-0.562687 -0.135405,-0.992889 -0.33693,-1.070219 -0.185343,-0.07112 -0.490572,-0.820708 -0.677995,-1.665531 L 12.31346,57.451264 11.500073,57.58304 c -0.895569,0.145333 -1.156377,-0.365403 -0.402043,-0.787548 0.370909,-0.207574 0.358398,-0.275344 -0.12454,-0.688848 -0.67173,-0.575157 -0.689663,-1.093989 -0.03824,-1.093989 0.350903,-2e-6 0.495693,-0.164375 0.492993,-0.559141 -0.006,-0.876684 -0.359394,-1.232768 -1.131714,-1.140497 -0.6302337,0.0753 -0.7253355,-0.0089 -0.8878011,-0.785482 -0.1030136,-0.492419 -0.060694,-1.301208 0.097152,-1.863968 0.2624579,-0.935734 0.2859646,-2.296756 0.1415936,-8.141108 -0.055718,-2.255528 -0.021709,-2.452187 0.4893755,-2.810163 0.438828,-0.307369 0.549837,-0.628065 0.549837,-1.592667 0,-1.0893 0.17278,-1.460122 1.759583,-3.775999 0.967762,-1.412406 2.19076,-3.11957 2.717663,-3.793565 0.526903,-0.673997 1.165901,-1.772796 1.420069,-2.441712 0.560008,-1.473825 3.246651,-4.868127 3.871081,-4.890657 0.285655,-0.01031 0.628804,-0.422624 0.943612,-1.134298 0.448564,-1.014051 0.574727,-1.118795 1.352888,-1.118795 0.472014,0 0.858346,0.103232 0.858346,0.229444 0,0.397449 1.402198,-0.449821 2.487704,-1.503268 1.103503,-1.070914 2.209874,-1.537823 3.10937,-1.312064 0.307472,0.07717 0.697584,-0.01649 0.89607,-0.214974 0.643112,-0.643114 1.372274,-0.904295 2.976562,-1.066085 1.493427,-0.15061 1.626256,-0.120757 2.194698,0.489376 0.381262,0.40923 0.666527,0.549718 0.77153,0.379822 0.116382,-0.188311 0.429382,-0.16002 1.038696,0.09457 0.47979,0.200466 1.012068,0.27836 1.182357,0.173117 0.170285,-0.105251 0.520517,-0.135743 0.778764,-0.06821 0.317373,0.083 0.469738,-0.0075 0.469738,-0.279052 0,-0.220975 -0.111228,-0.402043 -0.247012,-0.402043 -0.135784,0 -0.0036,-0.279429 0.293521,-0.621151 0.297124,-0.341721 0.737055,-0.62115 0.977717,-0.62115 0.24066,0 0.511019,-0.118991 0.600998,-0.264584 0.04073,-0.06591 0.09453,-0.101867 0.160198,-0.10697 z"
       id="path2061"
       inkscape:connector-curvature="0" />
    <path
       id="path2033"
       style="fill:#000003;fill-opacity:1;stroke-width:0.24852481"
       d="m 43.669685,18.98023 c -3.638796,0.0053 -4.079846,0.322036 -3.524332,2.529562 0.158734,0.630787 0.07359,0.711782 -1.480529,1.416451 -2.07523,0.940954 -3.833151,1.052874 -5.23844,0.333313 -1.456394,-0.745725 -1.961536,-0.843997 -2.46135,-0.478524 -0.406167,0.296996 -0.422839,0.497715 -0.17725,2.175578 0.148815,1.016701 0.314809,3.610427 0.36897,5.763989 0.06588,2.619487 0.200953,4.038553 0.407212,4.287077 0.449527,0.541649 1.493631,0.454414 2.170409,-0.181385 0.546539,-0.513446 0.636129,-0.526389 1.252638,-0.180351 0.36517,0.204965 0.83444,0.705369 1.042828,1.112078 0.208391,0.406707 0.490665,0.821484 0.627354,0.921906 0.370488,0.272193 0.492707,0.238914 1.222147,-0.334862 0.749845,-0.589827 2.614229,-1.214397 3.625101,-1.214397 0.367157,0 0.870358,-0.223748 1.117762,-0.497126 0.247404,-0.273378 0.655762,-0.497128 0.907955,-0.497128 0.25219,0 0.682635,0.22375 0.956013,0.497128 0.314304,0.314304 0.839534,0.501078 1.428853,0.507979 1.101601,0.01289 2.651903,0.527013 3.266985,1.083654 0.621364,0.562327 1.235898,0.49132 1.540989,-0.178284 0.144069,-0.316191 0.64003,-0.778399 1.10226,-1.027327 0.800065,-0.430848 0.883721,-0.432091 1.742011,-0.02479 1.773013,0.841349 2.513851,0.103841 2.291334,-2.281515 -0.150762,-1.616181 0.262536,-7.75749 0.571024,-8.484235 0.315973,-0.744375 0.09711,-1.447366 -0.559655,-1.798857 -0.417787,-0.223593 -0.784725,-0.132257 -2.006079,0.497644 -1.975148,1.018663 -2.965082,0.999078 -5.124235,-0.101285 -2.030357,-1.034726 -2.375281,-1.391451 -2.163175,-2.236557 0.08692,-0.346301 0.0399,-0.850805 -0.104905,-1.121378 -0.236212,-0.441366 -0.524296,-0.491642 -2.801895,-0.488342 z m 1.175123,3.712952 c 0.07706,0.01557 0.165357,0.103001 0.264583,0.26355 0.08569,0.138642 0.582533,0.46942 1.103808,0.735355 0.963543,0.491562 2.027155,1.985251 2.338877,3.284038 0.212714,0.88627 -0.01908,0.967476 -1.208196,0.422196 -0.546754,-0.250717 -1.237523,-0.458904 -1.535306,-0.462504 -0.989629,-0.01191 -1.322401,-0.643454 -1.322401,-2.509408 0,-1.183381 0.127461,-1.779949 0.358635,-1.733227 z m -3.354835,0.795817 c 0.370597,-0.01319 0.502825,0.311653 0.619083,1.017509 0.329047,1.997794 0.32657,2.008197 -0.562755,2.194698 -0.454988,0.09542 -0.983856,0.396659 -1.175123,0.669727 -0.191265,0.273068 -0.800974,0.732892 -1.354956,1.021643 -1.139012,0.593687 -1.099761,0.582824 -1.323432,0.359151 -0.309565,-0.309563 -0.166399,-0.949385 0.550354,-2.464449 0.5681,-1.200845 0.948032,-1.64837 1.845882,-2.174544 0.680471,-0.398783 1.112705,-0.613479 1.400947,-0.623735 z m -5.384683,2.163692 -0.165883,0.824756 c -0.09105,0.45362 -0.278564,1.607365 -0.41651,2.564185 -0.137948,0.956821 -0.304572,1.991534 -0.37052,2.299084 -0.180512,0.841813 -0.810919,0.682301 -0.982371,-0.248564 -0.08179,-0.444238 -0.11484,-1.81406 -0.07338,-3.044258 l 0.07545,-2.237073 0.966348,-0.07906 z m 15.286921,0.03411 c 0.405344,0 0.858142,0.145682 1.006142,0.324011 0.334171,0.402652 0.66254,4.113619 0.441833,4.992977 -0.222176,0.885211 -0.450835,0.81719 -1.224733,-0.364836 -0.444452,-0.678845 -0.651954,-1.314066 -0.629936,-1.926497 0.01807,-0.502426 -0.04902,-1.388462 -0.148828,-1.969389 -0.179708,-1.045971 -0.174305,-1.056266 0.555522,-1.056266 z m -7.205244,2.825667 c 0.347564,-0.01456 0.594709,0.08048 1.018542,0.273885 1.215491,0.554651 2.337165,1.566114 2.182813,1.968355 -0.06959,0.181347 -0.610976,0.447119 -1.203545,0.590662 -1.816608,0.440048 -3.008156,0.516612 -4.387845,0.281636 -1.420778,-0.241972 -2.281515,-0.604515 -2.281515,-0.960664 0,-0.470937 1.381771,-1.272286 3.050977,-1.769401 0.825137,-0.245737 1.273008,-0.36991 1.620573,-0.384473 z m -8.374796,11.613326 c -0.666398,-0.666395 -0.657897,-1.052671 0.03753,-1.705522 0.613865,-0.576284 2.578708,-1.534906 3.168692,-1.545969 0.205031,-0.0039 0.673566,-0.163909 1.041186,-0.3557 0.436128,-0.227539 1.645211,-0.367258 3.479347,-0.402069 2.416453,-0.04586 3.020219,0.02685 4.302096,0.518152 2.243839,0.859991 3.46433,1.736831 3.559437,2.557211 0.17694,1.526247 -0.498597,1.620115 -3.435173,0.477322 -1.492284,-0.580734 -1.83325,-0.618562 -4.473448,-0.496306 -2.047594,0.09481 -3.280875,0.285758 -4.349183,0.67337 -2.307567,0.837243 -2.736742,0.87326 -3.330488,0.279511 z m 7.630139,0.574043 c -0.26656,-0.01127 -0.538522,0.03986 -0.827857,0.149863 -1.314228,0.499657 -2.069659,2.169877 -1.320332,2.919201 0.21767,0.21767 0.464002,0.138771 1.013373,-0.323496 1.116197,-0.939215 1.749258,-0.764286 2.005562,0.553974 0.11189,0.575477 0.02609,0.948843 -0.314192,1.36684 l -0.468188,0.575159 -0.766361,-0.731221 c -1.00489,-0.958895 -1.45782,-0.619331 -1.004591,0.75396 0.291354,0.882806 0.272669,0.969063 -0.315743,1.452107 -0.432501,0.355055 -0.676399,0.867042 -0.790133,1.659329 -0.09046,0.630187 -0.439452,1.518854 -0.775663,1.974556 -0.653262,0.88545 -0.804969,2.178315 -0.313158,2.670122 0.361606,0.361612 0.712361,0.374198 1.549775,0.05581 0.757365,-0.287949 0.84413,-0.751377 0.14056,-0.751377 -0.59677,0 -0.636542,-0.501687 -0.118337,-1.503783 0.501015,-0.96886 0.755626,-0.925061 1.345136,0.230475 0.491,0.962441 1.184127,1.462376 1.518253,1.095026 0.09732,-0.106997 0.311105,-0.613965 0.474906,-1.126548 0.36322,-1.136618 0.732301,-1.174112 1.4888,-0.150895 l 0.577741,0.781349 -0.566891,0.427363 c -0.719833,0.54297 -0.453022,0.992188 0.588595,0.992188 1.640245,0 1.787046,-0.87267 0.531752,-3.156397 -0.478412,-0.870358 -0.869715,-1.823887 -0.869715,-2.119249 0,-0.295368 -0.288856,-0.838748 -0.641821,-1.207162 -0.611412,-0.638177 -0.623572,-0.704334 -0.262001,-1.403532 0.208735,-0.403646 0.45678,-1.317713 0.551389,-2.030884 0.163209,-1.230331 0.130416,-1.339172 -0.637688,-2.131652 C 44.58703,41.051928 44.02874,40.724636 43.44231,40.699834 Z m 0.01241,7.10551 c 0.777341,0 1.56251,0.747829 1.480529,1.41025 -0.0702,0.567246 -0.190905,0.622258 -1.505334,0.682128 -1.20642,0.05495 -1.429369,-7.94e-4 -1.429369,-0.358632 0,-0.600896 0.950188,-1.733746 1.454174,-1.733746 z m 15.123618,10.943002 c -1.581743,-0.01326 -2.609361,1.428218 -1.927016,2.703193 0.130011,0.242924 0.863803,0.915185 1.630391,1.493967 1.449713,1.094541 1.700652,1.793152 0.838711,2.333191 -0.680046,0.426069 -1.214398,0.02461 -1.214398,-0.91209 0,-0.576297 -0.137811,-0.904129 -0.427882,-1.015442 -1.015462,-0.389668 -1.47752,1.933641 -0.565856,2.845305 0.976508,0.976508 3.735115,0.435033 4.065386,-0.797885 0.299935,-1.119677 0.158483,-1.884969 -0.457337,-2.4691 -0.757971,-0.718968 -0.768975,-0.887153 -0.09043,-1.436605 0.477388,-0.386562 0.505032,-0.522939 0.250116,-1.254186 -0.374687,-1.074825 -0.947245,-1.480648 -2.10168,-1.490348 z m 0.03824,1.483112 c 0.559326,0 1.029393,0.476564 1.029393,1.043865 0,0.598655 -0.798483,0.578504 -1.352889,-0.03411 -0.486182,-0.537226 -0.334843,-1.009758 0.323496,-1.009758 z m -30.15785,-1.473815 c -0.49553,-0.0084 -1.005832,0.140671 -1.441256,0.483174 -0.737745,0.580311 -1.069392,1.743142 -0.696082,2.440679 0.189807,0.35465 0.165322,0.675081 -0.09095,1.19476 -0.63927,1.296344 -0.669799,1.909739 -0.13901,2.769341 0.277227,0.448961 0.75475,0.917461 1.061434,1.040762 1.675022,0.673426 3.415813,-0.140256 3.415813,-1.596284 0,-0.827675 -0.530262,-1.541833 -0.951365,-1.281576 -0.12502,0.07726 -0.296423,0.486331 -0.380854,0.908471 -0.132538,0.662686 -0.247192,0.75647 -0.839743,0.68833 -0.520938,-0.0599 -0.703593,-0.228606 -0.758092,-0.700215 -0.05671,-0.490725 0.243473,-0.898356 1.428854,-1.940451 1.205862,-1.060104 1.5012,-1.465543 1.5012,-2.06189 0,-1.147951 -1.019783,-1.926694 -2.109949,-1.945101 z m 5.3e-4,1.473812 c 0.679428,0 0.690956,0.584324 0.02273,1.159102 -0.675851,0.581343 -1.392679,0.769813 -1.392679,0.365871 0,-0.387289 1.021876,-1.524973 1.369941,-1.524973 z m 21.952651,-1.116211 c -0.3701,0.0131 -0.733576,0.06133 -1.081069,0.148828 -1.288881,0.324543 -1.445819,0.820827 -0.530718,1.680519 0.526688,0.494798 0.75029,0.534059 2.195214,0.386022 1.547722,-0.158567 1.628841,-0.13906 2.147157,0.519864 1.202915,1.529262 0.110398,3.724976 -2.157492,4.335653 -1.700723,0.457957 -1.913974,0.32776 -1.823146,-1.112592 0.121595,-1.928203 -0.603956,-3.275245 -2.563666,-4.760952 -1.130166,-0.856805 -2.491762,-1.139208 -4.05815,-0.841809 -1.322317,0.251061 -1.73159,0.595821 -1.309998,1.10381 0.220338,0.265478 0.651159,0.332193 1.592668,0.247013 1.037828,-0.0939 1.483407,-0.0044 2.275829,0.457337 1.099148,0.640403 2.306087,2.411976 2.41949,3.550687 0.06317,0.634281 -0.01849,0.756219 -0.547253,0.818039 -0.341845,0.03996 -0.840883,-0.08767 -1.108975,-0.283705 -0.412914,-0.301929 -0.436848,-0.417091 -0.158131,-0.752924 0.386668,-0.465908 0.189045,-1.529472 -0.320394,-1.724959 -0.192199,-0.07376 -0.720588,0.06502 -1.174605,0.308506 -0.775303,0.415804 -0.86701,0.417778 -1.50895,0.02739 -0.375925,-0.22861 -1.054949,-0.884719 -1.508437,-1.457793 -2.569811,-3.247462 -6.717805,-3.483406 -8.785508,-0.499711 -1.044911,1.507813 -1.042157,2.563371 0.01138,4.307232 0.97064,1.606663 1.572374,2.039326 3.494878,2.513023 1.689336,0.41625 3.038205,0.399679 4.224549,-0.05168 0.546754,-0.208018 1.218002,-0.442201 1.49138,-0.52038 0.273378,-0.07818 0.86941,-0.418949 1.324467,-0.75706 l 0.827342,-0.614434 0.663524,0.625803 c 1.037791,0.978493 2.39377,1.417484 4.376994,1.417484 2.472733,0 4.277964,-0.577588 5.358329,-1.71514 0.905544,-0.953474 1.742662,-2.89923 1.740463,-4.044199 -0.0033,-1.781246 -2.916457,-3.401533 -5.507159,-3.309876 z M 36.143014,60.83194 c 0.103513,-0.0046 0.200737,0.0013 0.28887,0.01913 0.260744,0.05295 0.783907,0.16142 1.162719,0.241329 0.378812,0.07992 1.585878,0.936377 2.682526,1.902728 2.214144,1.951077 2.229456,2.060397 0.411342,2.987931 -1.08386,0.552945 -1.677307,0.473395 -1.542023,-0.206705 0.04925,-0.247568 0.149979,-0.978615 0.223758,-1.624709 0.11694,-1.024014 0.06502,-1.21141 -0.403077,-1.461926 -0.455049,-0.243536 -0.605898,-0.202311 -0.988568,0.270267 -0.49168,0.6072 -0.587216,1.852557 -0.217043,2.826184 0.278572,0.7327 -0.0024,0.900673 -1.104323,0.65991 -0.973019,-0.212593 -2.765703,-1.353307 -3.095419,-1.969389 -0.408035,-0.762418 -0.305586,-1.633731 0.27957,-2.377633 0.535022,-0.680175 1.577072,-1.234908 2.301668,-1.267105 z m 5.253458,9.690917 c -1.703284,-0.463827 -2.041493,-0.842502 -1.428541,-1.599467 0.475348,-0.587028 0.475941,-0.587081 1.779723,-0.166007 1.496433,0.483296 2.55828,0.535043 3.261061,0.158922 0.269557,-0.144259 0.709549,-0.192641 0.977762,-0.107514 0.751382,0.23848 0.588338,1.061305 -0.320042,1.615157 -0.934257,0.569627 -2.415374,0.603938 -4.269963,0.09891 z m 6.593364,-29.382222 c -0.04039,-0.0028 -0.07499,-0.0021 -0.103354,0.0021 -0.733296,0.10486 -0.984417,1.890718 -0.651124,4.631243 0.376637,3.09691 0.977075,4.689181 2.76624,7.335985 0.539888,0.798685 0.919419,1.614072 0.843359,1.812293 -0.112299,0.292645 -0.758047,0.353139 -3.434932,0.32091 -1.813144,-0.02183 -3.576386,-0.02122 -3.918106,0.0016 -1.536448,0.102349 -6.865522,-0.127754 -7.144784,-0.30851 -0.228502,-0.147902 -0.03583,-0.604488 0.731737,-1.734777 2.062501,-3.037166 3.157955,-6.916822 2.864943,-10.148218 -0.183703,-2.025907 -0.415939,-2.219989 -1.786454,-1.492933 -0.601578,0.319138 -1.149329,0.725652 -1.217499,0.903306 -0.06817,0.177649 0.03586,0.855237 0.231511,1.505334 0.195651,0.650097 0.356052,1.607267 0.356052,2.12752 0,1.9926 -1.467934,4.900609 -3.389974,6.716384 -0.527806,0.498623 -1.294741,1.223491 -1.704805,1.610754 l -0.745691,0.703834 -3.862814,-0.07958 c -3.631344,-0.07482 -3.918844,-0.04619 -4.806425,0.477491 -0.905173,0.534064 -0.937484,0.599178 -0.790649,1.575612 0.300802,2.000282 0.42878,8.255029 0.203088,9.914125 -0.316627,2.327579 -0.103585,3.506121 0.652674,3.613732 0.321473,0.04575 0.705432,-0.03829 0.853694,-0.186552 0.169791,-0.169786 1.650302,-0.269751 3.999757,-0.269751 3.713559,0 3.739583,0.0039 5.852871,0.886251 4.821457,2.012982 7.11168,3.354126 6.857979,4.015259 -0.136872,0.356682 0.567925,1.074467 1.70584,1.737878 1.269288,0.740008 3.375504,-0.151921 3.375504,-1.429369 0,-0.618281 0.227563,-0.84945 1.693437,-1.72031 0.93132,-0.553286 2.692447,-1.398281 3.913973,-1.87792 1.221528,-0.479639 2.556679,-1.029467 2.966744,-1.221632 0.47222,-0.221292 2.069081,-0.404492 4.355806,-0.49971 2.982965,-0.124217 3.696025,-0.08604 4.101041,0.220141 0.61648,0.466029 1.462157,0.48945 1.826763,0.05012 0.200358,-0.241416 0.224647,-1.61503 0.08475,-4.856032 -0.182647,-4.231468 -0.05727,-7.844962 0.303858,-8.741588 0.08921,-0.221482 -0.0666,-0.674481 -0.36122,-1.04903 l -0.518313,-0.658874 -4.399214,0.0047 -4.399217,0.0041 -2.112531,-2.196767 c -2.870763,-2.984936 -3.505962,-4.205531 -3.561024,-6.843509 -0.03178,-1.522798 0.06805,-2.258213 0.392226,-2.888713 0.239205,-0.465238 0.435115,-0.882515 0.435115,-0.927073 0,-0.233024 -1.855073,-0.998442 -2.460831,-1.03973 z M 29.590441,57.380988 c 2.440268,0.01196 5.519952,0.0818 8.185547,0.204636 2.771333,0.127704 4.832885,0.120814 5.189863,-0.01757 0.325731,-0.12627 1.108337,-0.148286 1.739429,-0.04858 0.631089,0.09971 4.726183,0.08761 9.100222,-0.02687 4.374036,-0.11449 8.041592,-0.122015 8.149889,-0.01654 0.28948,0.281913 0.284101,9.456907 -0.0057,9.746691 -0.133217,0.133221 -1.527482,0.288343 -3.098001,0.344684 -1.570521,0.05633 -3.180646,0.228142 -3.578076,0.38137 -0.397428,0.153228 -1.225614,0.372639 -1.840715,0.487826 -2.223169,0.416324 -2.900317,0.690724 -5.467881,2.21847 -2.405171,1.431118 -2.745642,1.561211 -4.349089,1.66088 -1.966068,0.122213 -2.254332,0.0072 -4.803325,-1.920812 -1.097899,-0.830448 -1.960126,-1.267238 -2.857706,-1.447459 -1.546548,-0.310523 -3.371895,-0.700238 -4.889109,-1.043347 -0.615098,-0.139099 -2.154314,-0.29473 -3.420462,-0.346231 -1.266147,-0.0515 -2.42644,-0.170834 -2.578137,-0.264583 -0.290455,-0.179512 -0.125819,-9.469689 0.173116,-9.76943 0.108932,-0.109223 1.909854,-0.155115 4.350122,-0.143142 z"
       inkscape:connector-curvature="0" />
    <path
       inkscape:connector-curvature="0"
       id="path1973"
       d="m 42.409199,90.765569 c -0.253734,-0.147452 -1.092505,-0.303372 -1.863936,-0.346484 -0.771434,-0.04311 -1.570359,-0.137993 -1.775392,-0.210851 -1.345009,-0.477938 -3.704953,-0.887442 -5.840333,-1.013432 -2.623585,-0.154796 -3.735681,-0.415809 -4.964534,-1.165198 -0.413344,-0.252071 -0.975209,-0.46084 -1.248586,-0.463929 -0.806727,-0.0091 -5.92265,-2.729511 -8.268116,-4.39657 -3.228468,-2.294662 -6.273247,-5.250179 -6.27177,-6.087904 9e-4,-0.510294 -0.25239,-0.847025 -1.055047,-1.402617 C 9.791402,74.757914 9.2838731,74.199717 7.8181215,72.045435 5.1332756,68.099395 2.6860885,62.546607 1.6386331,58.023876 1.0592615,55.52225 0.58189769,49.72396 0.94534056,49.602811 1.301206,49.48419 1.3422183,48.641927 1.0023567,48.431879 0.63824709,48.206847 0.88897717,43.11186 1.3144776,42.089394 1.5135684,41.610984 1.8171658,40.604458 1.9891384,39.852671 2.1611111,39.100883 2.3930844,38.369624 2.5046346,38.227652 2.6161849,38.085679 2.8289383,37.209053 2.9774197,36.279595 3.227011,34.717219 4.7490035,31.151981 5.5897764,30.160203 5.7635917,29.95517 5.9866912,29.507825 6.0855526,29.166104 6.3194102,28.35776 8.3857079,25.004826 8.8017578,24.75858 8.9784893,24.653978 9.4049323,24.12105 9.749409,23.574295 c 0.344477,-0.546754 1.722519,-2.224297 3.062316,-3.727872 2.360583,-2.649142 4.50866,-4.467552 6.821735,-5.774796 0.615099,-0.347626 1.855466,-1.065845 2.756371,-1.596043 0.900905,-0.530198 3.529056,-1.622486 5.840334,-2.427306 2.311278,-0.8048199 4.59375,-1.6291006 5.07216,-1.8317351 2.325862,-0.9851373 12.09412,-1.3470818 15.781326,-0.5847476 1.093509,0.2260843 2.525964,0.4601606 3.183235,0.5201694 0.657271,0.060009 1.55196,0.218039 1.988199,0.351178 0.436238,0.133139 1.23987,0.3175996 1.785844,0.4099126 0.970964,0.1641693 6.890569,3.0036727 10.530519,5.0512557 2.992432,1.683335 7.468255,5.532702 9.086015,7.8143 0.506436,0.714249 1.5827,2.23608 2.391696,3.381847 1.671207,2.366897 4.458935,7.698767 4.465339,8.5405 0.0071,0.929247 0.900095,4.075623 1.331641,4.691744 0.222074,0.317055 0.403773,0.986144 0.403773,1.486859 0,0.500716 0.160716,1.220175 0.35715,1.598798 0.196432,0.378622 0.441497,1.425891 0.544588,2.327263 0.15753,1.377349 0.214817,1.519888 0.359021,0.893283 0.09961,-0.432824 0.17659,0.401181 0.183518,1.988198 0.0076,1.734144 -0.06616,2.552022 -0.201653,2.236724 -0.160286,-0.373009 -0.211765,-0.217954 -0.206283,0.621312 0.006,0.917213 0.04309,1.006612 0.206283,0.497049 0.136577,-0.426458 0.197528,-0.03675 0.194349,1.242624 -0.0031,1.235052 -0.0618,1.612382 -0.174059,1.118362 -0.134795,-0.593182 -0.207267,-0.364591 -0.354558,1.118362 -0.336602,3.388973 -1.398362,7.342623 -2.420396,9.012757 -0.398576,0.651326 -0.724683,1.236538 -0.724683,1.300471 0,0.263207 -2.349372,5.023551 -2.795017,5.663311 -0.265218,0.380748 -0.413317,0.871808 -0.329109,1.09125 0.195557,0.509615 -0.582569,1.759434 -0.838046,1.346063 -0.113759,-0.184068 -0.643823,0.329208 -1.441908,1.39624 -1.236896,1.653713 -1.766018,2.221332 -4.546339,4.877108 -1.64177,1.568226 -5.538771,4.514252 -7.446318,5.629211 -0.751788,0.439417 -1.534641,0.937585 -1.739674,1.107036 -0.53018,0.438174 -4.787361,2.252244 -6.97415,2.971823 -2.298171,0.756231 -5.413017,1.392303 -6.818107,1.392303 -1.339459,0 -5.141173,0.705445 -5.45599,1.012411 -0.148076,0.144385 -0.119443,0.230213 0.0768,0.230213 0.172094,0 0.243778,0.111836 0.1593,0.248525 -0.198624,0.321382 -0.870267,0.305372 -1.455431,-0.03469 z m 7.432313,-2.583913 c 3.594385,-0.626809 5.785613,-1.319408 8.714446,-2.754447 3.062139,-1.500357 3.80451,-2.058835 2.653477,-1.996187 -1.240817,0.06754 -0.925109,-0.441183 0.824859,-1.329133 0.942848,-0.47841 2.217095,-1.214272 2.831657,-1.635248 1.653488,-1.132642 1.738699,-1.169864 1.738699,-0.75949 0,0.202603 -0.768205,0.87907 -1.707124,1.503262 -0.938917,0.624193 -1.856478,1.314853 -2.039019,1.534805 -0.303394,0.365568 -0.247499,0.365207 0.650894,-0.0042 1.445668,-0.594427 3.95904,-2.402785 6.077547,-4.372762 1.87553,-1.744035 1.953485,-2.037607 0.364805,-1.373815 -0.474019,0.198059 -0.861854,0.316064 -0.861854,0.262231 0,-0.05383 1.052306,-1.223513 2.338457,-2.599296 2.411128,-2.579154 3.515714,-4.074639 4.88727,-6.616792 0.436651,-0.809326 0.888844,-1.575883 1.00487,-1.703459 0.358885,-0.394602 0.565595,0.07778 0.291987,0.66725 -0.142658,0.307343 -0.409509,0.894314 -0.593003,1.30438 -0.183493,0.410066 -0.374519,0.829528 -0.424497,0.932137 -0.04998,0.102608 0.08252,0.120025 0.294442,0.0387 0.443629,-0.170229 2.638516,-3.862547 2.638516,-4.438601 0,-0.452732 -0.116993,-0.472246 -0.761913,-0.127098 -0.593735,0.317759 -0.646843,-0.140983 -0.100021,-0.863949 0.200686,-0.26533 0.364884,-0.7367 0.364884,-1.047487 0,-0.32352 0.227972,-0.687074 0.533315,-0.850489 0.516402,-0.27637 0.528353,-0.25103 0.376823,0.798962 l -0.156494,1.084383 0.48952,-0.913582 c 0.661761,-1.235034 1.740195,-4.588146 1.734631,-5.393391 -0.0038,-0.554759 -0.112247,-0.456284 -0.7287,0.661884 -0.398308,0.722484 -0.714626,1.650331 -0.702923,2.061886 0.02724,0.958163 -0.361551,1.37845 -0.793589,0.857875 -0.261987,-0.315676 -0.249991,-0.643587 0.0663,-1.812337 0.21239,-0.784812 0.460788,-1.930193 0.551996,-2.545292 0.195858,-1.32083 1.055582,-4.746028 1.23672,-4.927163 0.0694,-0.0694 0.126173,0.109537 0.126173,0.397629 0,0.28809 0.111836,0.592921 0.248525,0.6774 0.136689,0.08448 0.248525,0.393037 0.248525,0.685684 0,0.375256 0.07775,0.454334 0.263791,0.268295 0.145087,-0.145086 0.261511,-0.642757 0.25872,-1.105935 -0.0072,-1.198151 -3.5e-5,-1.470755 0.133249,-5.055487 0.0829,-2.22964 0.02848,-3.389677 -0.177027,-3.773673 -0.163196,-0.304937 -0.233755,-0.795212 -0.156797,-1.0895 0.07696,-0.294291 -0.07605,-1.336124 -0.340026,-2.315185 -0.263971,-0.979064 -0.594131,-2.283377 -0.733688,-2.898476 -0.139556,-0.615098 -0.417169,-1.45387 -0.616918,-1.863936 -0.199749,-0.410066 -0.481082,-1.220878 -0.625182,-1.801805 -0.144102,-0.580926 -0.381654,-1.05623 -0.527891,-1.05623 -0.30579,0 -0.107072,1.00709 0.402893,2.041852 0.460997,0.935396 0.678399,2.486208 0.406923,2.902728 -0.329301,0.505236 -1.030022,0.141426 -0.95824,-0.497512 0.03337,-0.297079 -0.09607,-0.595403 -0.28766,-0.662942 -0.265159,-0.09348 -0.304667,0.01869 -0.165448,0.469655 0.856799,2.775425 1.181952,5.128013 1.310976,9.485352 0.149145,5.036879 -0.02954,6.865875 -1.055058,10.799544 -0.646865,2.481232 -2.246689,6.470211 -3.31541,8.266599 -0.36594,0.615098 -0.800956,1.428759 -0.966704,1.808137 -0.55524,1.270869 -3.874848,5.503028 -5.891885,7.511543 -4.572782,4.553464 -10.783529,7.97883 -17.278646,9.529555 -4.003275,0.955792 -7.70999,1.404419 -9.7286,1.177461 -0.868605,-0.09766 -2.585804,-0.268196 -3.816002,-0.378968 -2.968127,-0.267264 -5.171078,-0.847505 -8.325581,-2.192891 -1.435231,-0.612124 -3.046703,-1.272621 -3.581049,-1.467773 -2.920186,-1.066497 -7.369551,-4.27536 -10.942813,-7.89191 -2.186739,-2.213231 -2.554033,-2.508645 -1.876473,-1.509247 1.079579,1.592373 6.884719,7.329298 8.053197,7.958565 0.85418,0.460007 1.162217,1.164403 0.64814,1.48212 -0.133789,0.08269 -0.609093,-0.184731 -1.05623,-0.594258 -1.741421,-1.594945 -6.530272,-4.990622 -6.627369,-4.699333 -0.141749,0.425251 2.495926,2.811894 4.565286,4.130803 0.960385,0.612102 2.025745,1.366874 2.367467,1.677272 0.591229,0.537032 5.751227,3.239322 7.331482,3.839494 1.866521,0.708897 7.700869,2.085036 10.065255,2.374078 3.073653,0.375747 7.787142,0.257186 10.823116,-0.272244 z M 33.0538,85.954024 c -0.336303,-0.405222 -0.187929,-0.449591 0.704451,-0.210652 0.433343,0.116029 0.496245,0.208562 0.248525,0.365587 -0.462798,0.293364 -0.599345,0.271166 -0.952976,-0.154935 z m 24.983285,-1.604827 c -0.124319,-0.201151 1.053179,-1.004684 1.472266,-1.004684 0.4331,0 0.03406,0.796863 -0.500886,1.000251 -0.782893,0.297655 -0.790138,0.297688 -0.97138,0.0044 z M 81.930348,48.882405 c -0.315077,-0.315077 -0.163755,-0.579891 0.331366,-0.579891 0.276138,0 0.497049,0.165685 0.497049,0.372788 0,0.378356 -0.525729,0.509789 -0.828415,0.207103 z M 49.207913,83.601257 c 0.615099,-0.134479 1.565707,-0.410108 2.112461,-0.612504 0.546755,-0.202399 1.243536,-0.372907 1.548404,-0.378906 1.063895,-0.02093 7.164643,-2.902144 9.635213,-4.550435 6.053219,-4.038526 9.183385,-7.620795 12.428932,-14.224097 2.720795,-5.535659 3.452803,-8.789214 3.466725,-15.408538 0.01121,-5.328631 -0.3867,-7.556156 -2.197516,-12.301978 -0.922064,-2.416564 -4.672279,-9.220794 -5.79027,-10.505623 -3.450419,-3.965326 -7.470353,-7.029978 -11.954762,-9.113882 -4.616431,-2.145255 -5.811144,-2.35984 -13.183846,-2.367986 -4.740007,-0.0052 -6.359539,0.06981 -6.554209,0.3037 -0.388809,0.467148 -2.114163,0.394706 -2.391238,-0.1004 -0.378638,-0.67659 -2.403009,-0.270154 -5.067551,1.017419 -1.289915,0.623321 -2.605509,1.133311 -2.923541,1.133311 -0.716696,0 -2.486016,0.832606 -5.158069,2.427282 -3.344884,1.99622 -7.939672,6.617152 -9.942388,9.998959 -1.969781,3.326191 -4.1567009,8.283511 -5.152923,11.680666 -0.5570266,1.899483 -0.9396756,9.176829 -0.6118092,11.635594 0.310363,2.327502 1.1348023,5.853957 1.6171199,6.917064 0.1954136,0.430724 0.3552973,0.925644 0.3552973,1.099825 0,0.613923 1.863574,4.1224 4.074627,7.671133 2.335992,3.74926 4.59406,6.251426 7.628376,8.453008 0.739502,0.536552 1.735976,1.26857 2.214387,1.626701 1.340903,1.003787 3.695772,2.337796 5.343283,3.026911 0.820132,0.343044 1.826658,0.766324 2.236723,0.940626 0.410066,0.174301 1.19292,0.439405 1.739674,0.589116 0.546755,0.149714 1.665116,0.457311 2.485248,0.683553 0.820132,0.226239 2.32992,0.500827 3.355085,0.610195 2.288233,0.244116 9.160737,0.08288 10.686567,-0.250714 z M 12.688887,73.831535 c -0.318767,-0.303752 -0.490855,-0.384522 -0.382416,-0.179489 0.346372,0.654912 0.683591,1.010168 0.824821,0.868939 0.07544,-0.07544 -0.123638,-0.385698 -0.442405,-0.68945 z m -1.141262,-1.732769 c -0.207724,-0.697475 -1.358108,-1.927986 -1.358108,-1.452705 0,0.469443 0.981057,2.011885 1.279642,2.011885 0.137737,0 0.172091,-0.244814 0.07847,-0.55918 z m 64.160136,-0.858594 c -0.104616,-0.104617 -0.403748,0.08771 -0.664739,0.427388 -0.705465,0.918168 -0.584366,1.202142 0.184686,0.433089 0.368645,-0.368646 0.58467,-0.755861 0.480053,-0.860477 z M 6.9183573,63.562467 C 6.7463952,63.16578 6.405237,62.574127 6.1602278,62.247684 l -0.4454713,-0.593532 0.1604134,0.842057 c 0.2352314,1.234798 0.829624,2.313729 1.1165718,2.026782 0.1533485,-0.15335 0.1269956,-0.498282 -0.073384,-0.960524 z M 4.8802721,57.585344 c -0.512025,-2.037543 -1.0138214,-7.909362 -0.7169896,-8.389925 0.2525211,-0.408825 0.2909721,-3.226085 0.048026,-3.518818 -0.48633,-0.585991 0.191134,-4.58987 1.401806,-8.284808 0.9840394,-3.003263 1.2210715,-3.513174 1.4729631,-3.168691 0.5469984,0.748064 0.8891412,0.431521 1.9010962,-1.758853 0.7982742,-1.727861 0.9467531,-2.258287 0.7295173,-2.606137 -0.425471,-0.681287 -0.3553187,-0.883454 0.9932439,-2.862344 2.74605,-4.029575 3.688926,-4.999693 4.913405,-5.055367 0.223581,-0.01017 1.077528,-0.512066 1.897659,-1.115335 2.287973,-1.682976 8.358519,-5.670483 9.195419,-6.040116 2.208356,-0.975361 7.743732,-2.594245 10.387673,-3.037994 2.644531,-0.443847 3.603476,-0.485417 7.626479,-0.330608 3.76784,0.144991 5.102276,0.300613 7.364839,0.85889 3.253456,0.802775 7.673236,2.369217 8.521565,3.020181 0.329027,0.252478 0.77719,0.402252 0.995919,0.332831 0.218729,-0.06942 0.721813,0.152291 1.117966,0.492696 0.396154,0.340404 0.8487,0.618917 1.005658,0.618917 0.156959,0 0.657065,0.383482 1.111349,0.852183 0.700835,0.723078 0.896051,0.808415 1.288569,0.563284 0.610431,-0.381222 1.810175,0.245135 3.822008,1.995379 2.663982,2.317596 4.035037,3.875953 4.566343,5.190155 0.279352,0.690982 0.911149,1.305834 2.020857,1.96665 0.331366,0.197325 0.331366,0.163596 0,-0.303555 -0.205033,-0.28905 -0.842392,-1.23489 -1.416353,-2.101867 -2.140509,-3.233275 -2.939037,-4.240536 -3.655504,-4.611035 -0.404663,-0.209259 -1.292031,-0.989131 -1.97193,-1.733048 -0.679897,-0.743917 -1.749704,-1.625381 -2.377349,-1.95881 C 66.496865,16.26577 65.703748,15.786264 65.362026,15.533629 63.599349,14.230486 60.150829,12.399212 57.788725,11.511964 49.06404,8.2348231 41.675454,7.5321546 35.290524,9.3723428 34.538736,9.589014 33.196702,9.9728511 32.308226,10.225314 c -0.888476,0.252463 -1.874998,0.599511 -2.19227,0.771218 -0.317271,0.171707 -1.169938,0.466672 -1.894815,0.655479 -1.55408,0.404786 -6.747606,2.975769 -8.923785,4.417596 -1.635974,1.083913 -5.70388,5.168029 -7.056668,7.084786 -0.452406,0.641012 -0.961759,1.277313 -1.131895,1.414002 -0.413154,0.331932 -1.9133748,2.709759 -1.9133748,3.032671 0,0.14046 -0.2500779,0.573305 -0.5557284,0.961876 -0.6100409,0.775542 -1.9270989,3.311995 -1.9285851,3.714163 -5.219e-4,0.139129 -0.2972478,0.689028 -0.6594084,1.221994 C 5.4209776,34.427287 4.7842811,36.823173 4.2084782,40.435128 4.081143,41.23389 3.9089136,41.997524 3.8257463,42.132091 3.6690004,42.38571 3.5680847,44.086107 3.3720071,49.77745 3.2492992,53.339158 3.5007847,55.179733 4.5287598,58.243507 5.165501,60.141248 5.408312,59.686614 4.8802721,57.585344 Z M 65.354772,16.855383 c -0.423484,-0.510265 -0.186481,-0.684765 0.373702,-0.27515 0.278387,0.203561 0.354473,0.394057 0.196411,0.491745 -0.141907,0.0877 -0.398459,-0.0098 -0.570113,-0.216595 z M 25.092671,14.737448 c -0.319235,-0.205238 -0.3182,-0.26467 0.0083,-0.479028 0.786658,-0.516408 1.370453,-0.128487 0.675108,0.448598 -0.204976,0.170114 -0.449256,0.180991 -0.683443,0.03043 z m 1.879978,-0.967414 c -0.08024,-0.12983 0.07413,-0.353805 0.343037,-0.497721 0.521698,-0.279204 0.92692,0.02643 0.643356,0.485252 -0.19466,0.314965 -0.794753,0.322551 -0.986393,0.01247 z"
       style="display:inline;fill:#404040;fill-opacity:1;stroke-width:0.24852481" />
  </g>
</svg>
