<?xml version="1.0" encoding="UTF-8" standalone="no"?>
<!-- Created with Inkscape (http://www.inkscape.org/) -->

<svg
   xmlns:dc="http://purl.org/dc/elements/1.1/"
   xmlns:cc="http://creativecommons.org/ns#"
   xmlns:rdf="http://www.w3.org/1999/02/22-rdf-syntax-ns#"
   xmlns:svg="http://www.w3.org/2000/svg"
   xmlns="http://www.w3.org/2000/svg"
   xmlns:sodipodi="http://sodipodi.sourceforge.net/DTD/sodipodi-0.dtd"
   xmlns:inkscape="http://www.inkscape.org/namespaces/inkscape"
   width="25.4mm"
   height="25.400002mm"
   viewBox="0 0 25.4 25.400002"
   version="1.1"
   id="svg842"
   inkscape:version="0.92.3 (2405546, 2018-03-11)"
   sodipodi:docname="Faction_Vecna_bw.svg">
  <defs
     id="defs836" />
  <sodipodi:namedview
     id="base"
     pagecolor="#ffffff"
     bordercolor="#666666"
     borderopacity="1.0"
     inkscape:pageopacity="0.0"
     inkscape:pageshadow="2"
     inkscape:zoom="8"
     inkscape:cx="35.818664"
     inkscape:cy="46.92493"
     inkscape:document-units="mm"
     inkscape:current-layer="layer1"
     showgrid="false"
     fit-margin-top="0"
     fit-margin-left="0"
     fit-margin-right="0"
     fit-margin-bottom="0"
     inkscape:window-width="1920"
     inkscape:window-height="1017"
     inkscape:window-x="-8"
     inkscape:window-y="-8"
     inkscape:window-maximized="1" />
  <metadata
     id="metadata839">
    <rdf:RDF>
      <cc:Work
         rdf:about="">
        <dc:format>image/svg+xml</dc:format>
        <dc:type
           rdf:resource="http://purl.org/dc/dcmitype/StillImage" />
        <dc:title />
      </cc:Work>
    </rdf:RDF>
  </metadata>
  <g
     inkscape:label="Vecna"
     inkscape:groupmode="layer"
     id="layer1"
     transform="translate(-35.616842,-152.13729)"
     style="display:inline">
    <path
       style="fill:#000000;fill-opacity:1;stroke-width:0.06329854"
       d="m 47.865234,0 c -1.483163,0.00722835 -2.910015,0.03434473 -3.251953,0.07421875 -0.203127,0.02381102 -0.529004,0.13239555 -0.78125,0.25976563 -0.499151,0.25247244 -0.621535,0.26382874 -0.955078,0.09375 -0.240586,-0.12094489 -0.714778,-0.18698204 -0.833984,-0.11328126 -0.03384,0.0207874 -0.314436,0.0554478 -0.625,0.078125 -0.310583,0.0222992 -0.588841,0.053368 -0.617188,0.0722656 -0.02832,0.0173858 -0.285664,0.0597342 -0.572265,0.09375 C 39.328621,0.66479847 39.21886,0.68059449 38.505859,0.8125 c -2.481974,0.4595906 -5.60226,1.3627503 -8.132812,2.3535156 -1.178306,0.4613292 -2.717886,1.134233 -3.013672,1.3164063 -0.108234,0.066898 -0.309124,0.1602284 -0.447266,0.2089843 -0.321327,0.1134237 -2.22901,1.1250075 -3.074218,1.6308594 -0.356977,0.2135811 -0.741188,0.4404102 -0.853516,0.5039063 -0.633422,0.3580724 -1.029297,0.648394 -1.029297,0.7519531 0,0.1349291 -0.158635,0.2806097 -0.246094,0.2265625 -0.03409,-0.020787 -0.193188,0.025657 -0.353515,0.1035156 -0.326325,0.1584756 -0.36918,0.3394902 -0.109375,0.46875 0.0805,0.040063 0.151778,0.09659 0.158203,0.1230469 0.01172,0.049512 -0.04801,0.061502 -0.576172,0.1132812 -0.163563,0.016252 -0.329603,0.080913 -0.417969,0.1640626 -0.110438,0.1028031 -0.189591,0.1297188 -0.318359,0.095703 -0.141056,-0.03515 -0.21294,-0.0028 -0.404297,0.1816406 -0.127858,0.1232126 -0.345893,0.2865568 -0.484375,0.3632813 -0.138474,0.076649 -0.650584,0.4597766 -1.138672,0.8515623 -3.173616,2.547402 -6.327777,5.796472 -8.6660155,8.927735 -5.53728,7.415244 -8.69922517,15.956427 -9.33984375,25.228515 -0.07775622,1.125279 -0.07770709,6.113794 0,7.027344 0.03110551,0.365594 0.08317175,1.020874 0.1171875,1.457031 0.0814148,1.04931 0.32099498,2.848629 0.3984375,2.994141 0.0338646,0.06353 0.0723312,0.25085 0.0859375,0.416015 0.11903622,1.432971 0.87366345,4.55345 1.70898435,7.070313 1.1753877,3.541531 2.7831039,6.952169 4.7578125,10.09375 2.3008025,3.660397 4.6101419,6.46218 7.8339849,9.503906 0.03481,0.03284 0.264146,0.254078 0.507812,0.492188 1.758516,1.718324 4.566994,3.868893 7.181641,5.496093 1.102495,0.686212 1.402428,0.840478 1.648437,0.859376 0.102728,0.0068 0.18744,0.04713 0.1875,0.08984 1.51e-4,0.09298 0.324213,0.271485 0.494141,0.271485 0.06663,0 0.193149,0.05583 0.28125,0.125 0.135269,0.10507 0.166651,0.110998 0.197265,0.03125 0.01992,-0.05216 0.08356,-0.0957 0.140625,-0.0957 0.07907,0 0.09431,0.03839 0.06445,0.158204 -0.05808,0.231458 0.08546,0.340741 1.078126,0.824218 1.981349,0.964989 4.453355,1.978276 4.984374,2.041016 0.170975,0.02041 0.359727,0.08437 0.417969,0.142578 0.115994,0.116032 1.260778,0.507813 1.484375,0.507813 0.153819,0 0.724453,0.177308 0.828125,0.257812 0.112437,0.08719 1.474363,0.4375 1.701172,0.4375 0.118337,0 0.230283,-0.03466 0.248047,-0.07813 0.02241,-0.0548 0.06812,-0.03942 0.148438,0.05469 0.0635,0.07446 0.214123,0.165329 0.335937,0.203125 0.314166,0.09373 1.451567,0.334744 1.677734,0.357421 0.104429,0.0102 0.400175,0.03787 0.658203,0.06055 0.258036,0.02305 0.520841,0.06755 0.582032,0.101563 0.06119,0.03402 0.27563,0.04612 0.478515,0.02344 0.334727,-0.03439 0.388276,-0.02272 0.560547,0.126953 0.104429,0.09071 0.229332,0.163987 0.279297,0.164063 0.04998,0 0.605575,0.05861 1.234375,0.128906 0.6288,0.0703 1.484638,0.153358 1.902344,0.183594 v -0.0039 c 1.263367,0.09335 7.375319,0.03677 8.449219,-0.07813 2.976102,-0.318577 4.778151,-0.625012 7.183593,-1.220703 2.547995,-0.63103 5.824215,-1.750649 7.357422,-2.515625 0.304676,-0.151937 0.639864,-0.295809 0.744141,-0.322266 0.275743,-0.06686 2.623875,-1.252088 3.765625,-1.900391 1.373537,-0.779905 1.812767,-1.085223 1.890625,-1.308593 0.06818,-0.19578 0.266641,-0.321171 0.308594,-0.195313 0.03137,0.09415 0.344724,-0.05965 0.634765,-0.3125 0.114085,-0.0994 0.321914,-0.238736 0.462891,-0.310547 0.38304,-0.195477 1.819822,-1.19547 1.958984,-1.363281 0.04684,-0.05669 0.230691,-0.195208 0.40625,-0.308594 0.866786,-0.56073 3.37318,-2.806762 5.044922,-4.519531 3.016237,-3.090255 5.371067,-6.203519 7.427735,-9.822266 0.636706,-1.120289 1.810455,-3.452503 1.927734,-3.830078 0.04327,-0.139086 0.103395,-0.297452 0.134766,-0.349609 0.175407,-0.291477 0.312556,-0.654061 0.279296,-0.740235 -0.03008,-0.07748 -0.101394,-0.09274 -0.345703,-0.0625 -0.216861,0.02608 -0.343009,0.0088 -0.425781,-0.05469 -0.113461,-0.08693 -0.111629,-0.0939 0.02734,-0.203125 0.101669,-0.07975 0.123794,-0.132065 0.07617,-0.179688 -0.04755,-0.04762 0.0025,-0.115571 0.171875,-0.230468 0.219273,-0.148536 0.317192,-0.181405 0.771484,-0.267578 0.08304,-0.01625 0.155306,-0.03554 0.162109,-0.04687 0.04993,-0.07604 0.344323,-0.739309 0.373047,-0.839844 0.02117,-0.07446 -0.01091,-0.190919 -0.08008,-0.28125 -0.113046,-0.148158 -0.11384,-0.160312 -0.0059,-0.316406 0.644557,-0.931578 0.779874,-1.211648 0.632812,-1.302735 -0.105675,-0.06539 -0.06963,-0.229656 0.05664,-0.263672 0.174656,-0.04569 0.265888,-0.275496 0.650391,-1.634765 0.8413,-2.973997 1.406595,-6.28917 1.634765,-9.591797 0.08145,-1.181821 0.08134,-5.97116 0,-7.123047 -0.414376,-5.868775 -1.793763,-11.375801 -4.128906,-16.480469 -0.77613,-1.69663 -1.929153,-3.881067 -2.099609,-3.980468 -0.04637,-0.02706 -0.289489,-0.434238 -0.541016,-0.904297 -0.81744,-1.527534 -2.436889,-3.831334 -4.083984,-5.808594 -0.752818,-0.903874 -0.818625,-0.964844 -1.023438,-0.964844 -0.12034,0 -0.278391,-0.03296 -0.351562,-0.07227 l -0.134766,-0.07031 0.148437,-0.08008 0.148438,-0.08008 -0.142578,-0.04492 c -0.114671,-0.03628 -0.135264,-0.07689 -0.103516,-0.203125 0.03103,-0.123969 0.01295,-0.16495 -0.08789,-0.191406 -0.0706,-0.01852 -0.190563,-0.137058 -0.265624,-0.263672 C 82.994115,14.837362 80.402914,12.326096 78.820312,10.992188 71.161281,4.5366032 61.526513,0.68048612 51.447266,0.0390625 50.886654,0.00429085 49.348398,-0.00722835 47.865234,0 Z M 48,6.5839844 A 41.416258,41.416258 0 0 1 89.416016,48 41.416258,41.416258 0 0 1 48,89.416016 41.416258,41.416258 0 0 1 6.5839844,48 41.416258,41.416258 0 0 1 48,6.5839844 Z m 35.314453,9.2031246 c 0.05219,0.02003 0.09375,0.06156 0.09375,0.0918 0,0.06728 -0.08601,0.0761 -0.146484,0.01563 -0.07695,-0.0771 -0.04376,-0.145217 0.05273,-0.107422 z M 0.90820312,56.074219 c 0.0849638,0 0.17383258,0.03056 0.19726568,0.06836 0.06017,0.09713 -0.041438,0.161222 -0.20898442,0.134766 -0.19457008,-0.03175 -0.1847411,-0.203125 0.0117187,-0.203125 z m 0.28320308,0.578125 c 0.044254,0.01351 0.068359,0.07178 0.068359,0.173828 0,0.264567 -0.131036,0.346299 -0.26562498,0.166016 -0.10231181,-0.136819 -0.10305437,-0.149338 0.003906,-0.246094 0.0843401,-0.07635 0.14910578,-0.107262 0.19335998,-0.09375 z m 91.4257818,8.728515 c 0.05219,0 0.0957,0.04159 0.0957,0.09375 0,0.09865 -0.07564,0.12568 -0.148438,0.05273 -0.07287,-0.07295 -0.0461,-0.146485 0.05273,-0.146485 z m -0.783204,0.02344 c 0.05036,-0.01082 0.10736,-0.0093 0.177735,0.0059 0.178507,0.03931 0.277089,0.160156 0.130859,0.160156 -0.03473,0 -0.17374,0.099 -0.308594,0.220704 -0.172335,0.155716 -0.305268,0.222656 -0.447265,0.222656 -0.18977,0 -0.200161,-0.0139 -0.181641,-0.207031 0.01693,-0.174237 0.04441,-0.207158 0.19336,-0.210938 0.09592,-0.0038 0.229826,-0.05634 0.296874,-0.117187 0.04418,-0.0395 0.08831,-0.0634 0.138672,-0.07422 z"
       transform="matrix(0.26458333,0,0,0.26458333,35.616842,152.13729)"
       id="path1406"
       inkscape:connector-curvature="0" />
    <path
       style="display:inline;fill:#6f6f6f;fill-opacity:1;stroke-width:0.01674774"
       d="m 48.246474,174.4184 c 0.654012,-0.078 0.522877,-1.18157 0.917014,-1.63654 0.35284,-0.62377 0.770623,-1.23784 1.196142,-1.80549 0.227131,-0.30683 0.60844,-0.65675 0.735551,-0.91348 0.385345,-0.32377 0.73688,-0.89818 1.190589,-1.2336 0.511274,-0.18699 1.004281,-0.45917 1.582567,-0.2478 0.346231,0.28496 0.749659,0.16235 0.51867,-0.3142 -0.181323,-0.66823 -0.836891,-1.30901 -1.552261,-1.04756 -0.69207,-0.0958 -1.109317,0.57562 -1.617601,0.89678 -0.458966,0.56192 -0.919038,1.15017 -1.400004,1.69564 -0.250345,0.35276 -0.449354,0.64641 -0.635569,0.98738 -0.263915,0.47109 -0.682025,0.97384 -0.799377,1.45749 -0.37778,-0.28607 -0.502906,-0.93642 -0.827705,-1.35531 -0.281238,-0.44456 -0.481594,-0.82592 -0.751105,-1.20966 -0.351769,-0.52579 -0.786774,-1.00534 -1.201935,-1.49308 -0.354932,-0.55834 -0.933981,-0.92036 -1.447148,-1.29261 -0.620666,-0.24009 -1.486155,-0.34368 -1.877787,0.33138 -0.400394,0.4268 -0.550545,1.42571 0.279488,0.80676 0.67993,-0.32034 1.333452,0.11264 1.813183,0.56542 0.313196,0.32643 0.667284,0.72845 0.911054,1.0225 0.232952,0.29624 0.672142,0.72836 0.902789,1.13485 0.585238,0.75914 1.037676,1.6094 1.438133,2.47894 0.243737,0.3295 0.09902,1.21291 0.625312,1.17219 z m 0.187154,-5.70283 c 0.515309,-0.0541 0.172149,-0.74135 0.638886,-1.07334 0.284652,-0.41523 0.731686,-1.06315 1.103769,-1.09542 0.109569,-0.31788 0.462346,-0.54733 0.6938,-0.7378 0.06559,-0.22237 0.773158,-0.31136 0.730407,-0.49044 0.334912,-0.34957 0.704272,-0.2808 0.981712,-0.44865 0.555747,-0.23259 1.181901,-0.36872 1.791792,-0.48681 0.361366,-0.22298 0.399028,-0.68213 0.163256,-0.91542 -0.223944,-1.24848 -0.89057,-2.36071 -1.160783,-3.59931 -0.446599,-1.20952 -0.599628,-2.49541 -0.842126,-3.75128 0.241519,-1.11003 -0.77367,0.0353 -0.979084,0.40181 -0.540816,0.71842 -1.271324,1.3274 -1.552292,2.20817 -0.299248,0.46191 -0.102721,0.99863 -0.801397,0.82067 -0.797056,0.003 -1.597094,0.0305 -2.392198,-0.0305 0.0033,-0.68947 -0.500833,-1.45547 -0.952993,-2.02382 -0.570159,-0.60508 -1.00135,-1.3554 -1.656149,-1.8753 -0.310113,0.21204 -0.100478,1.10583 -0.337075,1.57062 -0.1954,1.48004 -0.686437,2.90094 -1.162084,4.30892 -0.346764,0.69763 -0.498042,1.4801 -0.739861,2.19892 -0.243193,0.3228 0.345679,0.8924 0.842335,0.79798 0.411443,0.17589 1.060311,0.19885 1.324232,0.42605 0.10644,0.10961 0.719696,0.11107 0.556842,0.25805 0.0034,0.0422 0.315542,0.0671 0.337399,0.26324 0.418382,0.0575 0.701938,0.32901 0.926225,0.5744 0.372553,0.0535 0.301346,0.54497 0.63507,0.57299 0.04824,-0.0417 0.831326,0.761 0.995293,1.12798 0.436066,0.38056 0.05869,1.05456 0.715018,1.01189 l 0.140053,-0.0138 z m -0.182183,-1.83847 c -0.389728,-0.40511 -0.305443,-0.51615 -0.484911,-0.64047 -0.310627,-0.20057 0.0809,-0.52758 0.359191,-0.5086 0.399115,-0.10484 0.962316,0.15117 0.788316,0.45825 -0.323863,0.2329 -0.08893,0.14671 -0.50429,0.61202 -0.03963,0.0112 -0.103974,0.21553 -0.158306,0.0788 z m -1.930865,-3.29946 c -0.533415,-0.21384 -1.349663,-0.47042 -1.587676,-1.04317 0.537041,-0.78788 1.22378,0.42912 1.607998,0.82914 0.154299,-0.0294 0.02799,0.39735 -0.02032,0.21403 z m 3.892156,0.0107 c 0.186206,-0.51105 0.740634,-1.21091 1.302763,-1.32178 0.940728,0.31324 -0.494592,1.10554 -0.931531,1.17215 -0.169925,-0.0443 -0.293731,0.18853 -0.371232,0.14963 z"
       id="path1400"
       inkscape:connector-curvature="0"
       sodipodi:nodetypes="ccccccccccccccccccccccccccccccccccccccccccccccccccccccccccccccccccc" />
  </g>
</svg>
