<?xml version="1.0" encoding="UTF-8" standalone="no"?>
<!-- Created with Inkscape (http://www.inkscape.org/) -->

<svg
   xmlns:dc="http://purl.org/dc/elements/1.1/"
   xmlns:cc="http://creativecommons.org/ns#"
   xmlns:rdf="http://www.w3.org/1999/02/22-rdf-syntax-ns#"
   xmlns:svg="http://www.w3.org/2000/svg"
   xmlns="http://www.w3.org/2000/svg"
   xmlns:sodipodi="http://sodipodi.sourceforge.net/DTD/sodipodi-0.dtd"
   xmlns:inkscape="http://www.inkscape.org/namespaces/inkscape"
   width="1in"
   height="1in"
   viewBox="0 0 25.4 25.400001"
   version="1.1"
   id="svg8"
   inkscape:version="0.92.3 (2405546, 2018-03-11)"
   sodipodi:docname="Fenris.svg">
  <defs
     id="defs2" />
  <sodipodi:namedview
     id="base"
     pagecolor="#ffffff"
     bordercolor="#666666"
     borderopacity="1.0"
     inkscape:pageopacity="0.0"
     inkscape:pageshadow="2"
     inkscape:zoom="5.6"
     inkscape:cx="32.796246"
     inkscape:cy="65.239347"
     inkscape:document-units="mm"
     inkscape:current-layer="layer1"
     showgrid="false"
     units="in"
     fit-margin-top="0"
     fit-margin-left="0"
     fit-margin-right="0"
     fit-margin-bottom="0"
     inkscape:window-width="1920"
     inkscape:window-height="1017"
     inkscape:window-x="-8"
     inkscape:window-y="-8"
     inkscape:window-maximized="1" />
  <metadata
     id="metadata5">
    <rdf:RDF>
      <cc:Work
         rdf:about="">
        <dc:format>image/svg+xml</dc:format>
        <dc:type
           rdf:resource="http://purl.org/dc/dcmitype/StillImage" />
        <dc:title></dc:title>
      </cc:Work>
    </rdf:RDF>
  </metadata>
  <g
     inkscape:label="Fenris"
     inkscape:groupmode="layer"
     id="layer1"
     transform="translate(-30.324776,-128.71618)">
    <path
       inkscape:connector-curvature="0"
       id="path830"
       d="m 42.027829,154.10094 c -0.387928,-0.027 -0.861168,-0.0862 -0.901863,-0.11289 -0.02186,-0.0143 -0.08577,-0.0282 -0.14241,-0.0309 -0.220139,-0.0106 -0.643203,-0.0833 -0.910335,-0.1565 -0.06658,-0.0182 -0.137142,-0.0332 -0.156814,-0.0332 -0.04386,0 -0.30579,-0.0689 -0.509146,-0.13394 -0.08289,-0.0265 -0.222288,-0.068 -0.30978,-0.0922 -0.08749,-0.0242 -0.196752,-0.0614 -0.2428,-0.0826 -0.04605,-0.0212 -0.1214,-0.0483 -0.167449,-0.0602 -0.297477,-0.0767 -1.404341,-0.56452 -1.557864,-0.68653 -0.03444,-0.0274 -0.07196,-0.0498 -0.08338,-0.0498 -0.01142,0 -0.02933,-0.0103 -0.0398,-0.0229 -0.01047,-0.0126 -0.05472,-0.0362 -0.09833,-0.0525 -0.04362,-0.0163 -0.09246,-0.041 -0.108537,-0.055 -0.01608,-0.0139 -0.06883,-0.0415 -0.117214,-0.0612 -0.17109,-0.0697 -0.847728,-0.51042 -1.278343,-0.83253 -0.880254,-0.65845 -1.924108,-1.69892 -2.575672,-2.56733 -0.958722,-1.27779 -1.658225,-2.69777 -2.068699,-4.19944 -0.122362,-0.44764 -0.26876,-1.13772 -0.26876,-1.26686 0,-0.0297 -0.007,-0.0673 -0.01567,-0.0833 -0.017,-0.0318 -0.09518,-0.63551 -0.108677,-0.83931 -0.0046,-0.0691 -0.01571,-0.21225 -0.02475,-0.31817 -0.02169,-0.25432 -0.02257,-1.60044 -0.0012,-1.90901 0.16914,-2.44746 1.004573,-4.70542 2.462845,-6.65644 0.592604,-0.79284 1.496842,-1.72214 2.317443,-2.38167 0.119725,-0.0962 0.239347,-0.18629 0.265825,-0.20014 0.02648,-0.0138 0.08894,-0.0584 0.138796,-0.099 0.09766,-0.0796 0.106693,-0.0833 0.134284,-0.0557 0.01303,0.013 0.02751,0.008 0.05135,-0.0175 0.02301,-0.0247 0.0686,-0.0411 0.14847,-0.0534 0.06339,-0.01 0.118189,-0.0205 0.121768,-0.0239 0.0036,-0.003 -0.01337,-0.0137 -0.03768,-0.0229 -0.03148,-0.012 -0.04418,-0.0288 -0.04418,-0.0587 0,-0.0475 0.06903,-0.0923 0.167448,-0.10872 0.04497,-0.008 0.0599,-0.0188 0.06415,-0.0487 0.0039,-0.0276 0.04266,-0.0622 0.133959,-0.11959 0.354754,-0.22292 0.595596,-0.35914 1.032641,-0.58409 0.81535,-0.41967 1.861413,-0.79333 2.838251,-1.01385 0.257726,-0.0582 0.668406,-0.13322 0.82887,-0.15146 0.04605,-0.005 0.170379,-0.0211 0.27629,-0.0352 0.337499,-0.0451 0.361448,-0.0461 0.405767,-0.0171 0.02235,0.0146 0.04565,0.0216 0.05176,0.0155 0.0061,-0.006 0.02543,0.002 0.04292,0.0177 0.03445,0.0312 0.04151,0.0293 0.202832,-0.0555 0.03223,-0.0169 0.121971,-0.0392 0.199415,-0.0496 0.177256,-0.0237 1.508047,-0.0249 1.843457,-0.002 2.353305,0.16265 4.525006,0.93886 6.43002,2.29823 0.559997,0.3996 0.997203,0.77447 1.548899,1.32806 0.461045,0.46263 0.493974,0.4988 0.493974,0.54256 0,0.0187 0.01086,0.034 0.02413,0.034 0.04222,0 0.04648,0.0332 0.0063,0.0487 -0.04458,0.0172 -0.02984,0.0262 0.07846,0.0481 0.06049,0.0122 0.08829,0.039 0.286997,0.27622 0.41879,0.49999 0.853548,1.11756 1.069523,1.51924 0.0619,0.11513 0.129627,0.22817 0.150504,0.25119 0.05213,0.0575 0.169409,0.26907 0.352722,0.63634 0.737609,1.47778 1.163066,3.05354 1.279549,4.73905 0.0092,0.13354 0.01677,0.56684 0.01677,0.96288 0,0.39604 -0.0076,0.82933 -0.01677,0.96288 -0.05823,0.8425 -0.19159,1.64663 -0.404092,2.43648 -0.109978,0.40878 -0.146613,0.51352 -0.182946,0.52301 -0.03614,0.009 -0.04174,0.0385 -0.01297,0.0672 0.01442,0.0144 0.0037,0.0506 -0.04325,0.14555 -0.03434,0.0695 -0.0694,0.13068 -0.07791,0.13594 -0.0085,0.005 -0.02727,0.0324 -0.04169,0.0603 -0.02383,0.0461 -0.0238,0.0534 3.95e-4,0.08 0.02335,0.0258 0.02375,0.0371 0.0033,0.0948 -0.03594,0.1013 -0.127987,0.28961 -0.147456,0.30164 -0.0096,0.006 -0.04562,0.002 -0.08002,-0.01 -0.05311,-0.0175 -0.07063,-0.0164 -0.116236,0.007 l -0.0537,0.0278 0.03848,0.0321 c 0.02847,0.0237 0.03195,0.0327 0.01337,0.0346 -0.0138,0.001 -0.03642,0.004 -0.05024,0.005 -0.01382,0.001 -0.02512,0.0136 -0.02512,0.0274 0,0.019 0.02459,0.0264 0.100469,0.0302 0.05526,0.003 0.10731,0.0119 0.115672,0.0202 0.0091,0.009 -0.0056,0.0575 -0.03646,0.12049 -0.02842,0.058 -0.06784,0.14681 -0.08762,0.19747 -0.05668,0.14522 -0.333233,0.68958 -0.494166,0.97272 -0.445181,0.78325 -0.978938,1.52658 -1.556127,2.16711 -0.341128,0.37856 -1.049643,1.07352 -1.308859,1.28382 -0.03785,0.0307 -0.132042,0.10894 -0.20931,0.17384 -0.257227,0.21605 -0.680271,0.52608 -0.86052,0.63064 -0.06447,0.0374 -0.136052,0.0851 -0.159075,0.10606 -0.02303,0.0209 -0.08028,0.0595 -0.12722,0.0857 -0.04695,0.0262 -0.126065,0.0789 -0.175821,0.1172 -0.192804,0.14831 -1.203367,0.69098 -1.425937,0.76573 -0.04379,0.0147 -0.133806,0.054 -0.200044,0.0874 -0.170363,0.0858 -0.619402,0.25901 -0.995333,0.38394 -1.005776,0.33424 -2.033379,0.53523 -3.120536,0.61038 -0.281263,0.0194 -1.675299,0.0187 -1.959147,-9.9e-4 z m 12.570888,-7.98066 c 0.06246,-0.0607 0.05671,-0.0928 -0.01022,-0.057 -0.01831,0.01 -0.0522,0.0178 -0.07529,0.0178 -0.05769,0 -0.06847,0.0257 -0.02782,0.0664 0.01875,0.0188 0.03773,0.0341 0.04217,0.0341 0.0044,0 0.03646,-0.0276 0.07117,-0.0613 z m -23.949011,-2.3598 c 0,-0.0546 -0.03562,-0.0662 -0.06418,-0.0209 -0.01281,0.0203 -0.01148,0.0353 0.0049,0.055 0.03204,0.0386 0.05931,0.0229 0.05931,-0.034 z m -0.04596,-0.17862 c -0.0083,-0.0251 -0.07962,-0.0387 -0.07962,-0.0151 0,0.0176 0.02763,0.0326 0.06419,0.0347 0.01228,7.9e-4 0.01922,-0.008 0.01543,-0.0196 z"
       style="fill:#757575;stroke-width:0.0167453" />
    <path
       inkscape:connector-curvature="0"
       id="path828"
       d="m 42.20365,154.10876 c -0.03684,-0.003 -0.172472,-0.014 -0.301407,-0.024 -0.128936,-0.01 -0.347173,-0.032 -0.484973,-0.0489 -0.221268,-0.0271 -0.254194,-0.0352 -0.281776,-0.0693 -0.02704,-0.0334 -0.04846,-0.0391 -0.159704,-0.0426 -0.202468,-0.006 -0.467397,-0.037 -0.622446,-0.0722 -0.07828,-0.0178 -0.18241,-0.0411 -0.231396,-0.0519 -0.0688,-0.0151 -0.09252,-0.0286 -0.104241,-0.0595 -0.01767,-0.0465 -0.05918,-0.0515 -0.102417,-0.0124 -0.02836,0.0257 -0.0422,0.0244 -0.202257,-0.018 -0.0945,-0.0251 -0.201954,-0.0594 -0.238793,-0.0762 -0.03684,-0.0169 -0.08393,-0.0357 -0.104655,-0.0418 -0.02072,-0.006 -0.03768,-0.019 -0.03768,-0.0288 0,-0.0108 -0.01988,-0.0137 -0.05101,-0.008 -0.05416,0.0108 -0.252342,-0.0368 -0.378711,-0.0909 -0.05169,-0.0221 -0.07263,-0.041 -0.07263,-0.0652 0,-0.037 -0.03245,-0.0452 -0.06196,-0.0157 -0.02517,0.0252 -0.147267,-0.0115 -0.490623,-0.14727 -0.297417,-0.11764 -0.926716,-0.40518 -1.063298,-0.48585 -0.07356,-0.0434 -0.08372,-0.0562 -0.08372,-0.10471 0,-0.0378 -0.01055,-0.0612 -0.03349,-0.074 -0.01842,-0.0103 -0.03952,-0.0282 -0.04688,-0.0397 -0.0074,-0.0115 -0.02997,-0.021 -0.05023,-0.0212 -0.02026,-1.7e-4 -0.04746,-0.007 -0.06044,-0.0152 -0.03161,-0.02 -0.07263,-0.003 -0.06161,0.026 0.01491,0.0389 -0.01464,0.0254 -0.03222,-0.0147 -0.01301,-0.0297 -0.03079,-0.0379 -0.08351,-0.0389 -0.08038,-0.002 -0.114148,-0.0183 -0.426994,-0.21284 -0.469103,-0.29165 -0.991328,-0.66569 -1.370344,-0.9815 -0.554424,-0.46197 -1.200067,-1.10056 -1.679396,-1.66103 -1.026028,-1.19973 -1.852543,-2.67206 -2.344596,-4.17659 -0.22083,-0.67522 -0.44717,-1.64945 -0.383212,-1.64945 0.0095,0 0.01732,0.0188 0.01732,0.0419 0,0.0521 0.01725,0.0529 0.06406,0.003 0.08015,-0.0853 0.01707,-0.19375 -0.06795,-0.11681 -0.0273,0.0247 -0.03377,0.0253 -0.04711,0.004 -0.01949,-0.0308 -0.01953,-0.0515 -1.77e-4,-0.0821 0.01244,-0.0197 0.02341,-0.0205 0.05891,-0.004 0.03675,0.0168 0.04528,0.0156 0.0541,-0.007 0.01604,-0.0418 -0.01769,-0.0808 -0.07484,-0.0865 -0.02832,-0.003 -0.06045,-0.016 -0.0714,-0.0291 -0.01774,-0.0214 -0.03727,-0.13282 -0.05855,-0.3341 -0.0039,-0.0368 -0.01538,-0.11597 -0.02552,-0.17583 -0.02716,-0.16038 -0.02267,-0.33808 0.009,-0.3558 0.03375,-0.0189 0.03243,-0.0573 -0.0026,-0.0769 -0.06754,-0.0378 -0.07548,-0.12682 -0.08442,-0.94579 -0.009,-0.82505 0.0026,-1.13228 0.06342,-1.67757 0.250821,-2.24928 1.074832,-4.33445 2.428633,-6.1457 0.597591,-0.79951 1.471178,-1.69631 2.297378,-2.35842 0.155099,-0.1243 0.27955,-0.21205 0.300729,-0.21205 0.02149,0 0.06459,-0.031 0.106365,-0.0765 0.06326,-0.0689 0.07363,-0.0744 0.104448,-0.0551 0.02988,0.0187 0.04353,0.0147 0.107828,-0.0315 0.04049,-0.0291 0.08798,-0.0533 0.105541,-0.0538 0.07971,-0.002 0.174258,-0.0226 0.174258,-0.0375 0,-0.009 -0.0226,-0.025 -0.05023,-0.0354 -0.03559,-0.0134 -0.05024,-0.0301 -0.05024,-0.0572 0,-0.031 0.0092,-0.0382 0.04884,-0.0382 0.02686,0 0.05225,-0.009 0.05642,-0.0209 0.006,-0.0166 0.01537,-0.0163 0.04489,0.001 0.02052,0.0122 0.03846,0.0197 0.03986,0.0168 0.0014,-0.003 0.01197,-0.0222 0.02349,-0.0428 0.01151,-0.0206 0.02093,-0.0519 0.02093,-0.0697 0,-0.0334 0.06558,-0.0792 0.360015,-0.25124 0.08289,-0.0484 0.184611,-0.10873 0.226055,-0.13398 0.07102,-0.0433 0.393213,-0.21576 0.577697,-0.30927 0.726861,-0.36842 1.546672,-0.68112 2.327534,-0.8878 0.666836,-0.1765 1.292833,-0.29328 1.321698,-0.24657 0.0063,0.0103 0.03733,0.004 0.08106,-0.0155 0.07813,-0.0355 0.129395,-0.0419 0.129395,-0.0161 0,0.0263 0.04558,0.0196 0.05629,-0.008 0.0068,-0.0178 0.03457,-0.0251 0.09499,-0.0251 0.04694,0 0.100081,-0.008 0.118086,-0.0175 0.018,-0.01 0.04199,-0.0118 0.05331,-0.005 0.01132,0.007 0.04055,0.0106 0.06497,0.008 0.02679,-0.003 0.05667,0.008 0.07536,0.0276 0.06116,0.0636 0.116583,0.0611 0.263573,-0.0121 0.08481,-0.0422 0.179784,-0.0747 0.252997,-0.0866 0.171787,-0.0278 1.396486,-0.0393 1.749725,-0.0164 2.832507,0.1835 5.437492,1.27142 7.56041,3.15744 0.259333,0.2304 0.845967,0.81703 0.883095,0.88309 0.0195,0.0347 0.04919,0.0675 0.06597,0.0728 0.05107,0.0162 0.0341,0.0409 -0.0281,0.0409 -0.06707,0 -0.07585,0.0226 -0.02093,0.0539 0.02072,0.0118 0.03768,0.0365 0.03768,0.055 0,0.0291 0.01398,0.0346 0.106663,0.042 0.09906,0.008 0.110836,0.0132 0.165193,0.0754 0.111453,0.12736 0.467697,0.57002 0.598799,0.74406 0.188738,0.25056 0.526832,0.76112 0.588464,0.88865 0.0289,0.0598 0.07394,0.15302 0.100088,0.20714 0.02614,0.0541 0.06432,0.10939 0.08484,0.12284 0.04322,0.0283 0.07275,0.0768 0.246614,0.40488 0.633339,1.19508 1.065783,2.50054 1.290487,3.8957 0.03781,0.23475 0.09297,0.69688 0.08476,0.71016 -0.0041,0.007 0.0042,0.0867 0.01835,0.17815 0.0349,0.22554 0.0515,1.61092 0.02432,2.03036 -0.05867,0.90547 -0.219252,1.83778 -0.459134,2.66558 -0.09691,0.33443 -0.103064,0.34922 -0.153223,0.36829 -0.04791,0.0182 -0.05065,0.0294 -0.01786,0.0727 0.02933,0.0387 0.0079,0.10807 -0.05035,0.16277 -0.02252,0.0212 -0.04094,0.0448 -0.04094,0.0526 0,0.0381 -0.08712,0.14746 -0.117422,0.14746 -0.01831,0 -0.03328,0.008 -0.03328,0.0168 0,0.009 0.01015,0.0168 0.02252,0.0168 0.03475,0 0.07795,0.0567 0.07795,0.10225 0,0.0337 -0.02461,0.0857 -0.06234,0.1317 -0.0036,0.004 -0.01274,-0.002 -0.02043,-0.0147 -0.0077,-0.0124 -0.02234,-0.0174 -0.03258,-0.0111 -0.02791,0.0172 -0.02241,0.0598 0.0077,0.0598 0.05228,0 0.01653,0.0578 -0.04327,0.07 -0.128452,0.0262 -0.160796,0.0373 -0.20589,0.0705 -0.02899,0.0214 -0.04413,0.0456 -0.03952,0.0632 0.0041,0.0157 -0.003,0.0326 -0.0158,0.0375 -0.03173,0.0122 -0.02946,0.071 0.0032,0.0836 0.01458,0.006 0.06782,0.0102 0.118342,0.0102 0.08747,0 0.09131,0.002 0.08046,0.0377 -0.0063,0.0207 -0.02857,0.0716 -0.04957,0.11303 -0.02099,0.0414 -0.04769,0.10173 -0.05933,0.13397 -0.03967,0.10991 -0.361326,0.74452 -0.509257,1.00474 -0.2404,0.42289 -0.541548,0.88888 -0.779179,1.2057 -0.05181,0.0691 -0.137186,0.1839 -0.189721,0.25516 -0.447912,0.60758 -1.29024,1.4786 -2.02907,2.09819 -0.128935,0.10813 -0.272429,0.22117 -0.318877,0.25121 -0.04645,0.03 -0.0945,0.0667 -0.106791,0.0815 -0.02162,0.0261 -0.193172,0.15035 -0.389985,0.28255 -0.05259,0.0353 -0.123219,0.0687 -0.156945,0.0742 -0.04593,0.007 -0.06936,0.0236 -0.09336,0.0643 -0.03244,0.055 -0.11553,0.10308 -0.145781,0.0844 -0.02781,-0.0172 -0.0996,0.0257 -0.109583,0.0655 -0.01463,0.0583 -0.130621,0.14288 -0.438343,0.31964 -0.316561,0.18184 -0.933843,0.49479 -1.036727,0.52559 -0.03684,0.011 -0.124898,0.0497 -0.195687,0.0858 -0.293951,0.15019 -1.186536,0.46814 -1.688108,0.60132 -0.268972,0.0714 -0.856143,0.20536 -0.987947,0.22537 -0.04144,0.006 -0.150704,0.0255 -0.242799,0.0427 -0.0921,0.0172 -0.220196,0.036 -0.284664,0.0419 -0.06447,0.006 -0.143586,0.0166 -0.175821,0.0241 -0.03223,0.007 -0.09251,0.0145 -0.133958,0.0157 -0.04144,10e-4 -0.10926,0.009 -0.150703,0.0183 -0.04144,0.009 -0.146937,0.0209 -0.234428,0.0267 -0.08749,0.006 -0.20052,0.0135 -0.251174,0.0171 -0.124081,0.009 -1.682054,0.0204 -1.766581,0.0131 z m 1.59076,-1.09604 c 0.782722,-0.0513 1.630551,-0.19924 2.402885,-0.41933 0.306791,-0.0874 0.789171,-0.25219 0.796494,-0.27205 0.0055,-0.0148 0.02305,-0.58536 0.02202,-0.71408 -1.68e-4,-0.0138 -0.0029,-0.65057 -0.0062,-1.41502 -0.005,-1.16463 -0.0023,-1.39575 0.01721,-1.42604 0.01912,-0.0297 0.01936,-0.0394 0.0012,-0.0544 -0.03498,-0.029 -0.03751,-0.61392 -0.003,-0.69648 0.01428,-0.0342 0.02165,-0.0794 0.01638,-0.10046 -0.0053,-0.0211 -0.003,-0.0424 0.005,-0.0473 0.008,-0.005 0.0124,-0.16309 0.0096,-0.35136 -0.0042,-0.28684 -9.89e-4,-0.34566 0.0199,-0.36298 0.02201,-0.0182 0.02202,-0.0248 1.66e-4,-0.0561 -0.01365,-0.0195 -0.0252,-0.0582 -0.02567,-0.0861 -5.93e-4,-0.0388 -0.01715,-0.0638 -0.0702,-0.10629 -0.03814,-0.0306 -0.07731,-0.0708 -0.08705,-0.0894 -0.01962,-0.0375 -0.07921,-0.0741 -0.143293,-0.0881 -0.02303,-0.005 -0.128517,-0.0699 -0.234427,-0.14423 -0.105912,-0.0743 -0.213066,-0.13937 -0.23812,-0.14459 -0.02505,-0.005 -0.0499,-0.0232 -0.05521,-0.0399 -0.0053,-0.0168 -0.04269,-0.0523 -0.08305,-0.0791 -0.04036,-0.0267 -0.09342,-0.0724 -0.117909,-0.10153 -0.02449,-0.0291 -0.05372,-0.0529 -0.06497,-0.0529 -0.01123,0 -0.06017,-0.0339 -0.108718,-0.0754 -0.04855,-0.0414 -0.100851,-0.0753 -0.116216,-0.0753 -0.03411,0 -0.09687,0.0383 -0.228873,0.13918 -0.05526,0.0423 -0.13061,0.0997 -0.167448,0.12774 -0.03684,0.028 -0.134745,0.10372 -0.217567,0.16827 -0.08282,0.0645 -0.156292,0.11736 -0.163262,0.11736 -0.03614,0 -0.006,0.0643 0.04175,0.0888 0.05955,0.0307 0.19373,0.1115 0.383875,0.23115 0.303846,0.1912 0.404181,0.25004 0.44297,0.25978 0.02289,0.006 0.05438,0.0299 0.06996,0.0537 0.02612,0.0399 0.02834,0.16615 0.02834,1.60713 v 1.56386 l -0.04706,0.0375 c -0.0369,0.0294 -0.0448,0.0465 -0.0366,0.0792 0.01151,0.0459 -0.01428,0.0774 -0.06782,0.0828 -0.018,0.002 -1.253417,0.003 -2.745383,0.003 -1.491965,0 -2.727388,-0.002 -2.745383,-0.003 -0.0508,-0.005 -0.07612,-0.0348 -0.07612,-0.089 0,-0.0313 -0.01392,-0.061 -0.03768,-0.0802 l -0.03768,-0.0305 v -1.56376 c 0,-1.44088 0.0022,-1.56715 0.02834,-1.60702 0.01559,-0.0238 0.04716,-0.048 0.07016,-0.0537 0.05239,-0.0132 0.173182,-0.0854 0.546946,-0.32709 0.05108,-0.033 0.146977,-0.0902 0.213109,-0.12704 0.06613,-0.0368 0.12028,-0.0783 0.120328,-0.0921 5e-5,-0.0138 -0.03557,-0.0498 -0.07915,-0.08 -0.04358,-0.0302 -0.207335,-0.15266 -0.363899,-0.2722 -0.156564,-0.11954 -0.302273,-0.22205 -0.323796,-0.22781 -0.02676,-0.007 -0.05323,9.9e-4 -0.08372,0.0256 -0.02453,0.0199 -0.0741,0.0566 -0.110168,0.0817 -0.03607,0.0251 -0.08881,0.0682 -0.117213,0.0959 -0.0284,0.0276 -0.08343,0.0718 -0.122283,0.0982 -0.03885,0.0264 -0.07515,0.0622 -0.08067,0.0796 -0.0055,0.0174 -0.02411,0.0316 -0.04132,0.0316 -0.01722,0 -0.08076,0.0339 -0.141203,0.0754 -0.06044,0.0414 -0.159355,0.10926 -0.2198,0.15071 -0.06045,0.0414 -0.128604,0.0753 -0.151465,0.0753 -0.02402,0 -0.05926,0.0195 -0.08349,0.0461 -0.02306,0.0253 -0.06701,0.0728 -0.09766,0.10558 -0.03065,0.0327 -0.06102,0.0836 -0.06749,0.11303 -0.0065,0.0296 -0.0224,0.0535 -0.03554,0.0535 -0.01308,0 -0.02379,0.008 -0.02379,0.0168 0,0.009 0.0113,0.0167 0.02512,0.0167 0.01382,0 0.02589,0.002 0.02682,0.004 9.3e-4,0.002 0.0046,0.15867 0.0081,0.34748 0.0035,0.18881 0.01049,0.40357 0.01548,0.47725 0.005,0.0737 0.0088,0.15373 0.0085,0.17788 -2.97e-4,0.0242 0.009,0.0519 0.02075,0.0616 0.01563,0.013 0.0195,0.0658 0.01455,0.1989 -0.008,0.21452 -0.0099,0.46951 -0.0044,0.57476 0.0022,0.0414 -0.005,0.13826 -0.016,0.21515 -0.01586,0.1111 -0.01552,0.1633 0.0016,0.25429 0.01755,0.093 0.0176,0.12879 2.38e-4,0.19082 -0.01615,0.0577 -0.01667,0.082 -0.0021,0.0995 0.02549,0.0307 0.02365,2.50805 -0.0019,2.57682 -0.01251,0.0337 -0.01154,0.0528 0.0036,0.0711 0.01141,0.0137 0.157377,0.0696 0.324377,0.12408 1.437923,0.46921 2.894724,0.65207 4.406123,0.55304 z m -5.875405,-1.45151 c -8.3e-4,-0.15427 5.1e-5,-0.32571 0.0019,-0.38097 0.0019,-0.0553 7.91e-4,-0.78621 -0.0024,-1.62434 -0.0056,-1.44838 -0.0043,-1.52685 0.0247,-1.58422 0.02879,-0.0569 0.02892,-0.0627 0.0023,-0.10047 -0.02568,-0.0364 -0.02836,-0.12144 -0.02889,-0.91927 -3.56e-4,-0.53717 -0.0069,-0.88983 -0.01685,-0.9066 -0.0089,-0.0151 -0.05769,-0.0599 -0.108348,-0.0997 -0.05065,-0.0397 -0.145858,-0.1178 -0.211567,-0.1735 -0.06571,-0.0557 -0.171201,-0.14366 -0.234428,-0.19547 -0.06323,-0.0518 -0.163936,-0.1348 -0.223799,-0.18444 -0.05986,-0.0496 -0.142732,-0.11653 -0.184155,-0.14863 -0.04142,-0.0321 -0.130901,-0.10969 -0.198842,-0.17242 -0.06794,-0.0627 -0.162148,-0.14339 -0.209349,-0.17926 -0.0472,-0.0359 -0.110792,-0.0865 -0.141313,-0.11246 l -0.05549,-0.0473 0.02817,-0.0833 c 0.01549,-0.0458 0.07171,-0.17445 0.124929,-0.28586 0.05322,-0.11142 0.121229,-0.25836 0.151132,-0.32655 0.0299,-0.0682 0.06606,-0.14184 0.08035,-0.16369 0.05869,-0.0897 0.05077,-0.2881 -0.02181,-0.54638 -0.04744,-0.16879 -0.05921,-0.22261 -0.05921,-0.27063 0,-0.027 -0.01819,-0.1203 -0.04041,-0.20738 -0.02223,-0.0871 -0.04562,-0.19977 -0.05199,-0.25043 -0.0064,-0.0506 -0.03785,-0.2202 -0.06996,-0.37678 -0.06552,-0.31944 -0.183092,-0.8816 -0.208388,-0.99637 -0.02496,-0.11324 -0.02975,-0.13705 -0.04038,-0.20095 -0.02352,-0.14123 -0.112776,-0.58657 -0.135935,-0.6782 -0.01397,-0.0553 -0.0314,-0.14192 -0.03874,-0.19258 -0.02353,-0.16234 -0.06795,-0.38969 -0.103067,-0.52749 -0.01878,-0.0737 -0.04114,-0.16411 -0.04969,-0.20095 -0.0086,-0.0368 -0.02232,-0.0821 -0.0306,-0.10047 -0.02784,-0.062 -0.03245,-0.11197 -0.01403,-0.1524 0.01007,-0.0221 0.02463,-0.0402 0.03236,-0.0402 0.0077,0 0.01406,-0.008 0.01406,-0.0179 0,-0.01 0.03014,-0.0537 0.06698,-0.0974 0.03684,-0.0437 0.06698,-0.0911 0.06698,-0.10541 0,-0.0143 0.01426,-0.0441 0.03168,-0.0662 0.01743,-0.0221 0.07851,-0.15316 0.135744,-0.29112 0.05723,-0.13796 0.140248,-0.33373 0.184477,-0.43504 0.04423,-0.10132 0.104383,-0.24072 0.133677,-0.3098 0.02929,-0.0691 0.0671,-0.15574 0.08401,-0.19258 0.01691,-0.0368 0.102223,-0.22523 0.189575,-0.41864 0.180412,-0.39946 0.421482,-0.91272 0.613494,-1.30617 0.07192,-0.14736 0.155161,-0.32068 0.184991,-0.38515 0.165396,-0.35748 0.384405,-0.79065 0.411815,-0.81451 0.02786,-0.0243 1.007426,-0.5198 2.07441,-1.0494 0.202612,-0.10057 0.741378,-0.36942 1.197256,-0.59744 0.455879,-0.22803 0.869367,-0.43252 0.918864,-0.45444 l 0.08999,-0.0398 h 0.740979 0.740978 l 0.08999,0.0399 c 0.0495,0.0219 0.462987,0.22627 0.918865,0.45405 0.455879,0.22779 0.983074,0.49054 1.171549,0.58389 0.931779,0.4615 2.072066,1.03878 2.100199,1.06324 0.02858,0.0249 0.193174,0.35144 0.452708,0.89828 0.05246,0.11052 0.135946,0.28384 0.18553,0.38515 0.141877,0.28987 0.398581,0.83851 0.57198,1.22244 0.08735,0.19341 0.17266,0.3818 0.189576,0.41864 0.01691,0.0368 0.05472,0.1235 0.08401,0.19258 0.02929,0.0691 0.08945,0.20848 0.133677,0.3098 0.04423,0.10131 0.127244,0.29708 0.184478,0.43504 0.05723,0.13796 0.118318,0.26897 0.135744,0.29112 0.01742,0.0222 0.03168,0.052 0.03168,0.0662 0,0.0143 0.03014,0.0617 0.06698,0.10541 0.03684,0.0437 0.06698,0.0844 0.06698,0.0905 0,0.006 0.01499,0.0301 0.0333,0.0534 0.03314,0.0421 0.03322,0.0852 3.96e-4,0.16389 -0.03975,0.095 -0.146268,0.57237 -0.183091,0.82054 -0.0082,0.0553 -0.02632,0.14569 -0.04026,0.20095 -0.05282,0.20927 -0.130687,0.63138 -0.121093,0.65638 0.0055,0.0143 0.0033,0.0345 -0.0049,0.0449 -0.0082,0.0103 -0.0193,0.0414 -0.02466,0.0691 -0.0054,0.0276 -0.0174,0.0841 -0.02678,0.12559 -0.06421,0.28364 -0.259608,1.24654 -0.355107,1.74993 -0.0408,0.21509 -0.0533,0.27316 -0.07388,0.34329 -0.07307,0.24902 -0.0801,0.44849 -0.01908,0.54189 0.01287,0.0197 0.04995,0.0961 0.08239,0.1698 0.03244,0.0737 0.101901,0.22439 0.154358,0.33492 0.172059,0.36251 0.169619,0.33593 0.04024,0.43802 -0.05653,0.0446 -0.171404,0.1419 -0.255288,0.21622 -0.08388,0.0743 -0.194643,0.16851 -0.246134,0.20932 -0.05149,0.0408 -0.170666,0.13825 -0.264832,0.21654 -0.09417,0.0783 -0.197745,0.16272 -0.230174,0.18764 -0.05267,0.0405 -0.261907,0.21614 -0.396819,0.33316 l -0.0502,0.0436 -0.0035,1.74824 c -0.002,0.96154 -0.0036,1.77086 -0.0037,1.79849 0,0.0276 9.88e-4,0.54194 0.0023,1.1429 0.0021,0.96971 0.0053,1.09266 0.0281,1.09266 0.01412,0 0.130918,-0.0553 0.259544,-0.12298 2.276974,-1.19734 4.143361,-3.19905 5.186184,-5.5622 0.964868,-2.1865 1.236777,-4.60349 0.780871,-6.94112 -0.167153,-0.85706 -0.465791,-1.79041 -0.822213,-2.56972 -0.825563,-1.80505 -2.06145,-3.33441 -3.655119,-4.52306 -3.553741,-2.65052 -8.332611,-3.03874 -12.274056,-0.99709 -1.377527,0.71356 -2.583415,1.68343 -3.593669,2.89031 -0.892994,1.06681 -1.604756,2.3327 -2.062942,3.669 -0.715074,2.08553 -0.818461,4.36728 -0.29519,6.51485 0.521088,2.13861 1.626988,4.07087 3.198658,5.5888 0.721716,0.69704 1.500013,1.2819 2.342344,1.76018 0.303586,0.17237 0.603211,0.32533 0.638619,0.32601 0.02369,3.9e-4 0.0267,-0.0328 0.02539,-0.27998 z m 12.72945,-0.2274 c 0.0038,-0.0194 -0.0026,-0.0248 -0.02093,-0.0177 -0.03095,0.0119 -0.03619,0.0628 -0.0054,0.0526 0.01151,-0.004 0.02336,-0.0195 0.02633,-0.0348 z m 3.983039,-5.20515 c 0.04431,-0.0384 0.08056,-0.0779 0.08056,-0.0879 0,-0.0295 -0.109116,-0.0324 -0.131255,-0.004 -0.0107,0.0139 -0.04551,0.0277 -0.07737,0.0305 -0.05403,0.005 -0.05818,0.009 -0.06184,0.0679 -0.0038,0.061 -0.0023,0.0628 0.05271,0.0628 0.04239,0 0.07691,-0.0175 0.137193,-0.0697 z m -14.719972,-1.52259 c 0.100252,-0.0376 0.189813,-0.0745 0.199022,-0.0818 0.0092,-0.007 0.07384,-0.037 0.143618,-0.0659 l 0.126873,-0.0525 0.0049,-0.45596 c 0.0027,-0.25078 0.0064,-0.59161 0.0083,-0.75739 0.0019,-0.16579 0.0094,-0.31468 0.01663,-0.33088 0.0073,-0.0162 0.03313,-0.0342 0.05744,-0.0399 0.02431,-0.006 0.0555,-0.02 0.06932,-0.0317 0.01381,-0.0117 0.138145,-0.081 0.27629,-0.15403 0.138145,-0.073 0.305572,-0.16423 0.372059,-0.20261 0.06649,-0.0384 0.131404,-0.0698 0.144259,-0.0698 0.01286,0 0.04467,-0.0168 0.07069,-0.0372 0.08763,-0.0689 0.265223,-0.18047 0.287349,-0.18047 0.01207,0 0.03503,-0.007 0.05102,-0.0157 0.01599,-0.009 0.05006,-0.0202 0.07572,-0.0256 0.0279,-0.006 0.05261,-0.0256 0.06151,-0.049 0.0082,-0.0215 0.0258,-0.0433 0.03917,-0.0484 0.01387,-0.005 0.02947,-0.044 0.03634,-0.0902 0.0066,-0.0445 0.01786,-0.0884 0.02497,-0.0976 0.0071,-0.009 0.01814,-0.0394 0.0245,-0.067 0.0064,-0.0276 0.02268,-0.0992 0.03626,-0.15908 0.0319,-0.14061 0.0579,-0.53484 0.03782,-0.57339 -0.0084,-0.016 -0.05525,-0.0588 -0.10422,-0.0949 -0.04897,-0.0362 -0.101991,-0.0787 -0.117828,-0.0946 -0.01584,-0.0158 -0.07915,-0.053 -0.140701,-0.0827 -0.14648,-0.0705 -0.955159,-0.58455 -1.002767,-0.63738 -0.02028,-0.0225 -0.04518,-0.0409 -0.05534,-0.0409 -0.02899,0 -0.404989,-0.23371 -0.599453,-0.3726 -0.06126,-0.0438 -0.118288,-0.0795 -0.126742,-0.0795 -0.0272,0 -0.190052,-0.11529 -0.230668,-0.1633 -0.02164,-0.0256 -0.0721,-0.0573 -0.112142,-0.0704 -0.04004,-0.0131 -0.156836,-0.0789 -0.259546,-0.14622 -0.102709,-0.0673 -0.199968,-0.12234 -0.216131,-0.12238 -0.02848,-5e-5 -0.123716,0.0776 -0.440328,0.35917 -0.08336,0.0741 -0.29001,0.25158 -0.459222,0.39434 -0.339488,0.28641 -0.472968,0.41621 -0.460643,0.44795 0.0045,0.0115 0.01231,0.0312 0.01742,0.0438 0.0051,0.0126 -0.01357,0.0444 -0.04186,0.0711 -0.04076,0.0385 -0.05115,0.0621 -0.05115,0.11646 0,0.0776 0.04249,0.23338 0.07718,0.2829 0.01281,0.0183 0.02329,0.0575 0.02329,0.0872 0,0.0297 0.0075,0.0586 0.01675,0.0642 0.0092,0.006 0.01688,0.0419 0.01703,0.0805 3.17e-4,0.0759 0.09577,0.4649 0.139987,0.57041 0.01494,0.0357 0.02717,0.0797 0.02717,0.0979 0,0.0182 0.01047,0.0531 0.02326,0.0775 0.0128,0.0245 0.03098,0.0821 0.04042,0.12818 0.0094,0.0461 0.03281,0.14778 0.05194,0.22606 0.01913,0.0783 0.05784,0.23654 0.08602,0.35167 0.02818,0.11512 0.06122,0.25076 0.07341,0.30142 0.0772,0.32067 0.161012,0.58328 0.228811,0.71696 0.02656,0.0524 0.04838,0.10342 0.0485,0.11345 2.37e-4,0.0212 0.07244,0.0572 0.114028,0.0569 0.01568,-1.6e-4 0.18196,-0.0755 0.369504,-0.16745 0.187544,-0.092 0.344247,-0.16723 0.34823,-0.16723 0.004,0 0.06357,-0.0264 0.13242,-0.0586 0.06885,-0.0322 0.128183,-0.0586 0.131854,-0.0586 0.02089,0 0.02865,0.15805 0.03384,0.6892 0.006,0.61343 0.01527,0.73419 0.05642,0.73419 0.0082,0 0.09702,-0.0308 0.197278,-0.0685 z m -0.60473,-2.1011 c -0.05526,-0.0138 -0.164518,-0.0565 -0.242801,-0.0949 -0.118512,-0.0581 -0.170443,-0.098 -0.310313,-0.23818 -0.191618,-0.19203 -0.266943,-0.32103 -0.327705,-0.56121 -0.03083,-0.12185 -0.03465,-0.17342 -0.02732,-0.36841 0.01296,-0.34499 0.09515,-0.54648 0.319811,-0.78401 0.148147,-0.15664 0.320316,-0.27121 0.500507,-0.33307 0.129052,-0.0443 0.155539,-0.0474 0.405977,-0.0474 0.301595,0 0.402166,0.0227 0.611187,0.13786 0.132236,0.0729 0.385953,0.32306 0.465854,0.45938 0.108866,0.18574 0.142413,0.31434 0.14999,0.57496 0.0082,0.28246 -0.01501,0.40289 -0.117869,0.61122 -0.05582,0.11306 -0.09962,0.17161 -0.212959,0.28468 -0.144917,0.14456 -0.23262,0.20232 -0.476826,0.31402 -0.134049,0.0613 -0.135956,0.0616 -0.385888,0.0658 -0.179326,0.003 -0.279911,-0.003 -0.351641,-0.0208 z m 0.432949,-0.4861 c 0.138827,-0.0358 0.350638,-0.14816 0.412682,-0.21883 0.0704,-0.0802 0.160938,-0.2661 0.194339,-0.39908 0.02622,-0.1044 0.02623,-0.11838 1.67e-4,-0.21215 -0.03556,-0.1279 -0.128843,-0.31357 -0.195945,-0.39 -0.06308,-0.0719 -0.311618,-0.19987 -0.43961,-0.22644 -0.112568,-0.0234 -0.242166,0.006 -0.414886,0.0925 -0.164245,0.0827 -0.22213,0.14117 -0.30629,0.3093 -0.100918,0.2016 -0.120155,0.30033 -0.08498,0.43609 0.03308,0.12765 0.123888,0.31192 0.191906,0.38939 0.06007,0.0684 0.254394,0.17421 0.393859,0.21442 0.1269,0.0366 0.125686,0.0366 0.248756,0.005 z m 6.62868,2.58856 c 0.0074,-0.0322 0.01644,-0.32772 0.02018,-0.65676 0.0061,-0.5353 0.01446,-0.69954 0.03571,-0.69954 0.0037,0 0.06301,0.0264 0.131853,0.0586 0.06885,0.0322 0.128439,0.0586 0.132422,0.0586 0.004,0 0.160685,0.0753 0.34823,0.16723 0.187543,0.092 0.354672,0.16732 0.371391,0.16745 0.05892,4e-4 0.09464,-0.035 0.151446,-0.15033 0.08935,-0.18137 0.182602,-0.49494 0.323757,-1.08862 0.02299,-0.0967 0.05681,-0.23612 0.07514,-0.3098 0.01833,-0.0737 0.04105,-0.17164 0.05049,-0.21769 0.0094,-0.0461 0.02762,-0.10373 0.04041,-0.12818 0.0128,-0.0245 0.02327,-0.0606 0.02327,-0.0804 0,-0.0198 0.01046,-0.0563 0.02323,-0.0811 0.03574,-0.0696 0.144223,-0.51114 0.144223,-0.58703 0,-0.0371 0.0075,-0.0721 0.01675,-0.0778 0.0092,-0.006 0.01675,-0.0348 0.01675,-0.0646 0,-0.0299 0.0073,-0.0616 0.0162,-0.0705 0.02825,-0.0283 0.08427,-0.22659 0.08427,-0.29835 0,-0.0553 -0.01019,-0.0787 -0.05115,-0.11732 -0.02829,-0.0267 -0.047,-0.0585 -0.04186,-0.0711 0.0051,-0.0126 0.01321,-0.0324 0.018,-0.0442 0.01262,-0.0309 -0.145842,-0.18093 -0.626771,-0.59339 -0.234024,-0.2007 -0.488588,-0.41954 -0.565696,-0.48632 -0.07711,-0.0668 -0.153388,-0.1214 -0.169506,-0.1214 -0.01612,0 -0.115458,0.0565 -0.220749,0.12559 -0.105291,0.0691 -0.204435,0.12559 -0.220316,0.12559 -0.01588,0 -0.03354,0.008 -0.03923,0.0168 -0.0057,0.009 -0.02201,0.0168 -0.03625,0.0168 -0.01424,0 -0.04088,0.019 -0.05918,0.0423 -0.03465,0.0441 -0.217835,0.1754 -0.244632,0.1754 -0.0085,0 -0.06448,0.0358 -0.124494,0.0795 -0.06001,0.0437 -0.142048,0.0995 -0.182296,0.12385 -0.04025,0.0244 -0.144761,0.0901 -0.232252,0.14601 -0.08749,0.0559 -0.168857,0.10194 -0.180811,0.10222 -0.01195,2.8e-4 -0.03833,0.0189 -0.05861,0.0414 -0.04761,0.0528 -0.856285,0.56684 -1.002765,0.63738 -0.06155,0.0296 -0.124864,0.0668 -0.140702,0.0827 -0.01584,0.0158 -0.06886,0.0584 -0.117828,0.0946 -0.04897,0.0362 -0.09579,0.0789 -0.104042,0.0949 -0.01739,0.0338 0.0035,0.42262 0.02948,0.54827 0.02676,0.12951 0.05538,0.23272 0.06976,0.25161 0.0072,0.009 0.01829,0.0565 0.02468,0.10466 0.0075,0.0566 0.01959,0.0875 0.03425,0.0875 0.01246,0 0.02732,0.0186 0.03304,0.0414 0.0079,0.0315 0.02501,0.044 0.07149,0.0524 0.0336,0.006 0.06862,0.0166 0.07783,0.0235 0.0092,0.007 0.03558,0.0182 0.05861,0.0252 0.02302,0.007 0.106592,0.0569 0.185707,0.1109 0.07912,0.054 0.154673,0.0982 0.167908,0.0982 0.01323,0 0.03893,0.0104 0.05709,0.0231 0.05584,0.039 0.156116,0.0946 0.434904,0.24111 0.147356,0.0774 0.279815,0.15139 0.294353,0.16435 0.01454,0.013 0.03759,0.0236 0.05122,0.0236 0.01363,0 0.03941,0.0107 0.05729,0.0238 0.02997,0.0219 0.03268,0.0477 0.03481,0.33073 0.0012,0.16882 0.0045,0.51594 0.0072,0.77136 l 0.0049,0.46441 0.126711,0.0524 c 0.06969,0.0288 0.134247,0.0585 0.143457,0.0659 0.02953,0.0237 0.367484,0.14838 0.392839,0.14496 0.01345,-0.002 0.03047,-0.0296 0.03783,-0.0618 z m -0.213224,-2.0934 c -0.06716,-0.0134 -0.250945,-0.0983 -0.429019,-0.19834 -0.119378,-0.067 -0.310936,-0.26768 -0.388052,-0.40643 -0.115577,-0.20796 -0.137286,-0.30649 -0.136035,-0.61739 9.89e-4,-0.256 0.0044,-0.28541 0.04594,-0.4003 0.104795,-0.28994 0.353234,-0.57225 0.616983,-0.7011 0.20297,-0.0992 0.353264,-0.12726 0.6231,-0.1165 0.180101,0.007 0.243298,0.0169 0.349146,0.0537 0.334204,0.11615 0.642211,0.42391 0.758396,0.75778 0.03768,0.10827 0.04673,0.16822 0.0539,0.35685 0.0074,0.19518 0.0036,0.24645 -0.02723,0.36841 -0.06061,0.2396 -0.136125,0.3691 -0.327705,0.56204 -0.141899,0.14289 -0.190082,0.17984 -0.310313,0.23793 -0.07828,0.0378 -0.19131,0.0803 -0.251173,0.0943 -0.116567,0.0274 -0.458738,0.0327 -0.577934,0.009 z m 0.382951,-0.49516 c 0.138828,-0.0358 0.350637,-0.14816 0.412683,-0.21883 0.06975,-0.0794 0.160841,-0.26572 0.193472,-0.39564 0.02481,-0.0988 0.02491,-0.11729 0.0012,-0.21014 -0.03899,-0.1522 -0.126619,-0.32001 -0.211357,-0.40476 -0.08489,-0.0849 -0.252591,-0.17239 -0.40549,-0.21156 -0.09253,-0.0237 -0.112749,-0.0238 -0.206513,-6.3e-4 -0.152395,0.0376 -0.323568,0.12632 -0.409433,0.21219 -0.08293,0.0829 -0.168112,0.24408 -0.211484,0.40009 -0.02588,0.0931 -0.026,0.10941 -0.0016,0.20844 0.03309,0.1341 0.117661,0.30958 0.189845,0.39391 0.06346,0.0741 0.254305,0.18014 0.39996,0.22213 0.126899,0.0366 0.125685,0.0366 0.248756,0.005 z m -15.992157,1.32202 c 0.01783,-0.0178 -0.0045,-0.0387 -0.03068,-0.0287 -0.01347,0.005 -0.02032,0.0162 -0.01522,0.0244 0.01085,0.0176 0.03077,0.0194 0.0459,0.004 z M 52.334356,133.0361 c 0.0057,-0.009 -0.0018,-0.0215 -0.01647,-0.0272 -0.03206,-0.0123 -0.04993,10e-4 -0.03452,0.0262 0.0139,0.0225 0.03742,0.023 0.051,9.9e-4 z m -16.485375,-1.91208 c 0,-0.022 -0.03806,-0.008 -0.0464,0.0168 -0.0041,0.0122 0.0036,0.016 0.01988,0.01 0.01458,-0.006 0.02652,-0.0175 0.02652,-0.0265 z"
       style="fill:#030303;stroke-width:0.0167453" />
  </g>
</svg>
