<?xml version="1.0" encoding="UTF-8" standalone="no"?>
<!-- Created with Inkscape (http://www.inkscape.org/) -->

<svg
   xmlns:dc="http://purl.org/dc/elements/1.1/"
   xmlns:cc="http://creativecommons.org/ns#"
   xmlns:rdf="http://www.w3.org/1999/02/22-rdf-syntax-ns#"
   xmlns:svg="http://www.w3.org/2000/svg"
   xmlns="http://www.w3.org/2000/svg"
   xmlns:sodipodi="http://sodipodi.sourceforge.net/DTD/sodipodi-0.dtd"
   xmlns:inkscape="http://www.inkscape.org/namespaces/inkscape"
   width="85.989586mm"
   height="85.989616mm"
   viewBox="0 0 85.989584 85.989614"
   version="1.1"
   id="svg4550"
   inkscape:version="0.92.3 (2405546, 2018-03-11)"
   sodipodi:docname="albion.svg">
  <defs
     id="defs4544" />
  <sodipodi:namedview
     id="base"
     pagecolor="#ffffff"
     bordercolor="#666666"
     borderopacity="1.0"
     inkscape:pageopacity="0.0"
     inkscape:pageshadow="2"
     inkscape:zoom="1.0547263"
     inkscape:cx="271.82915"
     inkscape:cy="181.73194"
     inkscape:document-units="mm"
     inkscape:current-layer="layer1"
     showgrid="false"
     fit-margin-top="0"
     fit-margin-left="0"
     fit-margin-right="0"
     fit-margin-bottom="0"
     inkscape:window-width="1920"
     inkscape:window-height="1017"
     inkscape:window-x="1912"
     inkscape:window-y="-8"
     inkscape:window-maximized="1" />
  <metadata
     id="metadata4547">
    <rdf:RDF>
      <cc:Work
         rdf:about="">
        <dc:format>image/svg+xml</dc:format>
        <dc:type
           rdf:resource="http://purl.org/dc/dcmitype/StillImage" />
        <dc:title></dc:title>
      </cc:Work>
    </rdf:RDF>
  </metadata>
  <g
     inkscape:label="Layer 1"
     inkscape:groupmode="layer"
     id="layer1"
     transform="translate(-2.0198665e-6,-36.770769)">
    <path
       style="display:inline;fill:#000008;fill-opacity:1;stroke-width:0.05930452"
       d="m 42.99456,36.770772 c -2.766938,-3.75e-4 -3.483712,0.04077 -5.623761,0.321621 -0.858921,0.112719 -1.003105,0.167077 -0.869975,0.327498 0.113046,0.13622 -0.01159,0.373275 -0.220012,0.41903 -0.09081,0.01994 -0.204678,0.05265 -0.253604,0.07306 -0.04893,0.02041 -0.169187,0.03814 -0.267038,0.03947 -0.162324,0.0022 -0.176622,0.01825 -0.157872,0.180543 l 0.021,0.178026 -0.139397,-0.126801 c -0.07654,-0.06964 -0.199935,-0.145288 -0.274597,-0.167948 -0.124083,-0.03766 -0.132224,-0.027 -0.09489,0.121762 0.03611,0.143894 0.02737,0.157501 -0.07222,0.114205 -0.06196,-0.02693 -0.172658,-0.04801 -0.246045,-0.04619 -0.09302,0.0023 -0.133519,-0.0309 -0.133519,-0.110006 0,-0.08869 -0.02973,-0.106456 -0.136039,-0.07977 -0.08943,0.02245 -0.191803,-0.0098 -0.298949,-0.09405 -0.08962,-0.07049 -0.261941,-0.13486 -0.382924,-0.143595 -0.233476,-0.01685 -1.727651,0.318845 -2.786268,0.625606 -1.814049,0.525666 -4.444749,1.492808 -5.243358,1.928042 -0.08803,0.04798 -0.261461,0.12365 -0.385443,0.167947 -0.328598,0.117399 -1.52699,0.70423 -1.550166,0.759125 -0.01087,0.02576 -0.06405,0.04685 -0.118404,0.04702 -0.05436,2.01e-4 -0.165343,0.03567 -0.246885,0.07894 -0.08154,0.04326 -0.442333,0.23297 -0.801115,0.42155 -0.876491,0.460691 -1.08423,0.583433 -1.786974,1.053873 -0.330633,0.221337 -0.626749,0.402234 -0.658359,0.402234 -0.03161,0 -0.179671,0.09325 -0.329179,0.207416 -0.149507,0.114165 -0.296522,0.207416 -0.325821,0.207416 -0.103304,0 -1.654803,1.052734 -2.533506,1.718948 -6.683644,5.06739 -11.6763823,11.806133 -14.4964914,19.56425 -1.3628488,3.749197 -2.11561955,7.181271 -2.50579452,11.424657 -0.10303981,1.120348 -0.10244312,5.579964 8.3981e-4,6.731353 0.30287025,3.376349 0.86310797,6.313761 1.77101891,9.281639 0.4319724,1.412079 1.1410819,3.336353 1.4670319,3.982051 0.084723,0.167824 0.1536731,0.325296 0.1536731,0.35017 0,0.02487 0.1039764,0.274814 0.2309294,0.555064 0.1269531,0.28025 0.3553245,0.789476 0.5080448,1.131969 0.1527207,0.342493 0.507019,1.049258 0.7868398,1.571155 2.6925389,5.021868 6.1329142,9.242118 10.5404602,12.929468 0.983735,0.823 2.524677,1.96902 2.806422,2.08675 0.119786,0.05 0.253277,0.14074 0.29643,0.20238 0.04315,0.0616 0.113949,0.11252 0.157032,0.11252 0.04308,0 0.11341,0.0425 0.156192,0.0941 0.04898,0.0587 0.133617,0.0823 0.22925,0.0638 0.126213,-0.0245 0.212796,0.0342 0.513923,0.34681 0.199282,0.2069 0.452891,0.41912 0.563468,0.47109 0.110576,0.052 0.36105,0.19972 0.556749,0.32918 0.195701,0.12947 0.529487,0.33124 0.741494,0.44759 0.212007,0.11635 0.62597,0.34323 0.919519,0.50468 0.293549,0.16144 0.579659,0.30957 0.635686,0.32917 0.05603,0.0197 0.21554,0.0997 0.355212,0.17803 1.030922,0.57816 2.711554,1.34771 3.872057,1.77353 0.326165,0.11968 0.766293,0.28578 0.978301,0.36865 0.639407,0.24991 2.107929,0.72215 3.091095,0.99425 2.895986,0.80146 5.734804,1.28368 8.887846,1.50985 0.407711,0.0292 1.595586,0.0394 2.639313,0.0219 1.043726,-0.0176 2.071252,-0.0319 2.283264,-0.0319 0.714996,4.3e-4 2.552295,-0.1655 3.804878,-0.34429 4.617656,-0.65911 8.845114,-1.96511 13.066405,-4.03495 1.135224,-0.55664 2.470189,-1.29843 2.672906,-1.4855 0.06734,-0.0621 0.157064,-0.11252 0.199856,-0.11252 0.09417,0 1.040726,-0.57442 1.136175,-0.68943 0.03727,-0.045 0.09116,-0.0815 0.119241,-0.0815 0.04748,0 0.51087,-0.29905 1.403216,-0.9044 1.789854,-1.21422 3.716382,-2.80982 5.491923,-4.54971 6.178053,-6.05399 10.316176,-13.663816 12.072154,-22.198519 0.275673,-1.339882 0.555235,-3.308457 0.725537,-5.114013 0.103418,-1.098291 0.104777,-5.810452 0.0014,-6.879987 C 85.508326,72.129682 84.855787,69.132414 83.487545,65.175852 82.923883,63.545893 81.899053,61.230972 80.993506,59.54204 76.761183,51.647728 70.349929,45.364802 62.44638,41.367506 61.761433,41.021088 60.920422,40.621114 60.577947,40.478223 60.235476,40.335331 59.753593,40.129994 59.507276,40.022244 59.260958,39.914493 58.807745,39.73431 58.499584,39.621688 58.191418,39.509065 57.659103,39.310332 57.316386,39.179985 55.088594,38.332692 51.692705,37.506647 48.866046,37.125142 46.569025,36.815124 45.836985,36.771128 42.99456,36.770772 Z m -8.15055,0.864932 c -0.01681,-0.0022 -0.0322,0.0011 -0.04282,0.01175 -0.0174,0.01741 -0.01394,0.0601 0.0076,0.09489 0.04832,0.07818 0.150314,0.08335 0.150314,0.0076 0,-0.05248 -0.06459,-0.107795 -0.115045,-0.114205 z m 7.660979,1.245334 c 2.808809,-0.04259 6.140799,0.357586 9.53361,1.152962 1.028772,0.241176 2.686113,0.682162 2.87612,0.765003 0.09785,0.04266 0.245118,0.09652 0.326662,0.120082 0.823132,0.237864 2.909132,1.044776 4.091228,1.58207 3.027471,1.376066 5.312979,2.689038 7.817172,4.491767 0.434278,0.312636 0.849767,0.608589 0.922876,0.657516 0.153978,0.103032 0.831521,0.652368 1.638342,1.328467 0.947461,0.793943 1.651579,1.442683 2.550298,2.349592 0.472949,0.477247 0.933115,0.898638 1.022812,0.936309 0.0897,0.03767 0.162912,0.09516 0.162905,0.128481 0,0.03332 0.06135,0.0613 0.136044,0.0613 0.07531,0 0.252861,0.1055 0.398879,0.237646 0.233781,0.211584 0.25497,0.251654 0.189781,0.35605 -0.0671,0.107432 -0.05807,0.117563 0.104966,0.117563 0.208104,0 0.224676,0.05803 0.05961,0.207416 -0.164496,0.148887 -0.148365,0.22789 0.03691,0.181383 0.143412,-0.036 0.152882,-0.02735 0.117566,0.113365 -0.02711,0.107865 -0.01191,0.162721 0.05205,0.187263 0.04973,0.01908 0.08985,0.07278 0.08985,0.119242 0,0.04646 0.04006,0.100469 0.08902,0.119244 0.04896,0.01877 0.08957,0.06432 0.08986,0.101608 4.35e-4,0.05812 0.210458,0.354437 0.698669,0.986694 0.29446,0.38135 1.539623,2.261627 2.062415,3.113754 2.125459,3.464352 3.676317,7.074187 4.878908,11.357477 0.06871,0.244638 0.182006,0.697812 0.251922,1.007688 0.0699,0.309875 0.163802,0.723804 0.208259,0.919515 0.661665,2.913052 1.026356,6.32793 0.953106,8.925593 -0.036,1.276249 -0.199524,3.185126 -0.367809,4.299466 -0.04924,0.326183 -0.117062,0.780198 -0.151152,1.008526 -0.520053,3.483741 -1.951305,8.086767 -3.525242,11.339007 -1.690319,3.492713 -3.74346,6.689943 -5.952102,9.269883 -1.84536,2.15558 -3.068746,3.32754 -5.373518,5.14676 -1.326646,1.04717 -3.441692,2.4933 -4.669814,3.19353 -0.236674,0.13494 -0.581507,0.34314 -0.766686,0.46185 -0.185179,0.11872 -0.419736,0.24446 -0.520641,0.27963 -0.100905,0.0352 -0.210452,0.11455 -0.243528,0.17635 -0.03306,0.0618 -0.105039,0.11253 -0.160392,0.11253 -0.05533,0 -0.429669,0.16094 -0.831344,0.35857 -0.540574,0.26597 -0.744422,0.39752 -0.78516,0.50468 -0.03026,0.0796 -0.08858,0.14508 -0.130162,0.14527 -0.04162,0 -0.15571,0.0418 -0.252763,0.0924 -0.09704,0.0506 -0.229859,0.0777 -0.295589,0.0605 -0.07265,-0.019 -0.212327,0.0309 -0.356888,0.12764 -0.130777,0.0875 -0.24701,0.16475 -0.257802,0.17131 -0.01079,0.006 0.01174,0.0695 0.04954,0.14024 0.05435,0.10158 0.05094,0.1495 -0.01595,0.22757 -0.04658,0.0543 -0.101519,0.14529 -0.121761,0.20238 -0.02025,0.0571 -0.0777,0.10412 -0.127643,0.10412 -0.04994,0 -0.09069,0.027 -0.09069,0.0596 0,0.0777 0.0245,0.0753 0.267036,-0.026 0.225091,-0.094 0.345705,-0.0209 0.143595,0.0873 -0.09729,0.0521 -0.11974,0.1058 -0.09489,0.23009 0.02102,0.10502 -0.007,0.22216 -0.08145,0.33505 -0.14248,0.21616 -0.146406,0.35676 -0.01178,0.43751 0.09843,0.059 0.0984,0.0661 -0.0034,0.1268 -0.08653,0.0518 -0.09306,0.0805 -0.03444,0.15115 0.10943,0.13185 -0.07427,0.2783 -0.61637,0.49209 -0.511305,0.20164 -0.695309,0.22654 -0.695309,0.0932 0,-0.0494 0.05254,-0.089 0.118403,-0.089 0.15053,0 0.14945,-0.0131 -0.02941,-0.29643 -0.178647,-0.28301 -0.180105,-0.29643 -0.03109,-0.29643 0.06451,0 0.160698,0.0662 0.214136,0.14779 0.124492,0.19003 0.19917,0.18324 0.371166,-0.0345 0.112758,-0.14269 0.125799,-0.19303 0.06718,-0.26368 -0.09989,-0.12036 -0.168643,-0.10961 -0.296433,0.0462 -0.104579,0.1275 -0.114412,0.12918 -0.215812,0.0294 -0.09859,-0.097 -0.0993,-0.1161 -0.01092,-0.26703 0.05232,-0.0894 0.177702,-0.20215 0.278796,-0.25108 0.101085,-0.049 0.184035,-0.11942 0.184741,-0.1562 8.4e-4,-0.0368 0.04424,-0.10269 0.09657,-0.14611 0.0678,-0.0563 0.08645,-0.14177 0.06551,-0.29811 -0.01617,-0.12065 -0.0089,-0.24207 0.01594,-0.26955 0.02494,-0.0275 0.0628,-0.12276 0.08397,-0.21246 0.04791,-0.20334 -0.04302,-0.21273 -0.377044,-0.0386 -0.17814,0.0928 -0.239327,0.161 -0.239327,0.26703 0,0.16269 -0.01754,0.16889 -0.176347,0.0697 -0.163759,-0.10228 -0.219253,-0.0109 -0.08481,0.13856 0.111904,0.12448 0.111684,0.12693 -0.02016,0.21497 -0.07338,0.049 -0.133521,0.12552 -0.133521,0.17047 0,0.045 -0.04012,0.0823 -0.08901,0.0823 -0.04896,0 -0.08902,-0.0405 -0.08902,-0.0899 0,-0.0999 -0.119651,-0.33414 -0.2007,-0.393 -0.05877,-0.0427 -0.352962,0.0292 -0.555911,0.13604 -0.07689,0.0405 -0.132678,0.12521 -0.132678,0.2007 0,0.0721 -0.04012,0.16429 -0.08901,0.20489 -0.04896,0.0406 -0.08902,0.12296 -0.08902,0.18307 0,0.0601 -0.08018,0.20094 -0.178029,0.31238 -0.09785,0.11145 -0.178024,0.24683 -0.178024,0.30063 0,0.0538 -0.03921,0.11253 -0.08733,0.131 -0.11766,0.0452 -0.27086,0.36215 -0.22841,0.47277 0.0187,0.0488 -0.01269,0.12291 -0.0697,0.16459 -0.106627,0.078 -0.08086,0.33338 0.03358,0.33338 0.03039,0 0.05543,0.0404 0.05543,0.0898 0,0.0612 -0.05187,0.0865 -0.162912,0.0789 -0.19981,-0.0136 -0.429949,0.0569 -0.429949,0.13184 0,0.0304 -0.09033,0.0554 -0.200696,0.0554 -0.146686,0 -0.208723,0.0299 -0.230091,0.11169 -0.02158,0.0825 -0.06757,0.10476 -0.176348,0.084 -0.112681,-0.0216 -0.154911,7e-4 -0.179706,0.0957 -0.01982,0.0759 -0.08096,0.12343 -0.15703,0.12343 -0.09902,0 -0.12428,-0.0363 -0.12428,-0.18138 0,-0.15492 0.01824,-0.17649 0.119241,-0.14444 0.100668,0.0319 0.118404,0.0103 0.118404,-0.14107 0,-0.0981 0.02726,-0.19449 0.06046,-0.21498 0.0331,-0.0205 0.04376,-0.0647 0.02352,-0.0974 -0.02025,-0.0328 0.02254,-0.12278 0.09573,-0.2007 0.126103,-0.13424 0.12867,-0.14971 0.03693,-0.28971 -0.09013,-0.13756 -0.09013,-0.15214 0.0059,-0.20574 0.123627,-0.0692 0.05862,-0.1512 -0.121762,-0.15367 -0.07546,-7e-4 -0.130162,-0.0392 -0.130162,-0.0907 0,-0.0623 0.07553,-0.0939 0.251924,-0.10665 0.329388,-0.0238 0.359497,-0.18978 0.03444,-0.18978 -0.120248,0 -0.26699,-0.0443 -0.3275,-0.0991 -0.153268,-0.13871 -0.551874,-0.0462 -0.552552,0.12848 -4.31e-4,0.10724 -0.03392,0.11761 -0.355212,0.10245 -0.391412,-0.0185 -0.601614,0.06 -0.445061,0.16627 0.07764,0.0527 0.07633,0.0675 -0.01427,0.12092 -0.05709,0.0336 -0.104126,0.11423 -0.104131,0.17886 0,0.0647 -0.04012,0.13323 -0.08902,0.152 -0.04889,0.0188 -0.08901,0.0947 -0.08901,0.16878 0,0.0741 0.04012,0.16765 0.08901,0.20826 0.124595,0.10341 0.111091,0.17802 -0.03276,0.17802 -0.06717,0 -0.108145,0.023 -0.09069,0.0512 0.01745,0.0282 0.09907,0.0384 0.181386,0.0227 0.192024,-0.0367 0.188619,0.0436 -0.0084,0.18727 -0.124474,0.0908 -0.176658,0.0991 -0.26536,0.0436 -0.06066,-0.0379 -0.110007,-0.0532 -0.110007,-0.0345 0,0.0684 0.136096,0.29659 0.255282,0.42743 0.09179,0.10077 0.105518,0.15058 0.05459,0.20153 -0.04791,0.0479 -0.09032,0.0498 -0.144433,0.006 -0.04218,-0.0344 -0.223685,-0.0716 -0.403076,-0.0831 -0.300526,-0.0193 -0.327673,-0.0104 -0.345138,0.11252 -0.01045,0.0734 -0.04162,0.13352 -0.0697,0.13352 -0.02808,0 -0.05933,0.0595 -0.0697,0.13268 -0.01582,0.11124 -0.08059,0.14593 -0.393837,0.21329 -0.206001,0.0443 -0.389173,0.066 -0.407278,0.0478 -0.05491,-0.0549 0.29651,-0.56322 0.409797,-0.59285 0.112746,-0.0295 0.145146,-0.24449 0.04618,-0.30566 -0.09189,-0.0568 -0.06993,-0.20742 0.03022,-0.20742 0.04924,0 0.134771,-0.0532 0.190621,-0.11841 0.05582,-0.0652 0.153617,-0.1184 0.216656,-0.1184 0.107285,0 0.107836,-0.008 0.01595,-0.10916 -0.054,-0.0597 -0.09741,-0.1547 -0.09741,-0.21162 0,-0.15862 0.196289,-0.0897 0.236812,0.0831 0.02184,0.0934 0.08275,0.15514 0.165427,0.16711 0.106068,0.0153 0.131,-0.0102 0.131,-0.13353 0,-0.11451 0.03048,-0.15198 0.122605,-0.15198 0.09935,0 0.115252,-0.0254 0.08313,-0.13353 -0.0218,-0.0734 -0.07697,-0.1628 -0.122599,-0.19901 -0.111173,-0.0882 -0.104667,-0.18044 0.01595,-0.22673 0.0773,-0.0296 0.08292,-0.0531 0.02687,-0.10917 -0.05316,-0.0532 -0.08222,-0.0542 -0.113365,-0.004 -0.02313,0.0373 -0.202342,0.0814 -0.398042,0.0982 -0.463093,0.0398 -1.169275,0.16826 -1.846595,0.33673 l -0.542475,0.13521 0.0084,0.31993 c 0.0049,0.17611 0.038,0.33952 0.0739,0.36278 0.03585,0.0233 0.09775,0.10384 0.137718,0.1797 0.06388,0.12121 0.05985,0.13675 -0.03526,0.1268 -0.05953,-0.006 -0.141453,-0.008 -0.182225,-0.004 -0.09111,0.008 -0.09846,0.25589 -0.01006,0.34429 0.04643,0.0464 0.04643,0.0754 0,0.10413 -0.09749,0.0602 -0.07725,0.25751 0.03276,0.3191 0.126451,0.0708 0.04472,0.20382 -0.09741,0.15871 -0.07209,-0.0229 -0.139926,0.0113 -0.203215,0.10161 -0.08831,0.12586 -0.135296,0.13502 -0.641565,0.12848 -0.36476,-0.005 -0.566977,0.0172 -0.607134,0.0655 -0.103326,0.12406 -1.255072,0.25801 -1.478787,0.17215 -0.130112,-0.0499 -0.116912,-0.18427 0.0252,-0.26032 0.158935,-0.0851 0.149815,-0.1681 -0.02352,-0.21162 -0.09345,-0.0235 -0.153032,-0.0893 -0.172985,-0.19314 -0.04041,-0.21033 -0.0075,-0.23166 0.183905,-0.11588 0.09346,0.0565 0.173154,0.16731 0.190623,0.26452 0.02093,0.11635 0.07112,0.17323 0.163746,0.18642 0.07318,0.0104 0.132682,-0.008 0.132682,-0.0412 0,-0.12611 -0.128056,-0.38651 -0.224213,-0.45682 -0.0939,-0.0687 -0.09251,-0.0825 0.01595,-0.20237 0.115845,-0.12803 0.116065,-0.12879 -0.01931,-0.23093 -0.10673,-0.0805 -0.12806,-0.13736 -0.09657,-0.26285 0.02206,-0.0879 0.0631,-0.15955 0.0907,-0.15955 0.0477,0 0.351853,-0.27873 0.351853,-0.32246 0,-0.0181 -0.204983,-0.0142 -0.84478,0.0177 -0.120847,0.006 -0.162913,0.0389 -0.162913,0.1268 0,0.0791 -0.04015,0.11925 -0.119246,0.11925 -0.137485,0 -0.143099,0.0641 -0.03358,0.37116 0.04399,0.12322 0.05594,0.23734 0.02687,0.25528 -0.02894,0.0179 -0.05206,0.0952 -0.05206,0.17215 0,0.0769 -0.03311,0.15216 -0.0739,0.16711 -0.05932,0.0217 -0.05932,0.0429 0,0.1058 0.04075,0.0432 0.0739,0.15303 0.0739,0.24437 0,0.14415 -0.02274,0.16627 -0.173829,0.16627 -0.257273,0 -0.496608,0.10524 -0.45934,0.20237 0.01879,0.049 -0.01621,0.095 -0.08649,0.11337 -0.06626,0.0174 -0.1307,-0.002 -0.146955,-0.0445 -0.01595,-0.0415 -0.02175,-0.1 -0.0126,-0.12932 0.02373,-0.0757 -0.200141,-0.31994 -0.29307,-0.31994 -0.04274,0 -0.09335,-0.0471 -0.113365,-0.10413 -0.02004,-0.0571 -0.09257,-0.14937 -0.16123,-0.20573 -0.111216,-0.0913 -0.11343,-0.10295 -0.01931,-0.10413 0.05813,-7e-4 0.120626,0.0392 0.139398,0.0882 0.01879,0.049 0.06271,0.089 0.09741,0.089 0.03474,0 0.111499,0.0431 0.170471,0.0966 0.09959,0.0901 0.110032,0.0897 0.148634,-0.0109 0.02463,-0.0642 0.01285,-0.11805 -0.02855,-0.13184 -0.04209,-0.014 -0.0553,-0.0798 -0.03358,-0.16627 0.03117,-0.12416 0.01557,-0.1436 -0.118404,-0.1436 -0.163844,0 -0.209613,-0.0848 -0.0739,-0.13687 0.139204,-0.0534 0.158444,-0.27314 0.03022,-0.34178 -0.06332,-0.0339 -0.107445,-0.1067 -0.09825,-0.16207 0.01484,-0.0894 -0.06135,-0.10197 -0.675151,-0.11252 -0.570418,-0.01 -0.697133,0.004 -0.72554,0.0781 -0.02073,0.0541 -0.06446,0.0713 -0.109167,0.0436 -0.138839,-0.0858 -0.665831,-0.15042 -1.40909,-0.17215 -0.407705,-0.0119 -1.048272,-0.053 -1.423366,-0.0915 -0.375091,-0.0385 -0.828305,-0.0727 -1.007691,-0.0764 l -0.326661,-0.008 -0.0168,0.23765 c -0.0159,0.22492 -0.177299,0.62224 -0.252763,0.62224 -0.05162,0 -0.03063,-0.72805 0.02352,-0.81538 0.07223,-0.11652 -0.134371,-0.16373 -0.242685,-0.0554 -0.08596,0.0859 -0.109316,0.0815 -0.267038,-0.0512 -0.09499,-0.0799 -0.246585,-0.14528 -0.337578,-0.14528 -0.09099,0 -0.519538,-0.0671 -0.952269,-0.14863 -0.978737,-0.18444 -1.102639,-0.18626 -1.14541,-0.0227 -0.04334,0.16575 -0.188942,0.11063 -0.188942,-0.0714 0,-0.13054 -0.04692,-0.15442 -0.534077,-0.27795 -1.137819,-0.28853 -1.589253,-0.3684 -1.676967,-0.29559 -0.06518,0.0541 -0.10434,0.0434 -0.181385,-0.0512 -0.05975,-0.0733 -0.31891,-0.18506 -0.661718,-0.28551 -4.855055,-1.42268 -8.614339,-3.15838 -12.5718,-5.80344 -1.296783,-0.86674 -1.77913,-1.22681 -3.354775,-2.50327 -1.044697,-0.84633 -1.516247,-1.27435 -2.546102,-2.31432 -1.402941,-1.41672 -2.465437,-2.67373 -3.73266,-4.41618 -0.32025,-0.44036 -0.6145109,-0.82812 -0.65416,-0.86074 C 9.628712,103.21674 9.5501936,103.1026 9.494541,102.9949 9.438885,102.88719 9.2380985,102.56296 9.0486376,102.2744 8.0345189,100.72991 7.2029606,99.234593 6.2177791,97.188816 5.2857557,95.253426 4.2555394,92.547577 3.7396959,90.679159 3.5160993,89.869272 3.1925729,88.623462 3.153555,88.422776 3.1345314,88.32492 3.049199,87.924911 2.9646127,87.533492 2.6570131,86.110089 2.297428,83.733069 2.2508307,82.818353 2.24003,82.606333 2.2114614,82.286496 2.18785,82.107096 2.1642459,81.927693 2.1373125,81.674102 2.1282281,81.54363 c -0.025342,-0.364045 -0.022305,-3.540821 0.00335,-3.582329 0.01244,-0.02013 0.05471,-0.396266 0.094051,-0.836381 0.039343,-0.440115 0.079171,-0.86736 0.089013,-0.948905 0.1017804,-0.843349 0.1540604,-1.322751 0.170468,-1.571153 0.010773,-0.163092 0.061177,-0.48377 0.1125256,-0.712099 0.1180632,-0.524998 0.2623684,-1.256112 0.3980384,-2.016215 0.058219,-0.326184 0.1642519,-0.79328 0.2351282,-1.037918 0.070877,-0.244638 0.1775963,-0.631564 0.2368076,-0.859893 0.2569587,-0.990872 0.7762685,-2.705735 0.987538,-3.261548 0.074392,-0.195711 0.2572577,-0.686221 0.4064361,-1.089983 1.1556911,-3.12796 2.8127787,-6.293339 4.9099805,-9.377371 1.0231275,-1.504557 2.9972175,-3.935119 4.1189425,-5.071187 2.788059,-2.823404 6.574735,-5.574307 10.400354,-7.554961 5.207876,-2.696294 11.080067,-4.314649 17.043434,-4.697502 0.378548,-0.02431 0.769343,-0.03926 1.170602,-0.04535 z m 7.971685,20.622323 c -0.14912,-0.0074 -0.306615,-0.0023 -0.543315,0.01175 -0.163079,0.0097 -0.643297,0.01416 -1.067313,0.01008 -1.193808,-0.01152 -2.342222,0.02167 -2.668704,0.07726 -0.16308,0.02777 -0.617134,0.05543 -1.008529,0.0613 -1.058355,0.01587 -2.031818,0.07011 -2.108599,0.117563 -0.03727,0.02305 -0.247796,0.03811 -0.467737,0.03359 -0.506584,-0.01042 -1.610735,0.132822 -1.959962,0.254441 -0.146773,0.05111 -0.413465,0.09338 -0.592858,0.09405 -0.179386,6.88e-4 -0.394666,0.03722 -0.477814,0.08062 -0.147524,0.07699 -0.29196,0.103915 -1.161366,0.216653 -0.232674,0.03017 -0.51245,0.09304 -0.62225,0.139397 -0.399299,0.16859 -0.843877,0.29307 -1.199993,0.337575 -0.200198,0.02502 -0.604137,0.104949 -0.897686,0.177186 -0.293549,0.07223 -0.627334,0.14444 -0.741493,0.16039 -0.114157,0.01595 -0.260587,0.07457 -0.325821,0.130159 -0.217902,0.185675 -0.439693,0.300627 -0.578583,0.300627 -0.203261,0 -0.795147,0.219261 -1.200832,0.444222 -0.1957,0.108519 -0.513724,0.242882 -0.707065,0.298947 -0.367299,0.10651 -0.653436,0.244624 -1.101743,0.532395 -0.291825,0.187325 -0.828378,0.385441 -1.044641,0.385441 -0.07533,0 -0.163979,0.05103 -0.19734,0.113365 -0.03336,0.06234 -0.494905,0.331129 -1.025326,0.597894 -1.173872,0.590375 -1.203243,0.606765 -1.367103,0.754086 -0.224532,0.201869 -0.657424,0.471714 -0.820429,0.511401 -0.08569,0.02087 -0.197155,0.100842 -0.247725,0.178025 -0.05057,0.07719 -0.247603,0.20264 -0.437506,0.277954 -0.189903,0.07532 -0.37717,0.161367 -0.416513,0.191461 -0.03934,0.03009 -0.09742,0.03819 -0.12932,0.01848 -0.0319,-0.01971 -0.188545,0.09135 -0.347654,0.246883 -0.364116,0.355934 -1.471861,1.283299 -1.571161,1.315033 -0.243354,0.0778 -1.645897,1.38721 -1.645897,1.536724 0,0.03624 -0.05238,0.09449 -0.115884,0.128479 -0.0635,0.03399 -0.235052,0.164855 -0.381244,0.29139 -0.14619,0.126535 -0.407557,0.311992 -0.581102,0.412312 -0.173544,0.100319 -0.436008,0.290615 -0.582782,0.422389 -0.146775,0.131772 -0.413468,0.338219 -0.592858,0.458498 -0.179391,0.120279 -0.393291,0.278575 -0.475296,0.35269 -0.08201,0.07411 -0.261186,0.174245 -0.398038,0.222531 -0.13685,0.04828 -0.421419,0.220617 -0.633167,0.382921 -0.211747,0.162304 -0.446526,0.31423 -0.52148,0.337576 -0.152416,0.04747 -0.877532,0.605455 -0.877532,0.67515 0,0.02457 -0.07322,0.07758 -0.16291,0.118404 -0.288266,0.131203 -0.96322,0.603383 -1.023648,0.716298 -0.03219,0.06017 -0.04147,0.153205 -0.021,0.206576 0.02318,0.06038 -0.0074,0.128162 -0.07977,0.178864 -0.114248,0.08003 -0.113932,0.09255 -0.01343,0.718817 0.0954,0.594471 0.115182,0.648977 0.296428,0.796912 0.309813,0.252872 0.484459,1.116819 0.26284,1.300757 -0.04893,0.04061 -0.08901,0.166479 -0.08901,0.278794 0,0.228005 -0.06708,0.379919 -0.281314,0.637362 -0.0799,0.09602 -0.16969,0.229353 -0.19902,0.296428 -0.02933,0.06708 -0.07566,0.161847 -0.103288,0.210775 -0.246711,0.436961 -0.242398,0.474452 0.05542,0.474452 0.183578,0 0.249365,-0.02536 0.270398,-0.105807 0.0153,-0.0585 0.256261,-0.251967 0.534916,-0.429946 0.278656,-0.17798 0.561964,-0.403469 0.629809,-0.501325 0.06784,-0.09785 0.206018,-0.260914 0.307346,-0.361927 0.101328,-0.101014 0.298229,-0.372409 0.437506,-0.602934 0.244224,-0.404227 0.253104,-0.436359 0.254442,-0.916995 0.0016,-0.558516 -0.100215,-1.19483 -0.223372,-1.393128 -0.04486,-0.07223 -0.124373,-0.256699 -0.176346,-0.409793 -0.08819,-0.259791 -0.08737,-0.282297 0.0084,-0.335896 0.05643,-0.03158 0.202343,-0.146916 0.324141,-0.25696 0.121799,-0.110043 0.25067,-0.200698 0.286353,-0.200698 0.09612,0 0.483692,-0.356027 0.483692,-0.444222 0,-0.04183 0.08714,-0.119326 0.193142,-0.172986 0.106003,-0.05366 0.39274,-0.228673 0.637365,-0.3888 0.244624,-0.160126 0.538322,-0.341149 0.65248,-0.402234 0.114158,-0.06109 0.368758,-0.197681 0.565987,-0.303146 0.250505,-0.133956 0.457482,-0.197094 0.686911,-0.210775 0.180634,-0.01077 0.384993,-0.04985 0.453461,-0.08649 0.351623,-0.188194 0.518138,0.04855 0.45766,0.650798 -0.04056,0.403939 -0.05838,0.441917 -0.376205,0.817067 -0.183202,0.216246 -0.406795,0.455264 -0.497128,0.531555 -0.09034,0.07629 -0.16375,0.165311 -0.16375,0.198179 0,0.03287 -0.109402,0.183628 -0.242686,0.335056 -0.133285,0.151429 -0.277078,0.356085 -0.319102,0.454299 -0.04203,0.09821 -0.189256,0.298279 -0.327501,0.445062 -0.260992,0.277113 -0.65248,0.822194 -0.65248,0.907758 0,0.027 -0.10774,0.173822 -0.239327,0.326659 -0.235127,0.273096 -0.27264,0.327784 -0.494609,0.729733 -0.06089,0.110271 -0.163643,0.259113 -0.22841,0.330019 -0.06477,0.0709 -0.191254,0.338879 -0.281314,0.596214 -0.09006,0.257335 -0.260959,0.595336 -0.379565,0.750728 -0.118605,0.155391 -0.233199,0.353672 -0.254442,0.440863 -0.05231,0.214726 -0.353804,0.836618 -0.466057,0.960662 -0.04995,0.0552 -0.144369,0.252624 -0.209936,0.439187 -0.06556,0.186558 -0.181982,0.438661 -0.258641,0.560104 -0.07666,0.121443 -0.201728,0.366362 -0.277955,0.544154 -0.07623,0.177787 -0.239575,0.489506 -0.362769,0.692781 -0.123194,0.203279 -0.224212,0.400147 -0.224212,0.437505 0,0.06532 -0.310406,0.759682 -0.421551,0.943028 -0.02966,0.04893 -0.09988,0.182263 -0.156192,0.296427 -0.13604,0.275789 -0.966298,1.488591 -1.197475,1.749177 -0.05787,0.06523 -0.261111,0.345832 -0.451782,0.623088 -0.393895,0.572775 -1.179377,1.516177 -1.300762,1.562757 -0.04449,0.01707 -0.123149,0.119844 -0.174666,0.228409 -0.138028,0.290889 -0.833232,1.026205 -1.141212,1.206706 l -0.267878,0.156191 0.165429,0.172146 c 0.0907,0.09468 0.192903,0.172808 0.227571,0.172984 0.115594,4.3e-4 0.595431,0.554756 1.128615,1.304124 0.290109,0.407727 0.628493,0.878476 0.751571,1.046315 0.348533,0.475302 0.807736,1.544278 0.84982,1.97842 0.0079,0.08155 0.03276,0.284075 0.05627,0.450106 0.02349,0.166025 0.056,0.899792 0.07222,1.630772 0.01622,0.730979 0.03251,1.413304 0.03611,1.515733 0.006,0.172021 0.0256,0.188454 0.248564,0.215807 0.132765,0.01632 0.288056,0.04882 0.345135,0.07222 0.07344,0.03012 0.103289,0.01457 0.103289,-0.05289 0,-0.06213 0.052,-0.09573 0.148634,-0.09573 0.184094,0 0.1895,0.04658 0.01428,0.115886 -0.126181,0.04994 -0.122127,0.05527 0.0613,0.09489 0.106682,0.02305 0.208604,0.0664 0.226731,0.09573 0.04541,0.07347 -0.259164,0.853834 -0.368648,0.944699 -0.04886,0.04056 -0.08189,0.142559 -0.07306,0.226734 0.0089,0.08417 -1.42e-4,0.179852 -0.02016,0.212452 -0.133347,0.216997 -0.03289,0.729242 0.151155,0.770885 0.295646,0.06695 3.366177,0.06903 3.474018,0.0028 0.138338,-0.08551 -0.16706,-0.628949 -0.597897,-1.063112 -0.158374,-0.159588 -0.288033,-0.311603 -0.288033,-0.337577 0,-0.02599 -0.107181,-0.170864 -0.237647,-0.321619 -0.130466,-0.150747 -0.236807,-0.297705 -0.236807,-0.326656 0,-0.02893 -0.06708,-0.124438 -0.148634,-0.212458 -0.18789,-0.202744 -0.123114,-0.292628 0.249403,-0.34849 0.32253,-0.0484 0.553059,-0.183368 0.547512,-0.319938 -0.0022,-0.05331 -0.09471,-0.216823 -0.205737,-0.363606 -0.253089,-0.334585 -0.574129,-0.979904 -0.737294,-1.482986 -0.06877,-0.212018 -0.149953,-0.438598 -0.180545,-0.503839 -0.03059,-0.06521 -0.105297,-0.252589 -0.166269,-0.415672 -0.06097,-0.163096 -0.134249,-0.349596 -0.162911,-0.414837 -0.02866,-0.06521 -0.05518,-0.318832 -0.05878,-0.563463 -0.0036,-0.244638 -0.03846,-0.578396 -0.07809,-0.741486 -0.04943,-0.20343 -0.05477,-0.361448 -0.01595,-0.503853 0.143622,-0.526849 0.232955,-1.052109 0.204058,-1.200832 -0.01742,-0.08969 -0.009,-0.1629 0.01931,-0.1629 0.02826,0 0.0545,-0.07405 0.05794,-0.163756 0.01144,-0.297878 0.366263,-1.16152 0.596217,-1.451063 0.07056,-0.08884 0.116823,-0.209096 0.102449,-0.267036 -0.01576,-0.06352 0.05488,-0.192994 0.178025,-0.325822 0.131026,-0.141324 0.194045,-0.259116 0.175506,-0.330014 -0.02001,-0.07652 0.03639,-0.160198 0.183065,-0.272079 0.116485,-0.08885 0.211615,-0.197681 0.211615,-0.241845 0,-0.136177 0.725585,-0.834066 1.007692,-0.969057 0.146774,-0.07023 0.334131,-0.210476 0.415673,-0.311544 0.08154,-0.101071 0.227971,-0.226044 0.325821,-0.277113 0.155087,-0.08095 0.354633,-0.22822 0.681872,-0.504684 0.04893,-0.04132 0.149782,-0.06671 0.223371,-0.05626 0.0945,0.01341 0.147497,-0.02033 0.182224,-0.114207 0.0324,-0.08758 0.0641,-0.109576 0.09237,-0.06382 0.05149,0.08331 0.235732,0.09101 0.377884,0.01514 0.05663,-0.03023 0.149499,-0.06966 0.206577,-0.08733 0.155916,-0.04825 0.125499,-0.205429 -0.0739,-0.380404 -0.196729,-0.172636 -0.235154,-0.327163 -0.0739,-0.296426 0.05708,0.01088 0.111776,0.07638 0.121761,0.146112 0.01,0.06973 0.06923,0.140658 0.131841,0.157034 0.06261,0.01638 0.146417,0.105217 0.186423,0.198176 0.09858,0.229058 0.09327,0.225915 0.196501,0.14024 0.06226,-0.05167 0.189163,-0.06486 0.396357,-0.04028 0.167395,0.01982 0.420982,0.01028 0.564308,-0.02184 0.143327,-0.03212 0.570349,-0.08425 0.948071,-0.115041 0.512562,-0.04179 0.715724,-0.08227 0.801115,-0.159553 0.09349,-0.08461 0.246255,-0.105565 0.837224,-0.117564 1.183692,-0.02403 1.783472,-0.10296 2.780391,-0.364445 0.222282,-0.05831 0.614751,-0.227067 1.005173,-0.432466 0.844657,-0.444367 1.189238,-0.664001 1.525815,-0.972419 0.34161,-0.313031 0.785398,-0.633075 0.972422,-0.701183 0.05757,-0.02098 0.130948,-0.106553 0.16291,-0.19062 0.03196,-0.08407 0.134403,-0.225211 0.227571,-0.313221 0.255939,-0.241781 0.661717,-0.78178 0.661717,-0.880887 0,-0.04818 0.06349,-0.172443 0.141077,-0.276276 0.07758,-0.103832 0.291764,-0.527127 0.476135,-0.94051 l 0.335058,-0.751567 -0.06299,-0.393837 c -0.04171,-0.261049 -0.04325,-0.464509 -0.0051,-0.602934 0.03643,-0.131954 0.03701,-0.263115 0.0017,-0.356049 -0.03075,-0.08089 -0.05626,-0.361616 -0.05626,-0.623926 0,-0.587125 -0.153496,-1.267636 -0.336737,-1.491378 -0.09243,-0.112855 -0.137718,-0.245091 -0.137718,-0.403915 0,-0.516589 -0.452511,-1.212707 -0.98082,-1.508172 -0.198866,-0.111219 -0.448187,-0.309104 -0.553391,-0.440023 -0.12176,-0.151523 -0.23945,-0.238486 -0.324981,-0.238486 -0.0739,0 -0.213226,-0.08348 -0.309026,-0.185583 -0.0958,-0.102095 -0.281008,-0.237642 -0.411474,-0.301466 -0.130466,-0.06383 -0.326358,-0.16246 -0.435827,-0.219172 -0.240811,-0.124756 -0.963045,-0.158404 -1.131974,-0.05291 -0.09097,0.05682 -0.145297,0.05527 -0.25948,-0.0059 -0.106835,-0.05718 -0.175462,-0.06065 -0.263681,-0.01344 -0.06563,0.03513 -0.331259,0.06299 -0.590338,0.0613 -0.514186,-0.0034 -0.889624,0.04865 -0.940513,0.130999 -0.01788,0.02892 -0.08843,0.05291 -0.157032,0.05291 -0.13742,0 -0.574718,0.23759 -0.836385,0.454299 -0.0922,0.07636 -0.217513,0.138558 -0.278795,0.138558 -0.136217,0 -0.489892,0.232552 -0.769205,0.505522 -0.61897,0.604919 -0.711262,0.709095 -0.711262,0.800273 0,0.120173 -0.162023,0.456308 -0.244366,0.507202 -0.03245,0.02006 -0.04291,0.11195 -0.02268,0.204057 0.02402,0.109392 -0.003,0.246265 -0.07725,0.394677 -0.197372,0.393893 -0.221006,0.557296 -0.243526,1.680319 -0.01563,0.77922 0.03498,1.445933 0.12848,1.690396 0.04989,0.130474 0.161608,0.424149 0.247724,0.652478 0.239335,0.634569 0.654392,1.156323 0.919519,1.156323 0.05818,0 0.195952,0.06096 0.306508,0.135196 0.110555,0.07424 0.320962,0.169477 0.467738,0.211616 0.146773,0.04213 0.357527,0.10421 0.468576,0.138554 0.179665,0.05557 0.213046,0.04808 0.303146,-0.07138 0.08373,-0.110999 0.131315,-0.126047 0.272918,-0.08565 0.09419,0.02687 0.410997,0.04502 0.704545,0.04028 1.496354,-0.02399 2.286525,-0.362101 2.944979,-1.25877 0.08384,-0.114165 0.303284,-0.366958 0.487052,-0.562626 0.203375,-0.216546 0.334217,-0.408459 0.334217,-0.490408 0,-0.07405 0.08018,-0.285198 0.178027,-0.468575 0.176465,-0.330708 0.232388,-0.691193 0.118403,-0.761643 -0.09528,-0.05889 -0.07009,-0.143204 0.09237,-0.305666 0.175831,-0.175841 0.156423,-0.324106 -0.03611,-0.273755 -0.115942,0.03032 -0.12481,0.01679 -0.0907,-0.138556 0.02775,-0.126366 -0.01,-0.271822 -0.141078,-0.542472 -0.09851,-0.203371 -0.2081,-0.370326 -0.243526,-0.370326 -0.03543,0 -0.171501,-0.113293 -0.301468,-0.251921 -0.129966,-0.138629 -0.320669,-0.340993 -0.42407,-0.4501 -0.356873,-0.376571 -0.618977,-0.425928 -1.849955,-0.345134 -0.260932,0.01713 -0.560788,0.0324 -0.665916,0.03359 -0.105127,0.0012 -0.295812,0.06851 -0.42407,0.149473 -0.279644,0.176541 -0.896847,0.759692 -0.896847,0.847298 0,0.03422 -0.04009,0.09543 -0.08901,0.136037 -0.04893,0.04061 -0.08901,0.144123 -0.08901,0.230089 0,0.08597 -0.06651,0.280613 -0.147794,0.433306 -0.154185,0.28965 -0.148632,0.403466 0.03023,0.61133 0.05614,0.06524 0.119034,0.233365 0.140238,0.373684 0.04909,0.324906 0.290641,0.691273 0.517283,0.785157 0.09673,0.04007 0.201772,0.121353 0.233448,0.180544 0.04833,0.09032 0.107833,0.102201 0.368647,0.0739 0.170931,-0.01855 0.497223,-0.09419 0.725539,-0.168788 0.35841,-0.117097 0.440319,-0.171423 0.594538,-0.394678 0.25092,-0.363246 0.368274,-0.737427 0.277115,-0.883405 -0.03875,-0.06205 -0.07054,-0.174146 -0.07054,-0.248563 0,-0.07442 -0.06774,-0.234523 -0.150314,-0.356051 -0.112408,-0.165432 -0.21399,-0.237472 -0.404757,-0.285511 -0.26976,-0.06793 -0.629535,-0.312861 -0.560948,-0.382081 0.06808,-0.06872 0.952699,-0.151076 1.198314,-0.111686 0.139905,0.02244 0.364861,0.139393 0.573545,0.298108 0.337331,0.256558 0.394656,0.351206 0.499647,0.822944 0.02178,0.09786 0.08256,0.225429 0.135199,0.283833 0.08814,0.0978 0.08819,0.119859 -0.0042,0.276274 -0.05518,0.09341 -0.10077,0.238176 -0.10077,0.32162 0,0.287955 -0.235436,0.793154 -0.464378,0.996771 -0.21609,0.192187 -0.651091,0.431263 -1.314198,0.722176 -0.360798,0.158285 -1.218858,0.298475 -1.54177,0.251922 -0.637808,-0.09195 -1.13138,-0.212509 -1.393974,-0.340094 -0.269993,-0.131182 -0.296631,-0.161809 -0.298948,-0.349332 -0.003,-0.24037 -0.0646,-0.469272 -0.214135,-0.799432 -0.05909,-0.130474 -0.107611,-0.301424 -0.108327,-0.380402 -6.88e-4,-0.07898 -0.04789,-0.195503 -0.104969,-0.25864 -0.08465,-0.09364 -0.100875,-0.208082 -0.08901,-0.622247 0.01466,-0.511861 0.108447,-0.784317 0.271237,-0.784317 0.04466,0 0.121838,-0.175881 0.186423,-0.424907 0.137433,-0.529909 0.33548,-0.913364 0.598736,-1.158841 0.111906,-0.104347 0.204059,-0.243272 0.204059,-0.309024 0,-0.06575 0.0549,-0.149348 0.122602,-0.185583 0.06771,-0.03623 0.174884,-0.116937 0.237647,-0.179704 0.08416,-0.08416 0.197042,-0.114205 0.430789,-0.114205 0.237264,0 0.342738,-0.02896 0.419872,-0.114204 0.169283,-0.187067 0.648406,-0.271024 1.545968,-0.271236 1.096894,-2.38e-4 1.585538,0.141367 2.173256,0.630644 0.1513,0.125959 0.327746,0.229249 0.39216,0.229249 0.115215,0 0.429948,0.26478 0.429948,0.361928 0,0.02733 0.07981,0.09072 0.177186,0.141076 0.104841,0.05422 0.192464,0.157664 0.215814,0.253601 0.02169,0.08911 0.116154,0.249745 0.209097,0.35689 0.129935,0.149789 0.168788,0.254585 0.168788,0.452619 0,0.145098 0.03507,0.287179 0.08061,0.32498 0.04952,0.0411 0.09671,0.262235 0.121762,0.571023 0.02337,0.288126 0.0901,0.612005 0.155353,0.755765 0.13571,0.298985 0.146542,0.622462 0.02604,0.781798 -0.04789,0.06331 -0.08733,0.198592 -0.08733,0.301466 0,0.111727 -0.04756,0.23063 -0.118404,0.294749 -0.06523,0.05904 -0.119121,0.150349 -0.119243,0.202377 -1.19e-4,0.05202 -0.05235,0.180757 -0.116725,0.286351 -0.0805,0.132039 -0.106746,0.247222 -0.08229,0.369485 0.02941,0.14701 0.0036,0.207981 -0.149473,0.351011 -0.101828,0.09513 -0.184744,0.201271 -0.184744,0.235968 0,0.03469 -0.05317,0.09188 -0.118405,0.126799 -0.06523,0.03491 -0.119243,0.09348 -0.119243,0.130997 0,0.08843 -0.23858,0.343454 -0.321622,0.343454 -0.07988,0 -0.354521,0.290601 -0.406435,0.429947 -0.02126,0.05708 -0.07896,0.10329 -0.127641,0.10329 -0.04868,0 -0.14098,0.05728 -0.205737,0.1268 -0.117915,0.126572 -0.279405,0.232292 -0.519802,0.341773 -0.0706,0.03216 -0.14581,0.113437 -0.167108,0.180544 -0.02649,0.08347 -0.08864,0.121765 -0.19818,0.121765 -0.08808,0 -0.258727,0.06708 -0.378725,0.148632 -0.119999,0.08155 -0.242638,0.147794 -0.272076,0.147794 -0.02943,0 -0.170536,0.07992 -0.314065,0.177185 -0.182044,0.123361 -0.333539,0.177272 -0.501326,0.178024 -0.209533,8.41e-4 -0.420104,0.05405 -1.164725,0.293069 -0.12965,0.04162 -0.175587,0.02842 -0.240166,-0.06886 -0.07109,-0.107074 -0.153169,-0.121933 -0.759128,-0.136877 -0.373697,-0.0092 -0.786534,-0.04239 -0.917001,-0.0739 -0.30822,-0.07444 -0.681871,-0.23841 -0.681871,-0.298946 0,-0.05946 -0.387147,-0.246884 -0.509725,-0.246884 -0.154702,0 -0.484629,-0.29383 -0.65248,-0.58026 -0.08805,-0.150258 -0.256383,-0.37306 -0.373685,-0.495445 -0.36954,-0.38555 -0.472435,-0.531277 -0.508885,-0.723858 -0.08668,-0.457949 -0.173886,-0.70218 -0.277956,-0.775078 -0.08947,-0.06266 -0.11918,-0.179488 -0.145275,-0.576061 -0.06563,-0.997299 -0.07721,-1.155386 -0.114206,-1.492217 -0.02509,-0.228395 -0.0148,-0.37114 0.03191,-0.427427 0.04207,-0.05069 0.05459,-0.1566 0.03107,-0.263678 -0.02157,-0.09822 -0.008,-0.384965 0.03023,-0.637363 0.03826,-0.252398 0.0697,-0.618283 0.0697,-0.812867 0,-0.194584 0.02265,-0.395326 0.05039,-0.446742 0.08548,-0.158456 0.412313,-1.160815 0.412313,-1.264648 0,-0.0539 0.03353,-0.11919 0.07474,-0.145274 0.04121,-0.02609 0.101158,-0.128035 0.133519,-0.22589 0.04692,-0.141888 0.115966,-0.196093 0.340096,-0.267037 0.236605,-0.07497 0.281427,-0.112077 0.28133,-0.23689 -5.9e-5,-0.09075 0.0807,-0.229001 0.208256,-0.356049 0.114622,-0.114165 0.304666,-0.320709 0.422391,-0.459338 0.117724,-0.138628 0.247894,-0.251922 0.289712,-0.251922 0.04182,0 0.227978,-0.08017 0.413993,-0.178025 0.186016,-0.09785 0.364054,-0.178025 0.39468,-0.178025 0.03063,0 0.127875,-0.0536 0.216654,-0.119242 0.268716,-0.198682 1.080999,-0.473378 1.400692,-0.473614 0.160514,-1.19e-4 0.333949,-0.03642 0.385442,-0.08061 0.19567,-0.167934 1.503435,-0.239539 1.991031,-0.109166 0.130467,0.03488 0.33426,0.06242 0.452622,0.0613 0.118363,-0.0011 0.270538,0.0271 0.337577,0.06298 0.06704,0.03588 0.176633,0.0655 0.244365,0.0655 0.06773,0 0.236261,0.05092 0.374527,0.113365 0.138264,0.06245 0.372186,0.129471 0.51896,0.149473 0.377324,0.05142 0.64881,0.156582 0.895167,0.345134 0.135132,0.103423 0.28676,0.16317 0.414833,0.163749 0.150942,6.87e-4 0.27593,0.06422 0.495449,0.251921 0.414892,0.354746 1.100064,1.054979 1.100064,1.124412 0,0.03207 0.08018,0.177466 0.178025,0.32246 0.09785,0.144994 0.178272,0.281996 0.178866,0.304825 6.02e-4,0.02283 0.07903,0.156991 0.174667,0.298107 0.09714,0.143347 0.191357,0.379216 0.213295,0.534075 0.0216,0.15245 0.07897,0.450535 0.12764,0.662555 0.05083,0.221422 0.08223,0.599731 0.0739,0.889283 -0.0079,0.277257 -0.0201,0.677265 -0.02687,0.889285 -0.02594,0.812413 -0.154277,1.634963 -0.338417,2.164848 -0.218425,0.628543 -0.429175,1.071926 -0.541634,1.138688 -0.0443,0.02631 -0.182451,0.194284 -0.306507,0.373684 -0.124056,0.179399 -0.307841,0.431292 -0.408955,0.560104 -0.101114,0.128816 -0.210909,0.308891 -0.243526,0.399717 -0.03262,0.09083 -0.346717,0.479451 -0.697826,0.863252 -0.35111,0.383804 -0.738067,0.809714 -0.859897,0.947228 -0.121831,0.137513 -0.328034,0.306612 -0.4585,0.37536 -0.130467,0.06875 -0.263813,0.158719 -0.296431,0.199861 -0.03262,0.04115 -0.183301,0.143894 -0.335057,0.228409 -0.151757,0.08451 -0.432372,0.25891 -0.62309,0.38712 -0.190718,0.12821 -0.488471,0.282375 -0.662558,0.343454 -0.334605,0.117397 -0.452536,0.241862 -0.362769,0.383761 0.02984,0.04717 0.05493,0.144346 0.05543,0.215812 4.72e-4,0.07147 0.02171,0.143061 0.04702,0.158711 0.06336,0.03917 0.670662,-0.106485 0.847302,-0.203218 0.14528,-0.07956 1.186327,-0.237637 1.626582,-0.246885 0.397634,-0.0083 1.052498,0.05443 1.334354,0.128481 0.676202,0.177659 0.926139,0.258648 1.008531,0.326661 0.117239,0.09678 0.611573,0.329176 0.700346,0.329176 0.03834,0 0.191381,0.09325 0.340936,0.207419 0.149555,0.114163 0.321107,0.207414 0.381244,0.207414 0.121154,0 0.930028,0.395422 0.982499,0.480328 0.01949,0.03156 0.07903,0.02958 0.143597,-0.005 0.08052,-0.04309 0.178658,-0.02751 0.366968,0.05794 0.159145,0.07222 0.388361,0.117599 0.601256,0.118403 0.189164,8.41e-4 0.416907,0.03857 0.506365,0.08482 0.249534,0.129044 0.900828,0.233667 0.977462,0.157029 0.03481,-0.03483 0.281965,-0.06298 0.549192,-0.06298 0.357785,0 0.494216,-0.02132 0.517281,-0.08146 0.01912,-0.04977 0.08719,-0.07114 0.173827,-0.05458 0.135702,0.02592 0.241797,-0.023 0.701187,-0.323298 0.112081,-0.07327 0.246088,-0.133396 0.298109,-0.133521 0.05204,0 0.143339,-0.05317 0.202377,-0.118402 0.05905,-0.06524 0.127534,-0.119242 0.152834,-0.119242 0.09585,0 0.464494,-0.269753 0.466898,-0.341773 0.0021,-0.06885 0.158788,-0.327847 0.387961,-0.641562 0.167997,-0.229979 0.250796,-0.737587 0.228409,-1.406566 -0.01176,-0.352209 0.0039,-0.687984 0.03527,-0.746525 0.03838,-0.07176 0.02938,-0.211229 -0.02771,-0.427432 -0.04658,-0.176376 -0.102604,-0.480275 -0.124282,-0.675987 -0.02164,-0.195712 -0.07578,-0.408433 -0.120083,-0.472774 -0.04426,-0.06432 -0.08061,-0.151122 -0.08061,-0.192302 0,-0.124066 -0.368052,-0.685989 -0.583622,-0.890962 -0.311949,-0.296628 -0.784207,-0.590011 -1.077391,-0.668434 -0.146221,-0.03913 -0.293202,-0.09106 -0.325821,-0.115883 -0.107073,-0.08148 -1.309378,-0.191504 -1.606429,-0.146956 -0.193178,0.02898 -0.484168,0.158892 -0.874173,0.390482 -0.321362,0.190832 -0.60448,0.346813 -0.628967,0.346813 -0.05365,0 -0.549846,0.485624 -0.822109,0.804468 -0.136668,0.160048 -0.186126,0.268571 -0.16375,0.357729 0.01764,0.0703 -0.0071,0.20545 -0.05458,0.300627 -0.0575,0.115269 -0.08936,0.389975 -0.09573,0.822944 -0.02001,1.35784 0.280002,1.937946 1.244499,2.409214 0.337418,0.164868 1.149702,0.229415 2.012866,0.159549 0.334391,-0.02709 0.682993,-0.376474 0.741493,-0.742328 0.02129,-0.133155 0.07926,-0.274896 0.12848,-0.315745 0.10477,-0.08696 0.115888,-0.566063 0.02939,-1.231896 -0.04728,-0.363993 -0.09289,-0.480229 -0.29643,-0.755764 -0.181992,-0.246372 -0.280327,-0.327688 -0.402236,-0.334219 -0.651643,-0.03491 -0.788093,-0.02735 -0.849822,0.04703 -0.03664,0.0441 -0.09674,0.08042 -0.133518,0.08145 -0.09358,0.0026 -0.393,0.274517 -0.393,0.35689 0,0.03741 0.03762,0.152498 0.08397,0.255281 0.04637,0.102783 0.09712,0.280514 0.112526,0.394678 0.01541,0.114164 0.06824,0.313749 0.117565,0.444221 0.08161,0.215911 0.109984,0.238293 0.317423,0.249404 0.727562,0.03895 0.844491,0.218481 0.374525,0.576902 -0.421194,0.321226 -0.792375,0.411695 -1.197473,0.291387 -0.356182,-0.105779 -0.775025,-0.375364 -0.915321,-0.589495 -0.07035,-0.107375 -0.104431,-0.336945 -0.124281,-0.842261 -0.0399,-1.015762 0.08496,-1.302012 0.84814,-1.953235 0.489724,-0.417878 0.997003,-0.745188 1.153807,-0.744848 0.348694,8.4e-4 1.110768,0.09153 1.27473,0.151995 0.09785,0.03607 0.361857,0.185388 0.586143,0.331695 0.333415,0.217493 0.432908,0.32068 0.547512,0.566825 0.0771,0.16558 0.140761,0.344511 0.141077,0.397197 3.01e-4,0.05268 0.0516,0.16056 0.114205,0.240164 0.184625,0.234729 0.279941,1.535477 0.157871,2.154772 -0.08195,0.415759 -0.360246,1.169722 -0.508884,1.378852 -0.04896,0.06884 -0.275535,0.224135 -0.503846,0.344293 -0.228319,0.120161 -0.489746,0.288215 -0.581102,0.373688 -0.161568,0.151156 -0.18503,0.155107 -0.859897,0.142755 -0.774155,-0.01418 -1.409188,-0.08547 -1.585437,-0.177185 -0.06416,-0.03341 -0.245327,-0.07883 -0.402237,-0.101609 -0.340165,-0.04938 -1.063555,-0.345703 -1.325115,-0.542473 -0.102792,-0.07733 -0.327023,-0.195961 -0.498808,-0.263677 -0.171783,-0.06772 -0.381012,-0.170113 -0.465217,-0.227572 -0.223043,-0.152192 -1.417032,-0.719657 -1.514058,-0.719657 -0.04545,0 -0.20381,-0.05206 -0.352692,-0.115884 l -0.271238,-0.115883 0.503007,-0.498802 c 0.276645,-0.274182 0.503006,-0.540452 0.503006,-0.59202 0,-0.05157 0.04713,-0.128683 0.104968,-0.171308 0.05783,-0.04261 0.299403,-0.350888 0.536596,-0.685223 0.237193,-0.33434 0.469835,-0.607974 0.517283,-0.607974 0.04745,0 0.08649,-0.02816 0.08649,-0.06298 0,-0.03479 0.06417,-0.14893 0.142756,-0.252762 0.07858,-0.103832 0.275853,-0.459569 0.438347,-0.791037 0.328397,-0.669887 0.853122,-1.291505 1.143729,-1.355338 0.120323,-0.02643 0.156249,-0.06301 0.130161,-0.130999 -0.02901,-0.07561 -0.0065,-0.08592 0.115045,-0.05542 0.101309,0.02543 0.196973,0.0019 0.291391,-0.07054 0.07732,-0.05932 0.187288,-0.124437 0.244365,-0.145275 0.05709,-0.02084 0.103288,-0.06143 0.103288,-0.08985 0,-0.02842 0.114142,-0.08557 0.252764,-0.126801 0.514189,-0.152958 0.53556,-0.168921 0.497128,-0.361088 -0.04021,-0.201193 0.01702,-0.21962 0.234288,-0.07726 0.133088,0.08721 0.160255,0.08831 0.239327,0.0092 0.07907,-0.07908 0.07193,-0.100517 -0.06298,-0.188942 -0.08349,-0.05471 -0.151993,-0.139086 -0.151993,-0.187261 0,-0.114034 0.09632,-0.112818 0.140237,0.0017 0.01877,0.04893 0.07517,0.08901 0.125121,0.08901 0.04994,0 0.0907,-0.04009 0.0907,-0.08901 0,-0.115118 0.05362,-0.112452 0.188102,0.0092 0.152133,0.137685 0.134379,0.217302 -0.04031,0.183903 -0.09942,-0.019 -0.147796,-0.002 -0.147796,0.05207 0,0.08422 0.07578,0.09401 0.978303,0.119242 0.77271,0.0216 1.176474,0.08262 1.30496,0.197339 0.06521,0.05824 0.223687,0.124721 0.352693,0.147794 0.129004,0.02307 0.311094,0.105932 0.404756,0.184743 0.09365,0.07881 0.196367,0.143595 0.22757,0.143595 0.03117,0 0.148022,0.09091 0.25948,0.202378 0.111453,0.111461 0.250331,0.21193 0.309027,0.22337 0.06297,0.01228 0.107276,0.07406 0.108327,0.150314 6.88e-4,0.07107 0.02104,0.148663 0.0445,0.172146 0.02346,0.02349 0.04282,-0.0019 0.04282,-0.05626 0,-0.05436 0.02698,-0.09909 0.05962,-0.09909 0.03264,0 0.05878,0.03422 0.05878,0.07558 0,0.04136 0.06281,0.167731 0.139398,0.28131 0.07657,0.113583 0.127428,0.24052 0.113365,0.281314 -0.01513,0.04386 0.0085,0.06064 0.0571,0.04201 0.112651,-0.04323 0.416621,0.426842 0.370328,0.572702 -0.02523,0.07956 -0.01148,0.101497 0.04954,0.0781 0.107152,-0.0411 0.304541,0.505522 0.214974,0.595372 -0.0374,0.03758 -0.01246,0.09233 0.07222,0.156196 0.12754,0.09621 0.13039,0.124176 0.116727,1.259606 -0.0077,0.638866 -0.03805,1.24516 -0.06718,1.346945 -0.02919,0.101782 -0.03797,0.257675 -0.02016,0.346812 0.04595,0.229892 -0.201056,1.367359 -0.338416,1.559395 -0.06325,0.08838 -0.115045,0.191004 -0.115045,0.227571 0,0.03654 -0.09087,0.204224 -0.202378,0.372841 -0.111494,0.168621 -0.234496,0.373594 -0.272915,0.455141 -0.03845,0.08154 -0.282231,0.30813 -0.542474,0.503842 -0.260237,0.195711 -0.576977,0.456263 -0.703705,0.578579 -0.186419,0.179937 -0.274739,0.222532 -0.462698,0.222532 -0.127772,0 -0.335566,0.04141 -0.461859,0.09237 -0.414037,0.167077 -0.643996,0.27984 -0.678513,0.332534 -0.01871,0.0285 -0.152022,0.0725 -0.29643,0.09741 -0.26065,0.04498 -0.263238,0.04708 -0.255282,0.280471 0.0095,0.278076 0.166538,1.232239 0.255282,1.551841 0.03432,0.123507 0.06278,0.33696 0.06299,0.474448 1.82e-4,0.137494 0.03897,0.364691 0.08649,0.504686 0.06465,0.190373 0.08996,0.615017 0.09909,1.682837 0.007,0.785273 -0.0083,1.459381 -0.03275,1.498937 -0.0676,0.109392 -0.28582,1.249234 -0.29391,1.535045 -0.0049,0.160982 -0.03402,0.251923 -0.08229,0.251923 -0.0416,0 -0.100363,0.06437 -0.130161,0.142756 -0.02977,0.07837 -0.0821,0.159979 -0.116724,0.181385 -0.0346,0.02143 -0.06299,0.08946 -0.06299,0.151147 0,0.06171 -0.04706,0.138034 -0.104128,0.170466 -0.09256,0.0526 -0.09429,0.07372 -0.01847,0.195661 0.04679,0.0752 0.12026,0.207871 0.16375,0.293916 0.0435,0.08605 0.13183,0.170347 0.1965,0.187263 0.07822,0.02045 0.117564,0.08053 0.117564,0.180539 0,0.08267 0.02698,0.167103 0.05962,0.187262 0.03264,0.02017 0.05962,0.127934 0.05962,0.24017 0,0.112235 0.02614,0.204053 0.05878,0.204053 0.03264,0 0.05962,0.06185 0.05962,0.136878 0,0.07503 0.03026,0.16627 0.06718,0.203219 0.08906,0.08906 0.02015,0.259888 -0.08817,0.218329 -0.09791,-0.03754 -0.275437,0.1861 -0.275437,0.346815 0,0.08039 0.04789,0.108517 0.192301,0.112523 1.742502,0.04834 4.083253,0.0634 4.119781,0.0269 0.07501,-0.07502 -0.09629,-0.304059 -0.65584,-0.876683 -0.337339,-0.345205 -0.670784,-0.658762 -0.740653,-0.696146 -0.154991,-0.08296 -0.227141,-0.330711 -0.13016,-0.447584 0.03902,-0.047 0.218427,-0.128914 0.398878,-0.181379 l 0.328337,-0.09489 -0.118401,-0.130161 c -0.08463,-0.0926 -0.104965,-0.16393 -0.07054,-0.248561 0.07507,-0.184552 0.06411,-0.614477 -0.02604,-1.045475 -0.06205,-0.296669 -0.06876,-0.5145 -0.02687,-0.889285 0.03047,-0.273091 0.06565,-0.70979 0.07725,-0.970742 0.01162,-0.260938 0.04914,-0.54794 0.08397,-0.637362 0.03483,-0.08942 0.04845,-0.20116 0.03022,-0.248561 -0.05029,-0.130987 0.08321,-0.89182 0.222529,-1.269687 0.06808,-0.184594 0.14997,-0.495392 0.182224,-0.691102 0.0322,-0.195711 0.0837,-0.38677 0.114207,-0.42407 0.03052,-0.03726 0.06542,-0.149255 0.07809,-0.249401 0.05218,-0.412413 1.105041,-1.743777 1.722314,-2.177447 0.900088,-0.632357 1.085969,-0.743971 1.424205,-0.856535 0.730916,-0.243243 1.418211,-0.329159 1.95744,-0.245204 0.352021,0.05481 0.423732,0.05055 0.513922,-0.03109 0.08904,-0.08059 0.157013,-0.08535 0.447585,-0.0319 0.443939,0.08164 1.012413,0.03646 1.35031,-0.106648 0.0652,-0.02765 0.313368,-0.06352 0.55171,-0.08062 0.371687,-0.02666 0.46182,-0.05613 0.633163,-0.206576 0.109879,-0.09647 0.288785,-0.193532 0.3972,-0.215812 0.108433,-0.02227 0.303681,-0.088 0.434149,-0.146118 0.13046,-0.05812 0.330902,-0.140893 0.445067,-0.183062 0.11415,-0.04218 0.260587,-0.122083 0.325819,-0.178024 0.06521,-0.05594 0.225589,-0.13475 0.356049,-0.175504 0.26281,-0.08209 0.808463,-0.315818 1.037926,-0.444225 0.08154,-0.04563 0.414492,-0.21662 0.740651,-0.3804 0.326167,-0.163784 0.846474,-0.458259 1.156325,-0.654159 0.309864,-0.195901 0.601098,-0.356727 0.646604,-0.357729 0.04553,-8.4e-4 0.325282,-0.126293 0.622252,-0.277952 0.296966,-0.15166 0.647138,-0.296865 0.777601,-0.323303 0.130468,-0.02644 0.343985,-0.06989 0.474457,-0.09657 0.130459,-0.02666 0.406882,-0.02451 0.614688,0.005 0.243743,0.03465 0.512332,0.03113 0.755773,-0.0092 0.26361,-0.04368 0.498195,-0.04335 0.77844,0 0.220662,0.03414 0.614078,0.07011 0.875013,0.08062 0.488169,0.01965 0.753898,0.03951 1.551006,0.114202 0.570791,0.05349 0.72188,0.07824 0.910283,0.148637 0.08155,0.03048 0.319637,0.09776 0.529039,0.150314 0.209398,0.05255 0.540265,0.176403 0.734774,0.274593 0.210807,0.106425 0.403459,0.165341 0.476976,0.146114 0.0685,-0.01793 0.166996,0.0076 0.221691,0.0571 0.05414,0.049 0.228049,0.110173 0.387121,0.136039 0.15906,0.02588 0.382973,0.10495 0.497128,0.175505 0.114156,0.07056 0.261529,0.12836 0.3275,0.12848 0.06598,1.21e-4 0.262773,0.09401 0.437507,0.209096 0.174728,0.11508 0.454413,0.268003 0.62141,0.339254 0.371002,0.158289 0.954211,0.498983 1.048838,0.613009 0.03824,0.04609 0.114625,0.08398 0.16963,0.08398 0.05498,0 0.152497,0.03943 0.215815,0.08733 0.06332,0.04789 0.159424,0.08798 0.214135,0.08901 0.0547,8.41e-4 0.147972,0.06165 0.207418,0.135201 0.121712,0.150602 0.397176,0.34093 0.493765,0.34093 0.12212,0 0.414835,-0.260061 0.414835,-0.368644 0,-0.06013 0.0393,-0.124306 0.08733,-0.142755 0.04805,-0.01844 0.167017,-0.158087 0.263682,-0.309863 0.270603,-0.424873 1.055993,-1.430446 1.309995,-1.67696 0.378168,-0.367019 0.706598,-0.479911 0.624774,-0.214973 -0.02269,0.07339 -0.05351,0.387107 -0.06885,0.696982 -0.01534,0.309876 -0.05561,0.666444 -0.08901,0.792715 -0.06752,0.255358 0.02024,0.571025 0.158709,0.571025 0.199208,0 0.394537,-0.132347 0.473615,-0.321622 0.04686,-0.112143 0.113722,-0.222265 0.149471,-0.244365 0.03572,-0.0221 0.05106,-0.09727 0.03355,-0.167107 -0.04035,-0.161574 0.05541,-0.592303 0.137718,-0.61973 0.03615,-0.01204 0.06213,-0.204267 0.06213,-0.456818 0,-0.239798 0.02584,-0.503089 0.05709,-0.585299 0.03123,-0.08221 0.0409,-0.282113 0.02185,-0.443383 -0.04574,-0.385923 -0.212242,-0.495006 -0.526517,-0.34513 -0.121006,0.0577 -0.350893,0.09878 -0.54751,0.09825 -0.285235,-8.4e-4 -0.382286,-0.03087 -0.613013,-0.192297 -0.524501,-0.366951 -1.058976,-0.844927 -1.059753,-0.948067 -0.0014,-0.148744 -0.170267,-0.128408 -0.243533,0.02941 -0.239945,0.516843 -0.541919,0.782601 -1.184877,1.042117 -0.26018,0.105014 -0.441752,0.129943 -0.944707,0.130158 -0.342475,1.8e-4 -0.715511,0.0013 -0.829666,0.0026 -0.568586,0.0068 -0.703654,-0.0043 -1.121056,-0.09489 -0.247828,-0.05384 -0.497154,-0.121831 -0.554235,-0.151153 -0.212162,-0.109004 -0.373737,-0.2041 -0.460178,-0.270398 -0.04896,-0.03753 -0.26245,-0.139113 -0.474453,-0.225889 -0.212012,-0.08678 -0.532083,-0.225279 -0.711264,-0.308186 -0.179185,-0.0829 -0.418873,-0.16559 -0.533235,-0.183901 -0.162418,-0.02602 -0.318394,-0.146581 -0.712107,-0.54835 -0.546469,-0.557658 -0.53876,-0.548019 -1.277248,-1.522449 -0.475378,-0.627271 -0.916999,-1.410781 -0.916999,-1.626577 0,-0.05402 -0.04269,-0.200002 -0.09489,-0.324979 -0.111949,-0.267934 -0.140261,-1.525592 -0.0386,-1.715588 0.03474,-0.06488 0.09364,-0.237818 0.131002,-0.384601 0.175458,-0.689292 0.440864,-1.131551 1.005172,-1.672761 0.666988,-0.639681 1.434331,-1.059364 1.963323,-1.074867 0.25262,-0.0074 0.371827,0.01652 0.456819,0.09321 0.06325,0.05708 0.174443,0.104128 0.246885,0.104128 0.39333,0 0.718462,0.386157 0.718819,0.854015 0,0.318292 -0.223621,0.835517 -0.45514,1.053033 -0.189487,0.178022 -0.660375,0.257094 -0.796918,0.133519 -0.05764,-0.05217 -0.129208,-0.08005 -0.159549,-0.0613 -0.09477,0.05857 -0.525402,-0.432015 -0.601258,-0.685227 -0.06963,-0.232438 -0.06489,-0.247769 0.110845,-0.429108 0.182629,-0.188434 0.234713,-0.331696 0.121766,-0.331696 -0.07818,0 -0.27343,0.111185 -0.532401,0.301466 -0.114155,0.08388 -0.292713,0.186149 -0.396357,0.227569 -0.103648,0.04142 -0.234214,0.125845 -0.290551,0.188102 -0.05631,0.06226 -0.133959,0.113365 -0.172147,0.113365 -0.09255,0 -0.287124,0.225644 -0.377886,0.438344 -0.314611,0.737278 -0.321988,2.276576 -0.0126,2.67457 0.02558,0.03287 0.06317,0.128529 0.08313,0.212455 0.01994,0.08393 0.124638,0.271268 0.232611,0.415671 0.107968,0.144403 0.262221,0.390475 0.342613,0.54667 0.0804,0.156195 0.405622,0.556203 0.723022,0.889285 0.317385,0.333084 0.577959,0.632713 0.578583,0.665913 0.0022,0.123163 0.288616,0.477749 0.453462,0.561786 0.09373,0.04779 0.252599,0.14764 0.35353,0.221694 0.100926,0.07405 0.20358,0.134358 0.22841,0.134358 0.02481,0 0.124779,0.06709 0.221695,0.148628 0.0969,0.08155 0.227821,0.148632 0.290551,0.148632 0.06276,0 0.113364,0.02279 0.113364,0.05123 0,0.02846 0.110613,0.06917 0.245204,0.09069 0.134608,0.02154 0.407166,0.09443 0.605458,0.16123 0.39609,0.133442 0.968421,0.140953 1.225182,0.01681 0.08155,-0.03943 0.26686,-0.102972 0.411478,-0.141913 0.289162,-0.07787 0.84248,-0.371873 0.954787,-0.507204 0.0393,-0.04731 0.107039,-0.08649 0.150312,-0.08649 0.119542,0 0.360215,-0.355519 0.420711,-0.622249 0.04063,-0.179034 0.08554,-0.241819 0.184744,-0.256119 0.08276,-0.01195 0.131842,-0.06113 0.131842,-0.131839 0,-0.148985 -0.196862,-0.654395 -0.426595,-1.095019 -0.102031,-0.19571 -0.236479,-0.529469 -0.298109,-0.74149 -0.06164,-0.212019 -0.1354,-0.46561 -0.163746,-0.563465 -0.09477,-0.327147 -0.31162,-0.946493 -0.404755,-1.156321 -0.13392,-0.301724 -0.37133,-0.954823 -0.409798,-1.126931 -0.01818,-0.08154 -0.05317,-0.174797 -0.07809,-0.207416 -0.02494,-0.03262 -0.08706,-0.192957 -0.137717,-0.356049 -0.133808,-0.430899 -0.247431,-0.732796 -0.293909,-0.779278 -0.02236,-0.02235 -0.04114,-0.09104 -0.04114,-0.151993 0,-0.06095 -0.0375,-0.169602 -0.08397,-0.241845 -0.07568,-0.117716 -0.225934,-0.591532 -0.314065,-0.991732 -0.01793,-0.08155 -0.06481,-0.187879 -0.104125,-0.236807 -0.0393,-0.04893 -0.12343,-0.195345 -0.187264,-0.325819 -0.06381,-0.130473 -0.198529,-0.397986 -0.29979,-0.593695 -0.101254,-0.195711 -0.246477,-0.548673 -0.322462,-0.785157 -0.08,-0.248988 -0.171812,-0.430786 -0.217495,-0.430786 -0.04336,0 -0.17114,-0.193464 -0.284673,-0.429947 -0.113532,-0.236484 -0.243149,-0.493798 -0.28803,-0.571863 -0.0449,-0.07807 -0.06902,-0.176277 -0.0529,-0.218332 0.07755,-0.202112 1.729,-1.39123 2.291657,-1.650088 0.124277,-0.05718 0.240015,-0.139719 0.256964,-0.183903 0.01694,-0.04419 0.108827,-0.107876 0.204057,-0.141076 0.144897,-0.05051 0.172986,-0.09229 0.172986,-0.25864 0,-0.109338 0.02902,-0.228038 0.06466,-0.263678 0.13483,-0.134839 -0.19383,-0.551709 -0.434987,-0.551709 -0.120459,0 -0.181125,-0.03881 -0.22001,-0.141076 -0.03251,-0.08545 -0.256803,-0.265652 -0.568509,-0.456819 -0.283102,-0.173618 -0.527159,-0.350072 -0.543312,-0.392158 -0.01612,-0.04208 -0.156372,-0.114308 -0.311545,-0.160391 -0.298969,-0.08879 -0.490683,-0.183728 -0.684393,-0.338414 -0.06521,-0.05209 -0.372017,-0.237444 -0.681873,-0.411473 -0.30985,-0.17403 -0.620406,-0.375785 -0.690265,-0.449261 -0.07267,-0.07643 -0.341186,-0.199077 -0.62729,-0.286351 -0.275056,-0.0839 -0.676714,-0.259397 -0.892647,-0.389639 -0.215929,-0.130241 -0.431088,-0.236806 -0.477815,-0.236806 -0.144622,0 -0.530217,-0.178587 -0.840584,-0.389639 -0.163084,-0.1109 -0.41806,-0.224269 -0.566827,-0.251923 -0.148771,-0.02765 -0.375113,-0.121347 -0.503005,-0.208255 -0.127884,-0.08691 -0.278483,-0.15787 -0.334216,-0.15787 -0.05576,0 -0.117562,-0.027 -0.137718,-0.05962 -0.02016,-0.03262 -0.11867,-0.05962 -0.218337,-0.05962 -0.09966,0 -0.304785,-0.06446 -0.455976,-0.143596 -0.151188,-0.07913 -0.354773,-0.156493 -0.452625,-0.172146 -0.09785,-0.01565 -0.29829,-0.06923 -0.445061,-0.119243 -0.9506,-0.323912 -1.243188,-0.414576 -1.463675,-0.45178 -0.136582,-0.02305 -0.419917,-0.126754 -0.629806,-0.230088 -0.209892,-0.103337 -0.444786,-0.187981 -0.522323,-0.188102 -0.07754,-1.19e-4 -0.235169,-0.05804 -0.349333,-0.129321 -0.114156,-0.07128 -0.300676,-0.13443 -0.414832,-0.140235 -0.491908,-0.02502 -0.927245,-0.108076 -1.028686,-0.1965 -0.07877,-0.06865 -0.277033,-0.10405 -0.711264,-0.12596 -0.406503,-0.02051 -0.66826,-0.06437 -0.804473,-0.134359 -0.128907,-0.06624 -0.336245,-0.103288 -0.573548,-0.103288 -0.204354,0 -0.526957,-0.03916 -0.717136,-0.08733 -0.190188,-0.04817 -0.57258,-0.100691 -0.849824,-0.116724 -0.277239,-0.01603 -0.677281,-0.06012 -0.889288,-0.09741 -0.204626,-0.03599 -0.34549,-0.05557 -0.494609,-0.06298 z m -2.685499,0.999291 c 0.174959,0.01468 0.488676,0.09578 0.55423,0.15787 0.118308,0.112061 -0.573354,0.783343 -0.920357,0.893483 -0.0734,0.0233 -0.252474,0.133445 -0.39888,0.245204 -0.146403,0.111759 -0.318665,0.203217 -0.382083,0.203217 -0.06338,0 -0.181005,0.03027 -0.261998,0.06718 -0.08265,0.03766 -0.194909,0.04721 -0.255282,0.02099 -0.05918,-0.02569 -0.187664,-0.05449 -0.285516,-0.06382 -0.09785,-0.0093 -0.218113,-0.02066 -0.267037,-0.02519 -0.307607,-0.02851 -1.431449,0.091 -1.587954,0.168789 -0.0559,0.02777 -0.287848,0.05539 -0.515603,0.06214 -0.227757,0.0067 -0.492556,0.05156 -0.587821,0.09909 -0.09526,0.04753 -0.255904,0.08701 -0.356891,0.08817 -0.100994,0.0012 -0.335118,0.03878 -0.520641,0.08313 -0.185522,0.04435 -0.348606,0.06958 -0.361929,0.05626 -0.0133,-0.01332 -0.120346,0.01614 -0.238488,0.0655 -0.11814,0.04937 -0.463114,0.102842 -0.765845,0.119243 -1.048371,0.0568 -2.181777,0.241222 -3.515167,0.571023 -0.299943,0.07419 -0.556585,0.109311 -1.020288,0.139396 -0.202215,0.01312 -0.420644,0.05185 -0.485371,0.08649 -0.06472,0.03464 -0.165829,0.06313 -0.225052,0.06298 -0.106236,-2.37e-4 -0.771081,0.189699 -1.478788,0.422389 -0.19968,0.06566 -0.539398,0.127987 -0.754929,0.138557 -0.251847,0.01235 -0.477944,0.06396 -0.632327,0.144435 -0.13212,0.06887 -0.286399,0.125122 -0.342615,0.125122 -0.0854,0 -0.585046,0.167119 -0.969904,0.324139 -0.05378,0.02194 -0.116524,0.0093 -0.139398,-0.02771 -0.02288,-0.03701 0.0077,-0.103359 0.06802,-0.147794 0.176049,-0.129633 1.16182,-0.60454 1.341911,-0.646599 0.09058,-0.02115 0.303409,-0.124515 0.473615,-0.229249 0.388025,-0.238768 1.220233,-0.545622 1.674448,-0.617209 0.190928,-0.03009 0.226333,-0.0428 0.800276,-0.283832 0.119033,-0.04999 0.324974,-0.170239 0.42407,-0.248563 0.04425,-0.03497 0.173874,-0.08004 0.288033,-0.09993 0.216696,-0.03776 0.846785,-0.211439 1.304122,-0.359409 0.146774,-0.04749 0.547654,-0.169853 0.890128,-0.271236 0.342473,-0.101383 0.702426,-0.212822 0.800275,-0.247724 0.09785,-0.0349 0.29829,-0.08581 0.445063,-0.113364 0.146776,-0.02756 0.406993,-0.104371 0.578585,-0.171308 0.171583,-0.06694 0.430081,-0.121762 0.574383,-0.121762 0.144296,0 0.327749,-0.02486 0.408116,-0.05542 0.177054,-0.06732 1.596555,-0.294643 2.293342,-0.366966 1.599064,-0.165976 2.03259,-0.194088 3.063383,-0.197339 0.624974,-0.002 1.153536,-0.02005 1.173958,-0.04031 0.01311,-0.013 0.05589,-0.01497 0.114207,-0.01008 z m 3.565551,0.136038 c 0.04196,0 0.09122,0.04008 0.110007,0.08901 0.04567,0.119006 0.155568,0.112182 0.249405,-0.01512 0.07181,-0.09742 0.08467,-0.09541 0.203214,0.03107 0.13031,0.139038 0.237651,0.130484 0.237651,-0.01931 0,-0.125311 0.125278,-0.104215 0.159549,0.02687 0.02915,0.111331 0.239856,0.183903 0.532397,0.183903 0.152378,0 0.434988,0.157769 0.434988,0.242684 0,0.02805 -0.07657,0.03558 -0.170466,0.0168 -0.09707,-0.01942 -0.18868,-0.006 -0.211617,0.03107 -0.02219,0.03591 -0.08138,0.0655 -0.131839,0.0655 -0.05043,0 -0.196495,0.0828 -0.324143,0.183903 -0.127643,0.101101 -0.270072,0.168482 -0.317422,0.150314 -0.04735,-0.01817 -0.120347,7.7e-4 -0.16207,0.04199 -0.09577,0.09463 -0.371062,0.243099 -0.636526,0.342613 -0.112754,0.04227 -0.302628,0.174133 -0.421551,0.29307 -0.235681,0.235694 -0.606455,0.327273 -0.887607,0.219171 -0.08048,-0.03095 -0.26638,-0.06587 -0.413156,-0.07726 -0.146776,-0.01138 -0.387302,-0.03857 -0.534078,-0.06046 -0.146772,-0.0219 -0.313247,-0.04215 -0.370327,-0.04535 -0.05709,-0.0032 -0.104125,-0.03371 -0.104125,-0.06802 0,-0.06912 0.484196,-0.364309 0.873333,-0.532395 0.137906,-0.05957 0.291058,-0.169517 0.340093,-0.244364 0.04903,-0.07485 0.1633,-0.177005 0.253606,-0.22673 0.404521,-0.222764 0.926118,-0.45094 1.031201,-0.45094 0.06325,0 0.129858,-0.04009 0.148638,-0.08901 0.01879,-0.04893 0.06888,-0.08901 0.110845,-0.08901 z m 3.50845,0.847296 c 0.0279,-3e-5 0.06083,0.0047 0.101605,0.0126 0.379688,0.07358 0.785826,0.161903 1.044643,0.22673 0.146776,0.03676 0.285094,0.06117 0.307344,0.05458 0.07102,-0.02103 0.464379,0.163207 0.464379,0.217492 0,0.02873 -0.207403,0.264163 -0.460179,0.523158 -0.301402,0.308814 -0.561314,0.51596 -0.755768,0.602094 -0.163088,0.07224 -0.372042,0.17016 -0.464378,0.217492 -0.229305,0.117536 -0.602793,0.09859 -1.37382,-0.0697 -0.847643,-0.185011 -1.097159,-0.254958 -1.096704,-0.306505 4.3e-4,-0.05236 0.295108,-0.242506 0.71126,-0.459338 0.114155,-0.05948 0.30068,-0.180254 0.414835,-0.267876 0.11416,-0.08762 0.338263,-0.209001 0.497967,-0.270397 0.199362,-0.07664 0.327406,-0.172935 0.408116,-0.307344 0.0777,-0.129398 0.116924,-0.172894 0.2007,-0.172986 z m 3.515165,0.874169 c 0.07457,-0.0067 0.183232,0.01931 0.320782,0.0781 0.102774,0.04393 0.419986,0.152435 0.705386,0.241006 0.474521,0.147265 0.518961,0.174126 0.518961,0.312382 0,0.140666 0.01513,0.148756 0.208254,0.112526 0.114156,-0.02141 0.207416,-0.01599 0.207416,0.01259 0,0.08744 -0.281625,0.208585 -0.408117,0.175506 -0.08706,-0.02276 -0.12449,0.0012 -0.137716,0.08817 -0.01316,0.08642 -0.119457,0.155798 -0.387959,0.252762 -0.430027,0.155292 -0.549196,0.240076 -0.549196,0.391319 0,0.140226 -0.179249,0.235798 -0.355211,0.189781 -0.08439,-0.02207 -0.162193,-0.0034 -0.202376,0.04786 -0.09333,0.119224 -0.490486,0.112383 -0.835545,-0.01428 -0.162809,-0.05976 -0.322319,-0.103425 -0.355211,-0.09741 -0.03293,0.006 -0.113635,-0.0057 -0.178867,-0.02519 -0.06521,-0.01949 -0.24563,-0.07041 -0.400558,-0.113365 -0.154927,-0.04295 -0.281315,-0.094 -0.281315,-0.113365 0,-0.07 0.353384,-0.294748 0.46354,-0.294748 0.06206,0 0.213608,-0.08017 0.336736,-0.178025 0.123138,-0.09786 0.272037,-0.177185 0.330859,-0.177185 0.05883,0 0.124711,-0.02835 0.146118,-0.06298 0.02141,-0.03463 0.09605,-0.08871 0.166269,-0.119243 0.327226,-0.142266 0.459667,-0.267916 0.412313,-0.391318 -0.01772,-0.04615 0.01019,-0.07894 0.06551,-0.07894 0.05576,0 0.09489,-0.04984 0.09489,-0.119243 0,-0.07101 0.04046,-0.110094 0.115046,-0.116724 z m 3.638609,1.374654 c 0.09662,-0.01278 0.201435,0.01444 0.372004,0.0739 0.798291,0.278243 1.042419,0.456119 0.707906,0.51644 -0.06486,0.0117 -0.127351,0.07264 -0.139398,0.135198 -0.01204,0.06255 -0.05955,0.151089 -0.104967,0.196498 -0.04539,0.04541 -0.08229,0.120511 -0.08229,0.167109 0,0.0466 -0.03217,0.08481 -0.07138,0.08481 -0.03921,0 -0.152516,0.07691 -0.25192,0.170467 -0.197681,0.186045 -0.827926,0.545055 -0.940512,0.535753 -0.03874,-0.0032 -0.17688,-0.03717 -0.307349,-0.07474 -0.130469,-0.03757 -0.293608,-0.100577 -0.362769,-0.140235 -0.120317,-0.069 -0.463197,-0.16929 -0.806992,-0.235968 -0.175149,-0.03397 -0.312212,-0.160597 -0.262003,-0.241845 0.03551,-0.05742 0.358844,-0.223467 0.927081,-0.475292 0.212013,-0.09395 0.422137,-0.215126 0.466895,-0.269556 0.04475,-0.05443 0.127561,-0.09909 0.183905,-0.09909 0.05631,0 0.21341,-0.08017 0.348492,-0.178025 0.138533,-0.100359 0.226686,-0.152641 0.323304,-0.165428 z m 2.842532,1.052194 0.424068,0.209095 c 0.233019,0.115142 0.443921,0.209095 0.469417,0.209095 0.06367,0 0.398039,0.250329 0.398039,0.298107 0,0.02125 -0.06012,0.06966 -0.133522,0.107487 -0.07338,0.03782 -0.253782,0.162211 -0.400557,0.276274 -0.146771,0.114064 -0.327165,0.233418 -0.400558,0.265358 -0.07338,0.03194 -0.133516,0.08582 -0.133516,0.119243 0,0.03343 -0.08252,0.06046 -0.183905,0.06046 -0.165415,0 -0.180957,0.01478 -0.148634,0.143596 0.03138,0.124873 0.01139,0.149287 -0.156191,0.185583 -0.105983,0.02295 -0.263602,0.09165 -0.350177,0.152832 -0.201981,0.142736 -0.256059,0.138545 -0.61385,-0.04199 -0.16308,-0.08229 -0.333133,-0.201703 -0.377886,-0.265358 -0.04476,-0.06366 -0.106912,-0.115044 -0.138555,-0.115044 -0.03165,0 -0.122879,-0.05167 -0.202382,-0.114204 l -0.144433,-0.113365 0.272076,-0.25696 c 0.149782,-0.141329 0.330894,-0.282217 0.402239,-0.313223 0.07134,-0.031 0.223419,-0.127499 0.337574,-0.214134 0.114155,-0.08663 0.403872,-0.255542 0.644084,-0.375363 z m 3.070938,1.48046 0.266199,0.222531 c 0.146587,0.122541 0.267041,0.240401 0.267041,0.26116 0,0.02075 -0.106468,0.08519 -0.235968,0.143595 -0.129497,0.0584 -0.280111,0.155934 -0.335059,0.216653 -0.05498,0.06072 -0.161412,0.110005 -0.236808,0.110005 -0.112482,0 -0.536824,0.308583 -0.822947,0.597895 -0.03263,0.03298 -0.176593,0.178721 -0.319942,0.324139 -0.143358,0.145418 -0.276697,0.260563 -0.296432,0.256121 -0.01974,-0.0044 -0.09369,-0.01905 -0.163746,-0.03275 -0.07006,-0.0137 -0.142924,-0.06987 -0.162074,-0.125121 -0.01918,-0.05525 -0.128696,-0.216305 -0.243523,-0.357729 -0.114835,-0.141423 -0.19523,-0.280361 -0.178029,-0.308185 0.01716,-0.02782 0.182806,-0.136828 0.367809,-0.242685 0.185011,-0.105856 0.442683,-0.292354 0.572704,-0.41483 0.328623,-0.309556 0.713771,-0.505067 1.14961,-0.58362 z M 1.8983546,75.296342 c 0.092002,0.01842 0.090148,0.03119 -0.017635,0.128481 -0.084442,0.07622 -0.1313296,0.08785 -0.1612308,0.03947 -0.05644,-0.09133 0.051936,-0.193368 0.1788654,-0.167948 z m -1.41832669,0.22841 c 0.10472435,0 0.0864451,0.127093 -0.0235127,0.163749 -0.0387336,0.01291 -0.0705385,-0.01805 -0.0705385,-0.0697 0,-0.05164 0.0424053,-0.09405 0.094051,-0.09405 z M 38.54224,76.084858 c 0.01818,-0.0027 0.04816,0.0082 0.09405,0.03275 0.06521,0.03491 0.118404,0.08945 0.118404,0.120922 0,0.06506 -0.137622,0.07736 -0.19734,0.01764 -0.02172,-0.02174 -0.03947,-0.07628 -0.03947,-0.120922 0,-0.03139 0.0062,-0.04767 0.02436,-0.05039 z m -0.02939,0.375364 c 0.05645,0.0064 0.07144,0.121053 0.05458,0.356049 -0.01632,0.227067 -0.0014,0.281526 0.08313,0.298108 0.08794,0.0172 0.104129,-0.02563 0.104129,-0.282153 0,-0.343699 0.106901,-0.441083 0.296429,-0.269556 0.06283,0.05684 0.154119,0.0877 0.203218,0.06886 0.125083,-0.048 0.178443,0.06594 0.158711,0.339254 -0.02844,0.394183 -0.09974,0.519387 -0.272076,0.476133 -0.171332,-0.043 -0.189842,0.01018 -0.05543,0.15871 0.0519,0.05739 0.08177,0.165193 0.06718,0.241846 -0.0145,0.07608 -0.03002,0.104563 -0.03443,0.06298 -0.0042,-0.04158 -0.07465,-0.100836 -0.156192,-0.13184 -0.08155,-0.031 -0.147795,-0.09524 -0.147795,-0.142755 0,-0.123788 -0.321075,-0.335215 -0.482013,-0.317422 -0.08993,0.0099 -0.143625,-0.02056 -0.157872,-0.08901 -0.01506,-0.07242 0.01582,-0.103288 0.10161,-0.103288 0.14248,0 0.16396,-0.09022 0.03359,-0.140236 -0.132802,-0.05096 -0.106964,-0.248921 0.05459,-0.423228 0.06602,-0.07125 0.114761,-0.106298 0.148635,-0.102449 z m 1.262134,0.258639 c 0.05158,-0.02183 0.113251,0.0026 0.141917,0.09153 0.0192,0.05949 0.06004,0.161921 0.09154,0.228409 0.110086,0.232537 -0.14569,0.5935 -0.273756,0.386281 -0.01926,-0.03119 -0.07388,-0.04189 -0.121763,-0.02352 -0.0622,0.02389 -0.08733,-0.0091 -0.08733,-0.115045 0,-0.08155 0.04194,-0.164225 0.09321,-0.183902 0.06086,-0.02335 0.08636,-0.09231 0.0739,-0.198179 -0.01135,-0.0963 0.03071,-0.163749 0.08229,-0.185583 z m -0.04702,0.443383 c -0.01546,0.0092 -0.02436,0.02804 -0.02436,0.05458 0,0.04791 0.04012,0.08733 0.08901,0.08733 0.04896,0 0.08902,-0.02461 0.08902,-0.05374 0,-0.02912 -0.04012,-0.06772 -0.08902,-0.08649 -0.02711,-0.0104 -0.0492,-0.01088 -0.06466,-0.0017 z m 0.12848,0.734772 c 0.05519,0 0.08525,0.04056 0.0739,0.09909 -0.02886,0.148785 -0.16711,0.168883 -0.16711,0.02435 0,-0.07285 0.03822,-0.123441 0.09321,-0.12344 z m -18.82201,6.236747 c 0.0196,0.0058 0.04116,0.01935 0.06046,0.03861 0.05349,0.05349 0.05442,0.08663 0.0017,0.139397 -0.05276,0.05276 -0.07866,0.0454 -0.108328,-0.0319 -0.0214,-0.05579 -0.0217,-0.118515 -8.41e-4,-0.139397 0.01043,-0.01045 0.02743,-0.01255 0.04702,-0.0067 z m 2.731687,1.592144 c -0.101651,-0.0013 -0.09346,0.15291 0.01763,0.32246 0.06128,0.09353 0.0718,0.153173 0.03023,0.178866 -0.108534,0.06708 -0.06811,0.149901 0.06634,0.135197 0.09424,-0.01032 0.138839,0.0258 0.165429,0.13352 0.02806,0.113695 0.08575,0.155344 0.251083,0.18222 0.118111,0.01922 0.277338,0.07576 0.353533,0.125123 0.0762,0.04936 0.204811,0.10624 0.286353,0.1268 0.08154,0.02055 0.192679,0.11606 0.246883,0.212454 0.05421,0.0964 0.214557,0.249063 0.356052,0.339258 0.141495,0.0902 0.283967,0.192242 0.316583,0.226728 0.03262,0.03448 0.214569,0.192852 0.403917,0.351851 0.248072,0.208313 0.339756,0.323999 0.328339,0.41483 -0.0087,0.06933 0.03255,0.220055 0.09154,0.334219 0.134634,0.260608 0.198264,0.913713 0.100768,1.031196 -0.04021,0.04844 -0.05339,0.149527 -0.03107,0.238488 0.03942,0.157055 -0.19331,0.750607 -0.32666,0.833024 -0.09633,0.05954 -0.07702,0.227715 0.02184,0.189777 0.06764,-0.02599 0.08053,0.01996 0.0613,0.225047 -0.02175,0.232127 -0.0103,0.2614 0.119243,0.293915 0.079,0.01982 0.285508,0.205749 0.458501,0.413991 0.172992,0.208241 0.421244,0.449069 0.551711,0.534911 0.130467,0.08584 0.314892,0.261821 0.410635,0.391323 0.09574,0.129502 0.221277,0.250459 0.278795,0.268713 0.05752,0.01828 0.119473,0.08023 0.137717,0.137719 0.01825,0.05751 0.128931,0.209706 0.246046,0.337576 0.117114,0.127863 0.261997,0.327342 0.321621,0.444222 0.05963,0.116887 0.148658,0.246929 0.198179,0.288032 0.04952,0.04112 0.135595,0.212501 0.190622,0.381244 0.05503,0.168728 0.119634,0.333499 0.143597,0.36612 0.183396,0.249639 0.366178,1.099936 0.440026,2.045609 0.04467,0.572078 0.06692,0.603536 0.478653,0.665913 0.106864,0.01618 0.120454,0.06802 0.13016,0.521476 0.0075,0.351572 -0.01543,0.543087 -0.07474,0.634848 -0.122333,0.189259 -0.105133,0.336735 0.06802,0.592014 0.195256,0.287856 0.279947,0.334297 0.677673,0.371999 0.494612,0.0469 2.572052,0.002 2.631755,-0.05708 0.03024,-0.02991 -0.01606,-0.169682 -0.110006,-0.330019 -0.160116,-0.273238 -0.333694,-0.458539 -1.124416,-1.199984 -0.488546,-0.458112 -0.498069,-0.577255 -0.04702,-0.572709 0.295889,0.0028 0.309865,-0.0042 0.309865,-0.151987 0,-0.08518 -0.09693,-0.31341 -0.215813,-0.507208 -0.118887,-0.193784 -0.295335,-0.499111 -0.392161,-0.678507 -0.09683,-0.179404 -0.210344,-0.365903 -0.251923,-0.414831 -0.04158,-0.04896 -0.146436,-0.288894 -0.233449,-0.532397 -0.08701,-0.243503 -0.183668,-0.47367 -0.214973,-0.511397 -0.08452,-0.101841 -0.351853,-0.913766 -0.351853,-1.06899 0,-0.07391 -0.027,-0.151147 -0.05962,-0.171306 -0.07841,-0.04847 -0.07548,-0.421261 0.0042,-0.570187 0.04679,-0.08744 0.03895,-0.182122 -0.02856,-0.366961 -0.05001,-0.136941 -0.09989,-0.46387 -0.111686,-0.727218 -0.0118,-0.263354 -0.03637,-0.50386 -0.05458,-0.534071 -0.01821,-0.03019 5.17e-4,-0.308177 0.04199,-0.61805 0.04144,-0.30988 0.07864,-0.676424 0.08229,-0.814548 0.01061,-0.4005 0.17382,-1.244752 0.281313,-1.454428 0.05421,-0.105737 0.171436,-0.299578 0.261161,-0.430785 0.08973,-0.131211 0.201994,-0.331635 0.249404,-0.445064 0.140287,-0.335642 0.226523,-0.376908 0.62225,-0.299788 0.188295,0.03672 0.564563,0.09255 0.836384,0.124284 0.27182,0.03173 0.645695,0.09532 0.830506,0.141074 0.4957,0.122733 0.840583,0.155203 0.840583,0.07893 0,-0.08938 -0.242543,-0.339254 -0.329178,-0.339254 -0.03899,0 -0.274836,-0.107173 -0.524,-0.237645 -0.249164,-0.130476 -0.483572,-0.236806 -0.521481,-0.236806 -0.03791,0 -0.111417,-0.03668 -0.162911,-0.08061 -0.163053,-0.139165 -1.329038,-0.588739 -1.576198,-0.607974 -0.130467,-0.01015 -0.413863,-0.03599 -0.629808,-0.0571 -0.295793,-0.02894 -0.441882,-0.01535 -0.592859,0.05458 -0.110219,0.05104 -0.36105,0.15104 -0.55675,0.222531 -0.195699,0.07149 -0.419341,0.17977 -0.497128,0.240169 -0.222782,0.172984 -0.616413,0.141237 -1.172282,-0.09321 -0.263857,-0.111287 -0.642399,-0.247296 -0.841422,-0.303146 -0.244542,-0.06862 -0.373335,-0.138104 -0.397199,-0.213293 -0.03471,-0.109361 -0.12411,-0.140489 -0.347654,-0.120083 -0.06205,0.0057 -0.171943,-0.02812 -0.244366,-0.07558 -0.07242,-0.04746 -0.189024,-0.07133 -0.25948,-0.05291 -0.07592,0.01987 -0.171602,-0.0054 -0.234288,-0.06214 -0.20737,-0.187676 -1.535857,-0.231045 -1.595514,-0.05207 -0.03985,0.119568 -0.1923,0.08356 -0.1923,-0.04535 0,-0.122595 -0.143086,-0.16372 -0.207417,-0.05962 -0.02004,0.03246 -0.09136,0.08907 -0.158712,0.125119 -0.09391,0.05026 -0.11215,0.04838 -0.07809,-0.0067 0.04611,-0.07461 -0.06353,-0.17476 -0.193141,-0.176347 z m 33.014512,0.711261 c -0.04595,0 -0.756753,0.453026 -1.315037,0.83806 -0.08837,0.06095 -0.185148,0.110845 -0.214974,0.110845 -0.02984,0 -0.357837,0.175684 -0.728897,0.390478 -0.718633,0.416015 -1.028218,0.508029 -1.771861,0.528197 -0.212002,0.0057 -0.7421,0.06798 -1.178157,0.138555 -0.436051,0.07058 -0.929352,0.128825 -1.096704,0.129323 -0.355917,8.41e-4 -0.537213,0.08222 -0.393842,0.176343 0.04896,0.03212 0.132217,0.05913 0.184744,0.05962 0.05253,4.3e-4 0.1941,0.06749 0.314903,0.149475 0.120803,0.08198 0.305049,0.189147 0.408954,0.237644 0.744719,0.347583 1.266427,0.753615 1.546809,1.205029 0.0944,0.151983 0.227744,0.333558 0.296428,0.403073 0.209442,0.211989 0.492244,0.629664 0.617213,0.911118 0.24145,0.543801 0.310131,0.756883 0.457659,1.423356 0.08303,0.375107 0.176963,0.775957 0.208258,0.890126 0.0615,0.224359 0.339054,1.83605 0.382922,2.223625 0.06535,0.577276 0.107689,0.834089 0.147794,0.889285 0.02369,0.03264 0.119246,0.309586 0.211616,0.614695 0.100359,0.331475 0.20503,0.568359 0.260322,0.588652 0.156587,0.05751 0.177164,0.146005 0.08397,0.365286 -0.101519,0.238888 -0.06815,0.783438 0.06802,1.109302 l 0.07977,0.192295 1.079072,7e-4 c 0.593407,0 1.086976,0.008 1.096705,0.0177 0.05289,0.0527 1.34429,-4.3e-4 1.401529,-0.05792 0.119707,-0.11971 -0.06017,-0.400191 -0.593699,-0.924554 -0.282412,-0.277567 -0.583156,-0.558587 -0.668432,-0.624767 -0.08528,-0.06619 -0.190494,-0.205321 -0.233449,-0.309025 -0.07328,-0.176931 -0.0686,-0.197441 0.08061,-0.325816 0.08746,-0.07523 0.159549,-0.17195 0.159549,-0.215813 0,-0.04385 -0.113299,-0.252883 -0.251924,-0.464375 -0.138619,-0.211492 -0.288732,-0.464095 -0.333378,-0.560948 -0.150602,-0.326656 -0.363607,-0.946121 -0.363607,-1.057229 0,-0.06066 -0.06705,-0.189441 -0.148633,-0.286351 -0.08155,-0.09692 -0.148509,-0.233942 -0.149476,-0.304829 -8.41e-4,-0.07089 -0.0813,-0.422158 -0.178025,-0.780958 -0.352687,-1.30829 -0.603342,-2.885133 -0.526519,-3.310253 0.02473,-0.13664 0.07622,-0.43506 0.114203,-0.663391 0.03806,-0.228328 0.118094,-0.708505 0.178029,-1.067308 0.05996,-0.358803 0.126513,-0.821133 0.148633,-1.027001 0.03203,-0.298026 0.08156,-0.428201 0.241846,-0.638204 0.110729,-0.145064 0.201539,-0.305223 0.201539,-0.356047 0,-0.05082 0.06849,-0.182496 0.152833,-0.293069 0.142137,-0.186361 0.151789,-0.32498 0.02266,-0.32498 z M 9.2200777,103.30166 c 0.057211,0.017 0.1176765,0.0946 0.1192433,0.1713 0.00148,0.0731 -0.09775,0.0502 -0.1721466,-0.0394 -0.052616,-0.0634 -0.052981,-0.0937 -8.404e-4,-0.12596 0.015949,-0.01 0.034678,-0.0116 0.053744,-0.006 z m 8.1438323,9.26148 c 0.08276,-0.004 0.164493,0.013 0.175507,0.0571 0.0081,0.0326 -0.07525,0.0684 -0.184744,0.0789 -0.144397,0.0138 -0.191932,-0.003 -0.172987,-0.0596 0.01515,-0.0455 0.09946,-0.072 0.182224,-0.0764 z m 44.589538,3.95349 c 0.05239,-0.003 0.107946,0.01 0.160392,0.0428 0.109554,0.0694 0.03869,0.24185 -0.09909,0.24184 -0.05975,0 -0.139118,0.0317 -0.177186,0.0697 -0.05274,0.0528 -0.07825,0.0466 -0.105806,-0.0252 -0.06486,-0.16901 0.06452,-0.32009 0.221691,-0.32917 z m -0.788519,1.35282 c 0.08036,0 0.02511,0.71827 -0.0613,0.79776 -0.04434,0.0408 -0.200881,0.12162 -0.347652,0.17886 -0.146776,0.0572 -0.300767,0.11689 -0.342618,0.13352 -0.06094,0.0242 -0.06226,-7e-4 -0.0059,-0.12512 0.03895,-0.0855 0.106628,-0.15535 0.150315,-0.15535 0.04371,0 0.07977,-0.0537 0.07977,-0.12009 0,-0.19361 0.383532,-0.70958 0.527358,-0.70958 z m -3.635249,0.12009 c -0.01595,0.004 -0.03336,0.0158 -0.05123,0.0335 -0.04749,0.0475 0.01476,0.20153 0.08145,0.20153 0.02915,0 0.05291,-0.0532 0.05291,-0.1184 0,-0.0867 -0.03534,-0.13047 -0.08313,-0.11672 z m -2.611603,0.77088 c -0.04563,-1.3e-4 -0.09666,0.017 -0.118404,0.052 -0.05939,0.0961 0.03517,0.24269 0.157035,0.24269 0.08379,0 0.108567,-0.0277 0.08313,-0.0941 -0.01982,-0.0516 -0.03611,-0.11784 -0.03611,-0.14779 0,-0.0352 -0.04002,-0.0528 -0.08566,-0.0529 z m 2.274025,0.23596 c 0.06633,0 0.163578,0.0866 0.236811,0.21078 0.143783,0.24371 0.160052,0.38208 0.04366,0.38208 -0.04483,0 -0.162353,0.0156 -0.260321,0.0352 -0.106705,0.0214 -0.194887,0.009 -0.220014,-0.0319 -0.05085,-0.0822 0.06968,-0.241 0.183064,-0.241 0.110045,0 0.104912,-0.1562 -0.0067,-0.19902 -0.126633,-0.0486 -0.110531,-0.1562 0.02352,-0.1562 z m -0.667595,0.55087 c 0.04356,-0.007 0.08563,-0.006 0.120085,0.008 0.08783,0.0337 0.10903,0.21246 0.0252,0.21246 -0.07492,0 -0.185815,0.34022 -0.145276,0.44589 0.06535,0.17036 0.435826,0.0848 0.435826,-0.10076 0,-0.14676 0.197819,-0.12409 0.226734,0.026 0.0144,0.0749 -0.05892,0.13731 -0.266203,0.22673 -0.573457,0.24736 -1.086626,0.38527 -1.086626,0.29223 0,-0.0333 0.02614,-0.0605 0.05878,-0.0605 0.03263,0 0.05962,-0.0662 0.05962,-0.14779 0,-0.1252 0.02777,-0.14863 0.178026,-0.14863 0.20112,0 0.216043,-0.0374 0.08817,-0.22001 -0.05674,-0.081 -0.06735,-0.14115 -0.02941,-0.16459 0.03297,-0.0204 0.05962,-0.0896 0.05962,-0.15368 0,-0.0937 0.144768,-0.19351 0.275438,-0.21497 z m -4.748748,0.22421 c 0.07131,-0.0228 0.165211,0.0419 0.233448,0.17383 0.0856,0.16555 0.08455,0.17759 -0.01342,0.17299 -0.05793,-0.003 -0.153349,-0.0572 -0.211616,-0.12093 -0.05828,-0.0637 -0.08997,-0.14155 -0.07054,-0.17298 0.01711,-0.0277 0.03835,-0.0453 0.06214,-0.0529 z m 2.252191,0.25865 c 0.124711,0.003 0.177216,0.0249 0.141917,0.0605 -0.03083,0.031 -0.05543,0.10418 -0.05543,0.1629 0,0.0587 -0.02701,0.10665 -0.05962,0.10665 -0.03263,0 -0.05962,-0.0382 -0.05962,-0.0848 0,-0.0466 -0.03684,-0.1217 -0.08229,-0.1671 -0.07052,-0.0705 -0.05398,-0.0817 0.115046,-0.0781 z m -5.021667,0.18642 c -0.09617,-0.003 -0.287154,0.0172 -0.586979,0.0596 -0.341328,0.0483 -0.734714,0.10388 -0.873333,0.12344 -0.280731,0.0396 -0.291316,0.0554 -0.159554,0.24352 0.06227,0.0889 0.154382,0.13206 0.282154,0.13268 0.118876,4.3e-4 0.160638,0.0188 0.113369,0.0487 -0.0414,0.0263 -0.06754,0.11191 -0.05878,0.18978 0.01156,0.10231 -0.01673,0.14739 -0.102449,0.16207 -0.272859,0.0467 -0.384735,0.14465 -0.346819,0.30483 0.02004,0.0845 0.07301,0.19623 0.117566,0.24772 0.104491,0.12081 0.101842,0.17392 -0.01174,0.25696 -0.134139,0.0981 -0.01664,0.39048 0.15703,0.39048 0.105071,0 0.122024,-0.0266 0.09741,-0.15535 -0.02158,-0.11284 -0.0026,-0.16316 0.07054,-0.18222 0.05967,-0.0156 0.129575,-0.13284 0.17131,-0.28887 0.03865,-0.1446 0.09658,-0.26285 0.129319,-0.26285 0.03276,0 0.116791,-0.0571 0.186422,-0.12679 0.113755,-0.11377 0.132627,-0.11654 0.181387,-0.0294 0.08099,0.14475 0.202678,0.11741 0.340094,-0.0756 0.128549,-0.18053 0.165216,-0.42071 0.06383,-0.42071 -0.03263,0 -0.05962,-0.0396 -0.05962,-0.0882 0,-0.0562 0.04856,-0.0829 0.133517,-0.0739 0.1145,0.0121 0.130911,-0.011 0.115045,-0.15871 -0.01015,-0.0947 0.01531,-0.19332 0.0571,-0.21918 0.07994,-0.0494 0.07938,-0.075 -0.01681,-0.0781 z m 5.908436,0.0252 c -0.10676,0 -0.116577,0.12611 -0.01763,0.22506 0.09816,0.0982 0.106648,0.0918 0.106648,-0.0773 0,-0.0923 -0.03366,-0.1478 -0.08901,-0.1478 z m -19.290587,0.38125 c 0.01581,-0.006 0.0336,-0.004 0.05122,0.007 0.07203,0.0445 0.07133,0.2049 -8.41e-4,0.2049 -0.03069,0 -0.07221,-0.027 -0.09237,-0.0596 -0.03628,-0.0587 -0.0054,-0.13547 0.04199,-0.15199 z m 9.342985,0.0252 c -0.07145,0.008 -0.151092,0.0359 -0.193141,0.0773 -0.03908,0.0384 0.01191,0.052 0.148638,0.0394 0.114151,-0.0105 0.199418,-0.0463 0.189778,-0.0789 -0.01045,-0.0354 -0.07383,-0.046 -0.145275,-0.0378 z m 7.046287,0.068 c -0.162297,0 -0.200305,0.1062 -0.08061,0.22589 0.09887,0.0989 0.1906,0.0568 0.213298,-0.0974 0.01526,-0.1037 -0.01002,-0.12849 -0.132683,-0.12849 z m 1.5762,0.0957 c 0.04287,7e-4 0.102904,0.0494 0.170467,0.14444 0.123863,0.17396 0.124866,0.1863 0.0252,0.29643 -0.188262,0.20805 -0.715874,0.30245 -0.778444,0.13939 -0.04595,-0.11982 0.264684,-0.38856 0.410635,-0.3552 0.06998,0.016 0.103286,-0.0118 0.103286,-0.0857 0,-0.0936 0.02601,-0.14025 0.06886,-0.1394 z m -9.316953,0.0302 c 0.05045,0.006 0.115885,0.0617 0.115885,0.11421 0,0.0758 -0.102839,0.0714 -0.151157,-0.007 v -7e-4 c -0.02149,-0.0348 -0.02416,-0.0775 -0.0067,-0.0949 0.01062,-0.0106 0.02515,-0.0139 0.042,-0.0118 z m -11.9823,0.052 c 0.03262,0 0.05962,0.0662 0.05962,0.1478 0,0.15527 -0.01356,0.17454 -0.07893,0.10916 -0.06152,-0.0615 -0.04694,-0.25696 0.01931,-0.25696 z m 16.258273,0.0151 c 0.03651,0.005 0.0774,0.0374 0.09573,0.0924 0.0129,0.0387 -0.01806,0.0697 -0.06969,0.0697 -0.05162,0 -0.09405,-0.0416 -0.09405,-0.0932 0,-0.0524 0.03151,-0.0741 0.06802,-0.0689 z m -11.651441,0.0428 c 0.04314,-0.004 0.08989,0.0297 0.13016,0.10497 0.04791,0.0895 0.0249,0.14354 -0.118404,0.27879 l -0.178025,0.16794 0.01848,-0.25947 c 0.01285,-0.17921 0.0759,-0.28649 0.147794,-0.29223 z m 3.725102,0.0605 c 0.04889,0 0.08902,0.0439 0.08902,0.0974 0,0.0535 0.04472,0.12984 0.09909,0.16963 0.0911,0.0666 0.08854,0.0871 -0.03359,0.25864 -0.120571,0.16933 -0.302308,0.25286 -0.302308,0.13939 0,-0.0254 0.04305,-0.10697 0.09573,-0.18222 0.0705,-0.10066 0.0781,-0.15453 0.02939,-0.20322 -0.09606,-0.0961 -0.08119,-0.27963 0.02268,-0.27963 z m 9.710794,0.047 c 0.06177,0.009 0.08418,0.0572 0.111683,0.18978 0.05674,0.27335 -0.117677,0.49871 -0.206573,0.26704 -0.01879,-0.049 -0.08587,-0.089 -0.148638,-0.089 -0.282153,0 -0.134303,-0.32307 0.167109,-0.36529 0.031,-0.004 0.05583,-0.006 0.07642,-0.003 z m -7.679455,0.15367 c 0.04313,-4.2e-4 0.102793,0.0509 0.154513,0.15452 0.08924,0.17889 0.08647,0.18764 -0.09237,0.35856 -0.100897,0.0964 -0.205671,0.17551 -0.233449,0.17551 -0.02781,0 -0.05123,0.067 -0.05123,0.14863 0,0.0923 -0.03284,0.1478 -0.08817,0.1478 -0.04889,0 -0.08901,-0.0513 -0.08901,-0.11421 0,-0.0629 0.04212,-0.15634 0.09405,-0.20825 0.0519,-0.0519 0.10086,-0.13638 0.108327,-0.18726 0.0075,-0.0509 0.04485,-0.11269 0.08397,-0.13688 0.03908,-0.0242 0.06425,-0.10576 0.05542,-0.18139 -0.01211,-0.10418 0.01481,-0.15647 0.05794,-0.15703 z m 1.608111,0.0504 c 0.01045,0.009 0.0081,0.041 -8.4e-4,0.10245 -0.0224,0.15385 -0.168789,0.24346 -0.168789,0.10329 0,-0.0476 0.04282,-0.12223 0.09489,-0.16544 0.04132,-0.0343 0.06429,-0.049 0.07474,-0.0403 z m -8.988616,0.008 c 0.06585,-0.0252 0.145201,0.17615 0.154513,0.52652 0.0061,0.22981 -0.02052,0.25503 -0.172147,0.16627 -0.0667,-0.039 -0.08338,-0.13538 -0.06802,-0.38628 0.01189,-0.19423 0.04615,-0.29138 0.08565,-0.30651 z m 3.931679,0.0352 c 0.01495,0.007 0.02436,0.0317 0.02436,0.0773 0,0.0471 0.09276,0.17575 0.206577,0.28636 0.113813,0.11058 0.207913,0.23465 0.208256,0.27543 3.58e-4,0.0408 0.02698,0.0739 0.05962,0.0739 0.09368,0 0.06924,0.15568 -0.03863,0.2452 -0.05393,0.0448 -0.14379,0.074 -0.199019,0.0647 -0.05526,-0.009 -0.133901,0.0237 -0.175507,0.0739 -0.0416,0.0502 -0.118174,0.0907 -0.169628,0.0907 -0.07277,0 -0.07716,-0.0152 -0.02184,-0.0705 0.101547,-0.10154 0.08737,-0.34566 -0.02687,-0.47193 -0.07843,-0.0867 -0.08717,-0.15666 -0.0445,-0.35605 0.03772,-0.1764 0.132357,-0.31016 0.177186,-0.28887 z m 11.004,0.33254 c 0.03758,-0.007 0.06011,0.0162 0.09489,0.0638 0.0411,0.0563 0.07474,0.16072 0.07474,0.23177 0,0.10318 -0.04483,0.13605 -0.222532,0.16543 -0.37826,0.0625 -0.431092,0.0521 -0.382925,-0.0781 0.02373,-0.0641 0.135916,-0.18498 0.249405,-0.26872 0.09599,-0.0708 0.148835,-0.10751 0.186426,-0.1142 z m -1.980115,0.21413 c -0.102229,-0.0197 -0.14443,0.10578 -0.06298,0.18726 0.06213,0.0621 0.166269,0.01 0.166269,-0.084 0,-0.0457 -0.04624,-0.0923 -0.103287,-0.10328 z m -7.540898,0.1352 c 0.14307,-0.007 0.249667,0.093 0.363609,0.3233 0.138951,0.28086 0.08973,0.36025 -0.222532,0.36025 -0.155228,0 -0.249955,-0.0411 -0.343455,-0.14864 -0.185025,-0.2128 -0.168158,-0.39842 0.04534,-0.49293 0.05727,-0.0254 0.109342,-0.0396 0.157032,-0.042 z m 1.097544,0.18222 c 0.03755,-0.007 0.0851,0.0199 0.125123,0.084 0.04154,0.0665 0.102271,0.12151 0.135198,0.12177 0.03291,0 0.09078,0.0665 0.128481,0.14779 0.07592,0.1637 -0.01267,0.21069 -0.146115,0.0772 -0.03916,-0.0391 -0.07054,-0.10623 -0.07054,-0.14863 0,-0.0424 -0.054,-0.0773 -0.119245,-0.0773 -0.06521,0 -0.118403,-0.0387 -0.118403,-0.0857 0,-0.0716 0.02795,-0.11224 0.0655,-0.11924 z m 4.352392,0.17887 c 0.02068,-0.006 0.03917,-0.004 0.05038,0.007 0.08119,0.0812 0.03423,0.19734 -0.07977,0.19734 -0.06521,0 -0.118404,-0.0234 -0.118404,-0.0521 0,-0.0584 0.08574,-0.13571 0.147795,-0.15199 z m -2.878643,0.15955 c 0.06026,7e-4 0.120923,0.0474 0.120923,0.10749 0,0.0722 -0.160375,0.0729 -0.204897,7e-4 -0.01879,-0.0304 -0.0071,-0.0727 0.02601,-0.0932 0.01772,-0.011 0.03784,-0.0154 0.05794,-0.0151 z"
       id="path4569"
       inkscape:connector-curvature="0" />
  </g>
</svg>
