<?xml version="1.0" encoding="UTF-8" standalone="no"?>
<!-- Created with Inkscape (http://www.inkscape.org/) -->

<svg
   xmlns:dc="http://purl.org/dc/elements/1.1/"
   xmlns:cc="http://creativecommons.org/ns#"
   xmlns:rdf="http://www.w3.org/1999/02/22-rdf-syntax-ns#"
   xmlns:svg="http://www.w3.org/2000/svg"
   xmlns="http://www.w3.org/2000/svg"
   xmlns:sodipodi="http://sodipodi.sourceforge.net/DTD/sodipodi-0.dtd"
   xmlns:inkscape="http://www.inkscape.org/namespaces/inkscape"
   width="25.4mm"
   height="25.4mm"
   viewBox="0 0 25.4 25.4"
   version="1.1"
   id="svg5679"
   inkscape:version="0.92.3 (2405546, 2018-03-11)"
   sodipodi:docname="Nordic.svg">
  <defs
     id="defs5673" />
  <sodipodi:namedview
     id="base"
     pagecolor="#ffffff"
     bordercolor="#666666"
     borderopacity="1.0"
     inkscape:pageopacity="0.0"
     inkscape:pageshadow="2"
     inkscape:zoom="5.6"
     inkscape:cx="22.614293"
     inkscape:cy="60.309188"
     inkscape:document-units="mm"
     inkscape:current-layer="layer1"
     showgrid="false"
     fit-margin-top="0"
     fit-margin-left="0"
     fit-margin-right="0"
     fit-margin-bottom="0"
     inkscape:window-width="1920"
     inkscape:window-height="1017"
     inkscape:window-x="-8"
     inkscape:window-y="-8"
     inkscape:window-maximized="1" />
  <metadata
     id="metadata5676">
    <rdf:RDF>
      <cc:Work
         rdf:about="">
        <dc:format>image/svg+xml</dc:format>
        <dc:type
           rdf:resource="http://purl.org/dc/dcmitype/StillImage" />
        <dc:title></dc:title>
      </cc:Work>
    </rdf:RDF>
  </metadata>
  <g
     inkscape:label="Layer 1"
     inkscape:groupmode="layer"
     id="layer1"
     transform="translate(-81.061686,-49.167645)">
    <g
       transform="matrix(2.5036336,0,0,2.5073573,923.26003,-1448.5624)"
       style="opacity:0.9"
       id="g3129"
       inkscape:label="Nordic">
      <path
         style="fill:#62c2e8;stroke-width:0.02932793"
         d="m -332.05193,607.42479 c -0.54174,-0.0799 -1.01348,-0.23281 -1.55438,-0.50399 -1.12892,-0.566 -1.98129,-1.50891 -2.46517,-2.727 -0.37599,-0.94649 -0.42178,-2.12247 -0.12547,-3.22197 0.0617,-0.22909 0.25642,-0.71179 0.38443,-0.95316 0.45608,-0.85999 1.25866,-1.65584 2.13523,-2.11731 0.7612,-0.40075 1.63778,-0.59655 2.5235,-0.5637 0.83187,0.0308 1.32312,0.15431 2.12264,0.53343 1.26412,0.59943 2.27272,1.84942 2.63689,3.26797 0.10913,0.4251 0.1491,0.76155 0.1491,1.25517 0,0.49249 -0.0399,0.83001 -0.14811,1.25136 -0.5109,1.99017 -2.18442,3.49705 -4.19527,3.77752 -0.3819,0.0533 -1.10778,0.0541 -1.46339,0.002 z"
         id="path3141"
         inkscape:connector-curvature="0" />
      <path
         style="fill:#5cadd8;stroke-width:0.02932793"
         d="m -331.94928,607.43571 c -1.64848,-0.2048 -3.15077,-1.26333 -3.89711,-2.74701 -0.99885,-1.91059 -0.58718,-4.44765 0.99013,-5.92502 0.69399,-0.68692 1.6001,-1.14684 2.55505,-1.33583 1.0074,-0.17501 2.08041,-0.1082 3.0125,0.33172 1.80523,0.75986 3.09855,2.66156 3.02647,4.63427 0.0491,1.16543 -0.40823,2.32393 -1.13571,3.22269 -1.02154,1.24957 -2.65624,1.96506 -4.2692,1.84061 -0.0941,-0.004 -0.18941,-0.01 -0.28213,-0.0214 z m 0.21996,-1.87259 c 0.21894,-0.0863 -0.18162,-0.28969 -0.38794,-0.33751 0.32799,0.0598 -0.0444,0.4673 0.38794,0.33751 z m -0.17134,-0.0273 c -0.0125,-0.40784 0.15189,0.0459 0,0 z m 1.03479,-0.0593 c 0.10085,-0.0439 0.34354,0.0219 0.10789,-0.0564 0.30835,-0.0769 0.33997,-0.23413 -0.0139,-0.0327 -0.0271,0.008 -0.28833,0.17256 -0.094,0.0891 z m -1.1274,-0.10783 c -0.24148,-0.32825 -0.0853,0.22591 0,0 z m 2.03704,-0.0436 c 0.23889,-0.16676 -0.15178,0.053 -4e-4,0 z m 0.16256,-0.11529 c -0.12477,-0.0948 0.1551,-0.18556 -0.12918,-0.15473 -0.2238,-0.11511 0.0134,0.29431 0.12918,0.15473 z m -1.30935,-0.0464 c 0.0398,-0.16374 -0.7643,-0.20267 -0.43295,-0.059 0.1258,0.0817 0.29092,0.0919 0.43295,0.059 z m 1.46289,-0.14277 c -0.0845,-0.19229 -0.41992,0.0758 -0.0762,-0.002 0.0127,0.0912 0.0513,0.0987 0.0762,0.002 z m 0.23728,-10e-4 c 0.11356,0.0261 0.60467,-0.0935 0.13514,-0.0697 -0.12707,-0.0883 -0.36729,0.17275 -0.13514,0.0697 z m -2.38512,-0.088 c 0.25123,-0.22791 -0.21437,-0.17168 -0.0808,-0.1359 0.12955,-0.0253 5.9e-4,0.24355 0.0808,0.1359 z m 0.68993,-0.16248 c 0.027,-0.25677 -0.19122,-0.28814 -0.36517,-0.0385 0.0914,0.0639 0.26866,0.11772 0.36517,0.0385 z m -1.37402,-0.17269 c -0.14813,-0.0654 -0.26739,-0.38376 -0.23271,-0.16377 0.1426,-0.12469 -0.24,0.15607 0.0368,0.073 0.0412,0.0606 0.37157,0.32562 0.1959,0.0907 z m 3.00832,0.007 c 0.63959,0.12143 0.25279,-0.5808 0.36528,-0.91868 0.0892,-0.35725 -0.34673,-0.17131 -0.55131,-0.18352 0.25065,0.0598 0.36012,-0.0251 0.3539,0.10535 0.25966,0.0917 -0.0169,0.47919 0.13716,0.48042 0.27748,0.44313 -0.64193,0.71336 -0.60974,0.20083 0.11194,-0.37903 0.24909,-0.0404 0.29717,0.0713 0.20736,-0.23013 -0.60765,-0.54018 -0.17338,-0.80798 -0.2109,-0.0684 -0.87083,-0.17318 -0.86043,0.0319 0.47182,-0.0626 0.96365,0.38598 0.6231,0.83844 -0.22525,0.40422 0.13841,0.13108 0.41825,0.18191 z m -0.54945,-0.94671 c 0.1812,-0.33761 0.21205,0.081 0,0 z m -3.38087,0.65355 c -0.0369,-0.53156 -0.0416,0.60226 0,0 z m 1.43012,0.13759 c -0.0714,0.0749 -0.36609,-0.26263 -0.2807,-0.1071 -0.0446,0.0793 0.37622,0.24871 0.2807,0.1071 z m 0.41845,-0.045 c 0.31918,-0.17283 -0.3823,-0.0196 -0.0838,0.008 -0.24284,0.0478 0.0109,0.10657 0.0838,-0.008 z m 0.37749,-0.33524 c 0.31135,-0.27606 -0.56808,-0.23917 -0.16038,0.0142 0.053,0.0872 0.11053,0.0241 0.16038,-0.0142 z m -2.199,-0.17694 c -0.009,-0.25979 0.0748,-0.39538 0.21404,-0.31972 0.39425,0.0155 0.34314,-0.11313 0.0166,-0.0656 -0.3857,-0.20965 -0.26373,0.45438 -0.2451,0.53522 -0.0249,-0.01 0.0641,-0.16312 0.0144,-0.1499 z m 1.45905,0.0837 c 0.24385,0.0125 -0.25822,-0.11782 -0.0711,0.019 l 0.0422,-0.0387 0.0289,0.0196 z m -1.08247,-0.14571 c -0.15894,-0.0783 -0.1545,0.23968 0,0 z m 3.60734,0.062 c -0.13786,-0.22891 -0.22081,0.0499 0,0 z m 0.77175,-0.0714 c 0.11353,-0.14125 0.002,-0.31739 -0.0512,-0.27771 0.15099,-0.15745 0.20106,-0.28758 0.37239,-0.21809 -0.093,-0.32394 0.0962,0.2021 0.1183,0.006 0.14422,-0.0586 -0.26527,-0.43964 -0.0521,-0.32511 0.21885,0.10509 0.0243,-0.19831 0.0664,-0.23518 0.12921,-0.29521 -0.14097,-0.54874 -0.21252,-0.56841 0.20733,-0.17391 0.14267,-0.44538 -0.0881,-0.3161 -0.0108,-0.0495 -0.21154,0.15056 -0.0286,-0.099 0.0136,-0.27418 0.11191,-0.32905 0.0515,-0.55548 0.0845,-0.18438 -0.22671,0.14767 -0.0377,-0.1466 0.0134,-0.23477 0.008,-0.31023 -0.0796,-0.13225 -0.0669,-0.27294 -0.054,-0.37778 0.0583,-0.19637 0.15394,-0.19607 -0.49701,-0.36726 -0.1279,-0.1803 -0.25637,0.13457 -0.0621,-0.33924 -0.25083,-0.15931 -0.0619,-0.16282 0.13958,-0.0754 -0.0616,-0.23462 -0.0268,0.38831 -0.15344,0.0723 -0.0883,-0.0745 -0.0521,0.28586 -0.22333,-0.30702 -0.226,0.10077 -0.0639,-0.0965 -0.057,-0.54841 -0.23087,-0.28334 -0.0556,-0.29814 -0.34834,-0.27161 -0.26446,0.0869 -0.0102,0.36476 0.10415,0.9912 -0.34448,0.91919 0.18484,-0.17476 -0.37399,-0.0217 -0.38058,0.1155 -0.22212,-0.0452 0.40269,0.21777 0.0953,-0.0246 0.25875,-0.29781 0.13329,0.19415 0.25283,0.14971 -0.0998,0.37182 -0.51263,0.28312 -0.74898,0.19099 0.0169,0.0803 -0.14613,-0.15057 -0.35502,-0.0457 -0.39346,-0.0256 -0.80999,0.2146 -1.11865,0.14559 -0.11023,-0.18731 -0.22496,0.0326 -0.0192,-0.25406 -0.22682,0.0527 -0.3816,-0.39674 -0.078,-0.254 -0.49903,-0.11369 -0.22451,-0.75492 -0.31975,-1.13543 0.0458,-0.38782 -0.46005,-0.0152 -0.35687,0.0468 -0.03,0.0503 -0.10839,0.43287 -0.12594,0.61419 -0.15837,0.049 -0.0388,0.42396 -0.15752,0.0593 -0.19441,-0.0829 0.13328,-0.15321 0.0359,-0.39895 0.0149,-0.045 -0.24675,0.0663 -0.12104,0.14613 -0.20088,0.19221 0.007,-0.20271 -0.16269,0.11458 -0.092,0.18087 -0.009,0.6138 -0.2555,0.38258 0.2088,0.0952 -0.121,0.66943 0.11643,0.48973 -0.16592,0.2418 -0.17747,0.22817 -0.23189,0.49142 -0.1327,0.21936 0.3919,0.005 -0.0424,0.1701 -0.31974,0.16996 0.29319,0.1743 0.34285,0.41523 -0.0592,0.0684 -0.20701,0.14825 -0.14309,-0.0754 -0.1877,-0.0267 -0.0407,0.11545 -0.0828,0.2672 0.31068,0.0684 -0.0207,-0.17157 0.35637,-0.0465 -0.10426,0.094 0.12898,0.29254 -0.12656,0.0781 0.0873,0.0313 -0.004,0.2482 -0.0328,0.12558 0.14155,-0.0876 -0.49247,-0.0509 -0.2594,-0.16259 -0.13614,-0.17154 -0.30238,-0.48658 -0.29801,-0.22898 -0.14221,0.1072 -0.0577,0.60711 0.0208,0.36675 0.008,0.20011 0.0572,0.45223 0.0667,0.10333 0.2041,0.28701 -0.0324,-0.34039 0.20965,-0.0797 0.27081,-0.0896 0.18912,0.15714 -0.0569,0.0798 0.15022,0.0579 -0.0481,0.0597 0.0333,0.16143 -0.29951,-0.0961 0.1193,0.19069 -0.0161,0.19613 0.17043,-0.15391 0.20838,-0.0964 0.16708,0.1356 0.3071,-0.0791 0.18552,-0.11309 0.13925,-0.26655 0.0183,-0.0282 0.53299,0.31023 0.67726,0.0208 -0.15453,-0.0876 -0.71047,-0.0556 -0.2905,-0.18181 -0.16054,0.11406 -0.34274,-0.2191 -0.13701,-0.1093 -0.039,0.0532 0.14209,10e-4 0.12261,0.0166 0.009,-0.33766 0.0777,-0.0805 0.27418,-0.19777 0.14001,-0.20144 -0.27906,-0.23349 -0.11756,-0.0396 -0.23378,0.0127 -0.13347,-0.42567 0.0236,-0.25933 0.12095,0.18133 0.29245,0.19444 0.32716,-0.0337 -0.0731,-0.28331 0.18421,0.23247 0.11758,-0.13855 -0.36168,0.082 -0.25315,0.0385 -0.11599,-0.14614 -0.18341,-0.069 -0.36285,-0.25759 -0.006,-0.11113 -0.088,-0.25488 0.25135,0.14286 0.19997,-0.0984 0.27485,0.10433 -0.29224,0.28178 0.0985,0.19799 -0.18758,-2e-4 -0.22057,0.48191 -0.1705,0.38771 0.23608,0.0547 -0.0164,-0.13997 0.26629,0.0213 0.46579,0.0815 0.0266,-0.081 -0.0393,-0.19262 0.21208,0.11698 0.11621,-0.13796 0.26619,-0.24329 -0.19824,-0.0259 0.0534,0.18507 -0.27536,-0.005 -0.0445,-0.1496 0.51351,0.0763 0.4626,-0.21635 0.44405,-0.52021 0.45519,0.2994 0.37541,0.60651 -0.0429,0.15134 -0.17987,0.60223 0.0351,0.25689 -0.0859,-0.30812 0.38176,-0.31289 0.0779,-0.54902 0.0244,-0.0699 -0.10038,-0.56749 0.31368,-0.55515 0.43185,0.0859 0.36351,0.64959 0.22857,0.77515 0.10368,-0.19109 0.23411,0.48764 0.20169,0.0486 -0.0954,-0.34834 -0.11284,-0.99471 0.38721,-0.71779 0.0114,0.0754 -0.11214,0.72228 0.0359,0.37169 -0.07,-0.41055 0.1092,0.31938 0.0622,-0.1108 -0.0422,-0.34198 0.0853,-0.0331 0.1794,-0.0523 -0.0324,0.35227 0.16179,0.1635 0.1568,0.22153 0.0607,0.40994 -0.44825,-0.33063 -0.19354,0.16499 -0.0849,0.15908 0.28547,-0.0273 0.0784,0.11061 0.0985,0.19481 -0.10846,0.2821 0.1313,0.35361 0.0416,0.27693 -0.38387,-0.19812 -0.13405,0.1029 -0.051,0.0375 -0.3234,-0.14684 -0.0603,0.0589 0.12157,0.30391 0.55391,0.48099 0.64069,0.12577 -0.20406,0.40286 0.58478,0.0738 0.8045,0.31422 0.25746,0.17127 -0.17685,0.44623 0.0627,0.64458 0.0218,-0.0128 0.0309,-0.0434 0.0631,-0.0263 z m -1.32997,-0.83902 c 0.0849,-0.0548 -0.0947,-0.27833 0.1495,-0.1679 0.1233,-0.37275 0.004,0.2799 -0.1495,0.1679 z m -4.26006,-0.49734 c 0.0801,-0.22046 0.15526,0.25078 0,0 z m 0.61705,-0.19996 c -0.25631,-0.28296 0.41592,0.25935 4e-5,-3e-5 z m 0.54943,-0.008 c -0.38263,-0.36438 0.42131,0.11677 0,0 z m -0.13151,-0.0855 c -0.196,-0.0841 0.0388,-0.17356 -0.13196,-0.26021 -0.20692,-0.0759 -0.10826,0.0322 -0.19264,0.10781 -0.24066,-0.17731 -0.10485,-0.0519 -0.0164,-0.17627 -0.30164,-0.11347 0.83745,0.14699 0.35367,0.28699 6.4e-4,0.14578 0.0154,0.0626 -0.0126,0.0417 z m -0.0293,-0.43992 c -0.33293,-0.0311 -0.0422,-0.16607 0.0574,0.0256 l -0.0573,-0.0257 z m 2.95874,-0.0816 c -0.19112,-0.14013 0.10768,-0.47995 0.0916,-0.10717 0.007,0.0373 -0.0327,0.15459 -0.0916,0.10717 z m 0.4722,-0.0504 c -0.0421,-0.20974 0.0159,-0.76335 0.0415,-0.25488 0.1776,0.3428 -0.0551,-0.14845 -0.0415,0.25488 z m -3.74787,-0.0464 c -0.15753,-0.0836 0.1216,-0.60606 0.0501,-0.18056 0.0672,-0.007 0.27923,-0.63121 0.25374,-0.13302 -0.01,0.26597 -0.20012,0.37033 -0.30384,0.31358 z m 3.63782,-0.0403 c -0.14545,-0.25718 0.0744,-0.47595 0.0565,-0.0529 0.0174,0.0478 -0.047,0.21224 -0.0565,0.0529 z m -0.13691,-0.33551 c 0.1001,-0.27667 0.19853,0.0393 0,0 z m 0.37583,-1.19278 c 0.0899,-0.63184 0.0755,0.52667 0,0 z m -4.39638,3.62164 c 0.18279,0.021 0.13456,-0.45903 0.0726,-0.10109 -0.0928,-0.0815 -0.22332,-0.34042 -0.13476,0.0197 -0.0959,0.16573 0.0207,0.21981 0.0622,0.0814 z m 2.53759,-0.035 c -0.12806,0.0807 -0.47169,-0.1777 -0.45458,-0.0199 0.006,0.0531 0.29861,0.1537 0.43197,0.0562 l 0.0226,-0.0364 z m 0.17502,0.01 c 0.0107,-0.26333 -0.30795,0.21545 0,0 z m 0.22765,0.0202 c -0.11697,-0.10085 -0.13845,-0.17092 -0.17381,-10e-4 0.0431,0.004 0.18799,0.0859 0.17381,10e-4 z m -3.08281,-0.29114 c -0.22308,-0.4148 -0.0395,0.33824 0,0 z m 0.0383,-0.23779 c -0.0772,-0.0175 -0.24369,0.0597 -0.0156,0.0345 l 0.0156,-0.0344 z m 2.92972,7.8e-4 c 0.0576,-0.13147 0.59087,0.23239 0.75688,-0.0302 -0.0969,-0.23784 -0.25554,0.16826 -0.51508,-0.0273 -0.23521,-0.32381 -0.67585,0.30941 -0.82599,-0.0517 -0.006,-0.25078 -0.009,-0.29644 -0.1293,-0.0988 0.11201,0.25581 -0.19897,-0.0176 -0.0237,0.23355 0.14186,-0.0287 0.61919,0.11393 0.73714,-0.0256 z m -1.39361,-0.0403 c -0.008,-0.21546 -0.31784,-0.0961 -0.0272,-0.0231 -0.0323,0.0316 -0.0509,0.061 0.0272,0.0231 z m 1.86824,-0.0125 c 0.2238,0.0213 0.0101,-0.69357 -0.0987,-0.48107 0.16223,0.10282 0.0629,0.55617 0.0987,0.48107 z m -1.72346,-0.12043 c 0.0978,-0.133 -0.21169,-0.20732 0.12354,-0.14781 0.37635,-0.1331 0.0218,-0.33943 -0.0605,-0.21819 0.0369,0.19558 -0.20433,-0.38423 -0.13959,-0.10651 0.093,-0.10781 -0.14929,0.15274 -0.0391,0.12621 -0.0215,0.27113 -0.0842,0.30487 0.13343,0.37271 l -0.018,-0.0259 z m -0.44709,-0.054 c 0.007,-0.15268 0.20507,-0.1759 -0.073,-0.11682 0.20772,-0.30555 -0.0969,-0.0371 -0.031,0.10593 -0.1377,-0.0175 0.21171,0.11063 0.10397,0.0109 z m 1.50339,0.0123 c 0.0172,-0.46228 -0.35239,0.18951 0,0 z m 0.44314,-0.0562 c -0.16493,-0.35509 -0.26334,0.21876 0,0 z m -2.10441,-0.0611 c -0.0989,-0.18462 -0.13654,0.13012 -1e-4,9e-5 z m -0.13272,-0.0709 c 0.0567,-0.1845 -0.27989,0.0825 0,0 z m 0.3642,-0.17597 c 0.0525,-0.29722 -0.20228,0.009 0.0238,0.0624 l -0.0238,-0.0628 z m 2.54272,0.0362 c 0.0619,-0.0857 -0.0722,-0.22032 -0.16409,-0.12909 0.0118,0.0501 0.15003,0.24438 0.16409,0.12909 z m -1.09098,-0.0672 c 0.29591,-0.12662 -0.13227,-0.0218 -2.1e-4,0 z m 1.04114,-0.14491 c -0.13856,-0.08 -0.19683,-0.1859 -0.0885,0.009 -0.0521,0.006 0.13587,0.0421 0.0885,-0.009 z m -3.71303,-0.0689 c -0.11505,-0.31547 -0.14944,0.20269 0,0 z m 2.84437,-0.26417 c 0.14141,-0.51154 -0.50201,-0.0811 0,0 z m -2.97334,-0.0968 c 0.0439,-0.0944 0.15667,0.0827 0.006,-0.14221 -0.0533,-0.0554 -0.0363,0.0981 -0.1058,0.0656 0.0597,0.0289 0.0632,0.26615 0.1002,0.0766 z m 2.07826,-0.0247 c -0.27887,-0.26625 -0.0608,0.17428 0,0 z m -1.96348,-0.14971 c 0.0553,-0.32778 -0.26697,-0.036 0,0 z m 0.0996,-0.64947 c 0.0674,-0.52996 -0.13979,-0.12796 0,0 z m 2.10355,-0.0665 c 0.2352,-0.1672 0.77933,-0.0881 0.87882,-0.1725 -0.26759,-0.0672 -0.24673,-0.17625 -0.45685,-0.003 -0.1518,-0.0756 -0.97545,0.37929 -0.42197,0.1755 z m 1.22913,-0.06 c -0.41073,-0.18539 -0.20226,0.022 0,0 z m -1.59442,-0.88668 c 0.11079,-0.16937 0.0683,-0.51265 -0.0865,-0.29372 -0.0844,0.0596 -0.0125,1.06666 0.0709,0.39844 l 0.0161,-0.10477 z m 1.05348,0.30592 c 0.28791,-0.0341 0.52924,-0.076 0.17502,-0.26639 -0.24966,-0.1905 -1.0744,0.24549 -0.3949,0.27235 0.0579,-0.0163 0.17165,0.0501 0.21988,-0.006 z m 0.18113,-0.11634 c -0.10939,-0.29289 0.26012,0.15617 0,0 z m 0.81509,-0.15894 c -0.0744,-0.32589 -0.0219,0.37226 0,0 z m -1.60916,-0.11367 c 0.20555,-0.26117 0.46276,-0.12428 0.32736,-0.46055 -0.0883,-0.24094 -0.57177,0.37111 -0.31431,0.32885 0.007,0.15805 -0.30184,0.0645 -0.0979,0.17206 l 0.0852,-0.0404 z m 0.8684,-0.2309 c 0.0481,-0.30505 0.0261,-0.25142 -0.0944,-0.15429 0.0109,-0.16939 -0.1635,-0.31721 -0.1018,0.0559 -0.0871,0.11944 0.25398,0.20039 0.19618,0.0984 z"
         id="path3139"
         inkscape:connector-curvature="0" />
      <path
         style="fill:#498bb5;stroke-width:0.02932793"
         d="m -331.80264,607.44837 c -1.46203,-0.14689 -2.83597,-0.9444 -3.6713,-2.15627 -0.65993,-0.92693 -0.98002,-2.07843 -0.89686,-3.2128 0.076,-1.54975 0.92587,-3.04118 2.23361,-3.8828 1.3738,-0.9526 3.24433,-1.10512 4.77664,-0.46226 1.68834,0.67919 2.93076,2.33962 3.08592,4.15472 0.19677,1.74028 -0.6045,3.53429 -2.0158,4.56757 -0.98871,0.7692 -2.27381,1.08818 -3.51221,0.99184 z m 0.33513,-1.27301 c 0.11056,0.0336 0.3568,0.0784 0.57515,-0.0418 -0.0413,0.22813 0.42788,-0.0458 0.39466,0.10333 0.15124,0.10193 0.11606,-0.45352 0.33895,-0.19344 0.11242,-0.0609 0.1216,0.1323 0.20614,-0.11204 0.063,0.29082 0.23143,-0.5488 0.2519,-0.0179 -0.0159,-0.20842 0.25795,-0.48003 0.14061,-0.0732 0.0947,0.0322 0.17548,-0.12024 0.2796,-0.0571 0.14334,0.10237 0.27991,-0.53499 0.348,-0.31222 0.12456,0.0762 0.0498,-0.35764 0.29523,-0.1296 0.0768,-0.35316 0.1384,-0.4815 0.33828,-0.77552 0.0912,0.10661 0.0266,-0.32572 0.12803,-0.097 -9.2e-4,-0.13525 0.29629,-0.51389 0.13377,-0.44275 -0.0608,0.12224 -0.0338,0.30439 -0.0813,0.0438 0.15049,-0.15616 0.0978,-0.38025 0.22033,-0.1555 0.12746,-0.34191 0.33541,-0.55823 0.0849,-0.659 0.20372,0.078 0.0295,-0.2371 0.17453,-0.16876 -0.0687,-0.15001 0.13052,-0.0368 -0.0333,-0.2137 0.37759,0.3149 -0.0921,-0.30513 -0.0181,-0.48655 0.20003,-0.12826 -0.58465,-0.21798 -0.0491,-0.2683 0.10611,0.14345 0.17199,-0.0158 0.13539,0.20621 0.22273,-0.0974 -0.11821,-0.38311 -0.14835,-0.32144 -0.22204,-0.0124 0.27189,-0.10185 -0.0564,-0.10363 0.0585,-0.11012 0.0319,-0.36152 -0.002,-0.23738 -0.0175,0.0757 -0.17037,-0.0527 -0.007,-0.17244 -0.21522,0.10751 -0.002,-0.12796 -0.22545,-0.27083 -0.1015,-0.0971 0.21121,-0.0783 0.002,-0.19315 0.25223,-0.0339 -0.14773,-0.29349 -0.0126,-0.40451 -0.0164,0.27419 -0.27686,-0.46047 -0.0238,-0.16588 -0.17925,-0.21541 -0.18881,-0.33852 -0.3912,-0.56944 -0.10159,0.30907 -0.0142,0.002 -0.16831,-0.13911 -0.30817,0.27875 -0.0708,-0.37991 -0.26889,-0.008 -0.0983,-0.16166 -0.36383,-0.65449 -0.31904,-0.41861 -0.15658,-0.10073 -0.39838,-0.34763 -0.37534,-0.1525 -0.13729,-0.29122 -0.0766,0.19366 -0.27258,-0.16856 9e-4,0.28049 -0.0425,-0.12831 -0.27556,0.0205 -0.31303,-0.0429 -0.5511,-0.0947 -0.5643,0.0362 -0.45149,0.14103 0.50326,0.61956 0.72189,0.27374 0.54244,-0.13932 0.10823,0.69739 0.21341,0.99494 0.0742,0.38279 -0.0944,0.65231 -0.45035,0.46882 -0.24267,0.39683 -0.61866,7.4e-4 -0.9469,-0.0323 -0.095,-0.14072 -0.341,0.19241 -0.57663,0.12195 -0.26279,0.25832 -0.37759,-0.002 -0.58346,-0.1288 -0.58451,0.38771 -0.3335,-0.61303 -0.4099,-0.93619 -0.18307,-0.45777 0.12753,-0.59937 0.50446,-0.35992 0.32013,0.0266 0.67698,-0.18255 0.54017,-0.45434 0.14625,-0.38115 -0.0891,-0.002 -0.1273,0.0813 0.003,0.12083 -0.0738,-0.15581 -0.1605,-0.055 0.007,-0.14983 -0.26059,0.28717 -0.27907,-0.0543 -0.0863,-0.16819 -0.14222,-0.0543 -0.31155,-0.0896 -0.23109,0.25605 -0.28761,0.17334 -0.54285,0.33206 -0.28071,0.14661 -0.31246,0.24008 -0.54178,0.3649 0.16642,0.14928 -0.22469,0.20844 -0.1756,-0.0188 -0.27,-0.26333 -0.0284,0.14853 -0.24907,0.0486 -0.1606,0.17711 -0.24833,0.30171 -0.3888,0.61679 -0.14881,0.27634 -0.0904,0.52864 -0.13437,0.74941 -0.0392,0.12187 -0.0498,0.47241 -0.12273,0.38493 -0.0904,0.17023 0.1927,0.25065 -0.0676,0.31429 0.26811,0.31635 -0.22088,0.18105 -0.1342,0.25609 0.0715,0.19919 0.012,0.0221 0.1677,0.0608 -0.15157,0.11724 -0.0574,0.17828 0.009,0.26999 -0.14855,0.0881 0.0822,0.0953 -0.0127,0.24253 -0.0921,0.10538 -0.0996,0.25956 -0.0636,0.35546 -0.0125,0.0645 0.11396,0.40236 0.22362,0.51877 0.0792,0.0383 0.13962,0.21963 0.0145,0.33177 0.16632,-0.18277 -0.003,0.41117 0.19429,0.0942 0.0487,-0.005 -0.0598,0.27505 0.0582,0.27713 -0.14648,0.27173 0.12616,0.003 0.0553,0.35448 0.0589,0.3119 0.073,-0.21319 0.11653,0.21997 -0.0135,0.22491 0.0382,0.22629 0.0689,0.0808 0.0931,0.45235 0.19413,0.0984 0.244,0.23467 0.11177,0.10657 0.23059,0.10823 0.3124,0.2219 0.0951,0.024 0.18982,0.1933 0.16025,0.17151 0.0522,0.11854 0.25953,0.17367 0.24715,0.21221 0.0517,-0.1534 0.18025,0.34706 0.23272,0.0864 0.0488,0.29717 0.18367,0.0531 0.2645,0.23766 -0.10725,0.16102 0.57671,0.0499 0.49288,0.17668 0.36278,-0.23405 -0.0249,0.19218 0.3406,0.13541 0.14873,-0.32651 0.0594,0.2516 0.34482,-0.0413 z m 0.12806,-0.39962 c -0.34846,-0.18296 -0.36711,-0.51671 -0.85251,-0.61381 -0.41558,-0.21639 -0.97574,-0.30326 -1.40248,-0.13659 -0.40787,-0.16392 -0.004,-0.87233 -0.14323,-1.25106 -0.18884,-0.37941 0.007,-0.78188 0.46765,-0.64186 0.5127,0.14125 0.93389,-0.16457 1.1681,-0.60264 0.28803,-0.30406 -0.21587,-1.10158 0.40294,-0.98652 0.12873,0.55903 -0.088,1.13227 -0.41084,1.58598 0.54756,0.0626 1.07171,7.1e-4 1.62061,0.0295 0.18817,-0.13516 -0.3574,-0.58728 -0.31618,-0.89805 -0.17161,-0.36252 -0.009,-1.09553 0.38371,-0.59453 -0.31585,0.50766 0.0996,1.06678 0.48753,1.38809 0.29138,0.29381 1.28514,-0.22591 1.20659,0.39903 -0.0823,0.51182 -0.01,1.03518 -0.0122,1.55215 -0.41453,-0.0347 -0.8752,-0.14135 -1.27561,0.0172 -0.36359,0.17947 -0.86639,0.27788 -1.03207,0.66806 -0.0901,0.0399 -0.18924,0.13836 -0.29201,0.085 z m 0.44059,-0.68576 c 0.28578,-0.18287 0.23431,-0.33939 0.64553,-0.33654 0.35095,-0.0992 0.73103,-0.14683 1.12437,-0.15735 0.15032,-0.0294 0.0213,-0.30599 0.0568,-0.43696 -0.0895,-0.21895 0.17265,-0.80414 -0.21809,-0.70733 -1.29933,0.0334 -2.59893,0.0429 -3.89833,0.008 -0.4762,-0.007 -0.14568,0.78317 -0.24479,1.12055 0.51269,0.059 1.04848,0.0899 1.53204,0.29218 0.24841,0.27502 0.665,0.43705 1.00248,0.21716 z m -0.41987,-0.0505 c -0.29165,0.0505 -0.62569,-0.32516 -0.16318,-0.28396 0.19531,0.16092 0.7785,-0.15988 0.53109,0.23958 -0.11782,0.037 -0.24499,0.0598 -0.36791,0.0444 z m -0.70387,-0.30153 c -0.50733,0.0329 -0.93492,-0.65624 -0.4334,-0.98407 0.39305,-0.37214 0.78268,0.23914 1.14784,-0.0998 0.37354,-0.0568 0.79522,0.33365 0.73596,0.72734 0.0421,0.30207 0.74179,-0.17073 0.41761,-0.42774 -0.20545,-0.10517 -0.43416,0.13395 -0.56779,-0.16467 -0.13093,-0.19771 0.50703,-0.20955 0.66232,-0.10983 0.56104,0.21388 0.17499,1.01837 -0.30339,1.02886 -0.33814,0.14643 -0.68213,-0.11464 -0.89737,-0.19177 -0.19043,0.17596 -0.50747,0.25299 -0.76178,0.22167 z m 0.0723,-0.28344 c -0.24887,-0.31407 0.3282,-0.64426 0.21168,-0.17419 -0.14542,0.4425 0.59294,3.2e-4 0.11824,-0.13809 -0.19662,-0.48163 -1.14861,-0.21539 -0.67077,0.2398 0.0649,0.0286 0.32356,0.21277 0.34085,0.0725 z m 1.15944,-0.0963 c 0.10579,-0.42956 -0.77154,-0.65363 -0.7261,-0.42243 0.11734,0.41659 0.53949,-0.0719 0.56774,0.32356 -0.21057,0.0866 0.15355,0.22546 0.15836,0.0989 z m -2.29159,0.20686 c -0.46353,-0.0756 -0.26996,-0.74553 -0.0838,-0.95959 0.48131,-0.17802 0.51124,0.49398 0.0831,0.5894 -0.15198,0.24302 0.21366,0.20804 0.17688,-0.0311 0.31455,-0.005 0.11419,0.5454 -0.17618,0.40129 z m 0.11287,-0.72314 c -0.18728,-0.18351 -0.27489,0.35059 2e-5,-1.3e-4 z m 3.27718,0.65053 c -0.25749,-0.29448 0.25213,-0.55075 0.17917,-0.12203 0.44443,-0.16335 -0.70592,-0.55729 -0.043,-0.79215 0.37975,-0.11539 0.37144,0.37018 0.27936,0.45299 0.40061,0.24282 -0.1293,0.73321 -0.4155,0.46119 z m 0.3232,-0.57203 c -0.0526,-0.33579 -0.35349,-0.0135 0,0 z m 0.65909,1.35348 c -0.16918,-0.41232 0.24768,0.1932 0,0 z m -3.03374,-2.26365 c -0.13458,-0.34189 0.29802,-0.67859 0.25206,-0.91868 -0.11631,-0.23076 -0.0764,-0.81158 0.37616,-0.58032 0.28879,0.12414 0.15224,0.45086 0.0567,0.66358 0.17755,0.17517 0.47076,0.67919 0.21496,0.86186 -0.3113,-0.0182 -0.15455,-0.12446 -0.0881,-0.20574 -0.1789,-0.48803 -0.24606,0.46565 -0.4687,-0.0634 -0.0709,-0.2937 -0.28158,0.23332 -0.013,0.19993 -0.0864,0.0509 -0.24454,0.13935 -0.33009,0.0428 z m 0.49544,-0.50356 c 0.44971,0.0178 -0.28413,-0.38381 -0.13955,0.0189 0.0378,-0.007 0.11475,0.0313 0.13955,-0.0189 z m 0.0467,-0.50812 c 0.18044,-0.40353 -0.42558,-0.22727 -0.0982,0.0212 l 0.0414,0.0225 0.0569,-0.0437 z m -0.87388,-0.5453 c -0.4709,-0.2836 0.4643,-0.55973 0.73818,-0.55403 0.32649,-0.10584 1.33003,0.23995 0.90415,0.56511 -0.43937,-0.19648 -0.94389,-0.21071 -1.40366,-0.0672 -0.0743,0.0348 -0.15209,0.084 -0.23867,0.0561 z m -2.05618,-0.11409 c -0.22112,-0.41115 0.50857,0.0658 0,0 z m 1.85879,-0.93758 c 0.0461,-0.21391 0.26683,-0.9656 -0.0889,-0.60799 0.0262,0.15281 -0.0443,0.58939 0.0889,0.60799 z m 1.20649,-0.0337 c 0.64252,-0.11847 -0.35133,-0.50561 -0.54863,-0.17576 -0.38917,0.19143 0.48578,0.22438 0.54863,0.17576 z m 0.89456,-0.0486 c 0.0185,-0.19546 0.0347,-0.75209 -0.22466,-0.57654 -0.01,0.0854 0.0805,0.83661 0.22466,0.57654 z m -1.67926,-0.28365 c 0.15109,-0.10533 0.37471,-0.24251 0.44749,-0.3076 0.0871,-0.81726 -0.81437,0.34165 -0.44749,0.3076 z m 1.17191,-0.1856 c 9.1e-4,-0.18342 -0.50637,-0.69172 -0.44931,-0.40084 -0.12029,0.34404 0.25054,0.44809 0.46756,0.47274 l -0.0173,-0.0719 z m -0.31687,-0.99154 c -0.22581,2.9e-4 -0.15746,-0.0338 -0.13864,-0.0605 -0.2769,0.0735 0.10846,0.17851 0.13864,0.0605 z"
         id="path3137"
         inkscape:connector-curvature="0" />
      <path
         style="fill:#2e5995;stroke-width:0.02932793"
         d="m -331.83197,607.4378 c -1.94562,-0.1926 -3.70646,-1.59524 -4.29747,-3.46337 -0.38769,-1.14274 -0.31154,-2.41943 0.14409,-3.52931 0.16811,-0.22904 0.27017,-0.55846 0.42658,-0.75235 0.0445,-0.0138 0.10433,-0.3299 0.0623,-0.0774 0.49607,-0.61388 1.0443,-1.20639 1.76082,-1.5655 1.02087,-0.59657 2.25815,-0.71746 3.41019,-0.5492 0.42072,0.0573 0.96693,0.36011 1.27745,0.38586 0.41737,0.17474 0.74869,0.50108 1.09922,0.78577 1.21123,1.00211 1.82418,2.63247 1.67195,4.18672 -0.15053,1.77812 -1.31948,3.42655 -2.95629,4.14477 -0.81017,0.37244 -1.71417,0.50556 -2.59881,0.43396 z m 1.24644,-0.17513 c -0.17682,-0.0612 -0.58199,0.0604 -0.14816,0.0245 0.0135,-0.0276 0.14843,0.0259 0.14816,-0.0245 z m -0.20872,-0.42562 c 1.21666,-0.15744 2.41033,-0.76715 3.08666,-1.81735 0.15219,-0.15418 0.26928,-0.45265 0.0342,-0.13368 -0.74016,1.07633 -1.9832,1.7855 -3.28259,1.8849 -0.70958,0.0398 -1.43874,-0.0232 -2.07845,-0.35852 -0.36087,-0.0631 -1.09921,-0.64849 -1.12093,-0.63763 0.75221,0.65111 1.72193,1.03158 2.71336,1.09097 0.21333,0.0389 0.43442,-0.007 0.64773,-0.0287 z m -0.0653,-0.35008 c 0.14001,-0.0603 0.49077,-0.0681 0.56656,-0.1898 0.25744,0.12597 0.48849,-0.21476 0.66994,-0.21062 0.30285,-1.9e-4 0.48249,-0.27378 0.71266,-0.35653 0.21535,-0.20963 0.43188,-0.25514 0.62704,-0.49118 0.13371,-0.20481 0.23884,-0.43827 0.3357,-0.51527 0.077,-0.02 0.27732,-0.27723 0.20827,-0.45208 0.11335,0.0154 0.32369,-0.35815 0.31503,-0.51579 0.16853,-0.23657 0.17389,-0.5521 0.1383,-0.80526 0.10155,-0.20463 -0.005,-0.44997 0.0621,-0.65579 0.0161,-0.27941 -0.18332,-0.6142 -0.0836,-0.69856 -0.14025,-0.0687 -0.0672,-0.37785 -0.17847,-0.30231 0.067,-0.30979 -0.38532,0.37605 -0.12388,-0.0733 0.16827,-0.0984 -0.0888,-0.35636 0.005,-0.45237 -0.26366,-0.0418 -0.0179,-0.15859 -0.29012,-0.27911 -0.053,-0.2962 -0.189,0.026 -0.11506,-0.30314 -0.003,-0.41553 -0.33071,-0.4 -0.38168,-0.72163 -0.0839,-0.0476 0.0611,0.28716 -0.0783,0.0165 -0.13418,-0.16655 -0.21352,-0.26705 -0.2264,-0.12881 -0.11006,-0.25043 -0.33252,-0.18778 -0.52362,-0.41313 -0.10105,-0.22149 -0.43044,-0.27241 -0.56406,-0.2404 0.20706,-0.0492 -0.45014,-0.29981 -0.30487,0.009 -0.2313,-0.14882 -0.61882,-0.19882 -0.73284,-0.17 -0.0533,0.0754 -0.42016,-0.1771 -0.51508,-0.0119 -0.12311,-0.0803 -0.31937,-0.13064 -0.44559,-0.0716 0.0979,0.11899 -0.0656,0.30643 -0.0621,0.0513 -0.0704,0.32164 -0.10857,0.32313 -0.15881,0.0555 -0.0279,0.20245 -0.0531,0.0877 -0.11758,0.10302 -0.18357,-0.0999 0.23675,-0.23181 -0.17971,-0.1416 -0.0718,-0.12173 -0.0524,0.30948 -0.16054,0.0454 -0.24573,0.18609 -0.43413,-0.0421 -0.44165,0.23026 -0.22367,-0.0739 -0.40904,-0.0295 -0.41254,0.16385 -0.12081,-0.0335 -0.0738,-0.0641 -0.27611,0.0615 0.31372,0.0714 -0.13887,0.0321 -0.0975,-0.0185 -0.2379,0.1496 -0.27544,0.17629 -0.25474,0.35529 -0.0742,-0.11985 -0.37491,0.0879 -0.25582,0.23177 -0.24878,0.28282 -0.26325,0.0827 -0.29991,0.38262 -0.16467,0.0829 -0.12422,0.033 -0.11225,0.1366 -0.14646,0.0194 -0.21185,0.14623 -0.21987,0.2435 -0.0945,0.19798 -0.13361,0.31914 -0.25433,0.50501 -0.24319,0.19836 0.0188,0.47221 -0.30162,0.68641 0.0647,0.0497 -0.11919,0.38945 0.0249,0.38259 -0.26204,0.0971 0.3957,0.29406 -0.0229,0.51654 0.11365,-0.31708 -0.10039,-0.0622 -0.0228,0.13666 -0.0726,0.32767 0.1737,0.37314 0.0597,0.63965 0.0869,0.15417 0.32091,0.0695 0.1093,0.29673 -0.0337,0.0751 0.15011,0.0646 0.0802,0.1777 0.003,0.18689 0.25898,-0.1903 0.1482,0.0283 0.18031,0.0141 0.0133,0.29694 -0.0556,0.22868 0.14333,0.19796 0.14825,-0.29451 0.20571,0.0492 -0.31893,0.0846 0.29961,0.34638 -0.017,0.2851 0.16131,0.25264 0.30978,0.49972 0.46321,0.74479 0.11325,0.0137 0.27056,0.24568 0.2988,0.3011 0.16139,-0.13973 0.0656,0.16595 0.29604,0.12523 0.26428,0.18942 0.57847,0.4732 0.74507,0.46483 0.19626,0.29047 0.34714,0.32341 0.62338,0.41449 0.10128,-0.064 0.20165,0.003 0.14049,-0.10283 0.16603,0.30238 0.4631,0.0318 0.75728,0.15329 0.20372,0.10158 0.43624,0.061 0.64988,0.10573 0.0956,0.15193 0.018,-0.0348 0.0439,-0.006 z m -0.58842,-0.79334 c -0.23008,-0.13261 -0.13783,-0.33885 -0.50483,-0.43734 -0.45761,-0.27203 -0.96896,-0.39001 -1.49934,-0.3027 -0.52656,0.18217 -0.18641,-0.69115 -0.27044,-0.99164 -0.0367,-0.37452 -0.1617,-0.93864 0.41008,-0.80298 0.47602,0.10434 0.90116,-0.0457 1.13566,-0.48827 0.47348,-0.32399 -0.15083,-1.03865 0.42432,-1.1561 0.19678,0.39662 0.0138,0.91625 -0.18237,1.29854 -0.50484,0.55521 0.51285,0.32052 0.85235,0.37032 0.26074,-0.002 0.52148,-10e-4 0.78222,-0.002 -0.4035,-0.42576 -0.63383,-1.0587 -0.4979,-1.63819 0.66748,-0.0997 -0.007,0.73044 0.41866,1.03973 0.22813,0.31589 0.50447,0.70588 0.94072,0.5679 0.36965,-0.0401 0.89636,-0.0107 0.67438,0.52065 -0.11258,0.41688 0.17442,1.02457 -0.11896,1.32041 -0.43486,-0.13043 -0.96539,-0.0871 -1.37901,0.11962 -0.33915,0.14403 -0.77968,0.25524 -0.76384,0.53945 -0.10475,0.11328 -0.29961,0.16292 -0.4217,0.0424 z m 0.62253,-0.6235 c 0.35391,-0.24813 0.73838,-0.34334 1.1642,-0.42024 0.37539,0.0132 0.74833,0.003 0.60122,-0.47948 -0.026,-0.33464 0.14944,-0.95923 -0.41215,-0.73065 -1.25165,0.005 -2.5116,0.0505 -3.75748,-0.0231 -0.39407,0.01 -0.14864,0.57999 -0.2254,0.86662 -0.0162,0.19337 -0.056,0.41133 0.21253,0.35555 0.44943,0.007 0.92355,0.1 1.33858,0.27003 0.27917,0.30757 0.72412,0.39744 1.0785,0.16129 z m -0.69904,-0.0914 c -0.44289,-0.16368 0.10936,-0.27707 0.31136,-0.14729 0.74217,-0.1462 -0.0192,0.3993 -0.31136,0.14729 z m -0.58614,-0.27044 c -0.59634,-0.005 -0.76196,-0.9707 -0.0976,-1.05286 0.406,-0.088 0.67188,0.3078 0.91864,0.54831 0.13771,-0.19296 0.4045,-0.048 0.26349,0.16102 0.56042,0.26039 0.0163,-0.74226 -0.35764,-0.52074 -0.46593,-0.0587 0.40543,-0.35221 0.50628,-0.0386 0.37885,0.0862 0.16251,0.63472 0.3503,0.69958 0.5572,0.10842 0.5939,-0.85722 0.0291,-0.58735 -0.19479,-0.0145 -0.27319,-0.31815 0.0659,-0.28227 0.51519,-0.0611 0.87597,0.5232 0.41721,0.89256 -0.36691,0.28854 -0.92454,0.1888 -1.25044,-0.029 -0.22482,0.1799 -0.55899,0.28592 -0.8453,0.20937 z m 0.21985,-0.21359 c -0.2339,-0.21567 0.16329,-0.67249 0.1391,-0.21707 -0.31614,0.51132 0.72415,0.0116 0.16304,-0.134 -0.19599,-0.46693 -1.16795,-0.28963 -0.75714,0.21773 0.0603,0.0749 0.51766,0.25293 0.455,0.13334 z m -1.34105,0.0121 c -0.43256,-0.32402 0.2581,-0.50981 0.22571,-0.72615 -0.15776,-0.0235 -0.32213,0.39054 -0.27182,-0.0189 0.36905,-0.52627 0.74994,0.34485 0.14932,0.44056 -0.0686,0.29584 0.24113,0.15997 0.2607,-0.005 0.29796,0.17699 -0.17317,0.51466 -0.36391,0.3094 z m 3.55542,-0.0303 c -0.17354,-0.36764 0.11135,-0.41133 0.19879,-0.0886 0.33353,-0.19206 -0.70005,-0.63577 -0.0224,-0.79515 0.38985,-0.0629 0.28519,0.6134 0.0643,0.18896 -0.34082,0.0646 0.42268,0.32342 0.23806,0.53736 0.02,0.22294 -0.34656,0.26561 -0.47872,0.1574 z m -2.056,-1.48473 c -0.0535,-0.37313 0.35612,-0.71923 0.29737,-1.0668 0.28425,0.48725 0.40397,-0.47422 0.0288,-0.12794 -0.49332,-0.006 0.40681,-0.68892 0.43039,-0.0568 -0.24523,0.42844 0.14368,0.74566 0.22122,1.16457 -0.0534,0.22485 -0.43812,0.0473 -0.15849,-0.0555 -0.12455,-0.29623 -0.39469,-0.87763 -0.55503,-0.25007 -0.14698,0.18382 -0.14077,0.3377 0.0184,0.37705 -0.0807,0.0258 -0.21714,0.1115 -0.28261,0.0155 z m 0.43486,-0.10631 c -0.41392,-0.28587 0.32976,-0.51833 0.1484,-0.0813 -0.005,0.0743 -0.0794,0.16362 -0.1484,0.0813 z m -0.8891,-1.50306 c 0.0367,-0.40601 0.70193,-0.46572 1.06437,-0.47047 0.26236,-0.0371 1.09898,0.30767 0.67394,0.52828 -0.51853,-0.24281 -1.10085,-0.16488 -1.62452,0.0127 -0.0254,-0.006 -0.11391,-0.0244 -0.11379,-0.0705 z m 0.0733,-0.44725 c -0.0931,-0.48243 -0.62622,0.20442 -0.5953,-0.33221 0.058,-0.39137 -0.23246,-1.06751 0.0881,-1.2763 0.2396,0.2672 1.15527,0.14696 0.93682,-0.24248 0.0972,-0.26751 0.5022,-0.13052 0.74089,-0.18347 -0.0587,0.39883 0.42764,0.60365 0.7693,0.54346 0.40746,-0.31305 0.52394,0.0766 0.39166,0.43651 -0.0131,0.30915 -0.008,0.61862 -0.009,0.92794 -0.26864,0.031 -0.51543,-0.19946 -0.66394,0.17379 -0.31597,-0.0808 -0.6271,-0.27201 -0.90685,-0.27191 -0.072,0.17456 -0.54685,0.16158 -0.7208,0.2807 l -0.0304,-0.0563 z m -0.1462,-0.54257 c -0.0207,-0.22651 0.35998,-0.83721 -0.10235,-0.68965 0.0124,0.10358 -0.0994,0.88089 0.10235,0.68965 z m 1.10233,0.007 c 0.38608,0.0428 0.44905,-0.25103 0.0678,-0.3527 -0.24562,-0.10307 -0.96691,0.29825 -0.36944,0.34999 0.0954,0.008 0.21138,0.0535 0.30163,0.003 z m 0.99726,-0.40003 c 0.0958,-0.34139 -0.41247,-0.43485 -0.23497,-0.0339 -0.0284,0.30824 0.33434,0.69847 0.24125,0.15021 -0.0361,-10e-4 0.033,-0.11668 -0.006,-0.11635 z m -1.56568,-0.0101 c 0.0628,-0.19348 0.50057,-0.15268 0.29247,-0.38234 0.10093,-0.60618 -0.7603,0.38161 -0.48223,0.47639 0.0612,-0.035 0.12067,-0.0766 0.18976,-0.094 z m 1.0028,-0.29351 c -0.12475,-0.2528 -0.56534,-0.5852 -0.41738,-0.0481 -0.0602,0.2396 0.37787,0.2564 0.49074,0.27629 -0.007,-0.081 -0.0409,-0.15525 -0.0734,-0.22822 z m 2.59183,6.47244 c -0.22464,0.091 -0.50679,0.38915 -0.1276,0.10404 l 0.0618,-0.0467 z m 0.82267,-1.88495 c -0.16134,0.18803 -0.2552,0.52433 -0.0521,0.12549 l 0.0306,-0.0618 z m -6.94327,-5.52085 c 0.28237,-0.31128 -0.45328,0.34481 0,0 z m 0.50591,-0.3411 c 0.42853,-0.29182 -0.58362,0.3098 -0.24194,0.13769 0.0809,-0.0455 0.16152,-0.0915 0.24194,-0.13769 z"
         id="path3135"
         inkscape:connector-curvature="0" />
      <path
         style="fill:#1a3986;stroke-width:0.02932793"
         d="m -331.69999,607.43713 c -1.88139,-0.13781 -3.63764,-1.3947 -4.31057,-3.16727 -0.35797,-0.81568 -0.37739,-1.71826 -0.31888,-2.59156 0.11027,-0.26825 0.098,-0.60971 0.24844,-0.82093 0.5108,-1.48306 1.73194,-2.69941 3.23131,-3.17274 1.68779,-0.55348 3.64493,-0.14113 4.96025,1.05568 0.9598,0.83733 1.54797,2.07116 1.61693,3.34157 0.12313,1.78833 -0.78416,3.63209 -2.33278,4.55768 -0.31166,0.22651 -0.72209,0.43229 -1.07007,0.50698 -0.10998,0.0423 -0.69611,0.22391 -0.2661,0.0259 0.32144,-0.18323 0.69498,-0.28428 1.04369,-0.46517 0.43073,-0.2488 0.87926,-0.52738 1.16831,-0.94008 -0.28393,0.22189 -0.6561,0.59623 -1.03229,0.79603 -0.62971,0.37408 -1.3381,0.65686 -2.07956,0.67793 -0.6482,0.11182 0.2994,0.0163 0.33688,0.12663 -0.44141,0.0798 -0.75627,0.0824 -1.19545,0.0691 z m 0.63055,-0.33384 c 0.44142,-0.0596 1.00508,-0.0354 1.34499,-0.32471 -0.29757,0.008 0.002,-0.24147 0.26378,-0.28616 0.74761,-0.30426 1.36211,-0.86401 1.85456,-1.49135 0.27542,-0.51821 0.58888,-1.03376 0.65547,-1.629 0.0595,-0.30838 0.15056,-0.69482 0.11076,-0.87012 -0.055,-0.5486 -0.0482,0.36583 -0.11217,0.55954 -0.24747,1.46438 -1.24145,2.80849 -2.63805,3.36062 -0.89847,0.40706 -1.94952,0.44259 -2.89697,0.19829 -0.76841,-0.26571 -1.52554,-0.63792 -2.06364,-1.26756 -0.1414,-0.0951 -0.5611,-0.78039 -0.49318,-0.59759 0.66814,1.09546 1.82005,1.8717 3.08757,2.07673 0.31458,0.0458 0.72627,0.13998 0.96931,0.0564 0.18378,-0.0436 0.6299,0.0398 0.41323,-0.0499 0.19827,-0.0417 0.334,-0.0739 0.11302,0.0432 0.41753,0.037 -0.45567,0.15532 -0.63721,0.1155 -0.0405,0.0369 -0.23127,0.15338 -0.42424,0.0189 0.0277,0.20557 0.32201,0.079 0.45277,0.0872 z m 0.833,-0.23998 c -0.0795,-0.18331 0.44973,-0.12705 0.19546,-0.0444 -0.0425,-0.0775 -0.079,0.20133 -0.19546,0.0444 z m -1.45356,0.21606 c 0.28207,0.0651 -0.0932,-0.14981 -0.0398,0.0361 l 0.0398,-0.0356 z m -0.20356,-0.0172 c -0.36199,-0.1423 -0.38686,0.053 0,0 z m -0.45165,-0.0775 c -0.34499,-0.17628 -0.61714,-0.18213 -0.81382,-0.36728 -0.19196,-0.0465 -0.69282,-0.22242 -0.25593,-0.0133 0.33676,0.17295 0.70254,0.32624 1.06975,0.38061 z m 1.7665,-0.45155 c 0.28598,-0.13098 0.45133,-0.10374 0.75565,-0.23287 1.14317,-0.43186 2.05359,-1.38427 2.45683,-2.53527 0.25625,-0.68693 0.31934,-1.4535 0.15735,-2.16883 -0.0293,-0.31283 -0.19491,-0.55991 -0.26166,-0.84873 -0.13381,-0.24322 -0.37191,-0.58857 -0.48741,-0.89331 -0.20862,-0.22361 -0.38655,-0.51295 -0.67505,-0.70664 -0.37608,-0.27694 -0.77547,-0.5352 -1.23102,-0.67532 -0.32056,-0.11678 -0.55948,-0.0877 -0.78757,-0.17011 -0.30745,0.0515 -0.91545,0.082 -1.12368,0.0375 -0.0749,0.11123 -0.43187,0.21043 -0.34877,-0.0241 -0.23,-0.0245 -0.63024,0.22207 -0.90686,0.30851 -0.0857,0.0129 -0.33926,0.0887 -0.54494,0.24958 -0.35876,0.13936 -0.65038,0.51611 -0.91134,0.73352 -0.27262,0.2843 -0.40306,0.66749 -0.60181,0.97247 -0.13007,0.33198 -0.31573,0.68128 -0.38344,1.05602 -0.0491,0.61659 -0.0944,1.27106 0.11913,1.85315 0.1591,0.60775 0.51925,1.15526 0.89435,1.65328 0.25729,0.2928 0.54612,0.51363 0.85263,0.72848 0.32513,0.23452 0.67711,0.43668 1.06447,0.5007 0.39054,0.19833 0.8651,0.17844 1.30074,0.20378 0.22092,-0.007 0.44343,-0.009 0.6624,-0.0418 z m -0.91599,-1.05982 c 0.12939,-0.16742 0.45048,-0.2667 0.0909,-0.006 -0.002,-0.0147 -0.0831,0.0479 -0.0909,0.006 z m -0.0688,-0.22166 c -0.15406,-0.0902 -0.34548,-0.3524 -0.0479,-0.0928 0.15526,-8.7e-4 0.21757,0.3282 0.0479,0.0928 z m 2.62038,-0.30391 c -0.19714,-0.051 0.0113,-0.60997 -0.0249,-0.19255 0.13781,-0.50242 0.11065,0.47751 0.1952,10e-6 0.002,0.11198 -0.0109,0.29184 -0.1703,0.19254 z m -4.72591,-0.0459 c -0.0387,-0.15697 -0.0625,-0.40612 0.0421,-0.12366 0.0935,-0.0205 -0.0497,0.22289 -0.0421,0.12366 z m 4.84528,-0.27128 c 0.0469,-0.24418 0.0596,0.33061 0,0 z m -4.84117,-0.0554 c -0.13287,-0.1529 0.0398,-0.81636 0.044,-0.6371 0.008,0.12992 -0.0434,0.35785 0.003,0.62331 0.16552,-0.13633 0.0623,0.0731 -0.0466,0.0137 z m 1.22327,-4.72804 c 0.0547,-0.34365 -0.33207,0.18254 -0.15317,-0.23959 0.2792,-0.3586 -0.15716,0.19471 0.20159,-0.008 0.24289,0.022 0.35725,0.0495 0.34158,-0.1095 0.12165,0.12211 0.45995,-0.31884 0.25115,0.0267 0.26678,-0.10871 0.063,-0.0439 -0.034,0.0994 -0.0353,0.0954 -0.22744,0.0148 -0.20185,0.20772 -0.21703,0.24446 0.0522,-0.30964 -0.32374,-0.17524 -0.13871,-0.0961 0.0286,0.39841 -0.0816,0.19848 z m 1.25494,-0.0923 c -0.0746,-0.21904 -0.15726,-0.20468 -0.22912,-0.51536 -0.73902,-0.23107 0.69376,-0.58015 0.43715,-0.0229 -0.33891,-0.14171 -0.0976,0.68393 -0.20803,0.53823 z m 0.68332,-0.0709 c 0.14423,-0.17814 -0.18422,-0.17882 -0.18609,-0.10004 -0.1811,-0.0579 -0.50404,-0.34145 -0.13064,-0.29951 0.0277,0.12675 0.31086,0.21595 0.64176,0.1942 0.2174,-0.22564 0.4128,0.11039 0.23901,0.16661 -0.082,-0.10364 -0.0372,0.16922 -0.13393,0.006 -0.18081,-0.0808 -0.33198,-0.12573 -0.40347,0.0941 -0.0381,-10e-4 -0.0325,-0.0361 -0.0266,-0.0614 z m -1.06398,-0.28203 c -0.27047,-0.0551 0.27315,-0.11827 -0.001,0.0171 l 0.001,-0.0165 z m -2.74277,6.57348 c -0.21239,-0.22689 -0.35065,-0.24052 -0.064,-0.002 0.15342,0.15291 0.41357,0.32151 0.11533,0.0503 l -0.0512,-0.0479 z m -0.67223,-0.17169 c -0.15689,-0.22254 -0.34043,-0.34907 -0.0756,-0.0424 0.024,0.0333 0.21789,0.23192 0.0756,0.0424 z m 8.19485,-2.06028 c 0.0322,-0.26835 -0.13386,0.28682 -0.0226,0.0809 z m -9.16835,-0.93116 c -0.0303,-0.38729 -0.0323,0.49592 0,0 z m 0.13212,-1.53972 c -0.0268,-0.2898 -0.10727,0.3311 0,0 z m 0.10463,-0.3886 c 0.0368,-0.19115 0.45474,-0.9289 0.11075,-0.4192 -0.11136,0.13752 -0.32368,1.01248 -0.11075,0.4192 z m 0.33669,-0.70623 c 0.10567,-0.25764 -0.21489,0.14808 10e-5,10e-5 z m 0.21277,-0.37157 c 0.18594,-0.28316 0.55438,-0.81609 0.78621,-0.81385 0.10776,0.11171 0.19646,0.0488 0.34041,-0.20463 -0.0377,-0.005 0.51718,-0.16182 0.46614,-0.33083 -0.34022,0.0613 0.47103,-0.32677 0.59174,-0.42395 -0.41157,0.099 -0.88666,0.38053 -1.25506,0.65482 -0.4007,0.35763 -0.8262,0.74315 -1.04326,1.23918 0.0519,-0.0249 0.0789,-0.0788 0.11382,-0.12074 z m 7.5113,-0.4281 c -0.0809,-0.17838 -0.5556,-0.48402 -0.19963,-0.1568 0.0116,10e-4 0.29764,0.30338 0.19963,0.1568 z m -1.37275,-1.05686 c -0.17485,-0.1883 -0.58887,-0.17998 -0.25167,-0.0433 -0.0244,-0.0437 0.22579,0.0666 0.25167,0.0433 z m -3.67514,-0.2774 c 0.0334,-0.32947 -0.15035,0.0996 -10e-5,0 z m 3.08157,0.01 c -0.51187,-0.29617 -1.15065,-0.36347 -1.73844,-0.39792 -0.3684,0.0408 -1.12308,0.0447 -1.23933,0.35648 0.19182,-0.18095 0.87849,-0.21726 0.92882,-0.22387 -0.20389,-0.001 -0.31057,0.28258 -0.0978,0.16075 0.0866,-0.22015 0.20258,0.15968 0.22642,-0.10525 0.0703,0.25994 0.72878,0.22678 0.91271,0.0518 0.19896,-0.0975 -0.44604,-0.0899 -0.0128,-0.10564 0.34526,0.0502 0.73,0.23657 1.03811,0.30297 l -0.0175,-0.0384 z m -1.79687,-0.27136 c -0.12996,-0.20232 0.40192,0.11094 0,0 z"
         id="path3133"
         inkscape:connector-curvature="0" />
      <path
         style="fill:#0c285c;stroke-width:0.02932793"
         d="m -331.78797,607.24229 c -1.64754,-0.16628 -3.1741,-1.21645 -3.88986,-2.71404 -0.82811,-1.61029 -0.60271,-3.67561 0.53269,-5.08225 0.79557,-1.05673 2.05316,-1.71535 3.35707,-1.86335 0.67402,-0.052 1.35799,-0.0134 1.99893,0.21985 1.00294,0.32535 1.86836,0.99098 2.50631,1.82258 0.2206,0.23714 0.32975,0.58919 0.47971,0.90168 0.55254,1.32584 0.50902,2.89805 -0.19281,4.16159 -0.8621,1.6478 -2.72942,2.67125 -4.57906,2.56681 -0.0711,-0.002 -0.14271,-0.005 -0.21298,-0.0129 z m 0.98248,-0.11385 c 0.491,-0.0942 0.75189,-0.0106 1.12492,-0.2632 0.97969,-0.39135 1.88105,-1.06293 2.41006,-1.99081 0.52721,-0.82047 0.77456,-1.82005 0.71132,-2.79346 -0.0418,-0.56798 -0.17268,-1.14677 -0.42574,-1.65713 -0.30381,-0.59249 -0.67561,-1.16409 -1.1936,-1.58891 -0.33776,-0.28086 -0.73787,-0.56798 -1.12271,-0.73127 -0.63045,-0.26686 -1.32779,-0.43232 -2.01903,-0.46548 -0.43654,-0.0336 -0.85937,0.0728 -1.27833,0.21898 -0.56925,0.17416 -1.12863,0.45422 -1.62113,0.75299 -0.11204,0.0553 -0.3869,0.39098 -0.60416,0.61333 -0.43023,0.48972 -0.76322,1.07131 -0.98104,1.6834 -0.18405,0.56824 -0.243,1.16094 -0.22985,1.7559 0.0154,0.82415 0.33929,1.62029 0.74503,2.3271 0.41971,0.62604 0.98997,1.13745 1.62209,1.53881 0.88224,0.43608 1.87138,0.72008 2.86217,0.59975 z m -0.7332,-0.36435 c -0.56548,-0.0222 -1.11995,-0.16692 -1.62231,-0.42974 -1.41872,-0.58032 -2.39223,-2.04692 -2.5267,-3.55548 -0.20946,-1.8705 0.99083,-3.77605 2.7464,-4.43241 1.59696,-0.67137 3.5671,-0.26395 4.77081,0.98235 0.80101,0.79241 1.25541,1.90355 1.25588,3.02928 0.0316,0.80075 -0.24131,1.5811 -0.62101,2.27398 -0.5027,0.82302 -1.27202,1.50361 -2.1849,1.83875 -0.56806,0.21015 -1.2108,0.35687 -1.81817,0.29327 z m 0.60123,-0.17464 c 1.03095,-0.0941 2.00827,-0.61853 2.71741,-1.36622 1.01949,-1.13198 1.41897,-2.82277 0.86545,-4.26348 -0.17254,-0.36539 -0.3458,-0.70689 -0.55999,-1.07112 -0.40222,-0.60728 -0.99266,-1.03938 -1.64957,-1.33001 -0.28874,-0.14051 -0.59353,-0.20978 -0.88153,-0.26788 -0.38603,-0.0431 -0.77591,0.1002 -1.15019,0.0294 -0.0441,0.008 -0.15886,-0.0285 -0.25887,-0.009 -0.0118,0.0317 -0.0511,0.14915 -0.15939,0.0194 0.0865,-0.0352 -0.33847,-0.0581 -0.51985,0.0453 -0.3419,0.15351 -0.54822,0.23027 -0.94184,0.39137 -0.28564,0.15713 -0.59768,0.37482 -0.83479,0.64268 -0.26676,0.2755 -0.5299,0.55662 -0.65535,0.90332 -0.36222,0.59075 -0.61945,1.30598 -0.56941,2.02106 -0.0473,0.87295 0.2751,1.72987 0.76113,2.43693 0.49179,0.78665 1.30231,1.30678 2.14907,1.64218 0.54173,0.15996 1.12503,0.2398 1.68772,0.17586 z"
         id="path3131"
         inkscape:connector-curvature="0" />
    </g>
  </g>
</svg>
