<?xml version="1.0" encoding="UTF-8" standalone="no"?>
<!-- Created with Inkscape (http://www.inkscape.org/) -->

<svg
   xmlns:dc="http://purl.org/dc/elements/1.1/"
   xmlns:cc="http://creativecommons.org/ns#"
   xmlns:rdf="http://www.w3.org/1999/02/22-rdf-syntax-ns#"
   xmlns:svg="http://www.w3.org/2000/svg"
   xmlns="http://www.w3.org/2000/svg"
   xmlns:sodipodi="http://sodipodi.sourceforge.net/DTD/sodipodi-0.dtd"
   xmlns:inkscape="http://www.inkscape.org/namespaces/inkscape"
   width="325"
   height="325"
   viewBox="0 0 85.989586 85.989586"
   version="1.1"
   id="svg1409"
   inkscape:version="0.92.3 (2405546, 2018-03-11)"
   sodipodi:docname="polania.svg">
  <defs
     id="defs1403" />
  <sodipodi:namedview
     id="base"
     pagecolor="#ffffff"
     bordercolor="#666666"
     borderopacity="1.0"
     inkscape:pageopacity="0.0"
     inkscape:pageshadow="2"
     inkscape:zoom="1.8450047"
     inkscape:cx="125.1183"
     inkscape:cy="166.66747"
     inkscape:document-units="mm"
     inkscape:current-layer="layer1"
     showgrid="false"
     fit-margin-top="0"
     fit-margin-left="0"
     fit-margin-right="0"
     fit-margin-bottom="0"
     units="px"
     inkscape:window-width="1920"
     inkscape:window-height="1017"
     inkscape:window-x="1912"
     inkscape:window-y="-8"
     inkscape:window-maximized="1" />
  <metadata
     id="metadata1406">
    <rdf:RDF>
      <cc:Work
         rdf:about="">
        <dc:format>image/svg+xml</dc:format>
        <dc:type
           rdf:resource="http://purl.org/dc/dcmitype/StillImage" />
        <dc:title></dc:title>
      </cc:Work>
    </rdf:RDF>
  </metadata>
  <g
     inkscape:label="Layer 1"
     inkscape:groupmode="layer"
     id="layer1"
     transform="translate(-5.8433534,-3.0409579)">
    <g
       id="g2120"
       transform="matrix(1.1054735,0,0,1.1115945,-0.61631851,-9.9353142)"
       style="stroke-width:0.90209579">
      <path
         inkscape:connector-curvature="0"
         id="path2105"
         transform="matrix(0.26458333,0,0,0.26458333,0,5.5562437)"
         d="M 165.81445,23.128906 C 158.41836,23.051438 154.16258,23.507056 146.5,24.837891 82.583544,35.9389 35.576473,82.411392 23.982422,145.96484 c -1.952268,10.70148 -2.184852,14.41702 -1.646484,26.25196 1.069859,23.51874 6.567537,44.11247 17.322265,64.88086 7.050728,13.61561 15.697391,25.06746 27.646485,36.61718 13.349416,12.90324 23.870133,19.67223 45.195312,29.07618 4.95,2.18284 10.64227,4.69681 12.65039,5.58789 2.00812,0.89105 4.48312,1.62475 5.5,1.6289 1.01688,0.004 4.77461,0.90059 8.34961,1.99219 3.575,1.0916 9.2,2.02139 12.5,2.06641 3.3,0.045 8.025,0.45128 10.5,0.90234 4.41545,0.8047 7.45246,0.72843 21.5,-0.54102 12.32146,-1.11347 34.26259,-6.50465 40.33594,-9.91015 1.46566,-0.82184 5.25159,-2.43203 8.41406,-3.57813 10.22867,-3.7069 31.492,-18.78512 42.42969,-30.08789 C 281.04651,264.27223 296,244.29277 296,242.36523 c 0,-0.77441 1.10188,-3.08601 2.44922,-5.13671 3.97634,-6.05215 11.40902,-24.47442 13.60547,-33.72266 3.64028,-15.32755 4.48572,-24.22288 3.80859,-40.08594 -0.88872,-20.81997 -3.56584,-32.81763 -11.79492,-52.84961 C 298.74313,97.607157 295.13474,91.299921 287.26953,81.195312 268.11634,56.588815 244.34105,39.784463 215,30.117188 c -14.00255,-4.613556 -22.67711,-6.057831 -40.5,-6.746094 -3.40559,-0.131514 -6.22018,-0.216365 -8.68555,-0.242188 z m 44.43946,15.166016 c 12.44471,4.322336 25.91997,11.028553 36.91211,18.371094 12.12127,8.096787 26.90268,22.490564 31.74218,30.908203 1.87404,3.259634 5.16727,8.625781 7.31836,11.925781 5.94649,9.12254 10.18648,18.7679 14.07032,32 4.66609,15.8973 5.70413,22.73728 5.69921,37.58203 -0.007,22.56761 -4.19886,39.80479 -14.77343,60.76172 -4.99688,9.90296 -14.14826,23.37592 -22.24024,32.74219 -8.78208,10.16506 -29.29019,23.82015 -47.02148,31.30859 -13.42315,5.66899 -20.38024,7.68364 -33.46094,9.68945 -13.7404,2.10699 -26.88075,1.60372 -43.5,-1.66601 -16.15301,-3.178 -19.22136,-4.01134 -25.09766,-6.81055 -3.52135,-1.67741 -7.07734,-3.46419 -7.90234,-3.97265 -0.825,-0.50846 -4.875,-2.53074 -9,-4.49219 C 88.250798,279.62929 69.115861,262.99893 59.113281,248.5 52.80816,239.36061 43.763106,221.81155 39.527344,210.5 34.349788,196.6734 32.566759,185.87378 32.679688,169 32.833919,145.95487 37.011177,127.89433 46.609375,108.77734 52.508443,97.027998 57.426954,89.731753 66.787109,78.841797 82.016757,61.12305 95.242498,52.165749 122,41.447266 c 21.96022,-8.586274 41.37397,-7.41219 52.57318,-7.53104 6.33967,-0.05221 11.71342,0.51341 15.50393,1.044349 12.37135,1.123075 14.86939,1.478703 20.1768,3.334347 z m -53.02539,20.771484 c -1.81156,0.08379 -2.88658,1.266626 -3.85157,3.576172 -0.83697,2.003116 -1.25869,4.694881 -0.93554,5.982422 0.48081,1.915725 -0.18395,2.899813 -3.66016,5.417969 -6.27201,4.543423 -16.50593,9.178266 -18.7168,8.476562 -2.68845,-0.853277 -3.51479,1.144787 -1.65039,3.990235 0.87242,1.331463 1.58594,2.881588 1.58594,3.445312 0,1.447669 -8.67499,14.859032 -12.30273,19.019532 l -3.03125,3.47461 2.4121,0.56836 c 4.62496,1.0918 3.75041,8.4216 -1.13281,9.49414 -4.28388,0.9409 -3.49513,3.66542 1.39649,4.82226 3.29409,0.77903 3.73666,1.20212 3.17187,3.03516 -0.36103,1.17176 -0.91069,6.56161 -1.22265,11.97656 -0.52337,9.08402 -0.37023,10.28265 1.99023,15.5 3.51605,7.77163 7.06432,17.28693 9.64258,25.86524 2.79269,9.29181 8.77608,17.28696 20.22851,27.02734 4.82766,4.10596 9.03575,8.28027 9.35157,9.27539 0.31584,0.99512 2.1183,2.98607 4.00586,4.42578 4.31984,3.29491 8.13756,8.268 9,11.72461 0.49444,1.98173 0.12078,3.20539 -1.45899,4.78516 -1.16774,1.16772 -1.83903,2.58333 -1.49219,3.14453 0.34681,0.5612 0.35288,2.11914 0.0156,3.46289 -0.65863,2.6242 -3.35814,3.25906 -5.35742,1.25977 -2.23844,-2.23839 -2.22437,-0.13282 0.0273,4.01367 l 2.25586,4.1543 12.5,0.12109 c 18.59857,0.18064 27.26154,0.75569 28.39062,1.88476 1.27835,1.2783 3.60938,1.31469 3.60938,0.0566 0,-0.52412 -0.5268,-2.11155 -1.17188,-3.52735 -1.67237,-3.67044 0.30921,-5.61058 3.12696,-3.06055 1.82685,1.65328 2.05937,1.66936 2.63476,0.16993 0.72085,-1.8785 -1.93622,-6.44102 -4.27343,-7.33789 -0.86225,-0.33088 -3.09146,-0.0501 -4.95313,0.62304 C 201.41386,248.0654 189,244.42603 189,240.53125 c 0,-1.35139 4.2559,-5.39332 8.37109,-7.95117 2.67717,-1.66403 2.83052,-2.10147 2.25782,-6.4336 -0.98651,-7.46211 -9.16247,-22.22417 -16.45313,-29.70703 -5.8178,-5.97115 -6.27007,-6.74828 -5.64844,-9.71484 0.37163,-1.77355 2.14702,-4.79961 3.94532,-6.72461 1.79829,-1.925 4.50485,-5.65219 6.01367,-8.2832 4.42619,-7.71818 12.49903,-10.39559 11.16015,-3.70118 -0.70487,3.52437 -0.24155,3.60851 5.49414,1.00586 C 209.87045,166.42152 211,166.5007 211,169.5 c 0,3.0916 2.32593,3.30134 4.36328,0.39258 1.72948,-2.46918 3.67697,-1.76524 2.9375,1.0625 -0.38841,1.48527 0.13162,2.11586 2.16797,2.62695 3.60238,0.90414 7.10222,-0.85119 8.99414,-4.50976 2.11936,-4.0984 4.53592,-5.17212 9.9668,-4.42774 4.40949,0.60439 4.61572,0.78216 5.20898,4.49219 0.71991,4.50209 1.58693,4.85929 3.20117,1.3164 1.71255,-3.75863 1.41661,-6.91106 -0.83984,-8.95312 -2.54026,-2.29893 -2.5204,-3.20012 0.0859,-4.02734 1.41418,-0.44885 2.80555,0.0147 4.32422,1.4414 4.51349,4.24021 5.01436,-1.33525 0.52343,-5.82617 C 248.5745,149.7288 248.78695,148 252.55859,148 c 2.49869,0 3.26265,-1.37371 1.40235,-2.52344 -0.57164,-0.35329 -2.98671,-0.64258 -5.36719,-0.64258 -5.0311,0 -12.87946,4.02571 -19.90625,10.21094 C 226.21603,157.2204 223.9064,159 223.55664,159 222.3429,159 203.48114,144.15413 200,140.45898 c -3.72253,-3.95136 -3.59989,-4.0471 3,-2.3457 1.03645,0.26719 1.5,-0.38586 1.5,-2.11328 0,-2.06392 0.41749,-2.44032 2.39258,-2.16211 2.18268,0.30745 2.33863,0.0662 1.77734,-2.74023 -1.13324,-5.6662 0.9565,-7.65122 4.5918,-4.36133 1.82626,1.65274 1.9866,1.64322 3.32812,-0.19141 0.77532,-1.06032 1.41016,-3.31324 1.41016,-5.00781 0,-1.97363 1.12045,-4.44089 3.11719,-6.86328 2.66875,-3.2377 3.52827,-3.69118 5.97265,-3.1543 2.23172,0.49016 3.40683,0.0756 5.38282,-1.90039 3.35088,-3.35091 3.40352,-6.0553 0.10156,-5.22656 -2.00584,0.50343 -2.69923,0.0625 -4,-2.54492 C 225.65608,95.998108 227.04344,88 230.97656,88 c 2.53648,0 3.48918,-1.735161 1.96289,-3.574219 -0.96058,-1.157423 -0.97129,-2.060944 -0.0469,-4.089843 l 1.1875,-2.603516 -4.04102,0.644531 C 226.44407,78.951815 226,78.80207 226,77.011719 226,75.560074 225.3386,75 223.62305,75 c -4.17591,0 -5.02857,2.332145 -5.16407,14.140625 -0.15783,13.757005 -1.13047,15.395355 -10.97656,18.468755 -3.74888,1.17017 -7.35362,2.86241 -8.00976,3.75976 -1.53922,2.10499 -8.72025,2.16937 -11.86719,0.10742 -2.08077,-1.36337 -2.45444,-1.36337 -3.58594,0 -1.27273,1.53355 -6.50446,2.04154 -9.4375,0.91602 -2.10652,-0.80835 -2.06132,-6.20687 0.0723,-8.56446 C 176.03186,102.30594 177.86992,102 185.61914,102 195.92621,102 197,101.34678 197,95.066406 c 0,-3.157296 -1.64084,-4.025169 -3.70703,-1.958984 -1.64191,1.641914 -13.95177,2.421378 -15.67383,0.992187 -4.16833,-3.459405 3.52633,-7.525236 9.5332,-5.037109 2.42697,1.005286 3.19168,0.936385 4.70118,-0.429688 C 192.84529,87.735269 194.35456,87 195.20703,87 c 0.85247,0 2.10109,-1.327982 2.77344,-2.951172 0.67234,-1.623186 2.30171,-3.658946 3.62109,-4.523437 2.77614,-1.818996 3.04539,-4.156664 0.8418,-7.302735 C 201.05853,70.245555 200.01574,70 193.00195,70 c -4.71247,0 -8.161,-0.447846 -8.57226,-1.113281 -1.15106,-1.862453 -8.8964,-4.838803 -11.09571,-4.263672 -1.24668,0.326014 -4.35432,-0.681042 -7.83984,-2.541016 -3.90582,-2.084264 -6.45407,-3.099412 -8.26562,-3.015625 z M 117.51953,187.34766 c -0.36439,-0.0284 -0.75421,0.22323 -1.11719,0.81054 -0.40467,0.65477 -0.73632,3.13816 -0.73632,5.51953 0,3.26309 0.77878,5.41208 3.15625,8.72266 4.08514,5.68844 4.25463,10.45589 0.77539,21.76367 -2.30318,7.4855 -3.0425,8.79605 -5.43164,9.62891 C 110.21853,235.16908 97,243.79443 97,244.99414 97,245.54775 97.675001,246 98.5,246 c 2.34883,0 1.75892,2.60049 -1,4.4082 -3.070182,2.01166 -3.108974,2.87587 -0.275391,6.13477 l 2.22461,2.55859 18.220701,-0.19531 18.22266,-0.19727 -0.60156,-3.00195 c -0.56837,-2.84185 -0.45818,-2.96661 2.05468,-2.33594 3.56658,0.89513 3.56222,-1.51212 -0.008,-4.32031 -4.20205,-3.30533 -7.25421,-3.64428 -11.39062,-1.26367 -2.74757,1.5813 -3.93959,1.82018 -4.80079,0.95898 -2.22754,-2.22754 -1.07781,-3.52707 5.10352,-5.76562 8.91485,-3.22849 10.62695,-4.52637 12.87109,-9.76172 1.09695,-2.55909 3.46799,-6.46758 5.26953,-8.68555 6.16962,-7.59572 6.26348,-6.9417 -2.39062,-16.59375 -4.28337,-4.77731 -8.56106,-9.86756 -9.50781,-11.3125 -1.94548,-2.96917 -3.66985,-3.32274 -5.49219,-1.12695 -2.84526,3.42833 -8,0.52148 -8,-4.51172 0,-2.16201 -0.67881,-3.57807 -1.48047,-3.64062 z"
         style="fill:#000000;fill-opacity:1;stroke-width:3.40949607"
         sodipodi:nodetypes="sssssssccscssccsscssssssscssscccsscscssssssscccccccsccscccssccccscccccccccccscscccssccccsscsccssccccsccscsssccsscscscccccsscccsscccscccssccscscscscsccccscscssscccccscsssccscsscc" />
      <path
         inkscape:connector-curvature="0"
         id="path2101"
         transform="matrix(0.26458333,0,0,0.26458333,0,5.5562437)"
         d="m 170.21289,24.65625 c -1.19076,-0.0052 -2.38049,-0.0011 -3.5625,0.01172 -1.182,0.01282 -2.35553,0.03353 -3.51562,0.06445 -1.1601,0.03093 -2.3066,0.072 -3.43165,0.121094 -1.12504,0.04909 -2.2298,0.106512 -3.30664,0.173828 -1.07683,0.06732 -2.12514,0.144872 -3.14062,0.230468 -1.01548,0.0856 -1.99652,0.179268 -2.9375,0.283204 -0.94098,0.103935 -1.84199,0.217512 -2.69531,0.339843 -0.85333,0.122332 -1.65959,0.253746 -2.41211,0.394532 -5.46582,1.02258 -11.12932,2.460255 -16.80664,4.234375 -2.83867,0.887059 -5.68172,1.859098 -8.50391,2.904296 -4.23328,1.567799 -8.42212,3.302085 -12.48828,5.169922 -2.71077,1.245226 -5.36661,2.548556 -7.945313,3.902344 -2.578703,1.353788 -5.080072,2.758651 -7.480469,4.201172 -1.200198,0.72126 -2.374532,1.451681 -3.521484,2.191406 -2.293904,1.479451 -4.475242,2.992813 -6.521485,4.53125 -2.825928,2.124633 -5.588233,4.385544 -8.277343,6.767578 -0.672278,0.595509 -1.340942,1.198052 -2.003907,1.808594 -0.662965,0.610542 -1.321261,1.228362 -1.974609,1.853516 -0.653348,0.625154 -1.301886,1.25714 -1.945312,1.896484 -3.217132,3.196722 -6.307658,6.568027 -9.253907,10.087891 -1.178499,1.407945 -2.333949,2.841176 -3.464843,4.294922 -1.130895,1.453745 -2.237507,2.929608 -3.31836,4.425781 -2.161706,2.992346 -4.221048,6.065211 -6.167969,9.207031 -1.94692,3.141821 -3.781497,6.350919 -5.49414,9.615239 -0.428161,0.81608 -0.848962,1.6363 -1.261719,2.45898 -0.412757,0.82268 -0.817795,1.6477 -1.214844,2.47656 -0.794097,1.65772 -1.555719,3.32791 -2.285156,5.00782 -0.364718,0.83995 -0.722216,1.68247 -1.070312,2.52734 -0.696194,1.68974 -1.358451,3.38883 -1.986329,5.0957 -0.313939,0.85344 -0.619612,1.70932 -0.916015,2.56641 -0.896729,2.59301 -1.709205,5.22751 -2.439453,7.89844 -0.243416,0.89031 -0.47821,1.78566 -0.703125,2.68359 -0.449831,1.79587 -0.862464,3.60642 -1.238282,5.42969 -0.375817,1.82327 -0.713832,3.65932 -1.015625,5.50586 -0.301792,1.84653 -0.567166,3.70269 -0.794921,5.56836 -0.113878,0.93283 -0.219087,1.86784 -0.314454,2.80468 -0.190733,1.87369 -0.344259,3.75597 -0.460937,5.64258 -0.05834,0.94331 -0.106662,1.88822 -0.146485,2.83399 -0.07965,1.89153 -0.123333,3.78729 -0.128906,5.68554 -0.0028,0.94913 0.0038,1.89762 0.01953,2.84766 0.01573,0.95004 0.04192,1.90114 0.07617,2.85156 0.03426,0.95043 0.07613,1.90126 0.128907,2.85157 0.05278,0.9503 0.116194,1.89995 0.1875,2.8496 0.14261,1.89932 0.322342,3.79776 0.539062,5.69141 0.10836,0.94683 0.224673,1.89131 0.351563,2.83594 0.126889,0.94463 0.264735,1.88815 0.410156,2.83008 0.145421,0.94192 0.298937,1.88357 0.462891,2.82226 0.163953,0.9387 0.337043,1.8756 0.519531,2.81055 0.364976,1.86991 0.767909,3.73019 1.207031,5.58203 0.878244,3.70367 1.905177,7.36802 3.080078,10.97461 1.979212,6.07558 4.096448,11.66506 6.4375,16.9082 0.585263,1.31079 1.184267,2.59948 1.798828,3.86914 0.614561,1.26967 1.244094,2.52101 1.890625,3.75391 3.232659,6.16452 6.880867,11.89607 11.113281,17.46875 0.846483,1.11454 1.716836,2.22222 2.611329,3.32617 0.894492,1.10395 1.81459,2.20501 2.759765,3.30274 1.890351,2.19544 3.883068,4.3814 5.992188,6.57812 1.05456,1.09836 2.138691,2.19947 3.251953,3.30469 1.054985,1.04736 2.073248,2.0468 3.0625,3.0039 0.989252,0.95711 1.94922,1.87217 2.890625,2.75 0.941405,0.87784 1.863946,1.71778 2.77539,2.52735 0.911445,0.80957 1.811566,1.5895 2.710938,2.3418 1.798744,1.50459 3.591445,2.90461 5.449219,4.24609 3.715548,2.68296 7.691712,5.12724 12.501953,7.68555 1.20256,0.63957 2.457741,1.28603 3.773441,1.94531 1.3157,0.65928 2.69195,1.33151 4.13867,2.02148 5.78688,2.75989 12.69426,5.80914 21.29297,9.5 1.67598,0.71939 4.86552,1.61184 8.58789,2.47266 3.72237,0.86082 7.97846,1.69087 11.78711,2.28906 1.26955,0.1994 2.4891,0.37339 3.62305,0.51367 1.13394,0.14029 2.18167,0.24629 3.10742,0.3125 1.08554,0.0776 2.13282,0.1638 3.09765,0.25196 0.96484,0.0882 1.84639,0.17953 2.59961,0.26757 1.50646,0.1761 2.4987,0.34122 2.61329,0.45313 0.0503,0.0491 0.15962,0.0928 0.32226,0.13281 1.1385,0.28031 4.89208,0.3426 9.32422,0.23438 2.53265,-0.0618 5.28804,-0.17931 7.90234,-0.34375 2.6143,-0.16444 5.08739,-0.37561 7.06055,-0.625 4.20036,-0.5309 9.52217,-1.55315 14.88672,-2.79102 3.57636,-0.82525 7.17174,-1.74677 10.4668,-2.68164 3.29505,-0.93487 6.29125,-1.88286 8.66601,-2.76367 1.18738,-0.44041 2.21914,-0.86356 3.05664,-1.25977 0.77676,-0.36746 1.63258,-0.75958 2.51563,-1.15234 1.76609,-0.78552 3.63942,-1.57679 5.1914,-2.19336 0.77599,-0.30828 1.47056,-0.57297 2.03321,-0.77148 2.62629,-0.92661 5.39246,-2.24536 8.82617,-4.26758 0.85843,-0.50556 1.75887,-1.05599 2.70898,-1.6543 0.95011,-0.59831 1.95148,-1.24454 3.00977,-1.94531 2.11657,-1.40154 4.46509,-3.01706 7.11328,-4.88672 0.8797,-0.62108 1.75326,-1.25551 2.61914,-1.90039 1.73175,-1.28976 3.43502,-2.62604 5.10938,-4.00781 0.83717,-0.69089 1.66597,-1.39238 2.48828,-2.10547 2.4669,-2.13928 4.86658,-4.37743 7.19336,-6.70703 2.32678,-2.32961 4.58056,-4.75025 6.75781,-7.25586 2.17724,-2.50562 4.27857,-5.09636 6.29687,-7.76367 0.67277,-0.88911 1.33583,-1.78735 1.99024,-2.69336 0.65441,-0.90602 1.29984,-1.8198 1.93554,-2.74219 1.90712,-2.76717 3.72844,-5.60671 5.46094,-8.51172 1.155,-1.93667 2.2718,-3.90189 3.34571,-5.89453 2.14781,-3.98528 4.13077,-8.07998 5.9375,-12.26367 1.80672,-4.1837 3.43557,-8.45651 4.8789,-12.80469 0.72167,-2.17409 1.3968,-4.36732 2.02344,-6.57617 0.31332,-1.10443 0.61526,-2.21385 0.9043,-3.32617 0.28904,-1.11233 0.56566,-2.22797 0.83007,-3.34766 0.29397,-1.24483 0.55645,-2.38203 0.78907,-3.44922 0.46524,-2.13438 0.81333,-3.98615 1.07226,-5.83984 0.12947,-0.92685 0.23656,-1.85422 0.32422,-2.81836 0.17533,-1.9283 0.27311,-4.00239 0.32031,-6.50977 0.0472,-2.50738 0.0444,-5.44777 0.0156,-9.10742 -0.0121,-1.54041 -0.0357,-3.04376 -0.0703,-4.51367 -0.0692,-2.93983 -0.18386,-5.74537 -0.35157,-8.44727 -0.0838,-1.35095 -0.18232,-2.67603 -0.29297,-3.97851 -0.22129,-2.60498 -0.49685,-5.12099 -0.83398,-7.57617 -0.16856,-1.2276 -0.35305,-2.43947 -0.55273,-3.64063 -0.19969,-1.20116 -0.41423,-2.39214 -0.64649,-3.57422 -0.23225,-1.18207 -0.48178,-2.35506 -0.74804,-3.52539 -0.53253,-2.34067 -1.13333,-4.66614 -1.81055,-7.00391 -1.69306,-5.84442 -3.8564,-11.77129 -6.58008,-18.24023 -1.84414,-4.37996 -3.8238,-8.51067 -5.99219,-12.470705 -1.08419,-1.980016 -2.21653,-3.918037 -3.40234,-5.822266 -0.59291,-0.952114 -1.19943,-1.895214 -1.82031,-2.832031 -0.62089,-0.936817 -1.25568,-1.867062 -1.90625,-2.791016 -0.65057,-0.923953 -1.31608,-1.842337 -1.99805,-2.755859 -2.72789,-3.654088 -5.71485,-7.233852 -9.01367,-10.818359 -0.82471,-0.896127 -1.66853,-1.793546 -2.53321,-2.691407 -0.86467,-0.89786 -1.74989,-1.797191 -2.65625,-2.699218 -0.90635,-0.902028 -1.83345,-1.806217 -2.7832,-2.714844 -1.30938,-1.252697 -2.63684,-2.477868 -3.98047,-3.675781 -1.34362,-1.197914 -2.70293,-2.368959 -4.08008,-3.511719 -5.50857,-4.571042 -11.28263,-8.69921 -17.29882,-12.373047 -1.50405,-0.918459 -3.02266,-1.808461 -4.55664,-2.669922 -1.53399,-0.861461 -3.08329,-1.693952 -4.64649,-2.498047 -1.5632,-0.804094 -3.14072,-1.579813 -4.73242,-2.326172 -1.5917,-0.746358 -3.19693,-1.46409 -4.81641,-2.152343 -6.4779,-2.753014 -13.17661,-5.039086 -20.07031,-6.847657 -1.72342,-0.452142 -3.45941,-0.873432 -5.20703,-1.265625 -1.74762,-0.392192 -3.50625,-0.756017 -5.27734,-1.08789 -1.57486,-0.295104 -3.3567,-0.554661 -5.29102,-0.779297 -4.83579,-0.561591 -10.62871,-0.901462 -16.56055,-1.017578 -1.18636,-0.02322 -2.37955,-0.03774 -3.57031,-0.04297 z m 14.99292,6.675161 c 6.85053,0.820011 12.83056,1.637622 15.29419,2.25648 0.90816,0.228127 1.81537,0.465626 2.72266,0.71289 0.003,6.8e-4 0.005,0.0013 0.008,0.002 7.14566,1.947846 14.25154,4.484905 21.12305,7.488282 1.66789,0.765356 3.36152,1.567417 5.14257,2.458984 20.23216,10.127926 33.89875,20.515503 46.28321,35.626953 7.31106,9.409258 13.34105,18.891364 18.15234,28.58008 5.80532,12.27881 10.4674,26.10573 12.5625,38.04297 0.0361,0.20591 0.0667,0.43913 0.10156,0.65234 0.0877,0.52344 0.16626,1.06342 0.2461,1.60157 0.90149,6.49924 1.3018,15.59083 1.17382,24.21289 -0.22271,7.3123 -0.89783,14.69755 -1.98632,21.47851 -3.67801,17.34843 -14.27719,41.5806 -24.96289,56.37696 -7.00207,9.69568 -15.8808,20.00924 -18.34766,21.31445 -1.22064,0.64583 -4.01875,2.59872 -6.21875,4.33984 -6.0591,4.79528 -23.94528,14.96175 -33.5,19.04102 -11.25233,4.80403 -23.26458,8.22013 -35.21875,10.01562 -6.14241,0.92258 -12.3901,1.34894 -18.67773,1.31055 -2.84647,-0.057 -5.7103,-0.16681 -8.50391,-0.33789 C 129.2307,304.23718 97.631407,290.60764 73.929688,268.31445 72.174967,266.63883 70.466153,264.917 68.802734,263.14648 59.974322,253.58707 51.3844,240.90837 45.023438,227.89453 32.798931,202.88451 30.529784,193.57715 30.662109,169 30.802111,142.99744 35.153516,125.35584 46.572266,104.5 53.948188,91.028199 60.45909,82.441111 72.443359,70.376953 c 8.517896,-8.574675 18.758522,-16.257604 29.634761,-22.5 12.93273,-7.185467 26.93141,-12.718061 38.92188,-14.96875 1.77963,-0.334047 4.70649,-0.589591 8.33984,-0.769531 1.21112,-0.05998 3.97517,-0.800252 8.8805,-1.10244 10.0877,-1.783713 16.69794,-0.784849 26.98547,0.295179 z m -26.9187,29.979136 C 155.20883,61.225725 154,63.280814 154,68.259766 c 0,4.144762 -2.09303,6.235371 -11.24609,11.234375 -3.71059,2.026563 -6.99924,4.095123 -7.3086,4.595703 C 135.13593,84.590427 133.69277,85 132.24023,85 c -2.05409,0 -2.37278,0.265883 -1.43945,1.199219 1.88347,1.883471 1.42888,4.394586 -1.63086,9.021484 -1.5564,2.353584 -4.44288,6.713287 -6.41406,9.687497 -3.08859,4.66022 -3.38829,5.60194 -2.16992,6.82032 2.98802,2.98801 0.97143,10.84205 -3.04297,11.8496 -3.28735,0.82509 -2.27163,2.42188 1.54101,2.42188 2.28002,0 3.19661,0.60562 3.9629,2.62109 0.69948,1.83984 0.65474,3.03377 -0.1504,4.00391 -0.631,0.76031 -1.37191,5.3186 -1.64453,10.12891 -0.52601,9.28154 -0.006,11.18956 7.33008,26.93359 1.32964,2.85345 2.43303,6.22845 2.45117,7.5 0.0491,3.48043 3.29198,12.19346 6.14063,16.49805 1.38853,2.09822 4.86512,5.83981 7.72656,8.31445 2.86145,2.47464 7.76834,7.18927 10.90234,10.47656 3.134,3.2873 8.73477,9.01481 12.44727,12.72852 6.68529,6.68746 6.75,6.80533 6.75,12.21484 0,3.00404 -0.45,5.74015 -1,6.08008 -1.53944,0.95143 -1.18532,4.63686 0.63867,6.65234 1.3354,1.47557 1.40453,2.08998 0.37695,3.32813 -2.01457,2.42741 -0.19212,1.77028 4.56836,-1.64844 4.90051,-3.51927 5.96041,-3.39407 4.46875,0.5293 -1.00195,2.63569 -0.9965,2.63867 4.03907,2.63867 3.89833,0 5.82007,-0.59443 8.47461,-2.61914 1.8883,-1.44028 3.43359,-2.99528 3.43359,-3.45508 0,-0.45979 -1.6875,-1.13052 -3.75,-1.49219 -5.89413,-1.03352 -8.25,-2.97152 -8.25,-6.7832 0,-3.68097 2.70483,-6.83781 7.375,-8.60742 2.73643,-1.03688 2.85281,-1.32678 2.40039,-6.03516 -0.45021,-4.68542 -4.1737,-11.98608 -6.12109,-12.00195 -1.34,-0.0108 -6.6543,4.03248 -6.6543,5.0625 0,0.51255 1.125,0.93164 2.5,0.93164 1.375,0 2.5,0.41085 2.5,0.91406 0,1.35939 -10.0939,9.14568 -11.07227,8.54102 -1.24309,-0.76828 0.0634,-3.45508 1.67969,-3.45508 1.89452,0 1.75463,-0.63795 -0.66992,-3.0625 -2.61155,-2.61155 -2.15924,-4.00997 1.97852,-6.11328 10.08252,-5.12519 10.20129,-9.13235 0.55859,-18.84961 C 176.42163,191.87483 176,191.15542 176,186.92188 c 0,-3.87961 0.50996,-5.02437 3.5625,-7.97657 1.95982,-1.89539 5.09324,-5.74633 6.96289,-8.55859 3.52216,-5.2979 7.54731,-7.79662 11.62891,-7.21875 1.69039,0.23932 2.43191,1.0768 2.65429,3 l 0.3086,2.66797 4.5,-1.99024 c 4.7698,-2.10991 7.38281,-1.41551 7.38281,1.96485 0,1.20635 0.4789,1.05308 2.08594,-0.67188 1.6504,-1.77149 2.38168,-1.99452 3.5,-1.0664 0.77754,0.6453 1.41406,2.01813 1.41406,3.05078 0,1.41011 0.73013,1.87695 2.93359,1.87695 2.33821,0 3.51328,-0.86292 5.78321,-4.25 2.66974,-3.98365 3.17239,-4.26845 8.03515,-4.55078 5.75209,-0.33398 9.24805,1.00156 9.24805,3.53516 0,1.25351 0.28357,1.38244 1.14844,0.51757 1.12872,-1.12872 0.9252,-1.5708 -3.64844,-7.91992 -2.02713,-2.81406 5.65914,-4.72005 8.39648,-2.08203 1.04899,1.01089 1.23184,0.86743 0.95118,-0.75 -0.19088,-1.1 -1.80058,-2.675 -3.57618,-3.5 -3.43883,-1.59779 -4.23845,-3.69201 -1.77148,-4.63867 C 249.70132,147.5166 249.32738,146 246.91797,146 c -2.82885,0 -13.46293,6.34186 -18.67188,11.13477 -4.06921,3.74418 -4.37225,3.85205 -7.00195,2.49218 -1.51186,-0.78181 -3.64739,-2.4203 -4.74609,-3.64062 -1.0987,-1.22032 -4.02305,-3.59046 -6.49805,-5.26758 -5.09305,-3.45118 -17,-14.70866 -17,-16.07227 0,-0.84669 2.5528,-0.53227 7.82422,0.96485 1.66926,0.47408 2.27182,0.27063 2.13281,-0.72461 -0.44274,-3.17006 0.066,-4.01419 2.04297,-3.38672 1.6962,0.53836 2,0.17955 2,-2.36133 0,-1.64778 0.70797,-3.70212 1.57227,-4.5664 1.89228,-1.89227 1.93323,-1.89607 4.47265,-0.32227 2.40369,1.48968 3.91451,-0.15134 3.93946,-4.27734 C 217.0163,114.7042 221.73577,110 226.99023,110 230.38309,110 233,108.60763 233,106.80078 c 0,-0.44 -1.0125,-0.81181 -2.25,-0.82617 -2.51828,-0.0289 -5.75,-5.73477 -5.75,-10.152344 0,-4.124637 2.02741,-8.695424 4.15625,-9.371094 1.24147,-0.394027 1.77329,-1.192017 1.41602,-2.123047 C 230.25748,83.507828 230,82.293105 230,81.628906 c 0,-0.664199 -1.2375,-1.189512 -2.75,-1.167968 -2.10468,0.03017 -2.82398,-0.488434 -3.06836,-2.208985 -0.2569,-1.808749 -0.66505,-2.063168 -2.08594,-1.302734 -1.50905,0.807621 -1.79244,2.574456 -1.94336,12.148437 -0.23295,14.779284 -1.33844,16.746544 -11.0625,19.669924 -3.81989,1.14838 -7.87788,3.02046 -9.01757,4.16015 -2.60978,2.60978 -9.57291,2.83513 -12.26758,0.39649 -1.42006,-1.28514 -2.12747,-1.40183 -3.0293,-0.5 -1.75562,1.75562 -10.33004,1.4766 -12.20312,-0.39649 -2.66117,-2.66116 -1.95417,-6.92821 1.65234,-9.96289 3.06618,-2.580019 3.59641,-2.684459 10.75,-2.10351 4.1386,0.33609 8.05141,0.2756 8.69531,-0.13477 0.64389,-0.41036 1.49946,-2.052963 1.90039,-3.650388 0.65426,-2.606774 0.53508,-2.812689 -1.16992,-2.009766 -1.04483,0.49203 -5.72539,0.903102 -10.40039,0.914063 -8.43586,0.01968 -8.5027,-9.89e-4 -8.80469,-2.605469 -0.51939,-4.479364 2.26526,-6.201232 9.0293,-5.587891 6.72864,0.61013 11.38809,-1.137002 12.77734,-4.791015 0.47959,-1.261402 1.83754,-2.970342 3.01758,-3.796875 1.39767,-0.97897 2.02903,-2.321909 1.8125,-3.851563 -0.31096,-2.19662 -0.85891,-2.379917 -8.50391,-2.847656 -6.44915,-0.394575 -8.82672,-0.985421 -11.27734,-2.800781 -1.89465,-1.403505 -5.1419,-2.513836 -8.32812,-2.84961 -2.87228,-0.302691 -6.39845,-1.373306 -7.83594,-2.378906 -1.43749,-1.0056 -4.2114,-2.127829 -6.16406,-2.494141 -0.518,-0.09718 -0.9958,-0.153898 -1.43555,-0.166015 z M 129.07812,196.11914 c -0.46481,-0.0107 -0.95624,0.39431 -1.77929,1.13086 -2.24141,2.00583 -4.55897,2.21541 -7.43945,0.67383 -1.86428,-0.99773 -1.92418,-0.90713 -0.81055,1.25 0.66036,1.27913 2.10582,3.31916 3.21094,4.5332 1.74532,1.91739 1.94134,3.16531 1.49804,9.5 -0.28069,4.01096 -1.23719,8.64297 -2.12695,10.29297 -0.88976,1.65 -1.622,4.03242 -1.625,5.29492 -0.007,2.51388 -4.1013,7.20508 -6.28906,7.20508 -2.83062,0 -10.71655,6.1376 -10.72071,8.34375 -0.002,1.18567 -0.90205,3.6289 -2,5.42969 C 99.898149,251.57423 99,253.93926 99,255.02734 c 0,1.9004 0.669368,1.97007 17,1.80078 l 17,-0.17578 v -2.82617 c 0,-2.01289 0.50363,-2.83474 1.75,-2.85742 1.58346,-0.0288 1.56499,-0.17153 -0.19141,-1.5 -2.45028,-1.85328 -4.31461,-1.84522 -7.92382,0.0371 -4.12289,2.15024 -6.51452,1.85078 -7.80274,-0.97656 -1.5917,-3.49339 -0.0126,-4.98844 7.99414,-7.56641 6.66756,-2.1468 11.17383,-5.64195 11.17383,-8.66601 0,-1.66057 6.32678,-11.7639 8.02344,-12.8125 1.71643,-1.06081 1.04587,-4.32761 -1.02344,-4.98438 -1.1,-0.34913 -2,-0.98475 -2,-1.41211 0,-0.42736 -2.1375,-3.2516 -4.75,-6.27539 -2.6125,-3.02379 -5.70527,-6.805 -6.87305,-8.4043 -1.14895,-1.57351 -1.7012,-2.27534 -2.29883,-2.28906 z m 81.95899,50.4375 C 209.25286,246.49816 207,247.6473 207,249.03516 c 0,0.5303 1.57415,0.852 3.49805,0.71484 3.81159,-0.27176 4.26912,-0.86918 2.0664,-2.69727 -0.39004,-0.3237 -0.93259,-0.47659 -1.52734,-0.49609 z M 206.55859,253 c -1.67063,0 -2.79847,1.42809 -1.86523,2.36133 1.19516,1.19516 3.30664,0.6449 3.30664,-0.86133 0,-0.825 -0.64887,-1.5 -1.44141,-1.5 z"
         style="display:inline;fill:#404040;fill-opacity:1;stroke-width:3.40949607"
         sodipodi:nodetypes="cscccccsscssssssssssssssssscccsssssccsccscccsccccssccscscscccscscsccsccccccccsccsccccccscsccccccccsccccccsccscscccccccscccscccccccscsscssssccccscccscccccccscscsccccsssscssccssscsccsccsccccccccsscccccscscssscssscsscsscsccccsccssscsssccscsccssssccscscsscsccscccccscscsccscccscccscsscsccsccsscsccsccscccccsccssscccscccssss" />
    </g>
  </g>
</svg>
