<?xml version="1.0" encoding="UTF-8" standalone="no"?>
<!-- Created with Inkscape (http://www.inkscape.org/) -->

<svg
   xmlns:dc="http://purl.org/dc/elements/1.1/"
   xmlns:cc="http://creativecommons.org/ns#"
   xmlns:rdf="http://www.w3.org/1999/02/22-rdf-syntax-ns#"
   xmlns:svg="http://www.w3.org/2000/svg"
   xmlns="http://www.w3.org/2000/svg"
   xmlns:sodipodi="http://sodipodi.sourceforge.net/DTD/sodipodi-0.dtd"
   xmlns:inkscape="http://www.inkscape.org/namespaces/inkscape"
   width="18.954273mm"
   height="25.400003mm"
   viewBox="0 0 18.954273 25.400004"
   version="1.1"
   id="svg8"
   inkscape:version="0.92.4 (5da689c313, 2019-01-14)"
   sodipodi:docname="Icon_Oil.svg">
  <defs
     id="defs2" />
  <sodipodi:namedview
     id="base"
     pagecolor="#ffffff"
     bordercolor="#666666"
     borderopacity="1.0"
     inkscape:pageopacity="0.0"
     inkscape:pageshadow="2"
     inkscape:zoom="2.8"
     inkscape:cx="21.314892"
     inkscape:cy="31.254153"
     inkscape:document-units="mm"
     inkscape:current-layer="layer1"
     showgrid="false"
     fit-margin-top="0"
     fit-margin-left="0"
     fit-margin-right="0"
     fit-margin-bottom="0"
     inkscape:window-width="1920"
     inkscape:window-height="1017"
     inkscape:window-x="-8"
     inkscape:window-y="-8"
     inkscape:window-maximized="1" />
  <metadata
     id="metadata5">
    <rdf:RDF>
      <cc:Work
         rdf:about="">
        <dc:format>image/svg+xml</dc:format>
        <dc:type
           rdf:resource="http://purl.org/dc/dcmitype/StillImage" />
        <dc:title />
      </cc:Work>
    </rdf:RDF>
  </metadata>
  <g
     inkscape:label="Icon_Oil"
     inkscape:groupmode="layer"
     id="layer1"
     transform="translate(-116.45352,-52.892014)">
    <path
       style="fill:#000000;stroke-width:0.26591375"
       d="M 120.8174,77.986567 C 117.31686,76.696329 115.83646,74.743654 116.73267,72.598728 117.17977,71.528657 117.29999,67.310439 116.89059,67.057417 116.38034,66.742071 116.29999,65.344479 116.73893,64.419499 117.18004,63.489924 117.17664,61.015094 116.72993,57.851984 116.57811,56.776972 116.64413,56.534655 117.30109,55.75383 120.52218,51.925794 131.3138,51.941857 134.54295,55.7795 135.17742,56.533519 135.24342,56.782806 135.09169,57.851992 134.75722,60.20875 134.64921,63.754589 134.9023,64.069249 135.40564,64.695016 135.49378,65.96996 135.08715,66.742785 134.53955,67.783511 134.55729,71.209504 135.11795,72.677397 135.53565,73.771134 135.52928,73.847554 134.91851,75.067594 134.39949,76.104385 133.98101,76.495117 132.55914,77.270543 L 130.8307,78.213158 126.31016,78.279028 C 123.03615,78.326728 121.52158,78.246088 120.8175,77.986579 Z M 129.36648,76.466448 C 130.31624,76.31236 131.60259,75.96101 132.22505,75.685668 133.25074,75.231954 133.35678,75.096444 133.35678,74.239398 133.35678,73.71929 133.31218,73.293747 133.25758,73.293747 133.20298,73.293747 132.63467,73.525002 131.99449,73.807646 130.10893,74.640157 126.56738,74.994302 123.61254,74.645817 122.22199,74.481821 120.65995,74.170347 120.14132,73.953651 118.84701,73.412852 118.73149,73.44543 118.73149,74.351272 118.73149,75.386544 119.49073,75.873921 121.82663,76.338124 124.07802,76.785534 127.0843,76.8367 129.36644,76.466448 Z M 130.16581,67.886882 C 132.64377,67.300324 133.21187,66.919164 133.30636,65.779794 133.40126,64.635898 133.43227,64.654958 132.35179,65.19397 129.73446,66.49967 123.91479,66.701305 120.64442,65.599598 119.74781,65.297551 118.95061,65.050421 118.87287,65.050421 118.79517,65.050421 118.73153,65.459338 118.73153,65.959126 118.73153,66.7895 118.83344,66.906752 119.91381,67.319349 120.56407,67.567683 121.49144,67.864484 121.97464,67.978907 123.40802,68.318331 128.58904,68.260125 130.16581,67.886887 Z M 130.16581,59.139946 C 133.22885,58.412882 134.39844,57.048037 132.99382,55.839832 130.14401,53.388524 119.61013,53.790088 118.42312,56.395285 118.15343,56.987181 118.19381,57.16542 118.72584,57.731738 120.31401,59.42227 126.01826,60.124438 130.16581,59.139946 Z M 120.39349,57.330636 C 119.10813,56.813984 120.09634,56.009353 122.01622,56.009353 123.45302,56.009353 124.04981,56.210047 124.04981,56.693232 124.04981,57.503094 121.79881,57.895508 120.39349,57.330636 Z"
       id="path854"
       inkscape:connector-curvature="0" />
  </g>
</svg>
