<?xml version="1.0" encoding="UTF-8" standalone="no"?>
<!-- Created with Inkscape (http://www.inkscape.org/) -->

<svg
   xmlns:dc="http://purl.org/dc/elements/1.1/"
   xmlns:cc="http://creativecommons.org/ns#"
   xmlns:rdf="http://www.w3.org/1999/02/22-rdf-syntax-ns#"
   xmlns:svg="http://www.w3.org/2000/svg"
   xmlns="http://www.w3.org/2000/svg"
   xmlns:sodipodi="http://sodipodi.sourceforge.net/DTD/sodipodi-0.dtd"
   xmlns:inkscape="http://www.inkscape.org/namespaces/inkscape"
   width="25.399998mm"
   height="23.432949mm"
   viewBox="0 0 25.399998 23.432949"
   version="1.1"
   id="svg8"
   inkscape:version="0.92.3 (2405546, 2018-03-11)"
   sodipodi:docname="Icon_Food.svg">
  <defs
     id="defs2" />
  <sodipodi:namedview
     id="base"
     pagecolor="#ffffff"
     bordercolor="#666666"
     borderopacity="1.0"
     inkscape:pageopacity="0.0"
     inkscape:pageshadow="2"
     inkscape:zoom="1.979899"
     inkscape:cx="139.7367"
     inkscape:cy="-59.688182"
     inkscape:document-units="mm"
     inkscape:current-layer="layer1"
     showgrid="false"
     fit-margin-top="0"
     fit-margin-left="0"
     fit-margin-right="0"
     fit-margin-bottom="0"
     inkscape:window-width="1920"
     inkscape:window-height="1017"
     inkscape:window-x="-8"
     inkscape:window-y="-8"
     inkscape:window-maximized="1" />
  <metadata
     id="metadata5">
    <rdf:RDF>
      <cc:Work
         rdf:about="">
        <dc:format>image/svg+xml</dc:format>
        <dc:type
           rdf:resource="http://purl.org/dc/dcmitype/StillImage" />
        <dc:title></dc:title>
      </cc:Work>
    </rdf:RDF>
  </metadata>
  <g
     inkscape:label="Icon_Food"
     inkscape:groupmode="layer"
     id="layer1"
     transform="translate(-49.631529,-44.40999)">
    <path
       style="fill:#060606;stroke-width:0.07630542"
       d="m 58.614521,67.697413 c -0.760108,-0.379115 -1.398053,-0.932012 -1.847928,-1.648988 -0.35916,-0.421858 0.197728,-0.912681 0.641372,-0.77764 0.802512,0.170641 1.70388,0.547281 2.119158,1.272544 0.184815,0.441583 0.162118,1.009375 -0.263997,1.29766 -0.225254,0.01413 -0.445474,-0.05004 -0.648605,-0.143576 z m -5.233835,-0.294279 c -0.169527,-0.503358 0.07225,-1.059381 0.07051,-1.584227 0.185566,-0.449011 0.282586,-1.124382 0.858281,-1.182728 0.39001,-0.108329 0.748032,0.284493 0.631598,0.667026 0.05167,0.587059 -0.374134,1.067655 -0.613984,1.570171 -0.298321,0.225762 -0.449469,0.7758 -0.867077,0.738728 -0.02645,-0.06966 -0.05289,-0.139314 -0.07934,-0.20897 z m -0.985606,-0.47984 c -0.177536,-0.659328 0.122696,-1.446834 0.600712,-1.914576 0.53785,0.127771 -0.267624,1.586081 -0.295673,2.202245 -0.251391,0.11518 -0.252569,-0.08176 -0.305039,-0.287669 z M 66.664742,65.934938 C 64.322863,65.384386 61.808799,65.437265 59.631273,64.279097 57.489139,63.30563 55.852318,61.244096 55.50393,58.89666 c -0.109549,-0.882599 -0.04728,-1.788158 -0.03409,-2.676564 0.06085,-0.946261 0.423647,-1.824734 0.691541,-2.724515 0.590524,0.284654 0.881234,1.015966 1.519551,1.276288 0.442252,0.425965 1.295984,0.41495 1.506629,1.037103 -0.130234,1.228934 -0.499506,2.487171 -0.480459,3.752746 -0.01456,0.312352 -0.11002,0.868863 0.333651,0.877677 0.646748,-0.400162 0.353728,-1.686937 0.545203,-2.390709 0.07979,-0.453044 0.0081,-2.399892 0.724582,-1.52574 0.486238,0.886188 0.76374,1.868284 0.951532,2.855396 0.223529,1.321238 0.08221,2.703206 0.414411,3.999237 0.07726,0.549311 0.73143,0.471389 0.749093,-0.03916 0.01585,-2.269246 -0.405928,-4.553995 -1.407507,-6.598047 0.164902,-0.264989 0.817662,-0.04028 1.175086,-0.112012 1.096993,0.0015 2.203303,0.0794 3.270692,-0.234753 2.157648,-0.492769 4.24588,-1.537294 5.801951,-3.122807 0.515133,-0.559696 0.987075,-1.14835 1.277521,-1.858654 0.172375,-0.654827 0.581128,-0.849234 0.937826,-0.115759 0.762625,1.089199 1.104805,2.436006 1.428805,3.712301 0.225415,1.009461 0.05803,2.060733 0.110063,3.088637 -0.273273,1.394814 -1.30613,2.476843 -1.862547,3.760688 -0.406483,0.838553 -0.731704,1.724193 -1.395208,2.399821 -0.594532,0.665148 -1.366839,1.190823 -2.218932,1.461736 -0.895329,0.220025 -1.831928,0.29509 -2.74566,0.248504 l -0.06709,-0.0167 -0.06582,-0.01627 z m -16.894221,-1.01478 c -0.275856,-0.253348 -0.06936,-0.826731 0.0099,-1.166363 0.298525,-0.743254 1.083216,-1.117645 1.806868,-1.327182 0.534501,-0.14942 1.303762,0.20822 0.894632,0.864556 -0.176636,0.562422 -0.590745,0.944233 -1.10322,1.213926 -0.43605,0.176271 -1.148266,0.719226 -1.608137,0.415063 z m 12.888186,-9.101314 c -1.706433,-0.297305 -3.364746,-0.849939 -4.843891,-1.764668 -0.411111,-0.328382 -0.81081,-0.720437 -1.147301,-1.119376 -0.349678,-0.764267 -0.491645,-1.629618 -0.308386,-2.456439 0.212782,-1.10131 0.611098,-2.228397 1.318961,-3.10499 0.928584,-1.225567 2.430321,-1.776886 3.795842,-2.366153 0.877055,-0.346392 1.818346,-0.567051 2.758193,-0.597228 1.85332,0.02807 3.714697,0.333368 5.447775,1.002202 0.901665,0.354846 1.766216,0.912554 2.215503,1.798496 0.31899,0.591978 0.514705,1.256325 0.444278,1.93546 0.166593,1.622464 -0.88652,3.104741 -2.159398,4.012677 -1.73467,1.304258 -3.75057,2.344095 -5.897602,2.72369 -0.548734,0.02775 -1.087323,0.09533 -1.623974,-0.06366 z m 4.569546,-3.64953 c 0.704525,-0.08323 1.346118,-0.447983 1.942096,-0.802656 0.410807,-0.370389 0.871786,-0.705115 1.005457,-1.272509 0.231654,-0.536738 -0.175309,-1.092924 -0.507305,-1.495512 -0.959397,-0.855204 -2.210814,-1.320209 -3.487113,-1.352922 -1.112847,-0.166165 -2.226988,-0.05355 -3.341019,0.03567 -0.686458,0.04842 -1.38557,0.18563 -2.032981,0.398368 -0.658222,0.351647 -1.334245,0.737717 -1.758949,1.365221 -0.315981,0.423663 -0.332084,0.987076 -0.02475,1.419833 0.216802,0.421001 0.661938,0.694308 1.006822,1.005953 0.681902,0.309502 1.326269,0.731047 2.091913,0.78871 1.513878,0.131176 3.051397,0.03531 4.572074,0.01135 0.177899,-0.03388 0.356004,-0.06758 0.533754,-0.101562 z"
       id="path1680"
       inkscape:connector-curvature="0"
       inkscape:label="Food" />
  </g>
</svg>
