<?xml version="1.0" encoding="UTF-8" standalone="no"?>
<!-- Created with Inkscape (http://www.inkscape.org/) -->

<svg
   xmlns:dc="http://purl.org/dc/elements/1.1/"
   xmlns:cc="http://creativecommons.org/ns#"
   xmlns:rdf="http://www.w3.org/1999/02/22-rdf-syntax-ns#"
   xmlns:svg="http://www.w3.org/2000/svg"
   xmlns="http://www.w3.org/2000/svg"
   xmlns:sodipodi="http://sodipodi.sourceforge.net/DTD/sodipodi-0.dtd"
   xmlns:inkscape="http://www.inkscape.org/namespaces/inkscape"
   width="3.4382334mm"
   height="5.0564361mm"
   viewBox="0 0 3.4382334 5.0564361"
   version="1.1"
   id="svg1907"
   inkscape:version="0.92.4 (5da689c313, 2019-01-14)"
   sodipodi:docname="Icon_CombatCard.svg">
  <defs
     id="defs1901" />
  <sodipodi:namedview
     id="base"
     pagecolor="#ffffff"
     bordercolor="#666666"
     borderopacity="1.0"
     inkscape:pageopacity="0.0"
     inkscape:pageshadow="2"
     inkscape:zoom="3.959798"
     inkscape:cx="-29.025336"
     inkscape:cy="19.69495"
     inkscape:document-units="mm"
     inkscape:current-layer="layer1"
     showgrid="false"
     fit-margin-top="0"
     fit-margin-left="0"
     fit-margin-right="0"
     fit-margin-bottom="0"
     inkscape:snap-global="true"
     inkscape:window-width="1920"
     inkscape:window-height="1017"
     inkscape:window-x="-8"
     inkscape:window-y="-8"
     inkscape:window-maximized="1" />
  <metadata
     id="metadata1904">
    <rdf:RDF>
      <cc:Work
         rdf:about="">
        <dc:format>image/svg+xml</dc:format>
        <dc:type
           rdf:resource="http://purl.org/dc/dcmitype/StillImage" />
        <dc:title />
      </cc:Work>
    </rdf:RDF>
  </metadata>
  <g
     inkscape:label="Icon_CombatCard"
     inkscape:groupmode="layer"
     id="layer1"
     transform="translate(-89.2224,-49.723701)">
    <rect
       style="opacity:1;fill:none;fill-opacity:1;stroke:#010000;stroke-width:0.1;stroke-linecap:round;stroke-linejoin:round;stroke-miterlimit:4;stroke-dasharray:none;stroke-opacity:1;paint-order:stroke fill markers"
       id="rect2521"
       width="3.3382335"
       height="4.9564362"
       x="89.2724"
       y="49.773701" />
    <g
       transform="matrix(0.15858218,-5.2695484e-4,5.2695484e-4,0.15858218,52.173248,38.912712)"
       id="g3211">
      <path
         inkscape:connector-curvature="0"
         id="path3241"
         transform="matrix(0.74548581,-1.4926085,1.4926085,0.74548581,-633.0878,1296.9968)"
         d="M 890.41992,136.12109 873.70898,144.4668 879.27344,155.60742 895.98242,147.26172 Z M 890.15625,136.9082 C 890.36335,136.946 890.57798,137.13739 890.52344,137.30078 890.50004,137.37088 890.34206,137.39668 890.17383,137.35738 889.78155,137.26578 889.68306,137.06648 889.96094,136.92769 890.01814,136.89919 890.08722,136.89559 890.15625,136.90819 Z M 875.92383,143.99219 C 875.95453,143.99719 875.85423,144.08389 875.65039,144.25391 875.42036,144.44584 875.19559,144.70833 875.15234,144.83789 875.10914,144.96746 875.02336,145.09773 874.96094,145.12891 874.82359,145.19751 874.63897,144.86404 874.70508,144.66602 874.73108,144.58802 875.04853,144.38548 875.41016,144.21484 875.73055,144.06366 875.89316,143.98722 875.92383,143.99219 Z"
         style="fill:#f5d26c;stroke-width:0.15858306" />
      <path
         inkscape:connector-curvature="0"
         id="path3239"
         transform="matrix(0.74548581,-1.4926085,1.4926085,0.74548581,-633.0878,1296.9968)"
         d="M 890.41992,136.12109 873.70898,144.4668 879.27344,155.60742 895.98242,147.26172 Z M 890.27148,136.76172 C 890.29348,136.75672 890.37518,136.88105 890.45312,137.03711 890.61002,137.35125 890.36292,137.55084 889.97656,137.42188 889.79107,137.35998 887.88183,138.2697 882.53711,140.9668 L 875.34961,144.59375 875.20898,145.11133 875.06836,145.62891 874.81641,145.12695 C 874.61503,144.72376 874.62153,144.57683 874.84761,144.38281 875.05283,144.20673 890.00628,136.81805 890.27143,136.76172 Z M 895.09766,146.4668 C 895.14156,146.4708 895.17476,146.4902 895.19336,146.5273 895.22816,146.597 895.17426,146.74416 895.07422,146.85348 894.97418,146.96275 894.76734,147.04618 894.61523,147.03902 894.37311,147.02762 894.3634,146.99992 894.53323,146.81441 894.73926,146.58933 894.9661,146.45599 895.09769,146.46676 Z"
         style="fill:#fdc84e;stroke-width:0.15858306" />
      <path
         inkscape:connector-curvature="0"
         id="path3237"
         transform="matrix(0.74548581,-1.4926085,1.4926085,0.74548581,-633.0878,1296.9968)"
         d="M 890.41992,136.12109 873.70898,144.4668 879.27344,155.60742 895.98242,147.26172 Z M 890.2207,136.82031 C 890.41276,136.94238 892.67012,141.94262 892.52734,141.92969 892.43364,141.92169 891.85341,140.90349 891.23633,139.66797 890.40285,137.99919 890.05952,137.42849 889.9043,137.44727 889.48006,137.49857 875.52516,144.60157 875.35742,144.85156 875.20523,145.07837 875.40732,145.55316 877.26367,149.35156 878.40511,151.68709 879.30199,153.65714 879.25781,153.72852 879.21361,153.79992 878.1412,151.77932 876.87305,149.24023 L 874.56641,144.625 874.84766,144.38281 C 875.15152,144.12209 890.12206,136.75762 890.2207,136.82031 Z M 895.09766,146.4668 C 895.14156,146.4708 895.17476,146.4902 895.19336,146.5273 895.22816,146.597 895.17426,146.74416 895.07422,146.85348 894.97418,146.96275 894.76734,147.04618 894.61523,147.03902 894.37311,147.02762 894.3634,146.99992 894.53323,146.81441 894.73926,146.58933 894.9661,146.45599 895.09769,146.46676 Z M 891.66406,148.42188 C 891.60636,148.45688 891.37591,148.57865 890.95312,148.79688 889.262,149.66977 886.51574,151.04091 884.85156,151.84375 883.18738,152.64659 884.57049,151.93355 887.92578,150.25781 890.44226,149.001 891.83728,148.31691 891.66406,148.42188 Z"
         style="fill:#fdc436;stroke-width:0.15858306" />
      <path
         inkscape:connector-curvature="0"
         id="path3235"
         transform="matrix(0.74548581,-1.4926085,1.4926085,0.74548581,-633.0878,1296.9968)"
         d="M 890.41992,136.12109 873.70898,144.4668 879.27344,155.60742 895.98242,147.26172 Z M 890.23633,136.7793 C 891.79687,139.90381 893.17647,143.06935 892.94531,142.99219 892.78891,142.93999 892.63104,143.74976 892.71875,144.15039 892.77565,144.41035 892.76095,144.42421 892.64645,144.22849 892.44709,143.88775 892.01626,144.15929 891.96091,144.66013 891.93521,144.8923 891.94551,145.11686 891.98431,145.16013 892.10925,145.29948 891.63592,145.61643 891.23626,145.66013 891.02298,145.68343 890.75134,145.59253 890.63274,145.457 890.51414,145.3215 890.31036,145.25931 890.18157,145.32028 889.92146,145.44393 889.2929,145.36348 889.20891,145.19528 889.17921,145.13578 889.27871,145.11508 889.42962,145.15038 889.63952,145.19938 889.72191,145.13558 889.78118,144.8789 889.84148,144.61778 889.81348,144.54978 889.65227,144.57226 889.53834,144.58816 889.39028,144.49666 889.32415,144.36718 889.23205,144.18697 889.19886,144.18884 889.17962,144.37718 889.16402,144.52967 888.93763,144.27357 888.58196,143.7014 888.17707,143.05006 887.90663,142.7621 887.66399,142.71898 887.33841,142.66108 887.33079,142.63928 887.49798,142.30101 887.63741,142.01942 887.62915,141.97771 887.46088,142.10765 887.33088,142.20801 887.00948,142.14015 886.63666,141.93187 885.48786,141.29004 885.48404,141.24486 886.48627,140.18773 887.71122,138.89566 888.06353,138.64271 888.21478,138.94554 888.29838,139.11299 888.42202,139.12277 888.62885,138.97674 888.79103,138.86227 888.87078,138.69826 888.80463,138.61346 888.66318,138.43215 889.12501,137.99959 889.63666,137.83416 889.83406,137.77036 890.01853,137.80496 890.04682,137.91036 890.07512,138.01579 890.16619,138.06742 890.24994,138.02559 890.33374,137.98379 890.32484,137.84823 890.23044,137.72481 890.06986,137.51505 889.58079,137.73601 882.75192,141.10372 877.31276,143.78612 875.41573,144.77582 875.32809,144.97481 875.23539,145.18526 875.39779,145.59253 876.09567,146.89082 876.58321,147.79777 877.03658,148.55859 877.10153,148.58028 877.16653,148.60198 877.25998,148.3195 877.31052,147.95332 877.40792,147.24741 877.68773,146.94032 878.60349,146.53145 879.02728,146.34222 879.19263,146.17123 879.26364,145.84981 879.40691,145.20136 879.89891,144.72804 880.29294,144.85958 880.57707,144.95438 880.59913,145.00394 880.49997,145.30098 880.37137,145.68622 880.48617,146.34915 880.70505,146.48458 880.78735,146.53548 880.80045,146.70317 880.73235,146.85762 880.58536,147.19138 881.18281,148.48249 881.70891,148.967 882.2008,149.41999 881.96858,149.84361 881.04485,150.18184 880.61903,150.33776 880.32222,150.53158 880.27141,150.68379 880.20871,150.87144 880.1014,150.92116 879.82415,150.89473 879.62336,150.87563 879.35355,150.91233 879.22454,150.97673 879.09553,151.04113 878.85203,151.02413 878.68352,150.93763 878.40317,150.7938 878.38054,150.8232 878.42181,151.28919 878.44661,151.56929 878.67197,152.23348 878.92376,152.76575 879.17554,153.29803 879.33382,153.75797 879.27532,153.78724 879.21682,153.81654 878.13297,151.76703 876.86712,149.23255 L 874.56634,144.62513 874.84759,144.38294 C 875.05263,144.20702 890.20637,136.71958 890.23626,136.77943 Z M 889.94727,145.97656 C 890.06903,145.97056 890.04507,146.05086 889.94327,146.35547 889.86737,146.58292 889.72527,146.76089 889.62686,146.75195 889.52846,146.74295 889.4748,146.78955 889.50772,146.85547 889.54062,146.92137 889.43922,147.03924 889.28311,147.11719 888.93357,147.29177 888.89096,147.23748 889.15616,146.95312 889.26727,146.83399 889.38422,146.58726 889.41397,146.4043 889.44587,146.20836 889.59242,146.04397 889.77335,146.00586 889.84875,145.98996 889.90659,145.97856 889.94718,145.97656 Z M 895.09766,146.4668 C 895.14156,146.4708 895.17476,146.4902 895.19336,146.5273 895.22816,146.597 895.17426,146.74416 895.07422,146.85348 894.97418,146.96275 894.76734,147.04618 894.61523,147.03902 894.37311,147.02762 894.3634,146.99992 894.53323,146.81441 894.73926,146.58933 894.9661,146.45599 895.09769,146.46676 Z M 891.66602,148.42188 C 891.61302,148.45448 891.38435,148.5754 890.96289,148.79297 889.27705,149.66324 886.49946,151.04999 884.79102,151.875 883.08257,152.70001 884.46118,151.98825 887.85547,150.29297 890.40119,149.02151 891.82499,148.32405 891.66602,148.42188 Z"
         style="fill:#edb34d;stroke-width:0.15858306" />
      <path
         inkscape:connector-curvature="0"
         id="path3233"
         transform="matrix(0.74548581,-1.4926085,1.4926085,0.74548581,-633.0878,1296.9968)"
         d="M 890.41992,136.12109 873.70898,144.4668 879.27344,155.60742 895.98242,147.26172 Z M 890.25977,136.80078 C 890.56861,136.99184 892.58305,141.32565 892.79297,142.25 892.90234,142.7316 892.95909,143.07159 892.91797,143.00586 892.80539,142.8259 892.63863,143.78445 892.71875,144.15039 892.77565,144.41035 892.76095,144.42421 892.64645,144.22849 892.44709,143.88775 892.01626,144.15929 891.96091,144.66013 891.93521,144.8923 891.94551,145.11686 891.98431,145.16013 892.10925,145.29948 891.63592,145.61643 891.23626,145.66013 891.02298,145.68343 890.75134,145.59253 890.63274,145.457 890.51414,145.3215 890.31036,145.25931 890.18157,145.32028 889.92146,145.44393 889.2929,145.36348 889.20891,145.19528 889.17921,145.13578 889.27871,145.11508 889.42962,145.15038 889.63952,145.19938 889.72191,145.13558 889.78118,144.8789 889.84148,144.61778 889.81348,144.54978 889.65227,144.57226 889.53834,144.58816 889.39028,144.49666 889.32415,144.36718 889.23205,144.18697 889.19886,144.18884 889.17962,144.37718 889.16402,144.52967 888.93763,144.27357 888.58196,143.7014 888.17707,143.05006 887.90663,142.7621 887.66399,142.71898 887.33841,142.66108 887.33079,142.63928 887.49798,142.30101 887.63741,142.01942 887.62915,141.97771 887.46088,142.10765 887.33088,142.20801 887.00948,142.14015 886.63666,141.93187 885.48786,141.29004 885.48404,141.24486 886.48627,140.18773 887.71122,138.89566 888.06353,138.64271 888.21478,138.94554 888.29838,139.11299 888.42202,139.12277 888.62885,138.97674 888.79103,138.86227 888.87078,138.69826 888.80463,138.61346 888.66318,138.43215 889.12501,137.99959 889.63666,137.83416 889.83406,137.77036 890.01853,137.80496 890.04682,137.91036 890.07512,138.01579 890.16619,138.06742 890.24994,138.02559 890.33374,137.98379 890.32484,137.84823 890.23044,137.72481 890.06986,137.51505 889.58079,137.73601 882.75192,141.10372 877.31276,143.78612 875.41573,144.77582 875.32809,144.97481 875.23539,145.18526 875.39779,145.59253 876.09567,146.89082 876.58321,147.79777 877.03658,148.55859 877.10153,148.58028 877.16653,148.60198 877.25998,148.3195 877.31052,147.95332 877.40792,147.24741 877.68773,146.94032 878.60349,146.53145 879.02728,146.34222 879.19263,146.17123 879.26364,145.84981 879.40691,145.20136 879.89891,144.72804 880.29294,144.85958 880.57707,144.95438 880.59913,145.00394 880.49997,145.30098 880.37137,145.68622 880.48617,146.34915 880.70505,146.48458 880.78735,146.53548 880.80045,146.70317 880.73235,146.85762 880.58536,147.19138 881.18281,148.48249 881.70891,148.967 882.2008,149.41999 881.96858,149.84361 881.04485,150.18184 880.61903,150.33776 880.32222,150.53158 880.27141,150.68379 880.20871,150.87144 880.1014,150.92116 879.82415,150.89473 879.62336,150.87563 879.35355,150.91233 879.22454,150.97673 879.09553,151.04113 878.85203,151.02413 878.68352,150.93763 878.40164,150.79301 878.38001,150.81729 878.42181,151.24036 878.44681,151.49327 878.6693,152.14024 878.91595,152.67786 879.16259,153.21548 879.32037,153.7387 879.26751,153.83997 879.20621,153.95743 879.37991,154.07811 879.74602,154.17591 880.3194,154.32908 880.32015,154.32946 879.98626,154.49622 879.80244,154.58802 879.53682,154.62513 879.39641,154.57822 879.25601,154.53132 879.13772,154.45063 879.1347,154.39854 879.1317,154.34644 878.09886,152.19446 876.83782,149.61533 875.28898,146.44759 874.56505,144.83743 874.60735,144.65635 874.69095,144.29858 889.97786,136.62653 890.2597,136.80088 Z M 889.94727,145.97656 C 890.06903,145.97056 890.04507,146.05086 889.94327,146.35547 889.86737,146.58292 889.72527,146.76089 889.62686,146.75195 889.52846,146.74295 889.4748,146.78955 889.50772,146.85547 889.54062,146.92137 889.43922,147.03924 889.28311,147.11719 888.93357,147.29177 888.89096,147.23748 889.15616,146.95312 889.26727,146.83399 889.38422,146.58726 889.41397,146.4043 889.44587,146.20836 889.59242,146.04397 889.77335,146.00586 889.84875,145.98996 889.90659,145.97856 889.94718,145.97656 Z M 894.98633,146.47266 C 895.04673,146.47366 895.0942,146.50866 895.12891,146.57812 895.22151,146.76353 894.42886,147.20052 888.9668,149.96875 885.51867,151.71631 882.46504,153.18886 882.18164,153.24219 881.84739,153.30509 883.92347,152.18649 888.0918,150.05664 891.6259,148.25088 894.63251,146.68247 894.77148,146.57031 894.85398,146.50371 894.92589,146.47121 894.98633,146.47261 Z"
         style="fill:#fdb932;stroke-width:0.15858306" />
      <path
         inkscape:connector-curvature="0"
         id="path3231"
         transform="matrix(0.74548581,-1.4926085,1.4926085,0.74548581,-633.0878,1296.9968)"
         d="M 890.41992,136.12109 873.70898,144.4668 879.27344,155.60742 895.98242,147.26172 Z M 890.21875,136.83594 C 890.26875,136.83894 890.30175,136.85484 890.33008,136.87694 890.46326,136.98105 891.14957,138.33325 891.85352,139.8828 892.55746,141.43236 893.31589,143.1015 893.53906,143.59179 893.98585,144.57334 894.01991,144.91322 893.67773,144.96093 893.55326,144.97823 893.4238,145.13331 893.39062,145.30468 893.33692,145.58209 893.31452,145.58608 893.1875,145.34178 893.07652,145.12836 893.02722,145.12369 892.96094,145.32228 892.91404,145.46267 892.75959,145.63494 892.61914,145.70509 892.47869,145.77519 892.40725,145.91987 892.46094,146.02735 892.51464,146.13485 892.49704,146.36481 892.41994,146.53712 892.29509,146.81619 892.26994,146.81119 892.20119,146.49022 892.13429,146.17793 892.07031,146.15742 891.71291,146.33593 891.3011,146.54161 891.28975,146.93004 891.69531,146.96679 891.92498,146.98759 891.62191,147.68528 891.19727,148.11132 890.92326,148.38626 890.94557,148.39185 891.51172,148.20502 892.15627,147.99239 894.33335,146.89462 894.76758,146.56244 894.93199,146.43667 895.06078,146.44166 895.12891,146.57804 895.22201,146.76438 894.35308,147.23114 888.14062,150.33195 881.09027,153.85102 881.04216,153.8734 880.22266,153.88859 879.76911,153.89659 879.35363,153.92469 879.30078,153.95109 879.12562,154.03859 879.8069,154.2678 880.16016,154.24015 880.45642,154.21695 880.44556,154.24715 880.08006,154.43937 879.84454,154.56319 879.53687,154.62492 879.39646,154.57804 879.25606,154.53114 879.13777,154.45045 879.13475,154.39836 879.13175,154.34626 878.09891,152.19428 876.83787,149.61515 875.28903,146.44741 874.5651,144.83725 874.6074,144.65617 874.6582,144.43855 876.12028,143.66485 882.37889,140.53898 888.68147,137.39115 889.86866,136.81264 890.21873,136.83586 Z M 885.01758,141.69141 C 884.23271,141.66041 883.41801,141.79245 882.82617,142.09766 882.15427,142.44414 881.20389,143.41186 881.24609,143.70703 881.26189,143.81717 881.46303,143.84277 881.70508,143.76563 881.94146,143.69023 881.85642,143.73893 881.51758,143.87501 880.96659,144.09623 880.88158,144.19962 880.70898,144.85548 880.43622,145.89198 880.47266,146.43395 880.81641,146.46876 881.23244,146.51086 881.4549,146.34916 881.24414,146.15626 881.03105,145.96123 881.37269,145.88071 882.0918,145.95704 882.44019,145.99404 882.50912,146.06863 882.54688,146.44532 882.57138,146.68968 882.69995,147.01762 882.83398,147.17384 883.00883,147.37762 883.01593,147.48822 882.85938,147.56642 882.69745,147.64732 882.62008,147.57142 882.55469,147.2754 882.47299,146.90528 882.42847,146.89541 881.95703,147.13087 881.46782,147.37521 881.45963,147.39894 881.74609,147.76759 881.93574,148.01164 881.98644,148.1797 881.88477,148.23048 881.78547,148.28008 881.57404,148.00801 881.32617,147.51173 880.98513,146.82889 880.91034,146.75478 880.80664,146.99024 880.60789,147.44152 881.55329,148.82894 882.48047,149.44923 884.20224,150.60111 886.8222,150.13796 888.34766,148.41017 888.67148,148.0434 889.0947,146.45028 889.10352,145.56446 889.11052,144.82305 888.27823,143.11837 887.79102,142.87696 887.5203,142.74283 887.46473,142.75478 887.53125,142.92966 887.57795,143.05255 887.64708,143.19606 887.68555,143.24997 887.72405,143.30387 887.61165,143.41921 887.43555,143.50583 887.17654,143.633 887.14322,143.61705 887.25977,143.41993 887.36695,143.23855 887.26577,143.24342 886.86914,143.43943 886.44258,143.65031 886.30991,143.64933 886.20312,143.43543 886.04647,143.12177 886.6303,142.59442 887.03125,142.68738 887.41232,142.77568 887.41086,142.54367 887.02925,142.26355 886.55632,141.91635 885.8024,141.72224 885.01753,141.69129 Z M 893.55469,146.34961 C 893.63079,146.34061 893.68722,146.35261 893.70508,146.38871 893.78808,146.5549 893.53995,146.81349 893.26758,146.84379 892.90409,146.88419 892.91522,146.62035 893.28518,146.43559 893.38268,146.38689 893.47865,146.35819 893.55471,146.34969 Z M 886.16797,147.74414 C 886.19997,147.75484 886.26941,147.97417 886.32227,148.23242 886.38407,148.53426 886.31227,148.79966 886.12109,148.97266 885.95752,149.12068 885.90639,149.20696 886.00781,149.16602 886.10923,149.12512 886.22834,149.16402 886.27148,149.25002 886.31908,149.34542 886.23178,149.41296 886.04883,149.42385 885.88314,149.43385 885.581,149.50645 885.37695,149.58596 885.17288,149.66536 884.9619,149.74361 884.9082,149.75783 884.8545,149.77203 884.40359,149.66703 883.90625,149.52541 883.1627,149.31374 883.05013,149.23997 883.27734,149.11135 883.7873,148.82259 886.10906,147.72448 886.16797,147.74416 Z M 881.28516,151.64648 C 881.18886,151.60058 881.03967,151.64448 880.89258,151.80469 880.6276,152.09419 881.08823,152.70891 881.42969,152.52148 881.59322,152.43168 881.6174,152.37408 881.48829,152.38477 881.31294,152.39927 881.28793,152.32397 881.36915,152.0332 881.42605,151.82949 881.38145,151.69241 881.28515,151.64648 Z M 879.0293,151.98828 C 878.9484,151.96538 878.86898,152.02808 878.81641,152.18555 878.79031,152.26355 878.88261,152.55494 879.02344,152.83398 879.21508,153.21363 879.28912,153.27121 879.3125,153.06055 879.3333,152.87291 879.3731,152.83758 879.43359,152.95508 879.48349,153.05198 879.61928,153.08385 879.73633,153.02538 879.85342,152.96688 879.8873,152.79429 879.81053,152.64061 879.72143,152.46221 879.61421,152.42334 879.51365,152.53319 879.39781,152.65976 879.32646,152.59929 879.24412,152.30663 879.19142,152.1194 879.11015,152.01112 879.02928,151.98827 Z"
         style="fill:#fbaa2d;stroke-width:0.15858306" />
      <path
         inkscape:connector-curvature="0"
         id="path3229"
         transform="matrix(0.74548581,-1.4926085,1.4926085,0.74548581,-633.0878,1296.9968)"
         d="M 890.41992,136.12109 873.70898,144.4668 879.27344,155.60742 895.98242,147.26172 Z M 890.26953,136.83984 C 890.31573,136.85074 890.34823,136.87254 890.38477,136.89844 890.54792,137.01395 890.67544,137.17543 890.66797,137.25781 890.66097,137.34021 891.6663,139.52868 892.90234,142.12109 L 895.15039,146.83398 887.42383,150.73828 C 881.83642,153.56208 879.62358,154.62434 879.42578,154.57812 V 154.58012 C 879.27536,154.54502 879.14667,154.46834 879.14062,154.4102 879.13462,154.352 878.09893,152.1944 876.83789,149.61527 875.28905,146.44753 874.56512,144.83737 874.60742,144.65629 874.65822,144.43867 876.1203,143.66497 882.37891,140.5391 889.02081,137.22179 889.94648,136.76392 890.26953,136.83988 Z M 885.02344,141.6875 C 884.70373,141.6625 884.39381,141.7056 883.92578,141.80273 882.8888,142.01786 882.80574,142.05901 882.04297,142.73828 881.52532,143.19926 881.28263,143.52019 881.34961,143.6543 881.41441,143.78403 881.53281,143.78707 881.66602,143.6643 883.01531,142.41821 883.7566,142.06026 884.96289,142.07055 885.33902,142.07355 885.96712,142.20638 886.35742,142.36547 886.74772,142.52456 887.1273,142.59354 887.20312,142.51782 887.27892,142.44212 886.81708,142.19918 886.17578,141.97876 885.67244,141.80575 885.34314,141.71273 885.02344,141.68774 Z M 885.52539,142.31445 C 885.4229,142.26575 885.26175,142.44383 885.11914,142.88477 884.93102,143.46637 884.83477,143.55597 883.91602,144.01953 883.33354,144.31332 882.88176,144.63034 882.83203,144.7793 882.76573,144.97785 882.69074,145.0155 882.49219,144.94922 882.12181,144.82558 881.74252,145.06251 881.7207,145.43164 881.7021,145.74726 882.019,145.91241 882.51172,145.84375 882.63713,145.82625 882.69971,146.00522 882.70898,146.4082 882.72138,146.94701 882.75968,147.02273 883.14453,147.2793 883.54535,147.54651 883.5565,147.57869 883.35938,147.94336 883.11797,148.38994 883.21351,148.67319 883.64258,148.77344 883.89095,148.83144 883.97417,148.77744 884.08789,148.48633 884.17009,148.27556 884.30663,148.1526 884.42188,148.1875 884.52943,148.2201 885.09193,148.04049 885.66992,147.78906 886.57393,147.39581 886.80427,147.35872 887.31641,147.51758 887.85157,147.68356 888.31011,147.65363 888.21289,147.45898 888.19259,147.41828 887.89313,147.22111 887.54688,147.02148 886.67004,146.51596 886.69582,146.24142 887.68164,145.56836 888.13042,145.26201 888.53387,145.04097 888.58008,145.07812 888.62628,145.11522 888.66318,145.54908 888.66208,146.04297 888.66008,146.99646 888.11557,148.18698 887.42575,148.74414 887.04422,149.0523 886.88771,149.45542 887.21286,149.29102 888.1569,148.81447 889.01856,147.04906 889.03122,145.56641 889.03822,144.69656 888.38717,143.27814 887.8613,143.01758 887.52006,142.84852 887.51889,142.85062 887.65427,143.13281 887.78016,143.39519 887.71547,143.44864 886.88278,143.7832 885.69212,144.2616 885.3913,144.10569 885.582,143.10547 885.6709,142.63901 885.6279,142.3632 885.5254,142.31445 Z M 887.95508,143.74805 888.19531,144.22852 C 888.43129,144.701 888.42482,144.71453 887.87305,144.91406 887.37728,145.09334 887.34144,145.08392 887.57031,144.83986 887.71303,144.68767 887.79948,144.5014 887.76172,144.4258 887.72392,144.3502 887.47244,144.3658 887.20312,144.461 886.62151,144.66657 886.64576,144.62395 887.39062,144.12506 Z M 881.11133,144.18945 C 880.8908,144.23125 880.71385,144.68132 880.63867,145.41602 880.58947,145.89651 880.62437,146.33664 880.71487,146.39258 880.81037,146.45158 880.90085,146.30248 880.93167,146.03906 880.96087,145.78955 881.06411,145.28253 881.16019,144.91211 881.25629,144.54169 881.27803,144.22028 881.20899,144.19727 881.17589,144.18617 881.14289,144.18347 881.11129,144.18927 Z M 881.72656,148.4707 C 881.64746,148.4471 881.66146,148.517 881.73456,148.66992 881.9489,149.1194 883.25567,149.92826 883.7912,149.94336 884.23413,149.95586 884.09926,149.81384 883.3869,149.51953 883.17324,149.43123 882.67451,149.12025 882.27948,148.83008 881.97911,148.60944 881.80585,148.49425 881.72674,148.4707 Z"
         style="fill:#ea962d;stroke-width:0.15858306" />
      <path
         inkscape:connector-curvature="0"
         id="path3227"
         transform="matrix(0.74548581,-1.4926085,1.4926085,0.74548581,-633.0878,1296.9968)"
         d="M 890.41992,136.12109 873.70898,144.4668 879.27344,155.60742 895.98242,147.26172 Z M 890.21484,136.83594 C 890.26384,136.83994 890.29444,136.85614 890.32227,136.87894 890.45242,136.98537 891.6124,139.25918 892.89844,141.93167 L 895.23633,146.79105 887.38867,150.75589 C 881.20528,153.88031 879.49945,154.69573 879.33984,154.59964 879.10964,154.46104 875.04883,146.30481 874.69141,145.2637 L 874.45703,144.58401 882.27148,140.6348 C 888.69423,137.38929 889.87206,136.80852 890.21484,136.83597 Z M 884.95898,141.73242 C 884.76597,141.82882 884.87778,141.87809 885.69141,142.05469 886.1288,142.14959 886.46687,142.1877 886.44336,142.14059 886.38326,142.02027 885.09288,141.66552 884.95898,141.73239 Z M 884.07422,141.83398 C 883.57901,141.84448 882.4128,142.43298 881.86133,142.95117 881.60481,143.19222 881.42592,143.45136 881.46289,143.52539 881.49989,143.59939 881.62027,143.56039 881.73047,143.43949 882.17068,142.95631 883.21101,142.25584 883.80078,142.04692 884.26261,141.88332 884.3339,141.82849 884.07422,141.83402 Z M 885.46094,142.45312 C 885.37724,142.43462 885.2297,142.64113 885.05078,143.08008 884.79697,143.70279 884.67066,143.82429 883.87695,144.2207 883.3847,144.46656 882.95251,144.77743 882.90625,144.91602 882.84225,145.10786 882.72482,145.13921 882.4082,145.05078 882.07006,144.95638 881.97243,144.98618 881.86914,145.2207 881.6905,145.62631 881.80614,145.76591 882.30664,145.74805 882.81628,145.72985 882.88448,145.82225 882.8125,146.43555 882.7632,146.85526 882.7965,146.91473 883.24023,147.20312 883.70866,147.50754 883.71613,147.52537 883.55078,147.84766 883.45728,148.02982 883.32388,148.23824 883.25195,148.31055 883.16275,148.40025 883.22045,148.48551 883.43359,148.58008 883.82349,148.75304 883.98449,148.67678 884.12695,148.25 884.21765,147.9785 884.27879,147.93973 884.44922,148.04492 884.59107,148.13252 884.98037,148.01332 885.64844,147.67969 886.58436,147.21224 886.6784,147.19797 887.38672,147.42188 888.25427,147.69611 888.23452,147.43698 887.35552,147.00586 886.83173,146.74896 886.76084,146.66177 886.79302,146.32422 886.81942,146.04718 886.98732,145.85161 887.38677,145.63281 888.32052,145.12127 888.36122,145.09043 888.25396,144.96094 888.19686,144.89204 887.88204,144.94474 887.55474,145.07812 886.92809,145.3335 886.74349,145.09372 887.33794,144.79688 887.52841,144.70178 887.6523,144.56045 887.61333,144.48242 887.57433,144.40442 887.34617,144.43942 887.10747,144.55862 886.85427,144.68508 886.68164,144.69819 886.69146,144.58982 886.70046,144.48771 886.96011,144.27662 887.26763,144.12303 888.12899,143.69282 887.81125,143.55773 886.80474,143.92576 885.64388,144.35023 885.33615,144.17534 885.49224,143.17771 885.56454,142.71528 885.54474,142.47157 885.46104,142.4531 Z M 887.88867,143.10938 C 887.7305,143.05658 887.80237,143.26893 888.12891,143.82422 888.4134,144.30795 888.62351,144.8741 888.66992,145.28516 888.80324,146.46593 889.05755,146.73321 888.98438,145.61523 888.93518,144.86412 888.21569,143.21854 887.88867,143.10938 Z M 881.14258,144.16992 C 880.97476,144.25372 880.67174,145.22307 880.65039,145.74414 880.64239,145.94321 880.68299,146.20169 880.74219,146.31836 880.80139,146.43503 880.85522,146.28966 880.86133,145.99414 880.86733,145.69861 880.96644,145.15096 881.08008,144.77734 881.19371,144.40373 881.22132,144.1306 881.14258,144.16992 Z"
         style="fill:#d3852c;stroke-width:0.15858306" />
      <path
         inkscape:connector-curvature="0"
         id="path3225"
         transform="matrix(0.74548581,-1.4926085,1.4926085,0.74548581,-633.0878,1296.9968)"
         d="M 890.41992,136.12109 873.70898,144.4668 879.27344,155.60742 895.98242,147.26172 Z M 890.22656,136.78125 C 890.29276,136.76615 890.32833,136.76815 890.33789,136.78525 890.86482,137.72462 895.2782,146.78479 895.25,146.86923 895.1901,147.04875 879.65858,154.78093 879.4043,154.7579 879.22952,154.7421 878.69719,153.7825 877.20508,150.79501 875.15215,146.68465 874.77282,145.87184 874.51758,145.04111 L 874.36328,144.54111 882.30273,140.57626 C 887.77289,137.84418 889.76306,136.88693 890.22656,136.78134 Z M 883.73047,141.85742 883.09961,142.15039 C 882.75267,142.31151 882.26043,142.63981 882.00391,142.88086 881.43708,143.4135 881.43982,143.56693 882.00791,143.10742 882.23358,142.92485 882.71294,142.56887 883.07432,142.31641 Z M 885.46875,142.44141 C 885.41735,142.48191 885.33882,142.64129 885.23633,142.92773 885.03955,143.47772 884.88892,143.62591 884.01562,144.12305 883.46781,144.43489 882.9711,144.79622 882.91211,144.92578 882.83631,145.09221 882.69933,145.13095 882.44727,145.06055 882.18971,144.98865 882.0412,145.03485 881.91211,145.22461 881.66319,145.5905 881.79564,145.76629 882.30664,145.74805 882.81628,145.72985 882.88448,145.82225 882.8125,146.43555 882.7632,146.85526 882.7961,146.91602 883.24023,147.20508 883.71652,147.51508 883.72053,147.52306 883.5332,147.9375 883.42899,148.16806 883.37484,148.41952 883.41406,148.49805 883.54033,148.75086 883.89985,148.60341 884.05078,148.23633 884.18571,147.90819 884.21923,147.89408 884.4668,148.0625 884.6928,148.21627 884.84625,148.17268 885.42383,147.78906 886.19841,147.2746 886.88559,147.1482 887.50781,147.40625 887.73411,147.50015 887.93785,147.52624 887.95898,147.46285 887.98008,147.39955 887.86378,147.30229 887.70117,147.24801 886.51139,146.85083 886.47374,146.17823 887.59961,145.44723 888.0233,145.17213 888.305,144.90591 888.22656,144.85738 888.14816,144.80888 888.01374,144.81588 887.92773,144.87298 887.51245,145.14866 886.96775,145.31838 886.9043,145.19134 886.8653,145.11334 887.02372,144.95474 887.25781,144.83782 887.4919,144.7209 887.65225,144.56038 887.61328,144.48235 887.57428,144.40435 887.35128,144.43575 887.11719,144.55265 886.8831,144.66957 886.66007,144.70295 886.62109,144.62495 886.58209,144.54695 886.80507,144.35506 887.11719,144.19917 887.42931,144.04328 887.65225,143.85142 887.61328,143.77339 887.57428,143.69539 887.3904,143.70819 887.20508,143.80069 886.53765,144.13404 885.87621,144.23266 885.60547,144.04093 885.3902,143.88848 885.35798,143.70255 885.45508,143.19327 885.56102,142.63758 885.55448,142.37383 885.46878,142.44132 Z M 888.71094,144.64062 C 888.67674,144.67942 888.67764,144.91469 888.71894,145.25977 888.77374,145.71987 888.81854,146.11624 888.81854,146.14062 888.81852,146.16492 888.85364,146.16792 888.89664,146.14662 889.01845,146.08582 888.90974,144.94801 888.75602,144.67202 888.73712,144.63802 888.72252,144.62782 888.71112,144.64072 Z"
         style="fill:#cc7727;stroke-width:0.15858306" />
      <path
         inkscape:connector-curvature="0"
         id="path3223"
         transform="matrix(0.74548581,-1.4926085,1.4926085,0.74548581,-633.0878,1296.9968)"
         d="M 890.41992,136.12109 873.70898,144.4668 879.27344,155.60742 895.98242,147.26172 Z M 890.31641,136.66211 892.80469,141.70508 C 894.68556,145.51495 895.2657,146.79391 895.17578,146.94336 895.03712,147.17384 879.8195,154.80905 879.42188,154.84766 879.1848,154.87066 878.88582,154.33227 876.78711,150.09375 875.48502,147.46408 874.39132,145.18071 874.35742,145.02148 874.32352,144.86226 874.41272,144.61897 874.55469,144.48047 874.69666,144.34196 878.30073,142.52606 882.56445,140.44531 Z M 885.44336,142.6582 C 885.41116,142.6239 885.33181,142.76212 885.21289,143.07812 885.04791,143.51654 884.85696,143.68545 884.01367,144.13477 883.27255,144.52967 882.99323,144.75307 882.94922,144.98828 882.89432,145.28142 882.85642,145.29869 882.48633,145.19531 882.26507,145.13351 882.03781,145.15731 881.98047,145.25001 881.80811,145.52862 881.98647,145.69412 882.44531,145.67774 L 882.87891,145.66214 882.82421,146.27542 C 882.76621,146.91586 882.9485,147.16417 883.65038,147.39847 883.91785,147.48777 883.92575,147.54779 883.70508,147.85941 883.56578,148.0561 883.49305,148.30242 883.54492,148.40628 883.67836,148.67344 883.75805,148.59968 884.12891,147.86331 884.3092,147.50532 884.42481,147.36461 884.38672,147.55081 884.24999,148.2192 884.55393,148.22627 885.83984,147.58401 887.0308,146.98919 887.05115,146.97241 886.68555,146.8223 886.47966,146.7378 886.40507,146.67439 886.51953,146.68167 886.7781,146.69807 886.92303,146.15142 886.69727,146.01175 886.59609,145.94915 886.70127,145.82591 886.9668,145.69339 887.37346,145.49028 887.46735,145.18863 887.10938,145.23636 886.82284,145.27456 886.47865,144.61832 886.62695,144.31644 886.74619,144.07371 886.69225,144.06604 886.2793,144.26764 886.01146,144.39832 885.81323,144.44504 885.83789,144.37115 885.86259,144.29725 885.75039,144.14499 885.58984,144.03131 885.35921,143.86798 885.31817,143.70741 885.39453,143.27154 885.45993,142.89836 885.47553,142.69259 885.44333,142.65826 Z"
         style="fill:#f7551c;stroke-width:0.15858306" />
      <path
         inkscape:connector-curvature="0"
         id="path3221"
         transform="matrix(0.74548581,-1.4926085,1.4926085,0.74548581,-633.0878,1296.9968)"
         d="M 890.41992,136.12109 873.70898,144.4668 879.27344,155.60742 895.98242,147.26172 Z M 890.31641,136.66211 892.80469,141.70508 C 894.68556,145.51495 895.2657,146.79391 895.17578,146.94336 895.03712,147.17384 879.8195,154.80905 879.42188,154.84766 879.1848,154.87066 878.88582,154.33227 876.78711,150.09375 875.48502,147.46408 874.39132,145.18071 874.35742,145.02148 874.32352,144.86226 874.41272,144.61897 874.55469,144.48047 874.69666,144.34196 878.30073,142.52606 882.56445,140.44531 Z M 885.4043,142.63281 C 885.25256,142.74158 884.95426,143.93106 884.68555,145.55078 884.67055,145.64138 883.53927,145.55085 883.49023,145.45508 883.39943,145.27774 882.06966,145.10808 881.97461,145.26172 881.79362,145.55429 881.99251,145.65808 882.83984,145.71484 883.64275,145.76864 884.45082,145.96008 884.52734,146.11328 884.60314,146.26501 884.28052,147.0021 883.87695,147.59766 883.64425,147.94106 883.49559,148.30553 883.54688,148.4082 883.69085,148.69647 883.80288,148.56642 884.21484,147.64062 884.42451,147.16944 884.66089,146.65313 884.73828,146.49219 884.85924,146.24065 885.01852,146.2664 885.87305,146.67969 887.03815,147.24318 887.4445,147.21988 886.38086,146.65039 885.98047,146.43602 885.48444,146.169 885.2793,146.05859 884.92507,145.86796 884.92076,145.77988 885.2031,144.29883 885.36663,143.4411 885.48221,142.70084 885.45896,142.6543 885.44376,142.6238 885.42596,142.6173 885.40426,142.6328 Z M 886.56445,144.16992 C 886.47875,144.18162 886.35337,144.22572 886.20312,144.30078 885.92542,144.43948 885.73056,144.61728 885.76953,144.69531 885.80853,144.77331 886.02833,144.74351 886.25781,144.62891 886.4873,144.51429 886.68215,144.33649 886.69141,144.23438 886.69641,144.17908 886.65021,144.15828 886.56445,144.16988 Z M 886.55275,144.94336 C 886.4517,144.93026 886.25758,144.98366 886.05275,145.08594 885.77965,145.22234 885.588,145.39658 885.62697,145.47461 885.66597,145.55261 885.92028,145.50551 886.19338,145.36914 886.46648,145.23274 886.65813,145.05654 886.61916,144.97852 886.60916,144.95902 886.58646,144.94772 886.55276,144.94332 Z M 887.25588,145.30078 C 887.14402,145.29278 886.92552,145.35768 886.69143,145.47461 886.37931,145.6305 886.15441,145.82236 886.19338,145.90039 886.23238,145.97839 886.51993,145.91569 886.83205,145.75977 887.14417,145.60388 887.36712,145.41201 887.32814,145.33398 887.31814,145.31448 887.29314,145.30338 887.25584,145.30078 Z"
         style="fill:#a25c24;stroke-width:0.15858306" />
      <path
         inkscape:connector-curvature="0"
         id="path3219"
         transform="matrix(0.74548581,-1.4926085,1.4926085,0.74548581,-633.0878,1296.9968)"
         d="M 890.41992,136.12109 873.70898,144.4668 879.27344,155.60742 895.98242,147.26172 Z M 890.32222,136.58398 C 890.62735,136.77275 895.45713,146.62467 895.37104,146.88281 895.24794,147.2519 879.72179,155.07103 879.39643,154.92773 879.23929,154.85853 878.43982,153.43573 877.15815,150.94336 874.50486,145.78377 874.14529,144.97446 874.33003,144.60352 874.52547,144.2111 890.05935,136.42136 890.32222,136.58398 Z"
         style="fill:#704720;stroke-width:0.15858306" />
      <path
         inkscape:connector-curvature="0"
         id="path3217"
         transform="matrix(0.74548581,-1.4926085,1.4926085,0.74548581,-633.0878,1296.9968)"
         d="M 890.41992,136.12109 873.70898,144.4668 875.04883,147.14844 C 875.00743,147.04059 874.98493,146.93864 874.99223,146.86719 875.00673,146.72427 874.80864,146.18295 874.55082,145.66406 874.18932,144.93609 874.12376,144.6744 874.26371,144.52148 874.56492,144.19237 890.28022,136.39831 890.44145,136.49805 890.64355,136.62307 895.46243,146.27202 895.49613,146.61914 895.51113,146.77331 895.40793,147.01399 895.26762,147.1543 894.84933,147.57267 879.77031,155.07497 879.45512,155.02148 879.23437,154.98398 878.82029,154.27752 877.32816,151.38672 876.30934,149.41284 875.36085,147.64723 875.22074,147.46289 875.15074,147.37069 875.09025,147.25628 875.04887,147.14844 L 879.27348,155.60742 895.98246,147.26172 Z"
         style="fill:#4c2e1a;stroke-width:0.15858306" />
      <path
         inkscape:connector-curvature="0"
         id="path3215"
         transform="matrix(0.74548581,-1.4926085,1.4926085,0.74548581,-633.0878,1296.9968)"
         d="M 890.41992,136.12109 890.37302,136.14449 C 890.40222,136.15629 890.43092,136.17089 890.45702,136.19529 Z M 890.25195,136.20509 873.70898,144.46681 873.93164,144.91407 C 873.89024,144.80918 873.87074,144.74173 873.90044,144.77149 873.96974,144.84099 874.10131,144.73859 874.21685,144.5254 874.38641,144.21251 875.51557,143.61259 882.22857,140.25978 888.28987,137.23245 890.10136,136.37697 890.30864,136.44532 890.52301,136.51602 890.52973,136.48892 890.33794,136.31251 890.28204,136.26111 890.27224,136.23611 890.25204,136.20509 Z M 890.64062,136.56251 C 890.66522,136.63151 890.69042,136.69113 890.73242,136.7461 Z M 895.50781,146.31056 C 895.49881,146.39486 895.50281,146.50572 895.53321,146.64259 895.58171,146.86211 895.55381,147.07471 895.47271,147.11524 895.39151,147.15574 895.38001,147.22322 895.44531,147.26368 895.51071,147.30418 892.03374,149.10074 887.71875,151.25587 880.07546,155.07332 879.86065,155.1702 879.4082,155.05079 879.1936,154.99419 879.0953,154.97099 879.05859,154.97849 878.89023,154.7106 878.59155,154.17838 878.14648,153.34958 L 879.27344,155.60739 895.98242,147.26169 Z M 879.10742,155.06056 C 879.13292,155.09066 879.12302,155.09736 879.18552,155.15626 879.31862,155.28181 879.35491,155.3599 879.26562,155.33009 879.25662,155.32709 879.14038,155.11034 879.10742,155.06056 Z"
         style="fill:#3b2117;stroke-width:0.15858306" />
      <path
         inkscape:connector-curvature="0"
         id="path3213"
         transform="matrix(0.74548581,-1.4926085,1.4926085,0.74548581,-633.0878,1296.9968)"
         d="M 885.96875,138.34375 876.97656,142.83594 C 878.26376,142.21794 880.02237,141.35175 882.39648,140.16211 883.85839,139.42957 884.86865,138.90788 885.96875,138.34375 Z M 873.71484,144.46289 873.70884,144.46689 873.71284,144.47489 C 873.71313,144.47189 873.71484,144.46689 873.71484,144.46319 Z M 895.92383,147.14258 C 895.83403,147.25284 895.05181,147.69081 894.00391,148.25 L 895.98242,147.26172 Z M 882.83398,153.82812 C 880.86773,154.76182 879.32835,155.46461 879.1875,155.4375 L 879.2734,155.60742 Z M 878.49219,154.04297 878.50589,154.07227 C 878.50289,154.06197 878.49789,154.05127 878.49219,154.04297 Z"
         style="fill:#2b1c15;stroke-width:0.15858306" />
      <path
         inkscape:connector-curvature="0"
         id="path3245"
         d="M 233.88407,69.426026 254.65914,69.42602 254.65908,100.58856 233.88402,100.58857 Z"
         style="fill:none;stroke:#000000;stroke-width:0.31952265;stroke-linecap:butt;stroke-linejoin:miter;stroke-miterlimit:4;stroke-dasharray:none;stroke-opacity:1" />
    </g>
  </g>
</svg>
