<?xml version="1.0" encoding="UTF-8" standalone="no"?>
<!-- Created with Inkscape (http://www.inkscape.org/) -->

<svg
   xmlns:dc="http://purl.org/dc/elements/1.1/"
   xmlns:cc="http://creativecommons.org/ns#"
   xmlns:rdf="http://www.w3.org/1999/02/22-rdf-syntax-ns#"
   xmlns:svg="http://www.w3.org/2000/svg"
   xmlns="http://www.w3.org/2000/svg"
   xmlns:sodipodi="http://sodipodi.sourceforge.net/DTD/sodipodi-0.dtd"
   xmlns:inkscape="http://www.inkscape.org/namespaces/inkscape"
   width="34.82198mm"
   height="20.05039mm"
   viewBox="0 0 34.82198 20.05039"
   version="1.1"
   id="svg1341"
   inkscape:version="0.92.4 (5da689c313, 2019-01-14)"
   sodipodi:docname="Icon_CombatPower.svg">
  <defs
     id="defs1335" />
  <sodipodi:namedview
     id="base"
     pagecolor="#ffffff"
     bordercolor="#666666"
     borderopacity="1.0"
     inkscape:pageopacity="0.0"
     inkscape:pageshadow="2"
     inkscape:zoom="0.98994949"
     inkscape:cx="-490.34885"
     inkscape:cy="-4.1046631"
     inkscape:document-units="mm"
     inkscape:current-layer="layer1"
     showgrid="false"
     fit-margin-top="0"
     fit-margin-left="0"
     fit-margin-right="0"
     fit-margin-bottom="0"
     inkscape:window-width="1920"
     inkscape:window-height="1017"
     inkscape:window-x="-8"
     inkscape:window-y="-8"
     inkscape:window-maximized="1" />
  <metadata
     id="metadata1338">
    <rdf:RDF>
      <cc:Work
         rdf:about="">
        <dc:format>image/svg+xml</dc:format>
        <dc:type
           rdf:resource="http://purl.org/dc/dcmitype/StillImage" />
        <dc:title />
      </cc:Work>
    </rdf:RDF>
  </metadata>
  <g
     inkscape:label="Icon_CombatPower"
     inkscape:groupmode="layer"
     id="layer1"
     transform="translate(-78.594962,-39.778395)">
    <path
       inkscape:connector-curvature="0"
       id="path3147"
       d="M 88.615465,59.619833 C 88.537625,59.417639 89.13532,56.959636 89.467858,56.113116 89.616625,55.734382 89.681566,55.702924 90.156745,55.780025 90.643254,55.858965 90.742509,55.804435 91.52471,55.030558 91.988605,54.571545 92.368122,54.108194 92.368122,54.000925 92.368122,53.653925 91.926887,52.94123 91.712257,52.94123 91.597573,52.94123 90.857331,53.261839 90.067531,53.653695 88.570835,54.396235 87.730232,54.614669 86.96125,54.460877 86.641609,54.396907 86.506659,54.28618 86.506659,54.08744 86.506659,53.81183 87.077777,53.503071 90.321678,52.024835 91.191481,51.628461 91.571551,51.288494 91.419606,51.042674 91.263009,50.789079 90.898876,50.864384 89.322499,51.476677 88.140332,51.935874 87.619233,52.061833 86.904645,52.061193 85.835043,52.060193 85.003929,51.857249 84.732971,51.530768 84.466296,51.20933 84.837522,50.950706 85.743941,50.826644 87.804892,50.54454 91.027193,49.652408 91.151088,49.329602 91.320581,48.888138 90.966396,48.780556 89.91858,48.95506 87.026699,49.436696 86.333988,49.475375 85.124048,49.222748 83.775059,48.941104 83.063051,48.577616 83.063051,48.170561 83.063051,47.901951 83.22195,47.879982 85.847249,47.785425 89.109758,47.667931 90.898553,47.470159 91.059894,47.209163 91.123454,47.106361 91.116544,46.91232 91.046074,46.777969 90.928627,46.558181 90.608064,46.541047 87.853573,46.607186 86.169606,46.647716 84.565226,46.638046 84.28828,46.586456 84.011472,46.534506 83.282606,46.193168 82.668839,45.827879 81.629912,45.209598 81.244638,44.818668 81.463183,44.604545 81.512923,44.555635 83.195097,44.533155 85.200963,44.554575 88.685148,44.591885 88.893975,44.610125 89.877955,44.965043 90.444421,45.169401 90.973027,45.296337 91.052569,45.247147 91.331219,45.074891 91.210547,44.338062 90.867416,44.118126 89.996922,43.560001 88.955324,43.386824 85.775258,43.271536 82.440254,43.150634 81.777389,43.031022 80.591676,42.33612 79.742368,41.838418 78.594975,40.555527 78.594975,40.103681 78.594975,39.682482 78.571945,39.683357 80.499974,40.031001 81.346196,40.183544 82.763949,40.417564 83.650517,40.551072 84.537039,40.684548 85.637269,40.858877 86.095453,40.938419 86.553728,41.017959 87.504869,41.148535 88.209278,41.228583 89.849169,41.414934 90.500335,41.716631 91.465293,42.73714 91.895013,43.191455 92.344169,43.563174 92.46369,43.563174 92.582979,43.563174 93.387564,43.167537 94.251057,42.683957 95.114596,42.200386 95.883394,41.80474 95.959574,41.80474 96.035574,41.80474 96.804551,42.200377 97.668044,42.683957 98.531583,43.167527 99.352657,43.563174 99.492719,43.563174 99.632735,43.563174 100.21413,43.110517 100.78469,42.557311 101.67011,41.698751 101.93568,41.527075 102.59803,41.385019 103.02499,41.293499 103.55217,41.218704 103.76984,41.218888 103.98769,41.219049 104.72609,41.124188 105.41116,41.008127 106.09622,40.892062 107.38207,40.69019 108.26863,40.559524 109.15515,40.428858 110.62832,40.186731 111.54224,40.021485 113.39483,39.686506 113.63451,39.743986 113.27614,40.437065 112.98367,41.002485 111.74683,42.146171 111.03699,42.507431 109.97752,43.046644 109.30318,43.151375 106.13602,43.268588 102.97262,43.385667 102.27733,43.499107 101.15021,44.08196 100.86096,44.231464 100.72187,44.415373 100.72187,44.648035 100.72187,45.28128 101.01295,45.342799 102.16472,44.953076 103.15626,44.61759 103.4507,44.592305 106.79474,44.555228 108.75883,44.533578 110.41912,44.568128 110.48429,44.632558 110.70721,44.852761 110.29776,45.232112 109.06368,45.948579 L 107.82887,46.665483 104.38526,46.616293 100.94166,46.567103 100.89556,46.957489 C 100.86336,47.232086 100.92776,47.371642 101.11525,47.42803 101.56432,47.563901 105.39458,47.811324 107.09513,47.814318 108.86361,47.817418 109.25741,47.927205 108.92722,48.32509 108.5758,48.748684 107.71548,49.086288 106.50899,49.274158 105.50949,49.429788 105.10989,49.421267 103.79807,49.216358 100.878,48.760201 100.86732,48.75974 100.86732,49.093153 100.86732,49.255691 100.94972,49.454293 101.05063,49.53448 101.38317,49.799174 104.6378,50.625747 106.0948,50.815579 106.51162,50.869879 106.9733,51.007825 107.12055,51.122048 107.37709,51.32111 107.37433,51.341652 107.05235,51.614706 106.24294,52.301051 104.33573,52.189283 102.27031,51.334444 100.95992,50.792108 100.79328,50.754806 100.5898,50.958289 100.38622,51.161773 100.39267,51.211285 100.6524,51.457469 100.81084,51.607802 101.864,52.146688 102.99232,52.655034 104.12065,53.163384 105.17316,53.698815 105.33119,53.844888 105.78624,54.265304 105.42469,54.482776 104.32164,54.452129 103.52494,54.430019 103.18088,54.320265 101.91273,53.68387 101.09902,53.275521 100.33483,52.941444 100.21457,52.941444 99.99165,52.941444 99.548712,53.646871 99.548712,54.001558 99.548712,54.109057 99.911187,54.555109 100.3545,54.992779 101.06729,55.696737 101.23093,55.789143 101.77262,55.793725 L 102.385,55.798825 102.86695,57.410726 C 103.39653,59.181941 103.45631,59.653767 103.16541,59.765411 102.92913,59.856101 99.413072,59.018804 99.220135,58.8259 99.133545,58.7394 99.141835,58.575898 99.243165,58.38858 99.331135,58.224062 99.403446,57.962775 99.403446,57.807961 99.403446,57.517612 97.93374,56.018636 97.649056,56.018636 97.561086,56.018636 97.252498,56.117526 96.962978,56.238424 96.291639,56.518916 95.724298,56.516844 95.040983,56.231524 94.311335,55.926667 94.035172,56.024218 93.186141,56.886872 92.471645,57.612781 92.46575,57.626497 92.632986,58.171472 92.726026,58.474441 92.74767,58.776765 92.680886,58.843296 92.568044,58.955953 89.170079,59.828786 88.844174,59.828786 88.763114,59.828786 88.660863,59.734916 88.616648,59.62019 Z"
       style="fill:#2a2a29;stroke-width:0.14653641" />
  </g>
</svg>
