<?xml version="1.0" encoding="UTF-8" standalone="no"?>
<!-- Created with Inkscape (http://www.inkscape.org/) -->

<svg
   xmlns:dc="http://purl.org/dc/elements/1.1/"
   xmlns:cc="http://creativecommons.org/ns#"
   xmlns:rdf="http://www.w3.org/1999/02/22-rdf-syntax-ns#"
   xmlns:svg="http://www.w3.org/2000/svg"
   xmlns="http://www.w3.org/2000/svg"
   xmlns:xlink="http://www.w3.org/1999/xlink"
   xmlns:sodipodi="http://sodipodi.sourceforge.net/DTD/sodipodi-0.dtd"
   xmlns:inkscape="http://www.inkscape.org/namespaces/inkscape"
   width="25.4mm"
   height="25.4mm"
   viewBox="0 0 25.4 25.4"
   version="1.1"
   id="svg8"
   inkscape:export-filename="C:\Users\Ryan\Icon_Popularity.png"
   inkscape:export-xdpi="300"
   inkscape:export-ydpi="300"
   inkscape:version="0.92.4 (5da689c313, 2019-01-14)"
   sodipodi:docname="Icon_Popularity.svg">
  <defs
     id="defs2">
    <linearGradient
       inkscape:collect="always"
       id="linearGradient889">
      <stop
         style="stop-color:#613a5d;stop-opacity:1;"
         offset="0"
         id="stop885" />
      <stop
         style="stop-color:#613a5d;stop-opacity:0;"
         offset="1"
         id="stop887" />
    </linearGradient>
    <linearGradient
       inkscape:collect="always"
       xlink:href="#linearGradient889"
       id="linearGradient891"
       x1="64.901039"
       y1="108.27083"
       x2="48.391594"
       y2="49.400543"
       gradientUnits="userSpaceOnUse"
       gradientTransform="matrix(0.45403349,0,0,0.49297284,14.219694,56.171138)" />
  </defs>
  <sodipodi:namedview
     id="base"
     pagecolor="#ffffff"
     bordercolor="#666666"
     borderopacity="1.0"
     inkscape:pageopacity="0.0"
     inkscape:pageshadow="2"
     inkscape:zoom="1.979899"
     inkscape:cx="47.975088"
     inkscape:cy="72.421888"
     inkscape:document-units="mm"
     inkscape:current-layer="layer1"
     showgrid="false"
     fit-margin-top="0"
     fit-margin-left="0"
     fit-margin-right="0"
     fit-margin-bottom="0"
     inkscape:window-width="1920"
     inkscape:window-height="1017"
     inkscape:window-x="-8"
     inkscape:window-y="-8"
     inkscape:window-maximized="1" />
  <metadata
     id="metadata5">
    <rdf:RDF>
      <cc:Work
         rdf:about="">
        <dc:format>image/svg+xml</dc:format>
        <dc:type
           rdf:resource="http://purl.org/dc/dcmitype/StillImage" />
        <dc:title />
      </cc:Work>
    </rdf:RDF>
  </metadata>
  <g
     inkscape:label="Icon_Popularity"
     inkscape:groupmode="layer"
     id="layer1"
     transform="translate(-26.044993,-85.385265)">
    <path
       sodipodi:nodetypes="sssssssssssss"
       inkscape:connector-curvature="0"
       id="path876"
       d="M 44.749012,85.396147 C 43.31727,85.268444 41.057103,86.288808 40.011806,87.190749 39.496711,87.635201 38.738549,87.958573 37.921901,87.310885 37.545991,87.012748 36.474093,86.221133 35.019307,85.763366 31.920816,84.788388 28.07835,86.175003 26.709614,89.457679 25.907981,91.380258 25.963267,93.595184 26.196648,95.645145 26.638238,99.523973 29.192008,102.58757 31.668907,105.2272 33.488207,107.16603 35.362504,109.12375 37.582035,110.48818 39.021504,111.37307 40.539689,110.09264 41.6826,109.11047 44.496966,106.69194 47.248632,104.08252 49.306799,100.88449 50.41642,99.16034 51.33611,96.489845 51.419044,94.326105 51.508389,91.995088 51.438227,90.103108 50.030099,88.173966 48.760134,86.434108 46.72739,85.572607 44.749012,85.396147 Z"
       style="fill:#613a5d;fill-opacity:1;stroke-width:0.12517509" />
    <path
       sodipodi:nodetypes="cscssssssssssscssccc"
       inkscape:connector-curvature="0"
       id="path843"
       d="M 37.983677,109.89994 C 37.735776,109.80032 37.341566,109.55053 37.107656,109.34484 36.873745,109.13916 36.390439,108.7361 36.033641,108.44915 33.776553,106.6339 31.082097,103.79419 29.110095,101.15235 28.80493,100.74353 28.225115,99.694199 27.821616,98.820502 27.230102,97.539693 27.052585,97.004554 26.905256,96.058069 26.531955,93.659858 26.748739,90.704432 27.384654,89.522399 28.038078,88.307822 28.709352,87.579945 29.623301,87.094988 30.729078,86.508244 31.038577,86.390845 31.994186,86.195666 33.516517,85.884737 36.050021,86.65805 37.562929,87.895441 38.585566,88.731844 38.879177,88.749605 39.722226,88.026062 40.729914,87.161217 41.85003,86.626695 43.419746,86.261596 44.461322,86.019337 44.981964,86.03483 46.10265,86.341437 47.427282,86.703841 48.602792,87.407445 49.239856,88.219219 49.917133,89.082233 50.478078,90.295645 50.642098,91.252484 51.14252,93.456053 50.717138,96.025016 50.453911,96.840663 50.06389,98.0492 49.080272,100.11039 48.500414,100.93424 46.855217,103.27173 43.601923,106.73101 41.494345,108.38393 41.174198,108.63501 40.624949,109.08594 40.273789,109.38599 39.525106,110.02571 38.736871,110.2026 37.983677,109.89994 Z"
       style="display:inline;fill:#cd6f7f;fill-opacity:1;stroke-width:0.12517509" />
    <path
       sodipodi:nodetypes="csssccsssssssscsssccssscc"
       inkscape:connector-curvature="0"
       id="path839"
       d="M 37.953889,107.07936 C 35.146963,104.71851 32.201235,101.5253 30.85502,99.384095 29.60445,97.395011 28.971541,94.913224 29.24349,93.064899 29.410746,91.928124 29.926025,90.587332 30.38153,90.103639 30.874511,89.58015 32.054848,88.983651 32.788313,88.887339 33.118669,88.843958 33.673197,88.868118 34.020597,88.941022 34.710832,89.085875 35.851619,89.576996 35.851619,89.729298 35.851619,89.781829 35.508024,89.859645 35.088075,89.902224 32.803577,90.133849 31.676231,91.721266 31.792044,94.543365 31.881638,96.726575 32.620666,98.20076 34.788589,100.52076 35.406291,101.18179 36.4452,102.16492 37.097276,102.7055 38.692504,104.02796 38.788286,104.02764 40.374981,102.69479 41.02552,102.14832 42.033874,101.19454 42.615768,100.57526 44.987387,98.051298 45.790157,96.278245 45.681236,93.804673 45.576309,91.421815 44.475096,90.114506 42.395182,89.903623 41.967647,89.860276 41.617845,89.78183 41.617845,89.729299 41.617845,89.555036 42.846497,89.056561 43.618286,88.917703 44.633588,88.735033 45.7265,89.018145 46.586986,89.686725 47.328071,90.262534 47.476356,90.472972 47.858603,91.491354 48.118599,92.184029 48.153052,92.473384 48.153868,93.971152 48.155185,96.422635 47.916461,97.231317 46.505996,99.552887 45.941931,100.48132 43.662714,103.25868 43.005217,103.8188 42.794693,103.99814 42.404289,104.37966 42.137653,104.66661 41.138961,105.74139 38.954029,107.60625 38.709055,107.59294 38.624071,107.58851 38.284246,107.35721 37.953889,107.07936 Z"
       style="fill:#613a5d;fill-opacity:1;stroke-width:0.12517509" />
    <path
       style="opacity:0.39899998;fill:url(#linearGradient891);fill-opacity:1;stroke-width:0.12517509"
       d="M 44.749012,85.396147 C 43.31727,85.268444 41.269465,86.486443 40.011806,87.190749 39.427062,87.518213 38.738549,87.958573 37.921901,87.310885 37.545991,87.012748 36.474093,86.221133 35.019307,85.763366 31.920816,84.788388 28.07835,86.175003 26.709614,89.457679 25.907981,91.380258 25.963267,93.595184 26.196648,95.645145 26.638238,99.523973 29.192008,102.58757 31.668907,105.2272 33.488207,107.16603 35.362504,109.12375 37.582035,110.48818 39.021504,111.37307 40.539689,110.09264 41.6826,109.11047 44.496966,106.69194 47.248632,104.08252 49.306799,100.88449 50.41642,99.16034 51.21476,97.148628 51.297694,94.984888 51.38704,92.653872 51.438226,90.103108 50.030099,88.173966 48.760134,86.434108 46.72739,85.572607 44.749012,85.396147 Z"
       id="path883"
       inkscape:connector-curvature="0"
       sodipodi:nodetypes="sssssssssssss" />
  </g>
</svg>
