<?xml version="1.0" encoding="UTF-8" standalone="no"?>
<!-- Created with Inkscape (http://www.inkscape.org/) -->

<svg
   xmlns:dc="http://purl.org/dc/elements/1.1/"
   xmlns:cc="http://creativecommons.org/ns#"
   xmlns:rdf="http://www.w3.org/1999/02/22-rdf-syntax-ns#"
   xmlns:svg="http://www.w3.org/2000/svg"
   xmlns="http://www.w3.org/2000/svg"
   xmlns:sodipodi="http://sodipodi.sourceforge.net/DTD/sodipodi-0.dtd"
   xmlns:inkscape="http://www.inkscape.org/namespaces/inkscape"
   width="210mm"
   height="297mm"
   viewBox="0 0 210 297"
   version="1.1"
   id="svg8"
   inkscape:version="0.92.4 (5da689c313, 2019-01-14)"
   sodipodi:docname="Icon_VictoryStar.svg">
  <defs
     id="defs2" />
  <sodipodi:namedview
     id="base"
     pagecolor="#ffffff"
     bordercolor="#666666"
     borderopacity="1.0"
     inkscape:pageopacity="0.0"
     inkscape:pageshadow="2"
     inkscape:zoom="11.2"
     inkscape:cx="369.78078"
     inkscape:cy="565.83008"
     inkscape:document-units="mm"
     inkscape:current-layer="layer1"
     showgrid="false"
     inkscape:window-width="1920"
     inkscape:window-height="1017"
     inkscape:window-x="-8"
     inkscape:window-y="-8"
     inkscape:window-maximized="1"
     inkscape:snap-nodes="false" />
  <metadata
     id="metadata5">
    <rdf:RDF>
      <cc:Work
         rdf:about="">
        <dc:format>image/svg+xml</dc:format>
        <dc:type
           rdf:resource="http://purl.org/dc/dcmitype/StillImage" />
        <dc:title />
      </cc:Work>
    </rdf:RDF>
  </metadata>
  <g
     inkscape:label="Icon_VictoryStar"
     inkscape:groupmode="layer"
     id="layer1">
    <path
       style="fill:#f4d087;stroke-width:0.32000002"
       d="M 396.82812,540.59766 389.61523,553.77539 375.18555,556.14453 385.56445,567.0332 383.37109,581.4043 396.99805,574.95703 410.07227,581.46875 408.11523,566.59766 418.38867,556.25 403.55273,553.50586 Z"
       transform="scale(0.26458333)"
       id="path842"
       inkscape:connector-curvature="0" />
    <path
       style="fill:#f6c86d;stroke-width:0.32000002"
       d="M 396.82812,540.59766 389.61523,553.77539 375.18555,556.14453 385.56445,567.0332 383.37109,581.4043 396.99805,574.95703 410.07227,581.46875 408.11523,566.59766 418.38867,556.25 403.55273,553.50586 Z M 396.50781,542.41406 C 396.88985,542.68687 396.90586,553.68208 396.50381,555.47852 396.18803,556.88964 396.0377,557.07827 394.88271,557.49609 394.18206,557.74978 393.58287,557.95788 393.55263,557.96094 393.37095,557.97924 390.52077,554.52585 390.51748,554.2832 390.51248,553.92634 396.06718,542.85928 396.4706,542.42188 396.4837,542.40768 396.4954,542.40528 396.5077,542.41388 Z M 386.21484,572.53906 C 386.30814,572.56006 386.40508,572.60366 386.50781,572.66602 387.5397,573.29228 387.26184,575.27838 385.84766,577.375 384.4916,579.38552 383.99967,579.67999 384.24609,578.33398 384.33489,577.84873 384.56184,576.55259 384.75195,575.45312 385.12813,573.2771 385.56199,572.39195 386.21484,572.53906 Z"
       transform="scale(0.26458333)"
       id="path840"
       inkscape:connector-curvature="0" />
    <path
       style="fill:#e9a955;stroke-width:0.32000002"
       d="M 396.82812,540.59766 389.61523,553.77539 375.18555,556.14453 385.56445,567.0332 383.37109,581.4043 396.99805,574.95703 410.07227,581.46875 408.11523,566.59766 418.38867,556.25 403.55273,553.50586 Z M 396.82412,541.60156 C 397.14164,541.59756 397.13653,541.49945 397.35537,552.31445 397.45855,557.4175 397.61049,562.02384 397.69326,562.55078 397.82343,563.37925 397.75186,563.49715 397.16006,563.42383 396.47872,563.33963 393.5698,567.14299 386.51357,577.34375 384.52751,580.21479 383.86834,580.92617 383.8124,580.25977 383.8014,580.12794 384.36778,576.81729 385.07217,572.90234 L 386.35342,565.78516 389.85928,564.74023 C 393.88477,563.54122 395.43715,562.89465 395.42959,562.41602 395.42259,561.8924 392.8373,560.94898 388.73232,559.97266 383.59999,558.75194 376.78802,556.63665 376.7831,556.26172 376.7811,556.0924 376.92592,555.95164 377.10537,555.94922 377.2848,555.94722 380.1845,555.54787 383.54873,555.0625 387.76256,554.45456 389.83757,554.0206 390.2167,553.66797 390.5194,553.38647 392.0751,550.55755 393.67373,547.38086 395.27239,544.20413 396.68995,541.60338 396.82412,541.60156 Z M 401.3456,569.21094 C 401.50635,569.04581 403.22854,571.05734 403.23232,571.41602 403.23332,571.51582 403.00419,571.59974 402.72451,571.60352 402.16367,571.61152 400.9881,572.92894 401.21865,573.29102 401.29845,573.41638 401.82179,573.23152 402.38271,572.87891 402.94359,572.52647 403.56269,572.23376 403.75771,572.23047 404.12966,572.22447 409.42203,579.62756 409.42959,580.16406 409.43659,580.68995 409.07318,580.5351 405.18545,578.36523 399.42363,575.14946 399.6378,575.36757 399.5331,572.66211 399.4843,571.40081 399.5784,570.36551 399.74209,570.36328 399.90555,570.36128 400.40472,570.59273 400.85146,570.87695 401.96937,571.58815 402.64952,570.95955 401.77724,570.02148 401.44911,569.66867 401.25527,569.30391 401.3456,569.21094 Z M 400.64443,569.39258 C 400.82056,569.39058 400.96705,569.603 400.9706,569.86719 400.9746,570.13111 400.83228,570.34918 400.65615,570.35156 400.48002,570.35356 400.33353,570.14076 400.32998,569.87695 400.32598,569.61299 400.46831,569.39496 400.64443,569.39258 Z"
       transform="scale(0.26458333)"
       id="path838"
       inkscape:connector-curvature="0" />
    <path
       style="fill:#a7a29d;stroke-width:0.32000002"
       d="M 396.82812,540.59766 389.63867,553.73242 C 390.03767,553.59839 390.31977,553.46331 390.42969,553.30859 390.65865,552.98658 392.04791,550.33039 393.51758,547.40625 394.98725,544.48211 396.33162,541.90816 396.50586,541.68555 396.73535,541.39199 397.70331,543.01391 400.02734,547.58789 401.79008,551.05719 403.45273,553.97557 403.7207,554.07422 403.98882,554.17302 407.10905,554.68412 410.65625,555.20898 414.20345,555.73385 417.10741,556.2814 417.10938,556.42578 417.11138,556.57016 416.75178,556.69166 416.30859,556.69922 415.19915,556.71422 411.66917,557.75386 406.75,559.51758 400.62577,561.71333 399.48775,562.18387 399.36719,562.5625 399.23468,562.97878 401.09094,563.76076 404.74219,564.82617 407.31994,565.57834 407.48005,565.67734 407.58398,566.58008 407.64458,567.10615 408.22869,570.41194 408.88281,573.92773 409.1602,575.41863 409.39211,576.7121 409.5957,577.85547 L 408.11523,566.59766 418.38867,556.25 403.55273,553.50586 Z M 389.33008,553.82227 381.04688,555.18164 C 382.19481,555.01319 382.59132,554.94467 383.95312,554.75195 386.89555,554.33556 388.43066,554.07088 389.33008,553.82227 Z M 375.82617,556.03906 375.18555,556.14453 385.56445,567.0332 383.37109,581.4043 396.99805,574.95703 410.07227,581.46875 410.00977,580.98828 C 409.96727,581.05518 409.90887,581.09553 409.84375,581.0918 409.71162,581.0838 407.28073,579.79934 404.44336,578.23828 401.60599,576.67722 398.74666,575.1267 398.08789,574.79297 L 396.88867,574.1875 390.3125,577.66406 C 386.69493,579.57673 383.67407,581.08233 383.59961,581.00977 383.52511,580.93727 384.0307,577.742 384.72266,573.9082 385.61606,568.95952 385.89531,566.72074 385.68555,566.18945 385.52299,565.7779 383.22831,563.31629 380.58789,560.7207 Z M 387.04492,560.51562 C 386.5611,560.51362 386.29271,560.59942 386.05664,560.76953 385.43328,561.21884 385.6875,561.59598 386.89453,562.00977 387.45247,562.20105 387.44599,562.25036 386.77539,562.80859 386.38206,563.13609 386.16075,563.56153 386.2832,563.75391 386.58118,564.22174 390.83942,563.82021 392,563.21484 392.94549,562.72173 393.10973,562.09352 392.4375,561.55078 392.20449,561.36267 390.8036,561.01747 389.32422,560.78125 388.22702,560.60664 387.52874,560.51733 387.04492,560.51562 Z"
       transform="scale(0.26458333)"
       id="path836"
       inkscape:connector-curvature="0" />
    <path
       style="fill:#d2954c;stroke-width:0.32000002"
       d="M 396.82812,540.59766 389.63867,553.73242 C 390.03767,553.59839 390.31977,553.46331 390.42969,553.30859 390.65865,552.98658 392.04791,550.33039 393.51758,547.40625 394.98725,544.48211 396.33162,541.90816 396.50586,541.68555 396.73535,541.39199 397.70331,543.01391 400.02734,547.58789 401.79008,551.05719 403.45273,553.97557 403.7207,554.07422 403.98882,554.17302 407.10905,554.68412 410.65625,555.20898 414.20345,555.73385 417.10741,556.2814 417.10938,556.42578 417.11138,556.57016 416.75178,556.69166 416.30859,556.69922 415.19915,556.71422 411.66917,557.75386 406.75,559.51758 400.62577,561.71333 399.48775,562.18387 399.36719,562.5625 399.23468,562.97878 401.09094,563.76076 404.74219,564.82617 407.31994,565.57834 407.48005,565.67734 407.58398,566.58008 407.64458,567.10615 408.22869,570.41194 408.88281,573.92773 409.1602,575.41863 409.39211,576.7121 409.5957,577.85547 L 408.11523,566.59766 418.38867,556.25 403.55273,553.50586 Z M 389.33008,553.82227 381.04688,555.18164 C 382.19481,555.01319 382.59132,554.94467 383.95312,554.75195 386.89555,554.33556 388.43066,554.07088 389.33008,553.82227 Z M 375.82617,556.03906 375.18555,556.14453 385.56445,567.0332 383.37109,581.4043 396.99805,574.95703 410.07227,581.46875 410.00977,580.98828 C 409.96727,581.05518 409.90887,581.09553 409.84375,581.0918 409.71162,581.0838 407.28073,579.79934 404.44336,578.23828 401.60599,576.67722 398.74666,575.1267 398.08789,574.79297 L 396.88867,574.1875 390.3125,577.66406 C 386.69493,579.57673 383.67407,581.08233 383.59961,581.00977 383.52511,580.93727 384.0307,577.742 384.72266,573.9082 385.61606,568.95952 385.89531,566.72074 385.68555,566.18945 385.52299,565.7779 383.22831,563.31629 380.58789,560.7207 Z M 387.04492,560.51562 C 386.5611,560.51362 386.29271,560.59942 386.05664,560.76953 385.43328,561.21884 385.6875,561.59598 386.89453,562.00977 387.45247,562.20105 387.44599,562.25036 386.77539,562.80859 386.38206,563.13609 386.16075,563.56153 386.2832,563.75391 386.58118,564.22174 390.83942,563.82021 392,563.21484 392.94549,562.72173 393.10973,562.09352 392.4375,561.55078 392.20449,561.36267 390.8036,561.01747 389.32422,560.78125 388.22702,560.60664 387.52874,560.51733 387.04492,560.51562 Z"
       transform="scale(0.26458333)"
       id="path834"
       inkscape:connector-curvature="0" />
    <path
       style="fill:#8f7453;stroke-width:0.32000002"
       d="M 396.82812,540.59766 389.75,553.52734 C 390.18514,553.2385 391.58022,550.81671 393.43555,547.12109 395.13562,543.73471 396.6455,540.9629 396.79102,540.96094 396.91509,540.95894 398.17029,543.21127 399.63672,545.99023 Z M 404,553.58789 C 404.14977,553.72298 404.28643,553.81352 404.41406,553.84375 404.81335,553.93825 407.65786,554.38115 410.83203,554.85156 Z M 375.80273,556.04297 375.18555,556.14453 385.56445,567.0332 384.73633,572.46289 C 385.19956,569.73817 385.57135,567.37966 385.56836,567.0293 385.56236,566.42249 384.32238,564.98049 380.54297,561.17969 378.0929,558.71576 376.1276,556.5795 375.80273,556.04297 Z M 417.80859,556.14257 C 417.85839,556.16547 417.90599,556.18887 417.90629,556.20507 417.90829,556.37639 415.85082,558.54236 413.33207,561.01757 410.81332,563.49274 408.57277,565.86227 408.35356,566.28319 408.33446,566.31989 408.32276,566.36599 408.30666,566.40624 L 418.38867,556.25 Z M 408.19141,567.18358 C 408.19143,567.8055 408.33655,568.86411 408.64648,570.63476 Z M 397.11914,574.89452 C 396.81835,574.89052 393.73925,576.35315 390.25195,578.14843 L 396.99805,574.95702 407.76172,580.31835 C 406.62948,579.73624 405.20292,578.98301 403.64258,578.13671 400.36221,576.3575 397.42604,574.8983 397.11914,574.89452 Z M 409.46875,581.16796 410.07227,581.46874 410.06057,581.38084 C 410.04247,581.38384 410.02657,581.39774 410.00787,581.39644 409.96057,581.39344 409.73838,581.29379 409.46881,581.16793 Z M 383.37695,581.36327 383.37095,581.40427 383.37495,581.40227 C 383.37395,581.40027 383.37795,581.36727 383.37695,581.36317 Z"
       transform="scale(0.26458333)"
       id="path832"
       inkscape:connector-curvature="0" />
    <path
       style="fill:#93693a;stroke-width:0.32000002"
       d="M 396.82812,540.59766 396.67578,540.87695 C 396.74868,540.92605 396.82785,540.96015 396.92188,540.95895 396.95428,540.95851 396.97878,540.94675 397.00778,540.94135 Z M 392.08984,549.25391 390.15625,552.78711 C 390.61293,552.14415 391.18591,551.13355 391.89062,549.67969 391.97102,549.51391 392.01322,549.4138 392.08984,549.25391 Z M 403.99023,553.58594 C 404.14287,553.72266 404.28147,553.81236 404.41406,553.84375 404.81325,553.93825 407.65787,554.38115 410.83203,554.85156 Z M 375.86133,556.0332 375.18555,556.14453 385.56055,567.0293 C 385.55964,566.41773 384.35149,565.00971 380.54297,561.17969 378.05145,558.6741 376.20825,556.64022 375.86133,556.0332 Z M 417.80859,556.14258 C 417.85869,556.16558 417.90799,556.18878 417.90819,556.20508 417.91019,556.3764 415.85077,558.54237 413.33202,561.01758 410.81323,563.49275 408.57272,565.86228 408.35351,566.2832 408.33461,566.3195 408.32261,566.3645 408.30661,566.4043 L 418.38867,556.25 Z M 385.55078,567.11719 385.18359,569.5332 C 385.38593,568.40575 385.53652,567.46949 385.55078,567.11719 Z M 408.19141,567.18359 C 408.19142,567.80551 408.33654,568.86412 408.64648,570.63477 Z M 397.06055,574.88086 C 396.78212,574.88486 393.71372,576.35862 390.23828,578.15625 L 396.99805,574.95703 407.625,580.25 C 406.50538,579.6749 405.15775,578.97004 403.64258,578.15234 400.3017,576.34936 397.34023,574.87708 397.06055,574.88086 Z M 409.57227,581.21875 410.07227,581.46875 410.06627,581.42385 C 410.06427,581.42389 410.06427,581.42585 410.06227,581.42585 410.02427,581.42637 409.8079,581.32715 409.57204,581.21882 Z M 383.37305,581.39258 383.37105,581.40428 383.38105,581.40028 C 383.37805,581.39828 383.37605,581.39528 383.37305,581.39228 Z"
       transform="scale(0.26458333)"
       id="path830"
       inkscape:connector-curvature="0" />
    <path
       style="fill:#725c47;stroke-width:0.32000002"
       d="M 396.82812,540.59766 396.81642,540.61916 C 396.82442,540.62116 396.83322,540.62216 396.84182,540.62316 Z M 375.35938,556.11523 375.18555,556.14453 376.12109,557.125 C 375.74852,556.68903 375.46545,556.32924 375.35938,556.11523 Z M 418.23242,556.2207 C 418.17312,556.35741 418.00096,556.58552 417.83398,556.80859 L 418.38867,556.25 Z M 379.02344,560.16992 384.92383,566.36133 C 384.41375,565.55127 383.14148,564.22722 380.16992,561.31445 379.72325,560.87662 379.40494,560.5505 379.02344,560.16992 Z"
       transform="scale(0.26458333)"
       id="path828"
       inkscape:connector-curvature="0" />
    <path
       sodipodi:type="star"
       style="display:inline;opacity:1;fill:none;fill-opacity:1;fill-rule:nonzero;stroke:#000000;stroke-width:0.14;stroke-linecap:butt;stroke-linejoin:round;stroke-miterlimit:4;stroke-dasharray:none;stroke-opacity:1;paint-order:stroke fill markers"
       id="path909"
       sodipodi:sides="5"
       sodipodi:cx="105.00067"
       sodipodi:cy="149.03856"
       sodipodi:r1="6.0501204"
       sodipodi:r2="3.1585224"
       sodipodi:arg1="0.95762042"
       sodipodi:arg2="1.5640583"
       inkscape:flatsided="false"
       inkscape:rounded="0"
       inkscape:randomized="0"
       d="M 108.48232,153.9865 105.02195,152.19701 101.37079,153.8788 102.00338,150.03481 99.275634,147.08206 103.12696,146.49583 105.09228,142.98913 106.83994,146.47081 110.78233,147.25631 108.01111,149.99433 Z"
       inkscape:transform-center-x="0.0061880057"
       inkscape:transform-center-y="-0.39034692"
       transform="matrix(0.99320054,-0.01253571,0.01245966,0.98717584,-1.1652305,3.1952644)"
       inkscape:label="Border" />
  </g>
</svg>
