<?xml version="1.0" encoding="UTF-8" standalone="no"?>
<!-- Created with Inkscape (http://www.inkscape.org/) -->

<svg
   xmlns:dc="http://purl.org/dc/elements/1.1/"
   xmlns:cc="http://creativecommons.org/ns#"
   xmlns:rdf="http://www.w3.org/1999/02/22-rdf-syntax-ns#"
   xmlns:svg="http://www.w3.org/2000/svg"
   xmlns="http://www.w3.org/2000/svg"
   xmlns:sodipodi="http://sodipodi.sourceforge.net/DTD/sodipodi-0.dtd"
   xmlns:inkscape="http://www.inkscape.org/namespaces/inkscape"
   width="25.4254mm"
   height="25.4254mm"
   viewBox="0 0 25.4254 25.425399"
   version="1.1"
   id="svg8"
   inkscape:version="0.92.3 (2405546, 2018-03-11)"
   sodipodi:docname="Coin_Rodent.svg">
  <defs
     id="defs2" />
  <sodipodi:namedview
     id="base"
     pagecolor="#ffffff"
     bordercolor="#666666"
     borderopacity="1.0"
     inkscape:pageopacity="0.0"
     inkscape:pageshadow="2"
     inkscape:zoom="5.6"
     inkscape:cx="6.9388558"
     inkscape:cy="55.698336"
     inkscape:document-units="mm"
     inkscape:current-layer="layer1"
     showgrid="false"
     inkscape:window-width="1920"
     inkscape:window-height="1017"
     inkscape:window-x="-8"
     inkscape:window-y="-8"
     inkscape:window-maximized="1"
     fit-margin-top="0"
     fit-margin-left="0"
     fit-margin-right="0"
     fit-margin-bottom="0" />
  <metadata
     id="metadata5">
    <rdf:RDF>
      <cc:Work
         rdf:about="">
        <dc:format>image/svg+xml</dc:format>
        <dc:type
           rdf:resource="http://purl.org/dc/dcmitype/StillImage" />
        <dc:title />
      </cc:Work>
    </rdf:RDF>
  </metadata>
  <g
     inkscape:label="Rodent"
     inkscape:groupmode="layer"
     id="layer1"
     transform="translate(-44.91634,-33.41922)">
    <circle
       style="opacity:1;fill:#ffffff;fill-opacity:1;fill-rule:nonzero;stroke:#ff0000;stroke-width:0.0254;stroke-linecap:round;stroke-linejoin:round;stroke-miterlimit:4;stroke-dasharray:none;stroke-opacity:1;paint-order:stroke fill markers"
       id="path816"
       cx="57.62904"
       cy="46.13192"
       r="12.7"
       inkscape:label="Cut" />
    <path
       id="path915"
       style="opacity:1;fill:#000000;fill-opacity:1;stroke:#000000;stroke-width:0.0254;stroke-linecap:butt;stroke-linejoin:miter;stroke-miterlimit:4;stroke-dasharray:none;stroke-opacity:1"
       d="m 52.073184,43.600843 c -1.16769,0.775173 -3.876203,2.994829 -3.348068,3.127022 0.188168,0.0471 4.947308,1.064874 5.202938,1.344648 0.25563,0.279775 -0.711345,0.769123 -0.519577,0.97417 l 6.762353,0.292249 c 2.074515,-0.671765 2.933587,-1.653757 3.531367,-2.735788 1.039221,-0.134501 1.096488,-0.23545 2.240588,-0.154252 1.1441,0.0812 0.755123,1.074686 0,1.33136 -0.755123,0.256674 -1.631648,0.367286 -2.402948,0.722511 -0.908595,0.418452 -1.141116,0.680527 -1.274527,1.331361 -0.133411,0.650834 0.413752,1.406182 0.917332,1.583026 0.503573,0.176841 0.768371,-0.329699 0.554126,-0.568265 -0.21426,-0.238564 -0.629809,-0.347179 -0.673793,-0.600739 -0.04398,-0.25356 0.01733,-0.619543 0.712295,-0.966049 0.695272,-0.346504 2.483798,-0.377477 3.304043,-1.14465 0.820245,-0.767173 0.723847,-1.745141 -2.3e-5,-2.175639 -0.723862,-0.430497 -2.089058,-0.238131 -3.182288,-0.25978 0.123825,-1.785527 -3.045652,-6.235918 -8.399175,-2.175643 -0.356363,-0.06788 -1.051613,-0.0965 -1.934903,0.183683 0.103613,-0.509659 0.212453,-0.973849 -0.04995,-1.178513 -0.897675,0.297925 -1.18005,0.629357 -1.439857,1.069275 z"
       inkscape:connector-curvature="0"
       sodipodi:nodetypes="cszccczzszzzzzzzcccccc"
       inkscape:label="Rodent" />
  </g>
</svg>
