<?xml version="1.0" encoding="UTF-8" standalone="no"?>
<!-- Created with Inkscape (http://www.inkscape.org/) -->

<svg
   xmlns:dc="http://purl.org/dc/elements/1.1/"
   xmlns:cc="http://creativecommons.org/ns#"
   xmlns:rdf="http://www.w3.org/1999/02/22-rdf-syntax-ns#"
   xmlns:svg="http://www.w3.org/2000/svg"
   xmlns="http://www.w3.org/2000/svg"
   xmlns:sodipodi="http://sodipodi.sourceforge.net/DTD/sodipodi-0.dtd"
   xmlns:inkscape="http://www.inkscape.org/namespaces/inkscape"
   width="25.424999mm"
   height="25.424999mm"
   viewBox="0 0 25.424999 25.425"
   version="1.1"
   id="svg8"
   inkscape:version="0.92.3 (2405546, 2018-03-11)"
   sodipodi:docname="Coin_Fish.svg">
  <defs
     id="defs2" />
  <sodipodi:namedview
     id="base"
     pagecolor="#ffffff"
     bordercolor="#666666"
     borderopacity="1.0"
     inkscape:pageopacity="0.0"
     inkscape:pageshadow="2"
     inkscape:zoom="7.919596"
     inkscape:cx="2.1765026"
     inkscape:cy="53.030062"
     inkscape:document-units="mm"
     inkscape:current-layer="layer1"
     showgrid="false"
     inkscape:window-width="1920"
     inkscape:window-height="1017"
     inkscape:window-x="-8"
     inkscape:window-y="-8"
     inkscape:window-maximized="1"
     fit-margin-top="0"
     fit-margin-left="0"
     fit-margin-right="0.3"
     fit-margin-bottom="0"
     showguides="false">
    <inkscape:grid
       type="xygrid"
       id="grid818" />
  </sodipodi:namedview>
  <metadata
     id="metadata5">
    <rdf:RDF>
      <cc:Work
         rdf:about="">
        <dc:format>image/svg+xml</dc:format>
        <dc:type
           rdf:resource="http://purl.org/dc/dcmitype/StillImage" />
        <dc:title />
      </cc:Work>
    </rdf:RDF>
  </metadata>
  <g
     inkscape:label="Fish"
     inkscape:groupmode="layer"
     id="layer1"
     transform="translate(-14.579731,-6.9304083)">
    <circle
       style="opacity:1;fill:#ffffff;fill-opacity:1;fill-rule:nonzero;stroke:#ff0000;stroke-width:0.025;stroke-linecap:round;stroke-linejoin:round;stroke-miterlimit:4;stroke-dasharray:none;stroke-opacity:1;paint-order:stroke fill markers"
       id="path816"
       cx="27.292231"
       cy="19.642908"
       r="12.7"
       inkscape:label="Cut" />
    <path
       style="opacity:1;fill:#000000;fill-opacity:1;fill-rule:nonzero;stroke:#ff0000;stroke-width:0.09448819;stroke-linecap:butt;stroke-linejoin:round;stroke-miterlimit:4;stroke-dasharray:none;stroke-opacity:1;paint-order:stroke fill markers"
       d="m 59.998047,30.443359 c -7.096544,-0.06947 -16.096611,2.987602 -27.412109,11.642579 -4.364399,-0.01134 -9.675807,-2.259349 -14.384766,-3.705079 -0.780401,-0.115842 -6.915155,-2.61701 -0.08594,9.044922 0.178394,2.618967 -7.977487,5.465111 -5.599609,8.699219 2.377875,3.234138 17.066234,-3.573782 18.779297,-4.134766 1.197056,1.909304 4.858451,6.582736 10.548828,9.66211 8.319666,4.50223 20.742632,6.57981 33.599609,-1.277344 4.293109,-2.623604 6.017591,-5.443123 8.56836,-9.417969 -0.170762,0.25617 -5.878061,-20.336147 -24.013672,-20.513672 z m 12.607422,15.269532 a 2.9041886,2.9041886 0 0 1 2.904297,2.904297 2.9041886,2.9041886 0 0 1 -2.904297,2.904296 2.9041886,2.9041886 0 0 1 -2.904297,-2.904296 2.9041886,2.9041886 0 0 1 2.904297,-2.904297 z"
       transform="matrix(0.26458333,0,0,0.26458333,14.579731,6.9304083)"
       id="path841"
       inkscape:connector-curvature="0" />
  </g>
</svg>
