<?xml version="1.0" encoding="UTF-8" standalone="no"?>
<!-- Created with Inkscape (http://www.inkscape.org/) -->

<svg
   xmlns:dc="http://purl.org/dc/elements/1.1/"
   xmlns:cc="http://creativecommons.org/ns#"
   xmlns:rdf="http://www.w3.org/1999/02/22-rdf-syntax-ns#"
   xmlns:svg="http://www.w3.org/2000/svg"
   xmlns="http://www.w3.org/2000/svg"
   xmlns:sodipodi="http://sodipodi.sourceforge.net/DTD/sodipodi-0.dtd"
   xmlns:inkscape="http://www.inkscape.org/namespaces/inkscape"
   width="1.00098in"
   height="1.0009842in"
   viewBox="0 0 25.424894 25.425"
   version="1.1"
   id="svg8"
   inkscape:version="0.92.3 (2405546, 2018-03-11)"
   sodipodi:docname="Coin_Berries.svg">
  <defs
     id="defs2" />
  <sodipodi:namedview
     id="base"
     pagecolor="#ffffff"
     bordercolor="#666666"
     borderopacity="1.0"
     inkscape:pageopacity="0.0"
     inkscape:pageshadow="2"
     inkscape:zoom="5.6"
     inkscape:cx="27.646063"
     inkscape:cy="38.812762"
     inkscape:document-units="mm"
     inkscape:current-layer="layer1"
     showgrid="false"
     inkscape:window-width="1920"
     inkscape:window-height="1017"
     inkscape:window-x="-8"
     inkscape:window-y="-8"
     inkscape:window-maximized="1"
     fit-margin-top="0"
     fit-margin-left="0"
     fit-margin-right="0"
     fit-margin-bottom="0"
     units="in" />
  <metadata
     id="metadata5">
    <rdf:RDF>
      <cc:Work
         rdf:about="">
        <dc:format>image/svg+xml</dc:format>
        <dc:type
           rdf:resource="http://purl.org/dc/dcmitype/StillImage" />
        <dc:title></dc:title>
      </cc:Work>
    </rdf:RDF>
  </metadata>
  <g
     inkscape:label="Berries"
     inkscape:groupmode="layer"
     id="layer1"
     transform="translate(-48.965883,-9.6178426)">
    <circle
       style="opacity:1;fill:#ffffff;fill-opacity:1;fill-rule:nonzero;stroke:#f50000;stroke-width:0.025;stroke-linecap:round;stroke-linejoin:round;stroke-miterlimit:4;stroke-dasharray:none;stroke-opacity:1;paint-order:stroke fill markers"
       id="path816"
       cx="61.678383"
       cy="22.330343"
       r="12.7"
       inkscape:label="Cut" />
    <path
       id="path896"
       style="opacity:1;fill:#000000;fill-opacity:1;fill-rule:nonzero;stroke:#ff0000;stroke-width:0.0254;stroke-linecap:butt;stroke-linejoin:round;stroke-miterlimit:4;stroke-dasharray:none;stroke-opacity:1;paint-order:stroke fill markers"
       d="m 61.974087,26.73149 a 3.0945877,2.6901161 0 0 1 -3.094589,2.690117 3.0945877,2.6901161 0 0 1 -3.094587,-2.690117 3.0945877,2.6901161 0 0 1 3.094587,-2.690117 3.0945877,2.6901161 0 0 1 3.094589,2.690117 z m 8.358567,-2.171544 a 3.7007441,3.2411034 0 0 1 -3.700744,3.241101 3.7007441,3.2411034 0 0 1 -3.700744,-3.241101 3.7007441,3.2411034 0 0 1 3.700744,-3.241105 3.7007441,3.2411034 0 0 1 3.700744,3.241105 z m -4.179266,-5.6071 a 3.3498112,2.9169932 0 0 1 -3.34981,2.916993 3.3498112,2.9169932 0 0 1 -3.349811,-2.916993 3.3498112,2.9169932 0 0 1 3.349811,-2.916993 3.3498112,2.9169932 0 0 1 3.34981,2.916993 z m -7.497213,5.801575 c 0,0 0.717055,-1.834654 0.519793,-1.971175 -1.103358,-0.763601 -3.44091,-3.649477 -4.029119,-6.682571 -0.120283,-1.061286 1.572587,-1.233092 1.690857,0 0.31934,2.780016 0.913831,3.598398 1.18041,3.759682 0.526381,0.318466 3.551506,-0.205993 3.541227,-0.226876 l -0.0319,0.93992 c 0.03894,0.01901 -2.52758,-0.181378 -2.743652,0.356522 -0.177351,0.441515 4.119875,3.127405 4.689732,2.657701 l -0.127617,0.907512 c -1.39311,-0.03504 -3.381716,-1.166801 -3.381716,-1.166801 -0.322429,0.463772 -0.606158,1.588146 -0.606158,1.588146 z"
       inkscape:connector-curvature="0"
       inkscape:label="Berries" />
  </g>
</svg>
