<?xml version="1.0" encoding="UTF-8" standalone="no"?>
<svg
   xmlns:dc="http://purl.org/dc/elements/1.1/"
   xmlns:cc="http://creativecommons.org/ns#"
   xmlns:rdf="http://www.w3.org/1999/02/22-rdf-syntax-ns#"
   xmlns:svg="http://www.w3.org/2000/svg"
   xmlns="http://www.w3.org/2000/svg"
   xmlns:sodipodi="http://sodipodi.sourceforge.net/DTD/sodipodi-0.dtd"
   xmlns:inkscape="http://www.inkscape.org/namespaces/inkscape"
   width="18in"
   height="12in"
   viewBox="0 0 457.2 304.80001"
   version="1.1"
   id="svg8"
   inkscape:version="1.0 (4035a4fb49, 2020-05-01)"
   sodipodi:docname="HOME-E.svg">
  <defs
     id="defs2" />
  <sodipodi:namedview
     units="in"
     id="base"
     pagecolor="#ffffff"
     bordercolor="#666666"
     borderopacity="1.0"
     inkscape:pageopacity="0.0"
     inkscape:pageshadow="2"
     inkscape:zoom="0.32624775"
     inkscape:cx="607.74483"
     inkscape:cy="715.41862"
     inkscape:document-units="mm"
     inkscape:current-layer="layer1"
     inkscape:document-rotation="0"
     showgrid="false"
     inkscape:snap-global="true" />
  <metadata
     id="metadata5">
    <rdf:RDF>
      <cc:Work
         rdf:about="">
        <dc:format>image/svg+xml</dc:format>
        <dc:type
           rdf:resource="http://purl.org/dc/dcmitype/StillImage" />
        <dc:title></dc:title>
      </cc:Work>
    </rdf:RDF>
  </metadata>
  <g
     inkscape:label="Layer 1"
     inkscape:groupmode="layer"
     id="layer1">
    <g
       transform="matrix(16.082621,0,0,16.082621,-1798.9804,-1368.0991)"
       id="g857">
      <path
         id="path1879"
         style="font-style:normal;font-variant:normal;font-weight:normal;font-stretch:normal;font-size:25.4px;line-height:1;font-family:Lovelo;-inkscape-font-specification:Lovelo;letter-spacing:0px;word-spacing:0px;fill:#ffffff;fill-opacity:1;stroke:#ff0000;stroke-width:0.00146653;stroke-miterlimit:4;stroke-dasharray:none;stroke-opacity:1"
         d="M 121.76693,103.5975 V 99.965304 H 116.00113 V 96.333104 H 120.77633 V 92.700904 H 116.00113 V 89.068704 H 121.46213 V 85.436504 H 112.36893 V 103.5975 Z"
         inkscape:label="E Cut" />
      <path
         d="M 112.89844,103.06836 C 115.67839,103.06836 118.45833,103.06836 121.23828,103.06836 121.23828,102.21029 121.23828,101.35221 121.23828,100.49414 119.31641,100.49414 117.39453,100.49414 115.47266,100.49414 115.47266,98.93099 115.47266,97.367839 115.47266,95.804688 117.0638,95.804687 118.65495,95.804688 120.24609,95.804688 120.24609,94.946615 120.24609,94.088542 120.24609,93.230469 118.65495,93.230469 117.0638,93.230469 115.47266,93.230469 115.47266,91.666667 115.47266,90.102865 115.47266,88.539062 117.29297,88.539063 119.11328,88.539062 120.93359,88.539062 120.93359,87.68099 120.93359,86.822917 120.93359,85.964844 118.25521,85.964844 115.57682,85.964844 112.89844,85.964844 112.89844,91.666016 112.89844,97.367187 112.89844,103.06836 Z"
         inkscape:label="E Engrave"
         style="font-style:normal;font-variant:normal;font-weight:normal;font-stretch:normal;font-size:25.4px;line-height:1;font-family:Lovelo;-inkscape-font-specification:Lovelo;letter-spacing:0px;word-spacing:0px;fill:none;fill-opacity:1;stroke:#000000;stroke-width:0.293306;stroke-miterlimit:4;stroke-dasharray:none;stroke-opacity:1"
         id="path1873" />
    </g>
    <g
       id="g849"
       transform="matrix(15.838945,0,0,15.838945,-1287.0336,-1341.8156)">
      <path
         inkscape:label="M Cut"
         d="M 101.2087,93.132704 94.045905,85.157104 H 92.877505 V 103.5975 H 96.560505 V 93.462904 L 101.2087,98.339704 105.8569,93.462904 105.8315,103.5975 H 109.5145 V 85.157104 H 108.3715 Z"
         style="font-style:normal;font-variant:normal;font-weight:normal;font-stretch:normal;font-size:25.4px;line-height:1;font-family:Lovelo;-inkscape-font-specification:Lovelo;letter-spacing:0px;word-spacing:0px;fill:#ffffff;fill-opacity:1;stroke:#ff0000;stroke-width:0.00148908;stroke-miterlimit:4;stroke-dasharray:none;stroke-opacity:1"
         id="path1883"
         sodipodi:nodetypes="ccccccccccccc" />
      <path
         id="path1867"
         style="font-style:normal;font-variant:normal;font-weight:normal;font-stretch:normal;font-size:25.4px;line-height:1;font-family:Lovelo;-inkscape-font-specification:Lovelo;letter-spacing:0px;word-spacing:0px;fill:none;fill-opacity:1;stroke:#000000;stroke-width:0.297817;stroke-miterlimit:4;stroke-dasharray:none;stroke-opacity:1"
         inkscape:label="M Engrave"
         d="M 93.40625,103.06836 H 96.03125 V 92.140625 C 97.756962,93.951362 99.483087,95.761705 101.20898,97.572266 102.9362,95.760414 104.66345,93.948603 106.39062,92.136719 106.38028,95.780596 106.37255,99.42448 106.36328,103.06836 H 108.98438 C 108.98438,97.274089 108.98437,91.479818 108.98438,85.685547 L 108.57875,85.684997 C 106.44665,88.059702 103.34106,91.551052 101.20898,93.925781 98.742872,91.179007 96.276688,88.432296 93.810547,85.685547 L 93.40625,85.684824 Z"
         sodipodi:nodetypes="ccccccccccccc" />
    </g>
  </g>
</svg>
