<?xml version="1.0" encoding="UTF-8" standalone="no"?>
<!-- Created with Inkscape (http://www.inkscape.org/) -->

<svg
   xmlns:dc="http://purl.org/dc/elements/1.1/"
   xmlns:cc="http://creativecommons.org/ns#"
   xmlns:rdf="http://www.w3.org/1999/02/22-rdf-syntax-ns#"
   xmlns:svg="http://www.w3.org/2000/svg"
   xmlns="http://www.w3.org/2000/svg"
   xmlns:sodipodi="http://sodipodi.sourceforge.net/DTD/sodipodi-0.dtd"
   xmlns:inkscape="http://www.inkscape.org/namespaces/inkscape"
   width="9cm"
   height="9cm"
   viewBox="0 0 90.000002 89.999998"
   version="1.1"
   id="svg8"
   inkscape:version="0.92.3 (2405546, 2018-03-11)"
   sodipodi:docname="PowerDial_Square_back.svg">
  <defs
     id="defs2">
    <filter
       style="color-interpolation-filters:sRGB;"
       inkscape:label="Invert"
       id="filter883">
      <feColorMatrix
         type="hueRotate"
         values="180"
         result="color1"
         id="feColorMatrix879" />
      <feColorMatrix
         values="-1 0 0 0 1 0 -1 0 0 1 0 0 -1 0 1 -0.21 -0.72 -0.07 2 0 "
         result="color2"
         id="feColorMatrix881" />
    </filter>
  </defs>
  <sodipodi:namedview
     id="base"
     pagecolor="#ffffff"
     bordercolor="#666666"
     borderopacity="1.0"
     inkscape:pageopacity="0.0"
     inkscape:pageshadow="2"
     inkscape:zoom="2.2338093"
     inkscape:cx="76.061877"
     inkscape:cy="168.8532"
     inkscape:document-units="mm"
     inkscape:current-layer="layer2"
     showgrid="false"
     units="cm"
     inkscape:window-width="1920"
     inkscape:window-height="1017"
     inkscape:window-x="-8"
     inkscape:window-y="-8"
     inkscape:window-maximized="1"
     inkscape:snap-nodes="true" />
  <metadata
     id="metadata5">
    <rdf:RDF>
      <cc:Work
         rdf:about="">
        <dc:format>image/svg+xml</dc:format>
        <dc:type
           rdf:resource="http://purl.org/dc/dcmitype/StillImage" />
        <dc:title />
      </cc:Work>
    </rdf:RDF>
  </metadata>
  <g
     inkscape:groupmode="layer"
     id="layer2"
     inkscape:label="Layer 2"
     transform="translate(0,-207.00001)">
    <g
       id="g5270"
       inkscape:label="Border"
       transform="matrix(0.97417159,0,0,0.97417432,1.1622784,6.5079504)"
       style="fill:#000011;fill-opacity:1">
      <path
         inkscape:label="Edge"
         inkscape:connector-curvature="0"
         d="m 0.03257205,296.2843 v 0.68281 H 89.967102 V 296.2843 Z M 89.198545,207.03283 v 89.93428 h 0.768557 v -89.93428 z m -89.16597295,0 v 0.68334 H 89.967102 v -0.68334 z m 0,0 v 89.93428 h 0.76855642 v -89.93428 z"
         style="display:inline;opacity:1;fill:#000011;fill-opacity:1;stroke:none;stroke-width:0.04232064;stroke-linecap:butt;stroke-linejoin:miter;stroke-miterlimit:4;stroke-dasharray:none;stroke-opacity:1"
         id="path3397" />
      <path
         id="path5255"
         style="display:inline;opacity:1;fill:#000011;fill-opacity:1;stroke:none;stroke-width:0.04551603;stroke-miterlimit:4;stroke-dasharray:none;stroke-opacity:1"
         d="m 0.02275801,215.54498 c 0,-5.8685 0.01485,-8.13973 0.05415,-8.20922 0.02974,-0.0529 0.111853,-0.14447 0.182416,-0.20347 l 0.128285,-0.10727 8.13583499,-0.001 8.135845,-0.001 v 0.34658 0.34659 h -3.249906 c -2.526371,0 -3.267064,0.0134 -3.326992,0.0577 -0.04239,0.0317 -0.17968,0.25906 -0.305064,0.50505 -0.236325,0.46371 -0.45352,0.72126 -0.721061,0.85515 -0.180389,0.0902 -0.701648,0.0953 -0.874323,0.008 -0.216835,-0.10893 -0.435239,-0.2916 -0.478688,-0.40016 -0.06723,-0.16804 0.03141,-0.45019 0.196529,-0.56186 0.221449,-0.1498 0.248679,-0.12661 0.214675,0.18251 -0.02764,0.25128 -0.02185,0.27735 0.06151,0.27792 0.05063,3.5e-4 0.135959,0.0117 0.189597,0.0255 0.138044,0.0352 0.315954,-0.13579 0.315954,-0.30363 0,-0.15381 -0.227296,-0.42781 -0.442606,-0.53359 -0.08715,-0.0429 -0.281834,-0.0667 -0.540037,-0.0666 -0.329952,3.5e-4 -0.448193,0.0212 -0.646959,0.1141 -0.133773,0.0626 -0.266135,0.11428 -0.294139,0.11511 -0.02799,0.001 -0.09365,0.0322 -0.145935,0.0697 -0.19556,0.14063 -0.766024,0.48623 -0.802487,0.48623 -0.07617,0 -0.270042,0.26535 -0.339061,0.46401 -0.03895,0.11211 -0.160481,0.29284 -0.26998,0.40142 -0.178785,0.17725 -0.222346,0.19742 -0.426369,0.19742 -0.253744,0 -0.28809,-0.0459 -0.104313,-0.1393 0.146535,-0.0744 0.189585,-0.20921 0.156377,-0.48916 -0.03984,-0.33586 -0.292077,-0.51469 -0.477486,-0.33855 -0.07757,0.0737 -0.09347,0.15464 -0.09252,0.47025 8.77e-4,0.34655 0.02457,0.50195 0.122846,0.8087 0.02377,0.0744 0.01335,0.10392 -0.03685,0.10392 -0.196544,0 -0.504409,-0.58552 -0.556429,-1.05827 -0.03405,-0.30928 0.05792,-0.60007 0.284791,-0.90108 0.238089,-0.31584 0.278613,-0.30501 -1.141057,-0.30483 -1.192105,1.7e-4 -1.287556,0.007 -1.43686,0.0928 -0.173073,0.10026 -0.42158,0.35091 -0.55757399,0.56244 -0.120911,0.18805 -0.11669,0.81416 0.008,1.15791 0.11437199,0.31583 0.50746199,0.89189 0.67965699,0.99604 0.382234,0.23119 0.915208,0.63073 1.364078,1.02255 0.530859,0.46338 0.804446,0.81135 1.103338,1.40326 0.09255,0.18332 0.188817,0.36841 0.213898,0.41133 0.08004,0.13696 0.243089,0.78788 0.243089,0.97043 0,0.14947 -0.01585,0.17613 -0.104763,0.17613 -0.05767,0 -0.227268,-0.0565 -0.376997,-0.12578 -0.222388,-0.10277 -0.355329,-0.12896 -0.72597,-0.1433 -0.427554,-0.0167 -0.471379,-0.008 -0.759728,0.12561 -0.318447,0.14897 -0.754133,0.526 -0.973155,0.84228 -0.06818,0.0984 -0.178739,0.25815 -0.245626,0.35484 -0.06688,0.0968 -0.121612,0.19048 -0.121612,0.20846 0,0.018 -0.04109,0.12078 -0.09142,0.22858 -0.28495899,0.61064 -0.29284999,0.64399 -0.30419499,1.28546 -0.01234,0.705 0.03518,0.90859 0.26761899,1.14459 0.146502,0.14864 0.163251,0.15381 0.437453,0.13096 0.219727,-0.0182 0.325448,-0.0547 0.460968,-0.15882 0.208429,-0.16031 0.239846,-0.24889 0.24627,-0.69474 0.0053,-0.37746 -0.08801,-0.5592 -0.33815,-0.65762 -0.260711,-0.10259 -0.436055,0.0901 -0.43457,0.47766 8.76e-4,0.27415 0.04931,0.32762 0.261474,0.2898 0.187461,-0.0334 0.214883,0.001 0.125482,0.16031 -0.142231,0.25248 -0.558552,0.26888 -0.746744,0.0295 -0.15319099,-0.19493 -0.13605799,-0.66925 0.0366,-1.01183 0.172974,-0.34325 0.366562,-0.49891 0.620471,-0.49891 0.380896,0 0.62287,0.23166 0.826851,0.79156 0.08715,0.23915 0.09981,0.35067 0.07617,0.66898 -0.03108,0.41865 -0.124331,0.64211 -0.386179,0.9254 -0.326035,0.35276 -1.026498,0.50959 -1.31457299,0.29433 -0.068,-0.0509 -0.13666,-0.0924 -0.152491,-0.0924 -0.01585,0 -0.02888,1.01897 -0.02888,2.26437 v 2.26436 h -0.389169 -0.38915 z M 1.048929,214.56601 c 0.0854,-0.12077 0.227934,-0.29238 0.316785,-0.38148 l 0.161549,-0.16198 -0.08012,-0.23081 c -0.102394,-0.29503 -0.432221,-0.92399 -0.48452399,-0.92399 -0.02202,0 -0.0544,0.10393 -0.0721,0.23106 -0.0365,0.26215 -0.0524,1.68672 -0.01878,1.68672 0.01218,0 0.09184,-0.0987 0.17722499,-0.21952 z m 2.197919,-1.256 c 0.06204,-0.055 -0.442752,-0.74672 -0.737365,-1.01047 -0.150372,-0.13462 -0.466158,-0.37162 -0.701753,-0.52671 -0.235612,-0.15515 -0.536604,-0.37442 -0.668881,-0.48739 l -0.24048299,-0.20539 v 0.27387 0.27387 L 1.163421,211.8012 c 0.409503,0.26793 0.835755,0.80614 1.193932,1.50747 l 0.107198,0.20986 0.372235,-0.0874 c 0.204715,-0.0482 0.389256,-0.10259 0.410071,-0.12111 z m -0.208101,-2.12182 c 0,-0.0215 0.04247,-0.0756 0.09437,-0.12028 0.178634,-0.15364 0.32395,-0.76003 0.199599,-0.83305 -0.02554,-0.015 -0.03336,-0.0631 -0.01713,-0.1066 0.06925,-0.18725 -0.07547,0.0285 -0.154509,0.23026 -0.09038,0.23085 -0.181944,0.33161 -0.343641,0.37825 -0.09479,0.0274 -0.09986,0.01 -0.102261,-0.35267 -0.0027,-0.41423 -0.109184,-0.86735 -0.261132,-1.11204 -0.124398,-0.20029 -0.486782,-0.44631 -0.707522,-0.48033 -0.131404,-0.0202 -0.207312,-0.002 -0.314152,0.0722 -0.278572,0.19565 -0.327916,0.0607 -0.101694,-0.27815 0.234404,-0.35114 0.719901,-0.51226 1.236572,-0.41035 0.478187,0.0943 0.90716,0.56404 1.206995,1.3217 0.08128,0.20539 0.109517,0.37909 0.112187,0.69034 0.0035,0.37183 -0.0093,0.43342 -0.118009,0.5811 -0.151923,0.20644 -0.498591,0.45866 -0.630339,0.45866 -0.05458,0 -0.09932,-0.0175 -0.09932,-0.039 z m -3.01598899,77.2671 c 0,5.8685 0.01485,8.13973 0.05415,8.20922 0.02974,0.0529 0.111853,0.14447 0.182416,0.20347 l 0.128285,0.10727 8.13583499,10e-4 8.135845,0.001 v -0.34658 -0.34659 h -3.249906 c -2.526371,0 -3.267064,-0.0134 -3.326992,-0.0577 -0.04239,-0.0317 -0.17968,-0.25906 -0.305064,-0.50505 -0.236325,-0.46371 -0.45352,-0.72126 -0.721061,-0.85515 -0.180389,-0.0902 -0.701648,-0.0953 -0.874323,-0.008 -0.216835,0.10893 -0.435239,0.2916 -0.478688,0.40016 -0.06723,0.16804 0.03141,0.45019 0.196529,0.56186 0.221449,0.1498 0.248679,0.12661 0.214675,-0.18251 -0.02764,-0.25128 -0.02185,-0.27735 0.06151,-0.27792 0.05063,-3.5e-4 0.135959,-0.0117 0.189597,-0.0255 0.138044,-0.0352 0.315954,0.13579 0.315954,0.30363 0,0.15381 -0.227296,0.42781 -0.442606,0.53359 -0.08715,0.0429 -0.281834,0.0667 -0.540037,0.0666 -0.329952,-3.5e-4 -0.448193,-0.0212 -0.646959,-0.1141 -0.133773,-0.0626 -0.266135,-0.11428 -0.294139,-0.11511 -0.02799,-10e-4 -0.09365,-0.0322 -0.145935,-0.0697 -0.19556,-0.14063 -0.766024,-0.48623 -0.802487,-0.48623 -0.07617,0 -0.270042,-0.26535 -0.339061,-0.46401 -0.03895,-0.11211 -0.160481,-0.29284 -0.26998,-0.40142 -0.178785,-0.17725 -0.222346,-0.19742 -0.426369,-0.19742 -0.253744,0 -0.28809,0.0459 -0.104313,0.1393 0.146535,0.0744 0.189585,0.20921 0.156377,0.48916 -0.03984,0.33586 -0.292077,0.51469 -0.477486,0.33855 -0.07757,-0.0737 -0.09347,-0.15464 -0.09252,-0.47025 8.77e-4,-0.34655 0.02457,-0.50195 0.122846,-0.8087 0.02377,-0.0744 0.01335,-0.10392 -0.03685,-0.10392 -0.196544,0 -0.504409,0.58552 -0.556429,1.05827 -0.03405,0.30928 0.05792,0.60007 0.284791,0.90108 0.238089,0.31584 0.278613,0.30501 -1.141057,0.30483 -1.192105,-1.7e-4 -1.287556,-0.007 -1.43686,-0.0928 -0.173073,-0.10026 -0.42158,-0.35091 -0.55757399,-0.56244 -0.120911,-0.18805 -0.11669,-0.81416 0.008,-1.15791 0.11437199,-0.31583 0.50746199,-0.89189 0.67965699,-0.99604 0.382234,-0.23119 0.915208,-0.63073 1.364078,-1.02255 0.530859,-0.46338 0.804446,-0.81135 1.103338,-1.40326 0.09255,-0.18332 0.188817,-0.36841 0.213898,-0.41133 0.08004,-0.13696 0.243089,-0.78788 0.243089,-0.97043 0,-0.14947 -0.01585,-0.17613 -0.104763,-0.17613 -0.05767,0 -0.227268,0.0565 -0.376997,0.12578 -0.222388,0.10277 -0.355329,0.12896 -0.72597,0.1433 -0.427554,0.0167 -0.471379,0.008 -0.759728,-0.12561 -0.318447,-0.14897 -0.754133,-0.526 -0.973155,-0.84228 -0.06818,-0.0984 -0.178739,-0.25815 -0.245626,-0.35484 -0.06688,-0.0968 -0.121612,-0.19048 -0.121612,-0.20846 0,-0.018 -0.04109,-0.12078 -0.09142,-0.22858 -0.28495899,-0.61064 -0.29284999,-0.64399 -0.30419499,-1.28546 -0.01234,-0.705 0.03518,-0.90859 0.26761899,-1.14459 0.146502,-0.14864 0.163251,-0.15381 0.437453,-0.13096 0.219727,0.0182 0.325448,0.0547 0.460968,0.15882 0.208429,0.16031 0.239846,0.24889 0.24627,0.69474 0.0053,0.37746 -0.08801,0.5592 -0.33815,0.65762 -0.260711,0.10259 -0.436055,-0.0901 -0.43457,-0.47766 8.76e-4,-0.27415 0.04931,-0.32762 0.261474,-0.2898 0.187461,0.0334 0.214883,-10e-4 0.125482,-0.16031 -0.142231,-0.25248 -0.558552,-0.26888 -0.746744,-0.0295 -0.15319099,0.19493 -0.13605799,0.66925 0.0366,1.01183 0.172974,0.34325 0.366562,0.49891 0.620471,0.49891 0.380896,0 0.62287,-0.23166 0.826851,-0.79156 0.08715,-0.23915 0.09981,-0.35067 0.07617,-0.66898 -0.03108,-0.41865 -0.124331,-0.64211 -0.386179,-0.9254 -0.326035,-0.35276 -1.026498,-0.50959 -1.31457299,-0.29433 -0.068,0.0509 -0.13666,0.0924 -0.152491,0.0924 -0.01585,0 -0.02888,-1.01897 -0.02888,-2.26437 v -2.26436 h -0.389169 -0.38915 z m 1.02617099,0.97897 c 0.0854,0.12077 0.227934,0.29238 0.316785,0.38148 l 0.161549,0.16198 -0.08012,0.23081 c -0.102394,0.29503 -0.432221,0.92399 -0.48452399,0.92399 -0.02202,0 -0.0544,-0.10393 -0.0721,-0.23106 -0.0365,-0.26215 -0.0524,-1.68672 -0.01878,-1.68672 0.01218,0 0.09184,0.0987 0.17722499,0.21952 z m 2.197919,1.256 c 0.06204,0.055 -0.442752,0.74672 -0.737365,1.01047 -0.150372,0.13462 -0.466158,0.37162 -0.701753,0.52671 -0.235612,0.15515 -0.536604,0.37442 -0.668881,0.48739 l -0.24048299,0.20539 v -0.27387 -0.27387 L 1.163421,292.19907 c 0.409503,-0.26793 0.835755,-0.80614 1.193932,-1.50747 l 0.107198,-0.20986 0.372235,0.0874 c 0.204715,0.0482 0.389256,0.10259 0.410071,0.12111 z m -0.208101,2.12182 c 0,0.0215 0.04247,0.0756 0.09437,0.12028 0.178634,0.15364 0.32395,0.76003 0.199599,0.83305 -0.02554,0.015 -0.03336,0.0631 -0.01713,0.1066 0.06925,0.18725 -0.07547,-0.0285 -0.154509,-0.23026 -0.09038,-0.23085 -0.181944,-0.33161 -0.343641,-0.37825 -0.09479,-0.0274 -0.09986,-0.01 -0.102261,0.35267 -0.0027,0.41423 -0.109184,0.86735 -0.261132,1.11204 -0.124398,0.20029 -0.486782,0.44631 -0.707522,0.48033 -0.131404,0.0202 -0.207312,0.002 -0.314152,-0.0722 -0.278572,-0.19565 -0.327916,-0.0607 -0.101694,0.27815 0.234404,0.35114 0.719901,0.51226 1.236572,0.41035 0.478187,-0.0943 0.90716,-0.56404 1.206995,-1.3217 0.08128,-0.20539 0.109517,-0.37909 0.112187,-0.69034 0.0035,-0.37183 -0.0093,-0.43342 -0.118009,-0.5811 -0.151923,-0.20644 -0.498591,-0.45866 -0.630339,-0.45866 -0.05458,0 -0.09932,0.0175 -0.09932,0.039 z m 86.938495,-77.2671 c 0,-5.8685 -0.01485,-8.13973 -0.05415,-8.20922 -0.02974,-0.0529 -0.111853,-0.14447 -0.182416,-0.20347 l -0.128285,-0.10727 -8.135835,-0.001 -8.135845,-0.001 v 0.34658 0.34659 h 3.249906 c 2.526371,0 3.267064,0.0134 3.326992,0.0577 0.04239,0.0317 0.17968,0.25906 0.305064,0.50505 0.236325,0.46371 0.45352,0.72126 0.721061,0.85515 0.180389,0.0902 0.701648,0.0953 0.874323,0.008 0.216835,-0.10893 0.435239,-0.2916 0.478688,-0.40016 0.06723,-0.16804 -0.03141,-0.45019 -0.196529,-0.56186 -0.221449,-0.1498 -0.248679,-0.12661 -0.214675,0.18251 0.02764,0.25128 0.02185,0.27735 -0.06151,0.27792 -0.05063,3.5e-4 -0.135959,0.0117 -0.189597,0.0255 -0.138044,0.0352 -0.315954,-0.13579 -0.315954,-0.30363 0,-0.15381 0.227296,-0.42781 0.442606,-0.53359 0.08715,-0.0429 0.281834,-0.0667 0.540037,-0.0666 0.329952,3.5e-4 0.448193,0.0212 0.646959,0.1141 0.133773,0.0626 0.266135,0.11428 0.294139,0.11511 0.02799,0.001 0.09365,0.0322 0.145935,0.0697 0.19556,0.14063 0.766024,0.48623 0.802487,0.48623 0.07617,0 0.270042,0.26535 0.339061,0.46401 0.03895,0.11211 0.160481,0.29284 0.26998,0.40142 0.178785,0.17725 0.222346,0.19742 0.426369,0.19742 0.253744,0 0.28809,-0.0459 0.104313,-0.1393 -0.146535,-0.0744 -0.189585,-0.20921 -0.156377,-0.48916 0.03984,-0.33586 0.292077,-0.51469 0.477486,-0.33855 0.07757,0.0737 0.09347,0.15464 0.09252,0.47025 -8.77e-4,0.34655 -0.02457,0.50195 -0.122846,0.8087 -0.02377,0.0744 -0.01335,0.10392 0.03685,0.10392 0.196544,0 0.504409,-0.58552 0.556429,-1.05827 0.03405,-0.30928 -0.05792,-0.60007 -0.284791,-0.90108 -0.238089,-0.31584 -0.278613,-0.30501 1.141057,-0.30483 1.192105,1.7e-4 1.287556,0.007 1.43686,0.0928 0.173073,0.10026 0.42158,0.35091 0.557574,0.56244 0.120911,0.18805 0.11669,0.81416 -0.008,1.15791 -0.114372,0.31583 -0.507462,0.89189 -0.679657,0.99604 -0.382234,0.23119 -0.915208,0.63073 -1.364078,1.02255 -0.530859,0.46338 -0.804446,0.81135 -1.103338,1.40326 -0.09255,0.18332 -0.188817,0.36841 -0.213898,0.41133 -0.08004,0.13696 -0.243089,0.78788 -0.243089,0.97043 0,0.14947 0.01585,0.17613 0.104763,0.17613 0.05767,0 0.227268,-0.0565 0.376997,-0.12578 0.222388,-0.10277 0.355329,-0.12896 0.72597,-0.1433 0.427554,-0.0167 0.471379,-0.008 0.759728,0.12561 0.318447,0.14897 0.754133,0.526 0.973155,0.84228 0.06818,0.0984 0.178739,0.25815 0.245626,0.35484 0.06688,0.0968 0.121612,0.19048 0.121612,0.20846 0,0.018 0.04109,0.12078 0.09142,0.22858 0.284959,0.61064 0.29285,0.64399 0.304195,1.28546 0.01234,0.705 -0.03518,0.90859 -0.267619,1.14459 -0.146502,0.14864 -0.163251,0.15381 -0.437453,0.13096 -0.219727,-0.0182 -0.325448,-0.0547 -0.460968,-0.15882 -0.208429,-0.16031 -0.239846,-0.24889 -0.24627,-0.69474 -0.0053,-0.37746 0.08801,-0.5592 0.33815,-0.65762 0.260711,-0.10259 0.436055,0.0901 0.43457,0.47766 -8.76e-4,0.27415 -0.04931,0.32762 -0.261474,0.2898 -0.187461,-0.0334 -0.214883,0.001 -0.125482,0.16031 0.142231,0.25248 0.558552,0.26888 0.746744,0.0295 0.153191,-0.19493 0.136058,-0.66925 -0.0366,-1.01183 -0.172974,-0.34325 -0.366562,-0.49891 -0.620471,-0.49891 -0.380896,0 -0.62287,0.23166 -0.826851,0.79156 -0.08715,0.23915 -0.09981,0.35067 -0.07617,0.66898 0.03108,0.41865 0.124331,0.64211 0.386179,0.9254 0.326035,0.35276 1.026498,0.50959 1.314573,0.29433 0.068,-0.0509 0.13666,-0.0924 0.152491,-0.0924 0.01585,0 0.02888,1.01897 0.02888,2.26437 v 2.26436 h 0.389169 0.38915 z m -1.026171,-0.97897 c -0.0854,-0.12077 -0.227934,-0.29238 -0.316785,-0.38148 l -0.161549,-0.16198 0.08012,-0.23081 c 0.102394,-0.29503 0.432221,-0.92399 0.484524,-0.92399 0.02202,0 0.0544,0.10393 0.0721,0.23106 0.0365,0.26215 0.0524,1.68672 0.01878,1.68672 -0.01218,0 -0.09184,-0.0987 -0.177225,-0.21952 z m -2.197919,-1.256 c -0.06204,-0.055 0.442752,-0.74672 0.737365,-1.01047 0.150372,-0.13462 0.466158,-0.37162 0.701753,-0.52671 0.235612,-0.15515 0.536604,-0.37442 0.668881,-0.48739 l 0.240483,-0.20539 v 0.27387 0.27387 l -0.265055,0.17341 c -0.409503,0.26793 -0.835755,0.80614 -1.193932,1.50747 l -0.107198,0.20986 -0.372235,-0.0874 c -0.204715,-0.0482 -0.389256,-0.10259 -0.410071,-0.12111 z m 0.208101,-2.12182 c 0,-0.0215 -0.04247,-0.0756 -0.09437,-0.12028 -0.178634,-0.15364 -0.32395,-0.76003 -0.199599,-0.83305 0.02554,-0.015 0.03336,-0.0631 0.01713,-0.1066 -0.06925,-0.18725 0.07547,0.0285 0.154509,0.23026 0.09038,0.23085 0.181944,0.33161 0.343641,0.37825 0.09479,0.0274 0.09986,0.01 0.102261,-0.35267 0.0027,-0.41423 0.109184,-0.86735 0.261132,-1.11204 0.124398,-0.20029 0.486782,-0.44631 0.707522,-0.48033 0.131404,-0.0202 0.207312,-0.002 0.314152,0.0722 0.278572,0.19565 0.327916,0.0607 0.101694,-0.27815 -0.234404,-0.35114 -0.719901,-0.51226 -1.236572,-0.41035 -0.478187,0.0943 -0.90716,0.56404 -1.206995,1.3217 -0.08128,0.20539 -0.109517,0.37909 -0.112187,0.69034 -0.0035,0.37183 0.0093,0.43342 0.118009,0.5811 0.151923,0.20644 0.498591,0.45866 0.630339,0.45866 0.05458,0 0.09932,-0.0175 0.09932,-0.039 z m 3.015989,77.2671 c 0,5.8685 -0.01485,8.13973 -0.05415,8.20922 -0.02974,0.0529 -0.111853,0.14447 -0.182416,0.20347 l -0.128285,0.10727 -8.135835,10e-4 -8.135845,0.001 v -0.34658 -0.34659 h 3.249906 c 2.526371,0 3.267064,-0.0134 3.326992,-0.0577 0.04239,-0.0317 0.17968,-0.25906 0.305064,-0.50505 0.236325,-0.46371 0.45352,-0.72126 0.721061,-0.85515 0.180389,-0.0902 0.701648,-0.0953 0.874323,-0.008 0.216835,0.10893 0.435239,0.2916 0.478688,0.40016 0.06723,0.16804 -0.03141,0.45019 -0.196529,0.56186 -0.221449,0.1498 -0.248679,0.12661 -0.214675,-0.18251 0.02764,-0.25128 0.02185,-0.27735 -0.06151,-0.27792 -0.05063,-3.5e-4 -0.135959,-0.0117 -0.189597,-0.0255 -0.138044,-0.0352 -0.315954,0.13579 -0.315954,0.30363 0,0.15381 0.227296,0.42781 0.442606,0.53359 0.08715,0.0429 0.281834,0.0667 0.540037,0.0666 0.329952,-3.5e-4 0.448193,-0.0212 0.646959,-0.1141 0.133773,-0.0626 0.266135,-0.11428 0.294139,-0.11511 0.02799,-10e-4 0.09365,-0.0322 0.145935,-0.0697 0.19556,-0.14063 0.766024,-0.48623 0.802487,-0.48623 0.07617,0 0.270042,-0.26535 0.339061,-0.46401 0.03895,-0.11211 0.160481,-0.29284 0.26998,-0.40142 0.178785,-0.17725 0.222346,-0.19742 0.426369,-0.19742 0.253744,0 0.28809,0.0459 0.104313,0.1393 -0.146535,0.0744 -0.189585,0.20921 -0.156377,0.48916 0.03984,0.33586 0.292077,0.51469 0.477486,0.33855 0.07757,-0.0737 0.09347,-0.15464 0.09252,-0.47025 -8.77e-4,-0.34655 -0.02457,-0.50195 -0.122846,-0.8087 -0.02377,-0.0744 -0.01335,-0.10392 0.03685,-0.10392 0.196544,0 0.504409,0.58552 0.556429,1.05827 0.03405,0.30928 -0.05792,0.60007 -0.284791,0.90108 -0.238089,0.31584 -0.278613,0.30501 1.141057,0.30483 1.192105,-1.7e-4 1.287556,-0.007 1.43686,-0.0928 0.173073,-0.10026 0.42158,-0.35091 0.557574,-0.56244 0.120911,-0.18805 0.11669,-0.81416 -0.008,-1.15791 -0.114372,-0.31583 -0.507462,-0.89189 -0.679657,-0.99604 -0.382234,-0.23119 -0.915208,-0.63073 -1.364078,-1.02255 -0.530859,-0.46338 -0.804446,-0.81135 -1.103338,-1.40326 -0.09255,-0.18332 -0.188817,-0.36841 -0.213898,-0.41133 -0.08004,-0.13696 -0.243089,-0.78788 -0.243089,-0.97043 0,-0.14947 0.01585,-0.17613 0.104763,-0.17613 0.05767,0 0.227268,0.0565 0.376997,0.12578 0.222388,0.10277 0.355329,0.12896 0.72597,0.1433 0.427554,0.0167 0.471379,0.008 0.759728,-0.12561 0.318447,-0.14897 0.754133,-0.526 0.973155,-0.84228 0.06818,-0.0984 0.178739,-0.25815 0.245626,-0.35484 0.06688,-0.0968 0.121612,-0.19048 0.121612,-0.20846 0,-0.018 0.04109,-0.12078 0.09142,-0.22858 0.284959,-0.61064 0.29285,-0.64399 0.304195,-1.28546 0.01234,-0.705 -0.03518,-0.90859 -0.267619,-1.14459 -0.146502,-0.14864 -0.163251,-0.15381 -0.437453,-0.13096 -0.219727,0.0182 -0.325448,0.0547 -0.460968,0.15882 -0.208429,0.16031 -0.239846,0.24889 -0.24627,0.69474 -0.0053,0.37746 0.08801,0.5592 0.33815,0.65762 0.260711,0.10259 0.436055,-0.0901 0.43457,-0.47766 -8.76e-4,-0.27415 -0.04931,-0.32762 -0.261474,-0.2898 -0.187461,0.0334 -0.214883,-10e-4 -0.125482,-0.16031 0.142231,-0.25248 0.558552,-0.26888 0.746744,-0.0295 0.153191,0.19493 0.136058,0.66925 -0.0366,1.01183 -0.172974,0.34325 -0.366562,0.49891 -0.620471,0.49891 -0.380896,0 -0.62287,-0.23166 -0.826851,-0.79156 -0.08715,-0.23915 -0.09981,-0.35067 -0.07617,-0.66898 0.03108,-0.41865 0.124331,-0.64211 0.386179,-0.9254 0.326035,-0.35276 1.026498,-0.50959 1.314573,-0.29433 0.068,0.0509 0.13666,0.0924 0.152491,0.0924 0.01585,0 0.02888,-1.01897 0.02888,-2.26437 v -2.26436 h 0.389169 0.38915 z m -1.026171,0.97897 c -0.0854,0.12077 -0.227934,0.29238 -0.316785,0.38148 l -0.161549,0.16198 0.08012,0.23081 c 0.102394,0.29503 0.432221,0.92399 0.484524,0.92399 0.02202,0 0.0544,-0.10393 0.0721,-0.23106 0.0365,-0.26215 0.0524,-1.68672 0.01878,-1.68672 -0.01218,0 -0.09184,0.0987 -0.177225,0.21952 z m -2.197919,1.256 c -0.06204,0.055 0.442752,0.74672 0.737365,1.01047 0.150372,0.13462 0.466158,0.37162 0.701753,0.52671 0.235612,0.15515 0.536604,0.37442 0.668881,0.48739 l 0.240483,0.20539 v -0.27387 -0.27387 l -0.265055,-0.17341 c -0.409503,-0.26793 -0.835755,-0.80614 -1.193932,-1.50747 l -0.107198,-0.20986 -0.372235,0.0874 c -0.204715,0.0482 -0.389256,0.10259 -0.410071,0.12111 z m 0.208101,2.12182 c 0,0.0215 -0.04247,0.0756 -0.09437,0.12028 -0.178634,0.15364 -0.32395,0.76003 -0.199599,0.83305 0.02554,0.015 0.03336,0.0631 0.01713,0.1066 -0.06925,0.18725 0.07547,-0.0285 0.154509,-0.23026 0.09038,-0.23085 0.181944,-0.33161 0.343641,-0.37825 0.09479,-0.0274 0.09986,-0.01 0.102261,0.35267 0.0027,0.41423 0.109184,0.86735 0.261132,1.11204 0.124398,0.20029 0.486782,0.44631 0.707522,0.48033 0.131404,0.0202 0.207312,0.002 0.314152,-0.0722 0.278572,-0.19565 0.327916,-0.0607 0.101694,0.27815 -0.234404,0.35114 -0.719901,0.51226 -1.236572,0.41035 -0.478187,-0.0943 -0.90716,-0.56404 -1.206995,-1.3217 -0.08128,-0.20539 -0.109517,-0.37909 -0.112187,-0.69034 -0.0035,-0.37183 0.0093,-0.43342 0.118009,-0.5811 0.151923,-0.20644 0.498591,-0.45866 0.630339,-0.45866 0.05458,0 0.09932,0.0175 0.09932,0.039 z"
         inkscape:connector-curvature="0"
         inkscape:label="Corners" />
    </g>
    <g
       inkscape:label="SCYTHE"
       transform="matrix(0.26214269,0,0,0.26214269,33.751344,211.86504)"
       id="g855"
       style="display:inline;fill:#000000;fill-opacity:1">
      <path
         style="fill:#000000;fill-opacity:1;stroke-width:0.28897831"
         d="M 88.603516,78.869141 C 82.95971,79.72599 76.650569,83.150117 74.484375,87.001953 63.268248,103.40973 66.38823,127.93805 68.189453,142.2207 c 1.70903,8.856 4.571331,13.54281 10.675781,17.48633 1.027518,0.66379 1.967494,1.36607 2.089844,1.55859 0.122356,0.19253 0.224269,7.58249 0.226563,16.42383 -0.123317,8.6293 -0.222456,13.23672 0.390625,18.29493 2.530521,0.98234 6.545048,2.04251 8.40625,0.29293 0.482129,-6.74216 0.114087,-19.7095 0.343747,-27.94922 0.22907,-6.11091 -0.06395,-5.49537 2.771484,-5.82031 2.262181,-0.42976 4.180182,-1.10851 6.154297,-2.05664 0.02736,-3.03741 0.221775,-6.17582 -0.09179,-9.1582 -6.689095,1.52844 -13.124473,2.26744 -17.251953,-3.86524 -6.973396,-16.28704 -3.97784,-41.82195 0.205078,-56.900386 1.350013,-3.551419 2.599597,-6.385667 7.580078,-10.250005 1.38833,-0.694143 1.150663,-1.293439 -0.556641,-1.404297 -0.16427,-0.01067 -0.341311,-0.01162 -0.529296,-0.0039 z m -61.269532,0.210937 c -1.165015,0.04725 -2.255609,0.195143 -3.197265,0.451172 -10.737875,3.191901 -15.1628394,12.68988 -12.667969,25.29883 0.770679,4.02326 2.733793,7.6918 7.732422,14.45117 3.503789,4.75395 6.795445,9.67522 10.519531,14.26172 3.499553,4.26097 4.195731,10.98181 1.597656,15.41601 -5.327046,7.89757 -13.603807,4.81825 -18.710937,1.5293 -0.298846,3.32099 -0.197266,5.87576 -0.197266,9.4668 5.610985,2.80041 11.981419,3.7414 16.595703,2.24804 6.229715,-1.51074 11.06726,-6.52104 12.94336,-13.40624 0.820557,-3.01141 0.885725,-9.30445 0.130859,-12.53711 -1.504732,-6.84365 -6.027468,-13.1313 -10.578125,-18.57032 -6.290216,-7.48541 -9.267182,-11.96257 -10.328125,-15.53515 -1.05042,-3.537144 -1.022128,-5.862225 0.09766,-8.007816 1.620859,-4.144807 6.781975,-6.441839 9.667969,-6.226562 2.502248,0.18923 7.005331,1.420563 7.896485,2.160156 0.254245,0.211006 0.515354,0.330349 0.580078,0.265625 0.235063,-2.775061 0.249419,-5.555768 0.158205,-8.335937 C 36.75343,80.150048 31.77277,78.904743 27.333984,79.080078 Z m 93.261896,1.041974 c -0.19824,0.222668 -0.2694,0.609452 0.2381,2.387714 4.75625,16.714486 10.18762,30.997834 14.10352,45.742184 v 16.56055 c 0,9.10836 0.0878,16.65026 0.19727,16.75977 3.65061,0.24386 6.44478,0.10309 10.34961,0.043 l 0.15429,-17.91796 0.1543,-17.91602 c 4.54683,-15.11238 10.65072,-30.207637 13.89844,-43.193359 0.24994,-1.120961 0.2629,-1.688515 0.0449,-1.951172 -0.22614,-0.272472 -1.51328,-0.369141 -4.87305,-0.369141 h -4.5664 c -4.02824,15.109096 -5.30079,19.440641 -10.01368,35.833982 -0.40907,0 -0.59867,-0.52945 -1.40234,-3.90234 -2.8348,-10.36728 -8.30375,-31.665506 -8.55859,-31.953126 -0.26679,-0.3011 -6.66831,-0.212286 -9.72637,-0.124082 z m 59.57014,0.270524 c -0.86665,0.162584 -1.01894,0.321795 -1.19727,1.257813 -0.27246,2.731275 -0.3828,7.580468 -0.25192,7.720703 0.11092,0.118851 7.73305,-0.185589 11.42382,0.326207 0.21324,0.213238 0.30058,11.183481 0.28711,35.986321 -0.0106,19.6235 0.0729,35.77014 0.18555,35.88282 v 0.002 c 3.65242,0.25004 6.4488,0.10701 10.35547,0.0469 l 0.0488,-24.70898 c 0.0867,-42.52136 0.0996,-46.670592 0.44531,-47.031247 0.37766,-0.393941 11.23297,-0.135592 11.45615,-0.379497 0.31432,-0.34351 0.0754,-8.621095 -0.21396,-9.063865 -0.28153,-0.430818 -17.81841,-0.359722 -32.53906,-0.03918 z m 147.81104,-0.130857 c -6.9529,0.178358 -21.16753,0.105152 -27.15479,0.275383 -0.25765,0.416975 -0.4085,80.525018 -0.15235,80.939448 9.90231,0.41958 17.65581,0.49752 28.15303,0.1131 0.20806,-0.99322 0.15837,-8.07315 -0.071,-8.42755 -6.91183,-0.41717 -10.23295,-0.3439 -17.36914,-0.60938 0.0316,-9.51285 -0.20374,-17.45322 0.17188,-27.52539 5.35285,-0.4748 9.65012,0.007 15.27734,-0.41015 0.32538,-0.20107 0.36851,-8.2128 0.0469,-8.71875 -5.36485,-0.53482 -9.1942,-0.57912 -15.52149,-0.71289 -0.23763,-0.23767 -0.34115,-25.279644 -0.10547,-25.515625 5.99826,-0.267599 10.57587,-0.171993 17.01172,-0.166028 0.0271,-3.092673 -0.0367,-6.651532 -0.28663,-9.242168 z m -91.63132,0.05816 c -0.16396,27.281021 -0.5226,53.984661 -0.0684,81.252391 0.10975,0.10978 2.4193,0.16445 5.13086,0.12109 l 4.92969,-0.0781 c 0.43396,-11.87631 -0.47879,-29.58525 0.50779,-40.37109 0.49782,-0.32471 14.97832,-0.23588 15.59961,0.0957 0.55044,14.16486 0.58145,21.16657 0.65233,40.27539 h 5.05859 5.05664 c 0.56696,-27.82728 -0.8844,-57.37681 0.01,-80.988467 -2.68672,-0.294543 -6.15971,-0.529302 -10.14454,-0.0545 -0.39227,10.078889 -0.67971,22.057987 -0.64652,31.164067 -5.35862,0.17249 -9.83177,0.27188 -15.49414,0.0293 -0.47702,-11.70418 -0.43238,-20.673092 -0.64179,-31.376015 -0.16234,-0.123401 -9.87396,-0.159795 -9.9499,-0.06976 z"
         transform="matrix(0.91558192,0,0,0.91558192,-112.82991,-5.6205252)"
         id="path847"
         inkscape:connector-curvature="0"
         sodipodi:nodetypes="cccccccccccccccccccccccccccsccscccccccccsccccccscccscccsccccccssscccccccccccccccccccccccccccccsc" />
    </g>
    <circle
       r="5.4862843"
       style="opacity:1;fill:#000000;fill-opacity:1;fill-rule:nonzero;stroke:none;stroke-width:0.02743142;stroke-linecap:round;stroke-linejoin:round;stroke-miterlimit:4;stroke-dasharray:none;stroke-opacity:1;paint-order:stroke fill markers"
       id="circle839"
       cx="-24.064728"
       cy="268.5087"
       inkscape:label="Hole Engrave"
       transform="scale(-1,1)" />
    <circle
       r="2.4937656"
       inkscape:label="Hole Cut"
       cy="268.5087"
       cx="-24.064728"
       id="path830"
       style="opacity:1;fill:none;fill-opacity:1;fill-rule:nonzero;stroke:#ff0000;stroke-width:0.01246883;stroke-linecap:round;stroke-linejoin:round;stroke-miterlimit:4;stroke-dasharray:none;stroke-opacity:1;paint-order:stroke fill markers"
       transform="scale(-1,1)" />
    <path
       style="opacity:1;fill:none;fill-opacity:1;fill-rule:nonzero;stroke:#ff0000;stroke-width:0.07559055;stroke-linecap:butt;stroke-linejoin:round;stroke-miterlimit:4;stroke-dasharray:none;stroke-opacity:1;paint-order:stroke fill markers"
       d="M 340.11914,170.00586 V 0.03710937 h -169.9668 m 0,340.08203063 h 169.9668 v -169.9668 m -340.08203063,0 v 169.9668 H 170.00586 m 0,-340.08203063 H 0.03710937 V 170.00586"
       transform="matrix(0.26458333,0,0,0.26458333,0,207.00001)"
       id="rect827"
       inkscape:connector-curvature="0"
       sodipodi:nodetypes="cccccccccccc"
       inkscape:label="Border Cut" />
  </g>
</svg>
