<?xml version="1.0" encoding="UTF-8" standalone="no"?>
<!-- Created with Inkscape (http://www.inkscape.org/) -->

<svg
   xmlns:dc="http://purl.org/dc/elements/1.1/"
   xmlns:cc="http://creativecommons.org/ns#"
   xmlns:rdf="http://www.w3.org/1999/02/22-rdf-syntax-ns#"
   xmlns:svg="http://www.w3.org/2000/svg"
   xmlns="http://www.w3.org/2000/svg"
   xmlns:sodipodi="http://sodipodi.sourceforge.net/DTD/sodipodi-0.dtd"
   xmlns:inkscape="http://www.inkscape.org/namespaces/inkscape"
   width="8.0500002cm"
   height="8.0500002cm"
   viewBox="0 0 80.500004 80.5"
   version="1.1"
   id="svg8"
   inkscape:version="0.92.3 (2405546, 2018-03-11)"
   sodipodi:docname="PowerDial_Dial.svg">
  <defs
     id="defs2">
    <pattern
       patternUnits="userSpaceOnUse"
       width="342.04505"
       height="342.04505"
       patternTransform="matrix(0.26458333,0,0,0.26458333,-5.0743926,202.07008)"
       id="pattern1703">
      <path
         inkscape:label="Spokes"
         inkscape:connector-curvature="0"
         d="M 341.28478,241.54751 0.76026897,100.49758 m 0,141.04993 L 341.28478,100.49758 M 241.54748,0.76026875 100.49761,341.28478 m 0,-340.52451125 L 241.54748,341.28478"
         style="fill:none;stroke:#3c3c3c;stroke-width:3.97335577;stroke-linecap:butt;stroke-linejoin:miter;stroke-miterlimit:4;stroke-dasharray:none;stroke-opacity:1"
         id="path965" />
      <path
         style="opacity:1;fill:#3c3c3c;fill-opacity:1;fill-rule:nonzero;stroke:none;stroke-width:0.2;stroke-linecap:round;stroke-linejoin:round;stroke-miterlimit:4;stroke-dasharray:none;stroke-opacity:1;paint-order:stroke fill markers"
         d="m 171.30577,18.632899 c 33.93105,1.13e-4 57.85352,11.50783 57.85352,11.50783 L 171.30577,169.81453 113.4503,30.140729 c 0,0 23.92442,-11.507944 57.85547,-11.50783 z m -26.13867,7.298834 c -0.62969,-0.06879 -3.66987,0.440618 -3.94531,0.757796 -0.26003,0.299338 2.23338,1.784768 4.30468,3.578154 1.92568,1.667263 3.04092,3.518551 3.23242,3.412082 0.3975,-0.221103 0.86074,-1.569109 0.93946,-2.05663 0.0948,-0.587263 -0.45962,-1.217764 -1.8086,-2.576164 -1.37142,-1.381001 -2.18238,-3.056277 -2.72265,-3.115238 z m 52.07226,0.330331 c -0.54717,0.09827 -1.29568,1.10434 -2.37721,2.405783 -1.40919,1.69576 -1.98387,2.345348 -1.9177,2.486967 0.11694,0.250204 0.90404,1.560756 1.08811,1.674028 0.0898,0.05518 0.65977,-0.941972 3.29631,-3.26298 2.63654,-2.321007 3.99754,-2.107842 4.12338,-2.593171 0.12586,-0.485292 -3.66571,-0.808895 -4.21289,-0.710627 z m -25.93554,0.06992 c -12.52317,7.56e-4 -22.67555,11.986281 -22.67578,22.675767 -2.3e-4,10.689903 10.15185,22.676977 22.67578,22.677732 12.5247,3.03e-4 22.67804,-10.153058 22.67773,-22.677732 -7.6e-4,-12.523956 -10.1538,-22.676107 -22.67773,-22.675767 z m 35.51367,1.650369 c -0.80515,0.01512 -4.20688,1.489285 -6.97314,3.573316 -2.93799,2.213443 -4.21282,4.404737 -4.12775,4.755666 0.037,0.153449 0.42049,0.746608 0.68254,1.420271 0.32848,0.844385 0.55668,1.788359 0.70184,1.843956 0.35558,0.136063 2.40508,-3.335433 5.74045,-6.087118 3.34633,-2.760718 7.84612,-4.178532 7.66995,-4.495672 -0.17616,-0.317103 -2.88874,-1.025726 -3.69389,-1.010419 z m -70.96289,0.03024 c -0.50838,-0.05065 -3.28388,0.61595 -3.62891,0.947263 -0.41673,0.400139 4.64931,1.987956 8.54297,5.367194 4.10043,3.558689 4.86492,6.31491 5.0293,6.156245 0.37232,-0.359433 1.38739,-3.089499 1.42187,-3.537108 0.0166,-0.216945 -0.51207,-2.214917 -4.33594,-5.361336 -4.13463,-3.402141 -6.76721,-3.546104 -7.02929,-3.572258 z m 80.32812,2.66211 c 0,0 -4.61024,-0.04346 -10.33593,3.876964 -2.36401,1.618658 -6.51099,6.107641 -7.34375,9.187502 0,0 0.0489,5.348863 -0.33203,7.906243 -0.64032,4.298041 -2.125,7.761713 -2.125,7.761713 l 5.80468,10.537096 -8.70508,-4.642582 c 0,0 -2.00773,2.073637 -3.10351,3.328138 -0.96473,1.104454 -3.05859,2.832038 -3.05859,2.832038 l 0.68555,8.400378 -4.87305,-5.949203 c 0,0 -2.91775,1.29086 -4.55664,1.730457 -1.78872,0.479773 -5.04101,0.919937 -5.04101,0.919937 l -1.89258,6.187502 -1.39062,-6.123061 c 0,0 -2.83332,-0.217701 -5.04297,-0.78516 -2.20966,-0.567536 -4.74219,-2.2461 -4.74219,-2.2461 l -5.49219,6.060548 1.07226,-8.585915 -3.17187,-2.634784 -2.76172,-3.236334 -8.8379,4.544919 6.06056,-9.8496 c 0,0 -1.85809,-3.694639 -2.43555,-8.113285 -0.36223,-2.771565 -0.15428,-7.984365 -0.15428,-7.984365 0,0 -1.37511,-3.958299 -5.09375,-7.302727 -2.83564,-2.550312 -9.75911,-5.773947 -13.40039,-5.656252 0,0 -0.79719,-0.03024 -1.00196,0.246047 -0.18709,0.305386 1.0152,2.43908 0.32814,6.023433 -0.68707,3.584353 -3.25808,5.333329 -3.23438,5.835931 0.0219,0.463143 49.29688,119.023449 49.29688,119.023449 L 220.56749,43.037195 c 0.20935,-0.504378 -1.36842,-1.471559 -2.50781,-5.722659 -1.13939,-4.251099 -0.0645,-6.068522 -0.45899,-6.197253 0,0 -0.53247,-0.176504 -1.41797,-0.441411 z m 3.91407,1.216781 c -0.0627,0.0013 -0.11471,0.01134 -0.15428,0.03024 -0.23165,0.179527 -0.38876,2.802406 0.10352,4.591785 0.52501,1.908322 1.80948,3.238035 2.02735,2.886728 0.23078,-0.447912 0.49568,-0.778998 0.5332,-1.283225 -0.0129,-0.218079 -0.747,-1.581695 -0.97656,-2.90623 -0.23494,-1.35549 0.16116,-2.385865 0.0295,-2.671899 -0.20323,-0.284221 -1.12365,-0.655748 -1.5625,-0.646489 z m -97.41016,0.02268 c -0.27689,-0.02646 -1.37603,0.36548 -1.57031,0.564434 -0.24593,0.252095 0.61623,1.389543 0.2832,3.335925 -0.33301,1.946418 -1.37162,2.005568 -1.38086,2.326185 -0.009,0.320504 0.5378,1.634759 0.79688,1.923818 0.25909,0.289134 2.07905,-1.295055 2.43554,-3.613266 0.35649,-2.318211 -0.22382,-4.504933 -0.56445,-4.537096 z"
         id="path842"
         inkscape:connector-curvature="0"
         sodipodi:nodetypes="scccsccccccczssszzzcsccczssssszzccscccccscccccccccccccscccccccccsccscccscccccccccccccsccscc" />
      <path
         sodipodi:nodetypes="scccsccccccczssszzzcsccczssssszzccscccccscccccccccccccscccccccccsccscccscccccccccccccsccscc"
         inkscape:connector-curvature="0"
         id="path919"
         d="m 171.30577,322.88487 c 33.93105,-1.2e-4 57.85352,-11.50783 57.85352,-11.50783 l -57.85352,-139.6738 -57.85547,139.6738 c 0,0 23.92442,11.50794 57.85547,11.50783 z m -26.13867,-7.29884 c -0.62969,0.0688 -3.66987,-0.44061 -3.94531,-0.75779 -0.26003,-0.29934 2.23338,-1.78477 4.30468,-3.57816 1.92568,-1.66726 3.04092,-3.51855 3.23242,-3.41208 0.3975,0.2211 0.86074,1.56911 0.93946,2.05663 0.0948,0.58726 -0.45962,1.21776 -1.8086,2.57616 -1.37142,1.38101 -2.18238,3.05628 -2.72265,3.11524 z m 52.07226,-0.33033 c -0.54717,-0.0983 -1.29568,-1.10434 -2.37721,-2.40578 -1.40919,-1.69576 -1.98387,-2.34535 -1.9177,-2.48697 0.11694,-0.2502 0.90404,-1.56075 1.08811,-1.67403 0.0898,-0.0552 0.65977,0.94198 3.29631,3.26298 2.63654,2.32101 3.99754,2.10785 4.12338,2.59318 0.12586,0.48529 -3.66571,0.80889 -4.21289,0.71062 z m -25.93554,-0.0699 c -12.52317,-7.6e-4 -22.67555,-11.98628 -22.67578,-22.67577 -2.3e-4,-10.6899 10.15185,-22.67697 22.67578,-22.67773 12.5247,-3e-4 22.67804,10.15306 22.67773,22.67773 -7.6e-4,12.52396 -10.1538,22.67611 -22.67773,22.67577 z m 35.51367,-1.65037 c -0.80515,-0.0151 -4.20688,-1.48928 -6.97314,-3.57331 -2.93799,-2.21345 -4.21282,-4.40474 -4.12775,-4.75567 0.037,-0.15345 0.42049,-0.74661 0.68254,-1.42027 0.32848,-0.84439 0.55668,-1.78836 0.70184,-1.84396 0.35558,-0.13606 2.40508,3.33544 5.74045,6.08712 3.34633,2.76072 7.84612,4.17853 7.66995,4.49567 -0.17616,0.31711 -2.88874,1.02573 -3.69389,1.01042 z m -70.96289,-0.0302 c -0.50838,0.0506 -3.28388,-0.61595 -3.62891,-0.94727 -0.41673,-0.40014 4.64931,-1.98795 8.54297,-5.36719 4.10043,-3.55869 4.86492,-6.31491 5.0293,-6.15625 0.37232,0.35944 1.38739,3.0895 1.42187,3.53711 0.0166,0.21695 -0.51207,2.21492 -4.33594,5.36134 -4.13463,3.40214 -6.76721,3.5461 -7.02929,3.57226 z m 80.32812,-2.66211 c 0,0 -4.61024,0.0435 -10.33593,-3.87697 -2.36401,-1.61866 -6.51099,-6.10764 -7.34375,-9.1875 0,0 0.0489,-5.34886 -0.33203,-7.90624 -0.64032,-4.29804 -2.125,-7.76172 -2.125,-7.76172 l 5.80468,-10.53709 -8.70508,4.64258 c 0,0 -2.00773,-2.07364 -3.10351,-3.32814 -0.96473,-1.10445 -3.05859,-2.83204 -3.05859,-2.83204 l 0.68555,-8.40037 -4.87305,5.9492 c 0,0 -2.91775,-1.29086 -4.55664,-1.73046 -1.78872,-0.47977 -5.04101,-0.91993 -5.04101,-0.91993 l -1.89258,-6.18751 -1.39062,6.12306 c 0,0 -2.83332,0.21771 -5.04297,0.78516 -2.20966,0.56754 -4.74219,2.2461 -4.74219,2.2461 l -5.49219,-6.06055 1.07226,8.58592 -3.17187,2.63478 -2.76172,3.23634 -8.8379,-4.54492 6.06056,9.8496 c 0,0 -1.85809,3.69464 -2.43555,8.11328 -0.36223,2.77157 -0.15428,7.98437 -0.15428,7.98437 0,0 -1.37511,3.9583 -5.09375,7.30272 -2.83564,2.55032 -9.75911,5.77395 -13.40039,5.65626 0,0 -0.79719,0.0302 -1.00196,-0.24605 -0.18709,-0.30539 1.0152,-2.43908 0.32814,-6.02343 -0.68707,-3.58436 -3.25808,-5.33333 -3.23438,-5.83593 0.0219,-0.46315 49.29688,-119.02345 49.29688,-119.02345 l 49.26364,118.93043 c 0.20935,0.50438 -1.36842,1.47156 -2.50781,5.72266 -1.13939,4.2511 -0.0645,6.06852 -0.45899,6.19725 0,0 -0.53247,0.17651 -1.41797,0.44141 z m 3.91407,-1.21679 c -0.0627,-10e-4 -0.11471,-0.0113 -0.15428,-0.0302 -0.23165,-0.17953 -0.38876,-2.80241 0.10352,-4.59179 0.52501,-1.90832 1.80948,-3.23803 2.02735,-2.88673 0.23078,0.44792 0.49568,0.779 0.5332,1.28323 -0.0129,0.21808 -0.747,1.58169 -0.97656,2.90623 -0.23494,1.35549 0.16116,2.38586 0.0295,2.6719 -0.20323,0.28422 -1.12365,0.65575 -1.5625,0.64649 z m -97.41016,-0.0227 c -0.27689,0.0265 -1.37603,-0.36548 -1.57031,-0.56444 -0.24593,-0.25209 0.61623,-1.38954 0.2832,-3.33592 -0.33301,-1.94642 -1.37162,-2.00557 -1.38086,-2.32619 -0.009,-0.3205 0.5378,-1.63476 0.79688,-1.92381 0.25909,-0.28914 2.07905,1.29505 2.43554,3.61326 0.35649,2.31821 -0.22382,4.50493 -0.56445,4.5371 z"
         style="opacity:1;fill:#3c3c3c;fill-opacity:1;fill-rule:nonzero;stroke:none;stroke-width:0.2;stroke-linecap:round;stroke-linejoin:round;stroke-miterlimit:4;stroke-dasharray:none;stroke-opacity:1;paint-order:stroke fill markers" />
      <path
         sodipodi:nodetypes="scccsccccccczssszzzcsccczssssszzccscccccscccccccccccccscccccccccsccscccscccccccccccccsccscc"
         inkscape:connector-curvature="0"
         id="path921"
         d="m 323.43078,170.75987 c -1.1e-4,33.93104 -11.50783,57.85349 -11.50783,57.85349 l -139.6738,-57.85349 139.6738,-57.8555 c 0,0 11.50794,23.92445 11.50783,57.8555 z m -7.29884,-26.13869 c 0.0688,-0.62967 -0.44061,-3.66988 -0.75779,-3.9453 -0.29934,-0.26003 -1.78477,2.23337 -3.57816,4.30466 -1.66726,1.92571 -3.51855,3.04093 -3.41208,3.23244 0.22111,0.39749 1.56911,0.86075 2.05663,0.93944 0.58727,0.0949 1.21777,-0.45959 2.57617,-1.80858 1.381,-1.37144 3.05627,-2.18237 3.11523,-2.72266 z m -0.33033,52.07225 c -0.0983,-0.54716 -1.10434,-1.29566 -2.40578,-2.37721 -1.69576,-1.40919 -2.34535,-1.98387 -2.48697,-1.91769 -0.2502,0.11679 -1.56075,0.90406 -1.67402,1.08813 -0.0552,0.0899 0.94197,0.65975 3.26298,3.29631 2.321,2.63652 2.10784,3.99753 2.59317,4.12335 0.48529,0.12586 0.80889,-3.66569 0.71062,-4.21289 z m -0.0699,-25.93553 c -7.5e-4,-12.52316 -11.98628,-22.67554 -22.67576,-22.67577 -10.68991,-2.2e-4 -22.67698,10.15185 -22.67774,22.67577 -3e-4,12.52471 10.15306,22.67803 22.67774,22.67773 12.52395,-7.5e-4 22.6761,-10.15381 22.67576,-22.67773 z m -1.65037,35.51369 c -0.0151,-0.80515 -1.48928,-4.20688 -3.57331,-6.97315 -2.21345,-2.93798 -4.40474,-4.21282 -4.75567,-4.12774 -0.15345,0.0378 -0.74661,0.42047 -1.42027,0.68251 -0.84438,0.32844 -1.78836,0.55668 -1.84396,0.70186 -0.13606,0.35565 3.33544,2.40506 6.08712,5.74046 2.76072,3.34631 4.17853,7.84611 4.49567,7.66994 0.31711,-0.17612 1.02573,-2.88873 1.01042,-3.69388 z m -0.0302,-70.9629 c 0.0506,-0.50838 -0.61595,-3.28388 -0.94727,-3.62891 -0.40013,-0.41673 -1.98795,4.64931 -5.36719,8.54298 -3.55869,4.10041 -6.31491,4.86489 -6.15624,5.0293 0.35943,0.37228 3.08949,1.38739 3.5371,1.42186 0.21695,0.0151 2.21492,-0.51209 5.36134,-4.33595 3.40214,-4.13461 3.5461,-6.76721 3.57226,-7.02928 z m -2.66211,80.32811 c 0,0 0.0435,-4.61023 -3.87697,-10.33591 -1.61865,-2.36402 -6.10764,-6.51099 -9.1875,-7.34377 0,0 -5.34886,0.0488 -7.90624,-0.33222 -4.29804,-0.64029 -7.76171,-2.125 -7.76171,-2.125 l -10.5371,5.80471 4.64258,-8.70508 c 0,0 -2.07364,-2.00777 -3.32814,-3.10353 -1.10445,-0.96472 -2.83203,-3.05858 -2.83203,-3.05858 l -8.40038,0.68553 5.9492,-4.87306 c 0,0 -1.29086,-2.91775 -1.73046,-4.55663 -0.47977,-1.7887 -0.91993,-5.04102 -0.91993,-5.04102 l -6.18751,-1.89256 6.12307,-1.39064 c 0,0 0.2177,-2.83329 0.78516,-5.04295 0.56753,-2.20966 2.24609,-4.74221 2.24609,-4.74221 l -6.06055,-5.49218 8.58592,1.07229 2.63478,-3.1719 3.23634,-2.7617 -4.54492,-8.83789 9.8496,6.06054 c 0,0 3.69464,-1.85809 8.11328,-2.43556 2.77157,-0.36208 7.98437,-0.15421 7.98437,-0.15421 0,0 3.9583,-1.3751 7.30273,-5.09374 2.55031,-2.83563 5.77394,-9.75912 5.65625,-13.40039 0,0 0.0302,-0.79718 -0.24605,-1.00195 -0.30538,-0.18709 -2.43908,1.01518 -6.02343,0.32806 -3.58435,-0.68708 -5.33333,-3.25807 -5.83593,-3.23437 -0.46315,0.0227 -119.02345,49.29687 -119.02345,49.29687 l 118.93043,49.26365 c 0.50438,0.20938 1.47156,-1.36842 5.72266,-2.50783 4.2511,-1.13938 6.06852,-0.0646 6.19725,-0.45899 0,0 0.17651,-0.53246 0.44142,-1.41796 z m -1.21678,3.91408 c -0.001,-0.0627 -0.0113,-0.11452 -0.0302,-0.1542 -0.17953,-0.23169 -2.80241,-0.38876 -4.59179,0.10356 -1.90832,0.52501 -3.23803,1.80948 -2.88672,2.02734 0.44791,0.23092 0.779,0.49568 1.28322,0.53321 0.21808,-0.0113 1.5817,-0.74702 2.90623,-0.97659 1.35549,-0.23509 2.38587,0.16101 2.6719,0.0302 0.28422,-0.20334 0.65575,-1.12362 0.64649,-1.5625 z m -0.0227,-97.41018 c 0.0265,-0.27704 -0.36548,-1.37601 -0.56444,-1.57028 -0.25209,-0.24604 -1.38954,0.61622 -3.33592,0.28309 -1.94642,-0.33298 -2.00557,-1.37163 -2.32619,-1.38089 -0.3205,-0.008 -1.63475,0.53783 -1.92381,0.79688 -0.28914,0.25889 1.29505,2.07908 3.61326,2.43556 2.31821,0.35641 4.50494,-0.22375 4.5371,-0.56447 z"
         style="opacity:1;fill:#3c3c3c;fill-opacity:1;fill-rule:nonzero;stroke:none;stroke-width:0.2;stroke-linecap:round;stroke-linejoin:round;stroke-miterlimit:4;stroke-dasharray:none;stroke-opacity:1;paint-order:stroke fill markers" />
      <path
         style="opacity:1;fill:#3c3c3c;fill-opacity:1;fill-rule:nonzero;stroke:none;stroke-width:0.2;stroke-linecap:round;stroke-linejoin:round;stroke-miterlimit:4;stroke-dasharray:none;stroke-opacity:1;paint-order:stroke fill markers"
         d="m 19.17881,170.75987 c 1.14e-4,33.93104 11.50783,57.85349 11.50783,57.85349 l 139.6738,-57.85349 -139.6738,-57.85546 c 0,0 -11.507943,23.92441 -11.50783,57.85546 z m 7.298835,-26.13869 c -0.06879,-0.62967 0.440617,-3.66988 0.757795,-3.9453 0.299339,-0.26003 1.784769,2.23337 3.578155,4.30466 1.667263,1.92571 3.518551,3.04093 3.412082,3.23244 -0.221103,0.39749 -1.569109,0.86075 -2.05663,0.93944 -0.587263,0.0949 -1.217764,-0.45959 -2.576164,-1.80858 -1.381002,-1.37144 -3.056277,-2.18237 -3.115238,-2.72266 z m 0.330331,52.07225 c 0.09827,-0.54716 1.10434,-1.29566 2.405782,-2.37721 1.695761,-1.40919 2.345349,-1.98387 2.486967,-1.91769 0.250205,0.11679 1.560756,0.90406 1.674029,1.08813 0.05518,0.0899 -0.941972,0.65975 -3.26298,3.29631 -2.321008,2.63652 -2.107842,3.99753 -2.593171,4.12335 -0.485292,0.12586 -0.808895,-3.66569 -0.710627,-4.21289 z m 0.06992,-25.93553 c 7.56e-4,-12.52316 11.98628,-22.67554 22.675767,-22.67577 10.689902,-2.2e-4 22.676976,10.15185 22.677732,22.67577 3.03e-4,12.52471 -10.153058,22.67803 -22.677732,22.67773 -12.523956,-7.5e-4 -22.676107,-10.15381 -22.675767,-22.67773 z m 1.650369,35.51369 c 0.01512,-0.80515 1.489285,-4.20688 3.573316,-6.97315 2.213443,-2.93798 4.404737,-4.21282 4.755666,-4.12774 0.153449,0.0378 0.746608,0.42047 1.420271,0.68251 0.844384,0.32844 1.788359,0.55668 1.843956,0.70186 0.136063,0.35565 -3.335433,2.40506 -6.087118,5.74046 -2.760718,3.34631 -4.178532,7.84611 -4.495673,7.66994 -0.317102,-0.17612 -1.025726,-2.88873 -1.010418,-3.69388 z m 0.03024,-70.9629 c -0.05065,-0.50838 0.615949,-3.28388 0.947263,-3.62891 0.400138,-0.41673 1.987956,4.64931 5.367193,8.54298 3.55869,4.10041 6.314911,4.86489 6.156246,5.0293 -0.359433,0.37228 -3.089499,1.38739 -3.537109,1.42186 -0.216944,0.0151 -2.214916,-0.51209 -5.361335,-4.33595 -3.402142,-4.13461 -3.546104,-6.76721 -3.572258,-7.02928 z m 2.66211,80.32811 c 0,0 -0.04346,-4.61023 3.876964,-10.33591 1.618658,-2.36402 6.107641,-6.51099 9.187502,-7.34377 0,0 5.348863,0.0488 7.906243,-0.33222 4.298041,-0.64029 7.761713,-2.125 7.761713,-2.125 l 10.537096,5.80471 -4.642583,-8.70508 c 0,0 2.073638,-2.00777 3.328139,-3.10353 1.104454,-0.96472 2.832038,-3.05858 2.832038,-3.05858 l 8.400378,0.68553 -5.949203,-4.87306 c 0,0 1.290859,-2.91775 1.730456,-4.55663 0.479774,-1.7887 0.919937,-5.04102 0.919937,-5.04102 l 6.187503,-1.89256 -6.123062,-1.39064 c 0,0 -0.217701,-2.83329 -0.785159,-5.04295 -0.567534,-2.20966 -2.246097,-4.74221 -2.246097,-4.74221 l 6.060548,-5.49218 -8.585915,1.07229 -2.634785,-3.1719 -3.236333,-2.7617 4.544919,-8.83789 -9.8496,6.06054 c 0,0 -3.694639,-1.85809 -8.113285,-2.43556 -2.771565,-0.36208 -7.984365,-0.15421 -7.984365,-0.15421 0,0 -3.958299,-1.3751 -7.302728,-5.09374 -2.550312,-2.83563 -5.773946,-9.75912 -5.656252,-13.40039 0,0 -0.03024,-0.79718 0.246048,-1.00195 0.305385,-0.18709 2.43908,1.01518 6.023433,0.32806 3.584352,-0.68708 5.333329,-3.25807 5.83593,-3.23437 0.463144,0.0227 119.023445,49.29687 119.023445,49.29687 L 43.583107,220.0214 c -0.504378,0.20938 -1.47156,-1.36842 -5.722659,-2.50783 -4.251099,-1.13938 -6.068523,-0.0646 -6.197253,-0.45899 0,0 -0.176504,-0.53246 -0.441411,-1.41796 z m 1.216781,3.91408 c 0.0013,-0.0627 0.01134,-0.11452 0.03024,-0.1542 0.179528,-0.23169 2.802407,-0.38876 4.591786,0.10356 1.908321,0.52501 3.238035,1.80948 2.886728,2.02734 -0.447912,0.23092 -0.778999,0.49568 -1.283225,0.53321 -0.218079,-0.0113 -1.581695,-0.74702 -2.90623,-0.97659 -1.35549,-0.23509 -2.385865,0.16101 -2.6719,0.0302 -0.28422,-0.20334 -0.655748,-1.12362 -0.646488,-1.5625 z m 0.02268,-97.41018 c -0.02646,-0.27704 0.365481,-1.37601 0.564435,-1.57028 0.252094,-0.24604 1.389543,0.61622 3.335924,0.28309 1.946419,-0.33298 2.005569,-1.37163 2.326186,-1.38089 0.320504,-0.008 1.634759,0.53783 1.923817,0.79688 0.289134,0.25889 -1.295055,2.07908 -3.613266,2.43556 -2.318211,0.35641 -4.504932,-0.22375 -4.537096,-0.56447 z"
         id="path923"
         inkscape:connector-curvature="0"
         sodipodi:nodetypes="scccsccccccczssszzzcsccczssssszzccscccccscccccccccccccscccccccccsccscccscccccccccccccsccscc" />
      <path
         sodipodi:nodetypes="scccsccccccczssszzzcsccczssssszzccscccccscccccccccccccscccccccccsccscccscccccccccccccsccscc"
         inkscape:connector-curvature="0"
         id="path931"
         d="M 63.736167,63.18888 C 87.729122,39.196099 112.78205,30.417541 112.78205,30.417541 L 170.63773,170.09044 30.963439,112.23615 c 0,0 8.779775,-25.054489 32.772728,-49.04727 z M 50.414392,86.832773 c -0.493897,0.396623 -2.283425,2.906532 -2.253912,3.325606 0.02778,0.395528 2.841259,-0.317102 5.574007,-0.513751 2.540594,-0.182551 4.638243,0.33789 4.698372,0.126992 0.124724,-0.437405 -0.500893,-1.718136 -0.789959,-2.118539 -0.348246,-0.482305 -1.18609,-0.536088 -3.100497,-0.54274 -1.946256,-0.0076 -3.704289,-0.617953 -4.128011,-0.277795 z M 87.468618,50.245699 c -0.317404,0.456378 -0.135307,1.697083 0.02003,3.382072 0.20262,2.195528 0.255609,3.061228 0.402535,3.114595 0.259615,0.09411 1.742872,0.464353 1.953127,0.414274 0.102501,-0.02268 -0.199559,-1.132573 0.02343,-4.638085 0.223106,-3.505511 1.336218,-4.317165 1.082022,-4.749316 -0.254173,-0.432151 -3.164024,2.020044 -3.481455,2.47646 z M 69.178865,68.634347 c -8.854681,8.855736 -7.558455,24.509594 -8e-6,32.068383 7.558741,7.55906 23.213488,8.85661 32.069773,10e-4 8.85652,-8.856073 8.8565,-23.215065 0,-32.071141 -8.856312,-8.855244 -23.214249,-8.854602 -32.069765,0.0014 z M 95.45781,44.689377 c -0.558637,0.580007 -1.921629,4.027767 -2.40404,7.457462 -0.51233,3.642595 0.135723,6.093543 0.444004,6.281537 0.134702,0.08239 0.825263,0.230551 1.486911,0.52165 0.829342,0.364725 1.658192,0.870917 1.800151,0.807572 0.347641,-0.155339 -0.657861,-4.059137 -0.24514,-8.363339 0.414089,-4.318337 2.593372,-8.502727 2.244552,-8.602393 -0.348813,-0.09978 -2.767948,1.317354 -3.326449,1.897511 z M 45.300849,94.8891 c -0.395291,0.323528 -1.886512,2.757581 -1.89621,3.235843 -0.01172,0.577587 4.693255,-1.881865 9.835969,-2.245644 5.415818,-0.383055 7.905336,1.02531 7.909376,0.796875 0.0091,-0.517417 -1.203572,-3.165619 -1.495699,-3.506532 -0.141657,-0.165165 -1.92827,-1.204082 -6.857009,-0.725065 -5.329302,0.517947 -7.292615,2.277695 -7.496427,2.444523 z M 103.9838,39.97094 c 0,0 -3.29066,3.22919 -4.567177,10.050028 -0.527043,2.816164 -0.285203,8.922709 1.303737,11.689361 0,0 3.81679,3.747628 5.35577,5.82531 2.5864,3.491943 3.98576,6.990992 3.98576,6.990992 l 11.55538,3.346318 -9.43822,2.872592 c 0,0 0.0466,2.885972 0.15886,4.547868 0.0988,1.463168 -0.16022,4.165304 -0.16022,4.165304 l 6.42472,5.455219 -7.65249,-0.76097 c 0,0 -1.15038,2.975962 -1.99841,4.445669 -0.92557,1.604069 -2.91404,4.215009 -2.91404,4.215009 l 3.03697,5.71351 -5.31297,-3.34636 c 0,0 -2.1574,1.84951 -4.121118,3.01074 -1.96377,1.16114 -4.941463,1.765 -4.941463,1.765 l 0.401892,8.16903 -5.312954,-6.82938 -4.105927,0.37977 -4.241265,-0.33562 -3.035592,9.46306 -2.679262,-11.25018 c 0,0 -3.926373,-1.29864 -7.459151,-4.01476 -2.215929,-1.70366 -5.754894,-5.53671 -5.754894,-5.53671 0,0 -3.771288,-1.826567 -8.765631,-1.561963 -3.808443,0.201827 -10.98353,2.817943 -13.475081,5.475933 0,0 -0.585078,0.54232 -0.534511,0.88248 0.08365,0.34809 2.442545,1.00683 4.491239,4.02716 2.048689,3.02034 1.467424,6.07506 1.839574,6.41367 0.342993,0.31181 119.020444,49.30413 119.020444,49.30413 L 115.82591,45.611998 c -0.20863,-0.50468 -2.00816,-0.07294 -5.81982,-2.273235 -3.81165,-2.200327 -4.33671,-4.245505 -4.70667,-4.057587 0,0 -0.50132,0.251716 -1.31478,0.69052 z m 3.62806,-1.907301 c -0.0434,0.04535 -0.0731,0.0892 -0.0877,0.130394 -0.037,0.290645 1.70671,2.256529 3.32009,3.173707 1.72062,0.978141 3.56913,1.010116 3.47477,0.607672 -0.15352,-0.479924 -0.20035,-0.901342 -0.53035,-1.284397 -0.16327,-0.145134 -1.64663,-0.590249 -2.74554,-1.364485 -1.1246,-0.792378 -1.57311,-1.80102 -1.86848,-1.910173 -0.34465,-0.05745 -1.25822,0.330709 -1.56199,0.647698 z M 38.748515,106.95906 c -0.214496,0.17726 -0.714568,1.23144 -0.711262,1.5095 0.0043,0.35226 1.418296,0.54683 2.559108,2.15861 1.140849,1.61181 0.448268,2.38802 0.668445,2.62129 0.220217,0.23319 1.536231,0.77563 1.923826,0.79684 0.38765,0.0227 0.554367,-2.38583 -0.83278,-4.27714 -1.387149,-1.89132 -3.343735,-3.02722 -3.607337,-2.8091 z"
         style="opacity:1;fill:#3c3c3c;fill-opacity:1;fill-rule:nonzero;stroke:none;stroke-width:0.2;stroke-linecap:round;stroke-linejoin:round;stroke-miterlimit:4;stroke-dasharray:none;stroke-opacity:1;paint-order:stroke fill markers" />
      <path
         style="opacity:1;fill:#3c3c3c;fill-opacity:1;fill-rule:nonzero;stroke:none;stroke-width:0.2;stroke-linecap:round;stroke-linejoin:round;stroke-miterlimit:4;stroke-dasharray:none;stroke-opacity:1;paint-order:stroke fill markers"
         d="m 278.8748,278.32753 c 23.99279,-23.99297 32.77135,-49.04591 32.77135,-49.04591 l -139.67291,-57.85565 57.8543,139.67425 c 0,0 25.05447,-8.77976 49.04726,-32.77269 z m -23.64389,13.32177 c -0.39661,0.49387 -2.90655,2.2834 -3.3256,2.25389 -0.39553,-0.0265 0.31722,-2.84126 0.51374,-5.57401 0.18274,-2.54056 -0.33774,-4.63824 -0.12703,-4.69837 0.43742,-0.12473 1.71816,0.5009 2.11855,0.78996 0.48229,0.34809 0.53609,1.18609 0.54275,3.10049 0.007,1.94627 0.61794,3.70432 0.27761,4.12804 z m 36.58707,-37.05426 c -0.45639,0.31748 -1.69707,0.13531 -3.38208,-0.0189 -2.19554,-0.20258 -3.06123,-0.25549 -3.11457,-0.40252 -0.0942,-0.25965 -0.46437,-1.74289 -0.41431,-1.95314 0.0246,-0.10243 1.1326,0.19956 4.63811,-0.0227 3.50552,-0.22299 4.31717,-1.33625 4.74932,-1.08204 0.43216,0.25436 -2.02007,3.16403 -2.47647,3.48143 z m -18.38863,18.28978 c -8.85576,8.85467 -24.50962,7.55845 -32.06839,0 -7.55907,-7.55876 -8.8566,-23.21348 -0.001,-32.06979 8.85608,-8.85649 23.21509,-8.85649 32.07115,0 8.85524,8.85634 8.85461,23.21428 -10e-4,32.06979 z m 23.94497,-26.27894 c -0.58002,0.55861 -4.0278,1.92162 -7.45748,2.40404 -3.64261,0.51231 -6.09353,-0.13569 -6.28152,-0.44402 -0.0823,-0.13455 -0.23059,-0.82526 -0.52166,-1.4869 -0.3648,-0.82935 -0.87093,-1.6582 -0.8076,-1.80015 0.15523,-0.34772 4.05916,0.65786 8.36336,0.24529 4.31834,-0.41409 8.50271,-2.5934 8.6024,-2.24455 0.0997,0.34885 -1.31735,2.76794 -1.8975,3.32644 z m -50.19973,50.15693 c -0.32368,0.3953 -2.75759,1.88652 -3.23584,1.89623 -0.57761,0.0113 1.88186,-4.69327 2.24561,-9.83596 0.38307,-5.41583 -1.0253,-7.90533 -0.79687,-7.90938 0.51743,-0.008 3.16564,1.20356 3.50653,1.49568 0.16517,0.14173 1.20409,1.92827 0.72506,6.85701 -0.51795,5.32932 -2.27766,7.29263 -2.44449,7.49642 z m 54.91817,-58.68294 c 0,0 -3.2292,3.29068 -10.05004,4.56718 -2.81617,0.52705 -8.92272,0.28535 -11.68936,-1.30371 0,0 -3.74764,-3.81684 -5.82534,-5.35578 -3.49194,-2.58641 -6.99096,-3.98578 -6.99096,-3.98578 l -3.34632,-11.55538 -2.87262,9.43824 c 0,0 -2.88596,-0.0465 -4.54786,-0.15874 -1.46314,-0.0986 -4.16531,0.16025 -4.16531,0.16025 l -5.45521,-6.42474 0.76096,7.65248 c 0,0 -2.97594,1.15042 -4.44565,1.99843 -1.60407,0.92557 -4.21503,2.91405 -4.21503,2.91405 l -5.71348,-3.03696 3.34635,5.31296 c 0,0 -1.84953,2.15739 -3.01073,4.12112 -1.16116,1.96376 -1.76501,4.94147 -1.76501,4.94147 l -8.16902,-0.40192 6.82937,5.31296 -0.37978,4.10593 0.33558,4.24127 -9.46308,3.0356 11.25018,2.67923 c 0,0 1.29864,3.9264 4.01477,7.45916 1.70365,2.21594 5.5367,5.7549 5.5367,5.7549 0,0 1.82659,3.77129 1.56198,8.76563 -0.20175,3.80844 -2.81793,10.98354 -5.47593,13.47508 0,0 -0.54231,0.58507 -0.88247,0.53454 -0.34825,-0.0835 -1.00684,-2.44256 -4.02718,-4.49125 -3.02035,-2.0487 -6.07504,-1.46744 -6.41368,-1.83958 -0.312,-0.34318 -49.30413,-119.02046 -49.30413,-119.02046 l 118.93117,49.26188 c 0.50468,0.20863 0.0729,2.00817 2.27324,5.81983 2.20031,3.81165 4.24548,4.3367 4.05757,4.70664 0,0 -0.25172,0.50136 -0.69053,1.31479 z m 1.90726,-3.62805 c -0.0453,0.0435 -0.0891,0.0729 -0.13047,0.0877 -0.29075,0.0378 -2.25649,-1.70672 -3.17368,-3.32009 -0.97815,-1.72063 -1.01014,-3.56916 -0.60767,-3.47479 0.47991,0.15345 0.90134,0.20032 1.28441,0.53035 0.14513,0.16327 0.59021,1.64662 1.36448,2.74556 0.79235,1.1246 1.80102,1.57308 1.91016,1.86845 0.0573,0.34469 -0.33086,1.25824 -0.64772,1.562 z m -68.89541,68.86333 c -0.17707,0.21468 -1.23144,0.7146 -1.5095,0.71127 -0.35217,-0.004 -0.54681,-1.4183 -2.1586,-2.55912 -1.6118,-1.14085 -2.38803,-0.44825 -2.62127,-0.66844 -0.23305,-0.22035 -0.77567,-1.53623 -0.79687,-1.92382 -0.0212,-0.38763 2.38585,-0.55438 4.27715,0.83278 1.8913,1.38716 3.0272,3.34375 2.80909,3.60733 z"
         id="path933"
         inkscape:connector-curvature="0"
         sodipodi:nodetypes="scccsccccccczssszzzcsccczssssszzccscccccscccccccccccccscccccccccsccscccscccccccccccccsccscc" />
      <path
         style="opacity:1;fill:#3c3c3c;fill-opacity:1;fill-rule:nonzero;stroke:none;stroke-width:0.2;stroke-linecap:round;stroke-linejoin:round;stroke-miterlimit:4;stroke-dasharray:none;stroke-opacity:1;paint-order:stroke fill markers"
         d="m 278.87481,63.190278 c 23.99279,23.992932 32.77133,49.045832 32.77133,49.045832 L 171.97325,170.09183 229.82752,30.417503 c 0,0 25.05449,8.779805 49.04729,32.772775 z m -23.6439,-13.321814 c -0.39661,-0.493871 -2.90656,-2.283439 -3.32559,-2.253883 -0.39553,0.02646 0.31722,2.841222 0.51371,5.573971 0.18274,2.540636 -0.33773,4.638274 -0.12703,4.698407 0.43742,0.124724 1.71817,-0.500901 2.11855,-0.789997 0.48233,-0.348095 0.5361,-1.186054 0.54276,-3.10046 0.007,-1.946268 0.61794,-3.704277 0.27761,-4.128038 z m 36.58706,37.054224 c -0.45638,-0.317481 -1.69706,-0.135307 -3.38208,0.0189 -2.19554,0.202583 -3.06123,0.255496 -3.11457,0.40252 -0.0943,0.259654 -0.46435,1.742891 -0.41429,1.953146 0.0246,0.102804 1.13258,-0.199559 4.63811,0.02268 3.50551,0.222992 4.31716,1.336214 4.74931,1.082003 0.43214,-0.254362 -2.02006,-3.164032 -2.47648,-3.481474 z M 273.42934,68.632949 c -8.85575,-8.854677 -24.50961,-7.55845 -32.06838,0 -7.55906,7.558753 -8.8566,23.21348 -0.001,32.069781 8.8561,8.85649 23.21509,8.85649 32.07116,0 8.85524,-8.856338 8.8546,-23.214272 -0.001,-32.069781 z m 23.94498,26.278942 c -0.58002,-0.558614 -4.02779,-1.921625 -7.45748,-2.404044 -3.6426,-0.512315 -6.09353,0.135685 -6.28151,0.444019 -0.0818,0.135307 -0.23063,0.825259 -0.52168,1.486904 -0.36484,0.829303 -0.87092,1.658192 -0.80759,1.800151 0.15527,0.347716 4.05915,-0.657865 8.36337,-0.245292 4.31832,0.414085 8.5027,2.593399 8.60239,2.244586 0.0997,-0.34885 -1.31735,-2.767937 -1.8975,-3.326475 z M 247.1746,44.754952 c -0.32368,-0.395301 -2.7576,-1.886513 -3.23585,-1.896227 -0.57761,-0.01134 1.88186,4.693267 2.24562,9.835994 0.38305,5.415799 -1.02532,7.905298 -0.79687,7.90938 0.5174,0.0076 3.16564,-1.203591 3.50652,-1.495711 0.16411,-0.142866 1.20408,-1.928315 0.72506,-6.857045 -0.51794,-5.329285 -2.27767,-7.292599 -2.44448,-7.496391 z m 54.91815,58.682948 c 0,0 -3.22919,-3.29068 -10.05002,-4.567181 -2.81618,-0.527055 -8.92272,-0.285354 -11.68937,1.303711 0,0 -3.74775,3.81672 -5.82548,5.35567 -3.49192,2.5864 -6.99096,3.98573 -6.99096,3.98573 l -3.3463,11.55542 -2.87262,-9.43824 c 0,0 -2.88599,0.0465 -4.54787,0.15874 -1.46314,0.099 -4.1653,-0.16025 -4.1653,-0.16025 l -5.45522,6.42471 0.76095,-7.65249 c 0,0 -2.97595,-1.15041 -4.44565,-1.99842 -1.60405,-0.92554 -4.21503,-2.91406 -4.21503,-2.91406 l -5.71347,3.037 3.34633,-5.31299 c 0,0 -1.8495,-2.15736 -3.01071,-4.121085 -1.16116,-1.963767 -1.76502,-4.941506 -1.76502,-4.941506 l -8.16902,0.401915 6.82939,-5.312919 -0.3798,-4.105966 0.33562,-4.241234 -9.46307,-3.035604 11.25017,-2.679269 c 0,0 1.29864,-3.926362 4.01475,-7.459162 1.70377,-2.215824 5.53676,-5.754822 5.53676,-5.754822 0,0 1.8266,-3.771288 1.56199,-8.765632 -0.20175,-3.808441 -2.81794,-10.983533 -5.47593,-13.475074 0,0 -0.54231,-0.58507 -0.88247,-0.534538 -0.34825,0.08353 -1.00685,2.442557 -4.02724,4.491212 -3.02036,2.048656 -6.07503,1.46744 -6.41367,1.839572 -0.31147,0.343559 -49.30413,119.020422 -49.30413,119.020422 l 118.93116,-49.26168 c 0.50471,-0.20863 0.0729,-2.00818 2.27323,-5.81983 2.20032,-3.81166 4.24539,-4.33682 4.05757,-4.70669 0,0 -0.25172,-0.50131 -0.69053,-1.31478 z m 1.90728,3.62804 c -0.0453,-0.0435 -0.089,-0.0729 -0.13043,-0.0877 -0.29076,-0.0378 -2.2565,1.70672 -3.17365,3.32013 -0.97815,1.72063 -1.01014,3.56912 -0.60768,3.47474 0.48001,-0.15345 0.90133,-0.20031 1.28441,-0.53034 0.14619,-0.16214 0.5902,-1.64663 1.36446,-2.74556 0.79225,-1.12472 1.80091,-1.57319 1.9107,-1.86792 0.0572,-0.34469 -0.33082,-1.25821 -0.64771,-1.56201 z M 235.1046,38.202574 c -0.17719,-0.214677 -1.23142,-0.714519 -1.50948,-0.711231 -0.35225,0.0038 -0.54682,1.418305 -2.15868,2.559042 -1.61177,1.140888 -2.38803,0.448252 -2.6213,0.66841 -0.23198,0.221102 -0.77564,1.536264 -0.79686,1.923817 -0.0215,0.387515 2.38587,0.554419 4.27717,-0.832743 1.89124,-1.3872 3.02725,-3.343673 2.80907,-3.60737 z"
         id="path935"
         inkscape:connector-curvature="0"
         sodipodi:nodetypes="scccsccccccczssszzzcsccczssssszzccscccccscccccccccccccscccccccccsccscccscccccccccccccsccscc" />
      <path
         sodipodi:nodetypes="scccsccccccczssszzzcsccczssssszzccscccccscccccccccccccscccccccccsccscccscccccccccccccsccscc"
         inkscape:connector-curvature="0"
         id="path937"
         d="m 63.736175,278.32889 c 23.992955,23.99281 49.045855,32.77133 49.045855,32.77133 l 57.8557,-139.67289 -139.674278,57.85432 c 0,0 8.779768,25.05445 32.772723,49.04724 z M 50.41439,254.68499 c -0.493884,-0.39658 -2.283436,-2.90657 -2.253905,-3.32557 0.02778,-0.39556 2.841246,0.31711 5.573988,0.51372 2.540614,0.18293 4.638254,-0.33789 4.698386,-0.12699 0.124724,0.4374 -0.500886,1.71817 -0.78997,2.11853 -0.348171,0.48235 -1.18607,0.53609 -3.100483,0.54274 -1.94627,0.008 -3.704287,0.61796 -4.128016,0.2778 z m 37.054221,36.58708 c -0.317405,-0.45638 -0.13527,-1.69705 0.02003,-3.38211 0.202621,-2.19553 0.25561,-3.06119 0.402535,-3.11456 0.259502,-0.0945 1.742891,-0.46435 1.953139,-0.41427 0.102614,0.0227 -0.199559,1.13257 0.02343,4.63812 0.223106,3.50547 1.33621,4.31713 1.081999,4.74928 -0.254173,0.43215 -3.164008,-2.02005 -3.481451,-2.47646 z m -18.28975,-18.38865 c -8.854677,-8.85574 -7.558447,-24.5096 0,-32.06839 7.558741,-7.55905 23.213484,-8.8566 32.069769,-0.001 8.85652,8.85608 8.85649,23.21507 0,32.07115 -8.856312,8.85524 -23.21426,8.8546 -32.069769,-10e-4 z m 26.278957,23.94501 c -0.558641,-0.58005 -1.921629,-4.02781 -2.404048,-7.4575 -0.512323,-3.6426 0.135723,-6.09355 0.444015,-6.2815 0.135231,-0.0816 0.825248,-0.23055 1.486889,-0.52169 0.829311,-0.36472 1.658196,-0.87092 1.800162,-0.80757 0.347679,0.15534 -0.657872,4.05913 -0.24514,8.36334 0.414081,4.31833 2.593368,8.50272 2.244552,8.60239 -0.348775,0.0998 -2.767941,-1.31735 -3.326445,-1.89747 z M 45.300852,246.62867 c -0.395294,-0.32353 -1.886512,-2.75759 -1.896213,-3.23585 -0.01172,-0.57758 4.693255,1.88187 9.835978,2.24565 5.415801,0.38305 7.905315,-1.02531 7.909378,-0.79688 0.0091,0.51742 -1.203575,3.16562 -1.49571,3.50653 -0.142715,0.16404 -1.928281,1.20409 -6.857015,0.72503 -5.329291,-0.51791 -7.292611,-2.27766 -7.496418,-2.44448 z m 58.682948,54.91816 c 0,0 -3.29066,-3.22919 -4.567165,-10.04999 -0.527048,-2.81621 -0.285203,-8.92275 1.303715,-11.6894 0,0 3.81669,-3.74774 5.35564,-5.82546 2.58642,-3.49195 3.98576,-6.99096 3.98576,-6.99096 l 11.5554,-3.34632 -9.43822,-2.87263 c 0,0 0.0466,-2.88597 0.15881,-4.54786 0.0988,-1.46313 -0.16017,-4.16531 -0.16017,-4.16531 l 6.42471,-5.45522 -7.6525,0.76097 c 0,0 -1.15039,-2.97596 -1.99841,-4.44567 -0.92555,-1.60403 -2.91405,-4.215 -2.91405,-4.215 l 3.03699,-5.71348 -5.31299,3.34632 c 0,0 -2.15737,-1.84951 -4.121096,-3.01069 -1.963774,-1.16119 -4.941483,-1.76504 -4.941483,-1.76504 l 0.401896,-8.169 -5.312935,6.82938 -4.105938,-0.3798 -4.241254,0.33562 -3.035592,-9.46307 -2.679265,11.25014 c 0,0 -3.926374,1.29865 -7.459163,4.01477 -2.215819,1.70377 -5.754837,5.53678 -5.754837,5.53678 0,0 -3.771288,1.82657 -8.765631,1.56197 -3.808435,-0.20183 -10.983535,-2.81795 -13.475081,-5.47594 0,0 -0.58507,-0.54232 -0.534506,-0.88248 0.08365,-0.34809 2.442532,-1.00683 4.491186,-4.02724 2.048681,-3.02033 1.467433,-6.07502 1.839582,-6.41366 0.343525,-0.31144 119.020437,-49.30413 119.020437,-49.30413 l -49.26186,118.93119 c -0.20859,0.50471 -2.00816,0.0729 -5.81983,2.27323 -3.81164,2.20029 -4.33679,4.24539 -4.70667,4.05755 0,0 -0.50132,-0.25172 -1.31478,-0.69052 z m 3.62807,1.9073 c -0.0434,-0.0454 -0.0729,-0.0892 -0.0876,-0.1304 -0.037,-0.29064 1.7067,-2.25649 3.32011,-3.17367 1.72063,-0.97814 3.56914,-1.01011 3.47477,-0.60767 -0.15341,0.48004 -0.20035,0.90134 -0.53034,1.28444 -0.16221,0.14626 -1.64665,0.59021 -2.74557,1.36444 -1.1247,0.79227 -1.57321,1.80091 -1.86794,1.91071 -0.34476,0.0571 -1.25819,-0.33071 -1.56198,-0.6477 z M 38.748504,234.55867 c -0.214605,-0.17726 -0.714554,-1.23141 -0.71124,-1.50947 0.0043,-0.35225 1.418285,-0.54682 2.559027,-2.15868 1.140876,-1.61178 0.448263,-2.38802 0.668426,-2.62129 0.221284,-0.23206 1.536251,-0.77563 1.923821,-0.79687 0.387517,-0.0227 0.554389,2.38586 -0.83276,4.27717 -1.387204,1.89124 -3.343682,3.02726 -3.607354,2.80906 z"
         style="opacity:1;fill:#3c3c3c;fill-opacity:1;fill-rule:nonzero;stroke:none;stroke-width:0.2;stroke-linecap:round;stroke-linejoin:round;stroke-miterlimit:4;stroke-dasharray:none;stroke-opacity:1;paint-order:stroke fill markers" />
      <circle
         r="151.1561"
         inkscape:label="Cut"
         cy="170.75887"
         cx="171.30479"
         id="path826"
         style="display:inline;opacity:1;fill:none;fill-opacity:1;fill-rule:nonzero;stroke:#ff0000;stroke-width:0.04999177;stroke-linecap:round;stroke-linejoin:round;stroke-miterlimit:4;stroke-dasharray:none;stroke-opacity:1;paint-order:stroke fill markers" />
    </pattern>
  </defs>
  <sodipodi:namedview
     id="base"
     pagecolor="#ffffff"
     bordercolor="#666666"
     borderopacity="1.0"
     inkscape:pageopacity="0.0"
     inkscape:pageshadow="2"
     inkscape:zoom="2.8284271"
     inkscape:cx="99.504382"
     inkscape:cy="152.04678"
     inkscape:document-units="in"
     inkscape:current-layer="g1586"
     showgrid="false"
     units="cm"
     inkscape:window-width="1920"
     inkscape:window-height="1017"
     inkscape:window-x="-32000"
     inkscape:window-y="-32000"
     inkscape:window-maximized="0"
     fit-margin-top="0"
     fit-margin-left="0"
     fit-margin-right="0"
     fit-margin-bottom="0"
     inkscape:snap-intersection-paths="false"
     inkscape:object-paths="true"
     inkscape:snap-nodes="false"
     inkscape:object-nodes="false" />
  <metadata
     id="metadata5">
    <rdf:RDF>
      <cc:Work
         rdf:about="">
        <dc:format>image/svg+xml</dc:format>
        <dc:type
           rdf:resource="http://purl.org/dc/dcmitype/StillImage" />
        <dc:title></dc:title>
      </cc:Work>
    </rdf:RDF>
  </metadata>
  <g
     inkscape:label="Layer 1"
     inkscape:groupmode="layer"
     id="layer1"
     transform="translate(0,-207.00003)"
     style="opacity:1">
    <g
       aria-label="             0           1            2           3            4           5            6           7"
       style="font-style:normal;font-weight:normal;font-size:10.58333302px;line-height:1.25;font-family:sans-serif;letter-spacing:0px;word-spacing:0px;fill:#feffff;fill-opacity:1;stroke:#3c3c3c;stroke-width:0.26458332;stroke-opacity:1"
       id="text1738"
       inkscape:label="Numbers"
       transform="rotate(-90,40.25,247.25003)">
      <path
         d="m 60.348202,269.47934 c -0.217212,-0.23182 -0.374566,-0.47864 -0.464576,-0.73301 -0.08249,-0.21695 -0.120114,-0.46388 -0.08291,-0.72584 0.02972,-0.26943 0.164199,-0.53894 0.433388,-0.80858 0.269187,-0.26962 0.545963,-0.41204 0.815346,-0.44218 0.261895,-0.0376 0.501406,0.007 0.718494,0.0892 0.254513,0.0896 0.501598,0.24655 0.733765,0.46339 l 3.24301,3.23774 c 0.209722,0.22433 0.367077,0.47116 0.457086,0.72553 0.08249,0.21695 0.135081,0.46387 0.09788,0.72582 -0.03721,0.26196 -0.171677,0.54644 -0.440866,0.81606 -0.269188,0.26964 -0.545976,0.39708 -0.807869,0.43471 -0.261895,0.0376 -0.516371,-0.007 -0.733461,-0.0892 -0.254513,-0.0896 -0.501598,-0.24655 -0.726275,-0.4559 z m 4.050575,2.42886 c 0.149793,0.14955 0.284557,0.22427 0.449208,0.23911 0.07483,-2.8e-4 0.157125,-0.0375 0.22442,-0.10499 0.142071,-0.14231 0.104514,-0.3144 0.03706,-0.44157 -0.03749,-0.0823 -0.09742,-0.15707 -0.172309,-0.23184 l -3.243011,-3.23774 c -0.157283,-0.15703 -0.299524,-0.22427 -0.456685,-0.23162 -0.07483,2.8e-4 -0.149646,0.0301 -0.216943,0.0975 -0.142072,0.14231 -0.119493,0.29944 -0.03706,0.44156 0.02999,0.0748 0.08992,0.1496 0.17231,0.23185 z"
         style="font-style:normal;font-variant:normal;font-weight:normal;font-stretch:normal;font-family:'League Gothic';-inkscape-font-specification:'League Gothic';fill:#000000;fill-opacity:1;stroke:none;stroke-width:0.26458332;stroke-opacity:1"
         id="path1745"
         inkscape:connector-curvature="0"
         inkscape:label="0"
         inkscape:transform-center-x="-22.805467"
         inkscape:transform-center-y="22.77727" />
      <path
         d="m 41.531876,281.67074 0.0036,0.73024 c -0.475766,0.0976 -0.760291,0.34249 -0.96031,0.55516 -0.105194,0.12754 -0.18917,0.26554 -0.251979,0.40344 l -0.687907,0.003 -0.03902,-7.77865 1.142985,-0.006 0.03058,6.09593 z"
         style="font-style:normal;font-variant:normal;font-weight:normal;font-stretch:normal;font-family:'League Gothic';-inkscape-font-specification:'League Gothic';fill:#000000;fill-opacity:1;stroke:none;stroke-width:0.26458332;stroke-opacity:1"
         id="path1747"
         inkscape:connector-curvature="0"
         inkscape:label="1"
         inkscape:transform-center-x="-0.32980147"
         inkscape:transform-center-y="32.231909" />
      <path
         d="m 17.579938,272.15825 -0.381555,0.38176 c -0.36659,0.3668 -0.778099,0.67374 -1.197148,0.77863 -0.419049,0.10488 -0.860605,0.008 -1.302259,-0.43369 -0.411711,-0.41148 -0.531569,-0.84548 -0.456847,-1.24961 0.08221,-0.41163 0.366464,-0.81581 0.748017,-1.19758 0.561109,-0.56142 1.436555,-1.01817 2.319514,-1.37763 0.897924,-0.35946 1.77343,-0.60666 2.334656,-0.74901 l -1.280047,-1.27933 0.800516,-0.80096 2.193295,2.19206 -0.800516,0.80097 c -0.628579,0.13488 -1.242184,0.29969 -1.833331,0.48695 -0.501354,0.15728 -1.040111,0.36698 -1.54892,0.62156 -0.50881,0.25459 -0.980195,0.53161 -1.324346,0.86098 -0.149628,0.14972 -0.314217,0.32937 -0.403973,0.49403 -0.08975,0.16467 -0.119644,0.32931 1.1e-4,0.44902 0.112285,0.11221 0.261952,0.0972 0.419083,0.0148 0.164612,-0.0898 0.344176,-0.23956 0.523731,-0.41922 l 0.381553,-0.38177 z"
         style="font-style:normal;font-variant:normal;font-weight:normal;font-stretch:normal;font-family:'League Gothic';-inkscape-font-specification:'League Gothic';fill:#000000;fill-opacity:1;stroke:none;stroke-width:0.26458332;stroke-opacity:1"
         id="path1749"
         inkscape:connector-curvature="0"
         inkscape:label="2"
         inkscape:transform-center-x="22.453548"
         inkscape:transform-center-y="22.553023" />
      <path
         d="m 8.4051346,247.82797 -0.9524994,-6.9e-4 c -0.031415,-0.47627 -0.126509,-0.69859 -0.3486921,-0.79399 -0.1057955,-0.053 -0.243365,-0.0742 -0.4126973,-0.0744 -0.1693341,-7e-5 -0.3810063,9e-5 -0.6244166,-4.3e-4 -0.2222521,-3e-5 -0.4656643,-4.5e-4 -0.6667802,0.0419 -0.2011124,0.0422 -0.3387633,0.13735 -0.3388897,0.31726 -9.75e-5,0.1376 0.063343,0.2223 0.2643972,0.26478 0.2116297,0.053 0.539697,0.0745 1.058281,0.0748 l -7.889e-4,1.12184 c -0.4339244,1.2e-4 -1.0265697,-0.0116 -1.5026916,-0.20214 -0.4655326,-0.19083 -0.8251204,-0.54034 -0.8246147,-1.26 5.06e-4,-0.71966 0.3711827,-1.08982 0.7629,-1.28005 0.391717,-0.19022 0.8150577,-0.20051 0.9103076,-0.20044 1.1535825,8.4e-4 1.703775,0.20228 2.0527794,0.55177 l 0.010575,0.0106 c 0.4343032,-0.55003 1.2387108,-0.6553 2.1382939,-0.65467 0.03175,3e-5 0.1058358,-8e-5 0.2222378,0.011 0.222237,0.011 0.55028,0.0745 0.888866,0.19112 0.338577,0.12725 0.645345,0.33912 0.825031,0.66734 0.09513,0.16939 0.137322,0.37051 0.137152,0.61393 -5.03e-4,0.71966 -0.3606,1.08982 -0.836991,1.29058 -0.465808,0.20075 -1.05849,0.2215 -1.4924063,0.2212 l 7.888e-4,-1.12183 c 0.5185835,4.1e-4 0.8466895,-0.0311 1.0478175,-0.0945 0.21171,-0.0634 0.275278,-0.15856 0.275375,-0.29614 1.66e-4,-0.17992 -0.137391,-0.27526 -0.32786,-0.31773 -0.19047,-0.0425 -0.433885,-0.0427 -0.656137,-0.0428 -0.2434125,-4.2e-4 -0.4656646,-4.5e-4 -0.6667417,-0.0111 -0.3810063,9e-5 -0.6456346,0.0736 -0.8045562,0.31693 -0.074173,0.12696 -0.1272232,0.31742 -0.1379777,0.56083 z"
         style="font-style:normal;font-variant:normal;font-weight:normal;font-stretch:normal;font-family:'League Gothic';-inkscape-font-specification:'League Gothic';fill:#000000;fill-opacity:1;stroke:none;stroke-width:0.26458332;stroke-opacity:1"
         id="path1751"
         inkscape:connector-curvature="0"
         inkscape:label="3"
         inkscape:transform-center-x="32.226021"
         inkscape:transform-center-y="0.018532307" />
      <path
         d="m 19.005232,226.03428 -1.24349,1.25598 -0.714481,-0.70738 -2.43354,-4.76239 0.804172,-0.81225 3.610015,3.5741 0.372302,-0.37605 0.714482,0.70738 -0.372303,0.37604 1.203339,1.19137 -0.737158,0.74457 z m -1.272936,-0.14331 0.558453,-0.56407 -1.895257,-1.8764 -0.04467,0.0451 0.120783,0.20894 z"
         style="font-style:normal;font-variant:normal;font-weight:normal;font-stretch:normal;font-family:'League Gothic';-inkscape-font-specification:'League Gothic';fill:#000000;fill-opacity:1;stroke:none;stroke-width:0.26458332;stroke-opacity:1"
         id="path1753"
         inkscape:connector-curvature="0"
         inkscape:label="4"
         inkscape:transform-center-x="22.467012"
         inkscape:transform-center-y="-23.092258" />
      <path
         d="m 40.586135,215.23579 c -5.97e-4,-0.32809 -0.117522,-0.57128 -0.360938,-0.57081 -0.126996,-1.6e-4 -0.232649,0.0957 -0.31709,0.21229 -0.08442,0.12716 -0.126467,0.2754 -0.126303,0.36006 l -0.963082,0.002 -0.0079,-4.09574 2.762245,-0.005 0.0022,1.13241 -1.777997,0.003 0.0031,1.61925 c 0.126817,-0.0955 0.264236,-0.18043 0.422882,-0.23365 0.07403,-0.0319 0.158668,-0.0427 0.232771,-0.0322 0.59267,-0.002 0.910821,0.3369 1.080871,0.70699 0.17005,0.37009 0.191995,0.77221 0.192241,0.89921 l 0.0034,1.73566 c 7.1e-4,0.37042 -0.01948,0.86788 -0.219771,1.28101 -0.200263,0.42373 -0.580628,0.75255 -1.268544,0.75387 -0.709082,0.002 -1.069549,-0.32601 -1.271533,-0.79129 -0.201964,-0.45468 -0.224257,-1.03673 -0.22526,-1.55531 l 1.142997,-0.002 5.91e-4,0.30692 c 7.17e-4,0.39158 0.02246,0.6667 0.07566,0.81476 0.05322,0.15866 0.138034,0.23258 0.275617,0.2323 0.116413,7e-5 0.211522,-0.0745 0.264152,-0.22276 0.05263,-0.14826 0.08385,-0.42349 0.08309,-0.81507 z"
         style="font-style:normal;font-variant:normal;font-weight:normal;font-stretch:normal;font-family:'League Gothic';-inkscape-font-specification:'League Gothic';fill:#000000;fill-opacity:1;stroke:none;stroke-width:0.26458332;stroke-opacity:1"
         id="path1755"
         inkscape:connector-curvature="0"
         inkscape:label="5"
         inkscape:transform-center-x="0.0023836563"
         inkscape:transform-center-y="-32.168526" />
      <path
         d="m 62.461256,227.13248 c -0.127059,0.12738 -0.441008,0.41215 -0.844967,0.5324 -0.411434,0.12774 -0.912879,0.0909 -1.399924,-0.39486 -0.502032,-0.50076 -0.525098,-0.98716 -0.398398,-1.39892 0.119226,-0.40426 0.403203,-0.71893 0.530262,-0.84631 l 3.124163,-3.13208 c 0.186852,-0.18733 0.530679,-0.51703 0.949587,-0.65227 0.411433,-0.12774 0.897892,-0.10588 1.407417,0.40234 0.509523,0.50823 0.532589,0.99464 0.40589,1.40639 -0.134173,0.41925 -0.463014,0.76391 -0.649866,0.95123 l -0.343807,0.34468 -0.809245,-0.8072 c 0.366229,-0.36716 0.597907,-0.6144 0.709942,-0.78667 0.112036,-0.17227 0.104411,-0.28451 -0.01545,-0.40409 -0.09741,-0.0972 -0.20969,-0.11947 -0.336826,-0.052 -0.134628,0.0601 -0.299095,0.19496 -0.50837,0.40476 l -0.979103,0.98159 c 0.224582,0.0596 0.396788,0.12672 0.539155,0.26872 0.419608,0.41855 0.427651,0.86007 0.300894,1.22692 -0.126756,0.36686 -0.410734,0.68153 -0.560215,0.83139 z m -1.542952,-1.06072 c -0.06726,0.0674 -0.186701,0.30706 6.27e-4,0.49392 0.172339,0.17191 0.426647,0.0668 0.493914,-6.1e-4 l 1.644296,-1.64846 c 0.06726,-0.0674 0.171715,-0.32201 -6.27e-4,-0.49392 -0.172339,-0.17189 -0.381784,-0.0968 -0.471492,-0.0218 z"
         style="font-style:normal;font-variant:normal;font-weight:normal;font-stretch:normal;font-family:'League Gothic';-inkscape-font-specification:'League Gothic';fill:#000000;fill-opacity:1;stroke:none;stroke-width:0.26458332;stroke-opacity:1"
         id="path1757"
         inkscape:connector-curvature="0"
         inkscape:label="6"
         inkscape:transform-center-x="-22.790888"
         inkscape:transform-center-y="-22.790332" />
      <path
         d="m 75.226272,247.56745 0.0042,-1.7145 1.132413,0.003 -0.0071,2.87866 -1.142997,-0.003 -6.632916,-1.15933 0.0029,-1.18533 z"
         style="font-style:normal;font-variant:normal;font-weight:normal;font-stretch:normal;font-family:'League Gothic';-inkscape-font-specification:'League Gothic';fill:#000000;fill-opacity:1;stroke:none;stroke-width:0.26458332;stroke-opacity:1"
         id="path1759"
         inkscape:connector-curvature="0"
         inkscape:label="7"
         inkscape:transform-center-x="-32.228823"
         inkscape:transform-center-y="0.042831982" />
    </g>
    <path
       style="color:#000000;font-style:normal;font-variant:normal;font-weight:normal;font-stretch:normal;font-size:medium;line-height:normal;font-family:sans-serif;font-variant-ligatures:normal;font-variant-position:normal;font-variant-caps:normal;font-variant-numeric:normal;font-variant-alternates:normal;font-feature-settings:normal;text-indent:0;text-align:start;text-decoration:none;text-decoration-line:none;text-decoration-style:solid;text-decoration-color:#000000;letter-spacing:normal;word-spacing:normal;text-transform:none;writing-mode:lr-tb;direction:ltr;text-orientation:mixed;dominant-baseline:auto;baseline-shift:baseline;text-anchor:start;white-space:normal;shape-padding:0;clip-rule:nonzero;display:inline;overflow:visible;visibility:visible;opacity:1;isolation:auto;mix-blend-mode:normal;color-interpolation:sRGB;color-interpolation-filters:linearRGB;solid-color:#000000;solid-opacity:1;vector-effect:none;fill:#000000;fill-opacity:1;fill-rule:nonzero;stroke:none;stroke-width:0.86488658;stroke-linecap:butt;stroke-linejoin:miter;stroke-miterlimit:4;stroke-dasharray:none;stroke-dashoffset:0;stroke-opacity:1;color-rendering:auto;image-rendering:auto;shape-rendering:auto;text-rendering:auto;enable-background:accumulate"
       d="m 25.368782,210.09724 -0.8002,0.331 14.951531,36.09739 -36.0957746,-14.95153 -0.3310064,0.79858 36.095774,14.95154 -36.095774,14.95154 0.3310064,0.80019 36.0957746,-14.95152 -14.951531,36.09577 0.8002,0.331 14.95153,-36.09577 14.951531,36.09577 0.798594,-0.331 -14.951531,-36.09577 36.09738,14.95152 0.331006,-0.80019 -36.095774,-14.95154 36.095774,-14.95154 -0.331006,-0.79858 -36.09738,14.95153 14.951531,-36.09739 -0.798594,-0.331 -14.951531,36.09577 z"
       id="path1556"
       inkscape:connector-curvature="0"
       inkscape:label="Spokes" />
    <g
       id="g1586"
       inkscape:label="Pattern"
       style="fill:#000000;fill-opacity:1">
      <path
         style="opacity:1;fill:#000000;fill-opacity:1;fill-rule:nonzero;stroke:none;stroke-width:0.05291667;stroke-linecap:round;stroke-linejoin:round;stroke-miterlimit:4;stroke-dasharray:none;stroke-opacity:1;paint-order:stroke fill markers"
         d="M 6.5649737e-6,247.24977 C 3.646289e-5,238.27218 3.0447865,231.94269 3.0447865,231.94269 L 40.000146,247.24977 3.0447865,262.55736 c 0,0 -3.044810097526,-6.33 -3.0447799350263,-15.30759 z M 1.9311564,254.16563 c -0.018201,0.1666 0.1165801,0.97098 0.2005002,1.04386 0.0792,0.0688 0.4722198,-0.59092 0.9467199,-1.13895 0.44113,-0.5095 0.9309499,-0.80457 0.90278,-0.85524 -0.0585,-0.10517 -0.4151601,-0.22774 -0.54415,-0.24857 -0.15538,-0.0251 -0.3222001,0.12161 -0.6816101,0.47853 -0.3653898,0.36285 -0.8086399,0.57742 -0.82424,0.72037 z m 0.0874,-13.77746 c 0.026001,0.14478 0.29219,0.34282 0.6365301,0.62897 0.4486699,0.37285 0.62054,0.5249 0.65801,0.50739 0.0662,-0.0309 0.4129501,-0.23919 0.4429199,-0.28789 0.0146,-0.0238 -0.2492301,-0.17456 -0.8633301,-0.87215 -0.6140997,-0.69758 -0.5576998,-1.05768 -0.6861098,-1.09098 -0.1284002,-0.0333 -0.2140201,0.96989 -0.1880201,1.11466 z m 0.0185,6.86211 c 2e-4,3.31343 3.1713702,5.99958 5.99963,5.99964 2.8283696,6e-5 5.9999496,-2.68601 6.0001496,-5.99964 8e-5,-3.31382 -2.68633,-6.00023 -6.0001496,-6.00014 -3.31363,2e-4 -5.9997199,2.68652 -5.99963,6.00014 z m 0.4366601,-9.39632 c 0.004,0.21303 0.39404,1.11307 0.9454399,1.84498 0.5856401,0.77734 1.16542,1.11464 1.2582699,1.09213 0.0406,-0.01 0.1975401,-0.11125 0.3757801,-0.18059 0.2234102,-0.0869 0.4731699,-0.14729 0.48788,-0.18569 0.036,-0.0941 -0.8825,-0.63635 -1.61055,-1.51883 -0.7304399,-0.88538 -1.1055699,-2.07595 -1.1894798,-2.02934 -0.0839,0.0466 -0.27139,0.76431 -0.2673401,0.97734 z m 0.008,18.7756 c -0.013401,0.13451 0.1629701,0.86886 0.25063,0.96015 0.1058701,0.11026 0.5259801,-1.23013 1.4200701,-2.26033 0.9415698,-1.08491 1.6708199,-1.28718 1.6288398,-1.33067 -0.0951,-0.0985 -0.8174299,-0.36708 -0.9358598,-0.3762 -0.0574,-0.004 -0.5860301,0.13548 -1.4185201,1.14721 -0.9001498,1.09396 -0.93824,1.7905 -0.94516,1.85984 z m 0.70435,-21.25348 c 0,0 -0.011499,1.21979 1.02578,2.73471 0.4282699,0.62548 1.61598,1.7227 2.4308599,1.94303 0,0 1.41522,-0.0129 2.0918601,0.0879 1.13719,0.16942 2.0536195,0.56224 2.0536195,0.56224 l 2.78794,-1.53582 -1.22835,2.30322 c 0,0 0.54865,0.53121 0.88057,0.82114 0.29222,0.25525 0.74931,0.80925 0.74931,0.80925 l 2.2226,-0.18138 -1.57406,1.28932 c 0,0 0.34154,0.77199 0.45785,1.20561 0.12694,0.47327 0.2434,1.33377 0.2434,1.33377 l 1.63711,0.50075 -1.62006,0.36793 c 0,0 -0.0576,0.74965 -0.20774,1.33429 -0.150161,0.58464 -0.594281,1.2547 -0.594281,1.2547 l 1.60352,1.45314 -2.27169,-0.2837 -0.69712,0.83923 -0.85628,0.7307 1.20251,2.33836 -2.60604,-1.60352 c 0,0 -0.9775394,0.49162 -2.1466394,0.6444 -0.7333099,0.0958 -2.1125299,0.0408 -2.1125299,0.0408 0,0 -1.0473,0.36384 -1.9321799,1.34773 -0.67477,0.75026 -1.5276901,2.58209 -1.4965499,3.54552 0,0 -0.008,0.21092 0.0651,0.2651 0.0808,0.0495 0.6453399,-0.26861 1.5937,-0.0868 0.94836,0.18178 1.4111099,0.86203 1.54409,0.85576 0.1225399,-0.006 31.4916201,-13.04313 31.4916201,-13.04313 L 6.4569765,234.21594 c -0.13345,-0.0554 -0.38935,0.36206 -1.5141202,0.66352 -1.1247699,0.30147 -1.6056298,0.0171 -1.6396898,0.12144 0,0 -0.0467,0.14089 -0.11679,0.37518 z m 0.3219399,-1.0356 c 3.44e-4,0.0166 0.003,0.0303 0.008,0.0408 0.0475,0.0613 0.7414699,0.10286 1.2149098,-0.0274 0.5049102,-0.13891 0.8567301,-0.47876 0.7637801,-0.5364 -0.11851,-0.0611 -0.2061099,-0.13115 -0.3395199,-0.14108 -0.0577,0.003 -0.4184902,0.19764 -0.76894,0.25838 -0.3586401,0.0622 -0.6312602,-0.0426 -0.70694,-0.008 -0.0752,0.0538 -0.1735,0.2973 -0.1710502,0.41341 z m 0.006,25.7731 c -0.007,0.0733 0.0967,0.36408 0.1493398,0.41548 0.0667,0.0651 0.3676499,-0.16304 0.8826302,-0.0749 0.5149897,0.0881 0.5306398,0.36291 0.6154697,0.36535 0.0848,0.002 0.43253,-0.14229 0.5090102,-0.21084 0.0765,-0.0685 -0.34265,-0.55008 -0.9560099,-0.6444 -0.61336,-0.0943 -1.1919302,0.0592 -1.20044,0.14934 z"
         id="path1558"
         inkscape:connector-curvature="0"
         sodipodi:nodetypes="scccsccccccczssszzzcsccczssssszzccscccccscccccccccccccscccccccccsccscccscccccccccccccsccscc" />
      <path
         sodipodi:nodetypes="scccsccccccczssszzzcsccczssssszzccscccccscccccccccccccscccccccccsccscccscccccccccccccsccscc"
         inkscape:connector-curvature="0"
         id="path1560"
         d="m 80.500006,247.24977 c -3.2e-5,-8.97759 -3.04478,-15.30708 -3.04478,-15.30708 l -36.955359,15.30708 36.955359,15.30759 c 0,0 3.044809,-6.33 3.04478,-15.30759 z m -1.931151,6.91586 c 0.0182,0.1666 -0.116578,0.97098 -0.200499,1.04386 -0.0792,0.0688 -0.47222,-0.59092 -0.946721,-1.13895 -0.441129,-0.5095 -0.93095,-0.80457 -0.90278,-0.85524 0.0585,-0.10517 0.415161,-0.22774 0.54415,-0.24857 0.155379,-0.0251 0.322199,0.12161 0.681609,0.47853 0.365392,0.36285 0.808641,0.57742 0.824241,0.72037 z m -0.0874,-13.77746 c -0.02601,0.14478 -0.29219,0.34282 -0.636529,0.62897 -0.44867,0.37285 -0.620541,0.5249 -0.658011,0.50739 -0.0662,-0.0309 -0.412949,-0.23919 -0.442921,-0.28789 -0.01461,-0.0238 0.249233,-0.17456 0.863331,-0.87215 0.6141,-0.69758 0.557702,-1.05768 0.686112,-1.09098 0.128399,-0.0333 0.214019,0.96989 0.188018,1.11466 z m -0.01849,6.86211 c -2.01e-4,3.31343 -3.17137,5.99958 -5.999631,5.99964 -2.828369,6e-5 -5.999948,-2.68601 -6.000149,-5.99964 -8e-5,-3.31382 2.68633,-6.00023 6.000149,-6.00014 3.313631,2e-4 5.999721,2.68652 5.999631,6.00014 z M 78.0263,237.85396 c -0.004,0.21303 -0.394038,1.11307 -0.945438,1.84498 -0.585642,0.77734 -1.165421,1.11464 -1.258271,1.09213 -0.0406,-0.01 -0.197541,-0.11125 -0.37578,-0.18059 -0.223411,-0.0869 -0.47317,-0.14729 -0.487881,-0.18569 -0.036,-0.0941 0.882502,-0.63635 1.610551,-1.51883 0.73044,-0.88538 1.105569,-2.07595 1.189479,-2.02934 0.0839,0.0466 0.271391,0.76431 0.26734,0.97734 z m -0.008,18.7756 c 0.01339,0.13451 -0.16297,0.86886 -0.250632,0.96015 -0.10587,0.11026 -0.525978,-1.23013 -1.420069,-2.26033 -0.94157,-1.08491 -1.67082,-1.28718 -1.628841,-1.33067 0.0951,-0.0985 0.81743,-0.36708 0.93586,-0.3762 0.0574,-0.004 0.586031,0.13548 1.418521,1.14721 0.90015,1.09396 0.938239,1.7905 0.945161,1.85984 z m -0.70435,-21.25348 c 0,0 0.01151,1.21979 -1.025782,2.73471 -0.42827,0.62548 -1.615979,1.7227 -2.430859,1.94303 0,0 -1.415219,-0.0129 -2.091859,0.0879 -1.13719,0.16942 -2.053622,0.56224 -2.053622,0.56224 l -2.787938,-1.53582 1.228349,2.30322 c 0,0 -0.548651,0.53121 -0.880571,0.82114 -0.292219,0.25525 -0.74931,0.80925 -0.74931,0.80925 l -2.222598,-0.18138 1.574059,1.28932 c 0,0 -0.34154,0.77199 -0.457851,1.20561 -0.126939,0.47327 -0.243398,1.33377 -0.243398,1.33377 l -1.637112,0.50075 1.62006,0.36793 c 0,0 0.0576,0.74965 0.20774,1.33429 0.150162,0.58464 0.594281,1.2547 0.594281,1.2547 l -1.603521,1.45314 2.271691,-0.2837 0.697119,0.83923 0.856282,0.7307 -1.20251,2.33836 2.60604,-1.60352 c 0,0 0.97754,0.49162 2.146638,0.6444 0.733312,0.0958 2.112532,0.0408 2.112532,0.0408 0,0 1.0473,0.36384 1.932178,1.34773 0.674772,0.75026 1.527691,2.58209 1.496552,3.54552 0,0 0.008,0.21092 -0.0651,0.2651 -0.0808,0.0495 -0.64534,-0.26861 -1.593699,-0.0868 -0.948362,0.18178 -1.41111,0.86203 -1.54409,0.85576 -0.122542,-0.006 -31.491621,-13.04313 -31.491621,-13.04313 l 31.467009,-13.03434 c 0.133451,-0.0554 0.389351,0.36206 1.514121,0.66352 1.12477,0.30147 1.605629,0.0171 1.639689,0.12144 0,0 0.0467,0.14089 0.11679,0.37518 z m -0.321942,-1.0356 c -2.65e-4,0.0166 -0.003,0.0303 -0.008,0.0408 -0.0475,0.0613 -0.741471,0.10286 -1.214911,-0.0274 -0.50491,-0.13891 -0.856729,-0.47876 -0.763781,-0.5364 0.118513,-0.0611 0.206111,-0.13115 0.339522,-0.14108 0.0577,0.003 0.418488,0.19764 0.76894,0.25838 0.35864,0.0622 0.631258,-0.0426 0.70694,-0.008 0.0752,0.0538 0.1735,0.2973 0.17105,0.41341 z m -0.006,25.7731 c 0.007,0.0733 -0.0967,0.36408 -0.149342,0.41548 -0.0667,0.0651 -0.367649,-0.16304 -0.882629,-0.0749 -0.51499,0.0881 -0.53064,0.36291 -0.615471,0.36535 -0.0848,0.002 -0.43253,-0.14229 -0.509008,-0.21084 -0.0765,-0.0685 0.342649,-0.55008 0.956008,-0.6444 0.61336,-0.0943 1.19193,0.0592 1.200442,0.14934 z"
         style="opacity:1;fill:#000000;fill-opacity:1;fill-rule:nonzero;stroke:none;stroke-width:0.05291667;stroke-linecap:round;stroke-linejoin:round;stroke-miterlimit:4;stroke-dasharray:none;stroke-opacity:1;paint-order:stroke fill markers" />
      <path
         sodipodi:nodetypes="scccsccccccczssszzzcsccczssssszzccscccccscccccccccccccscccccccccsccscccscccccccccccccsccscc"
         inkscape:connector-curvature="0"
         id="path1562"
         d="m 40.250267,207.00003 c 8.977588,3e-5 15.307069,3.04478 15.307069,3.04478 L 40.250267,247.00017 24.942666,210.04481 c 0,0 6.330011,-3.04481 15.307601,-3.04478 z m -6.915862,1.93115 c -0.1666,-0.0182 -0.970989,0.11658 -1.04386,0.2005 -0.0688,0.0792 0.590912,0.47222 1.138941,0.94672 0.509511,0.44113 0.80458,0.93095 0.85525,0.90278 0.105169,-0.0585 0.22774,-0.41516 0.24856,-0.54415 0.02511,-0.15538 -0.1216,-0.3222 -0.47852,-0.68161 -0.36286,-0.36539 -0.577419,-0.80864 -0.720371,-0.82424 z m 13.77745,0.0874 c -0.14477,0.026 -0.34281,0.29219 -0.62897,0.63653 -0.372849,0.44867 -0.524899,0.62054 -0.507389,0.65801 0.0309,0.0662 0.239199,0.41295 0.287901,0.44292 0.02379,0.0146 0.174559,-0.24923 0.872149,-0.86333 0.697579,-0.6141 1.057679,-0.5577 1.090969,-0.68611 0.0333,-0.1284 -0.96988,-0.21402 -1.11466,-0.18802 z m -6.862109,0.0185 c -3.313419,2e-4 -5.99957,3.17137 -5.999631,5.99963 -5.8e-5,2.82837 2.68601,5.99995 5.999631,6.00015 3.313829,8e-5 6.000229,-2.68633 6.000149,-6.00015 -1.98e-4,-3.31363 -2.686529,-5.99972 -6.000149,-5.99963 z m 9.39633,0.43666 c -0.213029,0.004 -1.11307,0.39404 -1.844979,0.94544 -0.777341,0.58564 -1.114642,1.16542 -1.092131,1.25827 0.01,0.0406 0.111249,0.19754 0.180581,0.37578 0.0869,0.22341 0.147288,0.47317 0.1857,0.48788 0.0941,0.036 0.636339,-0.8825 1.51883,-1.61055 0.885378,-0.73044 2.07595,-1.10557 2.029338,-1.18948 -0.0466,-0.0839 -0.764309,-0.27139 -0.977339,-0.26734 z m -18.7756,0.008 c -0.134509,-0.0134 -0.86886,0.16297 -0.960149,0.25064 -0.11026,0.10586 1.23013,0.52597 2.26033,1.42006 1.0849,0.94157 1.287169,1.67082 1.330669,1.62884 0.0985,-0.0951 0.36708,-0.81742 0.3762,-0.93585 0.004,-0.0574 -0.13549,-0.58604 -1.14722,-1.41853 -1.093949,-0.90015 -1.790491,-0.93823 -1.85983,-0.94516 z m 21.253479,0.70435 c 0,0 -1.21979,-0.0115 -2.73471,1.02579 -0.62548,0.42826 -1.722699,1.61597 -1.943039,2.43085 0,0 0.01291,1.41522 -0.0879,2.09186 -0.16941,1.13719 -0.562239,2.05362 -0.562239,2.05362 l 1.535829,2.78794 -2.303219,-1.22835 c 0,0 -0.531222,0.54866 -0.821142,0.88057 -0.255249,0.29222 -0.809249,0.74931 -0.809249,0.74931 l 0.181379,2.2226 -1.28933,-1.57406 c 0,0 -0.771988,0.34154 -1.205608,0.45786 -0.473261,0.12693 -1.33377,0.24339 -1.33377,0.24339 l -0.50074,1.63712 -0.36794,-1.62007 c 0,0 -0.749642,-0.0576 -1.334281,-0.20774 -0.584639,-0.15016 -1.25471,-0.59428 -1.25471,-0.59428 l -1.453139,1.60353 0.28371,-2.2717 -0.839232,-0.69711 -0.730699,-0.85629 -2.338359,1.20251 1.603518,-2.60604 c 0,0 -0.49162,-0.97754 -0.644408,-2.14664 -0.0958,-0.73331 -0.0408,-2.11253 -0.0408,-2.11253 0,0 -0.363828,-1.0473 -1.347719,-1.93218 -0.75026,-0.67477 -2.5821,-1.52769 -3.545519,-1.49655 0,0 -0.210921,-0.008 -0.2651,0.0651 -0.0495,0.0808 0.2686,0.64534 0.0868,1.5937 -0.18179,0.94836 -0.862031,1.41111 -0.855761,1.54409 0.006,0.12255 13.04313,31.49162 13.04313,31.49162 L 53.284049,213.457 c 0.0554,-0.13345 -0.362061,-0.38935 -0.66353,-1.51412 -0.301461,-1.12477 -0.01709,-1.60562 -0.121441,-1.63968 0,0 -0.14088,-0.0467 -0.375169,-0.1168 z m 1.0356,0.32194 c -0.01659,2.7e-4 -0.0303,0.003 -0.0408,0.008 -0.0613,0.0475 -0.102859,0.74147 0.0274,1.21491 0.138908,0.50491 0.478758,0.85673 0.5364,0.76378 0.0611,-0.11851 0.131149,-0.20611 0.141078,-0.33952 -0.003,-0.0577 -0.197649,-0.41849 -0.258389,-0.76894 -0.0622,-0.35864 0.0426,-0.63126 0.008,-0.70694 -0.0538,-0.0752 -0.297291,-0.1735 -0.413411,-0.17105 z m -25.77311,0.006 c -0.0733,-0.007 -0.364069,0.0967 -0.41547,0.14934 -0.0651,0.0667 0.163042,0.36765 0.0749,0.88263 -0.0881,0.51499 -0.36291,0.53064 -0.36536,0.61547 -0.0021,0.0848 0.142301,0.43253 0.210841,0.50901 0.0685,0.0765 0.55009,-0.34265 0.644408,-0.95601 0.0943,-0.61336 -0.0592,-1.19193 -0.149349,-1.20044 z"
         style="opacity:1;fill:#000000;fill-opacity:1;fill-rule:nonzero;stroke:none;stroke-width:0.05291667;stroke-linecap:round;stroke-linejoin:round;stroke-miterlimit:4;stroke-dasharray:none;stroke-opacity:1;paint-order:stroke fill markers" />
      <path
         style="opacity:1;fill:#000000;fill-opacity:1;fill-rule:nonzero;stroke:none;stroke-width:0.05291667;stroke-linecap:round;stroke-linejoin:round;stroke-miterlimit:4;stroke-dasharray:none;stroke-opacity:1;paint-order:stroke fill markers"
         d="m 40.250267,287.50003 c 8.977588,-3e-5 15.307069,-3.04478 15.307069,-3.04478 l -15.307069,-36.95536 -15.30759,36.95536 c 0,0 6.33,3.04481 15.30759,3.04478 z m -6.915862,-1.93115 c -0.1666,0.0182 -0.970989,-0.11658 -1.04386,-0.2005 -0.0688,-0.0792 0.590912,-0.47222 1.138941,-0.94672 0.509511,-0.44113 0.80458,-0.93095 0.85525,-0.90278 0.105169,0.0585 0.22774,0.41516 0.24856,0.54415 0.02511,0.15538 -0.1216,0.3222 -0.47852,0.68161 -0.36286,0.36539 -0.577419,0.80864 -0.720371,0.82424 z m 13.77745,-0.0874 c -0.14477,-0.026 -0.34281,-0.29219 -0.62897,-0.63653 -0.372849,-0.44867 -0.524899,-0.62054 -0.507389,-0.65801 0.0309,-0.0662 0.239199,-0.41295 0.287901,-0.44292 0.02379,-0.0146 0.174559,0.24923 0.872149,0.86333 0.697579,0.6141 1.057679,0.5577 1.090969,0.68611 0.0333,0.1284 -0.96988,0.21402 -1.11466,0.18802 z m -6.862109,-0.0185 c -3.313419,-2e-4 -5.99957,-3.17137 -5.999631,-5.99963 -5.8e-5,-2.82837 2.68601,-5.99995 5.999631,-6.00015 3.313829,-8e-5 6.000229,2.68633 6.000149,6.00015 -1.98e-4,3.31363 -2.686529,5.99972 -6.000149,5.99963 z m 9.39633,-0.43666 c -0.213029,-0.004 -1.11307,-0.39404 -1.844979,-0.94544 -0.777341,-0.58564 -1.114642,-1.16542 -1.092131,-1.25827 0.01,-0.0406 0.111249,-0.19754 0.180581,-0.37578 0.0869,-0.22341 0.147288,-0.47317 0.1857,-0.48788 0.0941,-0.036 0.636339,0.8825 1.51883,1.61055 0.885378,0.73044 2.07595,1.10557 2.029338,1.18948 -0.0466,0.0839 -0.764309,0.27139 -0.977339,0.26734 z m -18.7756,-0.008 c -0.134509,0.0134 -0.86886,-0.16297 -0.960149,-0.25063 -0.11026,-0.10587 1.23013,-0.52598 2.26033,-1.42007 1.0849,-0.94157 1.287169,-1.67082 1.330669,-1.62884 0.0985,0.0951 0.36708,0.81743 0.3762,0.93586 0.004,0.0574 -0.13549,0.58603 -1.14722,1.41852 -1.093949,0.90015 -1.790491,0.93824 -1.85983,0.94516 z m 21.253479,-0.70435 c 0,0 -1.21979,0.0115 -2.73471,-1.02578 -0.62548,-0.42827 -1.722699,-1.61598 -1.943039,-2.43086 0,0 0.01291,-1.41522 -0.0879,-2.09186 -0.16941,-1.13719 -0.562239,-2.05362 -0.562239,-2.05362 l 1.535829,-2.78794 -2.303219,1.22835 c 0,0 -0.531222,-0.54865 -0.821142,-0.88057 -0.255249,-0.29222 -0.809249,-0.74931 -0.809249,-0.74931 l 0.181379,-2.2226 -1.28933,1.57406 c 0,0 -0.771988,-0.34154 -1.205608,-0.45785 -0.473261,-0.12694 -1.33377,-0.2434 -1.33377,-0.2434 l -0.50074,-1.63711 -0.36794,1.62006 c 0,0 -0.749642,0.0576 -1.334281,0.20774 -0.584639,0.15016 -1.25471,0.59428 -1.25471,0.59428 l -1.453139,-1.60352 0.28371,2.27169 -0.839232,0.69712 -0.730699,0.85628 -2.338359,-1.20251 1.603518,2.60604 c 0,0 -0.49162,0.97754 -0.644408,2.14664 -0.0958,0.73331 -0.0408,2.11253 -0.0408,2.11253 0,0 -0.363828,1.0473 -1.347719,1.93218 -0.75026,0.67477 -2.5821,1.52769 -3.545519,1.49655 0,0 -0.210921,0.008 -0.2651,-0.0651 -0.0495,-0.0808 0.2686,-0.64534 0.0868,-1.5937 -0.18179,-0.94836 -0.862031,-1.41111 -0.855761,-1.54409 0.006,-0.12254 13.04313,-31.49162 13.04313,-31.49162 l 13.034341,31.46701 c 0.0554,0.13345 -0.362061,0.38935 -0.66353,1.51412 -0.301461,1.12477 -0.01709,1.60563 -0.121441,1.63969 0,0 -0.14088,0.0467 -0.375169,0.11679 z m 1.0356,-0.32194 c -0.01659,-3.5e-4 -0.0303,-0.003 -0.0408,-0.008 -0.0613,-0.0475 -0.102859,-0.74147 0.0274,-1.21491 0.138908,-0.50491 0.478758,-0.85673 0.5364,-0.76378 0.0611,0.11851 0.131149,0.20611 0.141078,0.33952 -0.003,0.0577 -0.197649,0.41849 -0.258389,0.76894 -0.0622,0.35864 0.0426,0.63126 0.008,0.70694 -0.0538,0.0752 -0.297291,0.1735 -0.413411,0.17105 z m -25.77311,-0.006 c -0.0733,0.007 -0.364069,-0.0967 -0.41547,-0.14934 -0.0651,-0.0667 0.163042,-0.36765 0.0749,-0.88262 -0.0881,-0.51499 -0.36291,-0.53065 -0.36536,-0.61548 -0.0021,-0.0848 0.142301,-0.43252 0.210841,-0.509 0.0685,-0.0765 0.55009,0.34265 0.644408,0.95601 0.0943,0.61336 -0.0592,1.19192 -0.149349,1.20043 z"
         id="path1564"
         inkscape:connector-curvature="0"
         sodipodi:nodetypes="scccsccccccczssszzzcsccczssssszzccscccccscccccccccccccscccccccccsccscccscccccccccccccsccscc" />
      <path
         sodipodi:nodetypes="scccsccccccczssszzzcsccczssssszzccscccccscccccccccccccscccccccccsccscccscccccccccccccsccscc"
         inkscape:connector-curvature="0"
         id="path1566"
         d="M 11.788776,275.71089 C 5.4406865,269.36276 3.1180264,262.73417 3.1180264,262.73417 L 40.073147,247.42652 24.765866,284.38201 c 0,0 -6.629,-2.32298 -12.97709,-8.67112 z m 6.25578,3.52472 c 0.10494,0.13068 0.76902,0.60416 0.8799,0.59635 0.10465,-0.007 -0.0839,-0.75175 -0.13593,-1.47479 -0.0483,-0.6722 0.0894,-1.2272 0.0336,-1.24311 -0.11573,-0.033 -0.45459,0.13253 -0.56053,0.20901 -0.12761,0.0921 -0.14184,0.31382 -0.1436,0.82034 -0.002,0.51495 -0.1635,0.98009 -0.0735,1.0922 z m -9.6803295,-9.80393 c 0.12075,0.084 0.4490198,0.0358 0.8948398,-0.005 0.5809001,-0.0536 0.8099497,-0.0676 0.8240697,-0.1065 0.0249,-0.0687 0.12286,-0.46114 0.10961,-0.51677 -0.006,-0.0271 -0.2996597,0.0528 -1.2271597,-0.006 -0.9274998,-0.059 -1.1422499,-0.35354 -1.2565899,-0.28628 -0.1143399,0.0673 0.53447,0.83715 0.6552301,0.92113 z m 4.8653295,4.83917 c 2.34308,2.3428 6.48483,1.99984 8.48476,0 2.000001,-1.99992 2.343311,-6.1419 2.64e-4,-8.48513 -2.343169,-2.34329 -6.142319,-2.34328 -8.485489,0 -2.34295,2.34323 -2.34278,6.1421 3.7e-4,8.48513 z m -6.3354397,-6.95298 c 0.1534602,0.14781 1.06568,0.50844 1.9731201,0.63607 0.9637699,0.13556 1.6122496,-0.0359 1.6619896,-0.11747 0.0218,-0.0356 0.061,-0.21835 0.13802,-0.39341 0.0965,-0.21943 0.23043,-0.43873 0.21367,-0.47629 -0.0411,-0.092 -1.0739796,0.17405 -2.2127997,0.0649 -1.14256,-0.10957 -2.2496798,-0.68617 -2.2760498,-0.59388 -0.0264,0.0923 0.3485499,0.73236 0.5020498,0.88013 z m 13.2820097,13.2707 c 0.0856,0.10459 0.72961,0.49914 0.85615,0.50171 0.15282,0.003 -0.49791,-1.24176 -0.59416,-2.60244 -0.10135,-1.43293 0.27128,-2.09162 0.21084,-2.09269 -0.1369,-0.002 -0.83757,0.31845 -0.92777,0.39574 -0.0437,0.0375 -0.31858,0.51019 -0.19184,1.81425 0.13704,1.41005 0.60264,1.92951 0.64678,1.98343 z M 5.6456965,265.06204 c 0,0 0.8543899,0.87065 2.6590699,1.2084 0.74511,0.13945 2.3607996,0.0755 3.0928096,-0.34495 0,0 0.99156,-1.00986 1.54128,-1.41705 0.92391,-0.68431 1.8497,-1.05456 1.8497,-1.05456 l 0.88538,-3.05736 0.76004,2.49719 c 0,0 0.76358,-0.0123 1.20329,-0.042 0.38713,-0.0261 1.10207,0.0424 1.10207,0.0424 l 1.44336,-1.69987 -0.20134,2.02472 c 0,0 0.78739,0.30437 1.17625,0.52875 0.42441,0.24489 1.115221,0.771 1.115221,0.771 l 1.5117,-0.80353 -0.885391,1.40572 c 0,0 0.489349,0.57082 0.796591,1.09038 0.307219,0.51958 0.46699,1.30743 0.46699,1.30743 l 2.161389,-0.10633 -1.80694,1.40572 0.100481,1.08636 -0.0888,1.12217 2.503768,0.80316 -2.97661,0.70889 c 0,0 -0.343598,1.03885 -1.062238,1.97357 -0.45076,0.5863 -1.464922,1.52265 -1.464922,1.52265 0,0 -0.483279,0.99782 -0.413269,2.31924 0.0534,1.00765 0.745581,2.90606 1.448841,3.56528 0,0 0.143489,0.1548 0.233489,0.14142 0.0921,-0.0221 0.266391,-0.64626 1.06552,-1.18831 0.799131,-0.54204 1.607359,-0.38825 1.69695,-0.48672 0.0825,-0.0907 13.045051,-31.49082 13.045051,-31.49082 L 7.1382264,261.92882 c -0.1335299,0.0552 -0.019299,0.53132 -0.6014601,1.53982 -0.5821698,1.0085 -1.1232898,1.14742 -1.0735698,1.24531 0,0 0.0666,0.13264 0.1827,0.34787 z m -0.50464,-0.95992 c 0.011999,0.0115 0.023601,0.0193 0.0345,0.0232 0.0769,0.01 0.59704,-0.45157 0.83971,-0.87844 0.2587998,-0.45525 0.2672599,-0.94433 0.1607799,-0.91937 -0.1269799,0.0406 -0.2384801,0.053 -0.3398301,0.14032 -0.0384,0.0432 -0.15617,0.43568 -0.3610199,0.72643 -0.20965,0.29755 -0.4765199,0.41622 -0.5054,0.49437 -0.0152,0.0912 0.0875,0.3329 0.1713701,0.41327 z m 18.2285795,18.22009 c 0.0469,0.0568 0.325819,0.18906 0.399389,0.18819 0.0932,-10e-4 0.144682,-0.37526 0.571132,-0.6771 0.426458,-0.30185 0.63183,-0.1186 0.69355,-0.17686 0.0617,-0.0583 0.205219,-0.40646 0.21083,-0.50901 0.006,-0.10257 -0.631251,-0.14668 -1.13166,0.22034 -0.500411,0.36701 -0.800952,0.88469 -0.743241,0.95444 z"
         style="opacity:1;fill:#000000;fill-opacity:1;fill-rule:nonzero;stroke:none;stroke-width:0.05291667;stroke-linecap:round;stroke-linejoin:round;stroke-miterlimit:4;stroke-dasharray:none;stroke-opacity:1;paint-order:stroke fill markers" />
      <path
         style="opacity:1;fill:#000000;fill-opacity:1;fill-rule:nonzero;stroke:none;stroke-width:0.05291667;stroke-linecap:round;stroke-linejoin:round;stroke-miterlimit:4;stroke-dasharray:none;stroke-opacity:1;paint-order:stroke fill markers"
         d="m 68.710877,218.7888 c -6.34814,-6.3481 -12.97673,-8.67076 -12.97673,-8.67076 l -15.307641,36.95513 36.955478,-15.30729 c 0,0 -2.322978,-6.62899 -8.671107,-12.97708 z m 3.524718,6.25578 c 0.13067,0.10493 0.60415,0.76902 0.596342,0.87989 -0.007,0.10465 -0.75175,-0.0839 -1.47479,-0.13592 -0.67219,-0.0483 -1.227201,0.0894 -1.243111,0.0336 -0.033,-0.11574 0.13253,-0.4546 0.209011,-0.56054 0.0921,-0.1276 0.313819,-0.14184 0.820338,-0.1436 0.51495,-0.002 0.980101,-0.1635 1.09221,-0.0735 z m -9.803939,-9.68033 c 0.084,0.12075 0.0358,0.44901 -0.005,0.89484 -0.0536,0.5809 -0.0676,0.80995 -0.1065,0.82406 -0.0687,0.0249 -0.46114,0.12287 -0.516768,0.10962 -0.0271,-0.007 0.0528,-0.29967 -0.006,-1.22716 -0.059,-0.92751 -0.35355,-1.14226 -0.28629,-1.2566 0.0673,-0.11434 0.837149,0.53448 0.921128,0.65524 z m 4.83917,4.86532 c 2.342799,2.34309 1.99984,6.48484 0,8.48476 -1.999921,2.00001 -6.141899,2.34331 -8.485131,2.7e-4 -2.34328,-2.34317 -2.34328,-6.14233 0,-8.48549 2.34324,-2.34295 6.142111,-2.34279 8.485131,2.6e-4 z m -6.952969,-6.33544 c 0.147799,0.15347 0.508429,1.06569 0.636069,1.97313 0.135549,0.96377 -0.0359,1.61224 -0.11748,1.66198 -0.0356,0.0218 -0.21835,0.061 -0.393409,0.13803 -0.219432,0.0965 -0.438732,0.23043 -0.47629,0.21367 -0.092,-0.0411 0.174059,-1.07398 0.0649,-2.2128 -0.109562,-1.14256 -0.686171,-2.24968 -0.593871,-2.27605 0.0923,-0.0264 0.732351,0.34854 0.880121,0.50204 z m 13.270688,13.28201 c 0.104589,0.0856 0.499141,0.72962 0.50171,0.85615 0.003,0.15283 -1.241761,-0.49791 -2.602431,-0.59415 -1.432938,-0.10135 -2.091618,0.27128 -2.09269,0.21084 -0.0021,-0.1369 0.318442,-0.83757 0.395732,-0.92777 0.0375,-0.0437 0.510188,-0.31858 1.814251,-0.19184 1.410049,0.13704 1.929508,0.60263 1.983428,0.64677 z M 58.062017,212.64571 c 0,0 0.870659,0.85439 1.2084,2.65907 0.139448,0.74512 0.0755,2.36081 -0.34494,3.09281 0,0 -1.009873,0.99157 -1.41705,1.54129 -0.684321,0.92391 -1.054571,1.84969 -1.054571,1.84969 l -3.057361,0.88538 2.497201,0.76005 c 0,0 -0.0123,0.76358 -0.042,1.20329 -0.02609,0.38712 0.0424,1.10207 0.0424,1.10207 l -1.699879,1.44336 2.024719,-0.20134 c 0,0 0.304382,0.78739 0.528751,1.17625 0.24489,0.42441 0.771009,1.11522 0.771009,1.11522 l -0.803529,1.51169 1.405721,-0.88538 c 0,0 0.570809,0.48935 1.090379,0.79659 0.519579,0.30722 1.307431,0.46699 1.307431,0.46699 l -0.106341,2.16138 1.40572,-1.80693 1.086361,0.10048 1.122169,-0.0888 0.803169,2.50377 0.70888,-2.97661 c 0,0 1.03886,-0.34359 1.973569,-1.06224 0.586301,-0.45075 1.522651,-1.46492 1.522651,-1.46492 0,0 0.99782,-0.48328 2.31924,-0.41327 1.007649,0.0534 2.906061,0.74558 3.565281,1.44884 0,0 0.1548,0.14349 0.14143,0.23349 -0.02209,0.0921 -0.64626,0.26639 -1.188309,1.06552 -0.542052,0.79914 -0.388261,1.60736 -0.486723,1.69695 -0.0908,0.0825 -31.490829,13.04506 -31.490829,13.04506 l 13.033872,-31.46721 c 0.0552,-0.13353 0.531328,-0.0193 1.53983,-0.60146 1.008499,-0.58217 1.147419,-1.12328 1.245298,-1.07357 0,0 0.132652,0.0666 0.347872,0.18271 z m -0.959922,-0.50463 c 0.01151,0.012 0.01929,0.0236 0.0232,0.0345 0.01,0.0769 -0.451569,0.59703 -0.87844,0.83971 -0.45525,0.2588 -0.94434,0.26726 -0.919372,0.16077 0.0406,-0.12697 0.053,-0.23847 0.140322,-0.33983 0.0432,-0.0384 0.435668,-0.15616 0.72643,-0.36102 0.29755,-0.20964 0.41621,-0.47652 0.49436,-0.50539 0.0912,-0.0152 0.33291,0.0875 0.413279,0.17137 z m 18.22009,18.22858 c 0.0568,0.0468 0.189071,0.32582 0.18819,0.39939 -0.0011,0.0932 -0.375259,0.14467 -0.677101,0.57113 -0.30185,0.42645 -0.118599,0.63183 -0.176858,0.69354 -0.0583,0.0617 -0.406461,0.20523 -0.509011,0.21084 -0.10256,0.006 -0.146679,-0.63126 0.22034,-1.13166 0.36702,-0.50041 0.884701,-0.80095 0.95444,-0.74324 z"
         id="path1568"
         inkscape:connector-curvature="0"
         sodipodi:nodetypes="scccsccccccczssszzzcsccczssssszzccscccccscccccccccccccscccccccccsccscccscccccccccccccsccscc" />
      <path
         style="opacity:1;fill:#000000;fill-opacity:1;fill-rule:nonzero;stroke:none;stroke-width:0.05291667;stroke-linecap:round;stroke-linejoin:round;stroke-miterlimit:4;stroke-dasharray:none;stroke-opacity:1;paint-order:stroke fill markers"
         d="m 11.789146,218.78879 c 6.34813,-6.34809 12.97671,-8.67074 12.97671,-8.67074 L 40.073515,247.07316 3.1180163,231.76589 c 0,0 2.3229901,-6.629 8.6711297,-12.9771 z m -3.5247296,6.25579 c -0.1306701,0.10493 -0.6041599,0.76902 -0.5963399,0.87989 0.007,0.10465 0.75174,-0.0839 1.4747798,-0.13592 0.6722099,-0.0483 1.2272097,0.0894 1.2431197,0.0336 0.033,-0.11573 -0.13253,-0.4546 -0.20902,-0.56053 -0.0921,-0.12762 -0.3138097,-0.14184 -0.8203296,-0.14361 -0.5149501,-0.002 -0.9800899,-0.16349 -1.09221,-0.0735 z m 9.8039296,-9.68033 c -0.084,0.12075 -0.0358,0.44901 0.005,0.89484 0.0536,0.58091 0.0676,0.80995 0.1065,0.82407 0.0687,0.025 0.46114,0.12285 0.51677,0.10961 0.0272,-0.007 -0.0528,-0.29966 0.006,-1.22717 0.059,-0.9275 0.35354,-1.14225 0.28628,-1.25659 -0.0673,-0.11433 -0.83715,0.53448 -0.92114,0.65524 z m -4.83916,4.86532 c -2.3428,2.34309 -1.99984,6.48484 0,8.48476 1.99992,2 6.1419,2.34331 8.48513,2.7e-4 2.343279,-2.34318 2.343279,-6.14233 0,-8.4855 -2.34324,-2.34295 -6.14211,-2.34278 -8.48513,2.7e-4 z m 6.95297,-6.33544 c -0.1478,0.15347 -0.50843,1.06569 -0.63607,1.97313 -0.13555,0.96377 0.0359,1.61224 0.11748,1.66198 0.0358,0.0216 0.21835,0.061 0.39341,0.13803 0.21942,0.0965 0.43873,0.23043 0.47629,0.21367 0.092,-0.0411 -0.17406,-1.07398 -0.0649,-2.21281 0.10956,-1.14255 0.68617,-2.24967 0.59388,-2.27604 -0.0923,-0.0264 -0.73235,0.34854 -0.88013,0.50204 z M 6.9114663,227.17614 c -0.10459,0.0856 -0.4991399,0.72962 -0.50171,0.85615 -0.003,0.15283 1.2417602,-0.49791 2.60244,-0.59415 1.4329297,-0.10135 2.0916097,0.27128 2.0926897,0.21084 0.002,-0.1369 -0.31845,-0.83758 -0.39574,-0.92777 -0.0378,-0.0434 -0.5102,-0.31858 -1.8142596,-0.19184 -1.4100399,0.13704 -1.9295001,0.60264 -1.9834201,0.64677 z M 22.437996,212.64571 c 0,0 -0.870659,0.85439 -1.2084,2.65907 -0.13945,0.74512 -0.0755,2.3608 0.34494,3.09281 0,0 1.009841,0.9916 1.417021,1.54133 0.684319,0.9239 1.054558,1.84969 1.054558,1.84969 l 3.057372,0.88538 -2.497201,0.76004 c 0,0 0.0123,0.76359 0.042,1.20329 0.02619,0.38713 -0.0424,1.10207 -0.0424,1.10207 l 1.699871,1.44336 -2.024721,-0.20133 c 0,0 -0.304379,0.78739 -0.528749,1.17624 -0.244882,0.42441 -0.771011,1.11523 -0.771011,1.11523 l 0.803539,1.51169 -1.405728,-0.88538 c 0,0 -0.570802,0.48934 -1.090371,0.79658 -0.51958,0.30722 -1.30744,0.46699 -1.30744,0.46699 l 0.10634,2.16139 -1.40571,-1.80694 -1.08637,0.10049 -1.12216,-0.0888 -0.80317,2.50377 -0.70889,-2.97661 c 0,0 -1.03885,-0.3436 -1.97357,-1.06224 -0.58627,-0.45078 -1.52263,-1.46493 -1.52263,-1.46493 0,0 -0.99782,-0.48329 -2.3192397,-0.41328 -1.00765,0.0534 -2.9060598,0.74558 -3.56528,1.44884 0,0 -0.1547998,0.14349 -0.1414298,0.23349 0.022101,0.0921 0.6462598,0.2664 1.1882998,1.06554 0.5420402,0.79914 0.3882602,1.60735 0.4867201,1.69695 0.0909,0.0824 31.4908196,13.04505 31.4908196,13.04505 l -13.033819,-31.4672 c -0.0552,-0.13354 -0.531331,-0.0193 -1.53983,-0.60146 -1.008502,-0.58217 -1.147451,-1.12326 -1.245312,-1.07356 0,0 -0.132638,0.0666 -0.347869,0.1827 z m 0.959919,-0.50463 c -0.01151,0.012 -0.01929,0.0236 -0.0232,0.0345 -0.01,0.0769 0.45157,0.59703 0.878451,0.83969 0.45525,0.25881 0.94433,0.26727 0.919358,0.16079 -0.0406,-0.12701 -0.053,-0.23848 -0.140319,-0.33984 -0.0429,-0.0387 -0.435671,-0.15615 -0.726429,-0.36101 -0.297582,-0.20962 -0.41624,-0.47649 -0.494221,-0.50554 -0.0912,-0.0151 -0.332901,0.0875 -0.413281,0.17137 z M 5.1778163,230.36966 c -0.0568,0.0469 -0.1890498,0.32582 -0.1881798,0.39939 0.00101,0.0932 0.3752598,0.14467 0.6770798,0.57115 0.30186,0.42644 0.1186,0.63183 0.1768502,0.69355 0.0585,0.0614 0.4064698,0.20522 0.5090099,0.21083 0.10253,0.006 0.14669,-0.63126 -0.2203299,-1.13166 -0.36703,-0.50039 -0.8846802,-0.80096 -0.95445,-0.74324 z"
         id="path1570"
         inkscape:connector-curvature="0"
         sodipodi:nodetypes="scccsccccccczssszzzcsccczssssszzccscccccscccccccccccccscccccccccsccscccscccccccccccccsccscc" />
      <path
         sodipodi:nodetypes="scccsccccccczssszzzcsccczssssszzccscccccscccccccccccccscccccccccsccscccscccccccccccccsccscc"
         inkscape:connector-curvature="0"
         id="path1572"
         d="m 68.711237,275.71089 c 6.348097,-6.34814 8.670747,-12.97672 8.670747,-12.97672 l -36.955118,-15.30765 15.307289,36.95549 c 0,0 6.628989,-2.32298 12.977082,-8.67112 z m -6.255782,3.52472 c -0.104929,0.13068 -0.76903,0.60416 -0.879891,0.59635 -0.104658,-0.007 0.0839,-0.75175 0.135922,-1.47479 0.0484,-0.6722 -0.0894,-1.2272 -0.0336,-1.24311 0.115729,-0.033 0.454599,0.13253 0.560528,0.20901 0.127621,0.0921 0.14184,0.31382 0.143599,0.82034 0.0021,0.51495 0.163502,0.98009 0.0735,1.0922 z m 9.680331,-9.80393 c -0.12075,0.084 -0.449011,0.0358 -0.89485,-0.005 -0.5809,-0.0536 -0.809939,-0.0676 -0.82406,-0.1065 -0.025,-0.0687 -0.12286,-0.46114 -0.109609,-0.51677 0.006,-0.0272 0.299659,0.0528 1.227169,-0.006 0.927489,-0.059 1.142241,-0.35354 1.25658,-0.28628 0.11434,0.0673 -0.534471,0.83715 -0.65523,0.92114 z m -4.86533,4.83917 c -2.343081,2.3428 -6.484832,1.99984 -8.484761,0 -1.999999,-1.99992 -2.343309,-6.1419 -2.65e-4,-8.48513 2.343171,-2.34329 6.142321,-2.34328 8.485492,0 2.342949,2.34323 2.342779,6.14211 -2.65e-4,8.48513 z m 6.335451,-6.95298 c -0.153472,0.14781 -1.065692,0.50843 -1.973131,0.63607 -0.963771,0.13556 -1.612251,-0.0359 -1.66198,-0.11748 -0.02159,-0.0358 -0.061,-0.21834 -0.13803,-0.3934 -0.0965,-0.21942 -0.230431,-0.43873 -0.21367,-0.47629 0.0411,-0.092 1.073978,0.17406 2.2128,0.0649 1.142559,-0.10956 2.249678,-0.68617 2.276049,-0.59388 0.02641,0.0923 -0.348548,0.73236 -0.502038,0.88013 z m -13.28202,13.2707 c -0.0856,0.10459 -0.729612,0.49914 -0.856152,0.50171 -0.152818,0.003 0.497911,-1.24176 0.594161,-2.60244 0.101349,-1.43293 -0.271279,-2.09161 -0.210841,-2.09269 0.136901,-0.002 0.837571,0.31845 0.92777,0.39574 0.0434,0.0378 0.318582,0.51019 0.191831,1.81425 -0.137031,1.41004 -0.602631,1.92951 -0.646769,1.98343 z m 14.53043,-15.52653 c 0,0 -0.85439,0.87065 -2.65906,1.2084 -0.745123,0.13944 -2.360811,0.0755 -3.092821,-0.34495 0,0 -0.991589,-1.00983 -1.541319,-1.41701 -0.923912,-0.68432 -1.849692,-1.05456 -1.849692,-1.05456 l -0.88538,-3.05737 -0.76005,2.4972 c 0,0 -0.76358,-0.0123 -1.203288,-0.042 -0.38712,-0.0261 -1.102072,0.0424 -1.102072,0.0424 l -1.44336,-1.69987 0.20134,2.02473 c 0,0 -0.787389,0.30437 -1.17625,0.52874 -0.4244,0.24489 -1.115219,0.77101 -1.115219,0.77101 l -1.511692,-0.80353 0.885381,1.40572 c 0,0 -0.48935,0.57081 -0.796578,1.09038 -0.307232,0.51958 -0.467001,1.30743 -0.467001,1.30743 l -2.161381,-0.10633 1.80694,1.40571 -0.100488,1.08636 0.0888,1.12217 -2.503771,0.80317 2.9766,0.70888 c 0,0 0.343601,1.03886 1.062241,1.97357 0.450789,0.58627 1.46494,1.52264 1.46494,1.52264 0,0 0.48328,0.99782 0.413271,2.31924 -0.0534,1.00765 -0.745583,2.90606 -1.448842,3.56528 0,0 -0.143489,0.1548 -0.23349,0.14142 -0.0921,-0.0221 -0.26639,-0.64625 -1.06554,-1.18829 -0.799129,-0.54205 -1.607349,-0.38826 -1.696948,-0.48672 -0.0824,-0.0909 -13.045051,-31.49083 -13.045051,-31.49083 l 31.46721,13.03387 c 0.133538,0.0552 0.01929,0.53133 0.601459,1.53983 0.58216,1.0085 1.12326,1.14744 1.07356,1.24531 0,0 -0.0666,0.13264 -0.1827,0.34786 z m 0.504639,-0.95993 c -0.01201,0.0115 -0.0236,0.0193 -0.0345,0.0232 -0.0769,0.01 -0.59703,-0.45156 -0.839701,-0.87845 -0.258799,-0.45525 -0.267258,-0.94433 -0.160779,-0.91936 0.127011,0.0406 0.23848,0.053 0.339842,0.14032 0.0387,0.0429 0.156159,0.43567 0.361008,0.72643 0.209621,0.29758 0.47649,0.41624 0.505542,0.49423 0.01511,0.0912 -0.0875,0.33289 -0.171371,0.41327 z m -18.22859,18.2201 c -0.0469,0.0568 -0.32581,0.18906 -0.399381,0.18818 -0.0932,-10e-4 -0.144679,-0.37525 -0.57115,-0.67707 -0.42645,-0.30186 -0.631831,-0.1186 -0.69355,-0.17686 -0.0614,-0.0585 -0.205219,-0.40646 -0.210838,-0.50901 -0.006,-0.10253 0.631258,-0.14668 1.131667,0.22034 0.500391,0.36703 0.800963,0.88468 0.743231,0.95444 z"
         style="opacity:1;fill:#000000;fill-opacity:1;fill-rule:nonzero;stroke:none;stroke-width:0.05291667;stroke-linecap:round;stroke-linejoin:round;stroke-miterlimit:4;stroke-dasharray:none;stroke-opacity:1;paint-order:stroke fill markers" />
      <circle
         r="7.5888801"
         cy="247.25003"
         cx="40.25"
         id="circle2343"
         style="display:inline;opacity:1;fill:#feffff;fill-opacity:1;fill-rule:nonzero;stroke:none;stroke-width:0.09465404;stroke-linecap:round;stroke-linejoin:round;stroke-miterlimit:4;stroke-dasharray:none;stroke-opacity:1;paint-order:stroke fill markers"
         inkscape:label="White" />
    </g>
  </g>
  <g
     inkscape:groupmode="layer"
     id="layer2"
     inkscape:label="Layer 2"
     transform="translate(0,-207.00002)"
     style="display:inline">
    <circle
       r="39.993385"
       inkscape:label="Outer Cut"
       cy="247.25002"
       cx="40.25"
       id="circle968"
       style="display:inline;opacity:1;fill:none;fill-opacity:1;fill-rule:nonzero;stroke:#ff0000;stroke-width:0.02;stroke-linecap:round;stroke-linejoin:round;stroke-miterlimit:4;stroke-dasharray:none;stroke-opacity:1;paint-order:stroke fill markers" />
    <circle
       style="opacity:1;fill:none;fill-opacity:1;fill-rule:nonzero;stroke:#ff0000;stroke-width:0.02;stroke-linecap:butt;stroke-linejoin:round;stroke-miterlimit:4;stroke-dasharray:none;stroke-opacity:1;paint-order:stroke fill markers"
       id="path1732"
       cx="40.25"
       cy="247.25002"
       r="4"
       inkscape:label="Center Cut" />
  </g>
</svg>
